<svg xmlns="http://www.w3.org/2000/svg" xmlns:xlink="http://www.w3.org/1999/xlink" x="0" y="0" width="661.3333740234375" height="311.3333435058594" style="
        width:661.3333740234375px;
        height:311.3333435058594px;
        background: transparent;
        fill: none;
">
        
        
        <svg xmlns="http://www.w3.org/2000/svg" class="role-diagram-draw-area"><g class="shapes-region" style="stroke: black; fill: none;"><g class="composite-shape" data-amt="diagram/shapes/plot" transform="matrix(1,0,0,1,20,10)"><g><g><g class="test-xgi"><line x1="52.147455334663384" y1="0" x2="52.147455334663384" y2="270" fill="none" stroke="#c3c3c3" stroke-width="0.5"/><line x1="117.00478610396385" y1="0" x2="117.00478610396385" y2="270" fill="none" stroke="#c3c3c3" stroke-width="0.5"/><line x1="181.86211687326428" y1="0" x2="181.86211687326428" y2="270" fill="none" stroke="#c3c3c3" stroke-width="0.5"/><line x1="246.71944764256477" y1="0" x2="246.71944764256477" y2="270" fill="none" stroke="#c3c3c3" stroke-width="0.5"/><line x1="311.57677841186523" y1="0" x2="311.57677841186523" y2="270" fill="none" stroke="#c3c3c3" stroke-width="0.5"/><line x1="376.4341091811657" y1="0" x2="376.4341091811657" y2="270" fill="none" stroke="#c3c3c3" stroke-width="0.5"/><line x1="441.29143995046616" y1="0" x2="441.29143995046616" y2="270" fill="none" stroke="#c3c3c3" stroke-width="0.5"/><line x1="506.1487707197667" y1="0" x2="506.1487707197667" y2="270" fill="none" stroke="#c3c3c3" stroke-width="0.5"/><line x1="571.0061014890672" y1="0" x2="571.0061014890672" y2="270" fill="none" stroke="#c3c3c3" stroke-width="0.5"/></g><g class="test-ygi"><line x1="0" y1="258.14885768294334" x2="620" y2="258.14885768294334" fill="none" stroke="#c3c3c3" stroke-width="0.5"/><line x1="0" y1="193.29152691364288" x2="620" y2="193.29152691364288" fill="none" stroke="#c3c3c3" stroke-width="0.5"/><line x1="0" y1="128.43419614434242" x2="620" y2="128.43419614434242" fill="none" stroke="#c3c3c3" stroke-width="0.5"/><line x1="0" y1="63.57686537504196" x2="620" y2="63.57686537504196" fill="none" stroke="#c3c3c3" stroke-width="0.5"/></g></g><g><g class="test-xti" style="font-family: Asana-Math, Asana;"><line x1="0" y1="128.43419614434242" x2="616" y2="128.43419614434242" fill="none" stroke="rgb(50,50,50)" stroke-opacity="1" stroke-width="1"/><line x1="52.147455334663384" y1="124.43419614434242" x2="52.147455334663384" y2="132.43419614434242" fill="none" stroke="rgb(50,50,50)" stroke-opacity="1" stroke-width="1"/><line x1="117.00478610396385" y1="124.43419614434242" x2="117.00478610396385" y2="132.43419614434242" fill="none" stroke="rgb(50,50,50)" stroke-opacity="1" stroke-width="1"/><line x1="181.86211687326428" y1="124.43419614434242" x2="181.86211687326428" y2="132.43419614434242" fill="none" stroke="rgb(50,50,50)" stroke-opacity="1" stroke-width="1"/><line x1="246.71944764256477" y1="124.43419614434242" x2="246.71944764256477" y2="132.43419614434242" fill="none" stroke="rgb(50,50,50)" stroke-opacity="1" stroke-width="1"/><line x1="376.4341091811657" y1="124.43419614434242" x2="376.4341091811657" y2="132.43419614434242" fill="none" stroke="rgb(50,50,50)" stroke-opacity="1" stroke-width="1"/><line x1="441.29143995046616" y1="124.43419614434242" x2="441.29143995046616" y2="132.43419614434242" fill="none" stroke="rgb(50,50,50)" stroke-opacity="1" stroke-width="1"/><line x1="506.1487707197667" y1="124.43419614434242" x2="506.1487707197667" y2="132.43419614434242" fill="none" stroke="rgb(50,50,50)" stroke-opacity="1" stroke-width="1"/><line x1="571.0061014890672" y1="124.43419614434242" x2="571.0061014890672" y2="132.43419614434242" fill="none" stroke="rgb(50,50,50)" stroke-opacity="1" stroke-width="1"/><path d="M611,124.83419614434243 L619,128.43419614434242 L611,132.03419614434242 Z" stroke="none" stroke-width="1" fill="rgb(50,50,50)" fill-opacity="1"/></g><g class="test-yti" style="font-family: Asana-Math, Asana;"><line x1="311.57677841186523" y1="4" x2="311.57677841186523" y2="270" fill="none" stroke="rgb(50,50,50)" stroke-opacity="1" stroke-width="1"/><line x1="307.57677841186523" y1="258.14885768294334" x2="315.57677841186523" y2="258.14885768294334" fill="none" stroke="rgb(50,50,50)" stroke-opacity="1" stroke-width="1"/><line x1="307.57677841186523" y1="193.29152691364288" x2="315.57677841186523" y2="193.29152691364288" fill="none" stroke="rgb(50,50,50)" stroke-opacity="1" stroke-width="1"/><line x1="307.57677841186523" y1="63.57686537504196" x2="315.57677841186523" y2="63.57686537504196" fill="none" stroke="rgb(50,50,50)" stroke-opacity="1" stroke-width="1"/><path d="M307.9767784118652,9 L311.57677841186523,1 L315.17677841186526,9 Z" stroke="none" stroke-width="1" fill="rgb(50,50,50)" fill-opacity="1"/></g><g class="test-plot-expression"><defs><clipPath id="cp9n83pegky"><rect x="1" y="1" width="618" height="268"/></clipPath></defs><g clip-path="url(#cp9n83pegky)"><path d=" M428.32, 270.00 L428.32, 269.50 L428.32, 269.00 L428.32, 268.50 L428.32, 268.00 L428.32, 267.50 L428.32, 266.99 L428.32, 266.49 L428.32, 265.99 L428.32, 265.49 L428.32, 264.99 L428.32, 264.49 L428.32, 263.99 L428.32, 263.49 L428.32, 262.99 L428.32, 262.49 L428.32, 261.99 L428.32, 261.48 L428.32, 260.98 L428.32, 260.48 L428.32, 259.98 L428.32, 259.48 L428.32, 258.98 L428.32, 258.48 L428.32, 257.98 L428.32, 257.48 L428.32, 256.98 L428.32, 256.47 L428.32, 255.97 L428.32, 255.47 L428.32, 254.97 L428.32, 254.47 L428.32, 253.97 L428.32, 253.47 L428.32, 252.97 L428.32, 252.47 L428.32, 251.97 L428.32, 251.47 L428.32, 250.96 L428.32, 250.46 L428.32, 249.96 L428.32, 249.46 L428.32, 248.96 L428.32, 248.46 L428.32, 247.96 L428.32, 247.46 L428.32, 246.96 L428.32, 246.46 L428.32, 245.96 L428.32, 245.45 L428.32, 244.95 L428.32, 244.45 L428.32, 243.95 L428.32, 243.45 L428.32, 242.95 L428.32, 242.45 L428.32, 241.95 L428.32, 241.45 L428.32, 240.95 L428.32, 240.45 L428.32, 239.94 L428.32, 239.44 L428.32, 238.94 L428.32, 238.44 L428.32, 237.94 L428.32, 237.44 L428.32, 236.94 L428.32, 236.44 L428.32, 235.94 L428.32, 235.44 L428.32, 234.94 L428.32, 234.43 L428.32, 233.93 L428.32, 233.43 L428.32, 232.93 L428.32, 232.43 L428.32, 231.93 L428.32, 231.43 L428.32, 230.93 L428.32, 230.43 L428.32, 229.93 L428.32, 229.42 L428.32, 228.92 L428.32, 228.42 L428.32, 227.92 L428.32, 227.42 L428.32, 226.92 L428.32, 226.42 L428.32, 225.92 L428.32, 225.42 L428.32, 224.92 L428.32, 224.42 L428.32, 223.91 L428.32, 223.41 L428.32, 222.91 L428.32, 222.41 L428.32, 221.91 L428.32, 221.41 L428.32, 220.91 L428.32, 220.41 L428.32, 219.91 L428.32, 219.41 L428.32, 218.91 L428.32, 218.40 L428.32, 217.90 L428.32, 217.40 L428.32, 216.90 L428.32, 216.40 L428.32, 215.90 L428.32, 215.40 L428.32, 214.90 L428.32, 214.40 L428.32, 213.90 L428.32, 213.40 L428.32, 212.89 L428.32, 212.39 L428.32, 211.89 L428.32, 211.39 L428.32, 210.89 L428.32, 210.39 L428.32, 209.89 L428.32, 209.39 L428.32, 208.89 L428.32, 208.39 L428.32, 207.88 L428.32, 207.38 L428.32, 206.88 L428.32, 206.38 L428.32, 205.88 L428.32, 205.38 L428.32, 204.88 L428.32, 204.38 L428.32, 203.88 L428.32, 203.38 L428.32, 202.88 L428.32, 202.37 L428.32, 201.87 L428.32, 201.37 L428.32, 200.87 L428.32, 200.37 L428.32, 199.87 L428.32, 199.37 L428.32, 198.87 L428.32, 198.37 L428.32, 197.87 L428.32, 197.37 L428.32, 196.86 L428.32, 196.36 L428.32, 195.86 L428.32, 195.36 L428.32, 194.86 L428.32, 194.36 L428.32, 193.86 L428.32, 193.36 L428.32, 192.86 L428.32, 192.36 L428.32, 191.86 L428.32, 191.35 L428.32, 190.85 L428.32, 190.35 L428.32, 189.85 L428.32, 189.35 L428.32, 188.85 L428.32, 188.35 L428.32, 187.85 L428.32, 187.35 L428.32, 186.85 L428.32, 186.35 L428.32, 185.84 L428.32, 185.34 L428.32, 184.84 L428.32, 184.34 L428.32, 183.84 L428.32, 183.34 L428.32, 182.84 L428.32, 182.34 L428.32, 181.84 L428.32, 181.34 L428.32, 180.83 L428.32, 180.33 L428.32, 179.83 L428.32, 179.33 L428.32, 178.83 L428.32, 178.33 L428.32, 177.83 L428.32, 177.33 L428.32, 176.83 L428.32, 176.33 L428.32, 175.83 L428.32, 175.32 L428.32, 174.82 L428.32, 174.32 L428.32, 173.82 L428.32, 173.32 L428.32, 172.82 L428.32, 172.32 L428.32, 171.82 L428.32, 171.32 L428.32, 170.82 L428.32, 170.32 L428.32, 169.81 L428.32, 169.31 L428.32, 168.81 L428.32, 168.31 L428.32, 167.81 L428.32, 167.31 L428.32, 166.81 L428.32, 166.31 L428.32, 165.81 L428.32, 165.31 L428.32, 164.81 L428.32, 164.30 L428.32, 163.80 L428.32, 163.30 L428.32, 162.80 L428.32, 162.30 L428.32, 161.80 L428.32, 161.30 L428.32, 160.80 L428.32, 160.30 L428.32, 159.80 L428.32, 159.29 L428.32, 158.79 L428.32, 158.29 L428.32, 157.79 L428.32, 157.29 L428.32, 156.79 L428.32, 156.29 L428.32, 155.79 L428.32, 155.29 L428.32, 154.79 L428.32, 154.29 L428.32, 153.78 L428.32, 153.28 L428.32, 152.78 L428.32, 152.28 L428.32, 151.78 L428.32, 151.28 L428.32, 150.78 L428.32, 150.28 L428.32, 149.78 L428.32, 149.28 L428.32, 148.78 L428.32, 148.27 L428.32, 147.77 L428.32, 147.27 L428.32, 146.77 L428.32, 146.27 L428.32, 145.77 L428.32, 145.27 L428.32, 144.77 L428.32, 144.27 L428.32, 143.77 L428.32, 143.27 L428.32, 142.76 L428.32, 142.26 L428.32, 141.76 L428.32, 141.26 L428.32, 140.76 L428.32, 140.26 L428.32, 139.76 L428.32, 139.26 L428.32, 138.76 L428.32, 138.26 L428.32, 137.76 L428.32, 137.25 L428.32, 136.75 L428.32, 136.25 L428.32, 135.75 L428.32, 135.25 L428.32, 134.75 L428.32, 134.25 L428.32, 133.75 L428.32, 133.25 L428.32, 132.75 L428.32, 132.24 L428.32, 131.74 L428.32, 131.24 L428.32, 130.74 L428.32, 130.24 L428.32, 129.74 L428.32, 129.24 L428.32, 128.74 L428.32, 128.24 L428.32, 127.74 L428.32, 127.24 L428.32, 126.73 L428.32, 126.23 L428.32, 125.73 L428.32, 125.23 L428.32, 124.73 L428.32, 124.23 L428.32, 123.73 L428.32, 123.23 L428.32, 122.73 L428.32, 122.23 L428.32, 121.73 L428.32, 121.22 L428.32, 120.72 L428.32, 120.22 L428.32, 119.72 L428.32, 119.22 L428.32, 118.72 L428.32, 118.22 L428.32, 117.72 L428.32, 117.22 L428.32, 116.72 L428.32, 116.22 L428.32, 115.71 L428.32, 115.21 L428.32, 114.71 L428.32, 114.21 L428.32, 113.71 L428.32, 113.21 L428.32, 112.71 L428.32, 112.21 L428.32, 111.71 L428.32, 111.21 L428.32, 110.71 L428.32, 110.20 L428.32, 109.70 L428.32, 109.20 L428.32, 108.70 L428.32, 108.20 L428.32, 107.70 L428.32, 107.20 L428.32, 106.70 L428.32, 106.20 L428.32, 105.70 L428.32, 105.19 L428.32, 104.69 L428.32, 104.19 L428.32, 103.69 L428.32, 103.19 L428.32, 102.69 L428.32, 102.19 L428.32, 101.69 L428.32, 101.19 L428.32, 100.69 L428.32, 100.19 L428.32, 99.68 L428.32, 99.18 L428.32, 98.68 L428.32, 98.18 L428.32, 97.68 L428.32, 97.18 L428.32, 96.68 L428.32, 96.18 L428.32, 95.68 L428.32, 95.18 L428.32, 94.68 L428.32, 94.17 L428.32, 93.67 L428.32, 93.17 L428.32, 92.67 L428.32, 92.17 L428.32, 91.67 L428.32, 91.17 L428.32, 90.67 L428.32, 90.17 L428.32, 89.67 L428.32, 89.17 L428.32, 88.66 L428.32, 88.16 L428.32, 87.66 L428.32, 87.16 L428.32, 86.66 L428.32, 86.16 L428.32, 85.66 L428.32, 85.16 L428.32, 84.66 L428.32, 84.16 L428.32, 83.65 L428.32, 83.15 L428.32, 82.65 L428.32, 82.15 L428.32, 81.65 L428.32, 81.15 L428.32, 80.65 L428.32, 80.15 L428.32, 79.65 L428.32, 79.15 L428.32, 78.65 L428.32, 78.14 L428.32, 77.64 L428.32, 77.14 L428.32, 76.64 L428.32, 76.14 L428.32, 75.64 L428.32, 75.14 L428.32, 74.64 L428.32, 74.14 L428.32, 73.64 L428.32, 73.14 L428.32, 72.63 L428.32, 72.13 L428.32, 71.63 L428.32, 71.13 L428.32, 70.63 L428.32, 70.13 L428.32, 69.63 L428.32, 69.13 L428.32, 68.63 L428.32, 68.13 L428.32, 67.63 L428.32, 67.12 L428.32, 66.62 L428.32, 66.12 L428.32, 65.62 L428.32, 65.12 L428.32, 64.62 L428.32, 64.12 L428.32, 63.62 L428.32, 63.12 L428.32, 62.62 L428.32, 62.12 L428.32, 61.61 L428.32, 61.11 L428.32, 60.61 L428.32, 60.11 L428.32, 59.61 L428.32, 59.11 L428.32, 58.61 L428.32, 58.11 L428.32, 57.61 L428.32, 57.11 L428.32, 56.60 L428.32, 56.10 L428.32, 55.60 L428.32, 55.10 L428.32, 54.60 L428.32, 54.10 L428.32, 53.60 L428.32, 53.10 L428.32, 52.60 L428.32, 52.10 L428.32, 51.60 L428.32, 51.09 L428.32, 50.59 L428.32, 50.09 L428.32, 49.59 L428.32, 49.09 L428.32, 48.59 L428.32, 48.09 L428.32, 47.59 L428.32, 47.09 L428.32, 46.59 L428.32, 46.09 L428.32, 45.58 L428.32, 45.08 L428.32, 44.58 L428.32, 44.08 L428.32, 43.58 L428.32, 43.08 L428.32, 42.58 L428.32, 42.08 L428.32, 41.58 L428.32, 41.08 L428.32, 40.58 L428.32, 40.07 L428.32, 39.57 L428.32, 39.07 L428.32, 38.57 L428.32, 38.07 L428.32, 37.57 L428.32, 37.07 L428.32, 36.57 L428.32, 36.07 L428.32, 35.57 L428.32, 35.06 L428.32, 34.56 L428.32, 34.06 L428.32, 33.56 L428.32, 33.06 L428.32, 32.56 L428.32, 32.06 L428.32, 31.56 L428.32, 31.06 L428.32, 30.56 L428.32, 30.06 L428.32, 29.55 L428.32, 29.05 L428.32, 28.55 L428.32, 28.05 L428.32, 27.55 L428.32, 27.05 L428.32, 26.55 L428.32, 26.05 L428.32, 25.55 L428.32, 25.05 L428.32, 24.55 L428.32, 24.04 L428.32, 23.54 L428.32, 23.04 L428.32, 22.54 L428.32, 22.04 L428.32, 21.54 L428.32, 21.04 L428.32, 20.54 L428.32, 20.04 L428.32, 19.54 L428.32, 19.04 L428.32, 18.53 L428.32, 18.03 L428.32, 17.53 L428.32, 17.03 L428.32, 16.53 L428.32, 16.03 L428.32, 15.53 L428.32, 15.03 L428.32, 14.53 L428.32, 14.03 L428.32, 13.53 L428.32, 13.02 L428.32, 12.52 L428.32, 12.02 L428.32, 11.52 L428.32, 11.02 L428.32, 10.52 L428.32, 10.02 L428.32, 9.52 L428.32, 9.02 L428.32, 8.52 L428.32, 8.01 L428.32, 7.51 L428.32, 7.01 L428.32, 6.51 L428.32, 6.01 L428.32, 5.51 L428.32, 5.01 L428.32, 4.51 L428.32, 4.01 L428.32, 3.51 L428.32, 3.01 L428.32, 2.50 L428.32, 2.00 L428.32, 1.50 L428.32, 1.00 L428.32, 0.50 L428.32, 0.00" style="stroke-width: 2; stroke: rgb(126, 211, 33); stroke-opacity: 1; stroke-dasharray: 7.5, 6;"/><g><circle cx="376.4341091811657" cy="115.46272999048233" r="4" style="stroke-width: 3; stroke: rgb(126, 211, 33); stroke-opacity: 1; fill: rgb(126, 211, 33); fill-opacity: 1;"/><circle cx="389.4055753350258" cy="102.49126383662224" r="4" style="stroke-width: 3; stroke: rgb(126, 211, 33); stroke-opacity: 1; fill: rgb(126, 211, 33); fill-opacity: 1;"/><circle cx="324.5482445657253" cy="121.94846306741238" r="4" style="stroke-width: 3; stroke: rgb(126, 211, 33); stroke-opacity: 1; fill: rgb(126, 211, 33); fill-opacity: 1;"/><circle cx="415.34850764274603" cy="89.51979768276215" r="4" style="stroke-width: 3; stroke: rgb(126, 211, 33); stroke-opacity: 1; fill: rgb(126, 211, 33); fill-opacity: 1;"/><circle cx="421.8342407196761" cy="93.41123752892017" r="4" style="stroke-width: 3; stroke: rgb(126, 211, 33); stroke-opacity: 1; fill: rgb(126, 211, 33); fill-opacity: 1;"/><circle cx="311.57677841186523" cy="141.40566229820251" r="4" style="stroke-width: 3; stroke: rgb(126, 211, 33); stroke-opacity: 1; fill: rgb(126, 211, 33); fill-opacity: 1;"/><circle cx="298.60531225800514" cy="115.46272999048233" r="4" style="stroke-width: 3; stroke: rgb(126, 211, 33); stroke-opacity: 1; fill: rgb(126, 211, 33); fill-opacity: 1;"/><circle cx="246.71944764256477" cy="115.46272999048233" r="4" style="stroke-width: 3; stroke: rgb(126, 211, 33); stroke-opacity: 1; fill: rgb(126, 211, 33); fill-opacity: 1;"/><circle cx="220.7765153348446" cy="89.51979768276215" r="4" style="stroke-width: 3; stroke: rgb(126, 211, 33); stroke-opacity: 1; fill: rgb(126, 211, 33); fill-opacity: 1;"/><circle cx="207.8050491809845" cy="89.51979768276215" r="4" style="stroke-width: 3; stroke: rgb(126, 211, 33); stroke-opacity: 1; fill: rgb(126, 211, 33); fill-opacity: 1;"/></g><g><g class="arrow-line"><path class="vector-plot real" stroke-dasharray="" d="  M558.03,219.23 L583.98,219.23" style="stroke: rgb(74, 144, 226); stroke-opacity: 1; stroke-width: 2;"/></g></g><path d=" M194.83, 270.00 L194.83, 269.50 L194.83, 269.00 L194.83, 268.50 L194.83, 268.00 L194.83, 267.50 L194.83, 266.99 L194.83, 266.49 L194.83, 265.99 L194.83, 265.49 L194.83, 264.99 L194.83, 264.49 L194.83, 263.99 L194.83, 263.49 L194.83, 262.99 L194.83, 262.49 L194.83, 261.99 L194.83, 261.48 L194.83, 260.98 L194.83, 260.48 L194.83, 259.98 L194.83, 259.48 L194.83, 258.98 L194.83, 258.48 L194.83, 257.98 L194.83, 257.48 L194.83, 256.98 L194.83, 256.47 L194.83, 255.97 L194.83, 255.47 L194.83, 254.97 L194.83, 254.47 L194.83, 253.97 L194.83, 253.47 L194.83, 252.97 L194.83, 252.47 L194.83, 251.97 L194.83, 251.47 L194.83, 250.96 L194.83, 250.46 L194.83, 249.96 L194.83, 249.46 L194.83, 248.96 L194.83, 248.46 L194.83, 247.96 L194.83, 247.46 L194.83, 246.96 L194.83, 246.46 L194.83, 245.96 L194.83, 245.45 L194.83, 244.95 L194.83, 244.45 L194.83, 243.95 L194.83, 243.45 L194.83, 242.95 L194.83, 242.45 L194.83, 241.95 L194.83, 241.45 L194.83, 240.95 L194.83, 240.45 L194.83, 239.94 L194.83, 239.44 L194.83, 238.94 L194.83, 238.44 L194.83, 237.94 L194.83, 237.44 L194.83, 236.94 L194.83, 236.44 L194.83, 235.94 L194.83, 235.44 L194.83, 234.94 L194.83, 234.43 L194.83, 233.93 L194.83, 233.43 L194.83, 232.93 L194.83, 232.43 L194.83, 231.93 L194.83, 231.43 L194.83, 230.93 L194.83, 230.43 L194.83, 229.93 L194.83, 229.42 L194.83, 228.92 L194.83, 228.42 L194.83, 227.92 L194.83, 227.42 L194.83, 226.92 L194.83, 226.42 L194.83, 225.92 L194.83, 225.42 L194.83, 224.92 L194.83, 224.42 L194.83, 223.91 L194.83, 223.41 L194.83, 222.91 L194.83, 222.41 L194.83, 221.91 L194.83, 221.41 L194.83, 220.91 L194.83, 220.41 L194.83, 219.91 L194.83, 219.41 L194.83, 218.91 L194.83, 218.40 L194.83, 217.90 L194.83, 217.40 L194.83, 216.90 L194.83, 216.40 L194.83, 215.90 L194.83, 215.40 L194.83, 214.90 L194.83, 214.40 L194.83, 213.90 L194.83, 213.40 L194.83, 212.89 L194.83, 212.39 L194.83, 211.89 L194.83, 211.39 L194.83, 210.89 L194.83, 210.39 L194.83, 209.89 L194.83, 209.39 L194.83, 208.89 L194.83, 208.39 L194.83, 207.88 L194.83, 207.38 L194.83, 206.88 L194.83, 206.38 L194.83, 205.88 L194.83, 205.38 L194.83, 204.88 L194.83, 204.38 L194.83, 203.88 L194.83, 203.38 L194.83, 202.88 L194.83, 202.37 L194.83, 201.87 L194.83, 201.37 L194.83, 200.87 L194.83, 200.37 L194.83, 199.87 L194.83, 199.37 L194.83, 198.87 L194.83, 198.37 L194.83, 197.87 L194.83, 197.37 L194.83, 196.86 L194.83, 196.36 L194.83, 195.86 L194.83, 195.36 L194.83, 194.86 L194.83, 194.36 L194.83, 193.86 L194.83, 193.36 L194.83, 192.86 L194.83, 192.36 L194.83, 191.86 L194.83, 191.35 L194.83, 190.85 L194.83, 190.35 L194.83, 189.85 L194.83, 189.35 L194.83, 188.85 L194.83, 188.35 L194.83, 187.85 L194.83, 187.35 L194.83, 186.85 L194.83, 186.35 L194.83, 185.84 L194.83, 185.34 L194.83, 184.84 L194.83, 184.34 L194.83, 183.84 L194.83, 183.34 L194.83, 182.84 L194.83, 182.34 L194.83, 181.84 L194.83, 181.34 L194.83, 180.83 L194.83, 180.33 L194.83, 179.83 L194.83, 179.33 L194.83, 178.83 L194.83, 178.33 L194.83, 177.83 L194.83, 177.33 L194.83, 176.83 L194.83, 176.33 L194.83, 175.83 L194.83, 175.32 L194.83, 174.82 L194.83, 174.32 L194.83, 173.82 L194.83, 173.32 L194.83, 172.82 L194.83, 172.32 L194.83, 171.82 L194.83, 171.32 L194.83, 170.82 L194.83, 170.32 L194.83, 169.81 L194.83, 169.31 L194.83, 168.81 L194.83, 168.31 L194.83, 167.81 L194.83, 167.31 L194.83, 166.81 L194.83, 166.31 L194.83, 165.81 L194.83, 165.31 L194.83, 164.81 L194.83, 164.30 L194.83, 163.80 L194.83, 163.30 L194.83, 162.80 L194.83, 162.30 L194.83, 161.80 L194.83, 161.30 L194.83, 160.80 L194.83, 160.30 L194.83, 159.80 L194.83, 159.29 L194.83, 158.79 L194.83, 158.29 L194.83, 157.79 L194.83, 157.29 L194.83, 156.79 L194.83, 156.29 L194.83, 155.79 L194.83, 155.29 L194.83, 154.79 L194.83, 154.29 L194.83, 153.78 L194.83, 153.28 L194.83, 152.78 L194.83, 152.28 L194.83, 151.78 L194.83, 151.28 L194.83, 150.78 L194.83, 150.28 L194.83, 149.78 L194.83, 149.28 L194.83, 148.78 L194.83, 148.27 L194.83, 147.77 L194.83, 147.27 L194.83, 146.77 L194.83, 146.27 L194.83, 145.77 L194.83, 145.27 L194.83, 144.77 L194.83, 144.27 L194.83, 143.77 L194.83, 143.27 L194.83, 142.76 L194.83, 142.26 L194.83, 141.76 L194.83, 141.26 L194.83, 140.76 L194.83, 140.26 L194.83, 139.76 L194.83, 139.26 L194.83, 138.76 L194.83, 138.26 L194.83, 137.76 L194.83, 137.25 L194.83, 136.75 L194.83, 136.25 L194.83, 135.75 L194.83, 135.25 L194.83, 134.75 L194.83, 134.25 L194.83, 133.75 L194.83, 133.25 L194.83, 132.75 L194.83, 132.24 L194.83, 131.74 L194.83, 131.24 L194.83, 130.74 L194.83, 130.24 L194.83, 129.74 L194.83, 129.24 L194.83, 128.74 L194.83, 128.24 L194.83, 127.74 L194.83, 127.24 L194.83, 126.73 L194.83, 126.23 L194.83, 125.73 L194.83, 125.23 L194.83, 124.73 L194.83, 124.23 L194.83, 123.73 L194.83, 123.23 L194.83, 122.73 L194.83, 122.23 L194.83, 121.73 L194.83, 121.22 L194.83, 120.72 L194.83, 120.22 L194.83, 119.72 L194.83, 119.22 L194.83, 118.72 L194.83, 118.22 L194.83, 117.72 L194.83, 117.22 L194.83, 116.72 L194.83, 116.22 L194.83, 115.71 L194.83, 115.21 L194.83, 114.71 L194.83, 114.21 L194.83, 113.71 L194.83, 113.21 L194.83, 112.71 L194.83, 112.21 L194.83, 111.71 L194.83, 111.21 L194.83, 110.71 L194.83, 110.20 L194.83, 109.70 L194.83, 109.20 L194.83, 108.70 L194.83, 108.20 L194.83, 107.70 L194.83, 107.20 L194.83, 106.70 L194.83, 106.20 L194.83, 105.70 L194.83, 105.19 L194.83, 104.69 L194.83, 104.19 L194.83, 103.69 L194.83, 103.19 L194.83, 102.69 L194.83, 102.19 L194.83, 101.69 L194.83, 101.19 L194.83, 100.69 L194.83, 100.19 L194.83, 99.68 L194.83, 99.18 L194.83, 98.68 L194.83, 98.18 L194.83, 97.68 L194.83, 97.18 L194.83, 96.68 L194.83, 96.18 L194.83, 95.68 L194.83, 95.18 L194.83, 94.68 L194.83, 94.17 L194.83, 93.67 L194.83, 93.17 L194.83, 92.67 L194.83, 92.17 L194.83, 91.67 L194.83, 91.17 L194.83, 90.67 L194.83, 90.17 L194.83, 89.67 L194.83, 89.17 L194.83, 88.66 L194.83, 88.16 L194.83, 87.66 L194.83, 87.16 L194.83, 86.66 L194.83, 86.16 L194.83, 85.66 L194.83, 85.16 L194.83, 84.66 L194.83, 84.16 L194.83, 83.65 L194.83, 83.15 L194.83, 82.65 L194.83, 82.15 L194.83, 81.65 L194.83, 81.15 L194.83, 80.65 L194.83, 80.15 L194.83, 79.65 L194.83, 79.15 L194.83, 78.65 L194.83, 78.14 L194.83, 77.64 L194.83, 77.14 L194.83, 76.64 L194.83, 76.14 L194.83, 75.64 L194.83, 75.14 L194.83, 74.64 L194.83, 74.14 L194.83, 73.64 L194.83, 73.14 L194.83, 72.63 L194.83, 72.13 L194.83, 71.63 L194.83, 71.13 L194.83, 70.63 L194.83, 70.13 L194.83, 69.63 L194.83, 69.13 L194.83, 68.63 L194.83, 68.13 L194.83, 67.63 L194.83, 67.12 L194.83, 66.62 L194.83, 66.12 L194.83, 65.62 L194.83, 65.12 L194.83, 64.62 L194.83, 64.12 L194.83, 63.62 L194.83, 63.12 L194.83, 62.62 L194.83, 62.12 L194.83, 61.61 L194.83, 61.11 L194.83, 60.61 L194.83, 60.11 L194.83, 59.61 L194.83, 59.11 L194.83, 58.61 L194.83, 58.11 L194.83, 57.61 L194.83, 57.11 L194.83, 56.60 L194.83, 56.10 L194.83, 55.60 L194.83, 55.10 L194.83, 54.60 L194.83, 54.10 L194.83, 53.60 L194.83, 53.10 L194.83, 52.60 L194.83, 52.10 L194.83, 51.60 L194.83, 51.09 L194.83, 50.59 L194.83, 50.09 L194.83, 49.59 L194.83, 49.09 L194.83, 48.59 L194.83, 48.09 L194.83, 47.59 L194.83, 47.09 L194.83, 46.59 L194.83, 46.09 L194.83, 45.58 L194.83, 45.08 L194.83, 44.58 L194.83, 44.08 L194.83, 43.58 L194.83, 43.08 L194.83, 42.58 L194.83, 42.08 L194.83, 41.58 L194.83, 41.08 L194.83, 40.58 L194.83, 40.07 L194.83, 39.57 L194.83, 39.07 L194.83, 38.57 L194.83, 38.07 L194.83, 37.57 L194.83, 37.07 L194.83, 36.57 L194.83, 36.07 L194.83, 35.57 L194.83, 35.06 L194.83, 34.56 L194.83, 34.06 L194.83, 33.56 L194.83, 33.06 L194.83, 32.56 L194.83, 32.06 L194.83, 31.56 L194.83, 31.06 L194.83, 30.56 L194.83, 30.06 L194.83, 29.55 L194.83, 29.05 L194.83, 28.55 L194.83, 28.05 L194.83, 27.55 L194.83, 27.05 L194.83, 26.55 L194.83, 26.05 L194.83, 25.55 L194.83, 25.05 L194.83, 24.55 L194.83, 24.04 L194.83, 23.54 L194.83, 23.04 L194.83, 22.54 L194.83, 22.04 L194.83, 21.54 L194.83, 21.04 L194.83, 20.54 L194.83, 20.04 L194.83, 19.54 L194.83, 19.04 L194.83, 18.53 L194.83, 18.03 L194.83, 17.53 L194.83, 17.03 L194.83, 16.53 L194.83, 16.03 L194.83, 15.53 L194.83, 15.03 L194.83, 14.53 L194.83, 14.03 L194.83, 13.53 L194.83, 13.02 L194.83, 12.52 L194.83, 12.02 L194.83, 11.52 L194.83, 11.02 L194.83, 10.52 L194.83, 10.02 L194.83, 9.52 L194.83, 9.02 L194.83, 8.52 L194.83, 8.01 L194.83, 7.51 L194.83, 7.01 L194.83, 6.51 L194.83, 6.01 L194.83, 5.51 L194.83, 5.01 L194.83, 4.51 L194.83, 4.01 L194.83, 3.51 L194.83, 3.01 L194.83, 2.50 L194.83, 2.00 L194.83, 1.50 L194.83, 1.00 L194.83, 0.50 L194.83, 0.00" style="stroke-width: 2; stroke: rgb(126, 211, 33); stroke-opacity: 1; stroke-dasharray: 7.5, 6;"/><path d=" M0.00,-199.56 L0.56,-198.38 L1.13,-197.20 L1.69,-196.03 L2.26,-194.86 L2.82,-193.69 L3.38,-192.53 L3.95,-191.36 L4.51,-190.20 L5.08,-189.04 L5.64,-187.88 L6.21,-186.72 L6.77,-185.57 L7.33,-184.42 L7.90,-183.27 L8.46,-182.12 L9.03,-180.98 L9.59,-179.83 L10.15,-178.69 L10.72,-177.55 L11.28,-176.42 L11.85,-175.28 L12.41,-174.15 L12.98,-173.02 L13.54,-171.89 L14.10,-170.77 L14.67,-169.64 L15.23,-168.52 L15.80,-167.40 L16.36,-166.28 L16.92,-165.17 L17.49,-164.05 L18.05,-162.94 L18.62,-161.83 L19.18,-160.73 L19.75,-159.62 L20.31,-158.52 L20.87,-157.42 L21.44,-156.32 L22.00,-155.22 L22.57,-154.13 L23.13,-153.04 L23.69,-151.95 L24.26,-150.86 L24.82,-149.78 L25.39,-148.69 L25.95,-147.61 L26.52,-146.53 L27.08,-145.45 L27.64,-144.38 L28.21,-143.31 L28.77,-142.24 L29.34,-141.17 L29.90,-140.10 L30.46,-139.04 L31.03,-137.97 L31.59,-136.92 L32.16,-135.86 L32.72,-134.80 L33.28,-133.75 L33.85,-132.70 L34.41,-131.65 L34.98,-130.60 L35.54,-129.56 L36.11,-128.51 L36.67,-127.47 L37.23,-126.43 L37.80,-125.40 L38.36,-124.36 L38.93,-123.33 L39.49,-122.30 L40.05,-121.27 L40.62,-120.25 L41.18,-119.22 L41.75,-118.20 L42.31,-117.18 L42.88,-116.16 L43.44,-115.15 L44.00,-114.14 L44.57,-113.13 L45.13,-112.12 L45.70,-111.11 L46.26,-110.11 L46.82,-109.10 L47.39,-108.10 L47.95,-107.11 L48.52,-106.11 L49.08,-105.12 L49.65,-104.12 L50.21,-103.13 L50.77,-102.15 L51.34,-101.16 L51.90,-100.18 L52.47,-99.20 L53.03,-98.22 L53.59,-97.24 L54.16,-96.27 L54.72,-95.29 L55.29,-94.32 L55.85,-93.36 L56.41,-92.39 L56.98,-91.43 L57.54,-90.46 L58.11,-89.50 L58.67,-88.55 L59.24,-87.59 L59.80,-86.64 L60.36,-85.69 L60.93,-84.74 L61.49,-83.79 L62.06,-82.85 L62.62,-81.90 L63.18,-80.96 L63.75,-80.03 L64.31,-79.09 L64.88,-78.16 L65.44,-77.22 L66.01,-76.29 L66.57,-75.37 L67.13,-74.44 L67.70,-73.52 L68.26,-72.60 L68.83,-71.68 L69.39,-70.76 L69.95,-69.84 L70.52,-68.93 L71.08,-68.02 L71.65,-67.11 L72.21,-66.21 L72.78,-65.30 L73.34,-64.40 L73.90,-63.50 L74.47,-62.60 L75.03,-61.71 L75.60,-60.81 L76.16,-59.92 L76.72,-59.03 L77.29,-58.15 L77.85,-57.26 L78.42,-56.38 L78.98,-55.50 L79.55,-54.62 L80.11,-53.74 L80.67,-52.87 L81.24,-52.00 L81.80,-51.13 L82.37,-50.26 L82.93,-49.39 L83.49,-48.53 L84.06,-47.67 L84.62,-46.81 L85.19,-45.95 L85.75,-45.10 L86.31,-44.24 L86.88,-43.39 L87.44,-42.54 L88.01,-41.70 L88.57,-40.85 L89.14,-40.01 L89.70,-39.17 L90.26,-38.33 L90.83,-37.50 L91.39,-36.66 L91.96,-35.83 L92.52,-35.00 L93.08,-34.17 L93.65,-33.35 L94.21,-32.52 L94.78,-31.70 L95.34,-30.88 L95.91,-30.07 L96.47,-29.25 L97.03,-28.44 L97.60,-27.63 L98.16,-26.82 L98.73,-26.02 L99.29,-25.21 L99.85,-24.41 L100.42,-23.61 L100.98,-22.81 L101.55,-22.02 L102.11,-21.23 L102.68,-20.43 L103.24,-19.64 L103.80,-18.86 L104.37,-18.07 L104.93,-17.29 L105.50,-16.51 L106.06,-15.73 L106.62,-14.96 L107.19,-14.18 L107.75,-13.41 L108.32,-12.64 L108.88,-11.87 L109.44,-11.11 L110.01,-10.34 L110.57,-9.58 L111.14,-8.82 L111.70,-8.07 L112.27,-7.31 L112.83,-6.56 L113.39,-5.81 L113.96,-5.06 L114.52,-4.31 L115.09,-3.57 L115.65,-2.83 L116.21,-2.09 L116.78,-1.35 L117.34,-0.61 L117.91,0.12 L118.47,0.85 L119.04,1.58 L119.60,2.31 L120.16,3.03 L120.73,3.75 L121.29,4.48 L121.86,5.19 L122.42,5.91 L122.98,6.62 L123.55,7.34 L124.11,8.05 L124.68,8.76 L125.24,9.46 L125.81,10.16 L126.37,10.87 L126.93,11.57 L127.50,12.26 L128.06,12.96 L128.63,13.65 L129.19,14.34 L129.75,15.03 L130.32,15.72 L130.88,16.40 L131.45,17.08 L132.01,17.76 L132.58,18.44 L133.14,19.12 L133.70,19.79 L134.27,20.46 L134.83,21.13 L135.40,21.80 L135.96,22.46 L136.52,23.13 L137.09,23.79 L137.65,24.45 L138.22,25.10 L138.78,25.76 L139.34,26.41 L139.91,27.06 L140.47,27.71 L141.04,28.36 L141.60,29.00 L142.17,29.64 L142.73,30.28 L143.29,30.92 L143.86,31.55 L144.42,32.19 L144.99,32.82 L145.55,33.45 L146.11,34.07 L146.68,34.70 L147.24,35.32 L147.81,35.94 L148.37,36.56 L148.94,37.18 L149.50,37.79 L150.06,38.40 L150.63,39.01 L151.19,39.62 L151.76,40.23 L152.32,40.83 L152.88,41.43 L153.45,42.03 L154.01,42.63 L154.58,43.22 L155.14,43.81 L155.71,44.40 L156.27,44.99 L156.83,45.58 L157.40,46.16 L157.96,46.74 L158.53,47.32 L159.09,47.90 L159.65,48.48 L160.22,49.05 L160.78,49.62 L161.35,50.19 L161.91,50.76 L162.47,51.32 L163.04,51.89 L163.60,52.45 L164.17,53.01 L164.73,53.56 L165.30,54.12 L165.86,54.67 L166.42,55.22 L166.99,55.77 L167.55,56.31 L168.12,56.86 L168.68,57.40 L169.24,57.94 L169.81,58.47 L170.37,59.01 L170.94,59.54 L171.50,60.07 L172.07,60.60 L172.63,61.13 L173.19,61.65 L173.76,62.17 L174.32,62.70 L174.89,63.21 L175.45,63.73 L176.01,64.24 L176.58,64.75 L177.14,65.26 L177.71,65.77 L178.27,66.28 L178.84,66.78 L179.40,67.28 L179.96,67.78 L180.53,68.28 L181.09,68.77 L181.66,69.26 L182.22,69.75 L182.78,70.24 L183.35,70.73 L183.91,71.21 L184.48,71.69 L185.04,72.17 L185.61,72.65 L186.17,73.13 L186.73,73.60 L187.30,74.07 L187.86,74.54 L188.43,75.01 L188.99,75.47 L189.55,75.93 L190.12,76.39 L190.68,76.85 L191.25,77.31 L191.81,77.76 L192.37,78.21 L192.94,78.66 L193.50,79.11 L194.07,79.56 L194.63,80.00 L195.20,80.44 L195.76,80.88 L196.32,81.32 L196.89,81.75 L197.45,82.18 L198.02,82.61 L198.58,83.04 L199.14,83.47 L199.71,83.89 L200.27,84.32 L200.84,84.74 L201.40,85.15 L201.97,85.57 L202.53,85.98 L203.09,86.39 L203.66,86.80 L204.22,87.21 L204.79,87.61 L205.35,88.02 L205.91,88.42 L206.48,88.82 L207.04,89.21 L207.61,89.61 L208.17,90.00 L208.74,90.39 L209.30,90.78 L209.86,91.16 L210.43,91.55 L210.99,91.93 L211.56,92.31 L212.12,92.68 L212.68,93.06 L213.25,93.43 L213.81,93.80 L214.38,94.17 L214.94,94.54 L215.51,94.90 L216.07,95.27 L216.63,95.63 L217.20,95.98 L217.76,96.34 L218.33,96.69 L218.89,97.04 L219.45,97.39 L220.02,97.74 L220.58,98.09 L221.15,98.43 L221.71,98.77 L222.27,99.11 L222.84,99.45 L223.40,99.78 L223.97,100.11 L224.53,100.44 L225.10,100.77 L225.66,101.10 L226.22,101.42 L226.79,101.74 L227.35,102.06 L227.92,102.38 L228.48,102.70 L229.04,103.01 L229.61,103.32 L230.17,103.63 L230.74,103.94 L231.30,104.24 L231.87,104.54 L232.43,104.84 L232.99,105.14 L233.56,105.44 L234.12,105.73 L234.69,106.02 L235.25,106.31 L235.81,106.60 L236.38,106.89 L236.94,107.17 L237.51,107.45 L238.07,107.73 L238.64,108.01 L239.20,108.28 L239.76,108.55 L240.33,108.82 L240.89,109.09 L241.46,109.36 L242.02,109.62 L242.58,109.89 L243.15,110.15 L243.71,110.40 L244.28,110.66 L244.84,110.91 L245.40,111.16 L245.97,111.41 L246.53,111.66 L247.10,111.90 L247.66,112.15 L248.23,112.39 L248.79,112.63 L249.35,112.86 L249.92,113.10 L250.48,113.33 L251.05,113.56 L251.61,113.79 L252.17,114.01 L252.74,114.24 L253.30,114.46 L253.87,114.68 L254.43,114.89 L255.00,115.11 L255.56,115.32 L256.12,115.53 L256.69,115.74 L257.25,115.95 L257.82,116.15 L258.38,116.35 L258.94,116.55 L259.51,116.75 L260.07,116.95 L260.64,117.14 L261.20,117.33 L261.77,117.52 L262.33,117.71 L262.89,117.90 L263.46,118.08 L264.02,118.26 L264.59,118.44 L265.15,118.62 L265.71,118.79 L266.28,118.96 L266.84,119.13 L267.41,119.30 L267.97,119.47 L268.54,119.63 L269.10,119.79 L269.66,119.95 L270.23,120.11 L270.79,120.26 L271.36,120.42 L271.92,120.57 L272.48,120.72 L273.05,120.86 L273.61,121.01 L274.18,121.15 L274.74,121.29 L275.30,121.43 L275.87,121.57 L276.43,121.70 L277.00,121.83 L277.56,121.96 L278.13,122.09 L278.69,122.21 L279.25,122.34 L279.82,122.46 L280.38,122.58 L280.95,122.70 L281.51,122.81 L282.07,122.92 L282.64,123.03 L283.20,123.14 L283.77,123.25 L284.33,123.35 L284.90,123.45 L285.46,123.55 L286.02,123.65 L286.59,123.75 L287.15,123.84 L287.72,123.93 L288.28,124.02 L288.84,124.11 L289.41,124.19 L289.97,124.28 L290.54,124.36 L291.10,124.43 L291.67,124.51 L292.23,124.59 L292.79,124.66 L293.36,124.73 L293.92,124.80 L294.49,124.86 L295.05,124.92 L295.61,124.99 L296.18,125.05 L296.74,125.10 L297.31,125.16 L297.87,125.21 L298.43,125.26 L299.00,125.31 L299.56,125.36 L300.13,125.40 L300.69,125.44 L301.26,125.48 L301.82,125.52 L302.38,125.56 L302.95,125.59 L303.51,125.62 L304.08,125.65 L304.64,125.68 L305.20,125.70 L305.77,125.73 L306.33,125.75 L306.90,125.77 L307.46,125.78 L308.03,125.80 L308.59,125.81 L309.15,125.82 L309.72,125.83 L310.28,125.83 L310.85,125.84 L311.41,125.84 L311.97,125.84 L312.54,125.84 L313.10,125.83 L313.67,125.83 L314.23,125.82 L314.80,125.81 L315.36,125.79 L315.92,125.78 L316.49,125.76 L317.05,125.74 L317.62,125.72 L318.18,125.69 L318.74,125.67 L319.31,125.64 L319.87,125.61 L320.44,125.58 L321.00,125.54 L321.57,125.51 L322.13,125.47 L322.69,125.43 L323.26,125.38 L323.82,125.34 L324.39,125.29 L324.95,125.24 L325.51,125.19 L326.08,125.14 L326.64,125.08 L327.21,125.02 L327.77,124.96 L328.33,124.90 L328.90,124.83 L329.46,124.77 L330.03,124.70 L330.59,124.63 L331.16,124.56 L331.72,124.48 L332.28,124.40 L332.85,124.32 L333.41,124.24 L333.98,124.16 L334.54,124.07 L335.10,123.98 L335.67,123.89 L336.23,123.80 L336.80,123.71 L337.36,123.61 L337.93,123.51 L338.49,123.41 L339.05,123.31 L339.62,123.20 L340.18,123.10 L340.75,122.99 L341.31,122.88 L341.87,122.76 L342.44,122.65 L343.00,122.53 L343.57,122.41 L344.13,122.29 L344.70,122.16 L345.26,122.04 L345.82,121.91 L346.39,121.78 L346.95,121.65 L347.52,121.51 L348.08,121.37 L348.64,121.23 L349.21,121.09 L349.77,120.95 L350.34,120.80 L350.90,120.66 L351.46,120.51 L352.03,120.35 L352.59,120.20 L353.16,120.04 L353.72,119.89 L354.29,119.73 L354.85,119.56 L355.41,119.40 L355.98,119.23 L356.54,119.06 L357.11,118.89 L357.67,118.72 L358.23,118.54 L358.80,118.37 L359.36,118.19 L359.93,118.00 L360.49,117.82 L361.06,117.63 L361.62,117.45 L362.18,117.26 L362.75,117.06 L363.31,116.87 L363.88,116.67 L364.44,116.47 L365.00,116.27 L365.57,116.07 L366.13,115.86 L366.70,115.66 L367.26,115.45 L367.83,115.24 L368.39,115.02 L368.95,114.81 L369.52,114.59 L370.08,114.37 L370.65,114.14 L371.21,113.92 L371.77,113.69 L372.34,113.46 L372.90,113.23 L373.47,113.00 L374.03,112.77 L374.60,112.53 L375.16,112.29 L375.72,112.05 L376.29,111.80 L376.85,111.56 L377.42,111.31 L377.98,111.06 L378.54,110.81 L379.11,110.55 L379.67,110.30 L380.24,110.04 L380.80,109.78 L381.36,109.52 L381.93,109.25 L382.49,108.98 L383.06,108.71 L383.62,108.44 L384.19,108.17 L384.75,107.89 L385.31,107.62 L385.88,107.34 L386.44,107.05 L387.01,106.77 L387.57,106.48 L388.13,106.19 L388.70,105.90 L389.26,105.61 L389.83,105.32 L390.39,105.02 L390.96,104.72 L391.52,104.42 L392.08,104.12 L392.65,103.81 L393.21,103.50 L393.78,103.19 L394.34,102.88 L394.90,102.57 L395.47,102.25 L396.03,101.93 L396.60,101.61 L397.16,101.29 L397.73,100.96 L398.29,100.64 L398.85,100.31 L399.42,99.98 L399.98,99.64 L400.55,99.31 L401.11,98.97 L401.67,98.63 L402.24,98.29 L402.80,97.95 L403.37,97.60 L403.93,97.25 L404.49,96.90 L405.06,96.55 L405.62,96.19 L406.19,95.84 L406.75,95.48 L407.32,95.12 L407.88,94.75 L408.44,94.39 L409.01,94.02 L409.57,93.65 L410.14,93.28 L410.70,92.91 L411.26,92.53 L411.83,92.15 L412.39,91.77 L412.96,91.39 L413.52,91.01 L414.09,90.62 L414.65,90.23 L415.21,89.84 L415.78,89.45 L416.34,89.05 L416.91,88.65 L417.47,88.25 L418.03,87.85 L418.60,87.45 L419.16,87.04 L419.73,86.64 L420.29,86.23 L420.86,85.81 L421.42,85.40 L421.98,84.98 L422.55,84.56 L423.11,84.14 L423.68,83.72 L424.24,83.29 L424.80,82.87 L425.37,82.44 L425.93,82.01 L426.50,81.57 L427.06,81.14 L427.63,80.70 L428.19,80.26 L428.75,79.82 L429.32,79.37 L429.88,78.93 L430.45,78.48 L431.01,78.03 L431.57,77.58 L432.14,77.12 L432.70,76.66 L433.27,76.20 L433.83,75.74 L434.39,75.28 L434.96,74.81 L435.52,74.35 L436.09,73.88 L436.65,73.40 L437.22,72.93 L437.78,72.45 L438.34,71.98 L438.91,71.50 L439.47,71.01 L440.04,70.53 L440.60,70.04 L441.16,69.55 L441.73,69.06 L442.29,68.57 L442.86,68.07 L443.42,67.57 L443.99,67.08 L444.55,66.57 L445.11,66.07 L445.68,65.56 L446.24,65.06 L446.81,64.54 L447.37,64.03 L447.93,63.52 L448.50,63.00 L449.06,62.48 L449.63,61.96 L450.19,61.44 L450.76,60.91 L451.32,60.39 L451.88,59.86 L452.45,59.32 L453.01,58.79 L453.58,58.25 L454.14,57.72 L454.70,57.18 L455.27,56.63 L455.83,56.09 L456.40,55.54 L456.96,54.99 L457.53,54.44 L458.09,53.89 L458.65,53.33 L459.22,52.78 L459.78,52.22 L460.35,51.66 L460.91,51.09 L461.47,50.53 L462.04,49.96 L462.60,49.39 L463.17,48.82 L463.73,48.24 L464.29,47.67 L464.86,47.09 L465.42,46.51 L465.99,45.92 L466.55,45.34 L467.12,44.75 L467.68,44.16 L468.24,43.57 L468.81,42.98 L469.37,42.38 L469.94,41.78 L470.50,41.18 L471.06,40.58 L471.63,39.98 L472.19,39.37 L472.76,38.76 L473.32,38.15 L473.89,37.54 L474.45,36.92 L475.01,36.31 L475.58,35.69 L476.14,35.07 L476.71,34.44 L477.27,33.82 L477.83,33.19 L478.40,32.56 L478.96,31.93 L479.53,31.29 L480.09,30.66 L480.66,30.02 L481.22,29.38 L481.78,28.74 L482.35,28.09 L482.91,27.44 L483.48,26.80 L484.04,26.14 L484.60,25.49 L485.17,24.84 L485.73,24.18 L486.30,23.52 L486.86,22.86 L487.42,22.19 L487.99,21.53 L488.55,20.86 L489.12,20.19 L489.68,19.52 L490.25,18.84 L490.81,18.16 L491.37,17.48 L491.94,16.80 L492.50,16.12 L493.07,15.44 L493.63,14.75 L494.19,14.06 L494.76,13.37 L495.32,12.67 L495.89,11.98 L496.45,11.28 L497.02,10.58 L497.58,9.88 L498.14,9.17 L498.71,8.47 L499.27,7.76 L499.84,7.05 L500.40,6.33 L500.96,5.62 L501.53,4.90 L502.09,4.18 L502.66,3.46 L503.22,2.74 L503.79,2.01 L504.35,1.28 L504.91,0.55 L505.48,-0.18 L506.04,-0.92 L506.61,-1.65 L507.17,-2.39 L507.73,-3.13 L508.30,-3.87 L508.86,-4.62 L509.43,-5.37 L509.99,-6.12 L510.56,-6.87 L511.12,-7.62 L511.68,-8.38 L512.25,-9.13 L512.81,-9.89 L513.38,-10.66 L513.94,-11.42 L514.50,-12.19 L515.07,-12.96 L515.63,-13.73 L516.20,-14.50 L516.76,-15.27 L517.32,-16.05 L517.89,-16.83 L518.45,-17.61 L519.02,-18.39 L519.58,-19.18 L520.15,-19.97 L520.71,-20.76 L521.27,-21.55 L521.84,-22.34 L522.40,-23.14 L522.97,-23.94 L523.53,-24.74 L524.09,-25.54 L524.66,-26.35 L525.22,-27.15 L525.79,-27.96 L526.35,-28.77 L526.92,-29.59 L527.48,-30.40 L528.04,-31.22 L528.61,-32.04 L529.17,-32.86 L529.74,-33.69 L530.30,-34.51 L530.86,-35.34 L531.43,-36.17 L531.99,-37.00 L532.56,-37.84 L533.12,-38.67 L533.69,-39.51 L534.25,-40.35 L534.81,-41.20 L535.38,-42.04 L535.94,-42.89 L536.51,-43.74 L537.07,-44.59 L537.63,-45.45 L538.20,-46.30 L538.76,-47.16 L539.33,-48.02 L539.89,-48.88 L540.45,-49.75 L541.02,-50.61 L541.58,-51.48 L542.15,-52.35 L542.71,-53.23 L543.28,-54.10 L543.84,-54.98 L544.40,-55.86 L544.97,-56.74 L545.53,-57.62 L546.10,-58.51 L546.66,-59.40 L547.22,-60.29 L547.79,-61.18 L548.35,-62.07 L548.92,-62.97 L549.48,-63.87 L550.05,-64.77 L550.61,-65.67 L551.17,-66.58 L551.74,-67.49 L552.30,-68.39 L552.87,-69.31 L553.43,-70.22 L553.99,-71.14 L554.56,-72.05 L555.12,-72.97 L555.69,-73.90 L556.25,-74.82 L556.82,-75.75 L557.38,-76.67 L557.94,-77.61 L558.51,-78.54 L559.07,-79.47 L559.64,-80.41 L560.20,-81.35 L560.76,-82.29 L561.33,-83.23 L561.89,-84.18 L562.46,-85.13 L563.02,-86.08 L563.59,-87.03 L564.15,-87.98 L564.71,-88.94 L565.28,-89.90 L565.84,-90.86 L566.41,-91.82 L566.97,-92.79 L567.53,-93.75 L568.10,-94.72 L568.66,-95.69 L569.23,-96.67 L569.79,-97.64 L570.35,-98.62 L570.92,-99.60 L571.48,-100.58 L572.05,-101.57 L572.61,-102.55 L573.18,-103.54 L573.74,-104.53 L574.30,-105.52 L574.87,-106.52 L575.43,-107.51 L576.00,-108.51 L576.56,-109.51 L577.12,-110.52 L577.69,-111.52 L578.25,-112.53 L578.82,-113.54 L579.38,-114.55 L579.95,-115.57 L580.51,-116.58 L581.07,-117.60 L581.64,-118.62 L582.20,-119.64 L582.77,-120.67 L583.33,-121.69 L583.89,-122.72 L584.46,-123.75 L585.02,-124.79 L585.59,-125.82 L586.15,-126.86 L586.72,-127.90 L587.28,-128.94 L587.84,-129.98 L588.41,-131.03 L588.97,-132.08 L589.54,-133.13 L590.10,-134.18 L590.66,-135.23 L591.23,-136.29 L591.79,-137.35 L592.36,-138.41 L592.92,-139.47 L593.48,-140.54 L594.05,-141.61 L594.61,-142.67 L595.18,-143.75 L595.74,-144.82 L596.31,-145.90 L596.87,-146.97 L597.43,-148.05 L598.00,-149.14 L598.56,-150.22 L599.13,-151.31 L599.69,-152.39 L600.25,-153.49 L600.82,-154.58 L601.38,-155.67 L601.95,-156.77 L602.51,-157.87 L603.08,-158.97 L603.64,-160.07 L604.20,-161.18 L604.77,-162.29 L605.33,-163.40 L605.90,-164.51 L606.46,-165.62 L607.02,-166.74 L607.59,-167.86 L608.15,-168.98 L608.72,-170.10 L609.28,-171.23 L609.85,-172.35 L610.41,-173.48 L610.97,-174.61 L611.54,-175.75 L612.10,-176.88 L612.67,-178.02 L613.23,-179.16 L613.79,-180.30 L614.36,-181.45 L614.92,-182.59 L615.49,-183.74 L616.05,-184.89 L616.62,-186.04 L617.18,-187.20 L617.74,-188.35 L618.31,-189.51 L618.87,-190.67 L619.44,-191.84 L620.00,-193.00" style="stroke-width: 2; stroke: rgb(74, 144, 226); stroke-opacity: 1;"/></g></g><g class="test-xtl" style="font-family: &quot;Open Sans&quot;, verdana, arial, sans-serif;"><text text-anchor="middle" font-size="11" dominant-baseline="hanging" stroke="none" fill="rgb(50,50,50)" fill-opacity="1" x="49.012455334663386" y="135.43419614434242">-20</text><text text-anchor="middle" font-size="11" dominant-baseline="hanging" stroke="none" fill="rgb(50,50,50)" fill-opacity="1" x="113.86978610396385" y="135.43419614434242">-15</text><text text-anchor="middle" font-size="11" dominant-baseline="hanging" stroke="none" fill="rgb(50,50,50)" fill-opacity="1" x="178.7271168732643" y="135.43419614434242">-10</text><text text-anchor="middle" font-size="11" dominant-baseline="hanging" stroke="none" fill="rgb(50,50,50)" fill-opacity="1" x="243.58444764256478" y="135.43419614434242">-5</text><text text-anchor="middle" font-size="11" dominant-baseline="hanging" stroke="none" fill="rgb(50,50,50)" fill-opacity="1" x="376.4341091811657" y="135.43419614434242">5</text><text text-anchor="middle" font-size="11" dominant-baseline="hanging" stroke="none" fill="rgb(50,50,50)" fill-opacity="1" x="441.29143995046616" y="135.43419614434242">10</text><text text-anchor="middle" font-size="11" dominant-baseline="hanging" stroke="none" fill="rgb(50,50,50)" fill-opacity="1" x="506.1487707197667" y="135.43419614434242">15</text><text text-anchor="middle" font-size="11" dominant-baseline="hanging" stroke="none" fill="rgb(50,50,50)" fill-opacity="1" x="571.0061014890672" y="135.43419614434242">20</text><text text-anchor="middle" font-size="11" dominant-baseline="hanging" stroke="none" fill="rgb(50,50,50)" fill-opacity="1" x="303.57677841186523" y="133.43419614434242">0</text></g><g class="test-ytl" style="font-family: &quot;Open Sans&quot;, verdana, arial, sans-serif;"><text text-anchor="end" dominant-baseline="middle" font-size="11" stroke="none" fill="rgb(50,50,50)" fill-opacity="1" x="303.57677841186523" y="258.14885768294334">-10</text><text text-anchor="end" dominant-baseline="middle" font-size="11" stroke="none" fill="rgb(50,50,50)" fill-opacity="1" x="303.57677841186523" y="193.29152691364288">-5</text><text text-anchor="end" dominant-baseline="middle" font-size="11" stroke="none" fill="rgb(50,50,50)" fill-opacity="1" x="303.57677841186523" y="63.57686537504196">5</text></g><rect class="real" x="1" y="1" width="618" height="268" style="fill: transparent; stroke: none;"/></g></g></g><g/></g><g/><g/><g/></svg>
        <svg xmlns="http://www.w3.org/2000/svg" xmlns:xlink="http://www.w3.org/1999/xlink" width="660" height="310" style="width:660px;height:310px;font-family:Asana-Math, Asana;background:transparent;"><g><g><g><text x="453.66668701171875" y="221.66668701171875" style="white-space:pre;stroke:none;fill:rgb(0,0,0);fill-opacity:1;font-size:15px;font-family:Arial, Helvetica, sans-serif;font-weight:400;font-style:normal;dominant-baseline:text-before-edge;text-decoration:none solid rgb(0, 0, 0);">Kernel Smoothing</text></g></g></g><g><g><g><text x="336.66668701171875" y="158.66668701171875" style="white-space:pre;stroke:none;fill:rgb(0,0,0);fill-opacity:1;font-size:15px;font-family:Arial, Helvetica, sans-serif;font-weight:400;font-style:normal;dominant-baseline:text-before-edge;text-decoration:none solid rgb(0, 0, 0);">trough</text></g></g></g></svg>
</svg>
