<svg xmlns="http://www.w3.org/2000/svg" xmlns:xlink="http://www.w3.org/1999/xlink" width="577pt" height="433pt" viewBox="0 0 577 433"><clipPath id="a"><path transform="matrix(.1 0 0 -.1 0 433)" d="M0 10h5760v4320H0z"/></clipPath><g clip-path="url(#a)"><path d="M0 432h576V0H0z" fill="#fff" fill-rule="evenodd"/><symbol id="b"><path d="M.437.127.391 0H0v.018c.115.105.196.19.243.257.047.066.07.127.07.182a.144.144 0 0 1-.039.104.123.123 0 0 1-.092.04.144.144 0 0 1-.088-.029A.165.165 0 0 1 .037.49H.02c.008.06.029.106.063.138a.176.176 0 0 0 .126.049.186.186 0 0 0 .134-.052.163.163 0 0 0 .054-.122.236.236 0 0 0-.023-.1.663.663 0 0 0-.117-.168 3.477 3.477 0 0 0-.152-.16h.173c.035 0 .06.001.074.004a.099.099 0 0 1 .038.015c.012.008.021.02.03.034h.018z"/></symbol><symbol id="c"><path d="M.054.108A.052.052 0 0 0 .093.092.052.052 0 0 0 .108.054.053.053 0 0 0 .092.016.052.052 0 0 0 .054 0 .053.053 0 0 0 0 .054C0 .07.005.082.016.093c.01.01.023.015.038.015z"/></symbol><symbol id="d"><path d="M.131.345A.463.463 0 0 0 .03.45a.16.16 0 0 0-.023.08c0 .044.017.08.05.112A.185.185 0 0 0 .19.687.187.187 0 0 0 .32.644a.13.13 0 0 0 .048-.1A.134.134 0 0 0 .341.47.383.383 0 0 0 .23.38.623.623 0 0 0 .345.273.173.173 0 0 0 .382.169a.158.158 0 0 0-.053-.12A.197.197 0 0 0 .189 0a.187.187 0 0 0-.147.06A.153.153 0 0 0 0 .162C0 .192.01.22.03.25.05.278.082.31.13.345m.077.052A.35.35 0 0 1 .282.48a.15.15 0 0 1 .016.07c0 .034-.01.06-.029.08A.105.105 0 0 1 .19.66.115.115 0 0 1 .11.63.089.089 0 0 1 .077.563c0-.017.004-.034.013-.05a.187.187 0 0 1 .037-.05l.08-.066M.154.327a.228.228 0 0 1-.06-.075.196.196 0 0 1-.02-.087C.075.123.087.089.11.064A.114.114 0 0 1 .197.026c.035 0 .063.01.084.03.021.02.032.044.032.072a.111.111 0 0 1-.019.063.699.699 0 0 1-.14.136z"/></symbol><symbol id="e"><path d="M0 0z"/></symbol><symbol id="f"><path d="M.386.674.348.59h-.2L.106.502A.349.349 0 0 0 .311.406.216.216 0 0 0 .375.25.22.22 0 0 0 .354.153.257.257 0 0 0 .229.027.264.264 0 0 0 .114 0C.074 0 .045.007.027.02.009.034 0 .049 0 .065c0 .01.004.017.011.024a.04.04 0 0 0 .029.01.056.056 0 0 0 .022-.003.198.198 0 0 0 .032-.02A.13.13 0 0 1 .168.05c.039 0 .072.015.1.043A.144.144 0 0 1 .313.2c0 .04-.013.077-.039.112a.247.247 0 0 1-.106.08.432.432 0 0 1-.145.026l.127.257h.237z"/></symbol><symbol id="g"><path d="M.01.548A.268.268 0 0 0 .082.65a.162.162 0 0 0 .107.036.149.149 0 0 0 .123-.051.127.127 0 0 0 .032-.083c0-.048-.03-.098-.091-.15A.197.197 0 0 0 .345.336.177.177 0 0 0 .376.231.22.22 0 0 0 .322.082C.274.027.205 0 .115 0 .071 0 .04.006.024.017.008.027 0 .04 0 .052c0 .01.004.018.011.025a.04.04 0 0 0 .028.01.084.084 0 0 0 .025-.003.285.285 0 0 0 .038-.018.245.245 0 0 1 .04-.018.135.135 0 0 1 .039-.006c.033 0 .062.013.086.04a.127.127 0 0 1 .037.09A.176.176 0 0 1 .26.29a.199.199 0 0 1-.057.035.184.184 0 0 1-.075.016H.111v.015a.2.2 0 0 1 .077.028.147.147 0 0 1 .057.055.145.145 0 0 1 .018.07.108.108 0 0 1-.11.113C.103.621.06.594.026.54L.01.548z"/></symbol><symbol id="h"><path d="m0 .597.161.079h.016v-.56C.177.08.18.057.182.048a.037.037 0 0 1 .02-.02A.164.164 0 0 1 .26.017V0H.01v.018c.032 0 .052.003.061.008.01.005.016.011.02.019a.262.262 0 0 1 .005.072v.357c0 .048-.002.08-.005.093A.038.038 0 0 1 .079.59a.032.032 0 0 1-.021.007.13.13 0 0 1-.05-.015L0 .597z"/></symbol><symbol id="i"><path d="M.45.244v-.07H.36V0H.28v.175H0v.062l.307.439h.054V.244H.45m-.17 0v.329L.048.244H.28z"/></symbol><symbol id="j"><path d="M.467.662h.231V.644H.686A.145.145 0 0 1 .604.601a.44.44 0 0 1-.05-.069L.396.281V.115C.395.075.4.049.409.039.42.025.44.019.467.019H.49V0H.208v.018H.23c.028 0 .048.009.06.025.007.01.01.035.01.072V.27L.12.55a.55.55 0 0 1-.044.06.167.167 0 0 1-.048.03A.065.065 0 0 1 0 .644v.018h.283V.644H.27a.087.087 0 0 1-.043-.01A.035.035 0 0 1 .207.6c0-.012.01-.033.03-.063L.375.324l.13.204c.02.03.03.054.03.069C.534.606.531.614.526.62a.044.044 0 0 1-.02.017.095.095 0 0 1-.04.006v.018z"/></symbol><symbol id="k"><path d="M.4.367.544.155A.605.605 0 0 1 .63.043.125.125 0 0 1 .703.018V0H.42v.018C.438.018.452.02.46.024a.039.039 0 0 1 .017.013.031.031 0 0 1 .006.019.061.061 0 0 1-.004.022.383.383 0 0 1-.027.043l-.112.17L.202.113A.256.256 0 0 1 .176.075.045.045 0 0 1 .17.055c0-.01.005-.018.014-.025C.193.023.21.019.235.018V0H0v.018c.017.002.03.005.043.01.02.009.04.02.058.035.018.014.039.036.062.065L.32.326l-.13.19a.38.38 0 0 1-.09.102.161.161 0 0 1-.086.026v.018H.32V.644C.293.644.275.639.266.631.256.624.25.616.25.606c0-.012.008-.03.024-.052L.376.402.494.55C.508.568.516.58.52.587a.044.044 0 0 1 .005.02.03.03 0 0 1-.006.018A.038.038 0 0 1 .5.639a.16.16 0 0 1-.047.005v.018h.235V.644A.139.139 0 0 1 .594.605a.546.546 0 0 1-.062-.07L.401.367z"/></symbol><symbol id="l"><path d="M.33.692A.3.3 0 0 0 .555.594.337.337 0 0 0 .648.35C.648.25.617.166.553.1a.307.307 0 0 0-.23-.1.306.306 0 0 0-.23.097A.35.35 0 0 0 0 .35c0 .105.036.19.107.257a.317.317 0 0 0 .224.086M.32.657A.175.175 0 0 1 .18.59C.134.536.112.456.112.35c0-.108.023-.192.07-.25a.171.171 0 0 1 .14-.066c.062 0 .113.024.154.072.04.049.06.125.06.23C.537.45.515.535.47.59A.18.18 0 0 1 .32.657z"/></symbol><symbol id="m"><path d="M.156.384c.044.06.09.09.14.09.046 0 .086-.02.12-.059a.236.236 0 0 0 .052-.16.248.248 0 0 0-.08-.193.218.218 0 0 0-.23-.048.366.366 0 0 0-.082.043V.52c0 .05-.002.082-.004.094C.069.625.066.634.06.638a.03.03 0 0 1-.02.006.1.1 0 0 1-.034-.008L0 .653l.134.055h.022V.384m0-.031V.085A.194.194 0 0 1 .208.048.13.13 0 0 1 .262.036c.03 0 .057.016.083.048.025.033.038.08.038.143a.2.2 0 0 1-.038.131C.319.39.29.405.258.405A.113.113 0 0 1 .206.392a.224.224 0 0 1-.05-.04z"/></symbol><symbol id="n"><path d="M.271.474V.322H.255C.243.37.227.402.208.419a.106.106 0 0 1-.074.026.082.082 0 0 1-.055-.018C.065.415.058.402.058.387.058.37.063.353.073.34A.174.174 0 0 1 .135.298L.206.263c.066-.032.1-.075.1-.127A.12.12 0 0 0 .258.037.16.16 0 0 0 .156 0a.355.355 0 0 0-.094.015.095.095 0 0 1-.026.005C.028.02.022.015.018.007H.002v.16h.016A.182.182 0 0 1 .07.063.126.126 0 0 1 .157.03c.022 0 .04.006.054.02.015.013.022.029.022.047a.075.075 0 0 1-.024.057.407.407 0 0 1-.094.058.28.28 0 0 0-.093.063.11.11 0 0 0-.022.07c0 .038.013.068.038.093a.135.135 0 0 0 .098.037A.23.23 0 0 0 .2.463.151.151 0 0 1 .233.456a.02.02 0 0 1 .012.003.047.047 0 0 1 .01.015h.016z"/></symbol><use xlink:href="#b" transform="matrix(14.4 0 0 -14.4 86.07 245.68)" fill="#030404"/><use xlink:href="#c" transform="matrix(14.4 0 0 -14.4 93.98 245.877)" fill="#030404"/><use xlink:href="#d" transform="matrix(14.4 0 0 -14.4 97.432 245.849)" fill="#030404"/><use xlink:href="#e" transform="matrix(14.4 0 0 -14.4 103.76 245.68)" fill="#030404"/><use xlink:href="#f" transform="matrix(14.4 0 0 -14.4 49.65 245.849)" fill="#030404"/><use xlink:href="#c" transform="matrix(14.4 0 0 -14.4 57.18 245.877)" fill="#030404"/><use xlink:href="#g" transform="matrix(14.4 0 0 -14.4 60.344 245.849)" fill="#030404"/><use xlink:href="#e" transform="matrix(14.4 0 0 -14.4 66.96 245.68)" fill="#030404"/><use xlink:href="#g" transform="matrix(14.4 0 0 -14.4 11.144 245.849)" fill="#030404"/><use xlink:href="#e" transform="matrix(14.4 0 0 -14.4 17.76 245.68)" fill="#030404"/><use xlink:href="#h" transform="matrix(14.4 0 0 -14.4 87.448 222.68)" fill="#030404"/><use xlink:href="#c" transform="matrix(14.4 0 0 -14.4 93.98 222.877)" fill="#030404"/><use xlink:href="#h" transform="matrix(14.4 0 0 -14.4 98.248 222.68)" fill="#030404"/><use xlink:href="#e" transform="matrix(14.4 0 0 -14.4 103.76 222.68)" fill="#030404"/><use xlink:href="#b" transform="matrix(14.4 0 0 -14.4 49.27 222.68)" fill="#030404"/><use xlink:href="#c" transform="matrix(14.4 0 0 -14.4 57.18 222.877)" fill="#030404"/><use xlink:href="#h" transform="matrix(14.4 0 0 -14.4 61.448 222.68)" fill="#030404"/><use xlink:href="#e" transform="matrix(14.4 0 0 -14.4 66.96 222.68)" fill="#030404"/><use xlink:href="#b" transform="matrix(14.4 0 0 -14.4 10.87 222.68)" fill="#030404"/><use xlink:href="#e" transform="matrix(14.4 0 0 -14.4 17.76 222.68)" fill="#030404"/><use xlink:href="#b" transform="matrix(14.4 0 0 -14.4 86.07 199.68)" fill="#030404"/><use xlink:href="#c" transform="matrix(14.4 0 0 -14.4 93.98 199.877)" fill="#030404"/><use xlink:href="#i" transform="matrix(14.4 0 0 -14.4 96.785 199.68)" fill="#030404"/><use xlink:href="#e" transform="matrix(14.4 0 0 -14.4 103.76 199.68)" fill="#030404"/><use xlink:href="#i" transform="matrix(14.4 0 0 -14.4 49.185 199.68)" fill="#030404"/><use xlink:href="#c" transform="matrix(14.4 0 0 -14.4 57.18 199.877)" fill="#030404"/><use xlink:href="#g" transform="matrix(14.4 0 0 -14.4 60.344 199.849)" fill="#030404"/><use xlink:href="#e" transform="matrix(14.4 0 0 -14.4 66.96 199.68)" fill="#030404"/><use xlink:href="#h" transform="matrix(14.4 0 0 -14.4 12.248 199.68)" fill="#030404"/><use xlink:href="#e" transform="matrix(14.4 0 0 -14.4 17.76 199.68)" fill="#030404"/><use xlink:href="#j" transform="matrix(14.4 0 0 -14.4 85.894 161.28)" fill="#030404"/><use xlink:href="#e" transform="matrix(14.4 0 0 -14.4 95.623 161.28)" fill="#030404"/><use xlink:href="#k" transform="matrix(14.4 0 0 -14.4 49.066 161.28)" fill="#030404"/><use xlink:href="#e" transform="matrix(14.4 0 0 -14.4 59.357 161.28)" fill="#030404"/><use xlink:href="#l" transform="matrix(14.4 0 0 -14.4 11.066 161.498)" fill="#030404"/><use xlink:href="#m" transform="matrix(14.4 0 0 -14.4 20.922 161.477)" fill="#030404"/><use xlink:href="#n" transform="matrix(14.4 0 0 -14.4 28.86 161.477)" fill="#030404"/><use xlink:href="#e" transform="matrix(14.4 0 0 -14.4 33.76 161.28)" fill="#030404"/><path stroke-width="1.8" stroke-linecap="square" stroke-linejoin="round" fill="none" stroke="#030404" d="M4.8 144h105.6"/><path stroke-width=".8" stroke-linejoin="round" fill="none" stroke="#030404" d="M4.8 182.4h105.6M4.8 205.4h105.6M4.8 228.4h105.6"/><path stroke-width="1.8" stroke-linecap="square" stroke-linejoin="round" fill="none" stroke="#030404" d="M4.8 251.4h105.6M4.8 144v107.4"/><path stroke-width=".8" stroke-linejoin="round" fill="none" stroke="#030404" d="M43.2 144v107.4M80 144v107.4"/><path stroke-width="1.8" stroke-linecap="square" stroke-linejoin="round" fill="none" stroke="#030404" d="M110.4 144v107.4"/><use xlink:href="#b" transform="matrix(14.4 0 0 -14.4 316.47 111.28)" fill="#030404"/><use xlink:href="#c" transform="matrix(14.4 0 0 -14.4 324.38 111.477)" fill="#030404"/><use xlink:href="#d" transform="matrix(14.4 0 0 -14.4 327.832 111.449)" fill="#030404"/><use xlink:href="#e" transform="matrix(14.4 0 0 -14.4 334.16 111.28)" fill="#030404"/><use xlink:href="#f" transform="matrix(14.4 0 0 -14.4 280.05 111.449)" fill="#030404"/><use xlink:href="#c" transform="matrix(14.4 0 0 -14.4 287.58 111.477)" fill="#030404"/><use xlink:href="#g" transform="matrix(14.4 0 0 -14.4 290.744 111.449)" fill="#030404"/><use xlink:href="#e" transform="matrix(14.4 0 0 -14.4 297.36 111.28)" fill="#030404"/><use xlink:href="#g" transform="matrix(14.4 0 0 -14.4 241.544 111.449)" fill="#030404"/><use xlink:href="#e" transform="matrix(14.4 0 0 -14.4 248.16 111.28)" fill="#030404"/><use xlink:href="#b" transform="matrix(14.4 0 0 -14.4 316.47 88.28)" fill="#030404"/><use xlink:href="#c" transform="matrix(14.4 0 0 -14.4 324.38 88.477)" fill="#030404"/><use xlink:href="#i" transform="matrix(14.4 0 0 -14.4 327.185 88.28)" fill="#030404"/><use xlink:href="#e" transform="matrix(14.4 0 0 -14.4 334.16 88.28)" fill="#030404"/><use xlink:href="#i" transform="matrix(14.4 0 0 -14.4 279.585 88.28)" fill="#030404"/><use xlink:href="#c" transform="matrix(14.4 0 0 -14.4 287.58 88.477)" fill="#030404"/><use xlink:href="#g" transform="matrix(14.4 0 0 -14.4 290.744 88.449)" fill="#030404"/><use xlink:href="#e" transform="matrix(14.4 0 0 -14.4 297.36 88.28)" fill="#030404"/><use xlink:href="#h" transform="matrix(14.4 0 0 -14.4 242.648 88.28)" fill="#030404"/><use xlink:href="#e" transform="matrix(14.4 0 0 -14.4 248.16 88.28)" fill="#030404"/><use xlink:href="#b" transform="matrix(14.4 0 0 -14.4 316.47 65.28)" fill="#030404"/><use xlink:href="#c" transform="matrix(14.4 0 0 -14.4 324.38 65.477)" fill="#030404"/><use xlink:href="#d" transform="matrix(14.4 0 0 -14.4 327.832 65.449)" fill="#030404"/><use xlink:href="#e" transform="matrix(14.4 0 0 -14.4 334.16 65.28)" fill="#030404"/><use xlink:href="#f" transform="matrix(14.4 0 0 -14.4 280.05 65.449)" fill="#030404"/><use xlink:href="#c" transform="matrix(14.4 0 0 -14.4 287.58 65.477)" fill="#030404"/><use xlink:href="#g" transform="matrix(14.4 0 0 -14.4 290.744 65.449)" fill="#030404"/><use xlink:href="#e" transform="matrix(14.4 0 0 -14.4 297.36 65.28)" fill="#030404"/><use xlink:href="#g" transform="matrix(14.4 0 0 -14.4 241.544 65.449)" fill="#030404"/><use xlink:href="#e" transform="matrix(14.4 0 0 -14.4 248.16 65.28)" fill="#030404"/><use xlink:href="#j" transform="matrix(14.4 0 0 -14.4 316.294 26.88)" fill="#030404"/><use xlink:href="#e" transform="matrix(14.4 0 0 -14.4 326.023 26.88)" fill="#030404"/><use xlink:href="#k" transform="matrix(14.4 0 0 -14.4 279.466 26.88)" fill="#030404"/><use xlink:href="#e" transform="matrix(14.4 0 0 -14.4 289.757 26.88)" fill="#030404"/><use xlink:href="#l" transform="matrix(14.4 0 0 -14.4 241.466 27.098)" fill="#030404"/><use xlink:href="#m" transform="matrix(14.4 0 0 -14.4 251.322 27.077)" fill="#030404"/><use xlink:href="#n" transform="matrix(14.4 0 0 -14.4 259.26 27.077)" fill="#030404"/><use xlink:href="#e" transform="matrix(14.4 0 0 -14.4 264.16 26.88)" fill="#030404"/><path stroke-width="1.8" stroke-linecap="square" stroke-linejoin="round" fill="none" stroke="#030404" d="M235.2 9.6h105.6"/><path stroke-width=".8" stroke-linejoin="round" fill="none" stroke="#030404" d="M235.2 48h105.6M235.2 71h105.6M235.2 94h105.6"/><path stroke-width="1.8" stroke-linecap="square" stroke-linejoin="round" fill="none" stroke="#030404" d="M235.2 117h105.6M235.2 9.6V117"/><path stroke-width=".8" stroke-linejoin="round" fill="none" stroke="#030404" d="M273.6 9.6V117M310.4 9.6V117"/><path stroke-width="1.8" stroke-linecap="square" stroke-linejoin="round" fill="none" stroke="#030404" d="M340.8 9.6V117"/><use xlink:href="#b" transform="matrix(14.4 0 0 -14.4 316.47 236.08)" fill="#030404"/><use xlink:href="#c" transform="matrix(14.4 0 0 -14.4 324.38 236.277)" fill="#030404"/><use xlink:href="#i" transform="matrix(14.4 0 0 -14.4 327.185 236.08)" fill="#030404"/><use xlink:href="#e" transform="matrix(14.4 0 0 -14.4 334.16 236.08)" fill="#030404"/><use xlink:href="#i" transform="matrix(14.4 0 0 -14.4 279.585 236.08)" fill="#030404"/><use xlink:href="#c" transform="matrix(14.4 0 0 -14.4 287.58 236.277)" fill="#030404"/><use xlink:href="#g" transform="matrix(14.4 0 0 -14.4 290.744 236.249)" fill="#030404"/><use xlink:href="#e" transform="matrix(14.4 0 0 -14.4 297.36 236.08)" fill="#030404"/><use xlink:href="#h" transform="matrix(14.4 0 0 -14.4 242.648 236.08)" fill="#030404"/><use xlink:href="#e" transform="matrix(14.4 0 0 -14.4 248.16 236.08)" fill="#030404"/><use xlink:href="#b" transform="matrix(14.4 0 0 -14.4 316.47 213.08)" fill="#030404"/><use xlink:href="#c" transform="matrix(14.4 0 0 -14.4 324.38 213.277)" fill="#030404"/><use xlink:href="#d" transform="matrix(14.4 0 0 -14.4 327.832 213.249)" fill="#030404"/><use xlink:href="#e" transform="matrix(14.4 0 0 -14.4 334.16 213.08)" fill="#030404"/><use xlink:href="#f" transform="matrix(14.4 0 0 -14.4 280.05 213.249)" fill="#030404"/><use xlink:href="#c" transform="matrix(14.4 0 0 -14.4 287.58 213.277)" fill="#030404"/><use xlink:href="#g" transform="matrix(14.4 0 0 -14.4 290.744 213.249)" fill="#030404"/><use xlink:href="#e" transform="matrix(14.4 0 0 -14.4 297.36 213.08)" fill="#030404"/><use xlink:href="#g" transform="matrix(14.4 0 0 -14.4 241.544 213.249)" fill="#030404"/><use xlink:href="#e" transform="matrix(14.4 0 0 -14.4 248.16 213.08)" fill="#030404"/><use xlink:href="#h" transform="matrix(14.4 0 0 -14.4 317.848 190.08)" fill="#030404"/><use xlink:href="#c" transform="matrix(14.4 0 0 -14.4 324.38 190.277)" fill="#030404"/><use xlink:href="#h" transform="matrix(14.4 0 0 -14.4 328.648 190.08)" fill="#030404"/><use xlink:href="#e" transform="matrix(14.4 0 0 -14.4 334.16 190.08)" fill="#030404"/><use xlink:href="#b" transform="matrix(14.4 0 0 -14.4 279.67 190.08)" fill="#030404"/><use xlink:href="#c" transform="matrix(14.4 0 0 -14.4 287.58 190.277)" fill="#030404"/><use xlink:href="#h" transform="matrix(14.4 0 0 -14.4 291.848 190.08)" fill="#030404"/><use xlink:href="#e" transform="matrix(14.4 0 0 -14.4 297.36 190.08)" fill="#030404"/><use xlink:href="#b" transform="matrix(14.4 0 0 -14.4 241.27 190.08)" fill="#030404"/><use xlink:href="#e" transform="matrix(14.4 0 0 -14.4 248.16 190.08)" fill="#030404"/><use xlink:href="#j" transform="matrix(14.4 0 0 -14.4 316.294 151.68)" fill="#030404"/><use xlink:href="#e" transform="matrix(14.4 0 0 -14.4 326.023 151.68)" fill="#030404"/><use xlink:href="#k" transform="matrix(14.4 0 0 -14.4 279.466 151.68)" fill="#030404"/><use xlink:href="#e" transform="matrix(14.4 0 0 -14.4 289.757 151.68)" fill="#030404"/><use xlink:href="#l" transform="matrix(14.4 0 0 -14.4 241.466 151.898)" fill="#030404"/><use xlink:href="#m" transform="matrix(14.4 0 0 -14.4 251.322 151.877)" fill="#030404"/><use xlink:href="#n" transform="matrix(14.4 0 0 -14.4 259.26 151.877)" fill="#030404"/><use xlink:href="#e" transform="matrix(14.4 0 0 -14.4 264.16 151.68)" fill="#030404"/><path stroke-width="1.8" stroke-linecap="square" stroke-linejoin="round" fill="none" stroke="#030404" d="M235.2 134.4h105.6"/><path stroke-width=".8" stroke-linejoin="round" fill="none" stroke="#030404" d="M235.2 172.8h105.6M235.2 195.8h105.6M235.2 218.8h105.6"/><path stroke-width="1.8" stroke-linecap="square" stroke-linejoin="round" fill="none" stroke="#030404" d="M235.2 241.8h105.6M235.2 134.4v107.4"/><path stroke-width=".8" stroke-linejoin="round" fill="none" stroke="#030404" d="M273.6 134.4v107.4M310.4 134.4v107.4"/><path stroke-width="1.8" stroke-linecap="square" stroke-linejoin="round" fill="none" stroke="#030404" d="M340.8 134.4v107.4"/><use xlink:href="#b" transform="matrix(14.4 0 0 -14.4 316.47 399.28)" fill="#030404"/><use xlink:href="#c" transform="matrix(14.4 0 0 -14.4 324.38 399.477)" fill="#030404"/><use xlink:href="#i" transform="matrix(14.4 0 0 -14.4 327.185 399.28)" fill="#030404"/><use xlink:href="#e" transform="matrix(14.4 0 0 -14.4 334.16 399.28)" fill="#030404"/><use xlink:href="#i" transform="matrix(14.4 0 0 -14.4 279.585 399.28)" fill="#030404"/><use xlink:href="#c" transform="matrix(14.4 0 0 -14.4 287.58 399.477)" fill="#030404"/><use xlink:href="#g" transform="matrix(14.4 0 0 -14.4 290.744 399.449)" fill="#030404"/><use xlink:href="#e" transform="matrix(14.4 0 0 -14.4 297.36 399.28)" fill="#030404"/><use xlink:href="#h" transform="matrix(14.4 0 0 -14.4 242.648 399.28)" fill="#030404"/><use xlink:href="#e" transform="matrix(14.4 0 0 -14.4 248.16 399.28)" fill="#030404"/><use xlink:href="#h" transform="matrix(14.4 0 0 -14.4 317.848 376.28)" fill="#030404"/><use xlink:href="#c" transform="matrix(14.4 0 0 -14.4 324.38 376.477)" fill="#030404"/><use xlink:href="#h" transform="matrix(14.4 0 0 -14.4 328.648 376.28)" fill="#030404"/><use xlink:href="#e" transform="matrix(14.4 0 0 -14.4 334.16 376.28)" fill="#030404"/><use xlink:href="#b" transform="matrix(14.4 0 0 -14.4 279.67 376.28)" fill="#030404"/><use xlink:href="#c" transform="matrix(14.4 0 0 -14.4 287.58 376.477)" fill="#030404"/><use xlink:href="#h" transform="matrix(14.4 0 0 -14.4 291.848 376.28)" fill="#030404"/><use xlink:href="#e" transform="matrix(14.4 0 0 -14.4 297.36 376.28)" fill="#030404"/><use xlink:href="#b" transform="matrix(14.4 0 0 -14.4 241.27 376.28)" fill="#030404"/><use xlink:href="#e" transform="matrix(14.4 0 0 -14.4 248.16 376.28)" fill="#030404"/><use xlink:href="#h" transform="matrix(14.4 0 0 -14.4 317.848 353.28)" fill="#030404"/><use xlink:href="#c" transform="matrix(14.4 0 0 -14.4 324.38 353.477)" fill="#030404"/><use xlink:href="#h" transform="matrix(14.4 0 0 -14.4 328.648 353.28)" fill="#030404"/><use xlink:href="#e" transform="matrix(14.4 0 0 -14.4 334.16 353.28)" fill="#030404"/><use xlink:href="#b" transform="matrix(14.4 0 0 -14.4 279.67 353.28)" fill="#030404"/><use xlink:href="#c" transform="matrix(14.4 0 0 -14.4 287.58 353.477)" fill="#030404"/><use xlink:href="#h" transform="matrix(14.4 0 0 -14.4 291.848 353.28)" fill="#030404"/><use xlink:href="#e" transform="matrix(14.4 0 0 -14.4 297.36 353.28)" fill="#030404"/><use xlink:href="#b" transform="matrix(14.4 0 0 -14.4 241.27 353.28)" fill="#030404"/><use xlink:href="#e" transform="matrix(14.4 0 0 -14.4 248.16 353.28)" fill="#030404"/><use xlink:href="#j" transform="matrix(14.4 0 0 -14.4 316.294 314.88)" fill="#030404"/><use xlink:href="#e" transform="matrix(14.4 0 0 -14.4 326.023 314.88)" fill="#030404"/><use xlink:href="#k" transform="matrix(14.4 0 0 -14.4 279.466 314.88)" fill="#030404"/><use xlink:href="#e" transform="matrix(14.4 0 0 -14.4 289.757 314.88)" fill="#030404"/><use xlink:href="#l" transform="matrix(14.4 0 0 -14.4 241.466 315.098)" fill="#030404"/><use xlink:href="#m" transform="matrix(14.4 0 0 -14.4 251.322 315.077)" fill="#030404"/><use xlink:href="#n" transform="matrix(14.4 0 0 -14.4 259.26 315.077)" fill="#030404"/><use xlink:href="#e" transform="matrix(14.4 0 0 -14.4 264.16 314.88)" fill="#030404"/><path stroke-width="1.8" stroke-linecap="square" stroke-linejoin="round" fill="none" stroke="#030404" d="M235.2 297.6h105.6"/><path stroke-width=".8" stroke-linejoin="round" fill="none" stroke="#030404" d="M235.2 336h105.6M235.2 359h105.6M235.2 382h105.6"/><path stroke-width="1.8" stroke-linecap="square" stroke-linejoin="round" fill="none" stroke="#030404" d="M235.2 405h105.6M235.2 297.6V405"/><path stroke-width=".8" stroke-linejoin="round" fill="none" stroke="#030404" d="M273.6 297.6V405M310.4 297.6V405"/><path stroke-width="1.8" stroke-linecap="square" stroke-linejoin="round" fill="none" stroke="#030404" d="M340.8 297.6V405"/><path stroke-width=".6000000000000001" stroke-linejoin="round" fill="none" stroke="#030404" d="M120 201.6 224.566 78.021"/><path d="M224.331 82.014 225.6 76.8l-4.933 2.114" fill="#030404" fill-rule="evenodd"/><path stroke-width=".6000000000000001" stroke-linejoin="round" fill="none" stroke="#030404" d="M120 201.6h104"/><path d="m220.8 199.2 4.8 2.4-4.8 2.4" fill="#030404" fill-rule="evenodd"/><path stroke-width=".6000000000000001" stroke-linejoin="round" fill="none" stroke="#030404" d="m120 201.6 99.924 152.711"/><path d="m220.18 350.32.62 5.33-4.637-2.703" fill="#030404" fill-rule="evenodd"/><symbol id="o"><path d="M.156.46v-.1c.037.067.076.1.115.1A.062.062 0 0 0 .315.444.05.05 0 0 0 .333.406.045.045 0 0 0 .32.374.04.04 0 0 0 .29.361C.279.36.266.366.251.377.237.39.227.395.221.395.213.395.207.39.2.385A.235.235 0 0 1 .156.319V.104C.156.08.159.061.165.048A.05.05 0 0 1 .187.026.099.099 0 0 1 .234.018V0h-.23v.018c.024 0 .04.003.052.01a.042.042 0 0 1 .017.025.251.251 0 0 1 .002.048v.173a.663.663 0 0 1-.003.093.035.035 0 0 1-.012.022.032.032 0 0 1-.02.007.097.097 0 0 1-.035-.008L0 .406.135.46h.02z"/></symbol><symbol id="p"><path d="M.116.694A.046.046 0 0 0 .15.68.046.046 0 0 0 .165.645.048.048 0 0 0 .15.61.046.046 0 0 0 .116.595.048.048 0 0 0 .08.61a.048.048 0 0 0-.015.035C.066.659.07.67.08.68c.01.01.022.014.036.014M.156.46V.101c0-.028.002-.047.006-.056A.045.045 0 0 1 .18.025.098.098 0 0 1 .224.017V0H.007v.018C.029.018.043.02.05.024a.042.042 0 0 1 .017.02c.005.01.007.03.007.057v.172a.61.61 0 0 1-.004.095C.069.378.065.385.06.389A.03.03 0 0 1 .04.396.098.098 0 0 1 .007.388L0 .406.135.46h.021z"/></symbol><symbol id="q"><path d="M.121.379a.148.148 0 0 0-.085.135c0 .044.017.083.05.114a.179.179 0 0 0 .128.048c.043 0 .08-.01.111-.031H.42L.444.644A.007.007 0 0 0 .45.64C.451.637.452.632.452.624S.452.61.45.606A.01.01 0 0 0 .444.603.104.104 0 0 0 .42.6H.362a.142.142 0 0 0 .027-.09.14.14 0 0 0-.048-.107A.181.181 0 0 0 .213.36a.25.25 0 0 0-.068.01.131.131 0 0 1-.03-.033.052.052 0 0 1-.007-.024c0-.005.003-.01.008-.016C.122.292.132.288.148.287A.841.841 0 0 1 .216.282C.283.28.326.279.346.276A.121.121 0 0 0 .42.242.092.092 0 0 0 .446.175C.446.138.43.104.395.07A.28.28 0 0 0 .195 0a.285.285 0 0 0-.158.042C.012.06 0 .076 0 .093 0 .101.002.11.005.117a.273.273 0 0 0 .035.05L.09.22a.166.166 0 0 0-.037.027.041.041 0 0 0-.01.027c0 .011.005.025.014.04.01.015.03.037.064.065m.085.274a.076.076 0 0 1-.06-.029C.129.604.12.575.12.536a.19.19 0 0 1 .033-.12A.079.079 0 0 1 .22.384c.024 0 .045.01.06.028.017.018.025.047.025.087A.196.196 0 0 1 .27.621a.077.077 0 0 1-.064.032M.116.216A.24.24 0 0 1 .082.169.084.084 0 0 1 .07.13C.07.115.08.102.098.09A.27.27 0 0 1 .24.059c.059 0 .102.01.13.03C.397.11.41.133.41.157.41.173.402.185.386.192a.326.326 0 0 1-.1.013C.211.207.155.21.115.215z"/></symbol><symbol id="r"><path d="M.156.366C.208.429.258.46.306.46A.107.107 0 0 0 .369.442.121.121 0 0 0 .41.382c.007-.02.01-.05.01-.09v-.19A.16.16 0 0 1 .428.042.04.04 0 0 1 .445.024.1.1 0 0 1 .49.018V0H.269v.018h.009c.02 0 .035.003.043.009A.05.05 0 0 1 .34.055C.34.06.34.075.34.101v.183c0 .04-.006.07-.016.089C.315.39.297.4.27.4.233.4.194.38.156.337V.1c0-.03.002-.049.005-.056A.047.047 0 0 1 .18.024.122.122 0 0 1 .229.018V0H.007v.018h.01c.023 0 .038.005.046.017C.071.046.075.069.075.1v.166a.677.677 0 0 1-.004.098C.07.377.065.385.061.39A.03.03 0 0 1 .04.396.094.094 0 0 1 .007.388L0 .406.135.46h.02V.366z"/></symbol><symbol id="s"><path d="M.249.074A.737.737 0 0 0 .163.012.132.132 0 0 0 .106 0C.076 0 .05.01.03.032A.117.117 0 0 0 0 .115c0 .022.005.04.015.057a.194.194 0 0 0 .069.062c.033.02.088.044.165.072v.017c0 .045-.007.075-.021.092C.214.432.193.44.166.44A.07.07 0 0 1 .117.423.05.05 0 0 1 .1.385V.357C.1.342.097.33.089.322A.039.039 0 0 0 .058.31a.039.039 0 0 0-.03.013.05.05 0 0 0-.01.034c0 .028.013.054.042.078A.186.186 0 0 0 .18.47.21.21 0 0 0 .279.45.092.092 0 0 0 .321.402.267.267 0 0 0 .33.316V.165c0-.043 0-.07.002-.08C.334.077.336.07.34.068A.02.02 0 0 1 .353.062c.005 0 .01.001.014.003l.04.036V.074C.37.024.334 0 .301 0a.047.047 0 0 0-.038.017C.254.028.249.047.249.074m0 .031v.17a.964.964 0 0 1-.095-.04.164.164 0 0 1-.055-.046.087.087 0 0 1-.017-.05c0-.024.007-.044.021-.06A.064.064 0 0 1 .151.058C.176.057.21.073.25.105z"/></symbol><symbol id="t"><path d="M.155.694V.101c0-.028.002-.046.006-.056a.046.046 0 0 1 .02-.02.112.112 0 0 1 .047-.007V0h-.22v.018c.02 0 .035.002.042.006a.042.042 0 0 1 .018.02c.004.01.006.03.006.057v.406c0 .05 0 .082-.003.093C.069.612.065.62.06.624A.028.028 0 0 1 .04.63.091.091 0 0 1 .009.623L0 .64l.133.054h.022z"/></symbol><symbol id="u"><path d="M0 0v.018h.025c.028 0 .048.009.06.027.007.01.01.035.01.072v.428c0 .041-.004.067-.013.078C.069.637.05.644.025.644H0v.018h.27A.587.587 0 0 0 .495.628.267.267 0 0 0 .62.516.345.345 0 0 0 .667.334a.331.331 0 0 0-.084-.23C.52.034.424 0 .296 0H0m.189.048A.499.499 0 0 1 .293.034c.075 0 .138.027.188.08.05.053.075.125.075.216A.302.302 0 0 1 .48.546a.252.252 0 0 1-.192.079.415.415 0 0 1-.1-.014V.048z"/></symbol><symbol id="v"><path d="M.151.602V.455h.105V.42H.15V.13c0-.029.004-.048.013-.058A.04.04 0 0 1 .196.057c.01 0 .021.003.031.01.01.006.018.016.023.03h.02A.155.155 0 0 0 .22.023.105.105 0 0 0 .157 0a.088.088 0 0 0-.044.012.077.077 0 0 0-.032.036.19.19 0 0 0-.01.072v.3H0v.017c.018.007.036.019.055.036a.29.29 0 0 1 .081.129h.015z"/></symbol><symbol id="w"><path d="M.27.018V0a.466.466 0 0 0-.232.254.538.538 0 0 0 .037.475.43.43 0 0 0 .195.18V.887a.28.28 0 0 1-.1-.091A.42.42 0 0 1 .114.65 1.029 1.029 0 0 1 .11.276.498.498 0 0 1 .141.168.35.35 0 0 1 .27.018z"/></symbol><symbol id="x"><path d="M.563.662.127.04H.4C.44.04.472.05.495.067c.022.019.042.056.06.111L.57.175.54 0H0v.018l.425.605H.213A.185.185 0 0 1 .136.61.081.081 0 0 1 .1.578.282.282 0 0 1 .078.497H.059l.014.165h.49z"/></symbol><symbol id="y"><path d="M0 .888v.02A.456.456 0 0 0 .231.654.535.535 0 0 0 .195.18.427.427 0 0 0 0 0v.018C.04.041.073.071.099.11a.403.403 0 0 1 .057.146A1.034 1.034 0 0 1 .16.63.355.355 0 0 1 0 .888z"/></symbol><use xlink:href="#l" transform="matrix(14.4 0 0 -14.4 6.266 295.898)" fill="#030404"/><use xlink:href="#o" transform="matrix(14.4 0 0 -14.4 16.248 295.68)" fill="#030404"/><use xlink:href="#p" transform="matrix(14.4 0 0 -14.4 21.374 295.68)" fill="#030404"/><use xlink:href="#q" transform="matrix(14.4 0 0 -14.4 25.384 298.788)" fill="#030404"/><use xlink:href="#p" transform="matrix(14.4 0 0 -14.4 32.577 295.68)" fill="#030404"/><use xlink:href="#r" transform="matrix(14.4 0 0 -14.4 36.243 295.68)" fill="#030404"/><use xlink:href="#s" transform="matrix(14.4 0 0 -14.4 43.872 295.814)" fill="#030404"/><use xlink:href="#t" transform="matrix(14.4 0 0 -14.4 50.18 295.68)" fill="#030404"/><use xlink:href="#e" transform="matrix(14.4 0 0 -14.4 53.755 295.68)" fill="#030404"/><use xlink:href="#u" transform="matrix(14.4 0 0 -14.4 57.6 295.68)" fill="#030404"/><use xlink:href="#s" transform="matrix(14.4 0 0 -14.4 68.265 295.814)" fill="#030404"/><use xlink:href="#v" transform="matrix(14.4 0 0 -14.4 74.285 295.785)" fill="#030404"/><use xlink:href="#s" transform="matrix(14.4 0 0 -14.4 78.66 295.814)" fill="#030404"/><use xlink:href="#e" transform="matrix(14.4 0 0 -14.4 84.54 295.68)" fill="#030404"/><use xlink:href="#w" transform="matrix(14.4 0 0 -14.4 88.731 298.76)" fill="#030404"/><use xlink:href="#x" transform="matrix(14.4 0 0 -14.4 93.119 295.68)" fill="#030404"/><use xlink:href="#y" transform="matrix(14.4 0 0 -14.4 102.057 298.76)" fill="#030404"/><use xlink:href="#e" transform="matrix(14.4 0 0 -14.4 106.529 295.68)" fill="#030404"/><path stroke-width=".6000000000000001" stroke-linejoin="round" fill="none" stroke="#030404" d="M43.2 273.6v-12.8"/><path d="m45.6 264-2.4-4.8-2.4 4.8" fill="#030404" fill-rule="evenodd"/></g><clipPath id="z"><path transform="matrix(.1 0 0 -.1 0 433)" d="M1762.86 3239h288v227h-288z"/></clipPath><g clip-path="url(#z)"><symbol id="A"><path d="m0 .597.161.079h.016v-.56C.177.08.18.057.182.048a.037.037 0 0 1 .02-.02A.164.164 0 0 1 .26.017V0H.01v.018c.032 0 .052.003.061.008.01.005.016.011.02.019a.262.262 0 0 1 .005.072v.357c0 .048-.002.08-.005.093A.038.038 0 0 1 .079.59a.032.032 0 0 1-.021.007.13.13 0 0 1-.05-.015L0 .597z"/></symbol><symbol id="B"><path d="M.17.22a.242.242 0 0 1-.013.068.248.248 0 0 0-.017.066c0 .016.004.03.012.038a.04.04 0 0 0 .03.013C.192.405.2.401.208.392A.056.056 0 0 0 .219.354.21.21 0 0 0 .206.293.33.33 0 0 1 .19.221.225.225 0 0 1 .24.262a.245.245 0 0 0 .05.048c.01.006.02.01.032.01C.33.32.34.315.348.307a.035.035 0 0 0 .01-.026A.042.042 0 0 0 .344.25a.214.214 0 0 0-.08-.028A.352.352 0 0 1 .2.202a.224.224 0 0 1 .062-.02C.302.176.327.168.339.157.35.145.357.133.357.12a.034.034 0 0 0-.01-.026.035.035 0 0 0-.026-.01C.31.084.3.087.288.094A.222.222 0 0 0 .24.14a.259.259 0 0 1-.05.045.23.23 0 0 1 .012-.061.334.334 0 0 0 .017-.079.05.05 0 0 0-.011-.033C.2.004.19 0 .183 0A.046.046 0 0 0 .15.014C.143.021.14.032.14.047c0 .015.003.034.01.056a.318.318 0 0 1 .02.083.269.269 0 0 1-.05-.043.283.283 0 0 0-.054-.05A.05.05 0 0 0 .04.083a.04.04 0 0 0-.028.012A.034.034 0 0 0 0 .12c0 .008.003.016.01.025.007.01.017.017.03.022A.38.38 0 0 0 .1.184c.02.004.04.01.06.019a.251.251 0 0 1-.064.02.248.248 0 0 0-.074.023C.007.256 0 .27 0 .286c0 .008.004.016.01.023A.036.036 0 0 0 .038.32.07.07 0 0 0 .07.31.193.193 0 0 0 .116.27.242.242 0 0 1 .17.22z"/></symbol><use xlink:href="#A" transform="matrix(11.49694 0 0 -11.2197 198.526 98.625)" fill="#231f20"/><use xlink:href="#B" transform="matrix(11.49694 0 0 -11.2197 192.76 95.382)" fill="#231f20"/><symbol id="C"><path d="M.153.662h.46V.644L.12.032h.077c.082 0 .14.004.175.012a.19.19 0 0 1 .085.042.23.23 0 0 1 .057.086h.018L.476 0H0v.014l.492.612H.354A.655.655 0 0 1 .228.618.13.13 0 0 1 .165.585.19.19 0 0 1 .121.511H.104l.05.151z"/></symbol><use xlink:href="#C" transform="matrix(19.70825 0 0 -19.233 179.35 107.236)" fill="#231f20"/></g><clipPath id="D"><path transform="matrix(.1 0 0 -.1 0 433)" d="M1776 2335.23h288v227h-288z"/></clipPath><g clip-path="url(#D)"><symbol id="E"><path d="M.437.127.391 0H0v.018c.115.105.196.19.243.257.047.066.07.127.07.182a.144.144 0 0 1-.039.104.123.123 0 0 1-.092.04.144.144 0 0 1-.088-.029A.165.165 0 0 1 .037.49H.02c.008.06.029.106.063.138a.176.176 0 0 0 .126.049.186.186 0 0 0 .134-.052.163.163 0 0 0 .054-.122.236.236 0 0 0-.023-.1.663.663 0 0 0-.117-.168 3.477 3.477 0 0 0-.152-.16h.173c.035 0 .06.001.074.004a.099.099 0 0 1 .038.015c.012.008.021.02.03.034h.018z"/></symbol><symbol id="F"><path d="M.17.22a.242.242 0 0 1-.013.068.248.248 0 0 0-.017.066c0 .016.004.03.012.038a.04.04 0 0 0 .03.013C.192.405.2.401.208.392A.056.056 0 0 0 .219.354.21.21 0 0 0 .206.293.33.33 0 0 1 .19.221.225.225 0 0 1 .24.262a.245.245 0 0 0 .05.048c.01.006.02.01.032.01C.33.32.34.315.348.307a.035.035 0 0 0 .01-.026A.042.042 0 0 0 .344.25a.214.214 0 0 0-.08-.028A.352.352 0 0 1 .2.202a.224.224 0 0 1 .062-.02C.302.176.327.168.339.157.35.145.357.133.357.12a.034.034 0 0 0-.01-.026.035.035 0 0 0-.026-.01C.31.084.3.087.288.094A.222.222 0 0 0 .24.14a.259.259 0 0 1-.05.045.23.23 0 0 1 .012-.061.334.334 0 0 0 .017-.079.05.05 0 0 0-.011-.033C.2.004.19 0 .183 0A.046.046 0 0 0 .15.014C.143.021.14.032.14.047c0 .015.003.034.01.056a.318.318 0 0 1 .02.083.269.269 0 0 1-.05-.043.283.283 0 0 0-.054-.05A.05.05 0 0 0 .04.083a.04.04 0 0 0-.028.012A.034.034 0 0 0 0 .12c0 .008.003.016.01.025.007.01.017.017.03.022A.38.38 0 0 0 .1.184c.02.004.04.01.06.019a.251.251 0 0 1-.064.02.248.248 0 0 0-.074.023C.007.256 0 .27 0 .286c0 .008.004.016.01.023A.036.036 0 0 0 .038.32.07.07 0 0 0 .07.31.193.193 0 0 0 .116.27.242.242 0 0 1 .17.22z"/></symbol><use xlink:href="#E" transform="matrix(11.49694 0 0 -11.2197 198.74 189.002)" fill="#231f20"/><use xlink:href="#F" transform="matrix(11.49694 0 0 -11.2197 194.074 185.759)" fill="#231f20"/><symbol id="G"><path d="M.153.662h.46V.644L.12.032h.077c.082 0 .14.004.175.012a.19.19 0 0 1 .085.042.23.23 0 0 1 .057.086h.018L.476 0H0v.014l.492.612H.354A.655.655 0 0 1 .228.618.13.13 0 0 1 .165.585.19.19 0 0 1 .121.511H.104l.05.151z"/></symbol><use xlink:href="#G" transform="matrix(19.70825 0 0 -19.233 180.665 197.613)" fill="#231f20"/></g><clipPath id="H"><path transform="matrix(.1 0 0 -.1 0 433)" d="M1783 1410h303v227h-303z"/></clipPath><g clip-path="url(#H)"><symbol id="I"><path d="m0 .014.48.602H.31C.24.616.192.606.163.586A.238.238 0 0 1 .1.503L.08.507l.046.145h.487V.64L.13.036h.16c.083 0 .14.01.168.028.03.02.057.055.083.107L.56.167.506 0H0v.014z"/></symbol><use xlink:href="#I" transform="matrix(18.17998 0 0 -18.16 181.3 288.973)" fill="#030404"/><symbol id="J"><path d="M0 .118c0 .024.016.039.05.046a.36.36 0 0 1 .116.042.473.473 0 0 1-.118.044C.016.258 0 .272 0 .292c0 .01.003.02.01.025.007.007.015.01.024.01.014 0 .03-.013.052-.037A.337.337 0 0 1 .172.22v.013a.26.26 0 0 1-.013.08.227.227 0 0 0-.013.058c0 .013.004.022.01.029.008.007.016.01.026.01C.194.411.202.407.208.4a.043.043 0 0 0 .01-.028.246.246 0 0 0-.014-.054.304.304 0 0 1-.013-.1L.24.256a.21.21 0 0 1 .02.02.545.545 0 0 0 .044.046.038.038 0 0 0 .024.007c.01 0 .018-.003.025-.01a.036.036 0 0 0 .01-.026C.363.27.348.258.319.252a.352.352 0 0 1-.12-.047L.207.2A.373.373 0 0 1 .32.162C.35.156.363.142.363.12.363.108.36.099.351.093A.045.045 0 0 0 .326.084C.312.084.293.098.27.126a.23.23 0 0 1-.072.061L.19.192V.184A.29.29 0 0 1 .205.088.211.211 0 0 0 .219.04c0-.01-.004-.02-.011-.029A.036.036 0 0 0 .179 0a.03.03 0 0 0-.025.012.044.044 0 0 0-.01.028l.017.061a.194.194 0 0 1 .011.083L.171.191A.293.293 0 0 1 .093.127C.07.1.05.086.035.086c-.012 0-.02.003-.027.01A.034.034 0 0 0 0 .118z"/></symbol><symbol id="K"><path d="M.28.036c.051 0 .094.01.129.03C.443.086.46.124.46.18S.44.274.4.295a.34.34 0 0 1-.154.03h-.03a.54.54 0 0 0-.018.001V.077C.198.06.203.05.212.043A.19.19 0 0 1 .28.036M0 .018C.04.02.066.027.078.037.09.047.096.07.096.108v.445C.096.59.09.613.078.624.066.634.04.641 0 .644v.018h.28C.36.662.424.649.47.623.519.597.543.553.543.49.542.443.525.407.492.383A.233.233 0 0 0 .41.348.297.297 0 0 0 .526.292a.13.13 0 0 0 .05-.108.16.16 0 0 0-.11-.161A.378.378 0 0 0 .327 0H0v.018m.293.348c.033 0 .061.006.083.016C.42.402.44.436.44.487c0 .06-.024.1-.073.12A.334.334 0 0 1 .205.62C.2.616.198.606.198.59V.365l.095.002z"/></symbol><use xlink:href="#J" transform="matrix(10.51025 0 0 -10.4987 193.81 278.06)" fill="#030404"/><use xlink:href="#K" transform="matrix(10.51025 0 0 -10.4987 198.553 280.839)" fill="#030404"/></g><clipPath id="L"><path transform="matrix(.1 0 0 -.1 0 433)" d="M0 4330V10h5760v4320z"/></clipPath><g clip-path="url(#L)"><path stroke-width=".6000000000000001" stroke-linejoin="round" fill="none" stroke="#030404" d="M345.6 72h60.8"/><path d="M403.2 69.6 408 72l-4.8 2.4" fill="#030404" fill-rule="evenodd"/><path stroke-width=".6000000000000001" stroke-linejoin="round" fill="none" stroke="#030404" d="M345.6 201.6h60.8"/><path d="m403.2 199.2 4.8 2.4-4.8 2.4" fill="#030404" fill-rule="evenodd"/><path stroke-width=".6000000000000001" stroke-linejoin="round" fill="none" stroke="#030404" d="M345.6 321.6h60.8"/><path d="m403.2 319.2 4.8 2.4-4.8 2.4" fill="#030404" fill-rule="evenodd"/></g><clipPath id="M"><path transform="matrix(.1 0 0 -.1 0 433)" d="M4135 3519h273v242h-273z"/></clipPath><g clip-path="url(#M)"><symbol id="N"><path d="m0 .597.161.079h.016v-.56C.177.08.18.057.182.048a.037.037 0 0 1 .02-.02A.164.164 0 0 1 .26.017V0H.01v.018c.032 0 .052.003.061.008.01.005.016.011.02.019a.262.262 0 0 1 .005.072v.357c0 .048-.002.08-.005.093A.038.038 0 0 1 .079.59a.032.032 0 0 1-.021.007.13.13 0 0 1-.05-.015L0 .597z"/></symbol><symbol id="O"><path d="M.17.22a.242.242 0 0 1-.013.068.248.248 0 0 0-.017.066c0 .016.004.03.012.038a.04.04 0 0 0 .03.013C.192.405.2.401.208.392A.056.056 0 0 0 .219.354.21.21 0 0 0 .206.293.33.33 0 0 1 .19.221.225.225 0 0 1 .24.262a.245.245 0 0 0 .05.048c.01.006.02.01.032.01C.33.32.34.315.348.307a.035.035 0 0 0 .01-.026A.042.042 0 0 0 .344.25a.214.214 0 0 0-.08-.028A.352.352 0 0 1 .2.202a.224.224 0 0 1 .062-.02C.302.176.327.168.339.157.35.145.357.133.357.12a.034.034 0 0 0-.01-.026.035.035 0 0 0-.026-.01C.31.084.3.087.288.094A.222.222 0 0 0 .24.14a.259.259 0 0 1-.05.045.23.23 0 0 1 .012-.061.334.334 0 0 0 .017-.079.05.05 0 0 0-.011-.033C.2.004.19 0 .183 0A.046.046 0 0 0 .15.014C.143.021.14.032.14.047c0 .015.003.034.01.056a.318.318 0 0 1 .02.083.269.269 0 0 1-.05-.043.283.283 0 0 0-.054-.05A.05.05 0 0 0 .04.083a.04.04 0 0 0-.028.012A.034.034 0 0 0 0 .12c0 .008.003.016.01.025.007.01.017.017.03.022A.38.38 0 0 0 .1.184c.02.004.04.01.06.019a.251.251 0 0 1-.064.02.248.248 0 0 0-.074.023C.007.256 0 .27 0 .286c0 .008.004.016.01.023A.036.036 0 0 0 .038.32.07.07 0 0 0 .07.31.193.193 0 0 0 .116.27.242.242 0 0 1 .17.22z"/></symbol><use xlink:href="#N" transform="matrix(10.88226 0 0 -10.9621 435.786 68.848)" fill="#231f20"/><use xlink:href="#O" transform="matrix(10.88226 0 0 -10.9621 429.935 65.68)" fill="#231f20"/><symbol id="P"><path d="M.092.162h.09L.275 0H.26L.126.104.015 0H0l.092.162z"/></symbol><use xlink:href="#P" transform="matrix(18.67678 0 0 -18.8139 421.352 66.41)" fill="#231f20"/><symbol id="Q"><path d="M.382.248a.38.38 0 0 1-.057.148.108.108 0 0 1-.09.045A.108.108 0 0 1 .14.386a.276.276 0 0 1-.035-.15c0-.067.01-.12.033-.155A.106.106 0 0 1 .234.027c.038 0 .068.015.09.047.022.031.04.09.058.174m.142.21L.486.308A.941.941 0 0 0 .434.163.222.222 0 0 1 .469.096C.482.082.495.075.51.075c.012 0 .02.004.028.012.007.008.012.02.014.034H.57V.11A.172.172 0 0 0 .554.027.051.051 0 0 0 .507 0a.063.063 0 0 0-.053.026.307.307 0 0 0-.038.101A.288.288 0 0 0 .33.03.195.195 0 0 0 .222 0a.209.209 0 0 0-.159.067A.242.242 0 0 0 0 .24C0 .3.022.355.065.402c.043.046.095.07.154.07A.16.16 0 0 0 .333.43.23.23 0 0 0 .395.308l.036.15h.093z"/></symbol><use xlink:href="#Q" transform="matrix(18.67679 0 6.22496 -18.8139 415.478 77.434)" fill="#231f20"/></g><clipPath id="R"><path transform="matrix(.1 0 0 -.1 0 433)" d="M4121 2168h288v242h-288z"/></clipPath><g clip-path="url(#R)"><symbol id="S"><path d="M.437.127.391 0H0v.018c.115.105.196.19.243.257.047.066.07.127.07.182a.144.144 0 0 1-.039.104.123.123 0 0 1-.092.04.144.144 0 0 1-.088-.029A.165.165 0 0 1 .037.49H.02c.008.06.029.106.063.138a.176.176 0 0 0 .126.049.186.186 0 0 0 .134-.052.163.163 0 0 0 .054-.122.236.236 0 0 0-.023-.1.663.663 0 0 0-.117-.168 3.477 3.477 0 0 0-.152-.16h.173c.035 0 .06.001.074.004a.099.099 0 0 1 .038.015c.012.008.021.02.03.034h.018z"/></symbol><symbol id="T"><path d="M.17.22a.242.242 0 0 1-.013.068.248.248 0 0 0-.017.066c0 .016.004.03.012.038a.04.04 0 0 0 .03.013C.192.405.2.401.208.392A.056.056 0 0 0 .219.354.21.21 0 0 0 .206.293.33.33 0 0 1 .19.221.225.225 0 0 1 .24.262a.245.245 0 0 0 .05.048c.01.006.02.01.032.01C.33.32.34.315.348.307a.035.035 0 0 0 .01-.026A.042.042 0 0 0 .344.25a.214.214 0 0 0-.08-.028A.352.352 0 0 1 .2.202a.224.224 0 0 1 .062-.02C.302.176.327.168.339.157.35.145.357.133.357.12a.034.034 0 0 0-.01-.026.035.035 0 0 0-.026-.01C.31.084.3.087.288.094A.222.222 0 0 0 .24.14a.259.259 0 0 1-.05.045.23.23 0 0 1 .012-.061.334.334 0 0 0 .017-.079.05.05 0 0 0-.011-.033C.2.004.19 0 .183 0A.046.046 0 0 0 .15.014C.143.021.14.032.14.047c0 .015.003.034.01.056a.318.318 0 0 1 .02.083.269.269 0 0 1-.05-.043.283.283 0 0 0-.054-.05A.05.05 0 0 0 .04.083a.04.04 0 0 0-.028.012A.034.034 0 0 0 0 .12c0 .008.003.016.01.025.007.01.017.017.03.022A.38.38 0 0 0 .1.184c.02.004.04.01.06.019a.251.251 0 0 1-.064.02.248.248 0 0 0-.074.023C.007.256 0 .27 0 .286c0 .008.004.016.01.023A.036.036 0 0 0 .038.32.07.07 0 0 0 .07.31.193.193 0 0 0 .116.27.242.242 0 0 1 .17.22z"/></symbol><use xlink:href="#S" transform="matrix(11.03862 0 0 -10.9621 432.963 203.948)" fill="#231f20"/><use xlink:href="#T" transform="matrix(11.03862 0 0 -10.9621 428.236 200.78)" fill="#231f20"/><symbol id="U"><path d="M.092.162h.09L.275 0H.26L.126.104.015 0H0l.092.162z"/></symbol><use xlink:href="#U" transform="matrix(18.94503 0 0 -18.8139 419.836 201.51)" fill="#231f20"/><symbol id="V"><path d="M.382.248a.38.38 0 0 1-.057.148.108.108 0 0 1-.09.045A.108.108 0 0 1 .14.386a.276.276 0 0 1-.035-.15c0-.067.01-.12.033-.155A.106.106 0 0 1 .234.027c.038 0 .068.015.09.047.022.031.04.09.058.174m.142.21L.486.308A.941.941 0 0 0 .434.163.222.222 0 0 1 .469.096C.482.082.495.075.51.075c.012 0 .02.004.028.012.007.008.012.02.014.034H.57V.11A.172.172 0 0 0 .554.027.051.051 0 0 0 .507 0a.063.063 0 0 0-.053.026.307.307 0 0 0-.038.101A.288.288 0 0 0 .33.03.195.195 0 0 0 .222 0a.209.209 0 0 0-.159.067A.242.242 0 0 0 0 .24C0 .3.022.355.065.402c.043.046.095.07.154.07A.16.16 0 0 0 .333.43.23.23 0 0 0 .395.308l.036.15h.093z"/></symbol><use xlink:href="#V" transform="matrix(18.94514 0 6.3144 -18.81394 414.067 212.534)" fill="#231f20"/></g><clipPath id="W"><path transform="matrix(.1 0 0 -.1 0 433)" d="M4114 1016h303v242h-303z"/></clipPath><g clip-path="url(#W)"><symbol id="X"><path d="m0 .049.125.166h.063L.311.05H.278L.156.152.035.049H0M.156 0z"/></symbol><use xlink:href="#X" transform="matrix(18.17995 0 0 -18.15 417.925 317.037)" fill="#030404"/><symbol id="Y"><path d="M.382.248a.38.38 0 0 1-.057.148.108.108 0 0 1-.09.045A.108.108 0 0 1 .14.386a.276.276 0 0 1-.035-.15c0-.067.01-.12.033-.155A.106.106 0 0 1 .234.027c.038 0 .068.015.09.047.022.031.04.09.058.174m.142.21L.486.308A.941.941 0 0 0 .434.163.222.222 0 0 1 .469.096C.482.082.495.075.51.075c.012 0 .02.004.028.012.007.008.012.02.014.034H.57V.11A.172.172 0 0 0 .554.027.051.051 0 0 0 .507 0a.063.063 0 0 0-.053.026.307.307 0 0 0-.038.101A.288.288 0 0 0 .33.03.195.195 0 0 0 .222 0a.209.209 0 0 0-.159.067A.242.242 0 0 0 0 .24C0 .3.022.355.065.402c.043.046.095.07.154.07A.16.16 0 0 0 .333.43.23.23 0 0 0 .395.308l.036.15h.093z"/></symbol><use xlink:href="#Y" transform="matrix(18.17998 0 4.545 -18.14999 413.496 327.022)" fill="#030404"/><symbol id="Z"><path d="M0 .118c0 .024.016.039.05.046a.36.36 0 0 1 .116.042.473.473 0 0 1-.118.044C.016.258 0 .272 0 .292c0 .01.003.02.01.025.007.007.015.01.024.01.014 0 .03-.013.052-.037A.337.337 0 0 1 .172.22v.013a.26.26 0 0 1-.013.08.227.227 0 0 0-.013.058c0 .013.004.022.01.029.008.007.016.01.026.01C.194.411.202.407.208.4a.043.043 0 0 0 .01-.028.246.246 0 0 0-.014-.054.304.304 0 0 1-.013-.1L.24.256a.21.21 0 0 1 .02.02.545.545 0 0 0 .044.046.038.038 0 0 0 .024.007c.01 0 .018-.003.025-.01a.036.036 0 0 0 .01-.026C.363.27.348.258.319.252a.352.352 0 0 1-.12-.047L.207.2A.373.373 0 0 1 .32.162C.35.156.363.142.363.12.363.108.36.099.351.093A.045.045 0 0 0 .326.084C.312.084.293.098.27.126a.23.23 0 0 1-.072.061L.19.192V.184A.29.29 0 0 1 .205.088.211.211 0 0 0 .219.04c0-.01-.004-.02-.011-.029A.036.036 0 0 0 .179 0a.03.03 0 0 0-.025.012.044.044 0 0 0-.01.028l.017.061a.194.194 0 0 1 .011.083L.171.191A.293.293 0 0 1 .093.127C.07.1.05.086.035.086c-.012 0-.02.003-.027.01A.034.034 0 0 0 0 .118z"/></symbol><use xlink:href="#Z" transform="matrix(10.51031 0 0 -10.493 426.438 315.956)" fill="#030404"/><symbol id="aa"><path d="M.3.363c.053 0 .093.007.122.021.05.025.074.07.074.136 0 .037-.01.064-.032.08a.134.134 0 0 1-.082.023.105.105 0 0 1-.045-.007C.33.612.325.606.322.595L.257.363H.3M.249.032c.066 0 .114.017.145.051.03.035.045.077.045.125 0 .054-.017.09-.053.106a.42.42 0 0 1-.138.017L.185.104A.153.153 0 0 1 .18.073c0-.018.008-.03.025-.036A.135.135 0 0 1 .249.032M0 .016A.1.1 0 0 1 .048.03c.014.01.025.03.034.06l.123.443.006.026a.175.175 0 0 1 .005.033C.216.608.211.62.2.626a.143.143 0 0 1-.061.01v.016h.258A.361.361 0 0 0 .513.635.128.128 0 0 0 .598.507a.133.133 0 0 0-.07-.119.346.346 0 0 0-.104-.037.246.246 0 0 0 .078-.043.149.149 0 0 0 .046-.116c0-.054-.024-.1-.072-.137A.323.323 0 0 0 .276 0H0v.016z"/></symbol><use xlink:href="#aa" transform="matrix(10.51031 0 0 -10.493 431.618 318.733)" fill="#030404"/></g><clipPath id="ab"><path transform="matrix(.1 0 0 -.1 0 433)" d="M0 4330V10h5760v4320z"/></clipPath><g clip-path="url(#ab)"><symbol id="ac"><path d="M.06.52a.057.057 0 0 0-.043.017A.063.063 0 0 0 0 .583C0 .6.006.616.017.627A.056.056 0 0 0 .06.646.056.056 0 0 0 .102.627.062.062 0 0 0 .12.583.063.063 0 0 0 .102.537.057.057 0 0 0 .06.52m0-.26a.057.057 0 0 0-.043.017A.063.063 0 0 0 0 .323C0 .34.006.356.017.368A.056.056 0 0 0 .06.386.056.056 0 0 0 .102.368.062.062 0 0 0 .12.323.063.063 0 0 0 .102.277.057.057 0 0 0 .06.26m0-.26a.057.057 0 0 0-.043.018A.063.063 0 0 0 0 .063c0 .018.006.033.017.045A.056.056 0 0 0 .06.126.056.056 0 0 0 .102.108.062.062 0 0 0 .12.063.063.063 0 0 0 .102.018.057.057 0 0 0 .06 0z"/></symbol><use xlink:href="#ac" transform="matrix(14.4 0 0 -14.4 176.641 220.706)" fill="#030404"/><symbol id="ad"><path d="M0 0z"/></symbol><use xlink:href="#ad" transform="matrix(14.4 0 0 -14.4 179.735 220.593)" fill="#030404"/><use xlink:href="#ac" transform="matrix(14.4 0 0 -14.4 176.641 237.506)" fill="#030404"/><use xlink:href="#ad" transform="matrix(14.4 0 0 -14.4 179.735 237.393)" fill="#030404"/><use xlink:href="#ac" transform="matrix(14.4 0 0 -14.4 176.641 255.106)" fill="#030404"/><use xlink:href="#ad" transform="matrix(14.4 0 0 -14.4 179.735 254.993)" fill="#030404"/><use xlink:href="#ac" transform="matrix(14.4 0 0 -14.4 176.641 271.906)" fill="#030404"/><use xlink:href="#ad" transform="matrix(14.4 0 0 -14.4 179.735 271.793)" fill="#030404"/><use xlink:href="#ad" transform="matrix(14.4 0 0 -14.4 175.263 289.393)" fill="#030404"/><use xlink:href="#ac" transform="matrix(14.4 0 0 -14.4 278.34 257.293)" fill="#030404"/><use xlink:href="#ad" transform="matrix(14.4 0 0 -14.4 281.433 257.18)" fill="#030404"/><use xlink:href="#ac" transform="matrix(14.4 0 0 -14.4 278.34 274.093)" fill="#030404"/><use xlink:href="#ad" transform="matrix(14.4 0 0 -14.4 281.433 273.98)" fill="#030404"/><use xlink:href="#ac" transform="matrix(14.4 0 0 -14.4 278.34 291.693)" fill="#030404"/><use xlink:href="#ad" transform="matrix(14.4 0 0 -14.4 281.433 291.58)" fill="#030404"/><use xlink:href="#ac" transform="matrix(14.4 0 0 -14.4 411.841 234.293)" fill="#030404"/><use xlink:href="#ad" transform="matrix(14.4 0 0 -14.4 414.935 234.18)" fill="#030404"/><use xlink:href="#ac" transform="matrix(14.4 0 0 -14.4 411.841 251.093)" fill="#030404"/><use xlink:href="#ad" transform="matrix(14.4 0 0 -14.4 414.935 250.98)" fill="#030404"/><use xlink:href="#ac" transform="matrix(14.4 0 0 -14.4 411.841 268.693)" fill="#030404"/><use xlink:href="#ad" transform="matrix(14.4 0 0 -14.4 414.935 268.58)" fill="#030404"/><use xlink:href="#ac" transform="matrix(14.4 0 0 -14.4 411.841 285.493)" fill="#030404"/><use xlink:href="#ad" transform="matrix(14.4 0 0 -14.4 414.935 285.38)" fill="#030404"/><use xlink:href="#ac" transform="matrix(14.4 0 0 -14.4 411.841 303.093)" fill="#030404"/><use xlink:href="#ad" transform="matrix(14.4 0 0 -14.4 414.935 302.98)" fill="#030404"/></g></svg>