<svg xmlns="http://www.w3.org/2000/svg" xmlns:xlink="http://www.w3.org/1999/xlink" x="0" y="0" width="661.3333740234375" height="311.3333435058594" style="
        width:661.3333740234375px;
        height:311.3333435058594px;
        background: transparent;
        fill: none;
">
        
        
        <svg xmlns="http://www.w3.org/2000/svg" class="role-diagram-draw-area"><g class="shapes-region" style="stroke: black; fill: none;"><g class="composite-shape" data-amt="diagram/shapes/plot" transform="matrix(1,0,0,1,20,9)"><g><g><g class="test-xgi"><line x1="17.49999999999999" y1="0" x2="17.49999999999999" y2="270" fill="none" stroke="#c3c3c3" stroke-width="0.5"/><line x1="90.62499999999999" y1="0" x2="90.62499999999999" y2="270" fill="none" stroke="#c3c3c3" stroke-width="0.5"/><line x1="163.75" y1="0" x2="163.75" y2="270" fill="none" stroke="#c3c3c3" stroke-width="0.5"/><line x1="236.875" y1="0" x2="236.875" y2="270" fill="none" stroke="#c3c3c3" stroke-width="0.5"/><line x1="310" y1="0" x2="310" y2="270" fill="none" stroke="#c3c3c3" stroke-width="0.5"/><line x1="383.125" y1="0" x2="383.125" y2="270" fill="none" stroke="#c3c3c3" stroke-width="0.5"/><line x1="456.25" y1="0" x2="456.25" y2="270" fill="none" stroke="#c3c3c3" stroke-width="0.5"/><line x1="529.375" y1="0" x2="529.375" y2="270" fill="none" stroke="#c3c3c3" stroke-width="0.5"/><line x1="602.5" y1="0" x2="602.5" y2="270" fill="none" stroke="#c3c3c3" stroke-width="0.5"/></g><g class="test-ygi"><line x1="0" y1="202.5" x2="620" y2="202.5" fill="none" stroke="#c3c3c3" stroke-width="0.5"/><line x1="0" y1="129.375" x2="620" y2="129.375" fill="none" stroke="#c3c3c3" stroke-width="0.5"/><line x1="0" y1="56.24999999999997" x2="620" y2="56.24999999999997" fill="none" stroke="#c3c3c3" stroke-width="0.5"/></g></g><g><g class="test-xti" style="font-family: Asana-Math, Asana;"><line x1="0" y1="129.375" x2="616" y2="129.375" fill="none" stroke="rgb(50,50,50)" stroke-opacity="1" stroke-width="1"/><line x1="17.49999999999999" y1="125.375" x2="17.49999999999999" y2="133.375" fill="none" stroke="rgb(50,50,50)" stroke-opacity="1" stroke-width="1"/><line x1="90.62499999999999" y1="125.375" x2="90.62499999999999" y2="133.375" fill="none" stroke="rgb(50,50,50)" stroke-opacity="1" stroke-width="1"/><line x1="163.75" y1="125.375" x2="163.75" y2="133.375" fill="none" stroke="rgb(50,50,50)" stroke-opacity="1" stroke-width="1"/><line x1="236.875" y1="125.375" x2="236.875" y2="133.375" fill="none" stroke="rgb(50,50,50)" stroke-opacity="1" stroke-width="1"/><line x1="383.125" y1="125.375" x2="383.125" y2="133.375" fill="none" stroke="rgb(50,50,50)" stroke-opacity="1" stroke-width="1"/><line x1="456.25" y1="125.375" x2="456.25" y2="133.375" fill="none" stroke="rgb(50,50,50)" stroke-opacity="1" stroke-width="1"/><line x1="529.375" y1="125.375" x2="529.375" y2="133.375" fill="none" stroke="rgb(50,50,50)" stroke-opacity="1" stroke-width="1"/><line x1="602.5" y1="125.375" x2="602.5" y2="133.375" fill="none" stroke="rgb(50,50,50)" stroke-opacity="1" stroke-width="1"/><path d="M611,125.775 L619,129.375 L611,132.975 Z" stroke="none" stroke-width="1" fill="rgb(50,50,50)" fill-opacity="1"/></g><g class="test-yti" style="font-family: Asana-Math, Asana;"><line x1="310" y1="4" x2="310" y2="270" fill="none" stroke="rgb(50,50,50)" stroke-opacity="1" stroke-width="1"/><line x1="306" y1="202.5" x2="314" y2="202.5" fill="none" stroke="rgb(50,50,50)" stroke-opacity="1" stroke-width="1"/><line x1="306" y1="56.24999999999997" x2="314" y2="56.24999999999997" fill="none" stroke="rgb(50,50,50)" stroke-opacity="1" stroke-width="1"/><path d="M306.4,9 L310,1 L313.6,9 Z" stroke="none" stroke-width="1" fill="rgb(50,50,50)" fill-opacity="1"/></g><g class="test-plot-expression"><defs><clipPath id="cpnanjcarhh"><rect x="1" y="1" width="618" height="268"/></clipPath></defs><g clip-path="url(#cpnanjcarhh)"><path d=" M0.00,70.88 L0.35,70.88 L0.70,70.88 L1.05,70.88 L1.39,70.88 L1.74,70.88 L2.09,70.88 L2.44,70.88 L2.79,70.88 L3.14,70.88 L3.49,70.88 L3.83,70.88 L4.18,70.88 L4.53,70.88 L4.88,70.88 L5.23,70.88 L5.58,70.88 L5.93,70.88 L6.28,70.88 L6.62,70.88 L6.97,70.88 L7.32,70.88 L7.67,70.88 L8.02,70.88 L8.37,70.88 L8.72,70.88 L9.06,70.88 L9.41,70.88 L9.76,70.88 L10.11,70.88 L10.46,70.88 L10.81,70.88 L11.16,70.88 L11.50,70.88 L11.85,70.88 L12.20,70.88 L12.55,70.88 L12.90,70.88 L13.25,70.88 L13.60,70.88 L13.94,70.88 L14.29,70.88 L14.64,70.88 L14.99,70.88 L15.34,70.88 L15.69,70.88 L16.04,70.88 L16.38,70.88 L16.73,70.88 L17.08,70.88 L17.43,70.88 L17.78,70.88 L18.13,70.88 L18.48,70.88 L18.83,70.88 L19.17,70.88 L19.52,70.88 L19.87,70.88 L20.22,70.88 L20.57,70.88 L20.92,70.88 L21.27,70.88 L21.61,70.88 L21.96,70.88 L22.31,70.88 L22.66,70.88 L23.01,70.88 L23.36,70.88 L23.71,70.88 L24.05,70.88 L24.40,70.88 L24.75,70.88 L25.10,70.88 L25.45,70.88 L25.80,70.88 L26.15,70.88 L26.49,70.88 L26.84,70.88 L27.19,70.88 L27.54,70.88 L27.89,70.88 L28.24,70.88 L28.59,70.88 L28.93,70.88 L29.28,70.88 L29.63,70.88 L29.98,70.88 L30.33,70.88 L30.68,70.88 L31.03,70.88 L31.38,70.88 L31.72,70.88 L32.07,70.88 L32.42,70.88 L32.77,70.88 L33.12,70.88 L33.47,70.88 L33.82,70.88 L34.16,70.88 L34.51,70.88 L34.86,70.88 L35.21,70.88 L35.56,70.88 L35.91,70.88 L36.26,70.88 L36.60,70.88 L36.95,70.88 L37.30,70.88 L37.65,70.88 L38.00,70.88 L38.35,70.88 L38.70,70.88 L39.04,70.88 L39.39,70.88 L39.74,70.88 L40.09,70.88 L40.44,70.88 L40.79,70.88 L41.14,70.88 L41.48,70.88 L41.83,70.88 L42.18,70.88 L42.53,70.88 L42.88,70.88 L43.23,70.88 L43.58,70.88 L43.93,70.88 L44.27,70.88 L44.62,70.88 L44.97,70.88 L45.32,70.88 L45.67,70.88 L46.02,70.88 L46.37,70.88 L46.71,70.88 L47.06,70.88 L47.41,70.88 L47.76,70.88 L48.11,70.88 L48.46,70.88 L48.81,70.88 L49.15,70.88 L49.50,70.88 L49.85,70.88 L50.20,70.88 L50.55,70.88 L50.90,70.88 L51.25,70.88 L51.59,70.88 L51.94,70.88 L52.29,70.88 L52.64,70.88 L52.99,70.88 L53.34,70.88 L53.69,70.88 L54.03,70.88 L54.38,70.88 L54.73,70.88 L55.08,70.88 L55.43,70.88 L55.78,70.88 L56.13,70.88 L56.48,70.88 L56.82,70.88 L57.17,70.88 L57.52,70.88 L57.87,70.88 L58.22,70.88 L58.57,70.88 L58.92,70.88 L59.26,70.88 L59.61,70.88 L59.96,70.88 L60.31,70.88 L60.66,70.88 L61.01,70.88 L61.36,70.88 L61.70,70.88 L62.05,70.88 L62.40,70.88 L62.75,70.88 L63.10,70.88 L63.45,70.88 L63.80,70.88 L64.14,70.88 L64.49,70.88 L64.84,70.88 L65.19,70.88 L65.54,70.88 L65.89,70.88 L66.24,70.88 L66.58,70.88 L66.93,70.88 L67.28,70.88 L67.63,70.88 L67.98,70.88 L68.33,70.88 L68.68,70.88 L69.03,70.88 L69.37,70.88 L69.72,70.88 L70.07,70.88 L70.42,70.88 L70.77,70.88 L71.12,70.88 L71.47,70.88 L71.81,70.88 L72.16,70.88 L72.51,70.88 L72.86,70.88 L73.21,70.88 L73.56,70.88 L73.91,70.88 L74.25,70.88 L74.60,70.88 L74.95,70.88 L75.30,70.88 L75.65,70.88 L76.00,70.88 L76.35,70.88 L76.69,70.88 L77.04,70.88 L77.39,70.88 L77.74,70.88 L78.09,70.88 L78.44,70.88 L78.79,70.88 L79.14,70.88 L79.48,70.88 L79.83,70.88 L80.18,70.88 L80.53,70.88 L80.88,70.88 L81.23,70.88 L81.58,70.88 L81.92,70.88 L82.27,70.88 L82.62,70.88 L82.97,70.88 L83.32,70.88 L83.67,70.88 L84.02,70.88 L84.36,70.88 L84.71,70.88 L85.06,70.88 L85.41,70.88 L85.76,70.88 L86.11,70.88 L86.46,70.88 L86.80,70.88 L87.15,70.88 L87.50,70.88 L87.85,70.88 L88.20,70.88 L88.55,70.88 L88.90,70.88 L89.24,70.88 L89.59,70.88 L89.94,70.88 L90.29,70.88 L90.64,70.88 L90.99,70.88 L91.34,70.88 L91.69,70.88 L92.03,70.88 L92.38,70.88 L92.73,70.88 L93.08,70.88 L93.43,70.88 L93.78,70.88 L94.13,70.88 L94.47,70.88 L94.82,70.88 L95.17,70.88 L95.52,70.88 L95.87,70.88 L96.22,70.88 L96.57,70.88 L96.91,70.88 L97.26,70.88 L97.61,70.88 L97.96,70.88 L98.31,70.88 L98.66,70.88 L99.01,70.88 L99.35,70.88 L99.70,70.88 L100.05,70.88 L100.40,70.88 L100.75,70.88 L101.10,70.88 L101.45,70.88 L101.79,70.88 L102.14,70.88 L102.49,70.88 L102.84,70.88 L103.19,70.88 L103.54,70.88 L103.89,70.88 L104.24,70.88 L104.58,70.88 L104.93,70.88 L105.28,70.88 L105.63,70.88 L105.98,70.88 L106.33,70.88 L106.68,70.88 L107.02,70.88 L107.37,70.88 L107.72,70.88 L108.07,70.88 L108.42,70.88 L108.77,70.88 L109.12,70.88 L109.46,70.88 L109.81,70.88 L110.16,70.88 L110.51,70.88 L110.86,70.88 L111.21,70.88 L111.56,70.88 L111.90,70.88 L112.25,70.88 L112.60,70.88 L112.95,70.88 L113.30,70.88 L113.65,70.88 L114.00,70.88 L114.34,70.88 L114.69,70.88 L115.04,70.88 L115.39,70.88 L115.74,70.88 L116.09,70.88 L116.44,70.88 L116.79,70.88 L117.13,70.88 L117.48,70.88 L117.83,70.88 L118.18,70.88 L118.53,70.88 L118.88,70.88 L119.23,70.88 L119.57,70.88 L119.92,70.88 L120.27,70.88 L120.62,70.88 L120.97,70.88 L121.32,70.88 L121.67,70.88 L122.01,70.88 L122.36,70.88 L122.71,70.88 L123.06,70.88 L123.41,70.88 L123.76,70.88 L124.11,70.88 L124.45,70.88 L124.80,70.88 L125.15,70.88 L125.50,70.88 L125.85,70.88 L126.20,70.88 L126.55,70.88 L126.89,70.88 L127.24,70.88 L127.59,70.88 L127.94,70.88 L128.29,70.88 L128.64,70.88 L128.99,70.88 L129.34,70.88 L129.68,70.88 L130.03,70.88 L130.38,70.88 L130.73,70.88 L131.08,70.88 L131.43,70.88 L131.78,70.88 L132.12,70.88 L132.47,70.88 L132.82,70.88 L133.17,70.88 L133.52,70.88 L133.87,70.88 L134.22,70.88 L134.56,70.88 L134.91,70.88 L135.26,70.88 L135.61,70.88 L135.96,70.88 L136.31,70.88 L136.66,70.88 L137.00,70.88 L137.35,70.88 L137.70,70.88 L138.05,70.88 L138.40,70.88 L138.75,70.88 L139.10,70.88 L139.44,70.88 L139.79,70.88 L140.14,70.88 L140.49,70.88 L140.84,70.88 L141.19,70.88 L141.54,70.88 L141.89,70.88 L142.23,70.88 L142.58,70.88 L142.93,70.88 L143.28,70.88 L143.63,70.88 L143.98,70.88 L144.33,70.88 L144.67,70.88 L145.02,70.88 L145.37,70.88 L145.72,70.88 L146.07,70.88 L146.42,70.88 L146.77,70.88 L147.11,70.88 L147.46,70.88 L147.81,70.88 L148.16,70.88 L148.51,70.88 L148.86,70.88 L149.21,70.88 L149.55,70.88 L149.90,70.88 L150.25,70.88 L150.60,70.88 L150.95,70.88 L151.30,70.88 L151.65,70.88 L151.99,70.88 L152.34,70.88 L152.69,70.88 L153.04,70.88 L153.39,70.88 L153.74,70.88 L154.09,70.88 L154.44,70.88 L154.78,70.88 L155.13,70.88 L155.48,70.88 L155.83,70.88 L156.18,70.88 L156.53,70.88 L156.88,70.88 L157.22,70.88 L157.57,70.88 L157.92,70.88 L158.27,70.88 L158.62,70.88 L158.97,70.88 L159.32,70.88 L159.66,70.88 L160.01,70.88 L160.36,70.88 L160.71,70.88 L161.06,70.88 L161.41,70.88 L161.76,70.88 L162.10,70.88 L162.45,70.88 L162.80,70.88 L163.15,70.88 L163.50,70.88 L163.85,70.88 L164.20,70.88 L164.55,70.88 L164.89,70.88 L165.24,70.88 L165.59,70.88 L165.94,70.88 L166.29,70.88 L166.64,70.88 L166.99,70.88 L167.33,70.88 L167.68,70.88 L168.03,70.88 L168.38,70.88 L168.73,70.88 L169.08,70.88 L169.43,70.88 L169.77,70.88 L170.12,70.88 L170.47,70.88 L170.82,70.88 L171.17,70.88 L171.52,70.88 L171.87,70.88 L172.21,70.88 L172.56,70.88 L172.91,70.88 L173.26,70.88 L173.61,70.88 L173.96,70.88 L174.31,70.88 L174.65,70.88 L175.00,70.88 L175.35,70.88 L175.70,70.88 L176.05,70.88 L176.40,70.88 L176.75,70.88 L177.10,70.88 L177.44,70.88 L177.79,70.88 L178.14,70.88 L178.49,70.88 L178.84,70.88 L179.19,70.88 L179.54,70.88 L179.88,70.88 L180.23,70.88 L180.58,70.88 L180.93,70.88 L181.28,70.88 L181.63,70.88 L181.98,70.88 L182.32,70.88 L182.67,70.88 L183.02,70.88 L183.37,70.88 L183.72,70.88 L184.07,70.88 L184.42,70.88 L184.76,70.88 L185.11,70.88 L185.46,70.88 L185.81,70.88 L186.16,70.88 L186.51,70.88 L186.86,70.88 L187.20,70.88 L187.55,70.88 L187.90,70.88 L188.25,70.88 L188.60,70.88 L188.95,70.88 L189.30,70.88 L189.65,70.88 L189.99,70.88 L190.34,70.88 L190.69,70.88 L191.04,70.88 L191.39,70.88 L191.74,70.88 L192.09,70.88 L192.43,70.88 L192.78,70.88 L193.13,70.88 L193.48,70.88 L193.83,70.88 L194.18,70.88 L194.53,70.88 L194.87,70.88 L195.22,70.88 L195.57,70.88 L195.92,70.88 L196.27,70.88 L196.62,70.88 L196.97,70.88 L197.31,70.88 L197.66,70.88 L198.01,70.88 L198.36,70.88 L198.71,70.88 L199.06,70.88 L199.41,70.88 L199.75,70.88 L200.10,70.88 L200.45,70.88 L200.80,70.88 L201.15,70.88 L201.50,70.88 L201.85,70.88 L202.20,70.88 L202.54,70.88 L202.89,70.88 L203.24,70.88 L203.59,70.88 L203.94,70.88 L204.29,70.88 L204.64,70.88 L204.98,70.88 L205.33,70.88 L205.68,70.88 L206.03,70.88 L206.38,70.88 L206.73,70.88 L207.08,70.88 L207.42,70.88 L207.77,70.88 L208.12,70.88 L208.47,70.88 L208.82,70.88 L209.17,70.88 L209.52,70.88 L209.86,70.88 L210.21,70.88 L210.56,70.88 L210.91,70.88 L211.26,70.88 L211.61,70.88 L211.96,70.88 L212.30,70.88 L212.65,70.88 L213.00,70.88 L213.35,70.88 L213.70,70.88 L214.05,70.88 L214.40,70.88 L214.75,70.88 L215.09,70.88 L215.44,70.88 L215.79,70.88 L216.14,70.88 L216.49,70.88 L216.84,70.88 L217.19,70.88 L217.53,70.88 L217.88,70.88 L218.23,70.88 L218.58,70.88 L218.93,70.88 L219.28,70.88 L219.63,70.88 L219.97,70.88 L220.32,70.88 L220.67,70.88 L221.02,70.88 L221.37,70.88 L221.72,70.88 L222.07,70.88 L222.41,70.88 L222.76,70.88 L223.11,70.88 L223.46,70.88 L223.81,70.88 L224.16,70.88 L224.51,70.88 L224.85,70.88 L225.20,70.88 L225.55,70.88 L225.90,70.88 L226.25,70.88 L226.60,70.88 L226.95,70.88 L227.30,70.88 L227.64,70.88 L227.99,70.88 L228.34,70.88 L228.69,70.88 L229.04,70.88 L229.39,70.88 L229.74,70.88 L230.08,70.88 L230.43,70.88 L230.78,70.88 L231.13,70.88 L231.48,70.88 L231.83,70.88 L232.18,70.88 L232.52,70.88 L232.87,70.88 L233.22,70.88 L233.57,70.88 L233.92,70.88 L234.27,70.88 L234.62,70.88 L234.96,70.88 L235.31,70.88 L235.66,70.88 L236.01,70.88 L236.36,70.88 L236.71,70.88 L237.06,70.88 L237.41,70.88 L237.75,70.88 L238.10,70.88 L238.45,70.88 L238.80,70.88 L239.15,70.88 L239.50,70.88 L239.85,70.88 L240.19,70.88 L240.54,70.88 L240.89,70.88 L241.24,70.88 L241.59,70.88 L241.94,70.88 L242.29,70.88 L242.63,70.88 L242.98,70.88 L243.33,70.88 L243.68,70.88 L244.03,70.88 L244.38,70.88 L244.73,70.88 L245.07,70.88 L245.42,70.88 L245.77,70.88 L246.12,70.88 L246.47,70.88 L246.82,70.88 L247.17,70.88 L247.51,70.88 L247.86,70.88 L248.21,70.88 L248.56,70.88 L248.91,70.88 L249.26,70.88 L249.61,70.88 L249.96,70.88 L250.30,70.88 L250.65,70.88 L251.00,70.88 L251.35,70.88 L251.70,70.88 L252.05,70.88 L252.40,70.88 L252.74,70.88 L253.09,70.88 L253.44,70.88 L253.79,70.88 L254.14,70.88 L254.49,70.88 L254.84,70.88 L255.18,70.88 L255.53,70.88 L255.88,70.88 L256.23,70.88 L256.58,70.88 L256.93,70.88 L257.28,70.88 L257.62,70.88 L257.97,70.88 L258.32,70.88 L258.67,70.88 L259.02,70.88 L259.37,70.88 L259.72,70.88 L260.06,70.88 L260.41,70.88 L260.76,70.88 L261.11,70.88 L261.46,70.88 L261.81,70.88 L262.16,70.88 L262.51,70.88 L262.85,70.88 L263.20,70.88 L263.55,70.88 L263.90,70.88 L264.25,70.88 L264.60,70.88 L264.95,70.88 L265.29,70.88 L265.64,70.88 L265.99,70.88 L266.34,70.88 L266.69,70.88 L267.04,70.88 L267.39,70.88 L267.73,70.88 L268.08,70.88 L268.43,70.88 L268.78,70.88 L269.13,70.88 L269.48,70.88 L269.83,70.88 L270.17,70.88 L270.52,70.88 L270.87,70.88 L271.22,70.88 L271.57,70.88 L271.92,70.88 L272.27,70.88 L272.61,70.88 L272.96,70.88 L273.31,70.88 L273.66,70.88 L274.01,70.88 L274.36,70.88 L274.71,70.88 L275.06,70.88 L275.40,70.88 L275.75,70.88 L276.10,70.88 L276.45,70.88 L276.80,70.88 L277.15,70.88 L277.50,70.88 L277.84,70.88 L278.19,70.88 L278.54,70.88 L278.89,70.88 L279.24,70.88 L279.59,70.88 L279.94,70.88 L280.28,70.88 L280.63,70.88 L280.98,70.88 L281.33,70.88 L281.68,70.88 L282.03,70.88 L282.38,70.88 L282.72,70.88 L283.07,70.88 L283.42,70.88 L283.77,70.88 L284.12,70.88 L284.47,70.88 L284.82,70.88 L285.16,70.88 L285.51,70.88 L285.86,70.88 L286.21,70.88 L286.56,70.88 L286.91,70.88 L287.26,70.88 L287.61,70.88 L287.95,70.88 L288.30,70.88 L288.65,70.88 L289.00,70.88 L289.35,70.88 L289.70,70.88 L290.05,70.88 L290.39,70.88 L290.74,70.88 L291.09,70.88 L291.44,70.88 L291.79,70.88 L292.14,70.88 L292.49,70.88 L292.83,70.88 L293.18,70.88 L293.53,70.88 L293.88,70.88 L294.23,70.88 L294.58,70.88 L294.93,70.88 L295.27,70.88 L295.62,70.88 L295.97,70.88 L296.32,70.88 L296.67,70.88 L297.02,70.88 L297.37,70.88 L297.71,70.88 L298.06,70.88 L298.41,70.88 L298.76,70.88 L299.11,70.88 L299.46,70.88 L299.81,70.88 L300.16,70.88 L300.50,70.88 L300.85,70.88 L301.20,70.88 L301.55,70.88 L301.90,70.88 L302.25,70.88 L302.60,70.88 L302.94,70.88 L303.29,70.88 L303.64,70.88 L303.99,70.88 L304.34,70.88 L304.69,70.88 L305.04,70.88 L305.38,70.88 L305.73,70.88 L306.08,70.88 L306.43,70.88 L306.78,70.88 L307.13,70.88 L307.48,70.88 L307.82,70.88 L308.17,70.88 L308.52,70.88 L308.87,70.88 L309.22,70.88 L309.57,70.88 L309.92,70.88 L310.27,70.88 L310.61,70.88 L310.96,70.88 L311.31,70.88 L311.66,70.88 L312.01,70.88 L312.36,70.88 L312.71,70.88 L313.05,70.88 L313.40,70.88 L313.75,70.88 L314.10,70.88 L314.45,70.88 L314.80,70.88 L315.15,70.88 L315.49,70.88 L315.84,70.88 L316.19,70.88 L316.54,70.88 L316.89,70.88 L317.24,70.88 L317.59,70.88 L317.93,70.88 L318.28,70.88 L318.63,70.88 L318.98,70.88 L319.33,70.88 L319.68,70.88 L320.03,70.88 L320.37,70.88 L320.72,70.88 L321.07,70.88 L321.42,70.88 L321.77,70.88 L322.12,70.88 L322.47,70.88 L322.82,70.88 L323.16,70.88 L323.51,70.88 L323.86,70.88 L324.21,70.88 L324.56,70.88 L324.91,70.88 L325.26,70.88 L325.60,70.88 L325.95,70.88 L326.30,70.88 L326.65,70.88 L327.00,70.88 L327.35,70.88 L327.70,70.88 L328.04,70.88 L328.39,70.88 L328.74,70.88 L329.09,70.88 L329.44,70.88 L329.79,70.88 L330.14,70.88 L330.48,70.88 L330.83,70.88 L331.18,70.88 L331.53,70.88 L331.88,70.88 L332.23,70.88 L332.58,70.88 L332.92,70.88 L333.27,70.88 L333.62,70.88 L333.97,70.88 L334.32,70.88 L334.67,70.88 L335.02,70.88 L335.37,70.88 L335.71,70.88 L336.06,70.88 L336.41,70.88 L336.76,70.88 L337.11,70.88 L337.46,70.88 L337.81,70.88 L338.15,70.88 L338.50,70.88 L338.85,70.88 L339.20,70.88 L339.55,70.88 L339.90,70.88 L340.25,70.88 L340.59,70.88 L340.94,70.88 L341.29,70.88 L341.64,70.88 L341.99,70.88 L342.34,70.88 L342.69,70.88 L343.03,70.88 L343.38,70.88 L343.73,70.88 L344.08,70.88 L344.43,70.88 L344.78,70.88 L345.13,70.88 L345.47,70.88 L345.82,70.88 L346.17,70.88 L346.52,70.88 L346.87,70.88 L347.22,70.88 L347.57,70.88 L347.92,70.88 L348.26,70.88 L348.61,70.88 L348.96,70.88 L349.31,70.88 L349.66,70.88 L350.01,70.88 L350.36,70.88 L350.70,70.88 L351.05,70.88 L351.40,70.88 L351.75,70.88 L352.10,70.88 L352.45,70.88 L352.80,70.88 L353.14,70.88 L353.49,70.88 L353.84,70.88 L354.19,70.88 L354.54,70.88 L354.89,70.88 L355.24,70.88 L355.58,70.88 L355.93,70.88 L356.28,70.88 L356.63,70.88 L356.98,70.88 L357.33,70.88 L357.68,70.88 L358.02,70.88 L358.37,70.88 L358.72,70.88 L359.07,70.88 L359.42,70.88 L359.77,70.88 L360.12,70.88 L360.47,70.88 L360.81,70.88 L361.16,70.88 L361.51,70.88 L361.86,70.88 L362.21,70.88 L362.56,70.88 L362.91,70.88 L363.25,70.88 L363.60,70.88 L363.95,70.88 L364.30,70.88 L364.65,70.88 L365.00,70.88 L365.35,70.88 L365.69,70.88 L366.04,70.88 L366.39,70.88 L366.74,70.88 L367.09,70.88 L367.44,70.88 L367.79,70.88 L368.13,70.88 L368.48,70.88 L368.83,70.88 L369.18,70.88 L369.53,70.88 L369.88,70.88 L370.23,70.88 L370.57,70.88 L370.92,70.88 L371.27,70.88 L371.62,70.88 L371.97,70.88 L372.32,70.88 L372.67,70.88 L373.02,70.88 L373.36,70.88 L373.71,70.88 L374.06,70.88 L374.41,70.88 L374.76,70.88 L375.11,70.88 L375.46,70.88 L375.80,70.88 L376.15,70.88 L376.50,70.88 L376.85,70.88 L377.20,70.88 L377.55,70.88 L377.90,70.88 L378.24,70.88 L378.59,70.88 L378.94,70.88 L379.29,70.88 L379.64,70.88 L379.99,70.88 L380.34,70.88 L380.68,70.88 L381.03,70.88 L381.38,70.88 L381.73,70.88 L382.08,70.88 L382.43,70.88 L382.78,70.88 L383.13,70.88" style="stroke-width: 2; stroke: rgb(74, 144, 226); stroke-opacity: 1;"/><path d=" M383.13, 270.00 L383.13, 269.50 L383.13, 269.00 L383.13, 268.50 L383.13, 268.00 L383.13, 267.50 L383.13, 266.99 L383.13, 266.49 L383.13, 265.99 L383.13, 265.49 L383.13, 264.99 L383.13, 264.49 L383.13, 263.99 L383.13, 263.49 L383.13, 262.99 L383.13, 262.49 L383.13, 261.99 L383.13, 261.48 L383.13, 260.98 L383.13, 260.48 L383.13, 259.98 L383.13, 259.48 L383.13, 258.98 L383.13, 258.48 L383.13, 257.98 L383.13, 257.48 L383.13, 256.98 L383.13, 256.47 L383.13, 255.97 L383.13, 255.47 L383.13, 254.97 L383.13, 254.47 L383.13, 253.97 L383.13, 253.47 L383.13, 252.97 L383.13, 252.47 L383.13, 251.97 L383.13, 251.47 L383.13, 250.96 L383.13, 250.46 L383.13, 249.96 L383.13, 249.46 L383.13, 248.96 L383.13, 248.46 L383.13, 247.96 L383.13, 247.46 L383.13, 246.96 L383.13, 246.46 L383.13, 245.96 L383.13, 245.45 L383.13, 244.95 L383.13, 244.45 L383.13, 243.95 L383.13, 243.45 L383.13, 242.95 L383.13, 242.45 L383.13, 241.95 L383.13, 241.45 L383.13, 240.95 L383.13, 240.45 L383.13, 239.94 L383.13, 239.44 L383.13, 238.94 L383.13, 238.44 L383.13, 237.94 L383.13, 237.44 L383.13, 236.94 L383.13, 236.44 L383.13, 235.94 L383.13, 235.44 L383.13, 234.94 L383.13, 234.43 L383.13, 233.93 L383.13, 233.43 L383.13, 232.93 L383.13, 232.43 L383.13, 231.93 L383.13, 231.43 L383.13, 230.93 L383.13, 230.43 L383.13, 229.93 L383.13, 229.42 L383.13, 228.92 L383.13, 228.42 L383.13, 227.92 L383.13, 227.42 L383.13, 226.92 L383.13, 226.42 L383.13, 225.92 L383.13, 225.42 L383.13, 224.92 L383.13, 224.42 L383.13, 223.91 L383.13, 223.41 L383.13, 222.91 L383.13, 222.41 L383.13, 221.91 L383.13, 221.41 L383.13, 220.91 L383.13, 220.41 L383.13, 219.91 L383.13, 219.41 L383.13, 218.91 L383.13, 218.40 L383.13, 217.90 L383.13, 217.40 L383.13, 216.90 L383.13, 216.40 L383.13, 215.90 L383.13, 215.40 L383.13, 214.90 L383.13, 214.40 L383.13, 213.90 L383.13, 213.40 L383.13, 212.89 L383.13, 212.39 L383.13, 211.89 L383.13, 211.39 L383.13, 210.89 L383.13, 210.39 L383.13, 209.89 L383.13, 209.39 L383.13, 208.89 L383.13, 208.39 L383.13, 207.88 L383.13, 207.38 L383.13, 206.88 L383.13, 206.38 L383.13, 205.88 L383.13, 205.38 L383.13, 204.88 L383.13, 204.38 L383.13, 203.88 L383.13, 203.38 L383.13, 202.88 L383.13, 202.37 L383.13, 201.87 L383.13, 201.37 L383.13, 200.87 L383.13, 200.37 L383.13, 199.87 L383.13, 199.37 L383.13, 198.87 L383.13, 198.37 L383.13, 197.87 L383.13, 197.37 L383.13, 196.86 L383.13, 196.36 L383.13, 195.86 L383.13, 195.36 L383.13, 194.86 L383.13, 194.36 L383.13, 193.86 L383.13, 193.36 L383.13, 192.86 L383.13, 192.36 L383.13, 191.86 L383.13, 191.35 L383.13, 190.85 L383.13, 190.35 L383.13, 189.85 L383.13, 189.35 L383.13, 188.85 L383.13, 188.35 L383.13, 187.85 L383.13, 187.35 L383.13, 186.85 L383.13, 186.35 L383.13, 185.84 L383.13, 185.34 L383.13, 184.84 L383.13, 184.34 L383.13, 183.84 L383.13, 183.34 L383.13, 182.84 L383.13, 182.34 L383.13, 181.84 L383.13, 181.34 L383.13, 180.83 L383.13, 180.33 L383.13, 179.83 L383.13, 179.33 L383.13, 178.83 L383.13, 178.33 L383.13, 177.83 L383.13, 177.33 L383.13, 176.83 L383.13, 176.33 L383.13, 175.83 L383.13, 175.32 L383.13, 174.82 L383.13, 174.32 L383.13, 173.82 L383.13, 173.32 L383.13, 172.82 L383.13, 172.32 L383.13, 171.82 L383.13, 171.32 L383.13, 170.82 L383.13, 170.32 L383.13, 169.81 L383.13, 169.31 L383.13, 168.81 L383.13, 168.31 L383.13, 167.81 L383.13, 167.31 L383.13, 166.81 L383.13, 166.31 L383.13, 165.81 L383.13, 165.31 L383.13, 164.81 L383.13, 164.30 L383.13, 163.80 L383.13, 163.30 L383.13, 162.80 L383.13, 162.30 L383.13, 161.80 L383.13, 161.30 L383.13, 160.80 L383.13, 160.30 L383.13, 159.80 L383.13, 159.29 L383.13, 158.79 L383.13, 158.29 L383.13, 157.79 L383.13, 157.29 L383.13, 156.79 L383.13, 156.29 L383.13, 155.79 L383.13, 155.29 L383.13, 154.79 L383.13, 154.29 L383.13, 153.78 L383.13, 153.28 L383.13, 152.78 L383.13, 152.28 L383.13, 151.78 L383.13, 151.28 L383.13, 150.78 L383.13, 150.28 L383.13, 149.78 L383.13, 149.28 L383.13, 148.78 L383.13, 148.27 L383.13, 147.77 L383.13, 147.27 L383.13, 146.77 L383.13, 146.27 L383.13, 145.77 L383.13, 145.27 L383.13, 144.77 L383.13, 144.27 L383.13, 143.77 L383.13, 143.27 L383.13, 142.76 L383.13, 142.26 L383.13, 141.76 L383.13, 141.26 L383.13, 140.76 L383.13, 140.26 L383.13, 139.76 L383.13, 139.26 L383.13, 138.76 L383.13, 138.26 L383.13, 137.76 L383.13, 137.25 L383.13, 136.75 L383.13, 136.25 L383.13, 135.75 L383.13, 135.25 L383.13, 134.75 L383.13, 134.25 L383.13, 133.75 L383.13, 133.25 L383.13, 132.75 L383.13, 132.24 L383.13, 131.74 L383.13, 131.24 L383.13, 130.74 L383.13, 130.24 L383.13, 129.74 L383.13, 129.24 L383.13, 128.74 L383.13, 128.24 L383.13, 127.74 L383.13, 127.24 L383.13, 126.73 L383.13, 126.23 L383.13, 125.73 L383.13, 125.23 L383.13, 124.73 L383.13, 124.23 L383.13, 123.73 L383.13, 123.23 L383.13, 122.73 L383.13, 122.23 L383.13, 121.73 L383.13, 121.22 L383.13, 120.72 L383.13, 120.22 L383.13, 119.72 L383.13, 119.22 L383.13, 118.72 L383.13, 118.22 L383.13, 117.72 L383.13, 117.22 L383.13, 116.72 L383.13, 116.22 L383.13, 115.71 L383.13, 115.21 L383.13, 114.71 L383.13, 114.21 L383.13, 113.71 L383.13, 113.21 L383.13, 112.71 L383.13, 112.21 L383.13, 111.71 L383.13, 111.21 L383.13, 110.71 L383.13, 110.20 L383.13, 109.70 L383.13, 109.20 L383.13, 108.70 L383.13, 108.20 L383.13, 107.70 L383.13, 107.20 L383.13, 106.70 L383.13, 106.20 L383.13, 105.70 L383.13, 105.19 L383.13, 104.69 L383.13, 104.19 L383.13, 103.69 L383.13, 103.19 L383.13, 102.69 L383.13, 102.19 L383.13, 101.69 L383.13, 101.19 L383.13, 100.69 L383.13, 100.19 L383.13, 99.68 L383.13, 99.18 L383.13, 98.68 L383.13, 98.18 L383.13, 97.68 L383.13, 97.18 L383.13, 96.68 L383.13, 96.18 L383.13, 95.68 L383.13, 95.18 L383.13, 94.68 L383.13, 94.17 L383.13, 93.67 L383.13, 93.17 L383.13, 92.67 L383.13, 92.17 L383.13, 91.67 L383.13, 91.17 L383.13, 90.67 L383.13, 90.17 L383.13, 89.67 L383.13, 89.17 L383.13, 88.66 L383.13, 88.16 L383.13, 87.66 L383.13, 87.16 L383.13, 86.66 L383.13, 86.16 L383.13, 85.66 L383.13, 85.16 L383.13, 84.66 L383.13, 84.16 L383.13, 83.65 L383.13, 83.15 L383.13, 82.65 L383.13, 82.15 L383.13, 81.65 L383.13, 81.15 L383.13, 80.65 L383.13, 80.15 L383.13, 79.65 L383.13, 79.15 L383.13, 78.65 L383.13, 78.14 L383.13, 77.64 L383.13, 77.14 L383.13, 76.64 L383.13, 76.14 L383.13, 75.64 L383.13, 75.14 L383.13, 74.64 L383.13, 74.14 L383.13, 73.64 L383.13, 73.14 L383.13, 72.63 L383.13, 72.13 L383.13, 71.63 L383.13, 71.13 L383.13, 70.63 L383.13, 70.13 L383.13, 69.63 L383.13, 69.13 L383.13, 68.63 L383.13, 68.13 L383.13, 67.63 L383.13, 67.12 L383.13, 66.62 L383.13, 66.12 L383.13, 65.62 L383.13, 65.12 L383.13, 64.62 L383.13, 64.12 L383.13, 63.62 L383.13, 63.12 L383.13, 62.62 L383.13, 62.12 L383.13, 61.61 L383.13, 61.11 L383.13, 60.61 L383.13, 60.11 L383.13, 59.61 L383.13, 59.11 L383.13, 58.61 L383.13, 58.11 L383.13, 57.61 L383.13, 57.11 L383.13, 56.60 L383.13, 56.10 L383.13, 55.60 L383.13, 55.10 L383.13, 54.60 L383.13, 54.10 L383.13, 53.60 L383.13, 53.10 L383.13, 52.60 L383.13, 52.10 L383.13, 51.60 L383.13, 51.09 L383.13, 50.59 L383.13, 50.09 L383.13, 49.59 L383.13, 49.09 L383.13, 48.59 L383.13, 48.09 L383.13, 47.59 L383.13, 47.09 L383.13, 46.59 L383.13, 46.09 L383.13, 45.58 L383.13, 45.08 L383.13, 44.58 L383.13, 44.08 L383.13, 43.58 L383.13, 43.08 L383.13, 42.58 L383.13, 42.08 L383.13, 41.58 L383.13, 41.08 L383.13, 40.58 L383.13, 40.07 L383.13, 39.57 L383.13, 39.07 L383.13, 38.57 L383.13, 38.07 L383.13, 37.57 L383.13, 37.07 L383.13, 36.57 L383.13, 36.07 L383.13, 35.57 L383.13, 35.06 L383.13, 34.56 L383.13, 34.06 L383.13, 33.56 L383.13, 33.06 L383.13, 32.56 L383.13, 32.06 L383.13, 31.56 L383.13, 31.06 L383.13, 30.56 L383.13, 30.06 L383.13, 29.55 L383.13, 29.05 L383.13, 28.55 L383.13, 28.05 L383.13, 27.55 L383.13, 27.05 L383.13, 26.55 L383.13, 26.05 L383.13, 25.55 L383.13, 25.05 L383.13, 24.55 L383.13, 24.04 L383.13, 23.54 L383.13, 23.04 L383.13, 22.54 L383.13, 22.04 L383.13, 21.54 L383.13, 21.04 L383.13, 20.54 L383.13, 20.04 L383.13, 19.54 L383.13, 19.04 L383.13, 18.53 L383.13, 18.03 L383.13, 17.53 L383.13, 17.03 L383.13, 16.53 L383.13, 16.03 L383.13, 15.53 L383.13, 15.03 L383.13, 14.53 L383.13, 14.03 L383.13, 13.53 L383.13, 13.02 L383.13, 12.52 L383.13, 12.02 L383.13, 11.52 L383.13, 11.02 L383.13, 10.52 L383.13, 10.02 L383.13, 9.52 L383.13, 9.02 L383.13, 8.52 L383.13, 8.01 L383.13, 7.51 L383.13, 7.01 L383.13, 6.51 L383.13, 6.01 L383.13, 5.51 L383.13, 5.01 L383.13, 4.51 L383.13, 4.01 L383.13, 3.51 L383.13, 3.01 L383.13, 2.50 L383.13, 2.00 L383.13, 1.50 L383.13, 1.00 L383.13, 0.50 L383.13, 0.00" style="stroke-width: 2; stroke: rgb(208, 2, 27); stroke-opacity: 1;"/><path d=" M383.13,158.63 L383.34,158.63 L383.56,158.63 L383.77,158.63 L383.99,158.63 L384.20,158.63 L384.42,158.63 L384.63,158.63 L384.85,158.63 L385.06,158.63 L385.28,158.63 L385.50,158.63 L385.71,158.63 L385.93,158.63 L386.14,158.63 L386.36,158.63 L386.57,158.63 L386.79,158.63 L387.00,158.63 L387.22,158.63 L387.44,158.63 L387.65,158.63 L387.87,158.63 L388.08,158.63 L388.30,158.63 L388.51,158.63 L388.73,158.63 L388.94,158.63 L389.16,158.63 L389.38,158.63 L389.59,158.63 L389.81,158.63 L390.02,158.63 L390.24,158.63 L390.45,158.63 L390.67,158.63 L390.88,158.63 L391.10,158.63 L391.32,158.63 L391.53,158.63 L391.75,158.63 L391.96,158.63 L392.18,158.63 L392.39,158.63 L392.61,158.63 L392.82,158.63 L393.04,158.63 L393.26,158.63 L393.47,158.63 L393.69,158.63 L393.90,158.63 L394.12,158.63 L394.33,158.63 L394.55,158.63 L394.76,158.63 L394.98,158.63 L395.20,158.63 L395.41,158.63 L395.63,158.63 L395.84,158.63 L396.06,158.63 L396.27,158.63 L396.49,158.63 L396.70,158.63 L396.92,158.63 L397.13,158.63 L397.35,158.63 L397.57,158.63 L397.78,158.63 L398.00,158.63 L398.21,158.63 L398.43,158.63 L398.64,158.63 L398.86,158.63 L399.07,158.63 L399.29,158.63 L399.51,158.63 L399.72,158.63 L399.94,158.63 L400.15,158.63 L400.37,158.63 L400.58,158.63 L400.80,158.63 L401.01,158.63 L401.23,158.63 L401.45,158.63 L401.66,158.63 L401.88,158.63 L402.09,158.63 L402.31,158.63 L402.52,158.63 L402.74,158.63 L402.95,158.63 L403.17,158.63 L403.39,158.63 L403.60,158.63 L403.82,158.63 L404.03,158.63 L404.25,158.63 L404.46,158.63 L404.68,158.63 L404.89,158.63 L405.11,158.63 L405.33,158.63 L405.54,158.63 L405.76,158.63 L405.97,158.63 L406.19,158.63 L406.40,158.63 L406.62,158.63 L406.83,158.63 L407.05,158.63 L407.27,158.63 L407.48,158.63 L407.70,158.63 L407.91,158.63 L408.13,158.63 L408.34,158.63 L408.56,158.63 L408.77,158.63 L408.99,158.63 L409.20,158.63 L409.42,158.63 L409.64,158.63 L409.85,158.63 L410.07,158.63 L410.28,158.63 L410.50,158.63 L410.71,158.63 L410.93,158.63 L411.14,158.63 L411.36,158.63 L411.58,158.63 L411.79,158.63 L412.01,158.63 L412.22,158.63 L412.44,158.63 L412.65,158.63 L412.87,158.63 L413.08,158.63 L413.30,158.63 L413.52,158.63 L413.73,158.63 L413.95,158.63 L414.16,158.63 L414.38,158.63 L414.59,158.63 L414.81,158.63 L415.02,158.63 L415.24,158.63 L415.46,158.63 L415.67,158.63 L415.89,158.63 L416.10,158.63 L416.32,158.63 L416.53,158.63 L416.75,158.63 L416.96,158.63 L417.18,158.63 L417.40,158.63 L417.61,158.63 L417.83,158.63 L418.04,158.63 L418.26,158.63 L418.47,158.63 L418.69,158.63 L418.90,158.63 L419.12,158.63 L419.34,158.63 L419.55,158.63 L419.77,158.63 L419.98,158.63 L420.20,158.63 L420.41,158.63 L420.63,158.63 L420.84,158.63 L421.06,158.63 L421.28,158.63 L421.49,158.63 L421.71,158.63 L421.92,158.63 L422.14,158.63 L422.35,158.63 L422.57,158.63 L422.78,158.63 L423.00,158.63 L423.21,158.63 L423.43,158.63 L423.65,158.63 L423.86,158.63 L424.08,158.63 L424.29,158.63 L424.51,158.63 L424.72,158.63 L424.94,158.63 L425.15,158.63 L425.37,158.63 L425.59,158.63 L425.80,158.63 L426.02,158.63 L426.23,158.63 L426.45,158.63 L426.66,158.63 L426.88,158.63 L427.09,158.63 L427.31,158.63 L427.53,158.63 L427.74,158.63 L427.96,158.63 L428.17,158.63 L428.39,158.63 L428.60,158.63 L428.82,158.63 L429.03,158.63 L429.25,158.63 L429.47,158.63 L429.68,158.63 L429.90,158.63 L430.11,158.63 L430.33,158.63 L430.54,158.63 L430.76,158.63 L430.97,158.63 L431.19,158.63 L431.41,158.63 L431.62,158.63 L431.84,158.63 L432.05,158.63 L432.27,158.63 L432.48,158.63 L432.70,158.63 L432.91,158.63 L433.13,158.63 L433.35,158.63 L433.56,158.63 L433.78,158.63 L433.99,158.63 L434.21,158.63 L434.42,158.63 L434.64,158.63 L434.85,158.63 L435.07,158.63 L435.28,158.63 L435.50,158.63 L435.72,158.63 L435.93,158.63 L436.15,158.63 L436.36,158.63 L436.58,158.63 L436.79,158.63 L437.01,158.63 L437.22,158.63 L437.44,158.63 L437.66,158.63 L437.87,158.63 L438.09,158.63 L438.30,158.63 L438.52,158.63 L438.73,158.63 L438.95,158.63 L439.16,158.63 L439.38,158.63 L439.60,158.63 L439.81,158.63 L440.03,158.63 L440.24,158.63 L440.46,158.63 L440.67,158.63 L440.89,158.63 L441.10,158.63 L441.32,158.63 L441.54,158.63 L441.75,158.63 L441.97,158.63 L442.18,158.63 L442.40,158.63 L442.61,158.63 L442.83,158.63 L443.04,158.63 L443.26,158.63 L443.48,158.63 L443.69,158.63 L443.91,158.63 L444.12,158.63 L444.34,158.63 L444.55,158.63 L444.77,158.63 L444.98,158.63 L445.20,158.63 L445.42,158.63 L445.63,158.63 L445.85,158.63 L446.06,158.63 L446.28,158.63 L446.49,158.63 L446.71,158.63 L446.92,158.63 L447.14,158.63 L447.35,158.63 L447.57,158.63 L447.79,158.63 L448.00,158.63 L448.22,158.63 L448.43,158.63 L448.65,158.63 L448.86,158.63 L449.08,158.63 L449.29,158.63 L449.51,158.63 L449.73,158.63 L449.94,158.63 L450.16,158.63 L450.37,158.63 L450.59,158.63 L450.80,158.63 L451.02,158.63 L451.23,158.63 L451.45,158.63 L451.67,158.63 L451.88,158.63 L452.10,158.63 L452.31,158.63 L452.53,158.63 L452.74,158.63 L452.96,158.63 L453.17,158.63 L453.39,158.63 L453.61,158.63 L453.82,158.63 L454.04,158.63 L454.25,158.63 L454.47,158.63 L454.68,158.63 L454.90,158.63 L455.11,158.63 L455.33,158.63 L455.55,158.63 L455.76,158.63 L455.98,158.63 L456.19,158.63 L456.41,158.63 L456.62,158.63 L456.84,158.63 L457.05,158.63 L457.27,158.63 L457.49,158.63 L457.70,158.63 L457.92,158.63 L458.13,158.63 L458.35,158.63 L458.56,158.63 L458.78,158.63 L458.99,158.63 L459.21,158.63 L459.43,158.63 L459.64,158.63 L459.86,158.63 L460.07,158.63 L460.29,158.63 L460.50,158.63 L460.72,158.63 L460.93,158.63 L461.15,158.63 L461.36,158.63 L461.58,158.63 L461.80,158.63 L462.01,158.63 L462.23,158.63 L462.44,158.63 L462.66,158.63 L462.87,158.63 L463.09,158.63 L463.30,158.63 L463.52,158.63 L463.74,158.63 L463.95,158.63 L464.17,158.63 L464.38,158.63 L464.60,158.63 L464.81,158.63 L465.03,158.63 L465.24,158.63 L465.46,158.63 L465.68,158.63 L465.89,158.63 L466.11,158.63 L466.32,158.63 L466.54,158.63 L466.75,158.63 L466.97,158.63 L467.18,158.63 L467.40,158.63 L467.62,158.63 L467.83,158.63 L468.05,158.63 L468.26,158.63 L468.48,158.63 L468.69,158.63 L468.91,158.63 L469.12,158.63 L469.34,158.63 L469.56,158.63 L469.77,158.63 L469.99,158.63 L470.20,158.63 L470.42,158.63 L470.63,158.63 L470.85,158.63 L471.06,158.63 L471.28,158.63 L471.50,158.63 L471.71,158.63 L471.93,158.63 L472.14,158.63 L472.36,158.63 L472.57,158.63 L472.79,158.63 L473.00,158.63 L473.22,158.63 L473.43,158.63 L473.65,158.63 L473.87,158.63 L474.08,158.63 L474.30,158.63 L474.51,158.63 L474.73,158.63 L474.94,158.63 L475.16,158.63 L475.37,158.63 L475.59,158.63 L475.81,158.63 L476.02,158.63 L476.24,158.63 L476.45,158.63 L476.67,158.63 L476.88,158.63 L477.10,158.63 L477.31,158.63 L477.53,158.63 L477.75,158.63 L477.96,158.63 L478.18,158.63 L478.39,158.63 L478.61,158.63 L478.82,158.63 L479.04,158.63 L479.25,158.63 L479.47,158.63 L479.69,158.63 L479.90,158.63 L480.12,158.63 L480.33,158.63 L480.55,158.63 L480.76,158.63 L480.98,158.63 L481.19,158.63 L481.41,158.63 L481.63,158.63 L481.84,158.63 L482.06,158.63 L482.27,158.63 L482.49,158.63 L482.70,158.63 L482.92,158.63 L483.13,158.63 L483.35,158.63 L483.57,158.63 L483.78,158.63 L484.00,158.63 L484.21,158.63 L484.43,158.63 L484.64,158.63 L484.86,158.63 L485.07,158.63 L485.29,158.63 L485.51,158.63 L485.72,158.63 L485.94,158.63 L486.15,158.63 L486.37,158.63 L486.58,158.63 L486.80,158.63 L487.01,158.63 L487.23,158.63 L487.44,158.63 L487.66,158.63 L487.88,158.63 L488.09,158.63 L488.31,158.63 L488.52,158.63 L488.74,158.63 L488.95,158.63 L489.17,158.63 L489.38,158.63 L489.60,158.63 L489.82,158.63 L490.03,158.63 L490.25,158.63 L490.46,158.63 L490.68,158.63 L490.89,158.63 L491.11,158.63 L491.32,158.63 L491.54,158.63 L491.76,158.63 L491.97,158.63 L492.19,158.63 L492.40,158.63 L492.62,158.63 L492.83,158.63 L493.05,158.63 L493.26,158.63 L493.48,158.63 L493.70,158.63 L493.91,158.63 L494.13,158.63 L494.34,158.63 L494.56,158.63 L494.77,158.63 L494.99,158.63 L495.20,158.63 L495.42,158.63 L495.64,158.63 L495.85,158.63 L496.07,158.63 L496.28,158.63 L496.50,158.63 L496.71,158.63 L496.93,158.63 L497.14,158.63 L497.36,158.63 L497.58,158.63 L497.79,158.63 L498.01,158.63 L498.22,158.63 L498.44,158.63 L498.65,158.63 L498.87,158.63 L499.08,158.63 L499.30,158.63 L499.51,158.63 L499.73,158.63 L499.95,158.63 L500.16,158.63 L500.38,158.63 L500.59,158.63 L500.81,158.63 L501.02,158.63 L501.24,158.63 L501.45,158.63 L501.67,158.63 L501.89,158.63 L502.10,158.63 L502.32,158.63 L502.53,158.63 L502.75,158.63 L502.96,158.63 L503.18,158.63 L503.39,158.63 L503.61,158.63 L503.83,158.63 L504.04,158.63 L504.26,158.63 L504.47,158.63 L504.69,158.63 L504.90,158.63 L505.12,158.63 L505.33,158.63 L505.55,158.63 L505.77,158.63 L505.98,158.63 L506.20,158.63 L506.41,158.63 L506.63,158.63 L506.84,158.63 L507.06,158.63 L507.27,158.63 L507.49,158.63 L507.71,158.63 L507.92,158.63 L508.14,158.63 L508.35,158.63 L508.57,158.63 L508.78,158.63 L509.00,158.63 L509.21,158.63 L509.43,158.63 L509.65,158.63 L509.86,158.63 L510.08,158.63 L510.29,158.63 L510.51,158.63 L510.72,158.63 L510.94,158.63 L511.15,158.63 L511.37,158.63 L511.58,158.63 L511.80,158.63 L512.02,158.63 L512.23,158.63 L512.45,158.63 L512.66,158.63 L512.88,158.63 L513.09,158.63 L513.31,158.63 L513.52,158.63 L513.74,158.63 L513.96,158.63 L514.17,158.63 L514.39,158.63 L514.60,158.63 L514.82,158.63 L515.03,158.63 L515.25,158.63 L515.46,158.63 L515.68,158.63 L515.90,158.63 L516.11,158.63 L516.33,158.63 L516.54,158.63 L516.76,158.63 L516.97,158.63 L517.19,158.63 L517.40,158.63 L517.62,158.63 L517.84,158.63 L518.05,158.63 L518.27,158.63 L518.48,158.63 L518.70,158.63 L518.91,158.63 L519.13,158.63 L519.34,158.63 L519.56,158.63 L519.78,158.63 L519.99,158.63 L520.21,158.63 L520.42,158.63 L520.64,158.63 L520.85,158.63 L521.07,158.63 L521.28,158.63 L521.50,158.63 L521.72,158.63 L521.93,158.63 L522.15,158.63 L522.36,158.63 L522.58,158.63 L522.79,158.63 L523.01,158.63 L523.22,158.63 L523.44,158.63 L523.66,158.63 L523.87,158.63 L524.09,158.63 L524.30,158.63 L524.52,158.63 L524.73,158.63 L524.95,158.63 L525.16,158.63 L525.38,158.63 L525.59,158.63 L525.81,158.63 L526.03,158.63 L526.24,158.63 L526.46,158.63 L526.67,158.63 L526.89,158.63 L527.10,158.63 L527.32,158.63 L527.53,158.63 L527.75,158.63 L527.97,158.63 L528.18,158.63 L528.40,158.63 L528.61,158.63 L528.83,158.63 L529.04,158.63 L529.26,158.63 L529.47,158.63 L529.69,158.63 L529.91,158.63 L530.12,158.63 L530.34,158.63 L530.55,158.63 L530.77,158.63 L530.98,158.63 L531.20,158.63 L531.41,158.63 L531.63,158.63 L531.85,158.63 L532.06,158.63 L532.28,158.63 L532.49,158.63 L532.71,158.63 L532.92,158.63 L533.14,158.63 L533.35,158.63 L533.57,158.63 L533.79,158.63 L534.00,158.63 L534.22,158.63 L534.43,158.63 L534.65,158.63 L534.86,158.63 L535.08,158.63 L535.29,158.63 L535.51,158.63 L535.73,158.63 L535.94,158.63 L536.16,158.63 L536.37,158.63 L536.59,158.63 L536.80,158.63 L537.02,158.63 L537.23,158.63 L537.45,158.63 L537.66,158.63 L537.88,158.63 L538.10,158.63 L538.31,158.63 L538.53,158.63 L538.74,158.63 L538.96,158.63 L539.17,158.63 L539.39,158.63 L539.60,158.63 L539.82,158.63 L540.04,158.63 L540.25,158.63 L540.47,158.63 L540.68,158.63 L540.90,158.63 L541.11,158.63 L541.33,158.63 L541.54,158.63 L541.76,158.63 L541.98,158.63 L542.19,158.63 L542.41,158.63 L542.62,158.63 L542.84,158.63 L543.05,158.63 L543.27,158.63 L543.48,158.63 L543.70,158.63 L543.92,158.63 L544.13,158.63 L544.35,158.63 L544.56,158.63 L544.78,158.63 L544.99,158.63 L545.21,158.63 L545.42,158.63 L545.64,158.63 L545.86,158.63 L546.07,158.63 L546.29,158.63 L546.50,158.63 L546.72,158.63 L546.93,158.63 L547.15,158.63 L547.36,158.63 L547.58,158.63 L547.80,158.63 L548.01,158.63 L548.23,158.63 L548.44,158.63 L548.66,158.63 L548.87,158.63 L549.09,158.63 L549.30,158.63 L549.52,158.63 L549.73,158.63 L549.95,158.63 L550.17,158.63 L550.38,158.63 L550.60,158.63 L550.81,158.63 L551.03,158.63 L551.24,158.63 L551.46,158.63 L551.67,158.63 L551.89,158.63 L552.11,158.63 L552.32,158.63 L552.54,158.63 L552.75,158.63 L552.97,158.63 L553.18,158.63 L553.40,158.63 L553.61,158.63 L553.83,158.63 L554.05,158.63 L554.26,158.63 L554.48,158.63 L554.69,158.63 L554.91,158.63 L555.12,158.63 L555.34,158.63 L555.55,158.63 L555.77,158.63 L555.99,158.63 L556.20,158.63 L556.42,158.63 L556.63,158.63 L556.85,158.63 L557.06,158.63 L557.28,158.63 L557.49,158.63 L557.71,158.63 L557.93,158.63 L558.14,158.63 L558.36,158.63 L558.57,158.63 L558.79,158.63 L559.00,158.63 L559.22,158.63 L559.43,158.63 L559.65,158.63 L559.87,158.63 L560.08,158.63 L560.30,158.63 L560.51,158.63 L560.73,158.63 L560.94,158.63 L561.16,158.63 L561.37,158.63 L561.59,158.63 L561.81,158.63 L562.02,158.63 L562.24,158.63 L562.45,158.63 L562.67,158.63 L562.88,158.63 L563.10,158.63 L563.31,158.63 L563.53,158.63 L563.74,158.63 L563.96,158.63 L564.18,158.63 L564.39,158.63 L564.61,158.63 L564.82,158.63 L565.04,158.63 L565.25,158.63 L565.47,158.63 L565.68,158.63 L565.90,158.63 L566.12,158.63 L566.33,158.63 L566.55,158.63 L566.76,158.63 L566.98,158.63 L567.19,158.63 L567.41,158.63 L567.62,158.63 L567.84,158.63 L568.06,158.63 L568.27,158.63 L568.49,158.63 L568.70,158.63 L568.92,158.63 L569.13,158.63 L569.35,158.63 L569.56,158.63 L569.78,158.63 L570.00,158.63 L570.21,158.63 L570.43,158.63 L570.64,158.63 L570.86,158.63 L571.07,158.63 L571.29,158.63 L571.50,158.63 L571.72,158.63 L571.94,158.63 L572.15,158.63 L572.37,158.63 L572.58,158.63 L572.80,158.63 L573.01,158.63 L573.23,158.63 L573.44,158.63 L573.66,158.63 L573.88,158.63 L574.09,158.63 L574.31,158.63 L574.52,158.63 L574.74,158.63 L574.95,158.63 L575.17,158.63 L575.38,158.63 L575.60,158.63 L575.81,158.63 L576.03,158.63 L576.25,158.63 L576.46,158.63 L576.68,158.63 L576.89,158.63 L577.11,158.63 L577.32,158.63 L577.54,158.63 L577.75,158.63 L577.97,158.63 L578.19,158.63 L578.40,158.63 L578.62,158.63 L578.83,158.63 L579.05,158.63 L579.26,158.63 L579.48,158.63 L579.69,158.63 L579.91,158.63 L580.13,158.63 L580.34,158.63 L580.56,158.63 L580.77,158.63 L580.99,158.63 L581.20,158.63 L581.42,158.63 L581.63,158.63 L581.85,158.63 L582.07,158.63 L582.28,158.63 L582.50,158.63 L582.71,158.63 L582.93,158.63 L583.14,158.63 L583.36,158.63 L583.57,158.63 L583.79,158.63 L584.01,158.63 L584.22,158.63 L584.44,158.63 L584.65,158.63 L584.87,158.63 L585.08,158.63 L585.30,158.63 L585.51,158.63 L585.73,158.63 L585.95,158.63 L586.16,158.63 L586.38,158.63 L586.59,158.63 L586.81,158.63 L587.02,158.63 L587.24,158.63 L587.45,158.63 L587.67,158.63 L587.89,158.63 L588.10,158.63 L588.32,158.63 L588.53,158.63 L588.75,158.63 L588.96,158.63 L589.18,158.63 L589.39,158.63 L589.61,158.63 L589.82,158.63 L590.04,158.63 L590.26,158.63 L590.47,158.63 L590.69,158.63 L590.90,158.63 L591.12,158.63 L591.33,158.63 L591.55,158.63 L591.76,158.63 L591.98,158.63 L592.20,158.63 L592.41,158.63 L592.63,158.63 L592.84,158.63 L593.06,158.63 L593.27,158.63 L593.49,158.63 L593.70,158.63 L593.92,158.63 L594.14,158.63 L594.35,158.63 L594.57,158.63 L594.78,158.63 L595.00,158.63 L595.21,158.63 L595.43,158.63 L595.64,158.63 L595.86,158.63 L596.08,158.63 L596.29,158.63 L596.51,158.63 L596.72,158.63 L596.94,158.63 L597.15,158.63 L597.37,158.63 L597.58,158.63 L597.80,158.63 L598.02,158.63 L598.23,158.63 L598.45,158.63 L598.66,158.63 L598.88,158.63 L599.09,158.63 L599.31,158.63 L599.52,158.63 L599.74,158.63 L599.96,158.63 L600.17,158.63 L600.39,158.63 L600.60,158.63 L600.82,158.63 L601.03,158.63 L601.25,158.63 L601.46,158.63 L601.68,158.63 L601.89,158.63 L602.11,158.63 L602.33,158.63 L602.54,158.63 L602.76,158.63 L602.97,158.63 L603.19,158.63 L603.40,158.63 L603.62,158.63 L603.83,158.63 L604.05,158.63 L604.27,158.63 L604.48,158.63 L604.70,158.63 L604.91,158.63 L605.13,158.63 L605.34,158.63 L605.56,158.63 L605.77,158.63 L605.99,158.63 L606.21,158.63 L606.42,158.63 L606.64,158.63 L606.85,158.63 L607.07,158.63 L607.28,158.63 L607.50,158.63 L607.71,158.63 L607.93,158.63 L608.15,158.63 L608.36,158.63 L608.58,158.63 L608.79,158.63 L609.01,158.63 L609.22,158.63 L609.44,158.63 L609.65,158.63 L609.87,158.63 L610.09,158.63 L610.30,158.63 L610.52,158.63 L610.73,158.63 L610.95,158.63 L611.16,158.63 L611.38,158.63 L611.59,158.63 L611.81,158.63 L612.03,158.63 L612.24,158.63 L612.46,158.63 L612.67,158.63 L612.89,158.63 L613.10,158.63 L613.32,158.63 L613.53,158.63 L613.75,158.63 L613.96,158.63 L614.18,158.63 L614.40,158.63 L614.61,158.63 L614.83,158.63 L615.04,158.63 L615.26,158.63 L615.47,158.63 L615.69,158.63 L615.90,158.63 L616.12,158.63 L616.34,158.63 L616.55,158.63 L616.77,158.63 L616.98,158.63 L617.20,158.63 L617.41,158.63 L617.63,158.63 L617.84,158.63 L618.06,158.63 L618.28,158.63 L618.49,158.63 L618.71,158.63 L618.92,158.63 L619.14,158.63 L619.35,158.63 L619.57,158.63 L619.78,158.63 L620.00,158.63" style="stroke-width: 2; stroke: rgb(126, 211, 33); stroke-opacity: 1;"/><g><g class="arrow-line"><path class="vector-plot real" stroke-dasharray="" d="  M573.25,12.38 L587.87,12.38" style="stroke: rgb(208, 2, 27); stroke-opacity: 1; stroke-width: 2;"/></g></g><g><g class="arrow-line"><path class="vector-plot real" stroke-dasharray="" d="  M573.25,27 L587.87,27" style="stroke: rgb(126, 211, 33); stroke-opacity: 1; stroke-width: 2;"/></g></g><g><g class="arrow-line"><path class="vector-plot real" stroke-dasharray="" d="  M573.25,41.63 L587.87,41.63" style="stroke: rgb(74, 144, 226); stroke-opacity: 1; stroke-width: 2;"/></g></g></g></g><g class="test-xtl" style="font-family: &quot;Open Sans&quot;, verdana, arial, sans-serif;"><text text-anchor="middle" font-size="11" dominant-baseline="hanging" stroke="none" fill="rgb(50,50,50)" fill-opacity="1" x="14.36499999999999" y="136.375">-20</text><text text-anchor="middle" font-size="11" dominant-baseline="hanging" stroke="none" fill="rgb(50,50,50)" fill-opacity="1" x="87.48999999999998" y="136.375">-15</text><text text-anchor="middle" font-size="11" dominant-baseline="hanging" stroke="none" fill="rgb(50,50,50)" fill-opacity="1" x="160.615" y="136.375">-10</text><text text-anchor="middle" font-size="11" dominant-baseline="hanging" stroke="none" fill="rgb(50,50,50)" fill-opacity="1" x="233.74" y="136.375">-5</text><text text-anchor="middle" font-size="11" dominant-baseline="hanging" stroke="none" fill="rgb(50,50,50)" fill-opacity="1" x="383.125" y="136.375">5</text><text text-anchor="middle" font-size="11" dominant-baseline="hanging" stroke="none" fill="rgb(50,50,50)" fill-opacity="1" x="456.25" y="136.375">10</text><text text-anchor="middle" font-size="11" dominant-baseline="hanging" stroke="none" fill="rgb(50,50,50)" fill-opacity="1" x="529.375" y="136.375">15</text><text text-anchor="middle" font-size="11" dominant-baseline="hanging" stroke="none" fill="rgb(50,50,50)" fill-opacity="1" x="602.5" y="136.375">20</text><text text-anchor="middle" font-size="11" dominant-baseline="hanging" stroke="none" fill="rgb(50,50,50)" fill-opacity="1" x="302" y="134.375">0</text></g><g class="test-ytl" style="font-family: &quot;Open Sans&quot;, verdana, arial, sans-serif;"><text text-anchor="end" dominant-baseline="middle" font-size="11" stroke="none" fill="rgb(50,50,50)" fill-opacity="1" x="302" y="202.5">-5</text><text text-anchor="end" dominant-baseline="middle" font-size="11" stroke="none" fill="rgb(50,50,50)" fill-opacity="1" x="302" y="56.24999999999997">5</text></g><rect class="real" x="1" y="1" width="618" height="268" style="fill: transparent; stroke: none;"/></g></g></g><g/></g><g/><g/><g/></svg>
        <svg xmlns="http://www.w3.org/2000/svg" xmlns:xlink="http://www.w3.org/1999/xlink" width="660" height="310" style="width:660px;height:310px;font-family:Asana-Math, Asana;background:transparent;"><g><g><g><g transform="matrix(1,0,0,1,418.66668701171875,110)"><path transform="matrix(0.017,0,0,-0.017,0,0)" d="M105 664L161 662C185 661 196 653 196 635C196 621 192 589 187 559L112 125C96 34 94 32 54 28L13 25L9 -3L51 -2C98 0 117 0 141 0L238 -3L264 -3L267 25L218 28C191 30 182 38 182 58C182 67 183 76 186 93L287 648C316 654 336 656 363 656C450 656 496 617 496 543C496 448 418 378 314 378L270 378L267 367C401 172 432 124 507 -3C507 -3 592 0 592 0C593 0 607 -1 626 -3L639 -3L639 24C599 29 588 37 559 79L375 354C430 364 459 376 495 402C553 444 584 499 584 560C584 646 520 693 409 691L108 691Z" stroke="rgb(0,0,0)" stroke-opacity="1" stroke-width="0" fill="rgb(0,0,0)" fill-opacity="1"></path></g></g><g><g><g><g><g transform="matrix(1,0,0,1,430.48956298828125,113.67084350585938)"><path transform="matrix(0.0119,0,0,-0.0119,0,0)" d="M16 23L16 -3C203 -3 203 0 239 0C275 0 275 -3 468 -3L468 82C353 77 307 81 122 77L304 270C401 373 431 428 431 503C431 618 353 689 226 689C154 689 105 669 56 619L39 483L68 483L81 529C97 587 133 612 200 612C286 612 341 558 341 473C341 398 299 324 186 204Z" stroke="rgb(0,0,0)" stroke-opacity="1" stroke-width="0" fill="rgb(0,0,0)" fill-opacity="1"></path></g></g></g></g></g><g><g transform="matrix(1,0,0,1,437.4375,110.66668701171875)"><path transform="matrix(0.017,0,0,-0.017,0,0)" d="M146 266C146 526 243 632 301 700L282 726C225 675 60 542 60 266C60 159 85 58 133 -32C168 -99 200 -138 282 -215L301 -194C255 -137 146 -15 146 266Z" stroke="rgb(0,0,0)" stroke-opacity="1" stroke-width="0" fill="rgb(0,0,0)" fill-opacity="1"></path></g></g><g><g transform="matrix(1,0,0,1,443.08331298828125,110)"><path transform="matrix(0.017,0,0,-0.017,0,0)" d="M9 1C24 -7 40 -11 52 -11C85 -11 124 18 155 65L231 182L242 113C255 28 278 -11 314 -11C336 -11 368 6 400 35L449 79L440 98C404 68 379 53 363 53C348 53 335 63 325 83C316 102 305 139 300 168L282 269L317 318C364 383 391 406 422 406C438 406 450 398 455 383L469 387L484 472C472 479 463 482 454 482C414 482 374 446 312 354L275 299L269 347C257 446 230 482 171 482C145 482 123 474 114 461L56 378L73 368C103 402 123 416 142 416C175 416 197 375 214 277L225 215L185 153C142 86 108 54 80 54C65 54 54 58 52 63L41 91L21 88C21 53 13 27 9 1Z" stroke="rgb(0,0,0)" stroke-opacity="1" stroke-width="0" fill="rgb(0,0,0)" fill-opacity="1"></path></g></g><g><g><g><g><g transform="matrix(1,0,0,1,452.07293701171875,113.67084350585938)"><path transform="matrix(0.0119,0,0,-0.0119,0,0)" d="M418 -3L418 27L366 30C311 33 301 44 301 96L301 700L60 598L67 548L217 614L217 96C217 44 206 33 152 30L96 27L96 -3C250 0 250 0 261 0C292 0 402 -3 418 -3Z" stroke="rgb(0,0,0)" stroke-opacity="1" stroke-width="0" fill="rgb(0,0,0)" fill-opacity="1"></path></g></g></g></g></g><g><g transform="matrix(1,0,0,1,464.11456298828125,110)"><path transform="matrix(0.017,0,0,-0.017,0,0)" d="M65 0L604 252L604 273L65 528L65 469L503 264L65 59Z" stroke="rgb(0,0,0)" stroke-opacity="1" stroke-width="0" fill="rgb(0,0,0)" fill-opacity="1"></path></g></g><g><g transform="matrix(1,0,0,1,480.57293701171875,110)"><path transform="matrix(0.017,0,0,-0.017,0,0)" d="M459 253C459 366 378 446 264 446C216 446 180 443 127 396L127 605L432 604L432 689L75 690L75 322L95 316C142 363 169 377 218 377C314 377 374 309 374 201C374 90 310 25 201 25C147 25 97 43 83 69L37 151L13 137C36 80 48 48 62 4C90 -11 130 -20 173 -20C301 -20 459 89 459 253Z" stroke="rgb(0,0,0)" stroke-opacity="1" stroke-width="0" fill="rgb(0,0,0)" fill-opacity="1"></path></g></g><g><g transform="matrix(1,0,0,1,489.0625,110)"><path transform="matrix(0.017,0,0,-0.017,0,0)" d="M204 123C177 114 159 108 106 93C99 17 74 -48 16 -144L30 -155L71 -136C152 -31 190 32 218 109Z" stroke="rgb(0,0,0)" stroke-opacity="1" stroke-width="0" fill="rgb(0,0,0)" fill-opacity="1"></path></g></g><g><g transform="matrix(1,0,0,1,496.69793701171875,110)"><path transform="matrix(0.017,0,0,-0.017,0,0)" d="M9 1C24 -7 40 -11 52 -11C85 -11 124 18 155 65L231 182L242 113C255 28 278 -11 314 -11C336 -11 368 6 400 35L449 79L440 98C404 68 379 53 363 53C348 53 335 63 325 83C316 102 305 139 300 168L282 269L317 318C364 383 391 406 422 406C438 406 450 398 455 383L469 387L484 472C472 479 463 482 454 482C414 482 374 446 312 354L275 299L269 347C257 446 230 482 171 482C145 482 123 474 114 461L56 378L73 368C103 402 123 416 142 416C175 416 197 375 214 277L225 215L185 153C142 86 108 54 80 54C65 54 54 58 52 63L41 91L21 88C21 53 13 27 9 1Z" stroke="rgb(126,211,33)" stroke-opacity="1" stroke-width="0" fill="rgb(126,211,33)" fill-opacity="1"></path></g></g><g><g><g><g><g transform="matrix(1,0,0,1,505.6875,113.67084350585938)"><path transform="matrix(0.0119,0,0,-0.0119,0,0)" d="M16 23L16 -3C203 -3 203 0 239 0C275 0 275 -3 468 -3L468 82C353 77 307 81 122 77L304 270C401 373 431 428 431 503C431 618 353 689 226 689C154 689 105 669 56 619L39 483L68 483L81 529C97 587 133 612 200 612C286 612 341 558 341 473C341 398 299 324 186 204Z" stroke="rgb(126,211,33)" stroke-opacity="1" stroke-width="0" fill="rgb(126,211,33)" fill-opacity="1"></path></g></g></g></g></g><g><g transform="matrix(1,0,0,1,517.7291870117188,110)"><path transform="matrix(0.017,0,0,-0.017,0,0)" d="M65 0L604 252L604 273L65 528L65 469L503 264L65 59Z" stroke="rgb(126,211,33)" stroke-opacity="1" stroke-width="0" fill="rgb(126,211,33)" fill-opacity="1"></path></g></g><g><g transform="matrix(1,0,0,1,537.5833129882812,110)"><path transform="matrix(0.017,0,0,-0.017,0,0)" d="M555 243L555 299L51 299L51 243Z" stroke="rgb(126,211,33)" stroke-opacity="1" stroke-width="0" fill="rgb(126,211,33)" fill-opacity="1"></path></g></g><g><g transform="matrix(1,0,0,1,551.2708129882812,110)"><path transform="matrix(0.017,0,0,-0.017,0,0)" d="M16 23L16 -3C203 -3 203 0 239 0C275 0 275 -3 468 -3L468 82C353 77 307 81 122 77L304 270C401 373 431 428 431 503C431 618 353 689 226 689C154 689 105 669 56 619L39 483L68 483L81 529C97 587 133 612 200 612C286 612 341 558 341 473C341 398 299 324 186 204Z" stroke="rgb(126,211,33)" stroke-opacity="1" stroke-width="0" fill="rgb(126,211,33)" fill-opacity="1"></path></g></g><g><g transform="matrix(1,0,0,1,559.7604370117188,110.66668701171875)"><path transform="matrix(0.017,0,0,-0.017,0,0)" d="M51 726L32 700C87 636 187 526 187 266C187 -10 83 -131 32 -194L51 -215C104 -165 273 -23 273 265C273 542 108 675 51 726Z" stroke="rgb(0,0,0)" stroke-opacity="1" stroke-width="0" fill="rgb(0,0,0)" fill-opacity="1"></path></g></g></g></g><g><g><g><g transform="matrix(1,0,0,1,187.66668701171875,58)"><path transform="matrix(0.017,0,0,-0.017,0,0)" d="M105 664L161 662C185 661 196 653 196 635C196 621 192 589 187 559L112 125C96 34 94 32 54 28L13 25L9 -3L51 -2C98 0 117 0 141 0L238 -3L264 -3L267 25L218 28C191 30 182 38 182 58C182 67 183 76 186 93L287 648C316 654 336 656 363 656C450 656 496 617 496 543C496 448 418 378 314 378L270 378L267 367C401 172 432 124 507 -3C507 -3 592 0 592 0C593 0 607 -1 626 -3L639 -3L639 24C599 29 588 37 559 79L375 354C430 364 459 376 495 402C553 444 584 499 584 560C584 646 520 693 409 691L108 691Z" stroke="rgb(0,0,0)" stroke-opacity="1" stroke-width="0" fill="rgb(0,0,0)" fill-opacity="1"></path></g></g><g><g><g><g><g transform="matrix(1,0,0,1,199.48956298828125,61.670843505859374)"><path transform="matrix(0.0119,0,0,-0.0119,0,0)" d="M280 181L280 106C280 46 269 32 220 30L158 27L158 -3C291 0 291 0 315 0C339 0 339 0 472 -3L472 27L424 30C375 33 364 46 364 106L364 181C423 181 444 180 472 177L472 248L364 245L365 697L285 667L2 204L2 181ZM280 245L65 245L280 597Z" stroke="rgb(0,0,0)" stroke-opacity="1" stroke-width="0" fill="rgb(0,0,0)" fill-opacity="1"></path></g></g></g></g></g><g><g transform="matrix(1,0,0,1,206.4375,58.66667175292969)"><path transform="matrix(0.017,0,0,-0.017,0,0)" d="M146 266C146 526 243 632 301 700L282 726C225 675 60 542 60 266C60 159 85 58 133 -32C168 -99 200 -138 282 -215L301 -194C255 -137 146 -15 146 266Z" stroke="rgb(0,0,0)" stroke-opacity="1" stroke-width="0" fill="rgb(0,0,0)" fill-opacity="1"></path></g></g><g><g transform="matrix(1,0,0,1,212.08331298828125,58)"><path transform="matrix(0.017,0,0,-0.017,0,0)" d="M9 1C24 -7 40 -11 52 -11C85 -11 124 18 155 65L231 182L242 113C255 28 278 -11 314 -11C336 -11 368 6 400 35L449 79L440 98C404 68 379 53 363 53C348 53 335 63 325 83C316 102 305 139 300 168L282 269L317 318C364 383 391 406 422 406C438 406 450 398 455 383L469 387L484 472C472 479 463 482 454 482C414 482 374 446 312 354L275 299L269 347C257 446 230 482 171 482C145 482 123 474 114 461L56 378L73 368C103 402 123 416 142 416C175 416 197 375 214 277L225 215L185 153C142 86 108 54 80 54C65 54 54 58 52 63L41 91L21 88C21 53 13 27 9 1Z" stroke="rgb(208,2,27)" stroke-opacity="1" stroke-width="0" fill="rgb(208,2,27)" fill-opacity="1"></path></g></g><g><g><g><g><g transform="matrix(1,0,0,1,221.07293701171875,61.670843505859374)"><path transform="matrix(0.0119,0,0,-0.0119,0,0)" d="M418 -3L418 27L366 30C311 33 301 44 301 96L301 700L60 598L67 548L217 614L217 96C217 44 206 33 152 30L96 27L96 -3C250 0 250 0 261 0C292 0 402 -3 418 -3Z" stroke="rgb(208,2,27)" stroke-opacity="1" stroke-width="0" fill="rgb(208,2,27)" fill-opacity="1"></path></g></g></g></g></g><g><g transform="matrix(1,0,0,1,233.11456298828125,58)"><path transform="matrix(0.017,0,0,-0.017,0,0)" d="M604 76L604 135L166 340L604 545L604 604L65 349L65 328ZM604 -61L604 -5L65 -5L65 -61Z" stroke="rgb(208,2,27)" stroke-opacity="1" stroke-width="0" fill="rgb(208,2,27)" fill-opacity="1"></path></g></g><g><g transform="matrix(1,0,0,1,249.58331298828125,58)"><path transform="matrix(0.017,0,0,-0.017,0,0)" d="M459 253C459 366 378 446 264 446C216 446 180 443 127 396L127 605L432 604L432 689L75 690L75 322L95 316C142 363 169 377 218 377C314 377 374 309 374 201C374 90 310 25 201 25C147 25 97 43 83 69L37 151L13 137C36 80 48 48 62 4C90 -11 130 -20 173 -20C301 -20 459 89 459 253Z" stroke="rgb(208,2,27)" stroke-opacity="1" stroke-width="0" fill="rgb(208,2,27)" fill-opacity="1"></path></g></g><g><g transform="matrix(1,0,0,1,258.07293701171875,58)"><path transform="matrix(0.017,0,0,-0.017,0,0)" d="M204 123C177 114 159 108 106 93C99 17 74 -48 16 -144L30 -155L71 -136C152 -31 190 32 218 109Z" stroke="rgb(0,0,0)" stroke-opacity="1" stroke-width="0" fill="rgb(0,0,0)" fill-opacity="1"></path></g></g><g><g transform="matrix(1,0,0,1,265.70831298828125,58)"><path transform="matrix(0.017,0,0,-0.017,0,0)" d="M9 1C24 -7 40 -11 52 -11C85 -11 124 18 155 65L231 182L242 113C255 28 278 -11 314 -11C336 -11 368 6 400 35L449 79L440 98C404 68 379 53 363 53C348 53 335 63 325 83C316 102 305 139 300 168L282 269L317 318C364 383 391 406 422 406C438 406 450 398 455 383L469 387L484 472C472 479 463 482 454 482C414 482 374 446 312 354L275 299L269 347C257 446 230 482 171 482C145 482 123 474 114 461L56 378L73 368C103 402 123 416 142 416C175 416 197 375 214 277L225 215L185 153C142 86 108 54 80 54C65 54 54 58 52 63L41 91L21 88C21 53 13 27 9 1Z" stroke="rgb(74,144,226)" stroke-opacity="1" stroke-width="0" fill="rgb(74,144,226)" fill-opacity="1"></path></g></g><g><g><g><g><g transform="matrix(1,0,0,1,274.69793701171875,61.670843505859374)"><path transform="matrix(0.0119,0,0,-0.0119,0,0)" d="M16 23L16 -3C203 -3 203 0 239 0C275 0 275 -3 468 -3L468 82C353 77 307 81 122 77L304 270C401 373 431 428 431 503C431 618 353 689 226 689C154 689 105 669 56 619L39 483L68 483L81 529C97 587 133 612 200 612C286 612 341 558 341 473C341 398 299 324 186 204Z" stroke="rgb(74,144,226)" stroke-opacity="1" stroke-width="0" fill="rgb(74,144,226)" fill-opacity="1"></path></g></g></g></g></g><g><g transform="matrix(1,0,0,1,286.73956298828125,58)"><path transform="matrix(0.017,0,0,-0.017,0,0)" d="M65 0L604 252L604 273L65 528L65 469L503 264L65 59Z" stroke="rgb(74,144,226)" stroke-opacity="1" stroke-width="0" fill="rgb(74,144,226)" fill-opacity="1"></path></g></g><g><g transform="matrix(1,0,0,1,303.19793701171875,58)"><path transform="matrix(0.017,0,0,-0.017,0,0)" d="M280 181L280 106C280 46 269 32 220 30L158 27L158 -3C291 0 291 0 315 0C339 0 339 0 472 -3L472 27L424 30C375 33 364 46 364 106L364 181C423 181 444 180 472 177L472 248L364 245L365 697L285 667L2 204L2 181ZM280 245L65 245L280 597Z" stroke="rgb(74,144,226)" stroke-opacity="1" stroke-width="0" fill="rgb(74,144,226)" fill-opacity="1"></path></g></g><g><g transform="matrix(1,0,0,1,311.6875,58.66667175292969)"><path transform="matrix(0.017,0,0,-0.017,0,0)" d="M51 726L32 700C87 636 187 526 187 266C187 -10 83 -131 32 -194L51 -215C104 -165 273 -23 273 265C273 542 108 675 51 726Z" stroke="rgb(0,0,0)" stroke-opacity="1" stroke-width="0" fill="rgb(0,0,0)" fill-opacity="1"></path></g></g></g></g><g><g><g><g transform="matrix(1,0,0,1,187.66668701171875,170)"><path transform="matrix(0.017,0,0,-0.017,0,0)" d="M105 664L161 662C185 661 196 653 196 635C196 621 192 589 187 559L112 125C96 34 94 32 54 28L13 25L9 -3L51 -2C98 0 117 0 141 0L238 -3L264 -3L267 25L218 28C191 30 182 38 182 58C182 67 183 76 186 93L287 648C316 654 336 656 363 656C450 656 496 617 496 543C496 448 418 378 314 378L270 378L267 367C401 172 432 124 507 -3C507 -3 592 0 592 0C593 0 607 -1 626 -3L639 -3L639 24C599 29 588 37 559 79L375 354C430 364 459 376 495 402C553 444 584 499 584 560C584 646 520 693 409 691L108 691Z" stroke="rgb(0,0,0)" stroke-opacity="1" stroke-width="0" fill="rgb(0,0,0)" fill-opacity="1"></path></g></g><g><g><g><g><g transform="matrix(1,0,0,1,199.48956298828125,173.67084350585938)"><path transform="matrix(0.0119,0,0,-0.0119,0,0)" d="M418 -3L418 27L366 30C311 33 301 44 301 96L301 700L60 598L67 548L217 614L217 96C217 44 206 33 152 30L96 27L96 -3C250 0 250 0 261 0C292 0 402 -3 418 -3Z" stroke="rgb(0,0,0)" stroke-opacity="1" stroke-width="0" fill="rgb(0,0,0)" fill-opacity="1"></path></g></g></g></g></g><g><g transform="matrix(1,0,0,1,206.4375,170.66668701171875)"><path transform="matrix(0.017,0,0,-0.017,0,0)" d="M146 266C146 526 243 632 301 700L282 726C225 675 60 542 60 266C60 159 85 58 133 -32C168 -99 200 -138 282 -215L301 -194C255 -137 146 -15 146 266Z" stroke="rgb(0,0,0)" stroke-opacity="1" stroke-width="0" fill="rgb(0,0,0)" fill-opacity="1"></path></g></g><g><g transform="matrix(1,0,0,1,212.08331298828125,170)"><path transform="matrix(0.017,0,0,-0.017,0,0)" d="M9 1C24 -7 40 -11 52 -11C85 -11 124 18 155 65L231 182L242 113C255 28 278 -11 314 -11C336 -11 368 6 400 35L449 79L440 98C404 68 379 53 363 53C348 53 335 63 325 83C316 102 305 139 300 168L282 269L317 318C364 383 391 406 422 406C438 406 450 398 455 383L469 387L484 472C472 479 463 482 454 482C414 482 374 446 312 354L275 299L269 347C257 446 230 482 171 482C145 482 123 474 114 461L56 378L73 368C103 402 123 416 142 416C175 416 197 375 214 277L225 215L185 153C142 86 108 54 80 54C65 54 54 58 52 63L41 91L21 88C21 53 13 27 9 1Z" stroke="rgb(208,2,27)" stroke-opacity="1" stroke-width="0" fill="rgb(208,2,27)" fill-opacity="1"></path></g></g><g><g><g><g><g transform="matrix(1,0,0,1,221.07293701171875,173.67084350585938)"><path transform="matrix(0.0119,0,0,-0.0119,0,0)" d="M418 -3L418 27L366 30C311 33 301 44 301 96L301 700L60 598L67 548L217 614L217 96C217 44 206 33 152 30L96 27L96 -3C250 0 250 0 261 0C292 0 402 -3 418 -3Z" stroke="rgb(208,2,27)" stroke-opacity="1" stroke-width="0" fill="rgb(208,2,27)" fill-opacity="1"></path></g></g></g></g></g><g><g transform="matrix(1,0,0,1,233.11456298828125,170)"><path transform="matrix(0.017,0,0,-0.017,0,0)" d="M604 76L604 135L166 340L604 545L604 604L65 349L65 328ZM604 -61L604 -5L65 -5L65 -61Z" stroke="rgb(208,2,27)" stroke-opacity="1" stroke-width="0" fill="rgb(208,2,27)" fill-opacity="1"></path></g></g><g><g transform="matrix(1,0,0,1,249.58331298828125,170)"><path transform="matrix(0.017,0,0,-0.017,0,0)" d="M459 253C459 366 378 446 264 446C216 446 180 443 127 396L127 605L432 604L432 689L75 690L75 322L95 316C142 363 169 377 218 377C314 377 374 309 374 201C374 90 310 25 201 25C147 25 97 43 83 69L37 151L13 137C36 80 48 48 62 4C90 -11 130 -20 173 -20C301 -20 459 89 459 253Z" stroke="rgb(208,2,27)" stroke-opacity="1" stroke-width="0" fill="rgb(208,2,27)" fill-opacity="1"></path></g></g><g><g transform="matrix(1,0,0,1,258.07293701171875,170)"><path transform="matrix(0.017,0,0,-0.017,0,0)" d="M204 123C177 114 159 108 106 93C99 17 74 -48 16 -144L30 -155L71 -136C152 -31 190 32 218 109Z" stroke="rgb(0,0,0)" stroke-opacity="1" stroke-width="0" fill="rgb(0,0,0)" fill-opacity="1"></path></g></g><g><g transform="matrix(1,0,0,1,265.70831298828125,170)"><path transform="matrix(0.017,0,0,-0.017,0,0)" d="M9 1C24 -7 40 -11 52 -11C85 -11 124 18 155 65L231 182L242 113C255 28 278 -11 314 -11C336 -11 368 6 400 35L449 79L440 98C404 68 379 53 363 53C348 53 335 63 325 83C316 102 305 139 300 168L282 269L317 318C364 383 391 406 422 406C438 406 450 398 455 383L469 387L484 472C472 479 463 482 454 482C414 482 374 446 312 354L275 299L269 347C257 446 230 482 171 482C145 482 123 474 114 461L56 378L73 368C103 402 123 416 142 416C175 416 197 375 214 277L225 215L185 153C142 86 108 54 80 54C65 54 54 58 52 63L41 91L21 88C21 53 13 27 9 1Z" stroke="rgb(74,144,226)" stroke-opacity="1" stroke-width="0" fill="rgb(74,144,226)" fill-opacity="1"></path></g></g><g><g><g><g><g transform="matrix(1,0,0,1,274.69793701171875,173.67084350585938)"><path transform="matrix(0.0119,0,0,-0.0119,0,0)" d="M16 23L16 -3C203 -3 203 0 239 0C275 0 275 -3 468 -3L468 82C353 77 307 81 122 77L304 270C401 373 431 428 431 503C431 618 353 689 226 689C154 689 105 669 56 619L39 483L68 483L81 529C97 587 133 612 200 612C286 612 341 558 341 473C341 398 299 324 186 204Z" stroke="rgb(74,144,226)" stroke-opacity="1" stroke-width="0" fill="rgb(74,144,226)" fill-opacity="1"></path></g></g></g></g></g><g><g transform="matrix(1,0,0,1,286.73956298828125,170)"><path transform="matrix(0.017,0,0,-0.017,0,0)" d="M604 76L604 135L166 340L604 545L604 604L65 349L65 328ZM604 -61L604 -5L65 -5L65 -61Z" stroke="rgb(74,144,226)" stroke-opacity="1" stroke-width="0" fill="rgb(74,144,226)" fill-opacity="1"></path></g></g><g><g transform="matrix(1,0,0,1,303.20831298828125,170)"><path transform="matrix(0.017,0,0,-0.017,0,0)" d="M280 181L280 106C280 46 269 32 220 30L158 27L158 -3C291 0 291 0 315 0C339 0 339 0 472 -3L472 27L424 30C375 33 364 46 364 106L364 181C423 181 444 180 472 177L472 248L364 245L365 697L285 667L2 204L2 181ZM280 245L65 245L280 597Z" stroke="rgb(74,144,226)" stroke-opacity="1" stroke-width="0" fill="rgb(74,144,226)" fill-opacity="1"></path></g></g><g><g transform="matrix(1,0,0,1,311.69793701171875,170.66668701171875)"><path transform="matrix(0.017,0,0,-0.017,0,0)" d="M51 726L32 700C87 636 187 526 187 266C187 -10 83 -131 32 -194L51 -215C104 -165 273 -23 273 265C273 542 108 675 51 726Z" stroke="rgb(0,0,0)" stroke-opacity="1" stroke-width="0" fill="rgb(0,0,0)" fill-opacity="1"></path></g></g></g></g><g><g><g><g transform="matrix(1,0,0,1,417.66668701171875,229)"><path transform="matrix(0.017,0,0,-0.017,0,0)" d="M105 664L161 662C185 661 196 653 196 635C196 621 192 589 187 559L112 125C96 34 94 32 54 28L13 25L9 -3L51 -2C98 0 117 0 141 0L238 -3L264 -3L267 25L218 28C191 30 182 38 182 58C182 67 183 76 186 93L287 648C316 654 336 656 363 656C450 656 496 617 496 543C496 448 418 378 314 378L270 378L267 367C401 172 432 124 507 -3C507 -3 592 0 592 0C593 0 607 -1 626 -3L639 -3L639 24C599 29 588 37 559 79L375 354C430 364 459 376 495 402C553 444 584 499 584 560C584 646 520 693 409 691L108 691Z" stroke="rgb(0,0,0)" stroke-opacity="1" stroke-width="0" fill="rgb(0,0,0)" fill-opacity="1"></path></g></g><g><g><g><g><g transform="matrix(1,0,0,1,429.48956298828125,232.67084350585938)"><path transform="matrix(0.0119,0,0,-0.0119,0,0)" d="M462 224C462 345 355 366 308 374C388 436 418 482 418 541C418 630 344 689 233 689C165 689 120 670 72 622L43 498L74 498L92 554C103 588 166 622 218 622C283 622 336 569 336 506C336 431 277 368 206 368C198 368 187 369 174 370L159 371L147 318L154 312C192 329 211 334 238 334C321 334 369 281 369 190C369 88 308 21 215 21C169 21 128 36 98 64C74 86 61 109 42 163L15 153C36 92 44 56 50 6C103 -12 147 -20 184 -20C307 -20 462 87 462 224Z" stroke="rgb(0,0,0)" stroke-opacity="1" stroke-width="0" fill="rgb(0,0,0)" fill-opacity="1"></path></g></g></g></g></g><g><g transform="matrix(1,0,0,1,436.4375,229.66668701171875)"><path transform="matrix(0.017,0,0,-0.017,0,0)" d="M146 266C146 526 243 632 301 700L282 726C225 675 60 542 60 266C60 159 85 58 133 -32C168 -99 200 -138 282 -215L301 -194C255 -137 146 -15 146 266Z" stroke="rgb(0,0,0)" stroke-opacity="1" stroke-width="0" fill="rgb(0,0,0)" fill-opacity="1"></path></g></g><g><g transform="matrix(1,0,0,1,442.08331298828125,229)"><path transform="matrix(0.017,0,0,-0.017,0,0)" d="M9 1C24 -7 40 -11 52 -11C85 -11 124 18 155 65L231 182L242 113C255 28 278 -11 314 -11C336 -11 368 6 400 35L449 79L440 98C404 68 379 53 363 53C348 53 335 63 325 83C316 102 305 139 300 168L282 269L317 318C364 383 391 406 422 406C438 406 450 398 455 383L469 387L484 472C472 479 463 482 454 482C414 482 374 446 312 354L275 299L269 347C257 446 230 482 171 482C145 482 123 474 114 461L56 378L73 368C103 402 123 416 142 416C175 416 197 375 214 277L225 215L185 153C142 86 108 54 80 54C65 54 54 58 52 63L41 91L21 88C21 53 13 27 9 1Z" stroke="rgb(0,0,0)" stroke-opacity="1" stroke-width="0" fill="rgb(0,0,0)" fill-opacity="1"></path></g></g><g><g><g><g><g transform="matrix(1,0,0,1,451.07293701171875,232.67084350585938)"><path transform="matrix(0.0119,0,0,-0.0119,0,0)" d="M418 -3L418 27L366 30C311 33 301 44 301 96L301 700L60 598L67 548L217 614L217 96C217 44 206 33 152 30L96 27L96 -3C250 0 250 0 261 0C292 0 402 -3 418 -3Z" stroke="rgb(0,0,0)" stroke-opacity="1" stroke-width="0" fill="rgb(0,0,0)" fill-opacity="1"></path></g></g></g></g></g><g><g transform="matrix(1,0,0,1,463.11456298828125,229)"><path transform="matrix(0.017,0,0,-0.017,0,0)" d="M604 76L604 135L166 340L604 545L604 604L65 349L65 328ZM604 -61L604 -5L65 -5L65 -61Z" stroke="rgb(0,0,0)" stroke-opacity="1" stroke-width="0" fill="rgb(0,0,0)" fill-opacity="1"></path></g></g><g><g transform="matrix(1,0,0,1,479.58331298828125,229)"><path transform="matrix(0.017,0,0,-0.017,0,0)" d="M459 253C459 366 378 446 264 446C216 446 180 443 127 396L127 605L432 604L432 689L75 690L75 322L95 316C142 363 169 377 218 377C314 377 374 309 374 201C374 90 310 25 201 25C147 25 97 43 83 69L37 151L13 137C36 80 48 48 62 4C90 -11 130 -20 173 -20C301 -20 459 89 459 253Z" stroke="rgb(0,0,0)" stroke-opacity="1" stroke-width="0" fill="rgb(0,0,0)" fill-opacity="1"></path></g></g><g><g transform="matrix(1,0,0,1,488.07293701171875,229)"><path transform="matrix(0.017,0,0,-0.017,0,0)" d="M204 123C177 114 159 108 106 93C99 17 74 -48 16 -144L30 -155L71 -136C152 -31 190 32 218 109Z" stroke="rgb(0,0,0)" stroke-opacity="1" stroke-width="0" fill="rgb(0,0,0)" fill-opacity="1"></path></g></g><g><g transform="matrix(1,0,0,1,495.70831298828125,229)"><path transform="matrix(0.017,0,0,-0.017,0,0)" d="M9 1C24 -7 40 -11 52 -11C85 -11 124 18 155 65L231 182L242 113C255 28 278 -11 314 -11C336 -11 368 6 400 35L449 79L440 98C404 68 379 53 363 53C348 53 335 63 325 83C316 102 305 139 300 168L282 269L317 318C364 383 391 406 422 406C438 406 450 398 455 383L469 387L484 472C472 479 463 482 454 482C414 482 374 446 312 354L275 299L269 347C257 446 230 482 171 482C145 482 123 474 114 461L56 378L73 368C103 402 123 416 142 416C175 416 197 375 214 277L225 215L185 153C142 86 108 54 80 54C65 54 54 58 52 63L41 91L21 88C21 53 13 27 9 1Z" stroke="rgb(126,211,33)" stroke-opacity="1" stroke-width="0" fill="rgb(126,211,33)" fill-opacity="1"></path></g></g><g><g><g><g><g transform="matrix(1,0,0,1,504.69793701171875,232.67084350585938)"><path transform="matrix(0.0119,0,0,-0.0119,0,0)" d="M16 23L16 -3C203 -3 203 0 239 0C275 0 275 -3 468 -3L468 82C353 77 307 81 122 77L304 270C401 373 431 428 431 503C431 618 353 689 226 689C154 689 105 669 56 619L39 483L68 483L81 529C97 587 133 612 200 612C286 612 341 558 341 473C341 398 299 324 186 204Z" stroke="rgb(126,211,33)" stroke-opacity="1" stroke-width="0" fill="rgb(126,211,33)" fill-opacity="1"></path></g></g></g></g></g><g><g transform="matrix(1,0,0,1,516.7395629882812,229)"><path transform="matrix(0.017,0,0,-0.017,0,0)" d="M604 76L604 135L166 340L604 545L604 604L65 349L65 328ZM604 -61L604 -5L65 -5L65 -61Z" stroke="rgb(126,211,33)" stroke-opacity="1" stroke-width="0" fill="rgb(126,211,33)" fill-opacity="1"></path></g></g><g><g transform="matrix(1,0,0,1,536.6041870117188,229)"><path transform="matrix(0.017,0,0,-0.017,0,0)" d="M555 243L555 299L51 299L51 243Z" stroke="rgb(126,211,33)" stroke-opacity="1" stroke-width="0" fill="rgb(126,211,33)" fill-opacity="1"></path></g></g><g><g transform="matrix(1,0,0,1,550.2916870117188,229)"><path transform="matrix(0.017,0,0,-0.017,0,0)" d="M16 23L16 -3C203 -3 203 0 239 0C275 0 275 -3 468 -3L468 82C353 77 307 81 122 77L304 270C401 373 431 428 431 503C431 618 353 689 226 689C154 689 105 669 56 619L39 483L68 483L81 529C97 587 133 612 200 612C286 612 341 558 341 473C341 398 299 324 186 204Z" stroke="rgb(126,211,33)" stroke-opacity="1" stroke-width="0" fill="rgb(126,211,33)" fill-opacity="1"></path></g></g><g><g transform="matrix(1,0,0,1,558.78125,229.66668701171875)"><path transform="matrix(0.017,0,0,-0.017,0,0)" d="M51 726L32 700C87 636 187 526 187 266C187 -10 83 -131 32 -194L51 -215C104 -165 273 -23 273 265C273 542 108 675 51 726Z" stroke="rgb(0,0,0)" stroke-opacity="1" stroke-width="0" fill="rgb(0,0,0)" fill-opacity="1"></path></g></g></g></g><g><g><g><text x="541.6666870117188" y="15.666671752929688" style="white-space:pre;stroke:none;fill:rgb(0,0,0);fill-opacity:1;font-size:13.5px;font-family:Arial, Helvetica, sans-serif;font-weight:400;font-style:normal;dominant-baseline:text-before-edge;text-decoration:none solid rgb(0, 0, 0);">Split 1</text></g></g></g><g><g><g><text x="541.6666870117188" y="29.666671752929688" style="white-space:pre;stroke:none;fill:rgb(0,0,0);fill-opacity:1;font-size:13.5px;font-family:Arial, Helvetica, sans-serif;font-weight:400;font-style:normal;dominant-baseline:text-before-edge;text-decoration:none solid rgb(0, 0, 0);">Split 2</text></g></g></g><g><g><g><text x="541.6666870117188" y="44.66667175292969" style="white-space:pre;stroke:none;fill:rgb(0,0,0);fill-opacity:1;font-size:13.5px;font-family:Arial, Helvetica, sans-serif;font-weight:400;font-style:normal;dominant-baseline:text-before-edge;text-decoration:none solid rgb(0, 0, 0);">Split 3</text></g></g></g></svg>
</svg>
