<svg xmlns="http://www.w3.org/2000/svg" xmlns:xlink="http://www.w3.org/1999/xlink" x="0" y="0" width="661.3333740234375" height="311.3333435058594" style="
        width:661.3333740234375px;
        height:311.3333435058594px;
        background: transparent;
        fill: none;
">
        
        
        <svg xmlns="http://www.w3.org/2000/svg" class="role-diagram-draw-area"><g class="shapes-region" style="stroke: black; fill: none;"><g class="composite-shape" data-amt="diagram/shapes/plot" transform="matrix(1,0,0,1,20,19)"><g><g><g class="test-xgi"><line x1="46.452751159667976" y1="0" x2="46.452751159667976" y2="270" fill="none" stroke="#c3c3c3" stroke-width="0.5"/><line x1="99.16220092773438" y1="0" x2="99.16220092773438" y2="270" fill="none" stroke="#c3c3c3" stroke-width="0.5"/><line x1="151.87165069580078" y1="0" x2="151.87165069580078" y2="270" fill="none" stroke="#c3c3c3" stroke-width="0.5"/><line x1="204.5811004638672" y1="0" x2="204.5811004638672" y2="270" fill="none" stroke="#c3c3c3" stroke-width="0.5"/><line x1="257.2905502319336" y1="0" x2="257.2905502319336" y2="270" fill="none" stroke="#c3c3c3" stroke-width="0.5"/><line x1="310" y1="0" x2="310" y2="270" fill="none" stroke="#c3c3c3" stroke-width="0.5"/><line x1="362.7094497680664" y1="0" x2="362.7094497680664" y2="270" fill="none" stroke="#c3c3c3" stroke-width="0.5"/><line x1="415.4188995361328" y1="0" x2="415.4188995361328" y2="270" fill="none" stroke="#c3c3c3" stroke-width="0.5"/><line x1="468.1283493041992" y1="0" x2="468.1283493041992" y2="270" fill="none" stroke="#c3c3c3" stroke-width="0.5"/><line x1="520.8377990722656" y1="0" x2="520.8377990722656" y2="270" fill="none" stroke="#c3c3c3" stroke-width="0.5"/><line x1="573.547248840332" y1="0" x2="573.547248840332" y2="270" fill="none" stroke="#c3c3c3" stroke-width="0.5"/></g><g class="test-ygi"><line x1="0" y1="220.14603424072266" x2="620" y2="220.14603424072266" fill="none" stroke="#c3c3c3" stroke-width="0.5"/><line x1="0" y1="167.43658447265625" x2="620" y2="167.43658447265625" fill="none" stroke="#c3c3c3" stroke-width="0.5"/><line x1="0" y1="114.72713470458984" x2="620" y2="114.72713470458984" fill="none" stroke="#c3c3c3" stroke-width="0.5"/><line x1="0" y1="62.01768493652344" x2="620" y2="62.01768493652344" fill="none" stroke="#c3c3c3" stroke-width="0.5"/><line x1="0" y1="9.308235168457031" x2="620" y2="9.308235168457031" fill="none" stroke="#c3c3c3" stroke-width="0.5"/></g></g><g><g class="test-xti" style="font-family: Asana-Math, Asana;"><line x1="0" y1="114.72713470458984" x2="616" y2="114.72713470458984" fill="none" stroke="rgb(50,50,50)" stroke-opacity="1" stroke-width="1"/><line x1="46.452751159667976" y1="110.72713470458984" x2="46.452751159667976" y2="118.72713470458984" fill="none" stroke="rgb(50,50,50)" stroke-opacity="1" stroke-width="1"/><line x1="99.16220092773438" y1="110.72713470458984" x2="99.16220092773438" y2="118.72713470458984" fill="none" stroke="rgb(50,50,50)" stroke-opacity="1" stroke-width="1"/><line x1="151.87165069580078" y1="110.72713470458984" x2="151.87165069580078" y2="118.72713470458984" fill="none" stroke="rgb(50,50,50)" stroke-opacity="1" stroke-width="1"/><line x1="204.5811004638672" y1="110.72713470458984" x2="204.5811004638672" y2="118.72713470458984" fill="none" stroke="rgb(50,50,50)" stroke-opacity="1" stroke-width="1"/><line x1="257.2905502319336" y1="110.72713470458984" x2="257.2905502319336" y2="118.72713470458984" fill="none" stroke="rgb(50,50,50)" stroke-opacity="1" stroke-width="1"/><line x1="362.7094497680664" y1="110.72713470458984" x2="362.7094497680664" y2="118.72713470458984" fill="none" stroke="rgb(50,50,50)" stroke-opacity="1" stroke-width="1"/><line x1="415.4188995361328" y1="110.72713470458984" x2="415.4188995361328" y2="118.72713470458984" fill="none" stroke="rgb(50,50,50)" stroke-opacity="1" stroke-width="1"/><line x1="468.1283493041992" y1="110.72713470458984" x2="468.1283493041992" y2="118.72713470458984" fill="none" stroke="rgb(50,50,50)" stroke-opacity="1" stroke-width="1"/><line x1="520.8377990722656" y1="110.72713470458984" x2="520.8377990722656" y2="118.72713470458984" fill="none" stroke="rgb(50,50,50)" stroke-opacity="1" stroke-width="1"/><line x1="573.547248840332" y1="110.72713470458984" x2="573.547248840332" y2="118.72713470458984" fill="none" stroke="rgb(50,50,50)" stroke-opacity="1" stroke-width="1"/><path d="M611,111.12713470458985 L619,114.72713470458984 L611,118.32713470458984 Z" stroke="none" stroke-width="1" fill="rgb(50,50,50)" fill-opacity="1"/></g><g class="test-yti" style="font-family: Asana-Math, Asana;"><line x1="310" y1="4" x2="310" y2="270" fill="none" stroke="rgb(50,50,50)" stroke-opacity="1" stroke-width="1"/><line x1="306" y1="220.14603424072266" x2="314" y2="220.14603424072266" fill="none" stroke="rgb(50,50,50)" stroke-opacity="1" stroke-width="1"/><line x1="306" y1="167.43658447265625" x2="314" y2="167.43658447265625" fill="none" stroke="rgb(50,50,50)" stroke-opacity="1" stroke-width="1"/><line x1="306" y1="62.01768493652344" x2="314" y2="62.01768493652344" fill="none" stroke="rgb(50,50,50)" stroke-opacity="1" stroke-width="1"/><line x1="306" y1="9.308235168457031" x2="314" y2="9.308235168457031" fill="none" stroke="rgb(50,50,50)" stroke-opacity="1" stroke-width="1"/><path d="M306.4,9 L310,1 L313.6,9 Z" stroke="none" stroke-width="1" fill="rgb(50,50,50)" fill-opacity="1"/></g><g class="test-plot-expression"><defs><clipPath id="cpgfosijoxv"><rect x="1" y="1" width="618" height="268"/></clipPath></defs><g clip-path="url(#cpgfosijoxv)"><path d=" M0.00,114.58 L0.56,114.58 L1.13,114.58 L1.69,114.58 L2.26,114.57 L2.82,114.57 L3.38,114.57 L3.95,114.57 L4.51,114.57 L5.08,114.57 L5.64,114.56 L6.21,114.56 L6.77,114.56 L7.33,114.56 L7.90,114.56 L8.46,114.55 L9.03,114.55 L9.59,114.55 L10.15,114.55 L10.72,114.55 L11.28,114.55 L11.85,114.54 L12.41,114.54 L12.98,114.54 L13.54,114.54 L14.10,114.54 L14.67,114.53 L15.23,114.53 L15.80,114.53 L16.36,114.53 L16.92,114.53 L17.49,114.52 L18.05,114.52 L18.62,114.52 L19.18,114.52 L19.75,114.51 L20.31,114.51 L20.87,114.51 L21.44,114.51 L22.00,114.50 L22.57,114.50 L23.13,114.50 L23.69,114.50 L24.26,114.50 L24.82,114.49 L25.39,114.49 L25.95,114.49 L26.52,114.48 L27.08,114.48 L27.64,114.48 L28.21,114.48 L28.77,114.47 L29.34,114.47 L29.90,114.47 L30.46,114.47 L31.03,114.46 L31.59,114.46 L32.16,114.46 L32.72,114.45 L33.28,114.45 L33.85,114.45 L34.41,114.45 L34.98,114.44 L35.54,114.44 L36.11,114.44 L36.67,114.43 L37.23,114.43 L37.80,114.43 L38.36,114.42 L38.93,114.42 L39.49,114.42 L40.05,114.41 L40.62,114.41 L41.18,114.41 L41.75,114.40 L42.31,114.40 L42.88,114.40 L43.44,114.39 L44.00,114.39 L44.57,114.39 L45.13,114.38 L45.70,114.38 L46.26,114.38 L46.82,114.37 L47.39,114.37 L47.95,114.36 L48.52,114.36 L49.08,114.36 L49.65,114.35 L50.21,114.35 L50.77,114.34 L51.34,114.34 L51.90,114.34 L52.47,114.33 L53.03,114.33 L53.59,114.32 L54.16,114.32 L54.72,114.31 L55.29,114.31 L55.85,114.31 L56.41,114.30 L56.98,114.30 L57.54,114.29 L58.11,114.29 L58.67,114.28 L59.24,114.28 L59.80,114.27 L60.36,114.27 L60.93,114.26 L61.49,114.26 L62.06,114.25 L62.62,114.25 L63.18,114.24 L63.75,114.24 L64.31,114.23 L64.88,114.23 L65.44,114.22 L66.01,114.22 L66.57,114.21 L67.13,114.21 L67.70,114.20 L68.26,114.20 L68.83,114.19 L69.39,114.18 L69.95,114.18 L70.52,114.17 L71.08,114.17 L71.65,114.16 L72.21,114.15 L72.78,114.15 L73.34,114.14 L73.90,114.14 L74.47,114.13 L75.03,114.12 L75.60,114.12 L76.16,114.11 L76.72,114.10 L77.29,114.10 L77.85,114.09 L78.42,114.08 L78.98,114.08 L79.55,114.07 L80.11,114.06 L80.67,114.06 L81.24,114.05 L81.80,114.04 L82.37,114.03 L82.93,114.03 L83.49,114.02 L84.06,114.01 L84.62,114.00 L85.19,114.00 L85.75,113.99 L86.31,113.98 L86.88,113.97 L87.44,113.97 L88.01,113.96 L88.57,113.95 L89.14,113.94 L89.70,113.93 L90.26,113.92 L90.83,113.92 L91.39,113.91 L91.96,113.90 L92.52,113.89 L93.08,113.88 L93.65,113.87 L94.21,113.86 L94.78,113.85 L95.34,113.84 L95.91,113.83 L96.47,113.83 L97.03,113.82 L97.60,113.81 L98.16,113.80 L98.73,113.79 L99.29,113.78 L99.85,113.77 L100.42,113.76 L100.98,113.75 L101.55,113.74 L102.11,113.73 L102.68,113.72 L103.24,113.70 L103.80,113.69 L104.37,113.68 L104.93,113.67 L105.50,113.66 L106.06,113.65 L106.62,113.64 L107.19,113.63 L107.75,113.61 L108.32,113.60 L108.88,113.59 L109.44,113.58 L110.01,113.57 L110.57,113.56 L111.14,113.54 L111.70,113.53 L112.27,113.52 L112.83,113.50 L113.39,113.49 L113.96,113.48 L114.52,113.47 L115.09,113.45 L115.65,113.44 L116.21,113.43 L116.78,113.41 L117.34,113.40 L117.91,113.38 L118.47,113.37 L119.04,113.36 L119.60,113.34 L120.16,113.33 L120.73,113.31 L121.29,113.30 L121.86,113.28 L122.42,113.27 L122.98,113.25 L123.55,113.24 L124.11,113.22 L124.68,113.21 L125.24,113.19 L125.81,113.17 L126.37,113.16 L126.93,113.14 L127.50,113.12 L128.06,113.11 L128.63,113.09 L129.19,113.07 L129.75,113.06 L130.32,113.04 L130.88,113.02 L131.45,113.00 L132.01,112.99 L132.58,112.97 L133.14,112.95 L133.70,112.93 L134.27,112.91 L134.83,112.89 L135.40,112.87 L135.96,112.86 L136.52,112.84 L137.09,112.82 L137.65,112.80 L138.22,112.78 L138.78,112.76 L139.34,112.74 L139.91,112.72 L140.47,112.69 L141.04,112.67 L141.60,112.65 L142.17,112.63 L142.73,112.61 L143.29,112.59 L143.86,112.57 L144.42,112.54 L144.99,112.52 L145.55,112.50 L146.11,112.47 L146.68,112.45 L147.24,112.43 L147.81,112.40 L148.37,112.38 L148.94,112.36 L149.50,112.33 L150.06,112.31 L150.63,112.28 L151.19,112.26 L151.76,112.23 L152.32,112.21 L152.88,112.18 L153.45,112.16 L154.01,112.13 L154.58,112.10 L155.14,112.08 L155.71,112.05 L156.27,112.02 L156.83,111.99 L157.40,111.97 L157.96,111.94 L158.53,111.91 L159.09,111.88 L159.65,111.85 L160.22,111.82 L160.78,111.79 L161.35,111.76 L161.91,111.73 L162.47,111.70 L163.04,111.67 L163.60,111.64 L164.17,111.61 L164.73,111.58 L165.30,111.55 L165.86,111.51 L166.42,111.48 L166.99,111.45 L167.55,111.42 L168.12,111.38 L168.68,111.35 L169.24,111.31 L169.81,111.28 L170.37,111.25 L170.94,111.21 L171.50,111.18 L172.07,111.14 L172.63,111.10 L173.19,111.07 L173.76,111.03 L174.32,110.99 L174.89,110.96 L175.45,110.92 L176.01,110.88 L176.58,110.84 L177.14,110.80 L177.71,110.76 L178.27,110.73 L178.84,110.69 L179.40,110.65 L179.96,110.61 L180.53,110.56 L181.09,110.52 L181.66,110.48 L182.22,110.44 L182.78,110.40 L183.35,110.35 L183.91,110.31 L184.48,110.27 L185.04,110.22 L185.61,110.18 L186.17,110.14 L186.73,110.09 L187.30,110.04 L187.86,110.00 L188.43,109.95 L188.99,109.91 L189.55,109.86 L190.12,109.81 L190.68,109.76 L191.25,109.71 L191.81,109.67 L192.37,109.62 L192.94,109.57 L193.50,109.52 L194.07,109.47 L194.63,109.42 L195.20,109.36 L195.76,109.31 L196.32,109.26 L196.89,109.21 L197.45,109.15 L198.02,109.10 L198.58,109.05 L199.14,108.99 L199.71,108.94 L200.27,108.88 L200.84,108.83 L201.40,108.77 L201.97,108.71 L202.53,108.66 L203.09,108.60 L203.66,108.54 L204.22,108.48 L204.79,108.42 L205.35,108.36 L205.91,108.30 L206.48,108.24 L207.04,108.18 L207.61,108.12 L208.17,108.06 L208.74,107.99 L209.30,107.93 L209.86,107.87 L210.43,107.80 L210.99,107.74 L211.56,107.67 L212.12,107.61 L212.68,107.54 L213.25,107.48 L213.81,107.41 L214.38,107.34 L214.94,107.27 L215.51,107.20 L216.07,107.13 L216.63,107.06 L217.20,106.99 L217.76,106.92 L218.33,106.85 L218.89,106.78 L219.45,106.71 L220.02,106.63 L220.58,106.56 L221.15,106.49 L221.71,106.41 L222.27,106.34 L222.84,106.26 L223.40,106.18 L223.97,106.11 L224.53,106.03 L225.10,105.95 L225.66,105.87 L226.22,105.79 L226.79,105.71 L227.35,105.63 L227.92,105.55 L228.48,105.47 L229.04,105.39 L229.61,105.31 L230.17,105.22 L230.74,105.14 L231.30,105.06 L231.87,104.97 L232.43,104.89 L232.99,104.80 L233.56,104.71 L234.12,104.63 L234.69,104.54 L235.25,104.45 L235.81,104.36 L236.38,104.27 L236.94,104.18 L237.51,104.09 L238.07,104.00 L238.64,103.91 L239.20,103.82 L239.76,103.72 L240.33,103.63 L240.89,103.54 L241.46,103.44 L242.02,103.35 L242.58,103.25 L243.15,103.15 L243.71,103.06 L244.28,102.96 L244.84,102.86 L245.40,102.76 L245.97,102.66 L246.53,102.56 L247.10,102.46 L247.66,102.36 L248.23,102.26 L248.79,102.16 L249.35,102.06 L249.92,101.95 L250.48,101.85 L251.05,101.74 L251.61,101.64 L252.17,101.53 L252.74,101.43 L253.30,101.32 L253.87,101.21 L254.43,101.11 L255.00,101.00 L255.56,100.89 L256.12,100.78 L256.69,100.67 L257.25,100.56 L257.82,100.45 L258.38,100.34 L258.94,100.22 L259.51,100.11 L260.07,100.00 L260.64,99.88 L261.20,99.77 L261.77,99.65 L262.33,99.54 L262.89,99.42 L263.46,99.31 L264.02,99.19 L264.59,99.07 L265.15,98.95 L265.71,98.84 L266.28,98.72 L266.84,98.60 L267.41,98.48 L267.97,98.36 L268.54,98.24 L269.10,98.11 L269.66,97.99 L270.23,97.87 L270.79,97.75 L271.36,97.62 L271.92,97.50 L272.48,97.37 L273.05,97.25 L273.61,97.12 L274.18,97.00 L274.74,96.87 L275.30,96.75 L275.87,96.62 L276.43,96.49 L277.00,96.36 L277.56,96.24 L278.13,96.11 L278.69,95.98 L279.25,95.85 L279.82,95.72 L280.38,95.59 L280.95,95.46 L281.51,95.33 L282.07,95.19 L282.64,95.06 L283.20,94.93 L283.77,94.80 L284.33,94.67 L284.90,94.53 L285.46,94.40 L286.02,94.27 L286.59,94.13 L287.15,94.00 L287.72,93.86 L288.28,93.73 L288.84,93.59 L289.41,93.46 L289.97,93.32 L290.54,93.18 L291.10,93.05 L291.67,92.91 L292.23,92.77 L292.79,92.64 L293.36,92.50 L293.92,92.36 L294.49,92.22 L295.05,92.09 L295.61,91.95 L296.18,91.81 L296.74,91.67 L297.31,91.53 L297.87,91.39 L298.43,91.25 L299.00,91.11 L299.56,90.97 L300.13,90.83 L300.69,90.69 L301.26,90.55 L301.82,90.41 L302.38,90.27 L302.95,90.13 L303.51,89.99 L304.08,89.85 L304.64,89.71 L305.20,89.57 L305.77,89.43 L306.33,89.29 L306.90,89.15 L307.46,89.01 L308.03,88.87 L308.59,88.72 L309.15,88.58 L309.72,88.44 L310.28,88.30 L310.85,88.16 L311.41,88.02 L311.97,87.88 L312.54,87.74 L313.10,87.60 L313.67,87.46 L314.23,87.32 L314.80,87.17 L315.36,87.03 L315.92,86.89 L316.49,86.75 L317.05,86.61 L317.62,86.47 L318.18,86.33 L318.74,86.19 L319.31,86.05 L319.87,85.91 L320.44,85.77 L321.00,85.63 L321.57,85.49 L322.13,85.35 L322.69,85.21 L323.26,85.08 L323.82,84.94 L324.39,84.80 L324.95,84.66 L325.51,84.52 L326.08,84.38 L326.64,84.25 L327.21,84.11 L327.77,83.97 L328.33,83.83 L328.90,83.70 L329.46,83.56 L330.03,83.42 L330.59,83.29 L331.16,83.15 L331.72,83.02 L332.28,82.88 L332.85,82.75 L333.41,82.61 L333.98,82.48 L334.54,82.35 L335.10,82.21 L335.67,82.08 L336.23,81.95 L336.80,81.81 L337.36,81.68 L337.93,81.55 L338.49,81.42 L339.05,81.29 L339.62,81.16 L340.18,81.03 L340.75,80.90 L341.31,80.77 L341.87,80.64 L342.44,80.51 L343.00,80.38 L343.57,80.25 L344.13,80.13 L344.70,80.00 L345.26,79.87 L345.82,79.75 L346.39,79.62 L346.95,79.50 L347.52,79.37 L348.08,79.25 L348.64,79.12 L349.21,79.00 L349.77,78.88 L350.34,78.75 L350.90,78.63 L351.46,78.51 L352.03,78.39 L352.59,78.27 L353.16,78.15 L353.72,78.03 L354.29,77.91 L354.85,77.79 L355.41,77.67 L355.98,77.56 L356.54,77.44 L357.11,77.32 L357.67,77.21 L358.23,77.09 L358.80,76.98 L359.36,76.86 L359.93,76.75 L360.49,76.63 L361.06,76.52 L361.62,76.41 L362.18,76.30 L362.75,76.19 L363.31,76.08 L363.88,75.97 L364.44,75.86 L365.00,75.75 L365.57,75.64 L366.13,75.53 L366.70,75.42 L367.26,75.32 L367.83,75.21 L368.39,75.10 L368.95,75.00 L369.52,74.90 L370.08,74.79 L370.65,74.69 L371.21,74.59 L371.77,74.48 L372.34,74.38 L372.90,74.28 L373.47,74.18 L374.03,74.08 L374.60,73.98 L375.16,73.88 L375.72,73.78 L376.29,73.69 L376.85,73.59 L377.42,73.49 L377.98,73.40 L378.54,73.30 L379.11,73.21 L379.67,73.11 L380.24,73.02 L380.80,72.93 L381.36,72.84 L381.93,72.74 L382.49,72.65 L383.06,72.56 L383.62,72.47 L384.19,72.38 L384.75,72.29 L385.31,72.21 L385.88,72.12 L386.44,72.03 L387.01,71.94 L387.57,71.86 L388.13,71.77 L388.70,71.69 L389.26,71.60 L389.83,71.52 L390.39,71.44 L390.96,71.35 L391.52,71.27 L392.08,71.19 L392.65,71.11 L393.21,71.03 L393.78,70.95 L394.34,70.87 L394.90,70.79 L395.47,70.71 L396.03,70.64 L396.60,70.56 L397.16,70.48 L397.73,70.41 L398.29,70.33 L398.85,70.26 L399.42,70.18 L399.98,70.11 L400.55,70.04 L401.11,69.96 L401.67,69.89 L402.24,69.82 L402.80,69.75 L403.37,69.68 L403.93,69.61 L404.49,69.54 L405.06,69.47 L405.62,69.40 L406.19,69.34 L406.75,69.27 L407.32,69.20 L407.88,69.14 L408.44,69.07 L409.01,69.01 L409.57,68.94 L410.14,68.88 L410.70,68.81 L411.26,68.75 L411.83,68.69 L412.39,68.63 L412.96,68.56 L413.52,68.50 L414.09,68.44 L414.65,68.38 L415.21,68.32 L415.78,68.26 L416.34,68.20 L416.91,68.15 L417.47,68.09 L418.03,68.03 L418.60,67.97 L419.16,67.92 L419.73,67.86 L420.29,67.81 L420.86,67.75 L421.42,67.70 L421.98,67.64 L422.55,67.59 L423.11,67.54 L423.68,67.48 L424.24,67.43 L424.80,67.38 L425.37,67.33 L425.93,67.28 L426.50,67.23 L427.06,67.18 L427.63,67.13 L428.19,67.08 L428.75,67.03 L429.32,66.98 L429.88,66.93 L430.45,66.89 L431.01,66.84 L431.57,66.79 L432.14,66.75 L432.70,66.70 L433.27,66.65 L433.83,66.61 L434.39,66.57 L434.96,66.52 L435.52,66.48 L436.09,66.43 L436.65,66.39 L437.22,66.35 L437.78,66.31 L438.34,66.26 L438.91,66.22 L439.47,66.18 L440.04,66.14 L440.60,66.10 L441.16,66.06 L441.73,66.02 L442.29,65.98 L442.86,65.94 L443.42,65.90 L443.99,65.86 L444.55,65.83 L445.11,65.79 L445.68,65.75 L446.24,65.71 L446.81,65.68 L447.37,65.64 L447.93,65.61 L448.50,65.57 L449.06,65.53 L449.63,65.50 L450.19,65.46 L450.76,65.43 L451.32,65.40 L451.88,65.36 L452.45,65.33 L453.01,65.30 L453.58,65.26 L454.14,65.23 L454.70,65.20 L455.27,65.17 L455.83,65.14 L456.40,65.10 L456.96,65.07 L457.53,65.04 L458.09,65.01 L458.65,64.98 L459.22,64.95 L459.78,64.92 L460.35,64.89 L460.91,64.86 L461.47,64.84 L462.04,64.81 L462.60,64.78 L463.17,64.75 L463.73,64.72 L464.29,64.70 L464.86,64.67 L465.42,64.64 L465.99,64.62 L466.55,64.59 L467.12,64.56 L467.68,64.54 L468.24,64.51 L468.81,64.49 L469.37,64.46 L469.94,64.44 L470.50,64.41 L471.06,64.39 L471.63,64.36 L472.19,64.34 L472.76,64.32 L473.32,64.29 L473.89,64.27 L474.45,64.25 L475.01,64.22 L475.58,64.20 L476.14,64.18 L476.71,64.16 L477.27,64.14 L477.83,64.11 L478.40,64.09 L478.96,64.07 L479.53,64.05 L480.09,64.03 L480.66,64.01 L481.22,63.99 L481.78,63.97 L482.35,63.95 L482.91,63.93 L483.48,63.91 L484.04,63.89 L484.60,63.87 L485.17,63.85 L485.73,63.83 L486.30,63.81 L486.86,63.79 L487.42,63.78 L487.99,63.76 L488.55,63.74 L489.12,63.72 L489.68,63.71 L490.25,63.69 L490.81,63.67 L491.37,63.65 L491.94,63.64 L492.50,63.62 L493.07,63.60 L493.63,63.59 L494.19,63.57 L494.76,63.55 L495.32,63.54 L495.89,63.52 L496.45,63.51 L497.02,63.49 L497.58,63.48 L498.14,63.46 L498.71,63.45 L499.27,63.43 L499.84,63.42 L500.40,63.40 L500.96,63.39 L501.53,63.37 L502.09,63.36 L502.66,63.35 L503.22,63.33 L503.79,63.32 L504.35,63.31 L504.91,63.29 L505.48,63.28 L506.04,63.27 L506.61,63.25 L507.17,63.24 L507.73,63.23 L508.30,63.21 L508.86,63.20 L509.43,63.19 L509.99,63.18 L510.56,63.17 L511.12,63.15 L511.68,63.14 L512.25,63.13 L512.81,63.12 L513.38,63.11 L513.94,63.10 L514.50,63.08 L515.07,63.07 L515.63,63.06 L516.20,63.05 L516.76,63.04 L517.32,63.03 L517.89,63.02 L518.45,63.01 L519.02,63.00 L519.58,62.99 L520.15,62.98 L520.71,62.97 L521.27,62.96 L521.84,62.95 L522.40,62.94 L522.97,62.93 L523.53,62.92 L524.09,62.91 L524.66,62.90 L525.22,62.89 L525.79,62.88 L526.35,62.87 L526.92,62.86 L527.48,62.86 L528.04,62.85 L528.61,62.84 L529.17,62.83 L529.74,62.82 L530.30,62.81 L530.86,62.80 L531.43,62.80 L531.99,62.79 L532.56,62.78 L533.12,62.77 L533.69,62.76 L534.25,62.76 L534.81,62.75 L535.38,62.74 L535.94,62.73 L536.51,62.73 L537.07,62.72 L537.63,62.71 L538.20,62.70 L538.76,62.70 L539.33,62.69 L539.89,62.68 L540.45,62.67 L541.02,62.67 L541.58,62.66 L542.15,62.65 L542.71,62.65 L543.28,62.64 L543.84,62.63 L544.40,62.63 L544.97,62.62 L545.53,62.62 L546.10,62.61 L546.66,62.60 L547.22,62.60 L547.79,62.59 L548.35,62.58 L548.92,62.58 L549.48,62.57 L550.05,62.57 L550.61,62.56 L551.17,62.56 L551.74,62.55 L552.30,62.54 L552.87,62.54 L553.43,62.53 L553.99,62.53 L554.56,62.52 L555.12,62.52 L555.69,62.51 L556.25,62.51 L556.82,62.50 L557.38,62.50 L557.94,62.49 L558.51,62.49 L559.07,62.48 L559.64,62.48 L560.20,62.47 L560.76,62.47 L561.33,62.46 L561.89,62.46 L562.46,62.45 L563.02,62.45 L563.59,62.44 L564.15,62.44 L564.71,62.43 L565.28,62.43 L565.84,62.43 L566.41,62.42 L566.97,62.42 L567.53,62.41 L568.10,62.41 L568.66,62.40 L569.23,62.40 L569.79,62.40 L570.35,62.39 L570.92,62.39 L571.48,62.38 L572.05,62.38 L572.61,62.38 L573.18,62.37 L573.74,62.37 L574.30,62.37 L574.87,62.36 L575.43,62.36 L576.00,62.35 L576.56,62.35 L577.12,62.35 L577.69,62.34 L578.25,62.34 L578.82,62.34 L579.38,62.33 L579.95,62.33 L580.51,62.33 L581.07,62.32 L581.64,62.32 L582.20,62.32 L582.77,62.31 L583.33,62.31 L583.89,62.31 L584.46,62.30 L585.02,62.30 L585.59,62.30 L586.15,62.30 L586.72,62.29 L587.28,62.29 L587.84,62.29 L588.41,62.28 L588.97,62.28 L589.54,62.28 L590.10,62.28 L590.66,62.27 L591.23,62.27 L591.79,62.27 L592.36,62.27 L592.92,62.26 L593.48,62.26 L594.05,62.26 L594.61,62.25 L595.18,62.25 L595.74,62.25 L596.31,62.25 L596.87,62.24 L597.43,62.24 L598.00,62.24 L598.56,62.24 L599.13,62.24 L599.69,62.23 L600.25,62.23 L600.82,62.23 L601.38,62.23 L601.95,62.22 L602.51,62.22 L603.08,62.22 L603.64,62.22 L604.20,62.22 L604.77,62.21 L605.33,62.21 L605.90,62.21 L606.46,62.21 L607.02,62.21 L607.59,62.20 L608.15,62.20 L608.72,62.20 L609.28,62.20 L609.85,62.20 L610.41,62.19 L610.97,62.19 L611.54,62.19 L612.10,62.19 L612.67,62.19 L613.23,62.18 L613.79,62.18 L614.36,62.18 L614.92,62.18 L615.49,62.18 L616.05,62.18 L616.62,62.17 L617.18,62.17 L617.74,62.17 L618.31,62.17 L618.87,62.17 L619.44,62.17 L620.00,62.16" style="stroke-width: 2; stroke: rgb(208, 2, 27); stroke-opacity: 1;"/><path d=" M0.00,114.73 L0.56,114.73 L1.13,114.73 L1.69,114.73 L2.26,114.73 L2.82,114.73 L3.38,114.73 L3.95,114.73 L4.51,114.73 L5.08,114.73 L5.64,114.73 L6.21,114.73 L6.77,114.73 L7.33,114.73 L7.90,114.73 L8.46,114.73 L9.03,114.73 L9.59,114.73 L10.15,114.73 L10.72,114.73 L11.28,114.73 L11.85,114.73 L12.41,114.73 L12.98,114.73 L13.54,114.73 L14.10,114.73 L14.67,114.73 L15.23,114.73 L15.80,114.73 L16.36,114.73 L16.92,114.73 L17.49,114.73 L18.05,114.73 L18.62,114.73 L19.18,114.73 L19.75,114.73 L20.31,114.73 L20.87,114.73 L21.44,114.73 L22.00,114.73 L22.57,114.73 L23.13,114.73 L23.69,114.73 L24.26,114.73 L24.82,114.73 L25.39,114.73 L25.95,114.73 L26.52,114.73 L27.08,114.73 L27.64,114.73 L28.21,114.73 L28.77,114.73 L29.34,114.73 L29.90,114.73 L30.46,114.73 L31.03,114.73 L31.59,114.73 L32.16,114.73 L32.72,114.73 L33.28,114.73 L33.85,114.73 L34.41,114.73 L34.98,114.73 L35.54,114.73 L36.11,114.73 L36.67,114.73 L37.23,114.73 L37.80,114.73 L38.36,114.73 L38.93,114.73 L39.49,114.73 L40.05,114.73 L40.62,114.73 L41.18,114.73 L41.75,114.73 L42.31,114.73 L42.88,114.73 L43.44,114.73 L44.00,114.73 L44.57,114.73 L45.13,114.73 L45.70,114.73 L46.26,114.73 L46.82,114.73 L47.39,114.73 L47.95,114.73 L48.52,114.73 L49.08,114.73 L49.65,114.73 L50.21,114.73 L50.77,114.73 L51.34,114.73 L51.90,114.73 L52.47,114.73 L53.03,114.73 L53.59,114.73 L54.16,114.73 L54.72,114.73 L55.29,114.73 L55.85,114.73 L56.41,114.73 L56.98,114.73 L57.54,114.73 L58.11,114.73 L58.67,114.73 L59.24,114.73 L59.80,114.73 L60.36,114.73 L60.93,114.73 L61.49,114.73 L62.06,114.73 L62.62,114.73 L63.18,114.73 L63.75,114.73 L64.31,114.73 L64.88,114.73 L65.44,114.73 L66.01,114.73 L66.57,114.73 L67.13,114.73 L67.70,114.73 L68.26,114.73 L68.83,114.73 L69.39,114.73 L69.95,114.73 L70.52,114.73 L71.08,114.73 L71.65,114.73 L72.21,114.73 L72.78,114.73 L73.34,114.73 L73.90,114.73 L74.47,114.73 L75.03,114.73 L75.60,114.73 L76.16,114.73 L76.72,114.73 L77.29,114.73 L77.85,114.73 L78.42,114.73 L78.98,114.73 L79.55,114.73 L80.11,114.73 L80.67,114.73 L81.24,114.73 L81.80,114.73 L82.37,114.73 L82.93,114.73 L83.49,114.73 L84.06,114.73 L84.62,114.73 L85.19,114.73 L85.75,114.73 L86.31,114.73 L86.88,114.73 L87.44,114.73 L88.01,114.73 L88.57,114.73 L89.14,114.73 L89.70,114.73 L90.26,114.73 L90.83,114.73 L91.39,114.73 L91.96,114.73 L92.52,114.73 L93.08,114.73 L93.65,114.73 L94.21,114.73 L94.78,114.73 L95.34,114.73 L95.91,114.73 L96.47,114.73 L97.03,114.73 L97.60,114.73 L98.16,114.73 L98.73,114.73 L99.29,114.73 L99.85,114.73 L100.42,114.73 L100.98,114.73 L101.55,114.73 L102.11,114.73 L102.68,114.73 L103.24,114.73 L103.80,114.73 L104.37,114.73 L104.93,114.73 L105.50,114.73 L106.06,114.73 L106.62,114.73 L107.19,114.73 L107.75,114.73 L108.32,114.73 L108.88,114.73 L109.44,114.73 L110.01,114.73 L110.57,114.73 L111.14,114.73 L111.70,114.73 L112.27,114.73 L112.83,114.73 L113.39,114.73 L113.96,114.73 L114.52,114.73 L115.09,114.73 L115.65,114.73 L116.21,114.73 L116.78,114.73 L117.34,114.73 L117.91,114.73 L118.47,114.73 L119.04,114.73 L119.60,114.73 L120.16,114.73 L120.73,114.73 L121.29,114.73 L121.86,114.73 L122.42,114.73 L122.98,114.73 L123.55,114.73 L124.11,114.73 L124.68,114.73 L125.24,114.73 L125.81,114.73 L126.37,114.73 L126.93,114.73 L127.50,114.73 L128.06,114.73 L128.63,114.73 L129.19,114.73 L129.75,114.73 L130.32,114.73 L130.88,114.73 L131.45,114.73 L132.01,114.73 L132.58,114.73 L133.14,114.73 L133.70,114.73 L134.27,114.73 L134.83,114.73 L135.40,114.73 L135.96,114.73 L136.52,114.73 L137.09,114.73 L137.65,114.73 L138.22,114.73 L138.78,114.73 L139.34,114.73 L139.91,114.73 L140.47,114.73 L141.04,114.73 L141.60,114.73 L142.17,114.73 L142.73,114.73 L143.29,114.73 L143.86,114.73 L144.42,114.73 L144.99,114.73 L145.55,114.73 L146.11,114.73 L146.68,114.73 L147.24,114.73 L147.81,114.73 L148.37,114.73 L148.94,114.73 L149.50,114.73 L150.06,114.73 L150.63,114.73 L151.19,114.73 L151.76,114.73 L152.32,114.73 L152.88,114.73 L153.45,114.73 L154.01,114.73 L154.58,114.73 L155.14,114.73 L155.71,114.73 L156.27,114.73 L156.83,114.73 L157.40,114.73 L157.96,114.73 L158.53,114.73 L159.09,114.73 L159.65,114.73 L160.22,114.73 L160.78,114.73 L161.35,114.73 L161.91,114.73 L162.47,114.73 L163.04,114.73 L163.60,114.73 L164.17,114.73 L164.73,114.73 L165.30,114.73 L165.86,114.73 L166.42,114.73 L166.99,114.73 L167.55,114.73 L168.12,114.73 L168.68,114.73 L169.24,114.73 L169.81,114.73 L170.37,114.73 L170.94,114.73 L171.50,114.73 L172.07,114.73 L172.63,114.73 L173.19,114.73 L173.76,114.73 L174.32,114.73 L174.89,114.73 L175.45,114.73 L176.01,114.73 L176.58,114.73 L177.14,114.73 L177.71,114.73 L178.27,114.73 L178.84,114.73 L179.40,114.73 L179.96,114.73 L180.53,114.73 L181.09,114.73 L181.66,114.73 L182.22,114.73 L182.78,114.73 L183.35,114.73 L183.91,114.73 L184.48,114.73 L185.04,114.73 L185.61,114.73 L186.17,114.73 L186.73,114.73 L187.30,114.73 L187.86,114.73 L188.43,114.73 L188.99,114.73 L189.55,114.73 L190.12,114.73 L190.68,114.73 L191.25,114.73 L191.81,114.73 L192.37,114.73 L192.94,114.73 L193.50,114.73 L194.07,114.73 L194.63,114.73 L195.20,114.73 L195.76,114.73 L196.32,114.73 L196.89,114.73 L197.45,114.73 L198.02,114.73 L198.58,114.73 L199.14,114.73 L199.71,114.73 L200.27,114.73 L200.84,114.73 L201.40,114.73 L201.97,114.73 L202.53,114.73 L203.09,114.73 L203.66,114.73 L204.22,114.73 L204.79,114.73 L205.35,114.73 L205.91,114.73 L206.48,114.73 L207.04,114.73 L207.61,114.73 L208.17,114.73 L208.74,114.73 L209.30,114.73 L209.86,114.73 L210.43,114.73 L210.99,114.73 L211.56,114.73 L212.12,114.73 L212.68,114.73 L213.25,114.73 L213.81,114.73 L214.38,114.73 L214.94,114.73 L215.51,114.73 L216.07,114.73 L216.63,114.73 L217.20,114.73 L217.76,114.73 L218.33,114.73 L218.89,114.73 L219.45,114.73 L220.02,114.73 L220.58,114.73 L221.15,114.73 L221.71,114.73 L222.27,114.73 L222.84,114.73 L223.40,114.73 L223.97,114.73 L224.53,114.73 L225.10,114.73 L225.66,114.73 L226.22,114.73 L226.79,114.73 L227.35,114.73 L227.92,114.73 L228.48,114.73 L229.04,114.73 L229.61,114.73 L230.17,114.73 L230.74,114.73 L231.30,114.73 L231.87,114.73 L232.43,114.73 L232.99,114.73 L233.56,114.73 L234.12,114.73 L234.69,114.73 L235.25,114.73 L235.81,114.73 L236.38,114.73 L236.94,114.73 L237.51,114.73 L238.07,114.73 L238.64,114.73 L239.20,114.73 L239.76,114.73 L240.33,114.73 L240.89,114.73 L241.46,114.73 L242.02,114.73 L242.58,114.73 L243.15,114.73 L243.71,114.73 L244.28,114.73 L244.84,114.73 L245.40,114.73 L245.97,114.73 L246.53,114.73 L247.10,114.73 L247.66,114.73 L248.23,114.73 L248.79,114.73 L249.35,114.73 L249.92,114.73 L250.48,114.73 L251.05,114.73 L251.61,114.73 L252.17,114.73 L252.74,114.73 L253.30,114.73 L253.87,114.73 L254.43,114.73 L255.00,114.73 L255.56,114.73 L256.12,114.73 L256.69,114.73 L257.25,114.72 L257.82,114.72 L258.38,114.72 L258.94,114.72 L259.51,114.72 L260.07,114.72 L260.64,114.72 L261.20,114.72 L261.77,114.72 L262.33,114.72 L262.89,114.72 L263.46,114.72 L264.02,114.72 L264.59,114.72 L265.15,114.72 L265.71,114.72 L266.28,114.71 L266.84,114.71 L267.41,114.71 L267.97,114.71 L268.54,114.71 L269.10,114.70 L269.66,114.70 L270.23,114.70 L270.79,114.70 L271.36,114.69 L271.92,114.69 L272.48,114.68 L273.05,114.68 L273.61,114.67 L274.18,114.67 L274.74,114.66 L275.30,114.65 L275.87,114.65 L276.43,114.64 L277.00,114.63 L277.56,114.62 L278.13,114.60 L278.69,114.59 L279.25,114.57 L279.82,114.56 L280.38,114.54 L280.95,114.52 L281.51,114.49 L282.07,114.46 L282.64,114.44 L283.20,114.40 L283.77,114.37 L284.33,114.33 L284.90,114.28 L285.46,114.23 L286.02,114.18 L286.59,114.11 L287.15,114.05 L287.72,113.97 L288.28,113.89 L288.84,113.79 L289.41,113.69 L289.97,113.57 L290.54,113.45 L291.10,113.31 L291.67,113.15 L292.23,112.98 L292.79,112.79 L293.36,112.58 L293.92,112.34 L294.49,112.09 L295.05,111.81 L295.61,111.50 L296.18,111.16 L296.74,110.78 L297.31,110.38 L297.87,109.93 L298.43,109.44 L299.00,108.91 L299.56,108.33 L300.13,107.71 L300.69,107.03 L301.26,106.30 L301.82,105.51 L302.38,104.67 L302.95,103.77 L303.51,102.81 L304.08,101.80 L304.64,100.72 L305.20,99.60 L305.77,98.42 L306.33,97.19 L306.90,95.91 L307.46,94.60 L308.03,93.25 L308.59,91.88 L309.15,90.48 L309.72,89.08 L310.28,87.67 L310.85,86.26 L311.41,84.87 L311.97,83.49 L312.54,82.15 L313.10,80.83 L313.67,79.56 L314.23,78.33 L314.80,77.15 L315.36,76.02 L315.92,74.95 L316.49,73.93 L317.05,72.97 L317.62,72.07 L318.18,71.23 L318.74,70.45 L319.31,69.72 L319.87,69.04 L320.44,68.41 L321.00,67.83 L321.57,67.30 L322.13,66.82 L322.69,66.37 L323.26,65.96 L323.82,65.59 L324.39,65.25 L324.95,64.94 L325.51,64.66 L326.08,64.40 L326.64,64.17 L327.21,63.96 L327.77,63.77 L328.33,63.60 L328.90,63.44 L329.46,63.30 L330.03,63.17 L330.59,63.06 L331.16,62.95 L331.72,62.86 L332.28,62.78 L332.85,62.70 L333.41,62.63 L333.98,62.57 L334.54,62.51 L335.10,62.46 L335.67,62.42 L336.23,62.38 L336.80,62.34 L337.36,62.31 L337.93,62.28 L338.49,62.25 L339.05,62.23 L339.62,62.21 L340.18,62.19 L340.75,62.17 L341.31,62.16 L341.87,62.14 L342.44,62.13 L343.00,62.12 L343.57,62.11 L344.13,62.10 L344.70,62.09 L345.26,62.08 L345.82,62.08 L346.39,62.07 L346.95,62.07 L347.52,62.06 L348.08,62.06 L348.64,62.05 L349.21,62.05 L349.77,62.05 L350.34,62.04 L350.90,62.04 L351.46,62.04 L352.03,62.04 L352.59,62.03 L353.16,62.03 L353.72,62.03 L354.29,62.03 L354.85,62.03 L355.41,62.03 L355.98,62.03 L356.54,62.03 L357.11,62.02 L357.67,62.02 L358.23,62.02 L358.80,62.02 L359.36,62.02 L359.93,62.02 L360.49,62.02 L361.06,62.02 L361.62,62.02 L362.18,62.02 L362.75,62.02 L363.31,62.02 L363.88,62.02 L364.44,62.02 L365.00,62.02 L365.57,62.02 L366.13,62.02 L366.70,62.02 L367.26,62.02 L367.83,62.02 L368.39,62.02 L368.95,62.02 L369.52,62.02 L370.08,62.02 L370.65,62.02 L371.21,62.02 L371.77,62.02 L372.34,62.02 L372.90,62.02 L373.47,62.02 L374.03,62.02 L374.60,62.02 L375.16,62.02 L375.72,62.02 L376.29,62.02 L376.85,62.02 L377.42,62.02 L377.98,62.02 L378.54,62.02 L379.11,62.02 L379.67,62.02 L380.24,62.02 L380.80,62.02 L381.36,62.02 L381.93,62.02 L382.49,62.02 L383.06,62.02 L383.62,62.02 L384.19,62.02 L384.75,62.02 L385.31,62.02 L385.88,62.02 L386.44,62.02 L387.01,62.02 L387.57,62.02 L388.13,62.02 L388.70,62.02 L389.26,62.02 L389.83,62.02 L390.39,62.02 L390.96,62.02 L391.52,62.02 L392.08,62.02 L392.65,62.02 L393.21,62.02 L393.78,62.02 L394.34,62.02 L394.90,62.02 L395.47,62.02 L396.03,62.02 L396.60,62.02 L397.16,62.02 L397.73,62.02 L398.29,62.02 L398.85,62.02 L399.42,62.02 L399.98,62.02 L400.55,62.02 L401.11,62.02 L401.67,62.02 L402.24,62.02 L402.80,62.02 L403.37,62.02 L403.93,62.02 L404.49,62.02 L405.06,62.02 L405.62,62.02 L406.19,62.02 L406.75,62.02 L407.32,62.02 L407.88,62.02 L408.44,62.02 L409.01,62.02 L409.57,62.02 L410.14,62.02 L410.70,62.02 L411.26,62.02 L411.83,62.02 L412.39,62.02 L412.96,62.02 L413.52,62.02 L414.09,62.02 L414.65,62.02 L415.21,62.02 L415.78,62.02 L416.34,62.02 L416.91,62.02 L417.47,62.02 L418.03,62.02 L418.60,62.02 L419.16,62.02 L419.73,62.02 L420.29,62.02 L420.86,62.02 L421.42,62.02 L421.98,62.02 L422.55,62.02 L423.11,62.02 L423.68,62.02 L424.24,62.02 L424.80,62.02 L425.37,62.02 L425.93,62.02 L426.50,62.02 L427.06,62.02 L427.63,62.02 L428.19,62.02 L428.75,62.02 L429.32,62.02 L429.88,62.02 L430.45,62.02 L431.01,62.02 L431.57,62.02 L432.14,62.02 L432.70,62.02 L433.27,62.02 L433.83,62.02 L434.39,62.02 L434.96,62.02 L435.52,62.02 L436.09,62.02 L436.65,62.02 L437.22,62.02 L437.78,62.02 L438.34,62.02 L438.91,62.02 L439.47,62.02 L440.04,62.02 L440.60,62.02 L441.16,62.02 L441.73,62.02 L442.29,62.02 L442.86,62.02 L443.42,62.02 L443.99,62.02 L444.55,62.02 L445.11,62.02 L445.68,62.02 L446.24,62.02 L446.81,62.02 L447.37,62.02 L447.93,62.02 L448.50,62.02 L449.06,62.02 L449.63,62.02 L450.19,62.02 L450.76,62.02 L451.32,62.02 L451.88,62.02 L452.45,62.02 L453.01,62.02 L453.58,62.02 L454.14,62.02 L454.70,62.02 L455.27,62.02 L455.83,62.02 L456.40,62.02 L456.96,62.02 L457.53,62.02 L458.09,62.02 L458.65,62.02 L459.22,62.02 L459.78,62.02 L460.35,62.02 L460.91,62.02 L461.47,62.02 L462.04,62.02 L462.60,62.02 L463.17,62.02 L463.73,62.02 L464.29,62.02 L464.86,62.02 L465.42,62.02 L465.99,62.02 L466.55,62.02 L467.12,62.02 L467.68,62.02 L468.24,62.02 L468.81,62.02 L469.37,62.02 L469.94,62.02 L470.50,62.02 L471.06,62.02 L471.63,62.02 L472.19,62.02 L472.76,62.02 L473.32,62.02 L473.89,62.02 L474.45,62.02 L475.01,62.02 L475.58,62.02 L476.14,62.02 L476.71,62.02 L477.27,62.02 L477.83,62.02 L478.40,62.02 L478.96,62.02 L479.53,62.02 L480.09,62.02 L480.66,62.02 L481.22,62.02 L481.78,62.02 L482.35,62.02 L482.91,62.02 L483.48,62.02 L484.04,62.02 L484.60,62.02 L485.17,62.02 L485.73,62.02 L486.30,62.02 L486.86,62.02 L487.42,62.02 L487.99,62.02 L488.55,62.02 L489.12,62.02 L489.68,62.02 L490.25,62.02 L490.81,62.02 L491.37,62.02 L491.94,62.02 L492.50,62.02 L493.07,62.02 L493.63,62.02 L494.19,62.02 L494.76,62.02 L495.32,62.02 L495.89,62.02 L496.45,62.02 L497.02,62.02 L497.58,62.02 L498.14,62.02 L498.71,62.02 L499.27,62.02 L499.84,62.02 L500.40,62.02 L500.96,62.02 L501.53,62.02 L502.09,62.02 L502.66,62.02 L503.22,62.02 L503.79,62.02 L504.35,62.02 L504.91,62.02 L505.48,62.02 L506.04,62.02 L506.61,62.02 L507.17,62.02 L507.73,62.02 L508.30,62.02 L508.86,62.02 L509.43,62.02 L509.99,62.02 L510.56,62.02 L511.12,62.02 L511.68,62.02 L512.25,62.02 L512.81,62.02 L513.38,62.02 L513.94,62.02 L514.50,62.02 L515.07,62.02 L515.63,62.02 L516.20,62.02 L516.76,62.02 L517.32,62.02 L517.89,62.02 L518.45,62.02 L519.02,62.02 L519.58,62.02 L520.15,62.02 L520.71,62.02 L521.27,62.02 L521.84,62.02 L522.40,62.02 L522.97,62.02 L523.53,62.02 L524.09,62.02 L524.66,62.02 L525.22,62.02 L525.79,62.02 L526.35,62.02 L526.92,62.02 L527.48,62.02 L528.04,62.02 L528.61,62.02 L529.17,62.02 L529.74,62.02 L530.30,62.02 L530.86,62.02 L531.43,62.02 L531.99,62.02 L532.56,62.02 L533.12,62.02 L533.69,62.02 L534.25,62.02 L534.81,62.02 L535.38,62.02 L535.94,62.02 L536.51,62.02 L537.07,62.02 L537.63,62.02 L538.20,62.02 L538.76,62.02 L539.33,62.02 L539.89,62.02 L540.45,62.02 L541.02,62.02 L541.58,62.02 L542.15,62.02 L542.71,62.02 L543.28,62.02 L543.84,62.02 L544.40,62.02 L544.97,62.02 L545.53,62.02 L546.10,62.02 L546.66,62.02 L547.22,62.02 L547.79,62.02 L548.35,62.02 L548.92,62.02 L549.48,62.02 L550.05,62.02 L550.61,62.02 L551.17,62.02 L551.74,62.02 L552.30,62.02 L552.87,62.02 L553.43,62.02 L553.99,62.02 L554.56,62.02 L555.12,62.02 L555.69,62.02 L556.25,62.02 L556.82,62.02 L557.38,62.02 L557.94,62.02 L558.51,62.02 L559.07,62.02 L559.64,62.02 L560.20,62.02 L560.76,62.02 L561.33,62.02 L561.89,62.02 L562.46,62.02 L563.02,62.02 L563.59,62.02 L564.15,62.02 L564.71,62.02 L565.28,62.02 L565.84,62.02 L566.41,62.02 L566.97,62.02 L567.53,62.02 L568.10,62.02 L568.66,62.02 L569.23,62.02 L569.79,62.02 L570.35,62.02 L570.92,62.02 L571.48,62.02 L572.05,62.02 L572.61,62.02 L573.18,62.02 L573.74,62.02 L574.30,62.02 L574.87,62.02 L575.43,62.02 L576.00,62.02 L576.56,62.02 L577.12,62.02 L577.69,62.02 L578.25,62.02 L578.82,62.02 L579.38,62.02 L579.95,62.02 L580.51,62.02 L581.07,62.02 L581.64,62.02 L582.20,62.02 L582.77,62.02 L583.33,62.02 L583.89,62.02 L584.46,62.02 L585.02,62.02 L585.59,62.02 L586.15,62.02 L586.72,62.02 L587.28,62.02 L587.84,62.02 L588.41,62.02 L588.97,62.02 L589.54,62.02 L590.10,62.02 L590.66,62.02 L591.23,62.02 L591.79,62.02 L592.36,62.02 L592.92,62.02 L593.48,62.02 L594.05,62.02 L594.61,62.02 L595.18,62.02 L595.74,62.02 L596.31,62.02 L596.87,62.02 L597.43,62.02 L598.00,62.02 L598.56,62.02 L599.13,62.02 L599.69,62.02 L600.25,62.02 L600.82,62.02 L601.38,62.02 L601.95,62.02 L602.51,62.02 L603.08,62.02 L603.64,62.02 L604.20,62.02 L604.77,62.02 L605.33,62.02 L605.90,62.02 L606.46,62.02 L607.02,62.02 L607.59,62.02 L608.15,62.02 L608.72,62.02 L609.28,62.02 L609.85,62.02 L610.41,62.02 L610.97,62.02 L611.54,62.02 L612.10,62.02 L612.67,62.02 L613.23,62.02 L613.79,62.02 L614.36,62.02 L614.92,62.02 L615.49,62.02 L616.05,62.02 L616.62,62.02 L617.18,62.02 L617.74,62.02 L618.31,62.02 L618.87,62.02 L619.44,62.02 L620.00,62.02" style="stroke-width: 2; stroke: rgb(126, 211, 33); stroke-opacity: 1;"/><path d=" M0.00,113.66 L0.56,113.65 L1.13,113.64 L1.69,113.63 L2.26,113.62 L2.82,113.60 L3.38,113.59 L3.95,113.58 L4.51,113.57 L5.08,113.56 L5.64,113.54 L6.21,113.53 L6.77,113.52 L7.33,113.51 L7.90,113.49 L8.46,113.48 L9.03,113.47 L9.59,113.45 L10.15,113.44 L10.72,113.43 L11.28,113.41 L11.85,113.40 L12.41,113.39 L12.98,113.37 L13.54,113.36 L14.10,113.34 L14.67,113.33 L15.23,113.31 L15.80,113.30 L16.36,113.28 L16.92,113.27 L17.49,113.25 L18.05,113.24 L18.62,113.22 L19.18,113.21 L19.75,113.19 L20.31,113.18 L20.87,113.16 L21.44,113.14 L22.00,113.13 L22.57,113.11 L23.13,113.09 L23.69,113.08 L24.26,113.06 L24.82,113.04 L25.39,113.02 L25.95,113.01 L26.52,112.99 L27.08,112.97 L27.64,112.95 L28.21,112.93 L28.77,112.92 L29.34,112.90 L29.90,112.88 L30.46,112.86 L31.03,112.84 L31.59,112.82 L32.16,112.80 L32.72,112.78 L33.28,112.76 L33.85,112.74 L34.41,112.72 L34.98,112.70 L35.54,112.68 L36.11,112.66 L36.67,112.63 L37.23,112.61 L37.80,112.59 L38.36,112.57 L38.93,112.55 L39.49,112.52 L40.05,112.50 L40.62,112.48 L41.18,112.45 L41.75,112.43 L42.31,112.41 L42.88,112.38 L43.44,112.36 L44.00,112.34 L44.57,112.31 L45.13,112.29 L45.70,112.26 L46.26,112.24 L46.82,112.21 L47.39,112.18 L47.95,112.16 L48.52,112.13 L49.08,112.11 L49.65,112.08 L50.21,112.05 L50.77,112.02 L51.34,112.00 L51.90,111.97 L52.47,111.94 L53.03,111.91 L53.59,111.88 L54.16,111.86 L54.72,111.83 L55.29,111.80 L55.85,111.77 L56.41,111.74 L56.98,111.71 L57.54,111.68 L58.11,111.64 L58.67,111.61 L59.24,111.58 L59.80,111.55 L60.36,111.52 L60.93,111.49 L61.49,111.45 L62.06,111.42 L62.62,111.39 L63.18,111.35 L63.75,111.32 L64.31,111.28 L64.88,111.25 L65.44,111.22 L66.01,111.18 L66.57,111.14 L67.13,111.11 L67.70,111.07 L68.26,111.04 L68.83,111.00 L69.39,110.96 L69.95,110.92 L70.52,110.89 L71.08,110.85 L71.65,110.81 L72.21,110.77 L72.78,110.73 L73.34,110.69 L73.90,110.65 L74.47,110.61 L75.03,110.57 L75.60,110.53 L76.16,110.49 L76.72,110.45 L77.29,110.40 L77.85,110.36 L78.42,110.32 L78.98,110.27 L79.55,110.23 L80.11,110.19 L80.67,110.14 L81.24,110.10 L81.80,110.05 L82.37,110.00 L82.93,109.96 L83.49,109.91 L84.06,109.87 L84.62,109.82 L85.19,109.77 L85.75,109.72 L86.31,109.67 L86.88,109.62 L87.44,109.57 L88.01,109.52 L88.57,109.47 L89.14,109.42 L89.70,109.37 L90.26,109.32 L90.83,109.27 L91.39,109.22 L91.96,109.16 L92.52,109.11 L93.08,109.05 L93.65,109.00 L94.21,108.95 L94.78,108.89 L95.34,108.83 L95.91,108.78 L96.47,108.72 L97.03,108.66 L97.60,108.61 L98.16,108.55 L98.73,108.49 L99.29,108.43 L99.85,108.37 L100.42,108.31 L100.98,108.25 L101.55,108.19 L102.11,108.13 L102.68,108.07 L103.24,108.00 L103.80,107.94 L104.37,107.88 L104.93,107.81 L105.50,107.75 L106.06,107.68 L106.62,107.62 L107.19,107.55 L107.75,107.48 L108.32,107.42 L108.88,107.35 L109.44,107.28 L110.01,107.21 L110.57,107.14 L111.14,107.07 L111.70,107.00 L112.27,106.93 L112.83,106.86 L113.39,106.79 L113.96,106.72 L114.52,106.64 L115.09,106.57 L115.65,106.50 L116.21,106.42 L116.78,106.35 L117.34,106.27 L117.91,106.19 L118.47,106.12 L119.04,106.04 L119.60,105.96 L120.16,105.88 L120.73,105.81 L121.29,105.73 L121.86,105.65 L122.42,105.56 L122.98,105.48 L123.55,105.40 L124.11,105.32 L124.68,105.24 L125.24,105.15 L125.81,105.07 L126.37,104.98 L126.93,104.90 L127.50,104.81 L128.06,104.73 L128.63,104.64 L129.19,104.55 L129.75,104.46 L130.32,104.37 L130.88,104.29 L131.45,104.20 L132.01,104.10 L132.58,104.01 L133.14,103.92 L133.70,103.83 L134.27,103.74 L134.83,103.64 L135.40,103.55 L135.96,103.46 L136.52,103.36 L137.09,103.26 L137.65,103.17 L138.22,103.07 L138.78,102.97 L139.34,102.88 L139.91,102.78 L140.47,102.68 L141.04,102.58 L141.60,102.48 L142.17,102.38 L142.73,102.28 L143.29,102.17 L143.86,102.07 L144.42,101.97 L144.99,101.86 L145.55,101.76 L146.11,101.65 L146.68,101.55 L147.24,101.44 L147.81,101.34 L148.37,101.23 L148.94,101.12 L149.50,101.01 L150.06,100.90 L150.63,100.79 L151.19,100.68 L151.76,100.57 L152.32,100.46 L152.88,100.35 L153.45,100.24 L154.01,100.13 L154.58,100.01 L155.14,99.90 L155.71,99.79 L156.27,99.67 L156.83,99.55 L157.40,99.44 L157.96,99.32 L158.53,99.21 L159.09,99.09 L159.65,98.97 L160.22,98.85 L160.78,98.73 L161.35,98.61 L161.91,98.49 L162.47,98.37 L163.04,98.25 L163.60,98.13 L164.17,98.01 L164.73,97.89 L165.30,97.76 L165.86,97.64 L166.42,97.52 L166.99,97.39 L167.55,97.27 L168.12,97.14 L168.68,97.02 L169.24,96.89 L169.81,96.76 L170.37,96.64 L170.94,96.51 L171.50,96.38 L172.07,96.25 L172.63,96.12 L173.19,96.00 L173.76,95.87 L174.32,95.74 L174.89,95.61 L175.45,95.48 L176.01,95.34 L176.58,95.21 L177.14,95.08 L177.71,94.95 L178.27,94.82 L178.84,94.68 L179.40,94.55 L179.96,94.42 L180.53,94.28 L181.09,94.15 L181.66,94.02 L182.22,93.88 L182.78,93.75 L183.35,93.61 L183.91,93.47 L184.48,93.34 L185.04,93.20 L185.61,93.07 L186.17,92.93 L186.73,92.79 L187.30,92.65 L187.86,92.52 L188.43,92.38 L188.99,92.24 L189.55,92.10 L190.12,91.97 L190.68,91.83 L191.25,91.69 L191.81,91.55 L192.37,91.41 L192.94,91.27 L193.50,91.13 L194.07,90.99 L194.63,90.85 L195.20,90.71 L195.76,90.57 L196.32,90.43 L196.89,90.29 L197.45,90.15 L198.02,90.01 L198.58,89.87 L199.14,89.73 L199.71,89.59 L200.27,89.45 L200.84,89.31 L201.40,89.17 L201.97,89.03 L202.53,88.89 L203.09,88.74 L203.66,88.60 L204.22,88.46 L204.79,88.32 L205.35,88.18 L205.91,88.04 L206.48,87.90 L207.04,87.76 L207.61,87.62 L208.17,87.48 L208.74,87.33 L209.30,87.19 L209.86,87.05 L210.43,86.91 L210.99,86.77 L211.56,86.63 L212.12,86.49 L212.68,86.35 L213.25,86.21 L213.81,86.07 L214.38,85.93 L214.94,85.79 L215.51,85.65 L216.07,85.51 L216.63,85.37 L217.20,85.23 L217.76,85.09 L218.33,84.96 L218.89,84.82 L219.45,84.68 L220.02,84.54 L220.58,84.40 L221.15,84.26 L221.71,84.13 L222.27,83.99 L222.84,83.85 L223.40,83.72 L223.97,83.58 L224.53,83.44 L225.10,83.31 L225.66,83.17 L226.22,83.04 L226.79,82.90 L227.35,82.77 L227.92,82.63 L228.48,82.50 L229.04,82.36 L229.61,82.23 L230.17,82.10 L230.74,81.96 L231.30,81.83 L231.87,81.70 L232.43,81.57 L232.99,81.44 L233.56,81.31 L234.12,81.17 L234.69,81.04 L235.25,80.91 L235.81,80.78 L236.38,80.66 L236.94,80.53 L237.51,80.40 L238.07,80.27 L238.64,80.14 L239.20,80.02 L239.76,79.89 L240.33,79.76 L240.89,79.64 L241.46,79.51 L242.02,79.39 L242.58,79.26 L243.15,79.14 L243.71,79.02 L244.28,78.89 L244.84,78.77 L245.40,78.65 L245.97,78.53 L246.53,78.41 L247.10,78.28 L247.66,78.16 L248.23,78.04 L248.79,77.93 L249.35,77.81 L249.92,77.69 L250.48,77.57 L251.05,77.45 L251.61,77.34 L252.17,77.22 L252.74,77.11 L253.30,76.99 L253.87,76.88 L254.43,76.76 L255.00,76.65 L255.56,76.54 L256.12,76.42 L256.69,76.31 L257.25,76.20 L257.82,76.09 L258.38,75.98 L258.94,75.87 L259.51,75.76 L260.07,75.65 L260.64,75.55 L261.20,75.44 L261.77,75.33 L262.33,75.22 L262.89,75.12 L263.46,75.01 L264.02,74.91 L264.59,74.81 L265.15,74.70 L265.71,74.60 L266.28,74.50 L266.84,74.40 L267.41,74.29 L267.97,74.19 L268.54,74.09 L269.10,73.99 L269.66,73.90 L270.23,73.80 L270.79,73.70 L271.36,73.60 L271.92,73.51 L272.48,73.41 L273.05,73.32 L273.61,73.22 L274.18,73.13 L274.74,73.03 L275.30,72.94 L275.87,72.85 L276.43,72.76 L277.00,72.66 L277.56,72.57 L278.13,72.48 L278.69,72.39 L279.25,72.31 L279.82,72.22 L280.38,72.13 L280.95,72.04 L281.51,71.96 L282.07,71.87 L282.64,71.78 L283.20,71.70 L283.77,71.62 L284.33,71.53 L284.90,71.45 L285.46,71.37 L286.02,71.28 L286.59,71.20 L287.15,71.12 L287.72,71.04 L288.28,70.96 L288.84,70.88 L289.41,70.80 L289.97,70.73 L290.54,70.65 L291.10,70.57 L291.67,70.49 L292.23,70.42 L292.79,70.34 L293.36,70.27 L293.92,70.19 L294.49,70.12 L295.05,70.05 L295.61,69.97 L296.18,69.90 L296.74,69.83 L297.31,69.76 L297.87,69.69 L298.43,69.62 L299.00,69.55 L299.56,69.48 L300.13,69.41 L300.69,69.35 L301.26,69.28 L301.82,69.21 L302.38,69.15 L302.95,69.08 L303.51,69.01 L304.08,68.95 L304.64,68.89 L305.20,68.82 L305.77,68.76 L306.33,68.70 L306.90,68.63 L307.46,68.57 L308.03,68.51 L308.59,68.45 L309.15,68.39 L309.72,68.33 L310.28,68.27 L310.85,68.21 L311.41,68.15 L311.97,68.10 L312.54,68.04 L313.10,67.98 L313.67,67.93 L314.23,67.87 L314.80,67.81 L315.36,67.76 L315.92,67.70 L316.49,67.65 L317.05,67.60 L317.62,67.54 L318.18,67.49 L318.74,67.44 L319.31,67.39 L319.87,67.34 L320.44,67.28 L321.00,67.23 L321.57,67.18 L322.13,67.13 L322.69,67.09 L323.26,67.04 L323.82,66.99 L324.39,66.94 L324.95,66.89 L325.51,66.85 L326.08,66.80 L326.64,66.75 L327.21,66.71 L327.77,66.66 L328.33,66.62 L328.90,66.57 L329.46,66.53 L330.03,66.48 L330.59,66.44 L331.16,66.40 L331.72,66.35 L332.28,66.31 L332.85,66.27 L333.41,66.23 L333.98,66.19 L334.54,66.15 L335.10,66.10 L335.67,66.06 L336.23,66.02 L336.80,65.99 L337.36,65.95 L337.93,65.91 L338.49,65.87 L339.05,65.83 L339.62,65.79 L340.18,65.76 L340.75,65.72 L341.31,65.68 L341.87,65.65 L342.44,65.61 L343.00,65.57 L343.57,65.54 L344.13,65.50 L344.70,65.47 L345.26,65.43 L345.82,65.40 L346.39,65.37 L346.95,65.33 L347.52,65.30 L348.08,65.27 L348.64,65.24 L349.21,65.20 L349.77,65.17 L350.34,65.14 L350.90,65.11 L351.46,65.08 L352.03,65.05 L352.59,65.02 L353.16,64.99 L353.72,64.96 L354.29,64.93 L354.85,64.90 L355.41,64.87 L355.98,64.84 L356.54,64.81 L357.11,64.78 L357.67,64.76 L358.23,64.73 L358.80,64.70 L359.36,64.67 L359.93,64.65 L360.49,64.62 L361.06,64.59 L361.62,64.57 L362.18,64.54 L362.75,64.52 L363.31,64.49 L363.88,64.47 L364.44,64.44 L365.00,64.42 L365.57,64.39 L366.13,64.37 L366.70,64.34 L367.26,64.32 L367.83,64.30 L368.39,64.27 L368.95,64.25 L369.52,64.23 L370.08,64.20 L370.65,64.18 L371.21,64.16 L371.77,64.14 L372.34,64.12 L372.90,64.10 L373.47,64.07 L374.03,64.05 L374.60,64.03 L375.16,64.01 L375.72,63.99 L376.29,63.97 L376.85,63.95 L377.42,63.93 L377.98,63.91 L378.54,63.89 L379.11,63.87 L379.67,63.85 L380.24,63.83 L380.80,63.82 L381.36,63.80 L381.93,63.78 L382.49,63.76 L383.06,63.74 L383.62,63.73 L384.19,63.71 L384.75,63.69 L385.31,63.67 L385.88,63.66 L386.44,63.64 L387.01,63.62 L387.57,63.61 L388.13,63.59 L388.70,63.57 L389.26,63.56 L389.83,63.54 L390.39,63.53 L390.96,63.51 L391.52,63.49 L392.08,63.48 L392.65,63.46 L393.21,63.45 L393.78,63.43 L394.34,63.42 L394.90,63.40 L395.47,63.39 L396.03,63.38 L396.60,63.36 L397.16,63.35 L397.73,63.33 L398.29,63.32 L398.85,63.31 L399.42,63.29 L399.98,63.28 L400.55,63.27 L401.11,63.25 L401.67,63.24 L402.24,63.23 L402.80,63.22 L403.37,63.20 L403.93,63.19 L404.49,63.18 L405.06,63.17 L405.62,63.16 L406.19,63.14 L406.75,63.13 L407.32,63.12 L407.88,63.11 L408.44,63.10 L409.01,63.09 L409.57,63.07 L410.14,63.06 L410.70,63.05 L411.26,63.04 L411.83,63.03 L412.39,63.02 L412.96,63.01 L413.52,63.00 L414.09,62.99 L414.65,62.98 L415.21,62.97 L415.78,62.96 L416.34,62.95 L416.91,62.94 L417.47,62.93 L418.03,62.92 L418.60,62.91 L419.16,62.90 L419.73,62.89 L420.29,62.88 L420.86,62.87 L421.42,62.87 L421.98,62.86 L422.55,62.85 L423.11,62.84 L423.68,62.83 L424.24,62.82 L424.80,62.81 L425.37,62.81 L425.93,62.80 L426.50,62.79 L427.06,62.78 L427.63,62.77 L428.19,62.76 L428.75,62.76 L429.32,62.75 L429.88,62.74 L430.45,62.73 L431.01,62.73 L431.57,62.72 L432.14,62.71 L432.70,62.70 L433.27,62.70 L433.83,62.69 L434.39,62.68 L434.96,62.68 L435.52,62.67 L436.09,62.66 L436.65,62.66 L437.22,62.65 L437.78,62.64 L438.34,62.64 L438.91,62.63 L439.47,62.62 L440.04,62.62 L440.60,62.61 L441.16,62.60 L441.73,62.60 L442.29,62.59 L442.86,62.59 L443.42,62.58 L443.99,62.57 L444.55,62.57 L445.11,62.56 L445.68,62.56 L446.24,62.55 L446.81,62.54 L447.37,62.54 L447.93,62.53 L448.50,62.53 L449.06,62.52 L449.63,62.52 L450.19,62.51 L450.76,62.51 L451.32,62.50 L451.88,62.50 L452.45,62.49 L453.01,62.49 L453.58,62.48 L454.14,62.48 L454.70,62.47 L455.27,62.47 L455.83,62.46 L456.40,62.46 L456.96,62.45 L457.53,62.45 L458.09,62.44 L458.65,62.44 L459.22,62.43 L459.78,62.43 L460.35,62.43 L460.91,62.42 L461.47,62.42 L462.04,62.41 L462.60,62.41 L463.17,62.41 L463.73,62.40 L464.29,62.40 L464.86,62.39 L465.42,62.39 L465.99,62.38 L466.55,62.38 L467.12,62.38 L467.68,62.37 L468.24,62.37 L468.81,62.37 L469.37,62.36 L469.94,62.36 L470.50,62.36 L471.06,62.35 L471.63,62.35 L472.19,62.34 L472.76,62.34 L473.32,62.34 L473.89,62.33 L474.45,62.33 L475.01,62.33 L475.58,62.32 L476.14,62.32 L476.71,62.32 L477.27,62.31 L477.83,62.31 L478.40,62.31 L478.96,62.31 L479.53,62.30 L480.09,62.30 L480.66,62.30 L481.22,62.29 L481.78,62.29 L482.35,62.29 L482.91,62.28 L483.48,62.28 L484.04,62.28 L484.60,62.28 L485.17,62.27 L485.73,62.27 L486.30,62.27 L486.86,62.27 L487.42,62.26 L487.99,62.26 L488.55,62.26 L489.12,62.26 L489.68,62.25 L490.25,62.25 L490.81,62.25 L491.37,62.25 L491.94,62.24 L492.50,62.24 L493.07,62.24 L493.63,62.24 L494.19,62.23 L494.76,62.23 L495.32,62.23 L495.89,62.23 L496.45,62.22 L497.02,62.22 L497.58,62.22 L498.14,62.22 L498.71,62.22 L499.27,62.21 L499.84,62.21 L500.40,62.21 L500.96,62.21 L501.53,62.21 L502.09,62.20 L502.66,62.20 L503.22,62.20 L503.79,62.20 L504.35,62.20 L504.91,62.19 L505.48,62.19 L506.04,62.19 L506.61,62.19 L507.17,62.19 L507.73,62.18 L508.30,62.18 L508.86,62.18 L509.43,62.18 L509.99,62.18 L510.56,62.18 L511.12,62.17 L511.68,62.17 L512.25,62.17 L512.81,62.17 L513.38,62.17 L513.94,62.17 L514.50,62.16 L515.07,62.16 L515.63,62.16 L516.20,62.16 L516.76,62.16 L517.32,62.16 L517.89,62.16 L518.45,62.15 L519.02,62.15 L519.58,62.15 L520.15,62.15 L520.71,62.15 L521.27,62.15 L521.84,62.15 L522.40,62.14 L522.97,62.14 L523.53,62.14 L524.09,62.14 L524.66,62.14 L525.22,62.14 L525.79,62.14 L526.35,62.14 L526.92,62.13 L527.48,62.13 L528.04,62.13 L528.61,62.13 L529.17,62.13 L529.74,62.13 L530.30,62.13 L530.86,62.13 L531.43,62.12 L531.99,62.12 L532.56,62.12 L533.12,62.12 L533.69,62.12 L534.25,62.12 L534.81,62.12 L535.38,62.12 L535.94,62.12 L536.51,62.11 L537.07,62.11 L537.63,62.11 L538.20,62.11 L538.76,62.11 L539.33,62.11 L539.89,62.11 L540.45,62.11 L541.02,62.11 L541.58,62.11 L542.15,62.10 L542.71,62.10 L543.28,62.10 L543.84,62.10 L544.40,62.10 L544.97,62.10 L545.53,62.10 L546.10,62.10 L546.66,62.10 L547.22,62.10 L547.79,62.10 L548.35,62.10 L548.92,62.09 L549.48,62.09 L550.05,62.09 L550.61,62.09 L551.17,62.09 L551.74,62.09 L552.30,62.09 L552.87,62.09 L553.43,62.09 L553.99,62.09 L554.56,62.09 L555.12,62.09 L555.69,62.09 L556.25,62.08 L556.82,62.08 L557.38,62.08 L557.94,62.08 L558.51,62.08 L559.07,62.08 L559.64,62.08 L560.20,62.08 L560.76,62.08 L561.33,62.08 L561.89,62.08 L562.46,62.08 L563.02,62.08 L563.59,62.08 L564.15,62.08 L564.71,62.07 L565.28,62.07 L565.84,62.07 L566.41,62.07 L566.97,62.07 L567.53,62.07 L568.10,62.07 L568.66,62.07 L569.23,62.07 L569.79,62.07 L570.35,62.07 L570.92,62.07 L571.48,62.07 L572.05,62.07 L572.61,62.07 L573.18,62.07 L573.74,62.07 L574.30,62.07 L574.87,62.06 L575.43,62.06 L576.00,62.06 L576.56,62.06 L577.12,62.06 L577.69,62.06 L578.25,62.06 L578.82,62.06 L579.38,62.06 L579.95,62.06 L580.51,62.06 L581.07,62.06 L581.64,62.06 L582.20,62.06 L582.77,62.06 L583.33,62.06 L583.89,62.06 L584.46,62.06 L585.02,62.06 L585.59,62.06 L586.15,62.06 L586.72,62.06 L587.28,62.05 L587.84,62.05 L588.41,62.05 L588.97,62.05 L589.54,62.05 L590.10,62.05 L590.66,62.05 L591.23,62.05 L591.79,62.05 L592.36,62.05 L592.92,62.05 L593.48,62.05 L594.05,62.05 L594.61,62.05 L595.18,62.05 L595.74,62.05 L596.31,62.05 L596.87,62.05 L597.43,62.05 L598.00,62.05 L598.56,62.05 L599.13,62.05 L599.69,62.05 L600.25,62.05 L600.82,62.05 L601.38,62.05 L601.95,62.05 L602.51,62.05 L603.08,62.05 L603.64,62.04 L604.20,62.04 L604.77,62.04 L605.33,62.04 L605.90,62.04 L606.46,62.04 L607.02,62.04 L607.59,62.04 L608.15,62.04 L608.72,62.04 L609.28,62.04 L609.85,62.04 L610.41,62.04 L610.97,62.04 L611.54,62.04 L612.10,62.04 L612.67,62.04 L613.23,62.04 L613.79,62.04 L614.36,62.04 L614.92,62.04 L615.49,62.04 L616.05,62.04 L616.62,62.04 L617.18,62.04 L617.74,62.04 L618.31,62.04 L618.87,62.04 L619.44,62.04 L620.00,62.04" style="stroke-width: 2; stroke: rgb(74, 144, 226); stroke-opacity: 1;"/><g><path d="M514.3377990722656,167.43658447265625 L527.3377990722656,167.43658447265625" style="stroke-width: 3; stroke: rgb(208, 2, 27); stroke-opacity: 1; fill: none; fill-opacity: 1;"/></g><g><path d="M514.3377990722656,193.79130935668945 L527.3377990722656,193.79130935668945" style="stroke-width: 3; stroke: rgb(126, 211, 33); stroke-opacity: 1; fill: none; fill-opacity: 1;"/></g><g><path d="M514.3377990722656,220.14603424072266 L527.3377990722656,220.14603424072266" style="stroke-width: 3; stroke: rgb(74, 144, 226); stroke-opacity: 1; fill: none; fill-opacity: 1;"/></g></g></g><g class="test-xtl" style="font-family: &quot;Open Sans&quot;, verdana, arial, sans-serif;"><text text-anchor="middle" font-size="11" dominant-baseline="hanging" stroke="none" fill="rgb(50,50,50)" fill-opacity="1" x="43.31775115966798" y="121.72713470458984">-5</text><text text-anchor="middle" font-size="11" dominant-baseline="hanging" stroke="none" fill="rgb(50,50,50)" fill-opacity="1" x="96.02720092773437" y="121.72713470458984">-4</text><text text-anchor="middle" font-size="11" dominant-baseline="hanging" stroke="none" fill="rgb(50,50,50)" fill-opacity="1" x="148.7366506958008" y="121.72713470458984">-3</text><text text-anchor="middle" font-size="11" dominant-baseline="hanging" stroke="none" fill="rgb(50,50,50)" fill-opacity="1" x="201.4461004638672" y="121.72713470458984">-2</text><text text-anchor="middle" font-size="11" dominant-baseline="hanging" stroke="none" fill="rgb(50,50,50)" fill-opacity="1" x="254.1555502319336" y="121.72713470458984">-1</text><text text-anchor="middle" font-size="11" dominant-baseline="hanging" stroke="none" fill="rgb(50,50,50)" fill-opacity="1" x="362.7094497680664" y="121.72713470458984">1</text><text text-anchor="middle" font-size="11" dominant-baseline="hanging" stroke="none" fill="rgb(50,50,50)" fill-opacity="1" x="415.4188995361328" y="121.72713470458984">2</text><text text-anchor="middle" font-size="11" dominant-baseline="hanging" stroke="none" fill="rgb(50,50,50)" fill-opacity="1" x="468.1283493041992" y="121.72713470458984">3</text><text text-anchor="middle" font-size="11" dominant-baseline="hanging" stroke="none" fill="rgb(50,50,50)" fill-opacity="1" x="520.8377990722656" y="121.72713470458984">4</text><text text-anchor="middle" font-size="11" dominant-baseline="hanging" stroke="none" fill="rgb(50,50,50)" fill-opacity="1" x="573.547248840332" y="121.72713470458984">5</text><text text-anchor="middle" font-size="11" dominant-baseline="hanging" stroke="none" fill="rgb(50,50,50)" fill-opacity="1" x="302" y="119.72713470458984">0</text></g><g class="test-ytl" style="font-family: &quot;Open Sans&quot;, verdana, arial, sans-serif;"><text text-anchor="end" dominant-baseline="middle" font-size="11" stroke="none" fill="rgb(50,50,50)" fill-opacity="1" x="302" y="220.14603424072266">-2</text><text text-anchor="end" dominant-baseline="middle" font-size="11" stroke="none" fill="rgb(50,50,50)" fill-opacity="1" x="302" y="167.43658447265625">-1</text><text text-anchor="end" dominant-baseline="middle" font-size="11" stroke="none" fill="rgb(50,50,50)" fill-opacity="1" x="302" y="62.01768493652344">1</text><text text-anchor="end" dominant-baseline="middle" font-size="11" stroke="none" fill="rgb(50,50,50)" fill-opacity="1" x="302" y="9.308235168457031">2</text></g><rect class="real" x="1" y="1" width="618" height="268" style="fill: transparent; stroke: none;"/></g></g></g><g/></g><g/><g/><g/></svg>
        <svg xmlns="http://www.w3.org/2000/svg" xmlns:xlink="http://www.w3.org/1999/xlink" width="660" height="310" style="width:660px;height:310px;font-family:Asana-Math, Asana;background:transparent;"><g><g><g><g transform="matrix(1,0,0,1,554.6666870117188,194)"><path transform="matrix(0.017,0,0,-0.017,0,0)" d="M171 -15C331 -15 431 100 434 257C436 343 410 361 345 404L345 407C398 407 457 403 511 411C518 431 521 451 524 474C485 453 364 467 313 457C150 424 28 329 28 153C28 48 59 -15 171 -15ZM367 267C367 168 329 13 203 13C111 13 103 112 104 182C105 292 143 412 274 412C359 412 367 328 367 267Z" stroke="rgb(0,0,0)" stroke-opacity="1" stroke-width="8" fill="rgb(0,0,0)" fill-opacity="1"></path></g></g><g><g transform="matrix(1,0,0,1,564.0520629882812,194.66668701171875)"><path transform="matrix(0.017,0,0,-0.017,0,0)" d="M146 266C146 526 243 632 301 700L282 726C225 675 60 542 60 266C60 159 85 58 133 -32C168 -99 200 -138 282 -215L301 -194C255 -137 146 -15 146 266Z" stroke="rgb(0,0,0)" stroke-opacity="1" stroke-width="8" fill="rgb(0,0,0)" fill-opacity="1"></path></g></g><g><g transform="matrix(1,0,0,1,569.6979370117188,194)"><path transform="matrix(0.017,0,0,-0.017,0,0)" d="M322 -11C334 -11 343 -9 372 -1C383 61 391 95 402 142L380 142L358 82C352 64 340 57 319 57C307 57 291 59 270 64L252 68C219 75 185 80 166 80C134 80 107 74 71 59L410 441L416 473L407 482L384 459C374 449 364 445 350 445C316 445 264 453 216 466L198 471C170 478 150 482 136 482C119 482 99 479 75 472L43 350L64 350L94 408C111 412 120 413 133 413C174 413 206 398 259 398C295 398 319 404 352 421L-1 21L8 -6C37 17 64 26 99 26C162 26 253 -11 322 -11Z" stroke="rgb(0,0,0)" stroke-opacity="1" stroke-width="8" fill="rgb(0,0,0)" fill-opacity="1"></path></g></g><g><g transform="matrix(1,0,0,1,577.2291870117188,194.66668701171875)"><path transform="matrix(0.017,0,0,-0.017,0,0)" d="M51 726L32 700C87 636 187 526 187 266C187 -10 83 -131 32 -194L51 -215C104 -165 273 -23 273 265C273 542 108 675 51 726Z" stroke="rgb(0,0,0)" stroke-opacity="1" stroke-width="8" fill="rgb(0,0,0)" fill-opacity="1"></path></g></g></g></g><g><g><g><g transform="matrix(1,0,0,1,552.6666870117188,220)"><path transform="matrix(0.017,0,0,-0.017,0,0)" d="M171 -15C331 -15 431 100 434 257C436 343 410 361 345 404L345 407C398 407 457 403 511 411C518 431 521 451 524 474C485 453 364 467 313 457C150 424 28 329 28 153C28 48 59 -15 171 -15ZM367 267C367 168 329 13 203 13C111 13 103 112 104 182C105 292 143 412 274 412C359 412 367 328 367 267Z" stroke="rgb(0,0,0)" stroke-opacity="1" stroke-width="8" fill="rgb(0,0,0)" fill-opacity="1"></path></g></g><g><g transform="matrix(1,0,0,1,562.0520629882812,220.66668701171875)"><path transform="matrix(0.017,0,0,-0.017,0,0)" d="M146 266C146 526 243 632 301 700L282 726C225 675 60 542 60 266C60 159 85 58 133 -32C168 -99 200 -138 282 -215L301 -194C255 -137 146 -15 146 266Z" stroke="rgb(0,0,0)" stroke-opacity="1" stroke-width="8" fill="rgb(0,0,0)" fill-opacity="1"></path></g></g><g><g transform="matrix(1,0,0,1,567.6979370117188,220)"><path transform="matrix(0.017,0,0,-0.017,0,0)" d="M418 -3L418 27L366 30C311 33 301 44 301 96L301 700L60 598L67 548L217 614L217 96C217 44 206 33 152 30L96 27L96 -3C250 0 250 0 261 0C292 0 402 -3 418 -3ZM762 689C607 689 528 566 528 324C528 207 549 106 584 57C619 8 675 -20 737 -20C888 -20 964 110 964 366C964 585 899 689 762 689ZM744 654C841 654 880 556 880 316C880 103 842 15 750 15C653 15 612 116 612 360C612 571 649 654 744 654ZM1320 -11C1332 -11 1341 -9 1370 -1C1381 61 1389 95 1400 142L1378 142L1356 82C1350 64 1338 57 1317 57C1305 57 1289 59 1268 64L1250 68C1217 75 1183 80 1164 80C1132 80 1105 74 1069 59L1408 441L1414 473L1405 482L1382 459C1372 449 1362 445 1348 445C1314 445 1262 453 1214 466L1196 471C1168 478 1148 482 1134 482C1117 482 1097 479 1073 472L1041 350L1062 350L1092 408C1109 412 1118 413 1131 413C1172 413 1204 398 1257 398C1293 398 1317 404 1350 421L997 21L1006 -6C1035 17 1062 26 1097 26C1160 26 1251 -11 1320 -11Z" stroke="rgb(0,0,0)" stroke-opacity="1" stroke-width="8" fill="rgb(0,0,0)" fill-opacity="1"></path></g></g><g><g transform="matrix(1,0,0,1,592.1979370117188,220.66668701171875)"><path transform="matrix(0.017,0,0,-0.017,0,0)" d="M51 726L32 700C87 636 187 526 187 266C187 -10 83 -131 32 -194L51 -215C104 -165 273 -23 273 265C273 542 108 675 51 726Z" stroke="rgb(0,0,0)" stroke-opacity="1" stroke-width="8" fill="rgb(0,0,0)" fill-opacity="1"></path></g></g></g></g><g><g><g><g transform="matrix(1,0,0,1,552.6666870117188,246)"><path transform="matrix(0.017,0,0,-0.017,0,0)" d="M171 -15C331 -15 431 100 434 257C436 343 410 361 345 404L345 407C398 407 457 403 511 411C518 431 521 451 524 474C485 453 364 467 313 457C150 424 28 329 28 153C28 48 59 -15 171 -15ZM367 267C367 168 329 13 203 13C111 13 103 112 104 182C105 292 143 412 274 412C359 412 367 328 367 267Z" stroke="rgb(0,0,0)" stroke-opacity="1" stroke-width="8" fill="rgb(0,0,0)" fill-opacity="1"></path></g></g><g><g transform="matrix(1,0,0,1,562.0520629882812,246.66668701171875)"><path transform="matrix(0.017,0,0,-0.017,0,0)" d="M146 266C146 526 243 632 301 700L282 726C225 675 60 542 60 266C60 159 85 58 133 -32C168 -99 200 -138 282 -215L301 -194C255 -137 146 -15 146 266Z" stroke="rgb(0,0,0)" stroke-opacity="1" stroke-width="8" fill="rgb(0,0,0)" fill-opacity="1"></path></g></g><g><g transform="matrix(1,0,0,1,567.6979370117188,246)"><path transform="matrix(0.017,0,0,-0.017,0,0)" d="M322 -11C334 -11 343 -9 372 -1C383 61 391 95 402 142L380 142L358 82C352 64 340 57 319 57C307 57 291 59 270 64L252 68C219 75 185 80 166 80C134 80 107 74 71 59L410 441L416 473L407 482L384 459C374 449 364 445 350 445C316 445 264 453 216 466L198 471C170 478 150 482 136 482C119 482 99 479 75 472L43 350L64 350L94 408C111 412 120 413 133 413C174 413 206 398 259 398C295 398 319 404 352 421L-1 21L8 -6C37 17 64 26 99 26C162 26 253 -11 322 -11Z" stroke="rgb(0,0,0)" stroke-opacity="1" stroke-width="8" fill="rgb(0,0,0)" fill-opacity="1"></path></g></g><g><g transform="matrix(1,0,0,1,578.625,246)"><path transform="matrix(0.017,0,0,-0.017,0,0)" d="M604 241L604 300L364 300L364 538L305 538L305 300L65 300L65 241L305 241L305 0L364 0L364 241Z" stroke="rgb(0,0,0)" stroke-opacity="1" stroke-width="8" fill="rgb(0,0,0)" fill-opacity="1"></path></g></g><g><g transform="matrix(1,0,0,1,593.3854370117188,246)"><path transform="matrix(0.017,0,0,-0.017,0,0)" d="M16 23L16 -3C203 -3 203 0 239 0C275 0 275 -3 468 -3L468 82C353 77 307 81 122 77L304 270C401 373 431 428 431 503C431 618 353 689 226 689C154 689 105 669 56 619L39 483L68 483L81 529C97 587 133 612 200 612C286 612 341 558 341 473C341 398 299 324 186 204Z" stroke="rgb(0,0,0)" stroke-opacity="1" stroke-width="8" fill="rgb(0,0,0)" fill-opacity="1"></path></g></g><g><g transform="matrix(1,0,0,1,601.875,246.66668701171875)"><path transform="matrix(0.017,0,0,-0.017,0,0)" d="M51 726L32 700C87 636 187 526 187 266C187 -10 83 -131 32 -194L51 -215C104 -165 273 -23 273 265C273 542 108 675 51 726Z" stroke="rgb(0,0,0)" stroke-opacity="1" stroke-width="8" fill="rgb(0,0,0)" fill-opacity="1"></path></g></g></g></g></svg>
</svg>
