<svg xmlns="http://www.w3.org/2000/svg" xmlns:xlink="http://www.w3.org/1999/xlink" x="0" y="0" width="661.3333740234375" height="311.3333435058594" style="
        width:661.3333740234375px;
        height:311.3333435058594px;
        background: transparent;
        fill: none;
">
        
        
        <svg xmlns="http://www.w3.org/2000/svg" class="role-diagram-draw-area"><g class="shapes-region" style="stroke: black; fill: none;"><g class="composite-shape" data-amt="diagram/shapes/plot" transform="matrix(1,0,0,1,20,10)"><g><g><g class="test-xgi"><line x1="34.00000000000002" y1="0" x2="34.00000000000002" y2="270" fill="none" stroke="#c3c3c3" stroke-width="0.5"/><line x1="99.00000000000001" y1="0" x2="99.00000000000001" y2="270" fill="none" stroke="#c3c3c3" stroke-width="0.5"/><line x1="164" y1="0" x2="164" y2="270" fill="none" stroke="#c3c3c3" stroke-width="0.5"/><line x1="229.00000000000003" y1="0" x2="229.00000000000003" y2="270" fill="none" stroke="#c3c3c3" stroke-width="0.5"/><line x1="294" y1="0" x2="294" y2="270" fill="none" stroke="#c3c3c3" stroke-width="0.5"/><line x1="359.00000000000006" y1="0" x2="359.00000000000006" y2="270" fill="none" stroke="#c3c3c3" stroke-width="0.5"/><line x1="424" y1="0" x2="424" y2="270" fill="none" stroke="#c3c3c3" stroke-width="0.5"/><line x1="489" y1="0" x2="489" y2="270" fill="none" stroke="#c3c3c3" stroke-width="0.5"/><line x1="553.9999999999999" y1="0" x2="553.9999999999999" y2="270" fill="none" stroke="#c3c3c3" stroke-width="0.5"/><line x1="619" y1="0" x2="619" y2="270" fill="none" stroke="#c3c3c3" stroke-width="0.5"/></g><g class="test-ygi"><line x1="0" y1="265" x2="620" y2="265" fill="none" stroke="#c3c3c3" stroke-width="0.5"/><line x1="0" y1="200" x2="620" y2="200" fill="none" stroke="#c3c3c3" stroke-width="0.5"/><line x1="0" y1="135" x2="620" y2="135" fill="none" stroke="#c3c3c3" stroke-width="0.5"/><line x1="0" y1="70" x2="620" y2="70" fill="none" stroke="#c3c3c3" stroke-width="0.5"/><line x1="0" y1="5" x2="620" y2="5" fill="none" stroke="#c3c3c3" stroke-width="0.5"/></g></g><g><g class="test-xti" style="font-family: Asana-Math, Asana;"><line x1="0" y1="135" x2="616" y2="135" fill="none" stroke="rgb(50,50,50)" stroke-opacity="1" stroke-width="1"/><line x1="34.00000000000002" y1="131" x2="34.00000000000002" y2="139" fill="none" stroke="rgb(50,50,50)" stroke-opacity="1" stroke-width="1"/><line x1="99.00000000000001" y1="131" x2="99.00000000000001" y2="139" fill="none" stroke="rgb(50,50,50)" stroke-opacity="1" stroke-width="1"/><line x1="164" y1="131" x2="164" y2="139" fill="none" stroke="rgb(50,50,50)" stroke-opacity="1" stroke-width="1"/><line x1="229.00000000000003" y1="131" x2="229.00000000000003" y2="139" fill="none" stroke="rgb(50,50,50)" stroke-opacity="1" stroke-width="1"/><line x1="359.00000000000006" y1="131" x2="359.00000000000006" y2="139" fill="none" stroke="rgb(50,50,50)" stroke-opacity="1" stroke-width="1"/><line x1="424" y1="131" x2="424" y2="139" fill="none" stroke="rgb(50,50,50)" stroke-opacity="1" stroke-width="1"/><line x1="489" y1="131" x2="489" y2="139" fill="none" stroke="rgb(50,50,50)" stroke-opacity="1" stroke-width="1"/><line x1="553.9999999999999" y1="131" x2="553.9999999999999" y2="139" fill="none" stroke="rgb(50,50,50)" stroke-opacity="1" stroke-width="1"/><line x1="619" y1="131" x2="619" y2="139" fill="none" stroke="rgb(50,50,50)" stroke-opacity="1" stroke-width="1"/><path d="M611,131.4 L619,135 L611,138.6 Z" stroke="none" stroke-width="1" fill="rgb(50,50,50)" fill-opacity="1"/></g><g class="test-yti" style="font-family: Asana-Math, Asana;"><line x1="294" y1="4" x2="294" y2="270" fill="none" stroke="rgb(50,50,50)" stroke-opacity="1" stroke-width="1"/><line x1="290" y1="265" x2="298" y2="265" fill="none" stroke="rgb(50,50,50)" stroke-opacity="1" stroke-width="1"/><line x1="290" y1="200" x2="298" y2="200" fill="none" stroke="rgb(50,50,50)" stroke-opacity="1" stroke-width="1"/><line x1="290" y1="70" x2="298" y2="70" fill="none" stroke="rgb(50,50,50)" stroke-opacity="1" stroke-width="1"/><line x1="290" y1="5" x2="298" y2="5" fill="none" stroke="rgb(50,50,50)" stroke-opacity="1" stroke-width="1"/><path d="M290.4,9 L294,1 L297.6,9 Z" stroke="none" stroke-width="1" fill="rgb(50,50,50)" fill-opacity="1"/></g><g class="test-plot-expression"><defs><clipPath id="cpkdi8i7ftp"><rect x="1" y="1" width="618" height="268"/></clipPath></defs><g clip-path="url(#cpkdi8i7ftp)"><path d=" M0.00,540.00 L0.56,540.00 L1.13,540.00 L1.69,540.00 L2.26,540.00 L2.82,540.00 L3.38,540.00 L3.95,540.00 L4.51,540.00 L5.08,540.00 L5.64,540.00 L6.21,540.00 L6.77,540.00 L7.33,540.00 L7.90,540.00 L8.46,540.00 L9.03,540.00 L9.59,540.00 L10.15,540.00 L10.72,540.00 L11.28,540.00 L11.85,540.00 L12.41,540.00 L12.98,540.00 L13.54,540.00 L14.10,540.00 L14.67,540.00 L15.23,540.00 L15.80,540.00 L16.36,540.00 L16.92,540.00 L17.49,540.00 L18.05,540.00 L18.62,540.00 L19.18,540.00 L19.75,540.00 L20.31,540.00 L20.87,540.00 L21.44,540.00 L22.00,540.00 L22.57,540.00 L23.13,540.00 L23.69,540.00 L24.26,540.00 L24.82,540.00 L25.39,540.00 L25.95,540.00 L26.52,540.00 L27.08,540.00 L27.64,540.00 L28.21,540.00 L28.77,540.00 L29.34,540.00 L29.90,540.00 L30.46,540.00 L31.03,540.00 L31.59,540.00 L32.16,540.00 L32.72,540.00 L33.28,540.00 L33.85,540.00 L34.41,540.00 L34.98,540.00 L35.54,540.00 L36.11,540.00 L36.67,540.00 L37.23,540.00 L37.80,540.00 L38.36,540.00 L38.93,540.00 L39.49,540.00 L40.05,540.00 L40.62,540.00 L41.18,540.00 L41.75,540.00 L42.31,540.00 L42.88,540.00 L43.44,540.00 L44.00,540.00 L44.57,540.00 L45.13,540.00 L45.70,540.00 L46.26,540.00 L46.82,540.00 L47.39,540.00 L47.95,540.00 L48.52,540.00 L49.08,540.00 L49.65,540.00 L50.21,540.00 L50.77,540.00 L51.34,540.00 L51.90,540.00 L52.47,540.00 L53.03,540.00 L53.59,540.00 L54.16,540.00 L54.72,540.00 L55.29,540.00 L55.85,540.00 L56.41,540.00 L56.98,540.00 L57.54,540.00 L58.11,540.00 L58.67,540.00 L59.24,540.00 L59.80,540.00 L60.36,540.00 L60.93,540.00 L61.49,540.00 L62.06,540.00 L62.62,540.00 L63.18,540.00 L63.75,540.00 L64.31,540.00 L64.88,540.00 L65.44,540.00 L66.01,540.00 L66.57,540.00 L67.13,540.00 L67.70,540.00 L68.26,540.00 L68.83,540.00 L69.39,540.00 L69.95,540.00 L70.52,540.00 L71.08,540.00 L71.65,540.00 L72.21,540.00 L72.78,540.00 L73.34,540.00 L73.90,540.00 L74.47,540.00 L75.03,540.00 L75.60,540.00 L76.16,540.00 L76.72,540.00 L77.29,540.00 L77.85,539.33 L78.42,535.04 L78.98,530.77 L79.55,526.53 L80.11,522.32 L80.67,518.13 L81.24,513.96 L81.80,509.82 L82.37,505.70 L82.93,501.61 L83.49,497.54 L84.06,493.49 L84.62,489.48 L85.19,485.48 L85.75,481.51 L86.31,477.56 L86.88,473.64 L87.44,469.74 L88.01,465.86 L88.57,462.01 L89.14,458.18 L89.70,454.37 L90.26,450.59 L90.83,446.84 L91.39,443.10 L91.96,439.39 L92.52,435.70 L93.08,432.04 L93.65,428.40 L94.21,424.78 L94.78,421.18 L95.34,417.61 L95.91,414.06 L96.47,410.54 L97.03,407.03 L97.60,403.55 L98.16,400.09 L98.73,396.66 L99.29,393.25 L99.85,389.86 L100.42,386.49 L100.98,383.14 L101.55,379.82 L102.11,376.52 L102.68,373.24 L103.24,369.98 L103.80,366.75 L104.37,363.54 L104.93,360.35 L105.50,357.18 L106.06,354.03 L106.62,350.90 L107.19,347.80 L107.75,344.72 L108.32,341.66 L108.88,338.62 L109.44,335.60 L110.01,332.60 L110.57,329.63 L111.14,326.68 L111.70,323.74 L112.27,320.83 L112.83,317.94 L113.39,315.07 L113.96,312.22 L114.52,309.39 L115.09,306.59 L115.65,303.80 L116.21,301.04 L116.78,298.29 L117.34,295.57 L117.91,292.86 L118.47,290.18 L119.04,287.51 L119.60,284.87 L120.16,282.25 L120.73,279.64 L121.29,277.06 L121.86,274.50 L122.42,271.96 L122.98,269.43 L123.55,266.93 L124.11,264.45 L124.68,261.98 L125.24,259.54 L125.81,257.11 L126.37,254.71 L126.93,252.32 L127.50,249.96 L128.06,247.61 L128.63,245.28 L129.19,242.97 L129.75,240.68 L130.32,238.41 L130.88,236.16 L131.45,233.93 L132.01,231.71 L132.58,229.52 L133.14,227.34 L133.70,225.19 L134.27,223.05 L134.83,220.93 L135.40,218.82 L135.96,216.74 L136.52,214.68 L137.09,212.63 L137.65,210.60 L138.22,208.59 L138.78,206.60 L139.34,204.62 L139.91,202.67 L140.47,200.73 L141.04,198.81 L141.60,196.91 L142.17,195.02 L142.73,193.15 L143.29,191.30 L143.86,189.47 L144.42,187.66 L144.99,185.86 L145.55,184.08 L146.11,182.31 L146.68,180.57 L147.24,178.84 L147.81,177.13 L148.37,175.43 L148.94,173.76 L149.50,172.10 L150.06,170.45 L150.63,168.82 L151.19,167.21 L151.76,165.62 L152.32,164.04 L152.88,162.48 L153.45,160.94 L154.01,159.41 L154.58,157.90 L155.14,156.40 L155.71,154.92 L156.27,153.46 L156.83,152.01 L157.40,150.58 L157.96,149.17 L158.53,147.77 L159.09,146.38 L159.65,145.02 L160.22,143.66 L160.78,142.33 L161.35,141.01 L161.91,139.70 L162.47,138.41 L163.04,137.14 L163.60,135.88 L164.17,134.63 L164.73,133.40 L165.30,132.19 L165.86,130.99 L166.42,129.81 L166.99,128.64 L167.55,127.48 L168.12,126.34 L168.68,125.22 L169.24,124.11 L169.81,123.01 L170.37,121.93 L170.94,120.87 L171.50,119.81 L172.07,118.78 L172.63,117.75 L173.19,116.74 L173.76,115.75 L174.32,114.77 L174.89,113.80 L175.45,112.85 L176.01,111.91 L176.58,110.98 L177.14,110.07 L177.71,109.17 L178.27,108.29 L178.84,107.42 L179.40,106.56 L179.96,105.72 L180.53,104.89 L181.09,104.07 L181.66,103.26 L182.22,102.47 L182.78,101.70 L183.35,100.93 L183.91,100.18 L184.48,99.44 L185.04,98.72 L185.61,98.00 L186.17,97.30 L186.73,96.62 L187.30,95.94 L187.86,95.28 L188.43,94.63 L188.99,93.99 L189.55,93.37 L190.12,92.75 L190.68,92.15 L191.25,91.56 L191.81,90.99 L192.37,90.42 L192.94,89.87 L193.50,89.33 L194.07,88.80 L194.63,88.28 L195.20,87.78 L195.76,87.29 L196.32,86.80 L196.89,86.33 L197.45,85.88 L198.02,85.43 L198.58,84.99 L199.14,84.57 L199.71,84.15 L200.27,83.75 L200.84,83.36 L201.40,82.98 L201.97,82.61 L202.53,82.25 L203.09,81.90 L203.66,81.57 L204.22,81.24 L204.79,80.92 L205.35,80.62 L205.91,80.32 L206.48,80.04 L207.04,79.77 L207.61,79.50 L208.17,79.25 L208.74,79.01 L209.30,78.77 L209.86,78.55 L210.43,78.34 L210.99,78.14 L211.56,77.94 L212.12,77.76 L212.68,77.59 L213.25,77.42 L213.81,77.27 L214.38,77.12 L214.94,76.99 L215.51,76.86 L216.07,76.75 L216.63,76.64 L217.20,76.54 L217.76,76.45 L218.33,76.37 L218.89,76.30 L219.45,76.24 L220.02,76.19 L220.58,76.14 L221.15,76.11 L221.71,76.08 L222.27,76.07 L222.84,76.06 L223.40,76.06 L223.97,76.06 L224.53,76.08 L225.10,76.11 L225.66,76.14 L226.22,76.18 L226.79,76.23 L227.35,76.29 L227.92,76.35 L228.48,76.43 L229.04,76.51 L229.61,76.60 L230.17,76.69 L230.74,76.80 L231.30,76.91 L231.87,77.03 L232.43,77.16 L232.99,77.29 L233.56,77.43 L234.12,77.58 L234.69,77.74 L235.25,77.90 L235.81,78.07 L236.38,78.25 L236.94,78.44 L237.51,78.63 L238.07,78.83 L238.64,79.03 L239.20,79.25 L239.76,79.47 L240.33,79.69 L240.89,79.92 L241.46,80.16 L242.02,80.41 L242.58,80.66 L243.15,80.92 L243.71,81.18 L244.28,81.45 L244.84,81.73 L245.40,82.01 L245.97,82.30 L246.53,82.59 L247.10,82.89 L247.66,83.20 L248.23,83.51 L248.79,83.83 L249.35,84.15 L249.92,84.48 L250.48,84.82 L251.05,85.15 L251.61,85.50 L252.17,85.85 L252.74,86.21 L253.30,86.57 L253.87,86.93 L254.43,87.30 L255.00,87.68 L255.56,88.06 L256.12,88.44 L256.69,88.83 L257.25,89.23 L257.82,89.63 L258.38,90.03 L258.94,90.44 L259.51,90.85 L260.07,91.27 L260.64,91.69 L261.20,92.12 L261.77,92.55 L262.33,92.98 L262.89,93.42 L263.46,93.86 L264.02,94.31 L264.59,94.76 L265.15,95.21 L265.71,95.67 L266.28,96.13 L266.84,96.60 L267.41,97.06 L267.97,97.54 L268.54,98.01 L269.10,98.49 L269.66,98.97 L270.23,99.46 L270.79,99.95 L271.36,100.44 L271.92,100.93 L272.48,101.43 L273.05,101.93 L273.61,102.43 L274.18,102.94 L274.74,103.45 L275.30,103.96 L275.87,104.47 L276.43,104.99 L277.00,105.51 L277.56,106.03 L278.13,106.56 L278.69,107.08 L279.25,107.61 L279.82,108.14 L280.38,108.67 L280.95,109.21 L281.51,109.75 L282.07,110.28 L282.64,110.82 L283.20,111.37 L283.77,111.91 L284.33,112.46 L284.90,113.00 L285.46,113.55 L286.02,114.10 L286.59,114.65 L287.15,115.21 L287.72,115.76 L288.28,116.32 L288.84,116.87 L289.41,117.43 L289.97,117.99 L290.54,118.55 L291.10,119.11 L291.67,119.67 L292.23,120.23 L292.79,120.79 L293.36,121.36 L293.92,121.92 L294.49,122.49 L295.05,123.05 L295.61,123.62 L296.18,124.18 L296.74,124.75 L297.31,125.31 L297.87,125.88 L298.43,126.44 L299.00,127.01 L299.56,127.58 L300.13,128.14 L300.69,128.71 L301.26,129.27 L301.82,129.84 L302.38,130.40 L302.95,130.97 L303.51,131.53 L304.08,132.09 L304.64,132.66 L305.20,133.22 L305.77,133.78 L306.33,134.34 L306.90,134.90 L307.46,135.46 L308.03,136.01 L308.59,136.57 L309.15,137.12 L309.72,137.68 L310.28,138.23 L310.85,138.78 L311.41,139.33 L311.97,139.88 L312.54,140.43 L313.10,140.97 L313.67,141.51 L314.23,142.06 L314.80,142.60 L315.36,143.13 L315.92,143.67 L316.49,144.20 L317.05,144.74 L317.62,145.27 L318.18,145.79 L318.74,146.32 L319.31,146.84 L319.87,147.36 L320.44,147.88 L321.00,148.40 L321.57,148.91 L322.13,149.42 L322.69,149.93 L323.26,150.43 L323.82,150.94 L324.39,151.44 L324.95,151.93 L325.51,152.43 L326.08,152.92 L326.64,153.40 L327.21,153.89 L327.77,154.37 L328.33,154.85 L328.90,155.32 L329.46,155.79 L330.03,156.26 L330.59,156.72 L331.16,157.18 L331.72,157.64 L332.28,158.09 L332.85,158.54 L333.41,158.98 L333.98,159.43 L334.54,159.86 L335.10,160.29 L335.67,160.72 L336.23,161.15 L336.80,161.57 L337.36,161.98 L337.93,162.39 L338.49,162.80 L339.05,163.20 L339.62,163.60 L340.18,163.99 L340.75,164.38 L341.31,164.77 L341.87,165.14 L342.44,165.52 L343.00,165.89 L343.57,166.25 L344.13,166.61 L344.70,166.96 L345.26,167.31 L345.82,167.65 L346.39,167.99 L346.95,168.32 L347.52,168.65 L348.08,168.97 L348.64,169.29 L349.21,169.60 L349.77,169.90 L350.34,170.20 L350.90,170.49 L351.46,170.78 L352.03,171.06 L352.59,171.33 L353.16,171.60 L353.72,171.86 L354.29,172.12 L354.85,172.37 L355.41,172.61 L355.98,172.85 L356.54,173.08 L357.11,173.30 L357.67,173.52 L358.23,173.73 L358.80,173.93 L359.36,174.13 L359.93,174.32 L360.49,174.50 L361.06,174.67 L361.62,174.84 L362.18,175.00 L362.75,175.16 L363.31,175.30 L363.88,175.44 L364.44,175.58 L365.00,175.70 L365.57,175.82 L366.13,175.93 L366.70,176.03 L367.26,176.12 L367.83,176.21 L368.39,176.29 L368.95,176.36 L369.52,176.42 L370.08,176.48 L370.65,176.52 L371.21,176.56 L371.77,176.59 L372.34,176.61 L372.90,176.63 L373.47,176.63 L374.03,176.63 L374.60,176.61 L375.16,176.59 L375.72,176.56 L376.29,176.53 L376.85,176.48 L377.42,176.42 L377.98,176.36 L378.54,176.29 L379.11,176.20 L379.67,176.11 L380.24,176.01 L380.80,175.90 L381.36,175.78 L381.93,175.65 L382.49,175.51 L383.06,175.36 L383.62,175.21 L384.19,175.04 L384.75,174.86 L385.31,174.67 L385.88,174.48 L386.44,174.27 L387.01,174.06 L387.57,173.83 L388.13,173.59 L388.70,173.35 L389.26,173.09 L389.83,172.82 L390.39,172.54 L390.96,172.26 L391.52,171.96 L392.08,171.65 L392.65,171.33 L393.21,171.00 L393.78,170.66 L394.34,170.31 L394.90,169.94 L395.47,169.57 L396.03,169.19 L396.60,168.79 L397.16,168.39 L397.73,167.97 L398.29,167.54 L398.85,167.10 L399.42,166.65 L399.98,166.18 L400.55,165.71 L401.11,165.22 L401.67,164.73 L402.24,164.22 L402.80,163.70 L403.37,163.16 L403.93,162.62 L404.49,162.06 L405.06,161.49 L405.62,160.91 L406.19,160.32 L406.75,159.71 L407.32,159.10 L407.88,158.47 L408.44,157.83 L409.01,157.17 L409.57,156.50 L410.14,155.82 L410.70,155.13 L411.26,154.43 L411.83,153.71 L412.39,152.98 L412.96,152.24 L413.52,151.48 L414.09,150.71 L414.65,149.93 L415.21,149.13 L415.78,148.32 L416.34,147.50 L416.91,146.67 L417.47,145.82 L418.03,144.96 L418.60,144.08 L419.16,143.19 L419.73,142.29 L420.29,141.37 L420.86,140.44 L421.42,139.50 L421.98,138.54 L422.55,137.57 L423.11,136.58 L423.68,135.58 L424.24,134.57 L424.80,133.54 L425.37,132.49 L425.93,131.44 L426.50,130.37 L427.06,129.28 L427.63,128.18 L428.19,127.06 L428.75,125.93 L429.32,124.79 L429.88,123.63 L430.45,122.45 L431.01,121.27 L431.57,120.06 L432.14,118.84 L432.70,117.61 L433.27,116.36 L433.83,115.09 L434.39,113.81 L434.96,112.52 L435.52,111.21 L436.09,109.88 L436.65,108.54 L437.22,107.18 L437.78,105.81 L438.34,104.42 L438.91,103.01 L439.47,101.59 L440.04,100.15 L440.60,98.70 L441.16,97.23 L441.73,95.75 L442.29,94.25 L442.86,92.73 L443.42,91.19 L443.99,89.64 L444.55,88.08 L445.11,86.49 L445.68,84.89 L446.24,83.28 L446.81,81.64 L447.37,79.99 L447.93,78.33 L448.50,76.64 L449.06,74.94 L449.63,73.23 L450.19,71.49 L450.76,69.74 L451.32,67.97 L451.88,66.18 L452.45,64.38 L453.01,62.56 L453.58,60.72 L454.14,58.86 L454.70,56.99 L455.27,55.10 L455.83,53.19 L456.40,51.26 L456.96,49.32 L457.53,47.35 L458.09,45.37 L458.65,43.37 L459.22,41.36 L459.78,39.32 L460.35,37.27 L460.91,35.20 L461.47,33.11 L462.04,31.00 L462.60,28.87 L463.17,26.72 L463.73,24.56 L464.29,22.38 L464.86,20.18 L465.42,17.96 L465.99,15.72 L466.55,13.46 L467.12,11.18 L467.68,8.88 L468.24,6.57 L468.81,4.23 L469.37,1.88 L469.94,-0.49 L470.50,-2.89 L471.06,-5.30 L471.63,-7.73 L472.19,-10.18 L472.76,-12.65 L473.32,-15.14 L473.89,-17.65 L474.45,-20.18 L475.01,-22.73 L475.58,-25.30 L476.14,-27.89 L476.71,-30.50 L477.27,-33.13 L477.83,-35.78 L478.40,-38.46 L478.96,-41.15 L479.53,-43.86 L480.09,-46.59 L480.66,-49.34 L481.22,-52.12 L481.78,-54.91 L482.35,-57.72 L482.91,-60.56 L483.48,-63.42 L484.04,-66.29 L484.60,-69.19 L485.17,-72.11 L485.73,-75.05 L486.30,-78.01 L486.86,-81.00 L487.42,-84.00 L487.99,-87.03 L488.55,-90.07 L489.12,-93.14 L489.68,-96.23 L490.25,-99.34 L490.81,-102.47 L491.37,-105.63 L491.94,-108.81 L492.50,-112.01 L493.07,-115.23 L493.63,-118.47 L494.19,-121.73 L494.76,-125.02 L495.32,-128.33 L495.89,-131.66 L496.45,-135.01 L497.02,-138.39 L497.58,-141.79 L498.14,-145.21 L498.71,-148.65 L499.27,-152.12 L499.84,-155.61 L500.40,-159.12 L500.96,-162.65 L501.53,-166.21 L502.09,-169.79 L502.66,-173.39 L503.22,-177.02 L503.79,-180.67 L504.35,-184.34 L504.91,-188.04 L505.48,-191.76 L506.04,-195.50 L506.61,-199.27 L507.17,-203.06 L507.73,-206.87 L508.30,-210.71 L508.86,-214.57 L509.43,-218.45 L509.99,-222.36 L510.56,-226.29 L511.12,-230.25 L511.68,-234.23 L512.25,-238.23 L512.81,-242.26 L513.38,-246.32 L513.94,-250.39 L514.50,-254.49 L515.07,-258.62 L515.63,-262.77 L516.20,-266.95 L516.76,-270.00 L517.32,-270.00 L517.89,-270.00 L518.45,-270.00 L519.02,-270.00 L519.58,-270.00 L520.15,-270.00 L520.71,-270.00 L521.27,-270.00 L521.84,-270.00 L522.40,-270.00 L522.97,-270.00 L523.53,-270.00 L524.09,-270.00 L524.66,-270.00 L525.22,-270.00 L525.79,-270.00 L526.35,-270.00 L526.92,-270.00 L527.48,-270.00 L528.04,-270.00 L528.61,-270.00 L529.17,-270.00 L529.74,-270.00 L530.30,-270.00 L530.86,-270.00 L531.43,-270.00 L531.99,-270.00 L532.56,-270.00 L533.12,-270.00 L533.69,-270.00 L534.25,-270.00 L534.81,-270.00 L535.38,-270.00 L535.94,-270.00 L536.51,-270.00 L537.07,-270.00 L537.63,-270.00 L538.20,-270.00 L538.76,-270.00 L539.33,-270.00 L539.89,-270.00 L540.45,-270.00 L541.02,-270.00 L541.58,-270.00 L542.15,-270.00 L542.71,-270.00 L543.28,-270.00 L543.84,-270.00 L544.40,-270.00 L544.97,-270.00 L545.53,-270.00 L546.10,-270.00 L546.66,-270.00 L547.22,-270.00 L547.79,-270.00 L548.35,-270.00 L548.92,-270.00 L549.48,-270.00 L550.05,-270.00 L550.61,-270.00 L551.17,-270.00 L551.74,-270.00 L552.30,-270.00 L552.87,-270.00 L553.43,-270.00 L553.99,-270.00 L554.56,-270.00 L555.12,-270.00 L555.69,-270.00 L556.25,-270.00 L556.82,-270.00 L557.38,-270.00 L557.94,-270.00 L558.51,-270.00 L559.07,-270.00 L559.64,-270.00 L560.20,-270.00 L560.76,-270.00 L561.33,-270.00 L561.89,-270.00 L562.46,-270.00 L563.02,-270.00 L563.59,-270.00 L564.15,-270.00 L564.71,-270.00 L565.28,-270.00 L565.84,-270.00 L566.41,-270.00 L566.97,-270.00 L567.53,-270.00 L568.10,-270.00 L568.66,-270.00 L569.23,-270.00 L569.79,-270.00 L570.35,-270.00 L570.92,-270.00 L571.48,-270.00 L572.05,-270.00 L572.61,-270.00 L573.18,-270.00 L573.74,-270.00 L574.30,-270.00 L574.87,-270.00 L575.43,-270.00 L576.00,-270.00 L576.56,-270.00 L577.12,-270.00 L577.69,-270.00 L578.25,-270.00 L578.82,-270.00 L579.38,-270.00 L579.95,-270.00 L580.51,-270.00 L581.07,-270.00 L581.64,-270.00 L582.20,-270.00 L582.77,-270.00 L583.33,-270.00 L583.89,-270.00 L584.46,-270.00 L585.02,-270.00 L585.59,-270.00 L586.15,-270.00 L586.72,-270.00 L587.28,-270.00 L587.84,-270.00 L588.41,-270.00 L588.97,-270.00 L589.54,-270.00 L590.10,-270.00 L590.66,-270.00 L591.23,-270.00 L591.79,-270.00 L592.36,-270.00 L592.92,-270.00 L593.48,-270.00 L594.05,-270.00 L594.61,-270.00 L595.18,-270.00 L595.74,-270.00 L596.31,-270.00 L596.87,-270.00 L597.43,-270.00 L598.00,-270.00 L598.56,-270.00 L599.13,-270.00 L599.69,-270.00 L600.25,-270.00 L600.82,-270.00 L601.38,-270.00 L601.95,-270.00 L602.51,-270.00 L603.08,-270.00 L603.64,-270.00 L604.20,-270.00 L604.77,-270.00 L605.33,-270.00 L605.90,-270.00 L606.46,-270.00 L607.02,-270.00 L607.59,-270.00 L608.15,-270.00 L608.72,-270.00 L609.28,-270.00 L609.85,-270.00 L610.41,-270.00 L610.97,-270.00 L611.54,-270.00 L612.10,-270.00 L612.67,-270.00 L613.23,-270.00 L613.79,-270.00 L614.36,-270.00 L614.92,-270.00 L615.49,-270.00 L616.05,-270.00 L616.62,-270.00 L617.18,-270.00 L617.74,-270.00 L618.31,-270.00 L618.87,-270.00 L619.44,-270.00 L620.00,-270.00" style="stroke-width: 8; stroke: rgb(155, 155, 155); stroke-opacity: 1;"/><path d=" M0.00,128.50 L0.56,128.50 L1.13,128.50 L1.69,128.50 L2.26,128.50 L2.82,128.50 L3.38,128.50 L3.95,128.50 L4.51,128.50 L5.08,128.50 L5.64,128.50 L6.21,128.50 L6.77,128.50 L7.33,128.50 L7.90,128.50 L8.46,128.50 L9.03,128.50 L9.59,128.50 L10.15,128.50 L10.72,128.50 L11.28,128.50 L11.85,128.50 L12.41,128.50 L12.98,128.50 L13.54,128.50 L14.10,128.50 L14.67,128.50 L15.23,128.50 L15.80,128.50 L16.36,128.50 L16.92,128.50 L17.49,128.50 L18.05,128.50 L18.62,128.50 L19.18,128.50 L19.75,128.50 L20.31,128.50 L20.87,128.50 L21.44,128.50 L22.00,128.50 L22.57,128.50 L23.13,128.50 L23.69,128.50 L24.26,128.50 L24.82,128.50 L25.39,128.50 L25.95,128.50 L26.52,128.50 L27.08,128.50 L27.64,128.50 L28.21,128.50 L28.77,128.50 L29.34,128.50 L29.90,128.50 L30.46,128.50 L31.03,128.50 L31.59,128.50 L32.16,128.50 L32.72,128.50 L33.28,128.50 L33.85,128.50 L34.41,128.50 L34.98,128.50 L35.54,128.50 L36.11,128.50 L36.67,128.50 L37.23,128.50 L37.80,128.50 L38.36,128.50 L38.93,128.50 L39.49,128.50 L40.05,128.50 L40.62,128.50 L41.18,128.50 L41.75,128.50 L42.31,128.50 L42.88,128.50 L43.44,128.50 L44.00,128.50 L44.57,128.50 L45.13,128.50 L45.70,128.50 L46.26,128.50 L46.82,128.50 L47.39,128.50 L47.95,128.50 L48.52,128.50 L49.08,128.50 L49.65,128.50 L50.21,128.50 L50.77,128.50 L51.34,128.50 L51.90,128.50 L52.47,128.50 L53.03,128.50 L53.59,128.50 L54.16,128.50 L54.72,128.50 L55.29,128.50 L55.85,128.50 L56.41,128.50 L56.98,128.50 L57.54,128.50 L58.11,128.50 L58.67,128.50 L59.24,128.50 L59.80,128.50 L60.36,128.50 L60.93,128.50 L61.49,128.50 L62.06,128.50 L62.62,128.50 L63.18,128.50 L63.75,128.50 L64.31,128.50 L64.88,128.50 L65.44,128.50 L66.01,128.50 L66.57,128.50 L67.13,128.50 L67.70,128.50 L68.26,128.50 L68.83,128.50 L69.39,128.50 L69.95,128.50 L70.52,128.50 L71.08,128.50 L71.65,128.50 L72.21,128.50 L72.78,128.50 L73.34,128.50 L73.90,128.50 L74.47,128.50 L75.03,128.50 L75.60,128.50 L76.16,128.50 L76.72,128.50 L77.29,128.50 L77.85,128.50 L78.42,128.50 L78.98,128.50 L79.55,128.50 L80.11,128.50 L80.67,128.50 L81.24,128.50 L81.80,128.50 L82.37,128.50 L82.93,128.50 L83.49,128.50 L84.06,128.50 L84.62,128.50 L85.19,128.50 L85.75,128.50 L86.31,128.50 L86.88,128.50 L87.44,128.50 L88.01,128.50 L88.57,128.50 L89.14,128.50 L89.70,128.50 L90.26,128.50 L90.83,128.50 L91.39,128.50 L91.96,128.50 L92.52,128.50 L93.08,128.50 L93.65,128.50 L94.21,128.50 L94.78,128.50 L95.34,128.50 L95.91,128.50 L96.47,128.50 L97.03,128.50 L97.60,128.50 L98.16,128.50 L98.73,128.50 L99.29,128.50 L99.85,128.50 L100.42,128.50 L100.98,128.50 L101.55,128.50 L102.11,128.50 L102.68,128.50 L103.24,128.50 L103.80,128.50 L104.37,128.50 L104.93,128.50 L105.50,128.50 L106.06,128.50 L106.62,128.50 L107.19,128.50 L107.75,128.50 L108.32,128.50 L108.88,128.50 L109.44,128.50 L110.01,128.50 L110.57,128.50 L111.14,128.50 L111.70,128.50 L112.27,128.50 L112.83,128.50 L113.39,128.50 L113.96,128.50 L114.52,128.50 L115.09,128.50 L115.65,128.50 L116.21,128.50 L116.78,128.50 L117.34,128.50 L117.91,128.50 L118.47,128.50 L119.04,128.50 L119.60,128.50 L120.16,128.50 L120.73,128.50 L121.29,128.50 L121.86,128.50 L122.42,128.50 L122.98,128.50 L123.55,128.50 L124.11,128.50 L124.68,128.50 L125.24,128.50 L125.81,128.50 L126.37,128.50 L126.93,128.50 L127.50,128.50 L128.06,128.50 L128.63,128.50 L129.19,128.50 L129.75,128.50 L130.32,128.50 L130.88,128.50 L131.45,128.50 L132.01,128.50 L132.58,128.50 L133.14,128.50 L133.70,128.50 L134.27,128.50 L134.83,128.50 L135.40,128.50 L135.96,128.50 L136.52,128.50 L137.09,128.50 L137.65,128.50 L138.22,128.50 L138.78,128.50 L139.34,128.50 L139.91,128.50 L140.47,128.50 L141.04,128.50 L141.60,128.50 L142.17,128.50 L142.73,128.50 L143.29,128.50 L143.86,128.50 L144.42,128.50 L144.99,128.50 L145.55,128.50 L146.11,128.50 L146.68,128.50 L147.24,128.50 L147.81,128.50 L148.37,128.50 L148.94,128.50 L149.50,128.50 L150.06,128.50 L150.63,128.50 L151.19,128.50 L151.76,128.50 L152.32,128.50 L152.88,128.50 L153.45,128.50 L154.01,128.50 L154.58,128.50 L155.14,128.50 L155.71,128.50 L156.27,128.50 L156.83,128.50 L157.40,128.50 L157.96,128.50 L158.53,128.50 L159.09,128.50 L159.65,128.50 L160.22,128.50 L160.78,128.50 L161.35,128.50 L161.91,128.50 L162.47,128.50 L163.04,128.50 L163.60,128.50 L164.17,128.50 L164.73,128.50 L165.30,128.50 L165.86,128.50 L166.42,128.50 L166.99,128.50 L167.55,128.50 L168.12,128.50 L168.68,128.50 L169.24,128.50 L169.81,128.50 L170.37,128.50 L170.94,128.50 L171.50,128.50 L172.07,128.50 L172.63,128.50 L173.19,128.50 L173.76,128.50 L174.32,128.50 L174.89,128.50 L175.45,128.50 L176.01,128.50 L176.58,128.50 L177.14,128.50 L177.71,128.50 L178.27,128.50 L178.84,128.50 L179.40,128.50 L179.96,128.50 L180.53,128.50 L181.09,128.50 L181.66,128.50 L182.22,128.50 L182.78,128.50 L183.35,128.50 L183.91,128.50 L184.48,128.50 L185.04,128.50 L185.61,128.50 L186.17,128.50 L186.73,128.50 L187.30,128.50 L187.86,128.50 L188.43,128.50 L188.99,128.50 L189.55,128.50 L190.12,128.50 L190.68,128.50 L191.25,128.50 L191.81,128.50 L192.37,128.50 L192.94,128.50 L193.50,128.50 L194.07,128.50 L194.63,128.50 L195.20,128.50 L195.76,128.50 L196.32,128.50 L196.89,128.50 L197.45,128.50 L198.02,128.50 L198.58,128.50 L199.14,128.50 L199.71,128.50 L200.27,128.50 L200.84,128.50 L201.40,128.50 L201.97,128.50 L202.53,128.50 L203.09,128.50 L203.66,128.50 L204.22,128.50 L204.79,128.50 L205.35,128.50 L205.91,128.50 L206.48,128.50 L207.04,128.50 L207.61,128.50 L208.17,128.50 L208.74,128.50 L209.30,128.50 L209.86,128.50 L210.43,128.50 L210.99,128.50 L211.56,128.50 L212.12,128.50 L212.68,128.50 L213.25,128.50 L213.81,128.50 L214.38,128.50 L214.94,128.50 L215.51,128.50 L216.07,128.50 L216.63,128.50 L217.20,128.50 L217.76,128.50 L218.33,128.50 L218.89,128.50 L219.45,128.50 L220.02,128.50 L220.58,128.50 L221.15,128.50 L221.71,128.50 L222.27,128.50 L222.84,128.50 L223.40,128.50 L223.97,128.50 L224.53,128.50 L225.10,128.50 L225.66,128.50 L226.22,128.50 L226.79,128.50 L227.35,128.50 L227.92,128.50 L228.48,128.50 L229.04,128.50 L229.61,128.50 L230.17,128.50 L230.74,128.50 L231.30,128.50 L231.87,128.50 L232.43,128.50 L232.99,128.50 L233.56,128.50 L234.12,128.50 L234.69,128.50 L235.25,128.50 L235.81,128.50 L236.38,128.50 L236.94,128.50 L237.51,128.50 L238.07,128.50 L238.64,128.50 L239.20,128.50 L239.76,128.50 L240.33,128.50 L240.89,128.50 L241.46,128.50 L242.02,128.50 L242.58,128.50 L243.15,128.50 L243.71,128.50 L244.28,128.50 L244.84,128.50 L245.40,128.50 L245.97,128.50 L246.53,128.50 L247.10,128.50 L247.66,128.50 L248.23,128.50 L248.79,128.50 L249.35,128.50 L249.92,128.50 L250.48,128.50 L251.05,128.50 L251.61,128.50 L252.17,128.50 L252.74,128.50 L253.30,128.50 L253.87,128.50 L254.43,128.50 L255.00,128.50 L255.56,128.50 L256.12,128.50 L256.69,128.50 L257.25,128.50 L257.82,128.50 L258.38,128.50 L258.94,128.50 L259.51,128.50 L260.07,128.50 L260.64,128.50 L261.20,128.50 L261.77,128.50 L262.33,128.50 L262.89,128.50 L263.46,128.50 L264.02,128.50 L264.59,128.50 L265.15,128.50 L265.71,128.50 L266.28,128.50 L266.84,128.50 L267.41,128.50 L267.97,128.50 L268.54,128.50 L269.10,128.50 L269.66,128.50 L270.23,128.50 L270.79,128.50 L271.36,128.50 L271.92,128.50 L272.48,128.50 L273.05,128.50 L273.61,128.50 L274.18,128.50 L274.74,128.50 L275.30,128.50 L275.87,128.50 L276.43,128.50 L277.00,128.50 L277.56,128.50 L278.13,128.50 L278.69,128.50 L279.25,128.50 L279.82,128.50 L280.38,128.50 L280.95,128.50 L281.51,128.50 L282.07,128.50 L282.64,128.50 L283.20,128.50 L283.77,128.50 L284.33,128.50 L284.90,128.50 L285.46,128.50 L286.02,128.50 L286.59,128.50 L287.15,128.50 L287.72,128.50 L288.28,128.50 L288.84,128.50 L289.41,128.50 L289.97,128.50 L290.54,128.50 L291.10,128.50 L291.67,128.50 L292.23,128.50 L292.79,128.50 L293.36,128.50 L293.92,128.50 L294.49,128.50 L295.05,128.50 L295.61,128.50 L296.18,128.50 L296.74,128.50 L297.31,128.50 L297.87,128.50 L298.43,128.50 L299.00,128.50 L299.56,128.50 L300.13,128.50 L300.69,128.50 L301.26,128.50 L301.82,128.50 L302.38,128.50 L302.95,128.50 L303.51,128.50 L304.08,128.50 L304.64,128.50 L305.20,128.50 L305.77,128.50 L306.33,128.50 L306.90,128.50 L307.46,128.50 L308.03,128.50 L308.59,128.50 L309.15,128.50 L309.72,128.50 L310.28,128.50 L310.85,128.50 L311.41,128.50 L311.97,128.50 L312.54,128.50 L313.10,128.50 L313.67,128.50 L314.23,128.50 L314.80,128.50 L315.36,128.50 L315.92,128.50 L316.49,128.50 L317.05,128.50 L317.62,128.50 L318.18,128.50 L318.74,128.50 L319.31,128.50 L319.87,128.50 L320.44,128.50 L321.00,128.50 L321.57,128.50 L322.13,128.50 L322.69,128.50 L323.26,128.50 L323.82,128.50 L324.39,128.50 L324.95,128.50 L325.51,128.50 L326.08,128.50 L326.64,128.50 L327.21,128.50 L327.77,128.50 L328.33,128.50 L328.90,128.50 L329.46,128.50 L330.03,128.50 L330.59,128.50 L331.16,128.50 L331.72,128.50 L332.28,128.50 L332.85,128.50 L333.41,128.50 L333.98,128.50 L334.54,128.50 L335.10,128.50 L335.67,128.50 L336.23,128.50 L336.80,128.50 L337.36,128.50 L337.93,128.50 L338.49,128.50 L339.05,128.50 L339.62,128.50 L340.18,128.50 L340.75,128.50 L341.31,128.50 L341.87,128.50 L342.44,128.50 L343.00,128.50 L343.57,128.50 L344.13,128.50 L344.70,128.50 L345.26,128.50 L345.82,128.50 L346.39,128.50 L346.95,128.50 L347.52,128.50 L348.08,128.50 L348.64,128.50 L349.21,128.50 L349.77,128.50 L350.34,128.50 L350.90,128.50 L351.46,128.50 L352.03,128.50 L352.59,128.50 L353.16,128.50 L353.72,128.50 L354.29,128.50 L354.85,128.50 L355.41,128.50 L355.98,128.50 L356.54,128.50 L357.11,128.50 L357.67,128.50 L358.23,128.50 L358.80,128.50 L359.36,128.50 L359.93,128.50 L360.49,128.50 L361.06,128.50 L361.62,128.50 L362.18,128.50 L362.75,128.50 L363.31,128.50 L363.88,128.50 L364.44,128.50 L365.00,128.50 L365.57,128.50 L366.13,128.50 L366.70,128.50 L367.26,128.50 L367.83,128.50 L368.39,128.50 L368.95,128.50 L369.52,128.50 L370.08,128.50 L370.65,128.50 L371.21,128.50 L371.77,128.50 L372.34,128.50 L372.90,128.50 L373.47,128.50 L374.03,128.50 L374.60,128.50 L375.16,128.50 L375.72,128.50 L376.29,128.50 L376.85,128.50 L377.42,128.50 L377.98,128.50 L378.54,128.50 L379.11,128.50 L379.67,128.50 L380.24,128.50 L380.80,128.50 L381.36,128.50 L381.93,128.50 L382.49,128.50 L383.06,128.50 L383.62,128.50 L384.19,128.50 L384.75,128.50 L385.31,128.50 L385.88,128.50 L386.44,128.50 L387.01,128.50 L387.57,128.50 L388.13,128.50 L388.70,128.50 L389.26,128.50 L389.83,128.50 L390.39,128.50 L390.96,128.50 L391.52,128.50 L392.08,128.50 L392.65,128.50 L393.21,128.50 L393.78,128.50 L394.34,128.50 L394.90,128.50 L395.47,128.50 L396.03,128.50 L396.60,128.50 L397.16,128.50 L397.73,128.50 L398.29,128.50 L398.85,128.50 L399.42,128.50 L399.98,128.50 L400.55,128.50 L401.11,128.50 L401.67,128.50 L402.24,128.50 L402.80,128.50 L403.37,128.50 L403.93,128.50 L404.49,128.50 L405.06,128.50 L405.62,128.50 L406.19,128.50 L406.75,128.50 L407.32,128.50 L407.88,128.50 L408.44,128.50 L409.01,128.50 L409.57,128.50 L410.14,128.50 L410.70,128.50 L411.26,128.50 L411.83,128.50 L412.39,128.50 L412.96,128.50 L413.52,128.50 L414.09,128.50 L414.65,128.50 L415.21,128.50 L415.78,128.50 L416.34,128.50 L416.91,128.50 L417.47,128.50 L418.03,128.50 L418.60,128.50 L419.16,128.50 L419.73,128.50 L420.29,128.50 L420.86,128.50 L421.42,128.50 L421.98,128.50 L422.55,128.50 L423.11,128.50 L423.68,128.50 L424.24,128.50 L424.80,128.50 L425.37,128.50 L425.93,128.50 L426.50,128.50 L427.06,128.50 L427.63,128.50 L428.19,128.50 L428.75,128.50 L429.32,128.50 L429.88,128.50 L430.45,128.50 L431.01,128.50 L431.57,128.50 L432.14,128.50 L432.70,128.50 L433.27,128.50 L433.83,128.50 L434.39,128.50 L434.96,128.50 L435.52,128.50 L436.09,128.50 L436.65,128.50 L437.22,128.50 L437.78,128.50 L438.34,128.50 L438.91,128.50 L439.47,128.50 L440.04,128.50 L440.60,128.50 L441.16,128.50 L441.73,128.50 L442.29,128.50 L442.86,128.50 L443.42,128.50 L443.99,128.50 L444.55,128.50 L445.11,128.50 L445.68,128.50 L446.24,128.50 L446.81,128.50 L447.37,128.50 L447.93,128.50 L448.50,128.50 L449.06,128.50 L449.63,128.50 L450.19,128.50 L450.76,128.50 L451.32,128.50 L451.88,128.50 L452.45,128.50 L453.01,128.50 L453.58,128.50 L454.14,128.50 L454.70,128.50 L455.27,128.50 L455.83,128.50 L456.40,128.50 L456.96,128.50 L457.53,128.50 L458.09,128.50 L458.65,128.50 L459.22,128.50 L459.78,128.50 L460.35,128.50 L460.91,128.50 L461.47,128.50 L462.04,128.50 L462.60,128.50 L463.17,128.50 L463.73,128.50 L464.29,128.50 L464.86,128.50 L465.42,128.50 L465.99,128.50 L466.55,128.50 L467.12,128.50 L467.68,128.50 L468.24,128.50 L468.81,128.50 L469.37,128.50 L469.94,128.50 L470.50,128.50 L471.06,128.50 L471.63,128.50 L472.19,128.50 L472.76,128.50 L473.32,128.50 L473.89,128.50 L474.45,128.50 L475.01,128.50 L475.58,128.50 L476.14,128.50 L476.71,128.50 L477.27,128.50 L477.83,128.50 L478.40,128.50 L478.96,128.50 L479.53,128.50 L480.09,128.50 L480.66,128.50 L481.22,128.50 L481.78,128.50 L482.35,128.50 L482.91,128.50 L483.48,128.50 L484.04,128.50 L484.60,128.50 L485.17,128.50 L485.73,128.50 L486.30,128.50 L486.86,128.50 L487.42,128.50 L487.99,128.50 L488.55,128.50 L489.12,128.50 L489.68,128.50 L490.25,128.50 L490.81,128.50 L491.37,128.50 L491.94,128.50 L492.50,128.50 L493.07,128.50 L493.63,128.50 L494.19,128.50 L494.76,128.50 L495.32,128.50 L495.89,128.50 L496.45,128.50 L497.02,128.50 L497.58,128.50 L498.14,128.50 L498.71,128.50 L499.27,128.50 L499.84,128.50 L500.40,128.50 L500.96,128.50 L501.53,128.50 L502.09,128.50 L502.66,128.50 L503.22,128.50 L503.79,128.50 L504.35,128.50 L504.91,128.50 L505.48,128.50 L506.04,128.50 L506.61,128.50 L507.17,128.50 L507.73,128.50 L508.30,128.50 L508.86,128.50 L509.43,128.50 L509.99,128.50 L510.56,128.50 L511.12,128.50 L511.68,128.50 L512.25,128.50 L512.81,128.50 L513.38,128.50 L513.94,128.50 L514.50,128.50 L515.07,128.50 L515.63,128.50 L516.20,128.50 L516.76,128.50 L517.32,128.50 L517.89,128.50 L518.45,128.50 L519.02,128.50 L519.58,128.50 L520.15,128.50 L520.71,128.50 L521.27,128.50 L521.84,128.50 L522.40,128.50 L522.97,128.50 L523.53,128.50 L524.09,128.50 L524.66,128.50 L525.22,128.50 L525.79,128.50 L526.35,128.50 L526.92,128.50 L527.48,128.50 L528.04,128.50 L528.61,128.50 L529.17,128.50 L529.74,128.50 L530.30,128.50 L530.86,128.50 L531.43,128.50 L531.99,128.50 L532.56,128.50 L533.12,128.50 L533.69,128.50 L534.25,128.50 L534.81,128.50 L535.38,128.50 L535.94,128.50 L536.51,128.50 L537.07,128.50 L537.63,128.50 L538.20,128.50 L538.76,128.50 L539.33,128.50 L539.89,128.50 L540.45,128.50 L541.02,128.50 L541.58,128.50 L542.15,128.50 L542.71,128.50 L543.28,128.50 L543.84,128.50 L544.40,128.50 L544.97,128.50 L545.53,128.50 L546.10,128.50 L546.66,128.50 L547.22,128.50 L547.79,128.50 L548.35,128.50 L548.92,128.50 L549.48,128.50 L550.05,128.50 L550.61,128.50 L551.17,128.50 L551.74,128.50 L552.30,128.50 L552.87,128.50 L553.43,128.50 L553.99,128.50 L554.56,128.50 L555.12,128.50 L555.69,128.50 L556.25,128.50 L556.82,128.50 L557.38,128.50 L557.94,128.50 L558.51,128.50 L559.07,128.50 L559.64,128.50 L560.20,128.50 L560.76,128.50 L561.33,128.50 L561.89,128.50 L562.46,128.50 L563.02,128.50 L563.59,128.50 L564.15,128.50 L564.71,128.50 L565.28,128.50 L565.84,128.50 L566.41,128.50 L566.97,128.50 L567.53,128.50 L568.10,128.50 L568.66,128.50 L569.23,128.50 L569.79,128.50 L570.35,128.50 L570.92,128.50 L571.48,128.50 L572.05,128.50 L572.61,128.50 L573.18,128.50 L573.74,128.50 L574.30,128.50 L574.87,128.50 L575.43,128.50 L576.00,128.50 L576.56,128.50 L577.12,128.50 L577.69,128.50 L578.25,128.50 L578.82,128.50 L579.38,128.50 L579.95,128.50 L580.51,128.50 L581.07,128.50 L581.64,128.50 L582.20,128.50 L582.77,128.50 L583.33,128.50 L583.89,128.50 L584.46,128.50 L585.02,128.50 L585.59,128.50 L586.15,128.50 L586.72,128.50 L587.28,128.50 L587.84,128.50 L588.41,128.50 L588.97,128.50 L589.54,128.50 L590.10,128.50 L590.66,128.50 L591.23,128.50 L591.79,128.50 L592.36,128.50 L592.92,128.50 L593.48,128.50 L594.05,128.50 L594.61,128.50 L595.18,128.50 L595.74,128.50 L596.31,128.50 L596.87,128.50 L597.43,128.50 L598.00,128.50 L598.56,128.50 L599.13,128.50 L599.69,128.50 L600.25,128.50 L600.82,128.50 L601.38,128.50 L601.95,128.50 L602.51,128.50 L603.08,128.50 L603.64,128.50 L604.20,128.50 L604.77,128.50 L605.33,128.50 L605.90,128.50 L606.46,128.50 L607.02,128.50 L607.59,128.50 L608.15,128.50 L608.72,128.50 L609.28,128.50 L609.85,128.50 L610.41,128.50 L610.97,128.50 L611.54,128.50 L612.10,128.50 L612.67,128.50 L613.23,128.50 L613.79,128.50 L614.36,128.50 L614.92,128.50 L615.49,128.50 L616.05,128.50 L616.62,128.50 L617.18,128.50 L617.74,128.50 L618.31,128.50 L618.87,128.50 L619.44,128.50 L620.00,128.50" style="stroke-width: 2; stroke: rgb(208, 2, 27); stroke-opacity: 1;"/><path d=" M0.00,393.10 L0.56,392.59 L1.13,392.08 L1.69,391.58 L2.26,391.07 L2.82,390.56 L3.38,390.05 L3.95,389.55 L4.51,389.04 L5.08,388.53 L5.64,388.02 L6.21,387.51 L6.77,387.01 L7.33,386.50 L7.90,385.99 L8.46,385.48 L9.03,384.98 L9.59,384.47 L10.15,383.96 L10.72,383.45 L11.28,382.95 L11.85,382.44 L12.41,381.93 L12.98,381.42 L13.54,380.91 L14.10,380.41 L14.67,379.90 L15.23,379.39 L15.80,378.88 L16.36,378.38 L16.92,377.87 L17.49,377.36 L18.05,376.85 L18.62,376.34 L19.18,375.84 L19.75,375.33 L20.31,374.82 L20.87,374.31 L21.44,373.81 L22.00,373.30 L22.57,372.79 L23.13,372.28 L23.69,371.78 L24.26,371.27 L24.82,370.76 L25.39,370.25 L25.95,369.74 L26.52,369.24 L27.08,368.73 L27.64,368.22 L28.21,367.71 L28.77,367.21 L29.34,366.70 L29.90,366.19 L30.46,365.68 L31.03,365.17 L31.59,364.67 L32.16,364.16 L32.72,363.65 L33.28,363.14 L33.85,362.64 L34.41,362.13 L34.98,361.62 L35.54,361.11 L36.11,360.61 L36.67,360.10 L37.23,359.59 L37.80,359.08 L38.36,358.57 L38.93,358.07 L39.49,357.56 L40.05,357.05 L40.62,356.54 L41.18,356.04 L41.75,355.53 L42.31,355.02 L42.88,354.51 L43.44,354.00 L44.00,353.50 L44.57,352.99 L45.13,352.48 L45.70,351.97 L46.26,351.47 L46.82,350.96 L47.39,350.45 L47.95,349.94 L48.52,349.43 L49.08,348.93 L49.65,348.42 L50.21,347.91 L50.77,347.40 L51.34,346.90 L51.90,346.39 L52.47,345.88 L53.03,345.37 L53.59,344.87 L54.16,344.36 L54.72,343.85 L55.29,343.34 L55.85,342.83 L56.41,342.33 L56.98,341.82 L57.54,341.31 L58.11,340.80 L58.67,340.30 L59.24,339.79 L59.80,339.28 L60.36,338.77 L60.93,338.26 L61.49,337.76 L62.06,337.25 L62.62,336.74 L63.18,336.23 L63.75,335.73 L64.31,335.22 L64.88,334.71 L65.44,334.20 L66.01,333.70 L66.57,333.19 L67.13,332.68 L67.70,332.17 L68.26,331.66 L68.83,331.16 L69.39,330.65 L69.95,330.14 L70.52,329.63 L71.08,329.13 L71.65,328.62 L72.21,328.11 L72.78,327.60 L73.34,327.09 L73.90,326.59 L74.47,326.08 L75.03,325.57 L75.60,325.06 L76.16,324.56 L76.72,324.05 L77.29,323.54 L77.85,323.03 L78.42,322.52 L78.98,322.02 L79.55,321.51 L80.11,321.00 L80.67,320.49 L81.24,319.99 L81.80,319.48 L82.37,318.97 L82.93,318.46 L83.49,317.96 L84.06,317.45 L84.62,316.94 L85.19,316.43 L85.75,315.92 L86.31,315.42 L86.88,314.91 L87.44,314.40 L88.01,313.89 L88.57,313.39 L89.14,312.88 L89.70,312.37 L90.26,311.86 L90.83,311.35 L91.39,310.85 L91.96,310.34 L92.52,309.83 L93.08,309.32 L93.65,308.82 L94.21,308.31 L94.78,307.80 L95.34,307.29 L95.91,306.79 L96.47,306.28 L97.03,305.77 L97.60,305.26 L98.16,304.75 L98.73,304.25 L99.29,303.74 L99.85,303.23 L100.42,302.72 L100.98,302.22 L101.55,301.71 L102.11,301.20 L102.68,300.69 L103.24,300.18 L103.80,299.68 L104.37,299.17 L104.93,298.66 L105.50,298.15 L106.06,297.65 L106.62,297.14 L107.19,296.63 L107.75,296.12 L108.32,295.62 L108.88,295.11 L109.44,294.60 L110.01,294.09 L110.57,293.58 L111.14,293.08 L111.70,292.57 L112.27,292.06 L112.83,291.55 L113.39,291.05 L113.96,290.54 L114.52,290.03 L115.09,289.52 L115.65,289.01 L116.21,288.51 L116.78,288.00 L117.34,287.49 L117.91,286.98 L118.47,286.48 L119.04,285.97 L119.60,285.46 L120.16,284.95 L120.73,284.44 L121.29,283.94 L121.86,283.43 L122.42,282.92 L122.98,282.41 L123.55,281.91 L124.11,281.40 L124.68,280.89 L125.24,280.38 L125.81,279.88 L126.37,279.37 L126.93,278.86 L127.50,278.35 L128.06,277.84 L128.63,277.34 L129.19,276.83 L129.75,276.32 L130.32,275.81 L130.88,275.31 L131.45,274.80 L132.01,274.29 L132.58,273.78 L133.14,273.27 L133.70,272.77 L134.27,272.26 L134.83,271.75 L135.40,271.24 L135.96,270.74 L136.52,270.23 L137.09,269.72 L137.65,269.21 L138.22,268.71 L138.78,268.20 L139.34,267.69 L139.91,267.18 L140.47,266.67 L141.04,266.17 L141.60,265.66 L142.17,265.15 L142.73,264.64 L143.29,264.14 L143.86,263.63 L144.42,263.12 L144.99,262.61 L145.55,262.10 L146.11,261.60 L146.68,261.09 L147.24,260.58 L147.81,260.07 L148.37,259.57 L148.94,259.06 L149.50,258.55 L150.06,258.04 L150.63,257.53 L151.19,257.03 L151.76,256.52 L152.32,256.01 L152.88,255.50 L153.45,255.00 L154.01,254.49 L154.58,253.98 L155.14,253.47 L155.71,252.97 L156.27,252.46 L156.83,251.95 L157.40,251.44 L157.96,250.93 L158.53,250.43 L159.09,249.92 L159.65,249.41 L160.22,248.90 L160.78,248.40 L161.35,247.89 L161.91,247.38 L162.47,246.87 L163.04,246.36 L163.60,245.86 L164.17,245.35 L164.73,244.84 L165.30,244.33 L165.86,243.83 L166.42,243.32 L166.99,242.81 L167.55,242.30 L168.12,241.80 L168.68,241.29 L169.24,240.78 L169.81,240.27 L170.37,239.76 L170.94,239.26 L171.50,238.75 L172.07,238.24 L172.63,237.73 L173.19,237.23 L173.76,236.72 L174.32,236.21 L174.89,235.70 L175.45,235.19 L176.01,234.69 L176.58,234.18 L177.14,233.67 L177.71,233.16 L178.27,232.66 L178.84,232.15 L179.40,231.64 L179.96,231.13 L180.53,230.63 L181.09,230.12 L181.66,229.61 L182.22,229.10 L182.78,228.59 L183.35,228.09 L183.91,227.58 L184.48,227.07 L185.04,226.56 L185.61,226.06 L186.17,225.55 L186.73,225.04 L187.30,224.53 L187.86,224.02 L188.43,223.52 L188.99,223.01 L189.55,222.50 L190.12,221.99 L190.68,221.49 L191.25,220.98 L191.81,220.47 L192.37,219.96 L192.94,219.45 L193.50,218.95 L194.07,218.44 L194.63,217.93 L195.20,217.42 L195.76,216.92 L196.32,216.41 L196.89,215.90 L197.45,215.39 L198.02,214.89 L198.58,214.38 L199.14,213.87 L199.71,213.36 L200.27,212.85 L200.84,212.35 L201.40,211.84 L201.97,211.33 L202.53,210.82 L203.09,210.32 L203.66,209.81 L204.22,209.30 L204.79,208.79 L205.35,208.28 L205.91,207.78 L206.48,207.27 L207.04,206.76 L207.61,206.25 L208.17,205.75 L208.74,205.24 L209.30,204.73 L209.86,204.22 L210.43,203.72 L210.99,203.21 L211.56,202.70 L212.12,202.19 L212.68,201.68 L213.25,201.18 L213.81,200.67 L214.38,200.16 L214.94,199.65 L215.51,199.15 L216.07,198.64 L216.63,198.13 L217.20,197.62 L217.76,197.11 L218.33,196.61 L218.89,196.10 L219.45,195.59 L220.02,195.08 L220.58,194.58 L221.15,194.07 L221.71,193.56 L222.27,193.05 L222.84,192.54 L223.40,192.04 L223.97,191.53 L224.53,191.02 L225.10,190.51 L225.66,190.01 L226.22,189.50 L226.79,188.99 L227.35,188.48 L227.92,187.98 L228.48,187.47 L229.04,186.96 L229.61,186.45 L230.17,185.94 L230.74,185.44 L231.30,184.93 L231.87,184.42 L232.43,183.91 L232.99,183.41 L233.56,182.90 L234.12,182.39 L234.69,181.88 L235.25,181.37 L235.81,180.87 L236.38,180.36 L236.94,179.85 L237.51,179.34 L238.07,178.84 L238.64,178.33 L239.20,177.82 L239.76,177.31 L240.33,176.81 L240.89,176.30 L241.46,175.79 L242.02,175.28 L242.58,174.77 L243.15,174.27 L243.71,173.76 L244.28,173.25 L244.84,172.74 L245.40,172.24 L245.97,171.73 L246.53,171.22 L247.10,170.71 L247.66,170.20 L248.23,169.70 L248.79,169.19 L249.35,168.68 L249.92,168.17 L250.48,167.67 L251.05,167.16 L251.61,166.65 L252.17,166.14 L252.74,165.64 L253.30,165.13 L253.87,164.62 L254.43,164.11 L255.00,163.60 L255.56,163.10 L256.12,162.59 L256.69,162.08 L257.25,161.57 L257.82,161.07 L258.38,160.56 L258.94,160.05 L259.51,159.54 L260.07,159.03 L260.64,158.53 L261.20,158.02 L261.77,157.51 L262.33,157.00 L262.89,156.50 L263.46,155.99 L264.02,155.48 L264.59,154.97 L265.15,154.46 L265.71,153.96 L266.28,153.45 L266.84,152.94 L267.41,152.43 L267.97,151.93 L268.54,151.42 L269.10,150.91 L269.66,150.40 L270.23,149.90 L270.79,149.39 L271.36,148.88 L271.92,148.37 L272.48,147.86 L273.05,147.36 L273.61,146.85 L274.18,146.34 L274.74,145.83 L275.30,145.33 L275.87,144.82 L276.43,144.31 L277.00,143.80 L277.56,143.29 L278.13,142.79 L278.69,142.28 L279.25,141.77 L279.82,141.26 L280.38,140.76 L280.95,140.25 L281.51,139.74 L282.07,139.23 L282.64,138.73 L283.20,138.22 L283.77,137.71 L284.33,137.20 L284.90,136.69 L285.46,136.19 L286.02,135.68 L286.59,135.17 L287.15,134.66 L287.72,134.16 L288.28,133.65 L288.84,133.14 L289.41,132.63 L289.97,132.12 L290.54,131.62 L291.10,131.11 L291.67,130.60 L292.23,130.09 L292.79,129.59 L293.36,129.08 L293.92,128.57 L294.49,128.06 L295.05,127.55 L295.61,127.05 L296.18,126.54 L296.74,126.03 L297.31,125.52 L297.87,125.02 L298.43,124.51 L299.00,124.00 L299.56,123.49 L300.13,122.99 L300.69,122.48 L301.26,121.97 L301.82,121.46 L302.38,120.95 L302.95,120.45 L303.51,119.94 L304.08,119.43 L304.64,118.92 L305.20,118.42 L305.77,117.91 L306.33,117.40 L306.90,116.89 L307.46,116.38 L308.03,115.88 L308.59,115.37 L309.15,114.86 L309.72,114.35 L310.28,113.85 L310.85,113.34 L311.41,112.83 L311.97,112.32 L312.54,111.82 L313.10,111.31 L313.67,110.80 L314.23,110.29 L314.80,109.78 L315.36,109.28 L315.92,108.77 L316.49,108.26 L317.05,107.75 L317.62,107.25 L318.18,106.74 L318.74,106.23 L319.31,105.72 L319.87,105.21 L320.44,104.71 L321.00,104.20 L321.57,103.69 L322.13,103.18 L322.69,102.68 L323.26,102.17 L323.82,101.66 L324.39,101.15 L324.95,100.65 L325.51,100.14 L326.08,99.63 L326.64,99.12 L327.21,98.61 L327.77,98.11 L328.33,97.60 L328.90,97.09 L329.46,96.58 L330.03,96.08 L330.59,95.57 L331.16,95.06 L331.72,94.55 L332.28,94.04 L332.85,93.54 L333.41,93.03 L333.98,92.52 L334.54,92.01 L335.10,91.51 L335.67,91.00 L336.23,90.49 L336.80,89.98 L337.36,89.47 L337.93,88.97 L338.49,88.46 L339.05,87.95 L339.62,87.44 L340.18,86.94 L340.75,86.43 L341.31,85.92 L341.87,85.41 L342.44,84.91 L343.00,84.40 L343.57,83.89 L344.13,83.38 L344.70,82.87 L345.26,82.37 L345.82,81.86 L346.39,81.35 L346.95,80.84 L347.52,80.34 L348.08,79.83 L348.64,79.32 L349.21,78.81 L349.77,78.30 L350.34,77.80 L350.90,77.29 L351.46,76.78 L352.03,76.27 L352.59,75.77 L353.16,75.26 L353.72,74.75 L354.29,74.24 L354.85,73.74 L355.41,73.23 L355.98,72.72 L356.54,72.21 L357.11,71.70 L357.67,71.20 L358.23,70.69 L358.80,70.18 L359.36,69.67 L359.93,69.17 L360.49,68.66 L361.06,68.15 L361.62,67.64 L362.18,67.13 L362.75,66.63 L363.31,66.12 L363.88,65.61 L364.44,65.10 L365.00,64.60 L365.57,64.09 L366.13,63.58 L366.70,63.07 L367.26,62.56 L367.83,62.06 L368.39,61.55 L368.95,61.04 L369.52,60.53 L370.08,60.03 L370.65,59.52 L371.21,59.01 L371.77,58.50 L372.34,58.00 L372.90,57.49 L373.47,56.98 L374.03,56.47 L374.60,55.96 L375.16,55.46 L375.72,54.95 L376.29,54.44 L376.85,53.93 L377.42,53.43 L377.98,52.92 L378.54,52.41 L379.11,51.90 L379.67,51.39 L380.24,50.89 L380.80,50.38 L381.36,49.87 L381.93,49.36 L382.49,48.86 L383.06,48.35 L383.62,47.84 L384.19,47.33 L384.75,46.83 L385.31,46.32 L385.88,45.81 L386.44,45.30 L387.01,44.79 L387.57,44.29 L388.13,43.78 L388.70,43.27 L389.26,42.76 L389.83,42.26 L390.39,41.75 L390.96,41.24 L391.52,40.73 L392.08,40.22 L392.65,39.72 L393.21,39.21 L393.78,38.70 L394.34,38.19 L394.90,37.69 L395.47,37.18 L396.03,36.67 L396.60,36.16 L397.16,35.66 L397.73,35.15 L398.29,34.64 L398.85,34.13 L399.42,33.62 L399.98,33.12 L400.55,32.61 L401.11,32.10 L401.67,31.59 L402.24,31.09 L402.80,30.58 L403.37,30.07 L403.93,29.56 L404.49,29.05 L405.06,28.55 L405.62,28.04 L406.19,27.53 L406.75,27.02 L407.32,26.52 L407.88,26.01 L408.44,25.50 L409.01,24.99 L409.57,24.48 L410.14,23.98 L410.70,23.47 L411.26,22.96 L411.83,22.45 L412.39,21.95 L412.96,21.44 L413.52,20.93 L414.09,20.42 L414.65,19.92 L415.21,19.41 L415.78,18.90 L416.34,18.39 L416.91,17.88 L417.47,17.38 L418.03,16.87 L418.60,16.36 L419.16,15.85 L419.73,15.35 L420.29,14.84 L420.86,14.33 L421.42,13.82 L421.98,13.31 L422.55,12.81 L423.11,12.30 L423.68,11.79 L424.24,11.28 L424.80,10.78 L425.37,10.27 L425.93,9.76 L426.50,9.25 L427.06,8.75 L427.63,8.24 L428.19,7.73 L428.75,7.22 L429.32,6.71 L429.88,6.21 L430.45,5.70 L431.01,5.19 L431.57,4.68 L432.14,4.18 L432.70,3.67 L433.27,3.16 L433.83,2.65 L434.39,2.14 L434.96,1.64 L435.52,1.13 L436.09,0.62 L436.65,0.11 L437.22,-0.39 L437.78,-0.90 L438.34,-1.41 L438.91,-1.92 L439.47,-2.43 L440.04,-2.93 L440.60,-3.44 L441.16,-3.95 L441.73,-4.46 L442.29,-4.96 L442.86,-5.47 L443.42,-5.98 L443.99,-6.49 L444.55,-6.99 L445.11,-7.50 L445.68,-8.01 L446.24,-8.52 L446.81,-9.03 L447.37,-9.53 L447.93,-10.04 L448.50,-10.55 L449.06,-11.06 L449.63,-11.56 L450.19,-12.07 L450.76,-12.58 L451.32,-13.09 L451.88,-13.60 L452.45,-14.10 L453.01,-14.61 L453.58,-15.12 L454.14,-15.63 L454.70,-16.13 L455.27,-16.64 L455.83,-17.15 L456.40,-17.66 L456.96,-18.16 L457.53,-18.67 L458.09,-19.18 L458.65,-19.69 L459.22,-20.20 L459.78,-20.70 L460.35,-21.21 L460.91,-21.72 L461.47,-22.23 L462.04,-22.73 L462.60,-23.24 L463.17,-23.75 L463.73,-24.26 L464.29,-24.77 L464.86,-25.27 L465.42,-25.78 L465.99,-26.29 L466.55,-26.80 L467.12,-27.30 L467.68,-27.81 L468.24,-28.32 L468.81,-28.83 L469.37,-29.33 L469.94,-29.84 L470.50,-30.35 L471.06,-30.86 L471.63,-31.37 L472.19,-31.87 L472.76,-32.38 L473.32,-32.89 L473.89,-33.40 L474.45,-33.90 L475.01,-34.41 L475.58,-34.92 L476.14,-35.43 L476.71,-35.94 L477.27,-36.44 L477.83,-36.95 L478.40,-37.46 L478.96,-37.97 L479.53,-38.47 L480.09,-38.98 L480.66,-39.49 L481.22,-40.00 L481.78,-40.51 L482.35,-41.01 L482.91,-41.52 L483.48,-42.03 L484.04,-42.54 L484.60,-43.04 L485.17,-43.55 L485.73,-44.06 L486.30,-44.57 L486.86,-45.07 L487.42,-45.58 L487.99,-46.09 L488.55,-46.60 L489.12,-47.11 L489.68,-47.61 L490.25,-48.12 L490.81,-48.63 L491.37,-49.14 L491.94,-49.64 L492.50,-50.15 L493.07,-50.66 L493.63,-51.17 L494.19,-51.68 L494.76,-52.18 L495.32,-52.69 L495.89,-53.20 L496.45,-53.71 L497.02,-54.21 L497.58,-54.72 L498.14,-55.23 L498.71,-55.74 L499.27,-56.24 L499.84,-56.75 L500.40,-57.26 L500.96,-57.77 L501.53,-58.28 L502.09,-58.78 L502.66,-59.29 L503.22,-59.80 L503.79,-60.31 L504.35,-60.81 L504.91,-61.32 L505.48,-61.83 L506.04,-62.34 L506.61,-62.85 L507.17,-63.35 L507.73,-63.86 L508.30,-64.37 L508.86,-64.88 L509.43,-65.38 L509.99,-65.89 L510.56,-66.40 L511.12,-66.91 L511.68,-67.42 L512.25,-67.92 L512.81,-68.43 L513.38,-68.94 L513.94,-69.45 L514.50,-69.95 L515.07,-70.46 L515.63,-70.97 L516.20,-71.48 L516.76,-71.98 L517.32,-72.49 L517.89,-73.00 L518.45,-73.51 L519.02,-74.02 L519.58,-74.52 L520.15,-75.03 L520.71,-75.54 L521.27,-76.05 L521.84,-76.55 L522.40,-77.06 L522.97,-77.57 L523.53,-78.08 L524.09,-78.59 L524.66,-79.09 L525.22,-79.60 L525.79,-80.11 L526.35,-80.62 L526.92,-81.12 L527.48,-81.63 L528.04,-82.14 L528.61,-82.65 L529.17,-83.15 L529.74,-83.66 L530.30,-84.17 L530.86,-84.68 L531.43,-85.19 L531.99,-85.69 L532.56,-86.20 L533.12,-86.71 L533.69,-87.22 L534.25,-87.72 L534.81,-88.23 L535.38,-88.74 L535.94,-89.25 L536.51,-89.76 L537.07,-90.26 L537.63,-90.77 L538.20,-91.28 L538.76,-91.79 L539.33,-92.29 L539.89,-92.80 L540.45,-93.31 L541.02,-93.82 L541.58,-94.32 L542.15,-94.83 L542.71,-95.34 L543.28,-95.85 L543.84,-96.36 L544.40,-96.86 L544.97,-97.37 L545.53,-97.88 L546.10,-98.39 L546.66,-98.89 L547.22,-99.40 L547.79,-99.91 L548.35,-100.42 L548.92,-100.93 L549.48,-101.43 L550.05,-101.94 L550.61,-102.45 L551.17,-102.96 L551.74,-103.46 L552.30,-103.97 L552.87,-104.48 L553.43,-104.99 L553.99,-105.50 L554.56,-106.00 L555.12,-106.51 L555.69,-107.02 L556.25,-107.53 L556.82,-108.03 L557.38,-108.54 L557.94,-109.05 L558.51,-109.56 L559.07,-110.06 L559.64,-110.57 L560.20,-111.08 L560.76,-111.59 L561.33,-112.10 L561.89,-112.60 L562.46,-113.11 L563.02,-113.62 L563.59,-114.13 L564.15,-114.63 L564.71,-115.14 L565.28,-115.65 L565.84,-116.16 L566.41,-116.67 L566.97,-117.17 L567.53,-117.68 L568.10,-118.19 L568.66,-118.70 L569.23,-119.20 L569.79,-119.71 L570.35,-120.22 L570.92,-120.73 L571.48,-121.23 L572.05,-121.74 L572.61,-122.25 L573.18,-122.76 L573.74,-123.27 L574.30,-123.77 L574.87,-124.28 L575.43,-124.79 L576.00,-125.30 L576.56,-125.80 L577.12,-126.31 L577.69,-126.82 L578.25,-127.33 L578.82,-127.84 L579.38,-128.34 L579.95,-128.85 L580.51,-129.36 L581.07,-129.87 L581.64,-130.37 L582.20,-130.88 L582.77,-131.39 L583.33,-131.90 L583.89,-132.41 L584.46,-132.91 L585.02,-133.42 L585.59,-133.93 L586.15,-134.44 L586.72,-134.94 L587.28,-135.45 L587.84,-135.96 L588.41,-136.47 L588.97,-136.97 L589.54,-137.48 L590.10,-137.99 L590.66,-138.50 L591.23,-139.01 L591.79,-139.51 L592.36,-140.02 L592.92,-140.53 L593.48,-141.04 L594.05,-141.54 L594.61,-142.05 L595.18,-142.56 L595.74,-143.07 L596.31,-143.58 L596.87,-144.08 L597.43,-144.59 L598.00,-145.10 L598.56,-145.61 L599.13,-146.11 L599.69,-146.62 L600.25,-147.13 L600.82,-147.64 L601.38,-148.14 L601.95,-148.65 L602.51,-149.16 L603.08,-149.67 L603.64,-150.18 L604.20,-150.68 L604.77,-151.19 L605.33,-151.70 L605.90,-152.21 L606.46,-152.71 L607.02,-153.22 L607.59,-153.73 L608.15,-154.24 L608.72,-154.75 L609.28,-155.25 L609.85,-155.76 L610.41,-156.27 L610.97,-156.78 L611.54,-157.28 L612.10,-157.79 L612.67,-158.30 L613.23,-158.81 L613.79,-159.31 L614.36,-159.82 L614.92,-160.33 L615.49,-160.84 L616.05,-161.35 L616.62,-161.85 L617.18,-162.36 L617.74,-162.87 L618.31,-163.38 L618.87,-163.88 L619.44,-164.39 L620.00,-164.90" style="stroke-width: 2; stroke: rgb(65, 117, 5); stroke-opacity: 1;"/><path d=" M0.00,275.20 L0.56,275.03 L1.13,274.86 L1.69,274.69 L2.26,274.52 L2.82,274.35 L3.38,274.18 L3.95,274.02 L4.51,273.85 L5.08,273.68 L5.64,273.51 L6.21,273.34 L6.77,273.17 L7.33,273.00 L7.90,272.83 L8.46,272.66 L9.03,272.49 L9.59,272.32 L10.15,272.15 L10.72,271.98 L11.28,271.82 L11.85,271.65 L12.41,271.48 L12.98,271.31 L13.54,271.14 L14.10,270.97 L14.67,270.80 L15.23,270.63 L15.80,270.46 L16.36,270.29 L16.92,270.12 L17.49,269.95 L18.05,269.78 L18.62,269.61 L19.18,269.45 L19.75,269.28 L20.31,269.11 L20.87,268.94 L21.44,268.77 L22.00,268.60 L22.57,268.43 L23.13,268.26 L23.69,268.09 L24.26,267.92 L24.82,267.75 L25.39,267.58 L25.95,267.41 L26.52,267.25 L27.08,267.08 L27.64,266.91 L28.21,266.74 L28.77,266.57 L29.34,266.40 L29.90,266.23 L30.46,266.06 L31.03,265.89 L31.59,265.72 L32.16,265.55 L32.72,265.38 L33.28,265.21 L33.85,265.05 L34.41,264.88 L34.98,264.71 L35.54,264.54 L36.11,264.37 L36.67,264.20 L37.23,264.03 L37.80,263.86 L38.36,263.69 L38.93,263.52 L39.49,263.35 L40.05,263.18 L40.62,263.01 L41.18,262.85 L41.75,262.68 L42.31,262.51 L42.88,262.34 L43.44,262.17 L44.00,262.00 L44.57,261.83 L45.13,261.66 L45.70,261.49 L46.26,261.32 L46.82,261.15 L47.39,260.98 L47.95,260.81 L48.52,260.64 L49.08,260.48 L49.65,260.31 L50.21,260.14 L50.77,259.97 L51.34,259.80 L51.90,259.63 L52.47,259.46 L53.03,259.29 L53.59,259.12 L54.16,258.95 L54.72,258.78 L55.29,258.61 L55.85,258.44 L56.41,258.28 L56.98,258.11 L57.54,257.94 L58.11,257.77 L58.67,257.60 L59.24,257.43 L59.80,257.26 L60.36,257.09 L60.93,256.92 L61.49,256.75 L62.06,256.58 L62.62,256.41 L63.18,256.24 L63.75,256.08 L64.31,255.91 L64.88,255.74 L65.44,255.57 L66.01,255.40 L66.57,255.23 L67.13,255.06 L67.70,254.89 L68.26,254.72 L68.83,254.55 L69.39,254.38 L69.95,254.21 L70.52,254.04 L71.08,253.88 L71.65,253.71 L72.21,253.54 L72.78,253.37 L73.34,253.20 L73.90,253.03 L74.47,252.86 L75.03,252.69 L75.60,252.52 L76.16,252.35 L76.72,252.18 L77.29,252.01 L77.85,251.84 L78.42,251.67 L78.98,251.51 L79.55,251.34 L80.11,251.17 L80.67,251.00 L81.24,250.83 L81.80,250.66 L82.37,250.49 L82.93,250.32 L83.49,250.15 L84.06,249.98 L84.62,249.81 L85.19,249.64 L85.75,249.47 L86.31,249.31 L86.88,249.14 L87.44,248.97 L88.01,248.80 L88.57,248.63 L89.14,248.46 L89.70,248.29 L90.26,248.12 L90.83,247.95 L91.39,247.78 L91.96,247.61 L92.52,247.44 L93.08,247.27 L93.65,247.11 L94.21,246.94 L94.78,246.77 L95.34,246.60 L95.91,246.43 L96.47,246.26 L97.03,246.09 L97.60,245.92 L98.16,245.75 L98.73,245.58 L99.29,245.41 L99.85,245.24 L100.42,245.07 L100.98,244.91 L101.55,244.74 L102.11,244.57 L102.68,244.40 L103.24,244.23 L103.80,244.06 L104.37,243.89 L104.93,243.72 L105.50,243.55 L106.06,243.38 L106.62,243.21 L107.19,243.04 L107.75,242.87 L108.32,242.71 L108.88,242.54 L109.44,242.37 L110.01,242.20 L110.57,242.03 L111.14,241.86 L111.70,241.69 L112.27,241.52 L112.83,241.35 L113.39,241.18 L113.96,241.01 L114.52,240.84 L115.09,240.67 L115.65,240.50 L116.21,240.34 L116.78,240.17 L117.34,240.00 L117.91,239.83 L118.47,239.66 L119.04,239.49 L119.60,239.32 L120.16,239.15 L120.73,238.98 L121.29,238.81 L121.86,238.64 L122.42,238.47 L122.98,238.30 L123.55,238.14 L124.11,237.97 L124.68,237.80 L125.24,237.63 L125.81,237.46 L126.37,237.29 L126.93,237.12 L127.50,236.95 L128.06,236.78 L128.63,236.61 L129.19,236.44 L129.75,236.27 L130.32,236.10 L130.88,235.94 L131.45,235.77 L132.01,235.60 L132.58,235.43 L133.14,235.26 L133.70,235.09 L134.27,234.92 L134.83,234.75 L135.40,234.58 L135.96,234.41 L136.52,234.24 L137.09,234.07 L137.65,233.90 L138.22,233.74 L138.78,233.57 L139.34,233.40 L139.91,233.23 L140.47,233.06 L141.04,232.89 L141.60,232.72 L142.17,232.55 L142.73,232.38 L143.29,232.21 L143.86,232.04 L144.42,231.87 L144.99,231.70 L145.55,231.53 L146.11,231.37 L146.68,231.20 L147.24,231.03 L147.81,230.86 L148.37,230.69 L148.94,230.52 L149.50,230.35 L150.06,230.18 L150.63,230.01 L151.19,229.84 L151.76,229.67 L152.32,229.50 L152.88,229.33 L153.45,229.17 L154.01,229.00 L154.58,228.83 L155.14,228.66 L155.71,228.49 L156.27,228.32 L156.83,228.15 L157.40,227.98 L157.96,227.81 L158.53,227.64 L159.09,227.47 L159.65,227.30 L160.22,227.13 L160.78,226.97 L161.35,226.80 L161.91,226.63 L162.47,226.46 L163.04,226.29 L163.60,226.12 L164.17,225.95 L164.73,225.78 L165.30,225.61 L165.86,225.44 L166.42,225.27 L166.99,225.10 L167.55,224.93 L168.12,224.77 L168.68,224.60 L169.24,224.43 L169.81,224.26 L170.37,224.09 L170.94,223.92 L171.50,223.75 L172.07,223.58 L172.63,223.41 L173.19,223.24 L173.76,223.07 L174.32,222.90 L174.89,222.73 L175.45,222.56 L176.01,222.40 L176.58,222.23 L177.14,222.06 L177.71,221.89 L178.27,221.72 L178.84,221.55 L179.40,221.38 L179.96,221.21 L180.53,221.04 L181.09,220.87 L181.66,220.70 L182.22,220.53 L182.78,220.36 L183.35,220.20 L183.91,220.03 L184.48,219.86 L185.04,219.69 L185.61,219.52 L186.17,219.35 L186.73,219.18 L187.30,219.01 L187.86,218.84 L188.43,218.67 L188.99,218.50 L189.55,218.33 L190.12,218.16 L190.68,218.00 L191.25,217.83 L191.81,217.66 L192.37,217.49 L192.94,217.32 L193.50,217.15 L194.07,216.98 L194.63,216.81 L195.20,216.64 L195.76,216.47 L196.32,216.30 L196.89,216.13 L197.45,215.96 L198.02,215.80 L198.58,215.63 L199.14,215.46 L199.71,215.29 L200.27,215.12 L200.84,214.95 L201.40,214.78 L201.97,214.61 L202.53,214.44 L203.09,214.27 L203.66,214.10 L204.22,213.93 L204.79,213.76 L205.35,213.59 L205.91,213.43 L206.48,213.26 L207.04,213.09 L207.61,212.92 L208.17,212.75 L208.74,212.58 L209.30,212.41 L209.86,212.24 L210.43,212.07 L210.99,211.90 L211.56,211.73 L212.12,211.56 L212.68,211.39 L213.25,211.23 L213.81,211.06 L214.38,210.89 L214.94,210.72 L215.51,210.55 L216.07,210.38 L216.63,210.21 L217.20,210.04 L217.76,209.87 L218.33,209.70 L218.89,209.53 L219.45,209.36 L220.02,209.19 L220.58,209.03 L221.15,208.86 L221.71,208.69 L222.27,208.52 L222.84,208.35 L223.40,208.18 L223.97,208.01 L224.53,207.84 L225.10,207.67 L225.66,207.50 L226.22,207.33 L226.79,207.16 L227.35,206.99 L227.92,206.83 L228.48,206.66 L229.04,206.49 L229.61,206.32 L230.17,206.15 L230.74,205.98 L231.30,205.81 L231.87,205.64 L232.43,205.47 L232.99,205.30 L233.56,205.13 L234.12,204.96 L234.69,204.79 L235.25,204.62 L235.81,204.46 L236.38,204.29 L236.94,204.12 L237.51,203.95 L238.07,203.78 L238.64,203.61 L239.20,203.44 L239.76,203.27 L240.33,203.10 L240.89,202.93 L241.46,202.76 L242.02,202.59 L242.58,202.42 L243.15,202.26 L243.71,202.09 L244.28,201.92 L244.84,201.75 L245.40,201.58 L245.97,201.41 L246.53,201.24 L247.10,201.07 L247.66,200.90 L248.23,200.73 L248.79,200.56 L249.35,200.39 L249.92,200.22 L250.48,200.06 L251.05,199.89 L251.61,199.72 L252.17,199.55 L252.74,199.38 L253.30,199.21 L253.87,199.04 L254.43,198.87 L255.00,198.70 L255.56,198.53 L256.12,198.36 L256.69,198.19 L257.25,198.02 L257.82,197.86 L258.38,197.69 L258.94,197.52 L259.51,197.35 L260.07,197.18 L260.64,197.01 L261.20,196.84 L261.77,196.67 L262.33,196.50 L262.89,196.33 L263.46,196.16 L264.02,195.99 L264.59,195.82 L265.15,195.65 L265.71,195.49 L266.28,195.32 L266.84,195.15 L267.41,194.98 L267.97,194.81 L268.54,194.64 L269.10,194.47 L269.66,194.30 L270.23,194.13 L270.79,193.96 L271.36,193.79 L271.92,193.62 L272.48,193.45 L273.05,193.29 L273.61,193.12 L274.18,192.95 L274.74,192.78 L275.30,192.61 L275.87,192.44 L276.43,192.27 L277.00,192.10 L277.56,191.93 L278.13,191.76 L278.69,191.59 L279.25,191.42 L279.82,191.25 L280.38,191.09 L280.95,190.92 L281.51,190.75 L282.07,190.58 L282.64,190.41 L283.20,190.24 L283.77,190.07 L284.33,189.90 L284.90,189.73 L285.46,189.56 L286.02,189.39 L286.59,189.22 L287.15,189.05 L287.72,188.89 L288.28,188.72 L288.84,188.55 L289.41,188.38 L289.97,188.21 L290.54,188.04 L291.10,187.87 L291.67,187.70 L292.23,187.53 L292.79,187.36 L293.36,187.19 L293.92,187.02 L294.49,186.85 L295.05,186.68 L295.61,186.52 L296.18,186.35 L296.74,186.18 L297.31,186.01 L297.87,185.84 L298.43,185.67 L299.00,185.50 L299.56,185.33 L300.13,185.16 L300.69,184.99 L301.26,184.82 L301.82,184.65 L302.38,184.48 L302.95,184.32 L303.51,184.15 L304.08,183.98 L304.64,183.81 L305.20,183.64 L305.77,183.47 L306.33,183.30 L306.90,183.13 L307.46,182.96 L308.03,182.79 L308.59,182.62 L309.15,182.45 L309.72,182.28 L310.28,182.12 L310.85,181.95 L311.41,181.78 L311.97,181.61 L312.54,181.44 L313.10,181.27 L313.67,181.10 L314.23,180.93 L314.80,180.76 L315.36,180.59 L315.92,180.42 L316.49,180.25 L317.05,180.08 L317.62,179.92 L318.18,179.75 L318.74,179.58 L319.31,179.41 L319.87,179.24 L320.44,179.07 L321.00,178.90 L321.57,178.73 L322.13,178.56 L322.69,178.39 L323.26,178.22 L323.82,178.05 L324.39,177.88 L324.95,177.72 L325.51,177.55 L326.08,177.38 L326.64,177.21 L327.21,177.04 L327.77,176.87 L328.33,176.70 L328.90,176.53 L329.46,176.36 L330.03,176.19 L330.59,176.02 L331.16,175.85 L331.72,175.68 L332.28,175.51 L332.85,175.35 L333.41,175.18 L333.98,175.01 L334.54,174.84 L335.10,174.67 L335.67,174.50 L336.23,174.33 L336.80,174.16 L337.36,173.99 L337.93,173.82 L338.49,173.65 L339.05,173.48 L339.62,173.31 L340.18,173.15 L340.75,172.98 L341.31,172.81 L341.87,172.64 L342.44,172.47 L343.00,172.30 L343.57,172.13 L344.13,171.96 L344.70,171.79 L345.26,171.62 L345.82,171.45 L346.39,171.28 L346.95,171.11 L347.52,170.95 L348.08,170.78 L348.64,170.61 L349.21,170.44 L349.77,170.27 L350.34,170.10 L350.90,169.93 L351.46,169.76 L352.03,169.59 L352.59,169.42 L353.16,169.25 L353.72,169.08 L354.29,168.91 L354.85,168.75 L355.41,168.58 L355.98,168.41 L356.54,168.24 L357.11,168.07 L357.67,167.90 L358.23,167.73 L358.80,167.56 L359.36,167.39 L359.93,167.22 L360.49,167.05 L361.06,166.88 L361.62,166.71 L362.18,166.54 L362.75,166.38 L363.31,166.21 L363.88,166.04 L364.44,165.87 L365.00,165.70 L365.57,165.53 L366.13,165.36 L366.70,165.19 L367.26,165.02 L367.83,164.85 L368.39,164.68 L368.95,164.51 L369.52,164.34 L370.08,164.18 L370.65,164.01 L371.21,163.84 L371.77,163.67 L372.34,163.50 L372.90,163.33 L373.47,163.16 L374.03,162.99 L374.60,162.82 L375.16,162.65 L375.72,162.48 L376.29,162.31 L376.85,162.14 L377.42,161.98 L377.98,161.81 L378.54,161.64 L379.11,161.47 L379.67,161.30 L380.24,161.13 L380.80,160.96 L381.36,160.79 L381.93,160.62 L382.49,160.45 L383.06,160.28 L383.62,160.11 L384.19,159.94 L384.75,159.78 L385.31,159.61 L385.88,159.44 L386.44,159.27 L387.01,159.10 L387.57,158.93 L388.13,158.76 L388.70,158.59 L389.26,158.42 L389.83,158.25 L390.39,158.08 L390.96,157.91 L391.52,157.74 L392.08,157.57 L392.65,157.41 L393.21,157.24 L393.78,157.07 L394.34,156.90 L394.90,156.73 L395.47,156.56 L396.03,156.39 L396.60,156.22 L397.16,156.05 L397.73,155.88 L398.29,155.71 L398.85,155.54 L399.42,155.37 L399.98,155.21 L400.55,155.04 L401.11,154.87 L401.67,154.70 L402.24,154.53 L402.80,154.36 L403.37,154.19 L403.93,154.02 L404.49,153.85 L405.06,153.68 L405.62,153.51 L406.19,153.34 L406.75,153.17 L407.32,153.01 L407.88,152.84 L408.44,152.67 L409.01,152.50 L409.57,152.33 L410.14,152.16 L410.70,151.99 L411.26,151.82 L411.83,151.65 L412.39,151.48 L412.96,151.31 L413.52,151.14 L414.09,150.97 L414.65,150.81 L415.21,150.64 L415.78,150.47 L416.34,150.30 L416.91,150.13 L417.47,149.96 L418.03,149.79 L418.60,149.62 L419.16,149.45 L419.73,149.28 L420.29,149.11 L420.86,148.94 L421.42,148.77 L421.98,148.60 L422.55,148.44 L423.11,148.27 L423.68,148.10 L424.24,147.93 L424.80,147.76 L425.37,147.59 L425.93,147.42 L426.50,147.25 L427.06,147.08 L427.63,146.91 L428.19,146.74 L428.75,146.57 L429.32,146.40 L429.88,146.24 L430.45,146.07 L431.01,145.90 L431.57,145.73 L432.14,145.56 L432.70,145.39 L433.27,145.22 L433.83,145.05 L434.39,144.88 L434.96,144.71 L435.52,144.54 L436.09,144.37 L436.65,144.20 L437.22,144.04 L437.78,143.87 L438.34,143.70 L438.91,143.53 L439.47,143.36 L440.04,143.19 L440.60,143.02 L441.16,142.85 L441.73,142.68 L442.29,142.51 L442.86,142.34 L443.42,142.17 L443.99,142.00 L444.55,141.84 L445.11,141.67 L445.68,141.50 L446.24,141.33 L446.81,141.16 L447.37,140.99 L447.93,140.82 L448.50,140.65 L449.06,140.48 L449.63,140.31 L450.19,140.14 L450.76,139.97 L451.32,139.80 L451.88,139.63 L452.45,139.47 L453.01,139.30 L453.58,139.13 L454.14,138.96 L454.70,138.79 L455.27,138.62 L455.83,138.45 L456.40,138.28 L456.96,138.11 L457.53,137.94 L458.09,137.77 L458.65,137.60 L459.22,137.43 L459.78,137.27 L460.35,137.10 L460.91,136.93 L461.47,136.76 L462.04,136.59 L462.60,136.42 L463.17,136.25 L463.73,136.08 L464.29,135.91 L464.86,135.74 L465.42,135.57 L465.99,135.40 L466.55,135.23 L467.12,135.07 L467.68,134.90 L468.24,134.73 L468.81,134.56 L469.37,134.39 L469.94,134.22 L470.50,134.05 L471.06,133.88 L471.63,133.71 L472.19,133.54 L472.76,133.37 L473.32,133.20 L473.89,133.03 L474.45,132.87 L475.01,132.70 L475.58,132.53 L476.14,132.36 L476.71,132.19 L477.27,132.02 L477.83,131.85 L478.40,131.68 L478.96,131.51 L479.53,131.34 L480.09,131.17 L480.66,131.00 L481.22,130.83 L481.78,130.66 L482.35,130.50 L482.91,130.33 L483.48,130.16 L484.04,129.99 L484.60,129.82 L485.17,129.65 L485.73,129.48 L486.30,129.31 L486.86,129.14 L487.42,128.97 L487.99,128.80 L488.55,128.63 L489.12,128.46 L489.68,128.30 L490.25,128.13 L490.81,127.96 L491.37,127.79 L491.94,127.62 L492.50,127.45 L493.07,127.28 L493.63,127.11 L494.19,126.94 L494.76,126.77 L495.32,126.60 L495.89,126.43 L496.45,126.26 L497.02,126.10 L497.58,125.93 L498.14,125.76 L498.71,125.59 L499.27,125.42 L499.84,125.25 L500.40,125.08 L500.96,124.91 L501.53,124.74 L502.09,124.57 L502.66,124.40 L503.22,124.23 L503.79,124.06 L504.35,123.90 L504.91,123.73 L505.48,123.56 L506.04,123.39 L506.61,123.22 L507.17,123.05 L507.73,122.88 L508.30,122.71 L508.86,122.54 L509.43,122.37 L509.99,122.20 L510.56,122.03 L511.12,121.86 L511.68,121.69 L512.25,121.53 L512.81,121.36 L513.38,121.19 L513.94,121.02 L514.50,120.85 L515.07,120.68 L515.63,120.51 L516.20,120.34 L516.76,120.17 L517.32,120.00 L517.89,119.83 L518.45,119.66 L519.02,119.49 L519.58,119.33 L520.15,119.16 L520.71,118.99 L521.27,118.82 L521.84,118.65 L522.40,118.48 L522.97,118.31 L523.53,118.14 L524.09,117.97 L524.66,117.80 L525.22,117.63 L525.79,117.46 L526.35,117.29 L526.92,117.13 L527.48,116.96 L528.04,116.79 L528.61,116.62 L529.17,116.45 L529.74,116.28 L530.30,116.11 L530.86,115.94 L531.43,115.77 L531.99,115.60 L532.56,115.43 L533.12,115.26 L533.69,115.09 L534.25,114.93 L534.81,114.76 L535.38,114.59 L535.94,114.42 L536.51,114.25 L537.07,114.08 L537.63,113.91 L538.20,113.74 L538.76,113.57 L539.33,113.40 L539.89,113.23 L540.45,113.06 L541.02,112.89 L541.58,112.73 L542.15,112.56 L542.71,112.39 L543.28,112.22 L543.84,112.05 L544.40,111.88 L544.97,111.71 L545.53,111.54 L546.10,111.37 L546.66,111.20 L547.22,111.03 L547.79,110.86 L548.35,110.69 L548.92,110.52 L549.48,110.36 L550.05,110.19 L550.61,110.02 L551.17,109.85 L551.74,109.68 L552.30,109.51 L552.87,109.34 L553.43,109.17 L553.99,109.00 L554.56,108.83 L555.12,108.66 L555.69,108.49 L556.25,108.32 L556.82,108.16 L557.38,107.99 L557.94,107.82 L558.51,107.65 L559.07,107.48 L559.64,107.31 L560.20,107.14 L560.76,106.97 L561.33,106.80 L561.89,106.63 L562.46,106.46 L563.02,106.29 L563.59,106.12 L564.15,105.96 L564.71,105.79 L565.28,105.62 L565.84,105.45 L566.41,105.28 L566.97,105.11 L567.53,104.94 L568.10,104.77 L568.66,104.60 L569.23,104.43 L569.79,104.26 L570.35,104.09 L570.92,103.92 L571.48,103.76 L572.05,103.59 L572.61,103.42 L573.18,103.25 L573.74,103.08 L574.30,102.91 L574.87,102.74 L575.43,102.57 L576.00,102.40 L576.56,102.23 L577.12,102.06 L577.69,101.89 L578.25,101.72 L578.82,101.55 L579.38,101.39 L579.95,101.22 L580.51,101.05 L581.07,100.88 L581.64,100.71 L582.20,100.54 L582.77,100.37 L583.33,100.20 L583.89,100.03 L584.46,99.86 L585.02,99.69 L585.59,99.52 L586.15,99.35 L586.72,99.19 L587.28,99.02 L587.84,98.85 L588.41,98.68 L588.97,98.51 L589.54,98.34 L590.10,98.17 L590.66,98.00 L591.23,97.83 L591.79,97.66 L592.36,97.49 L592.92,97.32 L593.48,97.15 L594.05,96.99 L594.61,96.82 L595.18,96.65 L595.74,96.48 L596.31,96.31 L596.87,96.14 L597.43,95.97 L598.00,95.80 L598.56,95.63 L599.13,95.46 L599.69,95.29 L600.25,95.12 L600.82,94.95 L601.38,94.79 L601.95,94.62 L602.51,94.45 L603.08,94.28 L603.64,94.11 L604.20,93.94 L604.77,93.77 L605.33,93.60 L605.90,93.43 L606.46,93.26 L607.02,93.09 L607.59,92.92 L608.15,92.75 L608.72,92.58 L609.28,92.42 L609.85,92.25 L610.41,92.08 L610.97,91.91 L611.54,91.74 L612.10,91.57 L612.67,91.40 L613.23,91.23 L613.79,91.06 L614.36,90.89 L614.92,90.72 L615.49,90.55 L616.05,90.38 L616.62,90.22 L617.18,90.05 L617.74,89.88 L618.31,89.71 L618.87,89.54 L619.44,89.37 L620.00,89.20" style="stroke-width: 2; stroke: rgb(74, 144, 226); stroke-opacity: 1;"/><path d=" M0.00,301.50 L0.56,301.22 L1.13,300.94 L1.69,300.65 L2.26,300.37 L2.82,300.09 L3.38,299.81 L3.95,299.53 L4.51,299.24 L5.08,298.96 L5.64,298.68 L6.21,298.40 L6.77,298.12 L7.33,297.83 L7.90,297.55 L8.46,297.27 L9.03,296.99 L9.59,296.70 L10.15,296.42 L10.72,296.14 L11.28,295.86 L11.85,295.58 L12.41,295.29 L12.98,295.01 L13.54,294.73 L14.10,294.45 L14.67,294.17 L15.23,293.88 L15.80,293.60 L16.36,293.32 L16.92,293.04 L17.49,292.76 L18.05,292.47 L18.62,292.19 L19.18,291.91 L19.75,291.63 L20.31,291.35 L20.87,291.06 L21.44,290.78 L22.00,290.50 L22.57,290.22 L23.13,289.93 L23.69,289.65 L24.26,289.37 L24.82,289.09 L25.39,288.81 L25.95,288.52 L26.52,288.24 L27.08,287.96 L27.64,287.68 L28.21,287.40 L28.77,287.11 L29.34,286.83 L29.90,286.55 L30.46,286.27 L31.03,285.99 L31.59,285.70 L32.16,285.42 L32.72,285.14 L33.28,284.86 L33.85,284.58 L34.41,284.29 L34.98,284.01 L35.54,283.73 L36.11,283.45 L36.67,283.17 L37.23,282.88 L37.80,282.60 L38.36,282.32 L38.93,282.04 L39.49,281.75 L40.05,281.47 L40.62,281.19 L41.18,280.91 L41.75,280.63 L42.31,280.34 L42.88,280.06 L43.44,279.78 L44.00,279.50 L44.57,279.22 L45.13,278.93 L45.70,278.65 L46.26,278.37 L46.82,278.09 L47.39,277.81 L47.95,277.52 L48.52,277.24 L49.08,276.96 L49.65,276.68 L50.21,276.40 L50.77,276.11 L51.34,275.83 L51.90,275.55 L52.47,275.27 L53.03,274.98 L53.59,274.70 L54.16,274.42 L54.72,274.14 L55.29,273.86 L55.85,273.57 L56.41,273.29 L56.98,273.01 L57.54,272.73 L58.11,272.45 L58.67,272.16 L59.24,271.88 L59.80,271.60 L60.36,271.32 L60.93,271.04 L61.49,270.75 L62.06,270.47 L62.62,270.19 L63.18,269.91 L63.75,269.63 L64.31,269.34 L64.88,269.06 L65.44,268.78 L66.01,268.50 L66.57,268.22 L67.13,267.93 L67.70,267.65 L68.26,267.37 L68.83,267.09 L69.39,266.80 L69.95,266.52 L70.52,266.24 L71.08,265.96 L71.65,265.68 L72.21,265.39 L72.78,265.11 L73.34,264.83 L73.90,264.55 L74.47,264.27 L75.03,263.98 L75.60,263.70 L76.16,263.42 L76.72,263.14 L77.29,262.86 L77.85,262.57 L78.42,262.29 L78.98,262.01 L79.55,261.73 L80.11,261.45 L80.67,261.16 L81.24,260.88 L81.80,260.60 L82.37,260.32 L82.93,260.04 L83.49,259.75 L84.06,259.47 L84.62,259.19 L85.19,258.91 L85.75,258.62 L86.31,258.34 L86.88,258.06 L87.44,257.78 L88.01,257.50 L88.57,257.21 L89.14,256.93 L89.70,256.65 L90.26,256.37 L90.83,256.09 L91.39,255.80 L91.96,255.52 L92.52,255.24 L93.08,254.96 L93.65,254.68 L94.21,254.39 L94.78,254.11 L95.34,253.83 L95.91,253.55 L96.47,253.27 L97.03,252.98 L97.60,252.70 L98.16,252.42 L98.73,252.14 L99.29,251.85 L99.85,251.57 L100.42,251.29 L100.98,251.01 L101.55,250.73 L102.11,250.44 L102.68,250.16 L103.24,249.88 L103.80,249.60 L104.37,249.32 L104.93,249.03 L105.50,248.75 L106.06,248.47 L106.62,248.19 L107.19,247.91 L107.75,247.62 L108.32,247.34 L108.88,247.06 L109.44,246.78 L110.01,246.50 L110.57,246.21 L111.14,245.93 L111.70,245.65 L112.27,245.37 L112.83,245.09 L113.39,244.80 L113.96,244.52 L114.52,244.24 L115.09,243.96 L115.65,243.67 L116.21,243.39 L116.78,243.11 L117.34,242.83 L117.91,242.55 L118.47,242.26 L119.04,241.98 L119.60,241.70 L120.16,241.42 L120.73,241.14 L121.29,240.85 L121.86,240.57 L122.42,240.29 L122.98,240.01 L123.55,239.73 L124.11,239.44 L124.68,239.16 L125.24,238.88 L125.81,238.60 L126.37,238.32 L126.93,238.03 L127.50,237.75 L128.06,237.47 L128.63,237.19 L129.19,236.90 L129.75,236.62 L130.32,236.34 L130.88,236.06 L131.45,235.78 L132.01,235.49 L132.58,235.21 L133.14,234.93 L133.70,234.65 L134.27,234.37 L134.83,234.08 L135.40,233.80 L135.96,233.52 L136.52,233.24 L137.09,232.96 L137.65,232.67 L138.22,232.39 L138.78,232.11 L139.34,231.83 L139.91,231.55 L140.47,231.26 L141.04,230.98 L141.60,230.70 L142.17,230.42 L142.73,230.14 L143.29,229.85 L143.86,229.57 L144.42,229.29 L144.99,229.01 L145.55,228.72 L146.11,228.44 L146.68,228.16 L147.24,227.88 L147.81,227.60 L148.37,227.31 L148.94,227.03 L149.50,226.75 L150.06,226.47 L150.63,226.19 L151.19,225.90 L151.76,225.62 L152.32,225.34 L152.88,225.06 L153.45,224.78 L154.01,224.49 L154.58,224.21 L155.14,223.93 L155.71,223.65 L156.27,223.37 L156.83,223.08 L157.40,222.80 L157.96,222.52 L158.53,222.24 L159.09,221.95 L159.65,221.67 L160.22,221.39 L160.78,221.11 L161.35,220.83 L161.91,220.54 L162.47,220.26 L163.04,219.98 L163.60,219.70 L164.17,219.42 L164.73,219.13 L165.30,218.85 L165.86,218.57 L166.42,218.29 L166.99,218.01 L167.55,217.72 L168.12,217.44 L168.68,217.16 L169.24,216.88 L169.81,216.60 L170.37,216.31 L170.94,216.03 L171.50,215.75 L172.07,215.47 L172.63,215.19 L173.19,214.90 L173.76,214.62 L174.32,214.34 L174.89,214.06 L175.45,213.77 L176.01,213.49 L176.58,213.21 L177.14,212.93 L177.71,212.65 L178.27,212.36 L178.84,212.08 L179.40,211.80 L179.96,211.52 L180.53,211.24 L181.09,210.95 L181.66,210.67 L182.22,210.39 L182.78,210.11 L183.35,209.83 L183.91,209.54 L184.48,209.26 L185.04,208.98 L185.61,208.70 L186.17,208.42 L186.73,208.13 L187.30,207.85 L187.86,207.57 L188.43,207.29 L188.99,207.01 L189.55,206.72 L190.12,206.44 L190.68,206.16 L191.25,205.88 L191.81,205.59 L192.37,205.31 L192.94,205.03 L193.50,204.75 L194.07,204.47 L194.63,204.18 L195.20,203.90 L195.76,203.62 L196.32,203.34 L196.89,203.06 L197.45,202.77 L198.02,202.49 L198.58,202.21 L199.14,201.93 L199.71,201.65 L200.27,201.36 L200.84,201.08 L201.40,200.80 L201.97,200.52 L202.53,200.24 L203.09,199.95 L203.66,199.67 L204.22,199.39 L204.79,199.11 L205.35,198.82 L205.91,198.54 L206.48,198.26 L207.04,197.98 L207.61,197.70 L208.17,197.41 L208.74,197.13 L209.30,196.85 L209.86,196.57 L210.43,196.29 L210.99,196.00 L211.56,195.72 L212.12,195.44 L212.68,195.16 L213.25,194.88 L213.81,194.59 L214.38,194.31 L214.94,194.03 L215.51,193.75 L216.07,193.47 L216.63,193.18 L217.20,192.90 L217.76,192.62 L218.33,192.34 L218.89,192.06 L219.45,191.77 L220.02,191.49 L220.58,191.21 L221.15,190.93 L221.71,190.64 L222.27,190.36 L222.84,190.08 L223.40,189.80 L223.97,189.52 L224.53,189.23 L225.10,188.95 L225.66,188.67 L226.22,188.39 L226.79,188.11 L227.35,187.82 L227.92,187.54 L228.48,187.26 L229.04,186.98 L229.61,186.70 L230.17,186.41 L230.74,186.13 L231.30,185.85 L231.87,185.57 L232.43,185.29 L232.99,185.00 L233.56,184.72 L234.12,184.44 L234.69,184.16 L235.25,183.87 L235.81,183.59 L236.38,183.31 L236.94,183.03 L237.51,182.75 L238.07,182.46 L238.64,182.18 L239.20,181.90 L239.76,181.62 L240.33,181.34 L240.89,181.05 L241.46,180.77 L242.02,180.49 L242.58,180.21 L243.15,179.93 L243.71,179.64 L244.28,179.36 L244.84,179.08 L245.40,178.80 L245.97,178.52 L246.53,178.23 L247.10,177.95 L247.66,177.67 L248.23,177.39 L248.79,177.11 L249.35,176.82 L249.92,176.54 L250.48,176.26 L251.05,175.98 L251.61,175.69 L252.17,175.41 L252.74,175.13 L253.30,174.85 L253.87,174.57 L254.43,174.28 L255.00,174.00 L255.56,173.72 L256.12,173.44 L256.69,173.16 L257.25,172.87 L257.82,172.59 L258.38,172.31 L258.94,172.03 L259.51,171.75 L260.07,171.46 L260.64,171.18 L261.20,170.90 L261.77,170.62 L262.33,170.34 L262.89,170.05 L263.46,169.77 L264.02,169.49 L264.59,169.21 L265.15,168.92 L265.71,168.64 L266.28,168.36 L266.84,168.08 L267.41,167.80 L267.97,167.51 L268.54,167.23 L269.10,166.95 L269.66,166.67 L270.23,166.39 L270.79,166.10 L271.36,165.82 L271.92,165.54 L272.48,165.26 L273.05,164.98 L273.61,164.69 L274.18,164.41 L274.74,164.13 L275.30,163.85 L275.87,163.57 L276.43,163.28 L277.00,163.00 L277.56,162.72 L278.13,162.44 L278.69,162.16 L279.25,161.87 L279.82,161.59 L280.38,161.31 L280.95,161.03 L281.51,160.74 L282.07,160.46 L282.64,160.18 L283.20,159.90 L283.77,159.62 L284.33,159.33 L284.90,159.05 L285.46,158.77 L286.02,158.49 L286.59,158.21 L287.15,157.92 L287.72,157.64 L288.28,157.36 L288.84,157.08 L289.41,156.80 L289.97,156.51 L290.54,156.23 L291.10,155.95 L291.67,155.67 L292.23,155.39 L292.79,155.10 L293.36,154.82 L293.92,154.54 L294.49,154.26 L295.05,153.97 L295.61,153.69 L296.18,153.41 L296.74,153.13 L297.31,152.85 L297.87,152.56 L298.43,152.28 L299.00,152.00 L299.56,151.72 L300.13,151.44 L300.69,151.15 L301.26,150.87 L301.82,150.59 L302.38,150.31 L302.95,150.03 L303.51,149.74 L304.08,149.46 L304.64,149.18 L305.20,148.90 L305.77,148.62 L306.33,148.33 L306.90,148.05 L307.46,147.77 L308.03,147.49 L308.59,147.21 L309.15,146.92 L309.72,146.64 L310.28,146.36 L310.85,146.08 L311.41,145.79 L311.97,145.51 L312.54,145.23 L313.10,144.95 L313.67,144.67 L314.23,144.38 L314.80,144.10 L315.36,143.82 L315.92,143.54 L316.49,143.26 L317.05,142.97 L317.62,142.69 L318.18,142.41 L318.74,142.13 L319.31,141.85 L319.87,141.56 L320.44,141.28 L321.00,141.00 L321.57,140.72 L322.13,140.44 L322.69,140.15 L323.26,139.87 L323.82,139.59 L324.39,139.31 L324.95,139.03 L325.51,138.74 L326.08,138.46 L326.64,138.18 L327.21,137.90 L327.77,137.61 L328.33,137.33 L328.90,137.05 L329.46,136.77 L330.03,136.49 L330.59,136.20 L331.16,135.92 L331.72,135.64 L332.28,135.36 L332.85,135.08 L333.41,134.79 L333.98,134.51 L334.54,134.23 L335.10,133.95 L335.67,133.67 L336.23,133.38 L336.80,133.10 L337.36,132.82 L337.93,132.54 L338.49,132.26 L339.05,131.97 L339.62,131.69 L340.18,131.41 L340.75,131.13 L341.31,130.84 L341.87,130.56 L342.44,130.28 L343.00,130.00 L343.57,129.72 L344.13,129.43 L344.70,129.15 L345.26,128.87 L345.82,128.59 L346.39,128.31 L346.95,128.02 L347.52,127.74 L348.08,127.46 L348.64,127.18 L349.21,126.90 L349.77,126.61 L350.34,126.33 L350.90,126.05 L351.46,125.77 L352.03,125.49 L352.59,125.20 L353.16,124.92 L353.72,124.64 L354.29,124.36 L354.85,124.08 L355.41,123.79 L355.98,123.51 L356.54,123.23 L357.11,122.95 L357.67,122.66 L358.23,122.38 L358.80,122.10 L359.36,121.82 L359.93,121.54 L360.49,121.25 L361.06,120.97 L361.62,120.69 L362.18,120.41 L362.75,120.13 L363.31,119.84 L363.88,119.56 L364.44,119.28 L365.00,119.00 L365.57,118.72 L366.13,118.43 L366.70,118.15 L367.26,117.87 L367.83,117.59 L368.39,117.31 L368.95,117.02 L369.52,116.74 L370.08,116.46 L370.65,116.18 L371.21,115.89 L371.77,115.61 L372.34,115.33 L372.90,115.05 L373.47,114.77 L374.03,114.48 L374.60,114.20 L375.16,113.92 L375.72,113.64 L376.29,113.36 L376.85,113.07 L377.42,112.79 L377.98,112.51 L378.54,112.23 L379.11,111.95 L379.67,111.66 L380.24,111.38 L380.80,111.10 L381.36,110.82 L381.93,110.54 L382.49,110.25 L383.06,109.97 L383.62,109.69 L384.19,109.41 L384.75,109.13 L385.31,108.84 L385.88,108.56 L386.44,108.28 L387.01,108.00 L387.57,107.71 L388.13,107.43 L388.70,107.15 L389.26,106.87 L389.83,106.59 L390.39,106.30 L390.96,106.02 L391.52,105.74 L392.08,105.46 L392.65,105.18 L393.21,104.89 L393.78,104.61 L394.34,104.33 L394.90,104.05 L395.47,103.77 L396.03,103.48 L396.60,103.20 L397.16,102.92 L397.73,102.64 L398.29,102.36 L398.85,102.07 L399.42,101.79 L399.98,101.51 L400.55,101.23 L401.11,100.94 L401.67,100.66 L402.24,100.38 L402.80,100.10 L403.37,99.82 L403.93,99.53 L404.49,99.25 L405.06,98.97 L405.62,98.69 L406.19,98.41 L406.75,98.12 L407.32,97.84 L407.88,97.56 L408.44,97.28 L409.01,97.00 L409.57,96.71 L410.14,96.43 L410.70,96.15 L411.26,95.87 L411.83,95.59 L412.39,95.30 L412.96,95.02 L413.52,94.74 L414.09,94.46 L414.65,94.18 L415.21,93.89 L415.78,93.61 L416.34,93.33 L416.91,93.05 L417.47,92.76 L418.03,92.48 L418.60,92.20 L419.16,91.92 L419.73,91.64 L420.29,91.35 L420.86,91.07 L421.42,90.79 L421.98,90.51 L422.55,90.23 L423.11,89.94 L423.68,89.66 L424.24,89.38 L424.80,89.10 L425.37,88.82 L425.93,88.53 L426.50,88.25 L427.06,87.97 L427.63,87.69 L428.19,87.41 L428.75,87.12 L429.32,86.84 L429.88,86.56 L430.45,86.28 L431.01,85.99 L431.57,85.71 L432.14,85.43 L432.70,85.15 L433.27,84.87 L433.83,84.58 L434.39,84.30 L434.96,84.02 L435.52,83.74 L436.09,83.46 L436.65,83.17 L437.22,82.89 L437.78,82.61 L438.34,82.33 L438.91,82.05 L439.47,81.76 L440.04,81.48 L440.60,81.20 L441.16,80.92 L441.73,80.64 L442.29,80.35 L442.86,80.07 L443.42,79.79 L443.99,79.51 L444.55,79.23 L445.11,78.94 L445.68,78.66 L446.24,78.38 L446.81,78.10 L447.37,77.81 L447.93,77.53 L448.50,77.25 L449.06,76.97 L449.63,76.69 L450.19,76.40 L450.76,76.12 L451.32,75.84 L451.88,75.56 L452.45,75.28 L453.01,74.99 L453.58,74.71 L454.14,74.43 L454.70,74.15 L455.27,73.87 L455.83,73.58 L456.40,73.30 L456.96,73.02 L457.53,72.74 L458.09,72.46 L458.65,72.17 L459.22,71.89 L459.78,71.61 L460.35,71.33 L460.91,71.05 L461.47,70.76 L462.04,70.48 L462.60,70.20 L463.17,69.92 L463.73,69.63 L464.29,69.35 L464.86,69.07 L465.42,68.79 L465.99,68.51 L466.55,68.22 L467.12,67.94 L467.68,67.66 L468.24,67.38 L468.81,67.10 L469.37,66.81 L469.94,66.53 L470.50,66.25 L471.06,65.97 L471.63,65.69 L472.19,65.40 L472.76,65.12 L473.32,64.84 L473.89,64.56 L474.45,64.28 L475.01,63.99 L475.58,63.71 L476.14,63.43 L476.71,63.15 L477.27,62.86 L477.83,62.58 L478.40,62.30 L478.96,62.02 L479.53,61.74 L480.09,61.45 L480.66,61.17 L481.22,60.89 L481.78,60.61 L482.35,60.33 L482.91,60.04 L483.48,59.76 L484.04,59.48 L484.60,59.20 L485.17,58.92 L485.73,58.63 L486.30,58.35 L486.86,58.07 L487.42,57.79 L487.99,57.51 L488.55,57.22 L489.12,56.94 L489.68,56.66 L490.25,56.38 L490.81,56.10 L491.37,55.81 L491.94,55.53 L492.50,55.25 L493.07,54.97 L493.63,54.68 L494.19,54.40 L494.76,54.12 L495.32,53.84 L495.89,53.56 L496.45,53.27 L497.02,52.99 L497.58,52.71 L498.14,52.43 L498.71,52.15 L499.27,51.86 L499.84,51.58 L500.40,51.30 L500.96,51.02 L501.53,50.74 L502.09,50.45 L502.66,50.17 L503.22,49.89 L503.79,49.61 L504.35,49.33 L504.91,49.04 L505.48,48.76 L506.04,48.48 L506.61,48.20 L507.17,47.91 L507.73,47.63 L508.30,47.35 L508.86,47.07 L509.43,46.79 L509.99,46.50 L510.56,46.22 L511.12,45.94 L511.68,45.66 L512.25,45.38 L512.81,45.09 L513.38,44.81 L513.94,44.53 L514.50,44.25 L515.07,43.97 L515.63,43.68 L516.20,43.40 L516.76,43.12 L517.32,42.84 L517.89,42.56 L518.45,42.27 L519.02,41.99 L519.58,41.71 L520.15,41.43 L520.71,41.15 L521.27,40.86 L521.84,40.58 L522.40,40.30 L522.97,40.02 L523.53,39.73 L524.09,39.45 L524.66,39.17 L525.22,38.89 L525.79,38.61 L526.35,38.32 L526.92,38.04 L527.48,37.76 L528.04,37.48 L528.61,37.20 L529.17,36.91 L529.74,36.63 L530.30,36.35 L530.86,36.07 L531.43,35.79 L531.99,35.50 L532.56,35.22 L533.12,34.94 L533.69,34.66 L534.25,34.38 L534.81,34.09 L535.38,33.81 L535.94,33.53 L536.51,33.25 L537.07,32.96 L537.63,32.68 L538.20,32.40 L538.76,32.12 L539.33,31.84 L539.89,31.55 L540.45,31.27 L541.02,30.99 L541.58,30.71 L542.15,30.43 L542.71,30.14 L543.28,29.86 L543.84,29.58 L544.40,29.30 L544.97,29.02 L545.53,28.73 L546.10,28.45 L546.66,28.17 L547.22,27.89 L547.79,27.61 L548.35,27.32 L548.92,27.04 L549.48,26.76 L550.05,26.48 L550.61,26.20 L551.17,25.91 L551.74,25.63 L552.30,25.35 L552.87,25.07 L553.43,24.78 L553.99,24.50 L554.56,24.22 L555.12,23.94 L555.69,23.66 L556.25,23.37 L556.82,23.09 L557.38,22.81 L557.94,22.53 L558.51,22.25 L559.07,21.96 L559.64,21.68 L560.20,21.40 L560.76,21.12 L561.33,20.84 L561.89,20.55 L562.46,20.27 L563.02,19.99 L563.59,19.71 L564.15,19.43 L564.71,19.14 L565.28,18.86 L565.84,18.58 L566.41,18.30 L566.97,18.02 L567.53,17.73 L568.10,17.45 L568.66,17.17 L569.23,16.89 L569.79,16.60 L570.35,16.32 L570.92,16.04 L571.48,15.76 L572.05,15.48 L572.61,15.19 L573.18,14.91 L573.74,14.63 L574.30,14.35 L574.87,14.07 L575.43,13.78 L576.00,13.50 L576.56,13.22 L577.12,12.94 L577.69,12.66 L578.25,12.37 L578.82,12.09 L579.38,11.81 L579.95,11.53 L580.51,11.25 L581.07,10.96 L581.64,10.68 L582.20,10.40 L582.77,10.12 L583.33,9.83 L583.89,9.55 L584.46,9.27 L585.02,8.99 L585.59,8.71 L586.15,8.42 L586.72,8.14 L587.28,7.86 L587.84,7.58 L588.41,7.30 L588.97,7.01 L589.54,6.73 L590.10,6.45 L590.66,6.17 L591.23,5.89 L591.79,5.60 L592.36,5.32 L592.92,5.04 L593.48,4.76 L594.05,4.48 L594.61,4.19 L595.18,3.91 L595.74,3.63 L596.31,3.35 L596.87,3.07 L597.43,2.78 L598.00,2.50 L598.56,2.22 L599.13,1.94 L599.69,1.65 L600.25,1.37 L600.82,1.09 L601.38,0.81 L601.95,0.53 L602.51,0.24 L603.08,-0.04 L603.64,-0.32 L604.20,-0.60 L604.77,-0.88 L605.33,-1.17 L605.90,-1.45 L606.46,-1.73 L607.02,-2.01 L607.59,-2.29 L608.15,-2.58 L608.72,-2.86 L609.28,-3.14 L609.85,-3.42 L610.41,-3.70 L610.97,-3.99 L611.54,-4.27 L612.10,-4.55 L612.67,-4.83 L613.23,-5.12 L613.79,-5.40 L614.36,-5.68 L614.92,-5.96 L615.49,-6.24 L616.05,-6.53 L616.62,-6.81 L617.18,-7.09 L617.74,-7.37 L618.31,-7.65 L618.87,-7.94 L619.44,-8.22 L620.00,-8.50" style="stroke-width: 2; stroke: rgb(0, 0, 0); stroke-opacity: 1; stroke-dasharray: 2.25, 3.685;"/></g></g><g class="test-xtl" style="font-family: &quot;Open Sans&quot;, verdana, arial, sans-serif;"><text text-anchor="middle" font-size="11" dominant-baseline="hanging" stroke="none" fill="rgb(50,50,50)" fill-opacity="1" x="30.865000000000023" y="142">-20</text><text text-anchor="middle" font-size="11" dominant-baseline="hanging" stroke="none" fill="rgb(50,50,50)" fill-opacity="1" x="95.86500000000001" y="142">-15</text><text text-anchor="middle" font-size="11" dominant-baseline="hanging" stroke="none" fill="rgb(50,50,50)" fill-opacity="1" x="160.865" y="142">-10</text><text text-anchor="middle" font-size="11" dominant-baseline="hanging" stroke="none" fill="rgb(50,50,50)" fill-opacity="1" x="225.86500000000004" y="142">-5</text><text text-anchor="middle" font-size="11" dominant-baseline="hanging" stroke="none" fill="rgb(50,50,50)" fill-opacity="1" x="359.00000000000006" y="142">5</text><text text-anchor="middle" font-size="11" dominant-baseline="hanging" stroke="none" fill="rgb(50,50,50)" fill-opacity="1" x="424" y="142">10</text><text text-anchor="middle" font-size="11" dominant-baseline="hanging" stroke="none" fill="rgb(50,50,50)" fill-opacity="1" x="489" y="142">15</text><text text-anchor="middle" font-size="11" dominant-baseline="hanging" stroke="none" fill="rgb(50,50,50)" fill-opacity="1" x="553.9999999999999" y="142">20</text><text text-anchor="middle" font-size="11" dominant-baseline="hanging" stroke="none" fill="rgb(50,50,50)" fill-opacity="1" x="619" y="142">25</text><text text-anchor="middle" font-size="11" dominant-baseline="hanging" stroke="none" fill="rgb(50,50,50)" fill-opacity="1" x="286" y="140">0</text></g><g class="test-ytl" style="font-family: &quot;Open Sans&quot;, verdana, arial, sans-serif;"><text text-anchor="end" dominant-baseline="middle" font-size="11" stroke="none" fill="rgb(50,50,50)" fill-opacity="1" x="286" y="265">-10</text><text text-anchor="end" dominant-baseline="middle" font-size="11" stroke="none" fill="rgb(50,50,50)" fill-opacity="1" x="286" y="200">-5</text><text text-anchor="end" dominant-baseline="middle" font-size="11" stroke="none" fill="rgb(50,50,50)" fill-opacity="1" x="286" y="70">5</text><text text-anchor="end" dominant-baseline="middle" font-size="11" stroke="none" fill="rgb(50,50,50)" fill-opacity="1" x="286" y="5">10</text></g><rect class="real" x="1" y="1" width="618" height="268" style="fill: transparent; stroke: none;"/></g></g></g><g/></g><g/><g/><g/></svg>
        <svg xmlns="http://www.w3.org/2000/svg" xmlns:xlink="http://www.w3.org/1999/xlink" width="660" height="310" style="width:660px;height:310px;font-family:Asana-Math, Asana;background:transparent;"></svg>
</svg>
