<svg xmlns="http://www.w3.org/2000/svg" xmlns:xlink="http://www.w3.org/1999/xlink" x="0" y="0" width="661.3333740234375" height="311.3333435058594" style="
        width:661.3333740234375px;
        height:311.3333435058594px;
        background: transparent;
        fill: none;
">
        
        
        <svg xmlns="http://www.w3.org/2000/svg" class="role-diagram-draw-area"><g class="shapes-region" style="stroke: black; fill: none;"><g class="composite-shape" data-amt="diagram/shapes/plot" transform="matrix(1,0,0,1,125,33)"><g><g><g class="test-xgi"><line x1="8.74999544686752" y1="0" x2="8.74999544686752" y2="200" fill="none" stroke="lightgray" stroke-width="0.5"/><line x1="18.49999566210651" y1="0" x2="18.49999566210651" y2="200" fill="none" stroke="lightgray" stroke-width="0.5"/><line x1="28.2499958773455" y1="0" x2="28.2499958773455" y2="200" fill="none" stroke="lightgray" stroke-width="0.5"/><line x1="37.99999609258449" y1="0" x2="37.99999609258449" y2="200" fill="none" stroke="lightgray" stroke-width="0.5"/><line x1="47.74999630782349" y1="0" x2="47.74999630782349" y2="200" fill="none" stroke="lightgray" stroke-width="0.5"/><line x1="57.49999652306248" y1="0" x2="57.49999652306248" y2="200" fill="none" stroke="lightgray" stroke-width="0.5"/><line x1="67.24999673830148" y1="0" x2="67.24999673830148" y2="200" fill="none" stroke="lightgray" stroke-width="0.5"/><line x1="76.99999695354046" y1="0" x2="76.99999695354046" y2="200" fill="none" stroke="lightgray" stroke-width="0.5"/><line x1="86.74999716877946" y1="0" x2="86.74999716877946" y2="200" fill="none" stroke="lightgray" stroke-width="0.5"/><line x1="96.49999738401844" y1="0" x2="96.49999738401844" y2="200" fill="none" stroke="lightgray" stroke-width="0.5"/><line x1="106.24999759925744" y1="0" x2="106.24999759925744" y2="200" fill="none" stroke="lightgray" stroke-width="0.5"/><line x1="115.99999781449642" y1="0" x2="115.99999781449642" y2="200" fill="none" stroke="lightgray" stroke-width="0.5"/><line x1="125.74999802973541" y1="0" x2="125.74999802973541" y2="200" fill="none" stroke="lightgray" stroke-width="0.5"/><line x1="135.4999982449744" y1="0" x2="135.4999982449744" y2="200" fill="none" stroke="lightgray" stroke-width="0.5"/><line x1="145.2499984602134" y1="0" x2="145.2499984602134" y2="200" fill="none" stroke="lightgray" stroke-width="0.5"/><line x1="154.9999986754524" y1="0" x2="154.9999986754524" y2="200" fill="none" stroke="lightgray" stroke-width="0.5"/><line x1="164.7499988906914" y1="0" x2="164.7499988906914" y2="200" fill="none" stroke="lightgray" stroke-width="0.5"/><line x1="174.49999910593036" y1="0" x2="174.49999910593036" y2="200" fill="none" stroke="lightgray" stroke-width="0.5"/><line x1="184.24999932116938" y1="0" x2="184.24999932116938" y2="200" fill="none" stroke="lightgray" stroke-width="0.5"/><line x1="193.99999953640838" y1="0" x2="193.99999953640838" y2="200" fill="none" stroke="lightgray" stroke-width="0.5"/><line x1="203.74999975164738" y1="0" x2="203.74999975164738" y2="200" fill="none" stroke="lightgray" stroke-width="0.5"/><line x1="213.49999996688635" y1="0" x2="213.49999996688635" y2="200" fill="none" stroke="lightgray" stroke-width="0.5"/><line x1="223.25000018212535" y1="0" x2="223.25000018212535" y2="200" fill="none" stroke="lightgray" stroke-width="0.5"/><line x1="233.00000039736435" y1="0" x2="233.00000039736435" y2="200" fill="none" stroke="lightgray" stroke-width="0.5"/><line x1="242.75000061260332" y1="0" x2="242.75000061260332" y2="200" fill="none" stroke="lightgray" stroke-width="0.5"/><line x1="252.5000008278423" y1="0" x2="252.5000008278423" y2="200" fill="none" stroke="lightgray" stroke-width="0.5"/><line x1="262.2500010430813" y1="0" x2="262.2500010430813" y2="200" fill="none" stroke="lightgray" stroke-width="0.5"/><line x1="272.0000012583203" y1="0" x2="272.0000012583203" y2="200" fill="none" stroke="lightgray" stroke-width="0.5"/><line x1="281.7500014735593" y1="0" x2="281.7500014735593" y2="200" fill="none" stroke="lightgray" stroke-width="0.5"/><line x1="291.5000016887983" y1="0" x2="291.5000016887983" y2="200" fill="none" stroke="lightgray" stroke-width="0.5"/><line x1="301.2500019040373" y1="0" x2="301.2500019040373" y2="200" fill="none" stroke="lightgray" stroke-width="0.5"/><line x1="311.00000211927625" y1="0" x2="311.00000211927625" y2="200" fill="none" stroke="lightgray" stroke-width="0.5"/><line x1="320.7500023345152" y1="0" x2="320.7500023345152" y2="200" fill="none" stroke="lightgray" stroke-width="0.5"/><line x1="330.5000025497542" y1="0" x2="330.5000025497542" y2="200" fill="none" stroke="lightgray" stroke-width="0.5"/><line x1="340.2500027649932" y1="0" x2="340.2500027649932" y2="200" fill="none" stroke="lightgray" stroke-width="0.5"/><line x1="350.0000029802322" y1="0" x2="350.0000029802322" y2="200" fill="none" stroke="lightgray" stroke-width="0.5"/><line x1="359.75000319547115" y1="0" x2="359.75000319547115" y2="200" fill="none" stroke="lightgray" stroke-width="0.5"/><line x1="369.5000034107102" y1="0" x2="369.5000034107102" y2="200" fill="none" stroke="lightgray" stroke-width="0.5"/><line x1="379.25000362594915" y1="0" x2="379.25000362594915" y2="200" fill="none" stroke="lightgray" stroke-width="0.5"/><line x1="389.0000038411882" y1="0" x2="389.0000038411882" y2="200" fill="none" stroke="lightgray" stroke-width="0.5"/><line x1="398.7500040564272" y1="0" x2="398.7500040564272" y2="200" fill="none" stroke="lightgray" stroke-width="0.5"/><line x1="408.50000427166617" y1="0" x2="408.50000427166617" y2="200" fill="none" stroke="lightgray" stroke-width="0.5"/><line x1="418.25000448690514" y1="0" x2="418.25000448690514" y2="200" fill="none" stroke="lightgray" stroke-width="0.5"/><line x1="428.00000470214417" y1="0" x2="428.00000470214417" y2="200" fill="none" stroke="lightgray" stroke-width="0.5"/><line x1="8.74999544686752" y1="0" x2="8.74999544686752" y2="200" fill="none" stroke="lightgray" stroke-width="0.5"/><line x1="8.74999544686752" y1="0" x2="8.74999544686752" y2="200" fill="none" stroke="#c3c3c3" stroke-width="1"/><line x1="106.24999759925744" y1="0" x2="106.24999759925744" y2="200" fill="none" stroke="#c3c3c3" stroke-width="1"/><line x1="203.74999975164738" y1="0" x2="203.74999975164738" y2="200" fill="none" stroke="#c3c3c3" stroke-width="1"/><line x1="301.2500019040373" y1="0" x2="301.2500019040373" y2="200" fill="none" stroke="#c3c3c3" stroke-width="1"/><line x1="398.7500040564272" y1="0" x2="398.7500040564272" y2="200" fill="none" stroke="#c3c3c3" stroke-width="1"/></g><g class="test-ygi"><line x1="0" y1="197.5000021523899" x2="430" y2="197.5000021523899" fill="none" stroke="lightgray" stroke-width="0.5"/><line x1="0" y1="187.75000193715093" x2="430" y2="187.75000193715093" fill="none" stroke="lightgray" stroke-width="0.5"/><line x1="0" y1="178.00000172191193" x2="430" y2="178.00000172191193" fill="none" stroke="lightgray" stroke-width="0.5"/><line x1="0" y1="168.25000150667293" x2="430" y2="168.25000150667293" fill="none" stroke="lightgray" stroke-width="0.5"/><line x1="0" y1="158.50000129143393" x2="430" y2="158.50000129143393" fill="none" stroke="lightgray" stroke-width="0.5"/><line x1="0" y1="148.75000107619496" x2="430" y2="148.75000107619496" fill="none" stroke="lightgray" stroke-width="0.5"/><line x1="0" y1="139.00000086095596" x2="430" y2="139.00000086095596" fill="none" stroke="lightgray" stroke-width="0.5"/><line x1="0" y1="129.25000064571697" x2="430" y2="129.25000064571697" fill="none" stroke="lightgray" stroke-width="0.5"/><line x1="0" y1="119.50000043047798" x2="430" y2="119.50000043047798" fill="none" stroke="lightgray" stroke-width="0.5"/><line x1="0" y1="109.75000021523898" x2="430" y2="109.75000021523898" fill="none" stroke="lightgray" stroke-width="0.5"/><line x1="0" y1="100" x2="430" y2="100" fill="none" stroke="lightgray" stroke-width="0.5"/><line x1="0" y1="90.249999784761" x2="430" y2="90.249999784761" fill="none" stroke="lightgray" stroke-width="0.5"/><line x1="0" y1="80.49999956952203" x2="430" y2="80.49999956952203" fill="none" stroke="lightgray" stroke-width="0.5"/><line x1="0" y1="70.74999935428303" x2="430" y2="70.74999935428303" fill="none" stroke="lightgray" stroke-width="0.5"/><line x1="0" y1="60.999999139044036" x2="430" y2="60.999999139044036" fill="none" stroke="lightgray" stroke-width="0.5"/><line x1="0" y1="51.24999892380504" x2="430" y2="51.24999892380504" fill="none" stroke="lightgray" stroke-width="0.5"/><line x1="0" y1="41.49999870856607" x2="430" y2="41.49999870856607" fill="none" stroke="lightgray" stroke-width="0.5"/><line x1="0" y1="31.74999849332707" x2="430" y2="31.74999849332707" fill="none" stroke="lightgray" stroke-width="0.5"/><line x1="0" y1="21.99999827808807" x2="430" y2="21.99999827808807" fill="none" stroke="lightgray" stroke-width="0.5"/><line x1="0" y1="12.249998062849073" x2="430" y2="12.249998062849073" fill="none" stroke="lightgray" stroke-width="0.5"/><line x1="0" y1="2.4999978476101035" x2="430" y2="2.4999978476101035" fill="none" stroke="lightgray" stroke-width="0.5"/><line x1="0" y1="197.5000021523899" x2="430" y2="197.5000021523899" fill="none" stroke="lightgray" stroke-width="0.5"/><line x1="0" y1="197.5000021523899" x2="430" y2="197.5000021523899" fill="none" stroke="#c3c3c3" stroke-width="1"/><line x1="0" y1="100" x2="430" y2="100" fill="none" stroke="#c3c3c3" stroke-width="1"/><line x1="0" y1="2.4999978476101035" x2="430" y2="2.4999978476101035" fill="none" stroke="#c3c3c3" stroke-width="1"/></g></g><g><g class="test-xti" style="font-family: Asana-Math, Asana;"><line x1="0" y1="100" x2="426" y2="100" fill="none" stroke="rgb(50,50,50)" stroke-opacity="1" stroke-width="1"/><line x1="8.74999544686752" y1="96" x2="8.74999544686752" y2="104" fill="none" stroke="rgb(50,50,50)" stroke-opacity="1" stroke-width="1"/><line x1="106.24999759925744" y1="96" x2="106.24999759925744" y2="104" fill="none" stroke="rgb(50,50,50)" stroke-opacity="1" stroke-width="1"/><line x1="301.2500019040373" y1="96" x2="301.2500019040373" y2="104" fill="none" stroke="rgb(50,50,50)" stroke-opacity="1" stroke-width="1"/><line x1="398.7500040564272" y1="96" x2="398.7500040564272" y2="104" fill="none" stroke="rgb(50,50,50)" stroke-opacity="1" stroke-width="1"/><path d="M421,96.4 L429,100 L421,103.6 Z" stroke="none" stroke-width="1" fill="rgb(50,50,50)" fill-opacity="1"/></g><g class="test-yti" style="font-family: Asana-Math, Asana;"><line x1="203.74999975164735" y1="4" x2="203.74999975164735" y2="200" fill="none" stroke="rgb(50,50,50)" stroke-opacity="1" stroke-width="1"/><line x1="199.74999975164735" y1="197.5000021523899" x2="207.74999975164735" y2="197.5000021523899" fill="none" stroke="rgb(50,50,50)" stroke-opacity="1" stroke-width="1"/><line x1="199.74999975164735" y1="2.4999978476101035" x2="207.74999975164735" y2="2.4999978476101035" fill="none" stroke="rgb(50,50,50)" stroke-opacity="1" stroke-width="1"/><path d="M200.14999975164736,9 L203.74999975164735,1 L207.34999975164735,9 Z" stroke="none" stroke-width="1" fill="rgb(50,50,50)" fill-opacity="1"/></g><g class="test-plot-expression"><defs><clipPath id="cpx82vv192q"><rect x="1" y="1" width="428" height="198"/></clipPath></defs><g clip-path="url(#cpx82vv192q)"><g><circle cx="233.00000039736432" cy="51.24999892380504" r="4" style="stroke-width: 3; stroke: rgb(208, 2, 27); stroke-opacity: 1; fill: rgb(208, 2, 27); fill-opacity: 1;"/><circle cx="145.2499984602134" cy="60.999999139044036" r="4" style="stroke-width: 3; stroke: rgb(208, 2, 27); stroke-opacity: 1; fill: rgb(208, 2, 27); fill-opacity: 1;"/><circle cx="223.25000018212532" cy="90.249999784761" r="4" style="stroke-width: 3; stroke: rgb(208, 2, 27); stroke-opacity: 1; fill: rgb(208, 2, 27); fill-opacity: 1;"/><circle cx="242.75000061260332" cy="60.999999139044036" r="4" style="stroke-width: 3; stroke: rgb(208, 2, 27); stroke-opacity: 1; fill: rgb(208, 2, 27); fill-opacity: 1;"/><circle cx="184.24999932116935" cy="109.75000021523898" r="4" style="stroke-width: 3; stroke: rgb(208, 2, 27); stroke-opacity: 1; fill: rgb(208, 2, 27); fill-opacity: 1;"/><circle cx="164.7499988906914" cy="80.49999956952202" r="4" style="stroke-width: 3; stroke: rgb(208, 2, 27); stroke-opacity: 1; fill: rgb(208, 2, 27); fill-opacity: 1;"/><circle cx="252.50000082784229" cy="139.00000086095596" r="4" style="stroke-width: 3; stroke: rgb(208, 2, 27); stroke-opacity: 1; fill: rgb(208, 2, 27); fill-opacity: 1;"/><circle cx="359.75000319547115" cy="12.249998062849073" r="4" style="stroke-width: 3; stroke: rgb(208, 2, 27); stroke-opacity: 1; fill: rgb(208, 2, 27); fill-opacity: 1;"/></g><g><rect x="219.25000018212532" y="66.74999935428303" width="8" height="8" style="stroke-width: 3; stroke: rgb(126, 211, 33); stroke-opacity: 1; fill: rgb(126, 211, 33); fill-opacity: 1;"/><rect x="141.2499984602134" y="154.50000129143393" width="8" height="8" style="stroke-width: 3; stroke: rgb(126, 211, 33); stroke-opacity: 1; fill: rgb(126, 211, 33); fill-opacity: 1;"/><rect x="189.99999953640835" y="125.25000064571697" width="8" height="8" style="stroke-width: 3; stroke: rgb(126, 211, 33); stroke-opacity: 1; fill: rgb(126, 211, 33); fill-opacity: 1;"/><rect x="170.49999910593036" y="86.249999784761" width="8" height="8" style="stroke-width: 3; stroke: rgb(126, 211, 33); stroke-opacity: 1; fill: rgb(126, 211, 33); fill-opacity: 1;"/><rect x="248.50000082784229" y="47.24999892380504" width="8" height="8" style="stroke-width: 3; stroke: rgb(126, 211, 33); stroke-opacity: 1; fill: rgb(126, 211, 33); fill-opacity: 1;"/><rect x="268.00000125832025" y="37.49999870856604" width="8" height="8" style="stroke-width: 3; stroke: rgb(126, 211, 33); stroke-opacity: 1; fill: rgb(126, 211, 33); fill-opacity: 1;"/><rect x="355.75000319547115" y="27.74999849332707" width="8" height="8" style="stroke-width: 3; stroke: rgb(126, 211, 33); stroke-opacity: 1; fill: rgb(126, 211, 33); fill-opacity: 1;"/></g><g><path d="M258.2500010430813,66.74999935428303 L266.2500010430813,74.74999935428303 M266.2500010430813,66.74999935428303 L258.2500010430813,74.74999935428303" style="stroke-width: 3; stroke: rgb(74, 144, 226); stroke-opacity: 1; fill: none; fill-opacity: 1;"/></g></g></g><g class="test-xtl" style="font-family: &quot;Open Sans&quot;, verdana, arial, sans-serif;"><text text-anchor="middle" font-size="11" dominant-baseline="hanging" stroke="none" fill="rgb(50,50,50)" fill-opacity="1" x="5.614995446867519" y="107">-20</text><text text-anchor="middle" font-size="11" dominant-baseline="hanging" stroke="none" fill="rgb(50,50,50)" fill-opacity="1" x="103.11499759925744" y="107">-10</text><text text-anchor="middle" font-size="11" dominant-baseline="hanging" stroke="none" fill="rgb(50,50,50)" fill-opacity="1" x="301.2500019040373" y="107">10</text><text text-anchor="middle" font-size="11" dominant-baseline="hanging" stroke="none" fill="rgb(50,50,50)" fill-opacity="1" x="398.7500040564272" y="107">20</text><text text-anchor="middle" font-size="11" dominant-baseline="hanging" stroke="none" fill="rgb(50,50,50)" fill-opacity="1" x="195.74999975164738" y="105">0</text></g><g class="test-ytl" style="font-family: &quot;Open Sans&quot;, verdana, arial, sans-serif;"><text text-anchor="end" dominant-baseline="middle" font-size="11" stroke="none" fill="rgb(50,50,50)" fill-opacity="1" x="195.74999975164735" y="197.5000021523899">-10</text><text text-anchor="end" dominant-baseline="middle" font-size="11" stroke="none" fill="rgb(50,50,50)" fill-opacity="1" x="195.74999975164735" y="2.4999978476101035">10</text></g><rect class="real" x="1" y="1" width="428" height="198" style="fill: transparent; stroke: none;"/></g></g></g><g/></g><g/><g/><g/></svg>
        <svg xmlns="http://www.w3.org/2000/svg" xmlns:xlink="http://www.w3.org/1999/xlink" width="660" height="310" style="width:660px;height:310px;font-family:Asana-Math, Asana;background:transparent;"><g><g><g><g transform="matrix(1,0,0,1,397.66668701171875,111)"><path transform="matrix(0.017,0,0,-0.017,0,0)" d="M148 254C148 224 162 200 192 181L213 195C197 214 191 227 191 243C191 276 204 293 285 366C370 444 395 483 395 540C395 627 316 694 213 694C169 694 134 685 81 659L43 546L72 538L92 586C103 613 134 628 179 628C251 628 302 583 302 519C302 416 148 344 148 254ZM198 111C168 111 141 83 141 53C141 23 168 -5 197 -5C229 -5 257 22 257 53C257 83 229 111 198 111Z" stroke="rgb(0,0,0)" stroke-opacity="1" stroke-width="8" fill="rgb(0,0,0)" fill-opacity="1"></path></g></g></g></g><g><g><g><g transform="matrix(1,0,0,1,492.66668701171875,52)"><path transform="matrix(0.017,0,0,-0.017,0,0)" d="M45 284C45 90 152 -18 343 -18C439 -18 510 5 600 67C600 67 610 103 610 103C610 103 600 110 600 110C506 53 454 35 376 35C219 35 133 131 133 309C133 447 190 653 418 653C489 653 541 639 597 603L597 519L624 519C629 576 637 619 651 665C575 694 518 706 456 706C276 706 45 578 45 284ZM938 722L926 733C874 707 838 698 766 691L762 670L810 670C834 670 844 663 844 648C844 645 844 640 841 622C830 567 757 182 742 132C729 82 723 52 723 31C723 6 734 -9 753 -9C779 -9 815 12 913 85L903 103L877 86C848 67 826 56 816 56C809 56 803 66 803 76C803 82 804 89 807 104ZM1235 204L1206 77C1202 60 1200 42 1200 26C1200 4 1209 -9 1224 -9C1247 -9 1288 17 1370 85L1363 106C1339 86 1310 59 1288 59C1279 59 1273 68 1273 82C1273 87 1273 90 1274 93L1366 472L1356 481L1323 463C1282 478 1265 482 1238 482C1210 482 1190 477 1163 464C1101 433 1068 403 1043 354C999 265 968 145 968 67C968 23 983 -11 1002 -11C1039 -11 1119 41 1235 204ZM1283 414C1261 305 1242 253 1208 201C1151 117 1090 59 1058 59C1046 59 1040 72 1040 99C1040 163 1068 280 1103 360C1127 415 1150 433 1198 433C1221 433 1239 429 1283 414ZM1438 148C1433 97 1427 62 1416 16C1454 -2 1488 -11 1523 -11C1572 -11 1618 7 1669 47C1720 87 1741 124 1741 174C1741 228 1709 257 1635 271L1592 279C1532 290 1513 307 1513 348C1513 401 1558 442 1615 442C1656 442 1694 424 1710 397L1710 342L1733 342C1737 377 1741 404 1752 455C1713 474 1685 482 1652 482C1600 482 1539 452 1491 404C1465 377 1454 352 1454 316C1454 260 1485 228 1551 215L1614 203C1658 195 1674 177 1674 138C1674 73 1628 29 1557 29C1522 29 1491 40 1463 64L1463 148ZM1826 148C1821 97 1815 62 1804 16C1842 -2 1876 -11 1911 -11C1960 -11 2006 7 2057 47C2108 87 2129 124 2129 174C2129 228 2097 257 2023 271L1980 279C1920 290 1901 307 1901 348C1901 401 1946 442 2003 442C2044 442 2082 424 2098 397L2098 342L2121 342C2125 377 2129 404 2140 455C2101 474 2073 482 2040 482C1988 482 1927 452 1879 404C1853 377 1842 352 1842 316C1842 260 1873 228 1939 215L2002 203C2046 195 2062 177 2062 138C2062 73 2016 29 1945 29C1910 29 1879 40 1851 64L1851 148ZM2695 689C2540 689 2461 566 2461 324C2461 207 2482 106 2517 57C2552 8 2608 -20 2670 -20C2821 -20 2897 110 2897 366C2897 585 2832 689 2695 689ZM2677 654C2774 654 2813 556 2813 316C2813 103 2775 15 2683 15C2586 15 2545 116 2545 360C2545 571 2582 654 2677 654Z" stroke="rgb(0,0,0)" stroke-opacity="1" stroke-width="8" fill="rgb(0,0,0)" fill-opacity="1"></path></g></g></g></g><g><g><g><g transform="matrix(1,0,0,1,493.66668701171875,72)"><path transform="matrix(0.017,0,0,-0.017,0,0)" d="M45 284C45 90 152 -18 343 -18C439 -18 510 5 600 67C600 67 610 103 610 103C610 103 600 110 600 110C506 53 454 35 376 35C219 35 133 131 133 309C133 447 190 653 418 653C489 653 541 639 597 603L597 519L624 519C629 576 637 619 651 665C575 694 518 706 456 706C276 706 45 578 45 284ZM938 722L926 733C874 707 838 698 766 691L762 670L810 670C834 670 844 663 844 648C844 645 844 640 841 622C830 567 757 182 742 132C729 82 723 52 723 31C723 6 734 -9 753 -9C779 -9 815 12 913 85L903 103L877 86C848 67 826 56 816 56C809 56 803 66 803 76C803 82 804 89 807 104ZM1235 204L1206 77C1202 60 1200 42 1200 26C1200 4 1209 -9 1224 -9C1247 -9 1288 17 1370 85L1363 106C1339 86 1310 59 1288 59C1279 59 1273 68 1273 82C1273 87 1273 90 1274 93L1366 472L1356 481L1323 463C1282 478 1265 482 1238 482C1210 482 1190 477 1163 464C1101 433 1068 403 1043 354C999 265 968 145 968 67C968 23 983 -11 1002 -11C1039 -11 1119 41 1235 204ZM1283 414C1261 305 1242 253 1208 201C1151 117 1090 59 1058 59C1046 59 1040 72 1040 99C1040 163 1068 280 1103 360C1127 415 1150 433 1198 433C1221 433 1239 429 1283 414ZM1438 148C1433 97 1427 62 1416 16C1454 -2 1488 -11 1523 -11C1572 -11 1618 7 1669 47C1720 87 1741 124 1741 174C1741 228 1709 257 1635 271L1592 279C1532 290 1513 307 1513 348C1513 401 1558 442 1615 442C1656 442 1694 424 1710 397L1710 342L1733 342C1737 377 1741 404 1752 455C1713 474 1685 482 1652 482C1600 482 1539 452 1491 404C1465 377 1454 352 1454 316C1454 260 1485 228 1551 215L1614 203C1658 195 1674 177 1674 138C1674 73 1628 29 1557 29C1522 29 1491 40 1463 64L1463 148ZM1826 148C1821 97 1815 62 1804 16C1842 -2 1876 -11 1911 -11C1960 -11 2006 7 2057 47C2108 87 2129 124 2129 174C2129 228 2097 257 2023 271L1980 279C1920 290 1901 307 1901 348C1901 401 1946 442 2003 442C2044 442 2082 424 2098 397L2098 342L2121 342C2125 377 2129 404 2140 455C2101 474 2073 482 2040 482C1988 482 1927 452 1879 404C1853 377 1842 352 1842 316C1842 260 1873 228 1939 215L2002 203C2046 195 2062 177 2062 138C2062 73 2016 29 1945 29C1910 29 1879 40 1851 64L1851 148ZM2850 -3L2850 27L2798 30C2743 33 2733 44 2733 96L2733 700L2492 598L2499 548L2649 614L2649 96C2649 44 2638 33 2584 30L2528 27L2528 -3C2682 0 2682 0 2693 0C2724 0 2834 -3 2850 -3Z" stroke="rgb(0,0,0)" stroke-opacity="1" stroke-width="8" fill="rgb(0,0,0)" fill-opacity="1"></path></g></g></g></g></svg>
</svg>
