<svg xmlns="http://www.w3.org/2000/svg" xmlns:xlink="http://www.w3.org/1999/xlink" width="585.827" height="207.875" viewBox="0 0 439.37 155.906"><clipPath id="a"><path transform="matrix(.57025 0 0 -.57025 39.297 189.088)" d="M2.87 46.658h566.064v281.657H2.87z"/></clipPath><g clip-path="url(#a)"><clipPath id="b"><path transform="matrix(.05702 0 0 -.05702 39.297 189.088)" d="M0 14h1920v3456H0z"/></clipPath><g clip-path="url(#b)" stroke-width="6" stroke-linecap="round" stroke-linejoin="round" fill="none" stroke="#000"><path d="M61.87 155.822v-23.786h1.738v23.786" stroke-width=".34212"/><path d="M60.131 151.917v-23.791h2.61v3.91M67.084 152.797v-23.786h1.742v23.786" stroke-width=".34212"/><path d="M65.346 146.72v-23.79h2.61v6.081" stroke-width=".34212"/><path d="M61.436 128.126v-11.355h5.214v6.159M70.565 151.087v-23.791h1.738v23.79M74.04 148.815v-23.791h1.74v23.79M80.993 157.542v-23.79h1.738v23.79" stroke-width=".34212"/><path d="M79.255 153.842v-23.79h2.605v3.7" stroke-width=".34212"/><path d="M77.517 151.556V127.77h3.043v2.281M84.47 156.766V132.98h1.738v23.786M87.946 152.4v-23.79h1.738v23.79" stroke-width=".34212"/><path d="M85.341 132.98v-5.474h3.476v1.104" stroke-width=".34212"/><path d="M79.036 127.77v-8.8h8.043v8.536" stroke-width=".34212"/><path d="M74.908 125.024v-15.899h8.147v9.845" stroke-width=".34212"/><path d="M71.431 127.296V97.278h7.55v11.847" stroke-width=".34212"/><path d="M64.046 116.771v-26.6h11.163v7.107M94.898 153.993v-23.787h1.738v23.787M98.375 152.93v-23.791h1.738v23.79" stroke-width=".34212"/><path d="M95.77 130.206v-5.666h3.476v4.599" stroke-width=".34212"/><path d="M93.16 141.693v-23.786h4.348v6.633M101.855 156.347v-23.791h1.738v23.79M107.07 155.452v-23.786h1.738v23.786" stroke-width=".34212"/><path d="M105.332 148.728v-23.79h2.605v6.728" stroke-width=".34212"/><path d="M102.722 132.556v-16.25h3.91v8.631" stroke-width=".34212"/><path d="M95.336 117.907v-10.41h9.343v8.809" stroke-width=".34212"/><path d="M91.422 125.708v-23.79h8.586v5.579M112.284 154.704v-23.786h1.738v23.786" stroke-width=".34212"/><path d="M110.546 143.035v-23.787h2.605v11.67M117.498 147.57v-23.787h1.739v23.786" stroke-width=".34212"/><path d="M115.76 137.47v-23.787h2.605v10.1M120.975 155.092v-23.79h1.738v23.79M126.19 155.918v-23.791h1.737v23.79" stroke-width=".34212"/><path d="M124.451 150.037v-23.79h2.61v5.88" stroke-width=".34212"/><path d="M121.846 131.301v-10.58h3.91v5.526M129.665 153.578v-23.791h1.738v23.79M134.88 152.834v-23.791h1.742v23.79" stroke-width=".34212"/><path d="M133.142 151.246V127.46h2.609v1.583" stroke-width=".34212"/><path d="M130.537 129.787V116.94h3.91v10.52" stroke-width=".34212"/><path d="M123.799 120.722v-12.76h8.695v8.978" stroke-width=".34212"/><path d="M117.065 113.683V93.327h11.081v14.635" stroke-width=".34212"/><path d="M111.85 119.248V90.125h10.753v3.202" stroke-width=".34212"/><path d="M95.715 101.917v-45h21.51v33.208" stroke-width=".34212"/><path d="M69.625 90.17V14.81h36.847v42.108" stroke-width=".34212"/></g><clipPath id="c"><path transform="matrix(.05702 0 0 -.05702 39.297 189.088)" d="M0 14h5760v3456H0z"/></clipPath><g clip-path="url(#c)"><path stroke-width=".34212" stroke-linecap="round" stroke-linejoin="round" fill="none" stroke="#000" d="M57.075 135.101V8.99M57.075 135.101h-2.172M57.075 112.529h-2.172M57.075 89.951h-2.172M57.075 67.378h-2.172M57.075 44.801h-2.172M57.075 22.228h-2.172"/><symbol id="d"><path d="M.232.732A.202.202 0 0 1 .069.654C.023.592 0 .497 0 .366 0 .127.08 0 .232 0c.15 0 .232.127.232.36 0 .138-.022.23-.069.294a.198.198 0 0 1-.163.078m0-.078C.327.654.374.558.374.368.374.167.328.073.23.073.137.073.09.171.09.365c0 .194.047.289.142.289z"/></symbol><symbol id="e"><path d="M.472.087H.099C.108.145.14.182.227.233l.1.054c.099.054.15.127.15.214a.204.204 0 0 1-.066.152.227.227 0 0 1-.161.056C.16.709.093.677.054.617A.276.276 0 0 1 .016.463h.088a.245.245 0 0 0 .021.1.135.135 0 0 0 .122.069c.08 0 .14-.057.14-.133C.387.443.354.395.291.359L.199.307C.051.223.008.156 0 0h.472v.087z"/></symbol><symbol id="f"><path d="M.299.17V0h.088v.17h.105v.079H.387v.46H.322L0 .263V.17h.299m0 .079H.077l.222.31v-.31z"/></symbol><symbol id="g"><path d="M.455.547C.438.663.362.732.254.732a.226.226 0 0 1-.19-.101A.51.51 0 0 1 0 .346.44.44 0 0 1 .06.088.204.204 0 0 1 .238 0C.373 0 .47.1.47.239.47.371.38.464.253.464A.191.191 0 0 1 .09.385c.001.173.057.269.158.269C.31.654.353.615.367.547h.088M.242.386C.327.386.38.327.38.232.38.143.32.078.239.078.157.078.095.146.095.237c0 .088.06.149.147.149z"/></symbol><symbol id="h"><path d="M.354.396c.073.044.097.08.097.147 0 .111-.087.189-.213.189C.113.732.025.654.025.543c0-.066.024-.102.096-.147C.04.357 0 .298 0 .22 0 .09.098 0 .238 0c.14 0 .238.09.238.219 0 .079-.04.138-.122.177M.238.654C.313.654.361.61.361.541c0-.066-.049-.11-.123-.11S.115.475.115.542c0 .068.049.112.123.112m0-.297C.326.357.386.301.386.218c0-.084-.06-.14-.15-.14C.15.078.09.135.09.218c0 .083.06.139.148.139z"/></symbol><symbol id="i"><path d="M.157.505V0h.088v.709H.187C.156.6.136.585 0 .568V.505h.157z"/></symbol><use xlink:href="#d" transform="matrix(0 -3.6496 -3.6496 0 51.953 135.959)"/><use xlink:href="#e" transform="matrix(0 -3.6496 -3.6496 0 51.87 113.419)"/><use xlink:href="#f" transform="matrix(0 -3.6496 -3.6496 0 51.87 90.864)"/><use xlink:href="#g" transform="matrix(0 -3.6496 -3.6496 0 51.953 68.236)"/><use xlink:href="#h" transform="matrix(0 -3.6496 -3.6496 0 51.953 45.68)"/><use xlink:href="#i" transform="matrix(0 -3.6496 -3.6496 0 51.87 23.885)"/><use xlink:href="#d" transform="matrix(0 -3.6496 -3.6496 0 51.953 22.071)"/></g><clipPath id="j"><path transform="matrix(.05702 0 0 -.05702 39.297 189.088)" d="M311.762 401.762H1760.32V3158.24H311.762z"/></clipPath><g clip-path="url(#j)" stroke-width="6" stroke-linecap="round" stroke-linejoin="round" fill="none" stroke="#009f86"><path d="M60.131 152.962v-24.836M61.87 156.867v-24.831M63.608 156.867v-24.831M65.346 147.765V122.93M67.084 153.842v-24.83M68.826 153.842v-24.83M70.565 152.131v-24.835M72.303 152.131v-24.835M74.04 149.855v-24.831M75.78 149.855v-24.831M77.517 152.601v-24.83M79.255 154.882v-24.83M80.993 158.587V133.75M82.731 158.587V133.75M84.47 157.811V132.98M86.208 157.811V132.98M87.946 153.445V128.61M89.684 153.445V128.61M91.422 126.753v-24.836M93.16 142.738v-24.83M94.898 155.037v-24.83M96.636 155.037v-24.83M98.375 153.97v-24.831M100.113 153.97v-24.831M101.855 157.391v-24.835M103.593 157.391v-24.835M105.332 149.768v-24.83M107.07 156.497v-24.83M108.808 156.497v-24.83M110.546 144.08v-24.832M112.284 155.749v-24.831M114.022 155.749v-24.831M115.76 138.514v-24.831M117.498 148.614v-24.831M119.237 148.614v-24.831M120.975 156.137V131.3M122.713 156.137V131.3M124.451 151.082v-24.835M126.19 156.963v-24.836M127.927 156.963v-24.836M129.665 154.622v-24.835M131.403 154.622v-24.835M133.142 152.29v-24.83M134.88 153.878v-24.835M136.622 153.878v-24.835" stroke-width=".34212"/></g><clipPath id="k"><path transform="matrix(.05702 0 0 -.05702 39.297 189.088)" d="M1920 14h1920v3456H1920z"/></clipPath><g clip-path="url(#k)" stroke-width="6" stroke-linecap="round" stroke-linejoin="round" fill="none" stroke="#000"><path d="M171.357 155.822v-23.786h1.739v23.786" stroke-width=".34212"/><path d="M169.62 151.917v-23.791h2.609v3.91M176.572 152.797v-23.786h1.742v23.786" stroke-width=".34212"/><path d="M174.834 146.72v-23.79h2.61v6.081" stroke-width=".34212"/><path d="M170.924 128.126v-11.355h5.214v6.159M180.053 151.087v-23.791h1.738v23.79M183.529 148.815v-23.791h1.738v23.79M190.481 157.542v-23.79h1.738v23.79" stroke-width=".34212"/><path d="M188.743 153.842v-23.79h2.605v3.7" stroke-width=".34212"/><path d="M187.005 151.556V127.77h3.043v2.281M193.958 156.766V132.98h1.738v23.786M197.434 152.4v-23.79h1.738v23.79" stroke-width=".34212"/><path d="M194.829 132.98v-5.474h3.476v1.104" stroke-width=".34212"/><path d="M188.524 127.77v-8.8h8.043v8.536" stroke-width=".34212"/><path d="M184.396 125.024v-15.899h8.147v9.845" stroke-width=".34212"/><path d="M180.92 127.296V97.278h7.55v11.847" stroke-width=".34212"/><path d="M173.534 116.771v-26.6h11.163v7.107M204.386 153.993v-23.787h1.738v23.787M207.863 152.93v-23.791h1.738v23.79" stroke-width=".34212"/><path d="M205.258 130.206v-5.666h3.476v4.599" stroke-width=".34212"/><path d="M202.648 141.693v-23.786h4.348v6.633M211.343 156.347v-23.791h1.738v23.79M216.558 155.452v-23.786h1.738v23.786" stroke-width=".34212"/><path d="M214.82 148.728v-23.79h2.605v6.728" stroke-width=".34212"/><path d="M212.21 132.556v-16.25h3.91v8.631" stroke-width=".34212"/><path d="M204.824 117.907v-10.41h9.343v8.809" stroke-width=".34212"/><path d="M200.91 125.708v-23.79h8.586v5.579M221.772 154.704v-23.786h1.738v23.786" stroke-width=".34212"/><path d="M220.034 143.035v-23.787h2.605v11.67M226.986 147.57v-23.787h1.739v23.786" stroke-width=".34212"/><path d="M225.248 137.47v-23.787h2.605v10.1M230.463 155.092v-23.79h1.738v23.79M235.677 155.918v-23.791h1.738v23.79" stroke-width=".34212"/><path d="M233.939 150.037v-23.79h2.61v5.88" stroke-width=".34212"/><path d="M231.334 131.301v-10.58h3.91v5.526M239.153 153.578v-23.791h1.738v23.79M244.368 152.834v-23.791h1.742v23.79" stroke-width=".34212"/><path d="M242.63 151.246V127.46h2.609v1.583" stroke-width=".34212"/><path d="M240.025 129.787V116.94h3.91v10.52" stroke-width=".34212"/><path d="M233.287 120.722v-12.76h8.695v8.978" stroke-width=".34212"/><path d="M226.553 113.683V93.327h11.081v14.635" stroke-width=".34212"/><path d="M221.339 119.248V90.125h10.752v3.202" stroke-width=".34212"/><path d="M205.203 101.917v-45h21.51v33.208" stroke-width=".34212"/><path d="M179.113 90.17V14.81h36.847v42.108" stroke-width=".34212"/></g><clipPath id="l"><path transform="matrix(.05702 0 0 -.05702 39.297 189.088)" d="M0 14h5760v3456H0z"/></clipPath><g clip-path="url(#l)"><path stroke-width=".34212" stroke-linecap="round" stroke-linejoin="round" fill="none" stroke="#000" d="M166.563 135.101V8.99M166.563 135.101h-2.172M166.563 112.529h-2.172M166.563 89.951h-2.172M166.563 67.378h-2.172M166.563 44.801h-2.172M166.563 22.228h-2.172"/><use xlink:href="#d" transform="matrix(0 -3.6496 -3.6496 0 161.441 135.959)"/><use xlink:href="#e" transform="matrix(0 -3.6496 -3.6496 0 161.358 113.419)"/><use xlink:href="#f" transform="matrix(0 -3.6496 -3.6496 0 161.358 90.864)"/><use xlink:href="#g" transform="matrix(0 -3.6496 -3.6496 0 161.441 68.236)"/><use xlink:href="#h" transform="matrix(0 -3.6496 -3.6496 0 161.441 45.68)"/><use xlink:href="#i" transform="matrix(0 -3.6496 -3.6496 0 161.358 23.885)"/><use xlink:href="#d" transform="matrix(0 -3.6496 -3.6496 0 161.441 22.071)"/></g><clipPath id="m"><path transform="matrix(.05702 0 0 -.05702 39.297 189.088)" d="M2231.76 401.762h1448.56V3158.24H2231.76z"/></clipPath><g clip-path="url(#m)" stroke-width="6" stroke-linecap="round" stroke-linejoin="round" fill="none"><path stroke="#c37ac0" d="M169.62 152.962v-24.836M171.357 156.867v-24.831M173.096 156.867v-24.831M174.834 147.765V122.93M176.572 153.842v-24.83M178.314 153.842v-24.83M180.053 152.131v-24.835M181.79 152.131v-24.835M183.529 149.855v-24.831M185.267 149.855v-24.831M187.005 152.601v-24.83M188.743 154.882v-24.83M190.481 158.587V133.75M192.22 158.587V133.75M193.958 157.811V132.98M195.696 157.811V132.98M197.434 153.445V128.61M199.172 153.445V128.61" stroke-width=".34212"/><path stroke="#009f86" d="M200.91 126.753v-24.836M202.648 142.738v-24.83M204.386 155.037v-24.83M206.124 155.037v-24.83M207.863 153.97v-24.831M209.6 153.97v-24.831M211.343 157.391v-24.835M213.081 157.391v-24.835M214.82 149.768v-24.83M216.558 156.497v-24.83M218.296 156.497v-24.83M220.034 144.08v-24.832M221.772 155.749v-24.831M223.51 155.749v-24.831M225.248 138.514v-24.831M226.986 148.614v-24.831M228.725 148.614v-24.831M230.463 156.137V131.3M232.2 156.137V131.3M233.939 151.082v-24.835M235.677 156.963v-24.836M237.415 156.963v-24.836M239.153 154.622v-24.835M240.891 154.622v-24.835M242.63 152.29v-24.83M244.368 153.878v-24.835M246.11 153.878v-24.835" stroke-width=".34212"/><path stroke-dasharray="1.02636,1.7106000000000001" stroke="#000" d="M166.563 33.515h82.604" stroke-width=".34212"/></g><clipPath id="n"><path transform="matrix(.05702 0 0 -.05702 39.297 189.088)" d="M3840 14h1920v3456H3840z"/></clipPath><g clip-path="url(#n)" stroke-width="6" stroke-linecap="round" stroke-linejoin="round" fill="none" stroke="#000"><path d="M280.845 155.822v-23.786h1.739v23.786" stroke-width=".34212"/><path d="M279.107 151.917v-23.791h2.61v3.91M286.06 152.797v-23.786h1.742v23.786" stroke-width=".34212"/><path d="M284.322 146.72v-23.79h2.61v6.081" stroke-width=".34212"/><path d="M280.412 128.126v-11.355h5.214v6.159M289.54 151.087v-23.791h1.739v23.79M293.017 148.815v-23.791h1.738v23.79M299.97 157.542v-23.79h1.737v23.79" stroke-width=".34212"/><path d="M298.231 153.842v-23.79h2.605v3.7" stroke-width=".34212"/><path d="M296.493 151.556V127.77h3.043v2.281M303.446 156.766V132.98h1.738v23.786M306.922 152.4v-23.79h1.738v23.79" stroke-width=".34212"/><path d="M304.317 132.98v-5.474h3.476v1.104" stroke-width=".34212"/><path d="M298.012 127.77v-8.8h8.043v8.536" stroke-width=".34212"/><path d="M293.884 125.024v-15.899h8.147v9.845" stroke-width=".34212"/><path d="M290.407 127.296V97.278h7.55v11.847" stroke-width=".34212"/><path d="M283.022 116.771v-26.6h11.163v7.107M313.874 153.993v-23.787h1.738v23.787M317.35 152.93v-23.791h1.739v23.79" stroke-width=".34212"/><path d="M314.746 130.206v-5.666h3.476v4.599" stroke-width=".34212"/><path d="M312.136 141.693v-23.786h4.348v6.633M320.831 156.347v-23.791h1.738v23.79M326.046 155.452v-23.786h1.738v23.786" stroke-width=".34212"/><path d="M324.308 148.728v-23.79h2.605v6.728" stroke-width=".34212"/><path d="M321.698 132.556v-16.25h3.91v8.631" stroke-width=".34212"/><path d="M314.312 117.907v-10.41h9.343v8.809" stroke-width=".34212"/><path d="M310.398 125.708v-23.79h8.586v5.579M331.26 154.704v-23.786h1.738v23.786" stroke-width=".34212"/><path d="M329.522 143.035v-23.787h2.605v11.67M336.474 147.57v-23.787h1.739v23.786" stroke-width=".34212"/><path d="M334.736 137.47v-23.787h2.605v10.1M339.95 155.092v-23.79h1.739v23.79M345.165 155.918v-23.791h1.738v23.79" stroke-width=".34212"/><path d="M343.427 150.037v-23.79h2.61v5.88" stroke-width=".34212"/><path d="M340.822 131.301v-10.58h3.91v5.526M348.641 153.578v-23.791h1.738v23.79M353.856 152.834v-23.791h1.742v23.79" stroke-width=".34212"/><path d="M352.118 151.246V127.46h2.609v1.583" stroke-width=".34212"/><path d="M349.513 129.787V116.94h3.91v10.52" stroke-width=".34212"/><path d="M342.775 120.722v-12.76h8.695v8.978" stroke-width=".34212"/><path d="M336.041 113.683V93.327h11.081v14.635" stroke-width=".34212"/><path d="M330.827 119.248V90.125h10.752v3.202" stroke-width=".34212"/><path d="M314.69 101.917v-45h21.51v33.208" stroke-width=".34212"/><path d="M288.6 90.17V14.81h36.848v42.108" stroke-width=".34212"/></g><clipPath id="o"><path transform="matrix(.05702 0 0 -.05702 39.297 189.088)" d="M0 14h5760v3456H0z"/></clipPath><g clip-path="url(#o)"><path stroke-width=".34212" stroke-linecap="round" stroke-linejoin="round" fill="none" stroke="#000" d="M276.05 135.101V8.99M276.05 135.101h-2.17M276.05 112.529h-2.17M276.05 89.951h-2.17M276.05 67.378h-2.17M276.05 44.801h-2.17M276.05 22.228h-2.17"/><use xlink:href="#d" transform="matrix(0 -3.6496 -3.6496 0 270.93 135.959)"/><use xlink:href="#e" transform="matrix(0 -3.6496 -3.6496 0 270.846 113.419)"/><use xlink:href="#f" transform="matrix(0 -3.6496 -3.6496 0 270.846 90.864)"/><use xlink:href="#g" transform="matrix(0 -3.6496 -3.6496 0 270.93 68.236)"/><use xlink:href="#h" transform="matrix(0 -3.6496 -3.6496 0 270.93 45.68)"/><use xlink:href="#i" transform="matrix(0 -3.6496 -3.6496 0 270.846 23.885)"/><use xlink:href="#d" transform="matrix(0 -3.6496 -3.6496 0 270.93 22.071)"/></g><clipPath id="p"><path transform="matrix(.05702 0 0 -.05702 39.297 189.088)" d="M4151.76 401.762h1448.56V3158.24H4151.76z"/></clipPath><g clip-path="url(#p)" stroke-width="6" stroke-linecap="round" stroke-linejoin="round" fill="none"><path stroke="#c37ac0" d="M279.107 152.962v-24.836M280.845 156.867v-24.831M282.584 156.867v-24.831M284.322 147.765V122.93M286.06 153.842v-24.83M287.802 153.842v-24.83M289.54 152.131v-24.835M291.279 152.131v-24.835M293.017 149.855v-24.831M294.755 149.855v-24.831M296.493 152.601v-24.83M298.231 154.882v-24.83M299.97 158.587V133.75M301.707 158.587V133.75M303.446 157.811V132.98M305.184 157.811V132.98M306.922 153.445V128.61M308.66 153.445V128.61" stroke-width=".34212"/><path stroke="#e0e75a" d="M310.398 126.753v-24.836M312.136 142.738v-24.83M313.874 155.037v-24.83M315.612 155.037v-24.83M317.35 153.97v-24.831M319.089 153.97v-24.831M320.831 157.391v-24.835M322.57 157.391v-24.835M324.308 149.768v-24.83M326.046 156.497v-24.83M327.784 156.497v-24.83" stroke-width=".34212"/><path stroke="#009f86" d="M329.522 144.08v-24.832M331.26 155.749v-24.831M332.998 155.749v-24.831M334.736 138.514v-24.831M336.474 148.614v-24.831M338.213 148.614v-24.831M339.95 156.137V131.3M341.689 156.137V131.3M343.427 151.082v-24.835M345.165 156.963v-24.836M346.903 156.963v-24.836M348.641 154.622v-24.835M350.38 154.622v-24.835M352.118 152.29v-24.83M353.856 153.878v-24.835M355.598 153.878v-24.835" stroke-width=".34212"/><path stroke-dasharray="1.02636,1.7106000000000001" stroke="#000" d="M276.05 78.665h82.605" stroke-width=".34212"/></g></g></svg>