<svg xmlns="http://www.w3.org/2000/svg" xmlns:xlink="http://www.w3.org/1999/xlink" x="0" y="0" width="661.3333740234375" height="301.3333435058594" style="
        width:661.3333740234375px;
        height:301.3333435058594px;
        background: transparent;
        fill: none;
">
        
        
        <svg xmlns="http://www.w3.org/2000/svg" class="role-diagram-draw-area"><g class="shapes-region" style="stroke: black; fill: none;"><g class="composite-shape" data-amt="diagram/shapes/plot" transform="matrix(1,0,0,1,130,38)"><g><g><g class="test-xgi"><line x1="70" y1="0" x2="70" y2="200" fill="none" stroke="#c3c3c3" stroke-width="0.5"/><line x1="200" y1="0" x2="200" y2="200" fill="none" stroke="#c3c3c3" stroke-width="0.5"/><line x1="330" y1="0" x2="330" y2="200" fill="none" stroke="#c3c3c3" stroke-width="0.5"/></g><g class="test-ygi"><line x1="0" y1="100" x2="430" y2="100" fill="none" stroke="#c3c3c3" stroke-width="0.5"/></g></g><g><g class="test-xti" style="font-family: Asana-Math, Asana;"><line x1="0" y1="100" x2="426" y2="100" fill="none" stroke="rgb(50,50,50)" stroke-opacity="1" stroke-width="1"/><line x1="70" y1="96" x2="70" y2="104" fill="none" stroke="rgb(50,50,50)" stroke-opacity="1" stroke-width="1"/><line x1="330" y1="96" x2="330" y2="104" fill="none" stroke="rgb(50,50,50)" stroke-opacity="1" stroke-width="1"/><path d="M421,96.4 L429,100 L421,103.6 Z" stroke="none" stroke-width="1" fill="rgb(50,50,50)" fill-opacity="1"/></g><g class="test-yti" style="font-family: Asana-Math, Asana;"><line x1="200" y1="4" x2="200" y2="200" fill="none" stroke="rgb(50,50,50)" stroke-opacity="1" stroke-width="1"/><path d="M196.4,9 L200,1 L203.6,9 Z" stroke="none" stroke-width="1" fill="rgb(50,50,50)" fill-opacity="1"/></g><g class="test-plot-expression"><defs><clipPath id="cp2r4ge0iv4"><rect x="1" y="1" width="428" height="198"/></clipPath></defs><g clip-path="url(#cp2r4ge0iv4)"><path d=" M0.00,200.00 L0.50,199.75 L1.00,199.50 L1.50,199.25 L2.00,199.00 L2.50,198.75 L3.00,198.50 L3.50,198.25 L4.00,198.00 L4.51,197.75 L5.01,197.50 L5.51,197.25 L6.01,197.00 L6.51,196.75 L7.01,196.50 L7.51,196.25 L8.01,196.00 L8.51,195.75 L9.01,195.49 L9.51,195.24 L10.01,194.99 L10.51,194.74 L11.01,194.49 L11.51,194.24 L12.01,193.99 L12.51,193.74 L13.02,193.49 L13.52,193.24 L14.02,192.99 L14.52,192.74 L15.02,192.49 L15.52,192.24 L16.02,191.99 L16.52,191.74 L17.02,191.49 L17.52,191.24 L18.02,190.99 L18.52,190.74 L19.02,190.49 L19.52,190.24 L20.02,189.99 L20.52,189.74 L21.02,189.49 L21.53,189.24 L22.03,188.99 L22.53,188.74 L23.03,188.49 L23.53,188.24 L24.03,187.99 L24.53,187.74 L25.03,187.49 L25.53,187.24 L26.03,186.98 L26.53,186.73 L27.03,186.48 L27.53,186.23 L28.03,185.98 L28.53,185.73 L29.03,185.48 L29.53,185.23 L30.03,184.98 L30.54,184.73 L31.04,184.48 L31.54,184.23 L32.04,183.98 L32.54,183.73 L33.04,183.48 L33.54,183.23 L34.04,182.98 L34.54,182.73 L35.04,182.48 L35.54,182.23 L36.04,181.98 L36.54,181.73 L37.04,181.48 L37.54,181.23 L38.04,180.98 L38.54,180.73 L39.05,180.48 L39.55,180.23 L40.05,179.98 L40.55,179.73 L41.05,179.48 L41.55,179.23 L42.05,178.98 L42.55,178.73 L43.05,178.47 L43.55,178.22 L44.05,177.97 L44.55,177.72 L45.05,177.47 L45.55,177.22 L46.05,176.97 L46.55,176.72 L47.05,176.47 L47.56,176.22 L48.06,175.97 L48.56,175.72 L49.06,175.47 L49.56,175.22 L50.06,174.97 L50.56,174.72 L51.06,174.47 L51.56,174.22 L52.06,173.97 L52.56,173.72 L53.06,173.47 L53.56,173.22 L54.06,172.97 L54.56,172.72 L55.06,172.47 L55.56,172.22 L56.07,171.97 L56.57,171.72 L57.07,171.47 L57.57,171.22 L58.07,170.97 L58.57,170.72 L59.07,170.47 L59.57,170.22 L60.07,169.97 L60.57,169.71 L61.07,169.46 L61.57,169.21 L62.07,168.96 L62.57,168.71 L63.07,168.46 L63.57,168.21 L64.07,167.96 L64.58,167.71 L65.08,167.46 L65.58,167.21 L66.08,166.96 L66.58,166.71 L67.08,166.46 L67.58,166.21 L68.08,165.96 L68.58,165.71 L69.08,165.46 L69.58,165.21 L70.08,164.96 L70.58,164.71 L71.08,164.46 L71.58,164.21 L72.08,163.96 L72.58,163.71 L73.08,163.46 L73.59,163.21 L74.09,162.96 L74.59,162.71 L75.09,162.46 L75.59,162.21 L76.09,161.96 L76.59,161.71 L77.09,161.46 L77.59,161.20 L78.09,160.95 L78.59,160.70 L79.09,160.45 L79.59,160.20 L80.09,159.95 L80.59,159.70 L81.09,159.45 L81.59,159.20 L82.10,158.95 L82.60,158.70 L83.10,158.45 L83.60,158.20 L84.10,157.95 L84.60,157.70 L85.10,157.45 L85.60,157.20 L86.10,156.95 L86.60,156.70 L87.10,156.45 L87.60,156.20 L88.10,155.95 L88.60,155.70 L89.10,155.45 L89.60,155.20 L90.10,154.95 L90.61,154.70 L91.11,154.45 L91.61,154.20 L92.11,153.95 L92.61,153.70 L93.11,153.45 L93.61,153.20 L94.11,152.95 L94.61,152.69 L95.11,152.44 L95.61,152.19 L96.11,151.94 L96.61,151.69 L97.11,151.44 L97.61,151.19 L98.11,150.94 L98.61,150.69 L99.12,150.44 L99.62,150.19 L100.12,149.94 L100.62,149.69 L101.12,149.44 L101.62,149.19 L102.12,148.94 L102.62,148.69 L103.12,148.44 L103.62,148.19 L104.12,147.94 L104.62,147.69 L105.12,147.44 L105.62,147.19 L106.12,146.94 L106.62,146.69 L107.12,146.44 L107.63,146.19 L108.13,145.94 L108.63,145.69 L109.13,145.44 L109.63,145.19 L110.13,144.94 L110.63,144.69 L111.13,144.44 L111.63,144.19 L112.13,143.93 L112.63,143.68 L113.13,143.43 L113.63,143.18 L114.13,142.93 L114.63,142.68 L115.13,142.43 L115.63,142.18 L116.14,141.93 L116.64,141.68 L117.14,141.43 L117.64,141.18 L118.14,140.93 L118.64,140.68 L119.14,140.43 L119.64,140.18 L120.14,139.93 L120.64,139.68 L121.14,139.43 L121.64,139.18 L122.14,138.93 L122.64,138.68 L123.14,138.43 L123.64,138.18 L124.14,137.93 L124.64,137.68 L125.15,137.43 L125.65,137.18 L126.15,136.93 L126.65,136.68 L127.15,136.43 L127.65,136.18 L128.15,135.93 L128.65,135.68 L129.15,135.42 L129.65,135.17 L130.15,134.92 L130.65,134.67 L131.15,134.42 L131.65,134.17 L132.15,133.92 L132.65,133.67 L133.15,133.42 L133.66,133.17 L134.16,132.92 L134.66,132.67 L135.16,132.42 L135.66,132.17 L136.16,131.92 L136.66,131.67 L137.16,131.42 L137.66,131.17 L138.16,130.92 L138.66,130.67 L139.16,130.42 L139.66,130.17 L140.16,129.92 L140.66,129.67 L141.16,129.42 L141.66,129.17 L142.17,128.92 L142.67,128.67 L143.17,128.42 L143.67,128.17 L144.17,127.92 L144.67,127.67 L145.17,127.42 L145.67,127.17 L146.17,126.92 L146.67,126.66 L147.17,126.41 L147.67,126.16 L148.17,125.91 L148.67,125.66 L149.17,125.41 L149.67,125.16 L150.17,124.91 L150.68,124.66 L151.18,124.41 L151.68,124.16 L152.18,123.91 L152.68,123.66 L153.18,123.41 L153.68,123.16 L154.18,122.91 L154.68,122.66 L155.18,122.41 L155.68,122.16 L156.18,121.91 L156.68,121.66 L157.18,121.41 L157.68,121.16 L158.18,120.91 L158.68,120.66 L159.19,120.41 L159.69,120.16 L160.19,119.91 L160.69,119.66 L161.19,119.41 L161.69,119.16 L162.19,118.91 L162.69,118.66 L163.19,118.41 L163.69,118.15 L164.19,117.90 L164.69,117.65 L165.19,117.40 L165.69,117.15 L166.19,116.90 L166.69,116.65 L167.19,116.40 L167.69,116.15 L168.20,115.90 L168.70,115.65 L169.20,115.40 L169.70,115.15 L170.20,114.90 L170.70,114.65 L171.20,114.40 L171.70,114.15 L172.20,113.90 L172.70,113.65 L173.20,113.40 L173.70,113.15 L174.20,112.90 L174.70,112.65 L175.20,112.40 L175.70,112.15 L176.20,111.90 L176.71,111.65 L177.21,111.40 L177.71,111.15 L178.21,110.90 L178.71,110.65 L179.21,110.40 L179.71,110.15 L180.21,109.90 L180.71,109.64 L181.21,109.39 L181.71,109.14 L182.21,108.89 L182.71,108.64 L183.21,108.39 L183.71,108.14 L184.21,107.89 L184.71,107.64 L185.22,107.39 L185.72,107.14 L186.22,106.89 L186.72,106.64 L187.22,106.39 L187.72,106.14 L188.22,105.89 L188.72,105.64 L189.22,105.39 L189.72,105.14 L190.22,104.89 L190.72,104.64 L191.22,104.39 L191.72,104.14 L192.22,103.89 L192.72,103.64 L193.22,103.39 L193.73,103.14 L194.23,102.89 L194.73,102.64 L195.23,102.39 L195.73,102.14 L196.23,101.89 L196.73,101.64 L197.23,101.39 L197.73,101.14 L198.23,100.88 L198.73,100.63 L199.23,100.38 L199.73,100.13 L200.23,99.88 L200.73,99.63 L201.23,99.38 L201.73,99.13 L202.24,98.88 L202.74,98.63 L203.24,98.38 L203.74,98.13 L204.24,97.88 L204.74,97.63 L205.24,97.38 L205.74,97.13 L206.24,96.88 L206.74,96.63 L207.24,96.38 L207.74,96.13 L208.24,95.88 L208.74,95.63 L209.24,95.38 L209.74,95.13 L210.24,94.88 L210.75,94.63 L211.25,94.38 L211.75,94.13 L212.25,93.88 L212.75,93.63 L213.25,93.38 L213.75,93.13 L214.25,92.88 L214.75,92.63 L215.25,92.37 L215.75,92.12 L216.25,91.87 L216.75,91.62 L217.25,91.37 L217.75,91.12 L218.25,90.87 L218.75,90.62 L219.25,90.37 L219.76,90.12 L220.26,89.87 L220.76,89.62 L221.26,89.37 L221.76,89.12 L222.26,88.87 L222.76,88.62 L223.26,88.37 L223.76,88.12 L224.26,87.87 L224.76,87.62 L225.26,87.37 L225.76,87.12 L226.26,86.87 L226.76,86.62 L227.26,86.37 L227.76,86.12 L228.27,85.87 L228.77,85.62 L229.27,85.37 L229.77,85.12 L230.27,84.87 L230.77,84.62 L231.27,84.37 L231.77,84.12 L232.27,83.86 L232.77,83.61 L233.27,83.36 L233.77,83.11 L234.27,82.86 L234.77,82.61 L235.27,82.36 L235.77,82.11 L236.27,81.86 L236.78,81.61 L237.28,81.36 L237.78,81.11 L238.28,80.86 L238.78,80.61 L239.28,80.36 L239.78,80.11 L240.28,79.86 L240.78,79.61 L241.28,79.36 L241.78,79.11 L242.28,78.86 L242.78,78.61 L243.28,78.36 L243.78,78.11 L244.28,77.86 L244.78,77.61 L245.29,77.36 L245.79,77.11 L246.29,76.86 L246.79,76.61 L247.29,76.36 L247.79,76.11 L248.29,75.86 L248.79,75.61 L249.29,75.36 L249.79,75.10 L250.29,74.85 L250.79,74.60 L251.29,74.35 L251.79,74.10 L252.29,73.85 L252.79,73.60 L253.29,73.35 L253.80,73.10 L254.30,72.85 L254.80,72.60 L255.30,72.35 L255.80,72.10 L256.30,71.85 L256.80,71.60 L257.30,71.35 L257.80,71.10 L258.30,70.85 L258.80,70.60 L259.30,70.35 L259.80,70.10 L260.30,69.85 L260.80,69.60 L261.30,69.35 L261.80,69.10 L262.31,68.85 L262.81,68.60 L263.31,68.35 L263.81,68.10 L264.31,67.85 L264.81,67.60 L265.31,67.35 L265.81,67.10 L266.31,66.85 L266.81,66.59 L267.31,66.34 L267.81,66.09 L268.31,65.84 L268.81,65.59 L269.31,65.34 L269.81,65.09 L270.31,64.84 L270.81,64.59 L271.32,64.34 L271.82,64.09 L272.32,63.84 L272.82,63.59 L273.32,63.34 L273.82,63.09 L274.32,62.84 L274.82,62.59 L275.32,62.34 L275.82,62.09 L276.32,61.84 L276.82,61.59 L277.32,61.34 L277.82,61.09 L278.32,60.84 L278.82,60.59 L279.32,60.34 L279.83,60.09 L280.33,59.84 L280.83,59.59 L281.33,59.34 L281.83,59.09 L282.33,58.84 L282.83,58.59 L283.33,58.34 L283.83,58.08 L284.33,57.83 L284.83,57.58 L285.33,57.33 L285.83,57.08 L286.33,56.83 L286.83,56.58 L287.33,56.33 L287.83,56.08 L288.34,55.83 L288.84,55.58 L289.34,55.33 L289.84,55.08 L290.34,54.83 L290.84,54.58 L291.34,54.33 L291.84,54.08 L292.34,53.83 L292.84,53.58 L293.34,53.33 L293.84,53.08 L294.34,52.83 L294.84,52.58 L295.34,52.33 L295.84,52.08 L296.34,51.83 L296.85,51.58 L297.35,51.33 L297.85,51.08 L298.35,50.83 L298.85,50.58 L299.35,50.33 L299.85,50.08 L300.35,49.83 L300.85,49.58 L301.35,49.32 L301.85,49.07 L302.35,48.82 L302.85,48.57 L303.35,48.32 L303.85,48.07 L304.35,47.82 L304.85,47.57 L305.36,47.32 L305.86,47.07 L306.36,46.82 L306.86,46.57 L307.36,46.32 L307.86,46.07 L308.36,45.82 L308.86,45.57 L309.36,45.32 L309.86,45.07 L310.36,44.82 L310.86,44.57 L311.36,44.32 L311.86,44.07 L312.36,43.82 L312.86,43.57 L313.36,43.32 L313.86,43.07 L314.37,42.82 L314.87,42.57 L315.37,42.32 L315.87,42.07 L316.37,41.82 L316.87,41.57 L317.37,41.32 L317.87,41.07 L318.37,40.81 L318.87,40.56 L319.37,40.31 L319.87,40.06 L320.37,39.81 L320.87,39.56 L321.37,39.31 L321.87,39.06 L322.37,38.81 L322.88,38.56 L323.38,38.31 L323.88,38.06 L324.38,37.81 L324.88,37.56 L325.38,37.31 L325.88,37.06 L326.38,36.81 L326.88,36.56 L327.38,36.31 L327.88,36.06 L328.38,35.81 L328.88,35.56 L329.38,35.31 L329.88,35.06 L330.38,34.81 L330.88,34.56 L331.39,34.31 L331.89,34.06 L332.39,33.81 L332.89,33.56 L333.39,33.31 L333.89,33.06 L334.39,32.81 L334.89,32.56 L335.39,32.31 L335.89,32.05 L336.39,31.80 L336.89,31.55 L337.39,31.30 L337.89,31.05 L338.39,30.80 L338.89,30.55 L339.39,30.30 L339.90,30.05 L340.40,29.80 L340.90,29.55 L341.40,29.30 L341.90,29.05 L342.40,28.80 L342.90,28.55 L343.40,28.30 L343.90,28.05 L344.40,27.80 L344.90,27.55 L345.40,27.30 L345.90,27.05 L346.40,26.80 L346.90,26.55 L347.40,26.30 L347.90,26.05 L348.41,25.80 L348.91,25.55 L349.41,25.30 L349.91,25.05 L350.41,24.80 L350.91,24.55 L351.41,24.30 L351.91,24.05 L352.41,23.80 L352.91,23.54 L353.41,23.29 L353.91,23.04 L354.41,22.79 L354.91,22.54 L355.41,22.29 L355.91,22.04 L356.41,21.79 L356.92,21.54 L357.42,21.29 L357.92,21.04 L358.42,20.79 L358.92,20.54 L359.42,20.29 L359.92,20.04 L360.42,19.79 L360.92,19.54 L361.42,19.29 L361.92,19.04 L362.42,18.79 L362.92,18.54 L363.42,18.29 L363.92,18.04 L364.42,17.79 L364.92,17.54 L365.42,17.29 L365.93,17.04 L366.43,16.79 L366.93,16.54 L367.43,16.29 L367.93,16.04 L368.43,15.79 L368.93,15.54 L369.43,15.29 L369.93,15.03 L370.43,14.78 L370.93,14.53 L371.43,14.28 L371.93,14.03 L372.43,13.78 L372.93,13.53 L373.43,13.28 L373.93,13.03 L374.44,12.78 L374.94,12.53 L375.44,12.28 L375.94,12.03 L376.44,11.78 L376.94,11.53 L377.44,11.28 L377.94,11.03 L378.44,10.78 L378.94,10.53 L379.44,10.28 L379.94,10.03 L380.44,9.78 L380.94,9.53 L381.44,9.28 L381.94,9.03 L382.44,8.78 L382.95,8.53 L383.45,8.28 L383.95,8.03 L384.45,7.78 L384.95,7.53 L385.45,7.28 L385.95,7.03 L386.45,6.78 L386.95,6.53 L387.45,6.27 L387.95,6.02 L388.45,5.77 L388.95,5.52 L389.45,5.27 L389.95,5.02 L390.45,4.77 L390.95,4.52 L391.46,4.27 L391.96,4.02 L392.46,3.77 L392.96,3.52 L393.46,3.27 L393.96,3.02 L394.46,2.77 L394.96,2.52 L395.46,2.27 L395.96,2.02 L396.46,1.77 L396.96,1.52 L397.46,1.27 L397.96,1.02 L398.46,0.77 L398.96,0.52 L399.46,0.27 L399.97,0.02 L400.47,-0.23 L400.97,-0.48 L401.47,-0.73 L401.97,-0.98 L402.47,-1.23 L402.97,-1.48 L403.47,-1.73 L403.97,-1.98 L404.47,-2.24 L404.97,-2.49 L405.47,-2.74 L405.97,-2.99 L406.47,-3.24 L406.97,-3.49 L407.47,-3.74 L407.97,-3.99 L408.47,-4.24 L408.98,-4.49 L409.48,-4.74 L409.98,-4.99 L410.48,-5.24 L410.98,-5.49 L411.48,-5.74 L411.98,-5.99 L412.48,-6.24 L412.98,-6.49 L413.48,-6.74 L413.98,-6.99 L414.48,-7.24 L414.98,-7.49 L415.48,-7.74 L415.98,-7.99 L416.48,-8.24 L416.98,-8.49 L417.49,-8.74 L417.99,-8.99 L418.49,-9.24 L418.99,-9.49 L419.49,-9.74 L419.99,-9.99 L420.49,-10.24 L420.99,-10.49 L421.49,-10.75 L421.99,-11.00 L422.49,-11.25 L422.99,-11.50 L423.49,-11.75 L423.99,-12.00 L424.49,-12.25 L424.99,-12.50 L425.49,-12.75 L426.00,-13.00 L426.50,-13.25 L427.00,-13.50 L427.50,-13.75 L428.00,-14.00 L428.50,-14.25 L429.00,-14.50 L429.50,-14.75 L430.00,-15.00" style="stroke-width: 2; stroke: rgb(208, 2, 27); stroke-opacity: 1;"/><g><g class="arrow-line"><path class="vector-plot real" stroke-dasharray="" d="  M148,100 L252,100" style="stroke: rgb(126, 211, 33); stroke-opacity: 1; stroke-width: 2;"/></g></g><path d=" M0.00,174.00 L0.17,173.91 L0.34,173.83 L0.52,173.74 L0.69,173.66 L0.86,173.57 L1.03,173.48 L1.21,173.40 L1.38,173.31 L1.55,173.22 L1.72,173.14 L1.90,173.05 L2.07,172.97 L2.24,172.88 L2.41,172.79 L2.58,172.71 L2.76,172.62 L2.93,172.54 L3.10,172.45 L3.27,172.36 L3.45,172.28 L3.62,172.19 L3.79,172.10 L3.96,172.02 L4.14,171.93 L4.31,171.85 L4.48,171.76 L4.65,171.67 L4.82,171.59 L5.00,171.50 L5.17,171.42 L5.34,171.33 L5.51,171.24 L5.69,171.16 L5.86,171.07 L6.03,170.98 L6.20,170.90 L6.37,170.81 L6.55,170.73 L6.72,170.64 L6.89,170.55 L7.06,170.47 L7.24,170.38 L7.41,170.30 L7.58,170.21 L7.75,170.12 L7.93,170.04 L8.10,169.95 L8.27,169.86 L8.44,169.78 L8.61,169.69 L8.79,169.61 L8.96,169.52 L9.13,169.43 L9.30,169.35 L9.48,169.26 L9.65,169.18 L9.82,169.09 L9.99,169.00 L10.17,168.92 L10.34,168.83 L10.51,168.75 L10.68,168.66 L10.85,168.57 L11.03,168.49 L11.20,168.40 L11.37,168.31 L11.54,168.23 L11.72,168.14 L11.89,168.06 L12.06,167.97 L12.23,167.88 L12.41,167.80 L12.58,167.71 L12.75,167.63 L12.92,167.54 L13.09,167.45 L13.27,167.37 L13.44,167.28 L13.61,167.19 L13.78,167.11 L13.96,167.02 L14.13,166.94 L14.30,166.85 L14.47,166.76 L14.64,166.68 L14.82,166.59 L14.99,166.51 L15.16,166.42 L15.33,166.33 L15.51,166.25 L15.68,166.16 L15.85,166.07 L16.02,165.99 L16.20,165.90 L16.37,165.82 L16.54,165.73 L16.71,165.64 L16.88,165.56 L17.06,165.47 L17.23,165.39 L17.40,165.30 L17.57,165.21 L17.75,165.13 L17.92,165.04 L18.09,164.95 L18.26,164.87 L18.44,164.78 L18.61,164.70 L18.78,164.61 L18.95,164.52 L19.12,164.44 L19.30,164.35 L19.47,164.27 L19.64,164.18 L19.81,164.09 L19.99,164.01 L20.16,163.92 L20.33,163.83 L20.50,163.75 L20.68,163.66 L20.85,163.58 L21.02,163.49 L21.19,163.40 L21.36,163.32 L21.54,163.23 L21.71,163.15 L21.88,163.06 L22.05,162.97 L22.23,162.89 L22.40,162.80 L22.57,162.71 L22.74,162.63 L22.92,162.54 L23.09,162.46 L23.26,162.37 L23.43,162.28 L23.60,162.20 L23.78,162.11 L23.95,162.03 L24.12,161.94 L24.29,161.85 L24.47,161.77 L24.64,161.68 L24.81,161.59 L24.98,161.51 L25.15,161.42 L25.33,161.34 L25.50,161.25 L25.67,161.16 L25.84,161.08 L26.02,160.99 L26.19,160.91 L26.36,160.82 L26.53,160.73 L26.71,160.65 L26.88,160.56 L27.05,160.47 L27.22,160.39 L27.39,160.30 L27.57,160.22 L27.74,160.13 L27.91,160.04 L28.08,159.96 L28.26,159.87 L28.43,159.79 L28.60,159.70 L28.77,159.61 L28.95,159.53 L29.12,159.44 L29.29,159.36 L29.46,159.27 L29.63,159.18 L29.81,159.10 L29.98,159.01 L30.15,158.92 L30.32,158.84 L30.50,158.75 L30.67,158.67 L30.84,158.58 L31.01,158.49 L31.19,158.41 L31.36,158.32 L31.53,158.24 L31.70,158.15 L31.87,158.06 L32.05,157.98 L32.22,157.89 L32.39,157.80 L32.56,157.72 L32.74,157.63 L32.91,157.55 L33.08,157.46 L33.25,157.37 L33.42,157.29 L33.60,157.20 L33.77,157.12 L33.94,157.03 L34.11,156.94 L34.29,156.86 L34.46,156.77 L34.63,156.68 L34.80,156.60 L34.98,156.51 L35.15,156.43 L35.32,156.34 L35.49,156.25 L35.66,156.17 L35.84,156.08 L36.01,156.00 L36.18,155.91 L36.35,155.82 L36.53,155.74 L36.70,155.65 L36.87,155.56 L37.04,155.48 L37.22,155.39 L37.39,155.31 L37.56,155.22 L37.73,155.13 L37.90,155.05 L38.08,154.96 L38.25,154.88 L38.42,154.79 L38.59,154.70 L38.77,154.62 L38.94,154.53 L39.11,154.44 L39.28,154.36 L39.46,154.27 L39.63,154.19 L39.80,154.10 L39.97,154.01 L40.14,153.93 L40.32,153.84 L40.49,153.76 L40.66,153.67 L40.83,153.58 L41.01,153.50 L41.18,153.41 L41.35,153.32 L41.52,153.24 L41.69,153.15 L41.87,153.07 L42.04,152.98 L42.21,152.89 L42.38,152.81 L42.56,152.72 L42.73,152.64 L42.90,152.55 L43.07,152.46 L43.25,152.38 L43.42,152.29 L43.59,152.20 L43.76,152.12 L43.93,152.03 L44.11,151.95 L44.28,151.86 L44.45,151.77 L44.62,151.69 L44.80,151.60 L44.97,151.52 L45.14,151.43 L45.31,151.34 L45.49,151.26 L45.66,151.17 L45.83,151.08 L46.00,151.00 L46.17,150.91 L46.35,150.83 L46.52,150.74 L46.69,150.65 L46.86,150.57 L47.04,150.48 L47.21,150.40 L47.38,150.31 L47.55,150.22 L47.73,150.14 L47.90,150.05 L48.07,149.97 L48.24,149.88 L48.41,149.79 L48.59,149.71 L48.76,149.62 L48.93,149.53 L49.10,149.45 L49.28,149.36 L49.45,149.28 L49.62,149.19 L49.79,149.10 L49.97,149.02 L50.14,148.93 L50.31,148.85 L50.48,148.76 L50.65,148.67 L50.83,148.59 L51.00,148.50 L51.17,148.41 L51.34,148.33 L51.52,148.24 L51.69,148.16 L51.86,148.07 L52.03,147.98 L52.20,147.90 L52.38,147.81 L52.55,147.73 L52.72,147.64 L52.89,147.55 L53.07,147.47 L53.24,147.38 L53.41,147.29 L53.58,147.21 L53.76,147.12 L53.93,147.04 L54.10,146.95 L54.27,146.86 L54.44,146.78 L54.62,146.69 L54.79,146.61 L54.96,146.52 L55.13,146.43 L55.31,146.35 L55.48,146.26 L55.65,146.17 L55.82,146.09 L56.00,146.00 L56.17,145.92 L56.34,145.83 L56.51,145.74 L56.68,145.66 L56.86,145.57 L57.03,145.49 L57.20,145.40 L57.37,145.31 L57.55,145.23 L57.72,145.14 L57.89,145.05 L58.06,144.97 L58.24,144.88 L58.41,144.80 L58.58,144.71 L58.75,144.62 L58.92,144.54 L59.10,144.45 L59.27,144.37 L59.44,144.28 L59.61,144.19 L59.79,144.11 L59.96,144.02 L60.13,143.93 L60.30,143.85 L60.47,143.76 L60.65,143.68 L60.82,143.59 L60.99,143.50 L61.16,143.42 L61.34,143.33 L61.51,143.25 L61.68,143.16 L61.85,143.07 L62.03,142.99 L62.20,142.90 L62.37,142.81 L62.54,142.73 L62.71,142.64 L62.89,142.56 L63.06,142.47 L63.23,142.38 L63.40,142.30 L63.58,142.21 L63.75,142.13 L63.92,142.04 L64.09,141.95 L64.27,141.87 L64.44,141.78 L64.61,141.69 L64.78,141.61 L64.95,141.52 L65.13,141.44 L65.30,141.35 L65.47,141.26 L65.64,141.18 L65.82,141.09 L65.99,141.01 L66.16,140.92 L66.33,140.83 L66.51,140.75 L66.68,140.66 L66.85,140.58 L67.02,140.49 L67.19,140.40 L67.37,140.32 L67.54,140.23 L67.71,140.14 L67.88,140.06 L68.06,139.97 L68.23,139.89 L68.40,139.80 L68.57,139.71 L68.75,139.63 L68.92,139.54 L69.09,139.46 L69.26,139.37 L69.43,139.28 L69.61,139.20 L69.78,139.11 L69.95,139.02 L70.12,138.94 L70.30,138.85 L70.47,138.77 L70.64,138.68 L70.81,138.59 L70.98,138.51 L71.16,138.42 L71.33,138.34 L71.50,138.25 L71.67,138.16 L71.85,138.08 L72.02,137.99 L72.19,137.90 L72.36,137.82 L72.54,137.73 L72.71,137.65 L72.88,137.56 L73.05,137.47 L73.22,137.39 L73.40,137.30 L73.57,137.22 L73.74,137.13 L73.91,137.04 L74.09,136.96 L74.26,136.87 L74.43,136.78 L74.60,136.70 L74.78,136.61 L74.95,136.53 L75.12,136.44 L75.29,136.35 L75.46,136.27 L75.64,136.18 L75.81,136.10 L75.98,136.01 L76.15,135.92 L76.33,135.84 L76.50,135.75 L76.67,135.66 L76.84,135.58 L77.02,135.49 L77.19,135.41 L77.36,135.32 L77.53,135.23 L77.70,135.15 L77.88,135.06 L78.05,134.98 L78.22,134.89 L78.39,134.80 L78.57,134.72 L78.74,134.63 L78.91,134.54 L79.08,134.46 L79.25,134.37 L79.43,134.29 L79.60,134.20 L79.77,134.11 L79.94,134.03 L80.12,133.94 L80.29,133.86 L80.46,133.77 L80.63,133.68 L80.81,133.60 L80.98,133.51 L81.15,133.42 L81.32,133.34 L81.49,133.25 L81.67,133.17 L81.84,133.08 L82.01,132.99 L82.18,132.91 L82.36,132.82 L82.53,132.74 L82.70,132.65 L82.87,132.56 L83.05,132.48 L83.22,132.39 L83.39,132.31 L83.56,132.22 L83.73,132.13 L83.91,132.05 L84.08,131.96 L84.25,131.87 L84.42,131.79 L84.60,131.70 L84.77,131.62 L84.94,131.53 L85.11,131.44 L85.29,131.36 L85.46,131.27 L85.63,131.19 L85.80,131.10 L85.97,131.01 L86.15,130.93 L86.32,130.84 L86.49,130.75 L86.66,130.67 L86.84,130.58 L87.01,130.50 L87.18,130.41 L87.35,130.32 L87.53,130.24 L87.70,130.15 L87.87,130.07 L88.04,129.98 L88.21,129.89 L88.39,129.81 L88.56,129.72 L88.73,129.63 L88.90,129.55 L89.08,129.46 L89.25,129.38 L89.42,129.29 L89.59,129.20 L89.76,129.12 L89.94,129.03 L90.11,128.95 L90.28,128.86 L90.45,128.77 L90.63,128.69 L90.80,128.60 L90.97,128.51 L91.14,128.43 L91.32,128.34 L91.49,128.26 L91.66,128.17 L91.83,128.08 L92.00,128.00 L92.18,127.91 L92.35,127.83 L92.52,127.74 L92.69,127.65 L92.87,127.57 L93.04,127.48 L93.21,127.39 L93.38,127.31 L93.56,127.22 L93.73,127.14 L93.90,127.05 L94.07,126.96 L94.24,126.88 L94.42,126.79 L94.59,126.71 L94.76,126.62 L94.93,126.53 L95.11,126.45 L95.28,126.36 L95.45,126.27 L95.62,126.19 L95.80,126.10 L95.97,126.02 L96.14,125.93 L96.31,125.84 L96.48,125.76 L96.66,125.67 L96.83,125.59 L97.00,125.50 L97.17,125.41 L97.35,125.33 L97.52,125.24 L97.69,125.15 L97.86,125.07 L98.03,124.98 L98.21,124.90 L98.38,124.81 L98.55,124.72 L98.72,124.64 L98.90,124.55 L99.07,124.47 L99.24,124.38 L99.41,124.29 L99.59,124.21 L99.76,124.12 L99.93,124.03 L100.10,123.95 L100.27,123.86 L100.45,123.78 L100.62,123.69 L100.79,123.60 L100.96,123.52 L101.14,123.43 L101.31,123.35 L101.48,123.26 L101.65,123.17 L101.83,123.09 L102.00,123.00 L102.17,122.92 L102.34,122.83 L102.51,122.74 L102.69,122.66 L102.86,122.57 L103.03,122.48 L103.20,122.40 L103.38,122.31 L103.55,122.23 L103.72,122.14 L103.89,122.05 L104.07,121.97 L104.24,121.88 L104.41,121.80 L104.58,121.71 L104.75,121.62 L104.93,121.54 L105.10,121.45 L105.27,121.36 L105.44,121.28 L105.62,121.19 L105.79,121.11 L105.96,121.02 L106.13,120.93 L106.31,120.85 L106.48,120.76 L106.65,120.68 L106.82,120.59 L106.99,120.50 L107.17,120.42 L107.34,120.33 L107.51,120.24 L107.68,120.16 L107.86,120.07 L108.03,119.99 L108.20,119.90 L108.37,119.81 L108.54,119.73 L108.72,119.64 L108.89,119.56 L109.06,119.47 L109.23,119.38 L109.41,119.30 L109.58,119.21 L109.75,119.12 L109.92,119.04 L110.10,118.95 L110.27,118.87 L110.44,118.78 L110.61,118.69 L110.78,118.61 L110.96,118.52 L111.13,118.44 L111.30,118.35 L111.47,118.26 L111.65,118.18 L111.82,118.09 L111.99,118.00 L112.16,117.92 L112.34,117.83 L112.51,117.75 L112.68,117.66 L112.85,117.57 L113.02,117.49 L113.20,117.40 L113.37,117.32 L113.54,117.23 L113.71,117.14 L113.89,117.06 L114.06,116.97 L114.23,116.88 L114.40,116.80 L114.58,116.71 L114.75,116.63 L114.92,116.54 L115.09,116.45 L115.26,116.37 L115.44,116.28 L115.61,116.20 L115.78,116.11 L115.95,116.02 L116.13,115.94 L116.30,115.85 L116.47,115.76 L116.64,115.68 L116.81,115.59 L116.99,115.51 L117.16,115.42 L117.33,115.33 L117.50,115.25 L117.68,115.16 L117.85,115.08 L118.02,114.99 L118.19,114.90 L118.37,114.82 L118.54,114.73 L118.71,114.64 L118.88,114.56 L119.05,114.47 L119.23,114.39 L119.40,114.30 L119.57,114.21 L119.74,114.13 L119.92,114.04 L120.09,113.96 L120.26,113.87 L120.43,113.78 L120.61,113.70 L120.78,113.61 L120.95,113.53 L121.12,113.44 L121.29,113.35 L121.47,113.27 L121.64,113.18 L121.81,113.09 L121.98,113.01 L122.16,112.92 L122.33,112.84 L122.50,112.75 L122.67,112.66 L122.85,112.58 L123.02,112.49 L123.19,112.41 L123.36,112.32 L123.53,112.23 L123.71,112.15 L123.88,112.06 L124.05,111.97 L124.22,111.89 L124.40,111.80 L124.57,111.72 L124.74,111.63 L124.91,111.54 L125.08,111.46 L125.26,111.37 L125.43,111.29 L125.60,111.20 L125.77,111.11 L125.95,111.03 L126.12,110.94 L126.29,110.85 L126.46,110.77 L126.64,110.68 L126.81,110.60 L126.98,110.51 L127.15,110.42 L127.32,110.34 L127.50,110.25 L127.67,110.17 L127.84,110.08 L128.01,109.99 L128.19,109.91 L128.36,109.82 L128.53,109.73 L128.70,109.65 L128.88,109.56 L129.05,109.48 L129.22,109.39 L129.39,109.30 L129.56,109.22 L129.74,109.13 L129.91,109.05 L130.08,108.96 L130.25,108.87 L130.43,108.79 L130.60,108.70 L130.77,108.61 L130.94,108.53 L131.12,108.44 L131.29,108.36 L131.46,108.27 L131.63,108.18 L131.80,108.10 L131.98,108.01 L132.15,107.93 L132.32,107.84 L132.49,107.75 L132.67,107.67 L132.84,107.58 L133.01,107.49 L133.18,107.41 L133.36,107.32 L133.53,107.24 L133.70,107.15 L133.87,107.06 L134.04,106.98 L134.22,106.89 L134.39,106.81 L134.56,106.72 L134.73,106.63 L134.91,106.55 L135.08,106.46 L135.25,106.37 L135.42,106.29 L135.59,106.20 L135.77,106.12 L135.94,106.03 L136.11,105.94 L136.28,105.86 L136.46,105.77 L136.63,105.69 L136.80,105.60 L136.97,105.51 L137.15,105.43 L137.32,105.34 L137.49,105.25 L137.66,105.17 L137.83,105.08 L138.01,105.00 L138.18,104.91 L138.35,104.82 L138.52,104.74 L138.70,104.65 L138.87,104.57 L139.04,104.48 L139.21,104.39 L139.39,104.31 L139.56,104.22 L139.73,104.14 L139.90,104.05 L140.07,103.96 L140.25,103.88 L140.42,103.79 L140.59,103.70 L140.76,103.62 L140.94,103.53 L141.11,103.45 L141.28,103.36 L141.45,103.27 L141.63,103.19 L141.80,103.10 L141.97,103.02 L142.14,102.93 L142.31,102.84 L142.49,102.76 L142.66,102.67 L142.83,102.58 L143.00,102.50 L143.18,102.41 L143.35,102.33 L143.52,102.24 L143.69,102.15 L143.86,102.07 L144.04,101.98 L144.21,101.90 L144.38,101.81 L144.55,101.72 L144.73,101.64 L144.90,101.55 L145.07,101.46 L145.24,101.38 L145.42,101.29 L145.59,101.21 L145.76,101.12 L145.93,101.03 L146.10,100.95 L146.28,100.86 L146.45,100.78 L146.62,100.69 L146.79,100.60 L146.97,100.52 L147.14,100.43 L147.31,100.34 L147.48,100.26 L147.66,100.17 L147.83,100.09 L148.00,100.00" style="stroke-width: 2; stroke: rgb(126, 211, 33); stroke-opacity: 1;"/><path d=" M252.00,100.00 L252.21,99.90 L252.41,99.79 L252.62,99.69 L252.83,99.59 L253.04,99.48 L253.24,99.38 L253.45,99.27 L253.66,99.17 L253.86,99.07 L254.07,98.96 L254.28,98.86 L254.49,98.76 L254.69,98.65 L254.90,98.55 L255.11,98.45 L255.32,98.34 L255.52,98.24 L255.73,98.14 L255.94,98.03 L256.14,97.93 L256.35,97.82 L256.56,97.72 L256.77,97.62 L256.97,97.51 L257.18,97.41 L257.39,97.31 L257.59,97.20 L257.80,97.10 L258.01,97.00 L258.22,96.89 L258.42,96.79 L258.63,96.68 L258.84,96.58 L259.05,96.48 L259.25,96.37 L259.46,96.27 L259.67,96.17 L259.87,96.06 L260.08,95.96 L260.29,95.86 L260.50,95.75 L260.70,95.65 L260.91,95.54 L261.12,95.44 L261.32,95.34 L261.53,95.23 L261.74,95.13 L261.95,95.03 L262.15,94.92 L262.36,94.82 L262.57,94.72 L262.78,94.61 L262.98,94.51 L263.19,94.41 L263.40,94.30 L263.60,94.20 L263.81,94.09 L264.02,93.99 L264.23,93.89 L264.43,93.78 L264.64,93.68 L264.85,93.58 L265.05,93.47 L265.26,93.37 L265.47,93.27 L265.68,93.16 L265.88,93.06 L266.09,92.95 L266.30,92.85 L266.51,92.75 L266.71,92.64 L266.92,92.54 L267.13,92.44 L267.33,92.33 L267.54,92.23 L267.75,92.13 L267.96,92.02 L268.16,91.92 L268.37,91.81 L268.58,91.71 L268.78,91.61 L268.99,91.50 L269.20,91.40 L269.41,91.30 L269.61,91.19 L269.82,91.09 L270.03,90.99 L270.24,90.88 L270.44,90.78 L270.65,90.68 L270.86,90.57 L271.06,90.47 L271.27,90.36 L271.48,90.26 L271.69,90.16 L271.89,90.05 L272.10,89.95 L272.31,89.85 L272.51,89.74 L272.72,89.64 L272.93,89.54 L273.14,89.43 L273.34,89.33 L273.55,89.22 L273.76,89.12 L273.97,89.02 L274.17,88.91 L274.38,88.81 L274.59,88.71 L274.79,88.60 L275.00,88.50 L275.21,88.40 L275.42,88.29 L275.62,88.19 L275.83,88.08 L276.04,87.98 L276.24,87.88 L276.45,87.77 L276.66,87.67 L276.87,87.57 L277.07,87.46 L277.28,87.36 L277.49,87.26 L277.69,87.15 L277.90,87.05 L278.11,86.95 L278.32,86.84 L278.52,86.74 L278.73,86.63 L278.94,86.53 L279.15,86.43 L279.35,86.32 L279.56,86.22 L279.77,86.12 L279.97,86.01 L280.18,85.91 L280.39,85.81 L280.60,85.70 L280.80,85.60 L281.01,85.49 L281.22,85.39 L281.42,85.29 L281.63,85.18 L281.84,85.08 L282.05,84.98 L282.25,84.87 L282.46,84.77 L282.67,84.67 L282.88,84.56 L283.08,84.46 L283.29,84.36 L283.50,84.25 L283.70,84.15 L283.91,84.04 L284.12,83.94 L284.33,83.84 L284.53,83.73 L284.74,83.63 L284.95,83.53 L285.15,83.42 L285.36,83.32 L285.57,83.22 L285.78,83.11 L285.98,83.01 L286.19,82.90 L286.40,82.80 L286.61,82.70 L286.81,82.59 L287.02,82.49 L287.23,82.39 L287.43,82.28 L287.64,82.18 L287.85,82.08 L288.06,81.97 L288.26,81.87 L288.47,81.76 L288.68,81.66 L288.88,81.56 L289.09,81.45 L289.30,81.35 L289.51,81.25 L289.71,81.14 L289.92,81.04 L290.13,80.94 L290.34,80.83 L290.54,80.73 L290.75,80.63 L290.96,80.52 L291.16,80.42 L291.37,80.31 L291.58,80.21 L291.79,80.11 L291.99,80.00 L292.20,79.90 L292.41,79.80 L292.61,79.69 L292.82,79.59 L293.03,79.49 L293.24,79.38 L293.44,79.28 L293.65,79.17 L293.86,79.07 L294.07,78.97 L294.27,78.86 L294.48,78.76 L294.69,78.66 L294.89,78.55 L295.10,78.45 L295.31,78.35 L295.52,78.24 L295.72,78.14 L295.93,78.03 L296.14,77.93 L296.34,77.83 L296.55,77.72 L296.76,77.62 L296.97,77.52 L297.17,77.41 L297.38,77.31 L297.59,77.21 L297.80,77.10 L298.00,77.00 L298.21,76.90 L298.42,76.79 L298.62,76.69 L298.83,76.58 L299.04,76.48 L299.25,76.38 L299.45,76.27 L299.66,76.17 L299.87,76.07 L300.07,75.96 L300.28,75.86 L300.49,75.76 L300.70,75.65 L300.90,75.55 L301.11,75.44 L301.32,75.34 L301.53,75.24 L301.73,75.13 L301.94,75.03 L302.15,74.93 L302.35,74.82 L302.56,74.72 L302.77,74.62 L302.98,74.51 L303.18,74.41 L303.39,74.31 L303.60,74.20 L303.80,74.10 L304.01,73.99 L304.22,73.89 L304.43,73.79 L304.63,73.68 L304.84,73.58 L305.05,73.48 L305.25,73.37 L305.46,73.27 L305.67,73.17 L305.88,73.06 L306.08,72.96 L306.29,72.85 L306.50,72.75 L306.71,72.65 L306.91,72.54 L307.12,72.44 L307.33,72.34 L307.53,72.23 L307.74,72.13 L307.95,72.03 L308.16,71.92 L308.36,71.82 L308.57,71.71 L308.78,71.61 L308.98,71.51 L309.19,71.40 L309.40,71.30 L309.61,71.20 L309.81,71.09 L310.02,70.99 L310.23,70.89 L310.44,70.78 L310.64,70.68 L310.85,70.58 L311.06,70.47 L311.26,70.37 L311.47,70.26 L311.68,70.16 L311.89,70.06 L312.09,69.95 L312.30,69.85 L312.51,69.75 L312.71,69.64 L312.92,69.54 L313.13,69.44 L313.34,69.33 L313.54,69.23 L313.75,69.12 L313.96,69.02 L314.17,68.92 L314.37,68.81 L314.58,68.71 L314.79,68.61 L314.99,68.50 L315.20,68.40 L315.41,68.30 L315.62,68.19 L315.82,68.09 L316.03,67.98 L316.24,67.88 L316.44,67.78 L316.65,67.67 L316.86,67.57 L317.07,67.47 L317.27,67.36 L317.48,67.26 L317.69,67.16 L317.90,67.05 L318.10,66.95 L318.31,66.85 L318.52,66.74 L318.72,66.64 L318.93,66.53 L319.14,66.43 L319.35,66.33 L319.55,66.22 L319.76,66.12 L319.97,66.02 L320.17,65.91 L320.38,65.81 L320.59,65.71 L320.80,65.60 L321.00,65.50 L321.21,65.39 L321.42,65.29 L321.63,65.19 L321.83,65.08 L322.04,64.98 L322.25,64.88 L322.45,64.77 L322.66,64.67 L322.87,64.57 L323.08,64.46 L323.28,64.36 L323.49,64.25 L323.70,64.15 L323.90,64.05 L324.11,63.94 L324.32,63.84 L324.53,63.74 L324.73,63.63 L324.94,63.53 L325.15,63.43 L325.36,63.32 L325.56,63.22 L325.77,63.12 L325.98,63.01 L326.18,62.91 L326.39,62.80 L326.60,62.70 L326.81,62.60 L327.01,62.49 L327.22,62.39 L327.43,62.29 L327.63,62.18 L327.84,62.08 L328.05,61.98 L328.26,61.87 L328.46,61.77 L328.67,61.66 L328.88,61.56 L329.08,61.46 L329.29,61.35 L329.50,61.25 L329.71,61.15 L329.91,61.04 L330.12,60.94 L330.33,60.84 L330.54,60.73 L330.74,60.63 L330.95,60.53 L331.16,60.42 L331.36,60.32 L331.57,60.21 L331.78,60.11 L331.99,60.01 L332.19,59.90 L332.40,59.80 L332.61,59.70 L332.81,59.59 L333.02,59.49 L333.23,59.39 L333.44,59.28 L333.64,59.18 L333.85,59.07 L334.06,58.97 L334.27,58.87 L334.47,58.76 L334.68,58.66 L334.89,58.56 L335.09,58.45 L335.30,58.35 L335.51,58.25 L335.72,58.14 L335.92,58.04 L336.13,57.93 L336.34,57.83 L336.54,57.73 L336.75,57.62 L336.96,57.52 L337.17,57.42 L337.37,57.31 L337.58,57.21 L337.79,57.11 L338.00,57.00 L338.20,56.90 L338.41,56.80 L338.62,56.69 L338.82,56.59 L339.03,56.48 L339.24,56.38 L339.45,56.28 L339.65,56.17 L339.86,56.07 L340.07,55.97 L340.27,55.86 L340.48,55.76 L340.69,55.66 L340.90,55.55 L341.10,55.45 L341.31,55.34 L341.52,55.24 L341.73,55.14 L341.93,55.03 L342.14,54.93 L342.35,54.83 L342.55,54.72 L342.76,54.62 L342.97,54.52 L343.18,54.41 L343.38,54.31 L343.59,54.20 L343.80,54.10 L344.00,54.00 L344.21,53.89 L344.42,53.79 L344.63,53.69 L344.83,53.58 L345.04,53.48 L345.25,53.38 L345.46,53.27 L345.66,53.17 L345.87,53.07 L346.08,52.96 L346.28,52.86 L346.49,52.75 L346.70,52.65 L346.91,52.55 L347.11,52.44 L347.32,52.34 L347.53,52.24 L347.73,52.13 L347.94,52.03 L348.15,51.93 L348.36,51.82 L348.56,51.72 L348.77,51.61 L348.98,51.51 L349.19,51.41 L349.39,51.30 L349.60,51.20 L349.81,51.10 L350.01,50.99 L350.22,50.89 L350.43,50.79 L350.64,50.68 L350.84,50.58 L351.05,50.47 L351.26,50.37 L351.46,50.27 L351.67,50.16 L351.88,50.06 L352.09,49.96 L352.29,49.85 L352.50,49.75 L352.71,49.65 L352.92,49.54 L353.12,49.44 L353.33,49.34 L353.54,49.23 L353.74,49.13 L353.95,49.02 L354.16,48.92 L354.37,48.82 L354.57,48.71 L354.78,48.61 L354.99,48.51 L355.19,48.40 L355.40,48.30 L355.61,48.20 L355.82,48.09 L356.02,47.99 L356.23,47.88 L356.44,47.78 L356.64,47.68 L356.85,47.57 L357.06,47.47 L357.27,47.37 L357.47,47.26 L357.68,47.16 L357.89,47.06 L358.10,46.95 L358.30,46.85 L358.51,46.75 L358.72,46.64 L358.92,46.54 L359.13,46.43 L359.34,46.33 L359.55,46.23 L359.75,46.12 L359.96,46.02 L360.17,45.92 L360.37,45.81 L360.58,45.71 L360.79,45.61 L361.00,45.50 L361.20,45.40 L361.41,45.29 L361.62,45.19 L361.83,45.09 L362.03,44.98 L362.24,44.88 L362.45,44.78 L362.65,44.67 L362.86,44.57 L363.07,44.47 L363.28,44.36 L363.48,44.26 L363.69,44.15 L363.90,44.05 L364.10,43.95 L364.31,43.84 L364.52,43.74 L364.73,43.64 L364.93,43.53 L365.14,43.43 L365.35,43.33 L365.56,43.22 L365.76,43.12 L365.97,43.02 L366.18,42.91 L366.38,42.81 L366.59,42.70 L366.80,42.60 L367.01,42.50 L367.21,42.39 L367.42,42.29 L367.63,42.19 L367.83,42.08 L368.04,41.98 L368.25,41.88 L368.46,41.77 L368.66,41.67 L368.87,41.56 L369.08,41.46 L369.29,41.36 L369.49,41.25 L369.70,41.15 L369.91,41.05 L370.11,40.94 L370.32,40.84 L370.53,40.74 L370.74,40.63 L370.94,40.53 L371.15,40.42 L371.36,40.32 L371.56,40.22 L371.77,40.11 L371.98,40.01 L372.19,39.91 L372.39,39.80 L372.60,39.70 L372.81,39.60 L373.02,39.49 L373.22,39.39 L373.43,39.29 L373.64,39.18 L373.84,39.08 L374.05,38.97 L374.26,38.87 L374.47,38.77 L374.67,38.66 L374.88,38.56 L375.09,38.46 L375.29,38.35 L375.50,38.25 L375.71,38.15 L375.92,38.04 L376.12,37.94 L376.33,37.83 L376.54,37.73 L376.75,37.63 L376.95,37.52 L377.16,37.42 L377.37,37.32 L377.57,37.21 L377.78,37.11 L377.99,37.01 L378.20,36.90 L378.40,36.80 L378.61,36.69 L378.82,36.59 L379.02,36.49 L379.23,36.38 L379.44,36.28 L379.65,36.18 L379.85,36.07 L380.06,35.97 L380.27,35.87 L380.47,35.76 L380.68,35.66 L380.89,35.56 L381.10,35.45 L381.30,35.35 L381.51,35.24 L381.72,35.14 L381.93,35.04 L382.13,34.93 L382.34,34.83 L382.55,34.73 L382.75,34.62 L382.96,34.52 L383.17,34.42 L383.38,34.31 L383.58,34.21 L383.79,34.10 L384.00,34.00 L384.20,33.90 L384.41,33.79 L384.62,33.69 L384.83,33.59 L385.03,33.48 L385.24,33.38 L385.45,33.28 L385.66,33.17 L385.86,33.07 L386.07,32.97 L386.28,32.86 L386.48,32.76 L386.69,32.65 L386.90,32.55 L387.11,32.45 L387.31,32.34 L387.52,32.24 L387.73,32.14 L387.93,32.03 L388.14,31.93 L388.35,31.83 L388.56,31.72 L388.76,31.62 L388.97,31.51 L389.18,31.41 L389.39,31.31 L389.59,31.20 L389.80,31.10 L390.01,31.00 L390.21,30.89 L390.42,30.79 L390.63,30.69 L390.84,30.58 L391.04,30.48 L391.25,30.37 L391.46,30.27 L391.66,30.17 L391.87,30.06 L392.08,29.96 L392.29,29.86 L392.49,29.75 L392.70,29.65 L392.91,29.55 L393.12,29.44 L393.32,29.34 L393.53,29.24 L393.74,29.13 L393.94,29.03 L394.15,28.92 L394.36,28.82 L394.57,28.72 L394.77,28.61 L394.98,28.51 L395.19,28.41 L395.39,28.30 L395.60,28.20 L395.81,28.10 L396.02,27.99 L396.22,27.89 L396.43,27.78 L396.64,27.68 L396.85,27.58 L397.05,27.47 L397.26,27.37 L397.47,27.27 L397.67,27.16 L397.88,27.06 L398.09,26.96 L398.30,26.85 L398.50,26.75 L398.71,26.64 L398.92,26.54 L399.12,26.44 L399.33,26.33 L399.54,26.23 L399.75,26.13 L399.95,26.02 L400.16,25.92 L400.37,25.82 L400.58,25.71 L400.78,25.61 L400.99,25.51 L401.20,25.40 L401.40,25.30 L401.61,25.19 L401.82,25.09 L402.03,24.99 L402.23,24.88 L402.44,24.78 L402.65,24.68 L402.85,24.57 L403.06,24.47 L403.27,24.37 L403.48,24.26 L403.68,24.16 L403.89,24.05 L404.10,23.95 L404.31,23.85 L404.51,23.74 L404.72,23.64 L404.93,23.54 L405.13,23.43 L405.34,23.33 L405.55,23.23 L405.76,23.12 L405.96,23.02 L406.17,22.92 L406.38,22.81 L406.58,22.71 L406.79,22.60 L407.00,22.50 L407.21,22.40 L407.41,22.29 L407.62,22.19 L407.83,22.09 L408.03,21.98 L408.24,21.88 L408.45,21.78 L408.66,21.67 L408.86,21.57 L409.07,21.46 L409.28,21.36 L409.49,21.26 L409.69,21.15 L409.90,21.05 L410.11,20.95 L410.31,20.84 L410.52,20.74 L410.73,20.64 L410.94,20.53 L411.14,20.43 L411.35,20.32 L411.56,20.22 L411.76,20.12 L411.97,20.01 L412.18,19.91 L412.39,19.81 L412.59,19.70 L412.80,19.60 L413.01,19.50 L413.22,19.39 L413.42,19.29 L413.63,19.19 L413.84,19.08 L414.04,18.98 L414.25,18.87 L414.46,18.77 L414.67,18.67 L414.87,18.56 L415.08,18.46 L415.29,18.36 L415.49,18.25 L415.70,18.15 L415.91,18.05 L416.12,17.94 L416.32,17.84 L416.53,17.73 L416.74,17.63 L416.95,17.53 L417.15,17.42 L417.36,17.32 L417.57,17.22 L417.77,17.11 L417.98,17.01 L418.19,16.91 L418.40,16.80 L418.60,16.70 L418.81,16.59 L419.02,16.49 L419.22,16.39 L419.43,16.28 L419.64,16.18 L419.85,16.08 L420.05,15.97 L420.26,15.87 L420.47,15.77 L420.68,15.66 L420.88,15.56 L421.09,15.46 L421.30,15.35 L421.50,15.25 L421.71,15.14 L421.92,15.04 L422.13,14.94 L422.33,14.83 L422.54,14.73 L422.75,14.63 L422.95,14.52 L423.16,14.42 L423.37,14.32 L423.58,14.21 L423.78,14.11 L423.99,14.00 L424.20,13.90 L424.41,13.80 L424.61,13.69 L424.82,13.59 L425.03,13.49 L425.23,13.38 L425.44,13.28 L425.65,13.18 L425.86,13.07 L426.06,12.97 L426.27,12.86 L426.48,12.76 L426.68,12.66 L426.89,12.55 L427.10,12.45 L427.31,12.35 L427.51,12.24 L427.72,12.14 L427.93,12.04 L428.14,11.93 L428.34,11.83 L428.55,11.73 L428.76,11.62 L428.96,11.52 L429.17,11.41 L429.38,11.31 L429.59,11.21 L429.79,11.10 L430.00,11.00" style="stroke-width: 2; stroke: rgb(126, 211, 33); stroke-opacity: 1;"/></g></g><g class="test-xtl" style="font-family: &quot;Open Sans&quot;, verdana, arial, sans-serif;"><text text-anchor="middle" font-size="11" dominant-baseline="hanging" stroke="none" fill="rgb(50,50,50)" fill-opacity="1" x="66.865" y="107">-10</text><text text-anchor="middle" font-size="11" dominant-baseline="hanging" stroke="none" fill="rgb(50,50,50)" fill-opacity="1" x="330" y="107">10</text><text text-anchor="middle" font-size="11" dominant-baseline="hanging" stroke="none" fill="rgb(50,50,50)" fill-opacity="1" x="192" y="105">0</text></g><g class="test-ytl" style="font-family: &quot;Open Sans&quot;, verdana, arial, sans-serif;"/><rect class="real" x="1" y="1" width="428" height="198" style="fill: transparent; stroke: none;"/></g></g></g><g/></g><g/><g/><g/></svg>
        <svg xmlns="http://www.w3.org/2000/svg" xmlns:xlink="http://www.w3.org/1999/xlink" width="660" height="300" style="width:660px;height:300px;font-family:Asana-Math, Asana;background:transparent;"><g><g><g><g><g><g><g transform="matrix(1,0,0,1,570.0208129882812,135.26668701171874)"><path transform="matrix(0.0136,0,0,-0.0136,0,0)" d="M483 722L471 733C419 707 383 698 311 691L307 670L355 670C379 670 389 663 389 646C389 638 388 629 387 622L359 468C329 477 302 482 277 482C208 482 114 410 68 323C37 265 17 170 17 86C17 21 32 -11 61 -11C88 -11 125 6 159 33C213 77 246 116 313 217L290 126C279 82 274 50 274 24C274 3 283 -9 300 -9C317 -9 341 3 375 28L456 88L446 107L402 76C388 66 372 59 363 59C355 59 349 68 349 82C349 90 350 99 357 128ZM114 59C98 59 89 73 89 98C89 224 135 380 184 418C197 428 216 433 243 433C287 433 316 427 349 410L337 351C300 171 159 59 114 59Z" stroke="rgb(0,0,0)" stroke-opacity="1" stroke-width="8" fill="rgb(0,0,0)" fill-opacity="1"></path></g></g></g></g><g><g><g><g transform="matrix(1,0,0,1,570.6458129882812,154.9125)"><path transform="matrix(0.0136,0,0,-0.0136,0,0)" d="M342 330L365 330C373 395 380 432 389 458C365 473 330 482 293 482C248 483 175 463 118 400C64 352 25 241 25 136C25 40 67 -11 147 -11C201 -11 249 9 304 54L354 95L346 115L331 105C259 57 221 40 186 40C130 40 101 80 101 159C101 267 136 371 185 409C206 425 230 433 261 433C306 433 342 414 342 390Z" stroke="rgb(0,0,0)" stroke-opacity="1" stroke-width="8" fill="rgb(0,0,0)" fill-opacity="1"></path></g></g></g></g><line style="fill:none;stroke-width:0.666667px;stroke:rgb(0, 0, 0);" x1="570.0208129882812" y1="140.92710369825363" x2="576.8124799728394" y2="140.92710369825363"></line></g></g></g><g><g><g><g transform="matrix(1,0,0,1,308.66668701171875,51.26667175292969)"><path transform="matrix(0.0136,0,0,-0.0136,0,0)" d="M459 205C459 301 389 358 298 360L298 369C391 400 475 479 476 581C477 644 445 680 381 680C154 680 114 463 89 289C62 101 36 -87 -8 -273L-8 -283C18 -274 43 -265 70 -259C76 -162 90 -66 104 29C239 -84 459 37 459 205ZM216 12C159 12 123 45 124 103C126 205 190 570 278 629C337 668 411 631 406 558C398 447 310 371 204 371C201 338 204 378 200 329C294 362 383 309 378 208C374 115 322 12 216 12Z" stroke="rgb(0,0,0)" stroke-opacity="1" stroke-width="8" fill="rgb(0,0,0)" fill-opacity="1"></path></g></g></g></g><g><g><g><g><g><g><g transform="matrix(1,0,0,1,448.66668701171875,54.26667175292969)"><path transform="matrix(0.0136,0,0,-0.0136,0,0)" d="M459 205C459 301 389 358 298 360L298 369C391 400 475 479 476 581C477 644 445 680 381 680C154 680 114 463 89 289C62 101 36 -87 -8 -273L-8 -283C18 -274 43 -265 70 -259C76 -162 90 -66 104 29C239 -84 459 37 459 205ZM216 12C159 12 123 45 124 103C126 205 190 570 278 629C337 668 411 631 406 558C398 447 310 371 204 371C201 338 204 378 200 329C294 362 383 309 378 208C374 115 322 12 216 12Z" stroke="rgb(0,0,0)" stroke-opacity="1" stroke-width="8" fill="rgb(0,0,0)" fill-opacity="1"></path></g></g></g></g><svg x="448.66668701171875" overflow="visible" y="36.66667175292969" height="7" width="6.96875"><polyline points="0.00,6.24 3.48,3.92 6.97,6.24" style="fill:none;fill-opacity:1;stroke-width:1px;stroke:rgb(0,0,0);stroke-opacity:1;"></polyline></svg></g><g><g><g><g><g transform="matrix(1,0,0,1,456.04168701171875,59.57209350585937)"><path transform="matrix(0.009519999999999999,0,0,-0.009519999999999999,0,0)" d="M748 425C748 603 644 706 464 706C227 706 53 523 53 272C53 83 147 -18 323 -18C595 -18 748 207 748 425ZM660 409C660 221 571 24 360 24C216 24 141 110 141 277C141 425 199 664 433 664C549 664 660 610 660 409ZM1126 664L1129 692L1015 689C999 689 981 689 938 690L874 692L871 664L918 662C942 661 953 653 953 635L858 55C854 37 842 30 798 23L793 -3L834 -2C865 -1 927 0 947 0C947 0 1244 -1 1244 -1C1244 -1 1277 0 1277 0C1276 25 1287 103 1300 165L1269 165L1252 103C1243 71 1234 54 1225 49C1212 44 1148 39 1081 39C1032 39 1005 40 939 46C942 64 1033 605 1033 613C1040 651 1047 658 1084 661ZM1440 471C1440 386 1478 339 1562 319L1657 296C1711 283 1738 248 1738 191C1738 96 1667 30 1564 30C1510 30 1472 42 1428 73L1428 172L1398 172C1392 117 1385 72 1374 20C1423 -5 1476 -18 1529 -18C1684 -18 1817 99 1817 234C1817 313 1774 355 1673 377L1608 391C1542 405 1512 442 1512 508C1512 595 1579 658 1671 658C1720 658 1753 645 1783 613L1783 537L1813 537C1817 591 1824 629 1838 672C1793 696 1753 706 1706 706C1582 706 1440 614 1440 471Z" stroke="rgb(0,0,0)" stroke-opacity="1" stroke-width="8" fill="rgb(0,0,0)" fill-opacity="1"></path></g></g></g></g></g></g></g><g><g><g><g><g><g><g transform="matrix(1,0,0,1,523.6666870117188,88.26668701171874)"><path transform="matrix(0.0136,0,0,-0.0136,0,0)" d="M459 205C459 301 389 358 298 360L298 369C391 400 475 479 476 581C477 644 445 680 381 680C154 680 114 463 89 289C62 101 36 -87 -8 -273L-8 -283C18 -274 43 -265 70 -259C76 -162 90 -66 104 29C239 -84 459 37 459 205ZM216 12C159 12 123 45 124 103C126 205 190 570 278 629C337 668 411 631 406 558C398 447 310 371 204 371C201 338 204 378 200 329C294 362 383 309 378 208C374 115 322 12 216 12Z" stroke="rgb(0,0,0)" stroke-opacity="1" stroke-width="8" fill="rgb(0,0,0)" fill-opacity="1"></path></g></g></g></g><svg x="523.6666870117188" overflow="visible" y="70.66668701171875" height="7" width="6.96875"><polyline points="0.00,6.24 3.48,3.92 6.97,6.24" style="fill:none;fill-opacity:1;stroke-width:1px;stroke:rgb(0,0,0);stroke-opacity:1;"></polyline></svg></g><g><g><g><g><g transform="matrix(1,0,0,1,531.0416870117188,93.57209350585937)"><path transform="matrix(0.009519999999999999,0,0,-0.009519999999999999,0,0)" d="M349 664L352 692L238 689C222 689 204 689 161 690L97 692L94 664L141 662C165 661 176 653 176 635L81 55C77 37 65 30 21 23L16 -3L57 -2C88 -1 150 0 170 0C170 0 467 -1 467 -1C467 -1 500 0 500 0C499 25 510 103 523 165L492 165L475 103C466 71 457 54 448 49C435 44 371 39 304 39C255 39 228 40 162 46C165 64 256 605 256 613C263 651 270 658 307 661ZM1122 55C1122 39 1107 30 1079 28L1035 25L1035 -3C1137 0 1137 0 1157 0C1177 0 1177 0 1279 -3L1279 25L1253 28C1206 35 1205 35 1197 80L1110 705L1064 705L691 112C655 56 637 40 603 32L583 27L583 -3C675 0 675 0 695 0C714 0 716 0 802 -3L802 25L750 28C734 29 719 38 719 47C719 55 726 69 745 102L847 277L1093 277L1118 89L1118 86C1118 84 1122 69 1122 55ZM1051 601L1088 313L872 313ZM1414 471C1414 386 1452 339 1536 319L1631 296C1685 283 1712 248 1712 191C1712 96 1641 30 1538 30C1484 30 1446 42 1402 73L1402 172L1372 172C1366 117 1359 72 1348 20C1397 -5 1450 -18 1503 -18C1658 -18 1791 99 1791 234C1791 313 1748 355 1647 377L1582 391C1516 405 1486 442 1486 508C1486 595 1553 658 1645 658C1694 658 1727 645 1757 613L1757 537L1787 537C1791 591 1798 629 1812 672C1767 696 1727 706 1680 706C1556 706 1414 614 1414 471ZM1969 471C1969 386 2007 339 2091 319L2186 296C2240 283 2267 248 2267 191C2267 96 2196 30 2093 30C2039 30 2001 42 1957 73L1957 172L1927 172C1921 117 1914 72 1903 20C1952 -5 2005 -18 2058 -18C2213 -18 2346 99 2346 234C2346 313 2303 355 2202 377L2137 391C2071 405 2041 442 2041 508C2041 595 2108 658 2200 658C2249 658 2282 645 2312 613L2312 537L2342 537C2346 591 2353 629 2367 672C2322 696 2282 706 2235 706C2111 706 1969 614 1969 471ZM3164 425C3164 603 3060 706 2880 706C2643 706 2469 523 2469 272C2469 83 2563 -18 2739 -18C3011 -18 3164 207 3164 425ZM3076 409C3076 221 2987 24 2776 24C2632 24 2557 110 2557 277C2557 425 2615 664 2849 664C2965 664 3076 610 3076 409Z" stroke="rgb(0,0,0)" stroke-opacity="1" stroke-width="8" fill="rgb(0,0,0)" fill-opacity="1"></path></g></g></g></g></g></g></g></svg>
</svg>
