<svg xmlns="http://www.w3.org/2000/svg" xmlns:xlink="http://www.w3.org/1999/xlink" x="0" y="0" width="661.3333740234375" height="311.3333435058594" style="
        width:661.3333740234375px;
        height:311.3333435058594px;
        background: transparent;
        fill: none;
">
        
        
        <svg xmlns="http://www.w3.org/2000/svg" class="role-diagram-draw-area"><g class="shapes-region" style="stroke: black; fill: none;"><g class="composite-shape" data-amt="diagram/shapes/plot" transform="matrix(1,0,0,1,20,10)"><g><g><g class="test-xgi"><line x1="52.147455334663384" y1="0" x2="52.147455334663384" y2="270" fill="none" stroke="#c3c3c3" stroke-width="0.5"/><line x1="117.00478610396385" y1="0" x2="117.00478610396385" y2="270" fill="none" stroke="#c3c3c3" stroke-width="0.5"/><line x1="181.86211687326428" y1="0" x2="181.86211687326428" y2="270" fill="none" stroke="#c3c3c3" stroke-width="0.5"/><line x1="246.71944764256477" y1="0" x2="246.71944764256477" y2="270" fill="none" stroke="#c3c3c3" stroke-width="0.5"/><line x1="311.57677841186523" y1="0" x2="311.57677841186523" y2="270" fill="none" stroke="#c3c3c3" stroke-width="0.5"/><line x1="376.4341091811657" y1="0" x2="376.4341091811657" y2="270" fill="none" stroke="#c3c3c3" stroke-width="0.5"/><line x1="441.29143995046616" y1="0" x2="441.29143995046616" y2="270" fill="none" stroke="#c3c3c3" stroke-width="0.5"/><line x1="506.1487707197667" y1="0" x2="506.1487707197667" y2="270" fill="none" stroke="#c3c3c3" stroke-width="0.5"/><line x1="571.0061014890672" y1="0" x2="571.0061014890672" y2="270" fill="none" stroke="#c3c3c3" stroke-width="0.5"/></g><g class="test-ygi"><line x1="0" y1="258.14885768294334" x2="620" y2="258.14885768294334" fill="none" stroke="#c3c3c3" stroke-width="0.5"/><line x1="0" y1="193.29152691364288" x2="620" y2="193.29152691364288" fill="none" stroke="#c3c3c3" stroke-width="0.5"/><line x1="0" y1="128.43419614434242" x2="620" y2="128.43419614434242" fill="none" stroke="#c3c3c3" stroke-width="0.5"/><line x1="0" y1="63.57686537504196" x2="620" y2="63.57686537504196" fill="none" stroke="#c3c3c3" stroke-width="0.5"/></g></g><g><g class="test-xti" style="font-family: Asana-Math, Asana;"><line x1="0" y1="128.43419614434242" x2="616" y2="128.43419614434242" fill="none" stroke="rgb(50,50,50)" stroke-opacity="1" stroke-width="1"/><line x1="52.147455334663384" y1="124.43419614434242" x2="52.147455334663384" y2="132.43419614434242" fill="none" stroke="rgb(50,50,50)" stroke-opacity="1" stroke-width="1"/><line x1="117.00478610396385" y1="124.43419614434242" x2="117.00478610396385" y2="132.43419614434242" fill="none" stroke="rgb(50,50,50)" stroke-opacity="1" stroke-width="1"/><line x1="181.86211687326428" y1="124.43419614434242" x2="181.86211687326428" y2="132.43419614434242" fill="none" stroke="rgb(50,50,50)" stroke-opacity="1" stroke-width="1"/><line x1="246.71944764256477" y1="124.43419614434242" x2="246.71944764256477" y2="132.43419614434242" fill="none" stroke="rgb(50,50,50)" stroke-opacity="1" stroke-width="1"/><line x1="376.4341091811657" y1="124.43419614434242" x2="376.4341091811657" y2="132.43419614434242" fill="none" stroke="rgb(50,50,50)" stroke-opacity="1" stroke-width="1"/><line x1="441.29143995046616" y1="124.43419614434242" x2="441.29143995046616" y2="132.43419614434242" fill="none" stroke="rgb(50,50,50)" stroke-opacity="1" stroke-width="1"/><line x1="506.1487707197667" y1="124.43419614434242" x2="506.1487707197667" y2="132.43419614434242" fill="none" stroke="rgb(50,50,50)" stroke-opacity="1" stroke-width="1"/><line x1="571.0061014890672" y1="124.43419614434242" x2="571.0061014890672" y2="132.43419614434242" fill="none" stroke="rgb(50,50,50)" stroke-opacity="1" stroke-width="1"/><path d="M611,124.83419614434243 L619,128.43419614434242 L611,132.03419614434242 Z" stroke="none" stroke-width="1" fill="rgb(50,50,50)" fill-opacity="1"/></g><g class="test-yti" style="font-family: Asana-Math, Asana;"><line x1="311.57677841186523" y1="4" x2="311.57677841186523" y2="270" fill="none" stroke="rgb(50,50,50)" stroke-opacity="1" stroke-width="1"/><line x1="307.57677841186523" y1="258.14885768294334" x2="315.57677841186523" y2="258.14885768294334" fill="none" stroke="rgb(50,50,50)" stroke-opacity="1" stroke-width="1"/><line x1="307.57677841186523" y1="193.29152691364288" x2="315.57677841186523" y2="193.29152691364288" fill="none" stroke="rgb(50,50,50)" stroke-opacity="1" stroke-width="1"/><line x1="307.57677841186523" y1="63.57686537504196" x2="315.57677841186523" y2="63.57686537504196" fill="none" stroke="rgb(50,50,50)" stroke-opacity="1" stroke-width="1"/><path d="M307.9767784118652,9 L311.57677841186523,1 L315.17677841186526,9 Z" stroke="none" stroke-width="1" fill="rgb(50,50,50)" fill-opacity="1"/></g><g class="test-plot-expression"><defs><clipPath id="cpo0f08wyls"><rect x="1" y="1" width="618" height="268"/></clipPath></defs><g clip-path="url(#cpo0f08wyls)"><path d=" M0.00,-245.77 L0.56,-244.42 L1.13,-243.07 L1.69,-241.72 L2.26,-240.37 L2.82,-239.03 L3.38,-237.69 L3.95,-236.35 L4.51,-235.01 L5.08,-233.68 L5.64,-232.34 L6.21,-231.01 L6.77,-229.69 L7.33,-228.36 L7.90,-227.04 L8.46,-225.72 L9.03,-224.40 L9.59,-223.09 L10.15,-221.78 L10.72,-220.47 L11.28,-219.16 L11.85,-217.86 L12.41,-216.55 L12.98,-215.25 L13.54,-213.96 L14.10,-212.66 L14.67,-211.37 L15.23,-210.08 L15.80,-208.79 L16.36,-207.51 L16.92,-206.22 L17.49,-204.94 L18.05,-203.67 L18.62,-202.39 L19.18,-201.12 L19.75,-199.85 L20.31,-198.58 L20.87,-197.31 L21.44,-196.05 L22.00,-194.79 L22.57,-193.53 L23.13,-192.28 L23.69,-191.02 L24.26,-189.77 L24.82,-188.52 L25.39,-187.28 L25.95,-186.03 L26.52,-184.79 L27.08,-183.55 L27.64,-182.32 L28.21,-181.08 L28.77,-179.85 L29.34,-178.62 L29.90,-177.40 L30.46,-176.17 L31.03,-174.95 L31.59,-173.73 L32.16,-172.52 L32.72,-171.30 L33.28,-170.09 L33.85,-168.88 L34.41,-167.68 L34.98,-166.47 L35.54,-165.27 L36.11,-164.07 L36.67,-162.87 L37.23,-161.68 L37.80,-160.49 L38.36,-159.30 L38.93,-158.11 L39.49,-156.93 L40.05,-155.74 L40.62,-154.56 L41.18,-153.39 L41.75,-152.21 L42.31,-151.04 L42.88,-149.87 L43.44,-148.70 L44.00,-147.54 L44.57,-146.38 L45.13,-145.22 L45.70,-144.06 L46.26,-142.90 L46.82,-141.75 L47.39,-140.60 L47.95,-139.45 L48.52,-138.31 L49.08,-137.16 L49.65,-136.02 L50.21,-134.89 L50.77,-133.75 L51.34,-132.62 L51.90,-131.49 L52.47,-130.36 L53.03,-129.23 L53.59,-128.11 L54.16,-126.99 L54.72,-125.87 L55.29,-124.75 L55.85,-123.64 L56.41,-122.53 L56.98,-121.42 L57.54,-120.32 L58.11,-119.21 L58.67,-118.11 L59.24,-117.01 L59.80,-115.92 L60.36,-114.82 L60.93,-113.73 L61.49,-112.64 L62.06,-111.56 L62.62,-110.47 L63.18,-109.39 L63.75,-108.31 L64.31,-107.23 L64.88,-106.16 L65.44,-105.09 L66.01,-104.02 L66.57,-102.95 L67.13,-101.89 L67.70,-100.83 L68.26,-99.77 L68.83,-98.71 L69.39,-97.66 L69.95,-96.60 L70.52,-95.55 L71.08,-94.51 L71.65,-93.46 L72.21,-92.42 L72.78,-91.38 L73.34,-90.34 L73.90,-89.31 L74.47,-88.27 L75.03,-87.24 L75.60,-86.22 L76.16,-85.19 L76.72,-84.17 L77.29,-83.15 L77.85,-82.13 L78.42,-81.12 L78.98,-80.10 L79.55,-79.09 L80.11,-78.09 L80.67,-77.08 L81.24,-76.08 L81.80,-75.08 L82.37,-74.08 L82.93,-73.08 L83.49,-72.09 L84.06,-71.10 L84.62,-70.11 L85.19,-69.12 L85.75,-68.14 L86.31,-67.16 L86.88,-66.18 L87.44,-65.21 L88.01,-64.23 L88.57,-63.26 L89.14,-62.29 L89.70,-61.33 L90.26,-60.36 L90.83,-59.40 L91.39,-58.44 L91.96,-57.49 L92.52,-56.53 L93.08,-55.58 L93.65,-54.63 L94.21,-53.68 L94.78,-52.74 L95.34,-51.80 L95.91,-50.86 L96.47,-49.92 L97.03,-48.99 L97.60,-48.06 L98.16,-47.13 L98.73,-46.20 L99.29,-45.28 L99.85,-44.35 L100.42,-43.43 L100.98,-42.52 L101.55,-41.60 L102.11,-40.69 L102.68,-39.78 L103.24,-38.87 L103.80,-37.97 L104.37,-37.07 L104.93,-36.17 L105.50,-35.27 L106.06,-34.37 L106.62,-33.48 L107.19,-32.59 L107.75,-31.70 L108.32,-30.82 L108.88,-29.94 L109.44,-29.05 L110.01,-28.18 L110.57,-27.30 L111.14,-26.43 L111.70,-25.56 L112.27,-24.69 L112.83,-23.82 L113.39,-22.96 L113.96,-22.10 L114.52,-21.24 L115.09,-20.39 L115.65,-19.53 L116.21,-18.68 L116.78,-17.83 L117.34,-16.99 L117.91,-16.14 L118.47,-15.30 L119.04,-14.46 L119.60,-13.63 L120.16,-12.79 L120.73,-11.96 L121.29,-11.13 L121.86,-10.31 L122.42,-9.48 L122.98,-8.66 L123.55,-7.84 L124.11,-7.03 L124.68,-6.21 L125.24,-5.40 L125.81,-4.59 L126.37,-3.79 L126.93,-2.98 L127.50,-2.18 L128.06,-1.38 L128.63,-0.58 L129.19,0.21 L129.75,1.00 L130.32,1.79 L130.88,2.58 L131.45,3.36 L132.01,4.15 L132.58,4.93 L133.14,5.70 L133.70,6.48 L134.27,7.25 L134.83,8.02 L135.40,8.79 L135.96,9.55 L136.52,10.32 L137.09,11.08 L137.65,11.83 L138.22,12.59 L138.78,13.34 L139.34,14.09 L139.91,14.84 L140.47,15.58 L141.04,16.33 L141.60,17.07 L142.17,17.81 L142.73,18.54 L143.29,19.27 L143.86,20.01 L144.42,20.73 L144.99,21.46 L145.55,22.18 L146.11,22.90 L146.68,23.62 L147.24,24.34 L147.81,25.05 L148.37,25.76 L148.94,26.47 L149.50,27.18 L150.06,27.88 L150.63,28.58 L151.19,29.28 L151.76,29.98 L152.32,30.67 L152.88,31.36 L153.45,32.05 L154.01,32.74 L154.58,33.42 L155.14,34.10 L155.71,34.78 L156.27,35.46 L156.83,36.13 L157.40,36.81 L157.96,37.47 L158.53,38.14 L159.09,38.81 L159.65,39.47 L160.22,40.13 L160.78,40.78 L161.35,41.44 L161.91,42.09 L162.47,42.74 L163.04,43.39 L163.60,44.03 L164.17,44.68 L164.73,45.32 L165.30,45.95 L165.86,46.59 L166.42,47.22 L166.99,47.85 L167.55,48.48 L168.12,49.10 L168.68,49.73 L169.24,50.35 L169.81,50.96 L170.37,51.58 L170.94,52.19 L171.50,52.80 L172.07,53.41 L172.63,54.02 L173.19,54.62 L173.76,55.22 L174.32,55.82 L174.89,56.41 L175.45,57.01 L176.01,57.60 L176.58,58.19 L177.14,58.77 L177.71,59.36 L178.27,59.94 L178.84,60.51 L179.40,61.09 L179.96,61.66 L180.53,62.24 L181.09,62.80 L181.66,63.37 L182.22,63.93 L182.78,64.50 L183.35,65.05 L183.91,65.61 L184.48,66.17 L185.04,66.72 L185.61,67.27 L186.17,67.81 L186.73,68.36 L187.30,68.90 L187.86,69.44 L188.43,69.97 L188.99,70.51 L189.55,71.04 L190.12,71.57 L190.68,72.10 L191.25,72.62 L191.81,73.14 L192.37,73.66 L192.94,74.18 L193.50,74.70 L194.07,75.21 L194.63,75.72 L195.20,76.23 L195.76,76.73 L196.32,77.23 L196.89,77.73 L197.45,78.23 L198.02,78.73 L198.58,79.22 L199.14,79.71 L199.71,80.20 L200.27,80.68 L200.84,81.16 L201.40,81.64 L201.97,82.12 L202.53,82.60 L203.09,83.07 L203.66,83.54 L204.22,84.01 L204.79,84.48 L205.35,84.94 L205.91,85.40 L206.48,85.86 L207.04,86.31 L207.61,86.77 L208.17,87.22 L208.74,87.67 L209.30,88.11 L209.86,88.56 L210.43,89.00 L210.99,89.44 L211.56,89.87 L212.12,90.31 L212.68,90.74 L213.25,91.17 L213.81,91.59 L214.38,92.02 L214.94,92.44 L215.51,92.86 L216.07,93.27 L216.63,93.69 L217.20,94.10 L217.76,94.51 L218.33,94.92 L218.89,95.32 L219.45,95.72 L220.02,96.12 L220.58,96.52 L221.15,96.91 L221.71,97.30 L222.27,97.69 L222.84,98.08 L223.40,98.47 L223.97,98.85 L224.53,99.23 L225.10,99.61 L225.66,99.98 L226.22,100.35 L226.79,100.72 L227.35,101.09 L227.92,101.46 L228.48,101.82 L229.04,102.18 L229.61,102.54 L230.17,102.89 L230.74,103.24 L231.30,103.59 L231.87,103.94 L232.43,104.29 L232.99,104.63 L233.56,104.97 L234.12,105.31 L234.69,105.65 L235.25,105.98 L235.81,106.31 L236.38,106.64 L236.94,106.96 L237.51,107.29 L238.07,107.61 L238.64,107.93 L239.20,108.24 L239.76,108.56 L240.33,108.87 L240.89,109.18 L241.46,109.48 L242.02,109.79 L242.58,110.09 L243.15,110.39 L243.71,110.68 L244.28,110.98 L244.84,111.27 L245.40,111.56 L245.97,111.84 L246.53,112.13 L247.10,112.41 L247.66,112.69 L248.23,112.96 L248.79,113.24 L249.35,113.51 L249.92,113.78 L250.48,114.05 L251.05,114.31 L251.61,114.57 L252.17,114.83 L252.74,115.09 L253.30,115.34 L253.87,115.60 L254.43,115.85 L255.00,116.09 L255.56,116.34 L256.12,116.58 L256.69,116.82 L257.25,117.06 L257.82,117.29 L258.38,117.53 L258.94,117.76 L259.51,117.98 L260.07,118.21 L260.64,118.43 L261.20,118.65 L261.77,118.87 L262.33,119.09 L262.89,119.30 L263.46,119.51 L264.02,119.72 L264.59,119.92 L265.15,120.13 L265.71,120.33 L266.28,120.52 L266.84,120.72 L267.41,120.91 L267.97,121.10 L268.54,121.29 L269.10,121.48 L269.66,121.66 L270.23,121.84 L270.79,122.02 L271.36,122.20 L271.92,122.37 L272.48,122.54 L273.05,122.71 L273.61,122.88 L274.18,123.04 L274.74,123.20 L275.30,123.36 L275.87,123.52 L276.43,123.67 L277.00,123.83 L277.56,123.97 L278.13,124.12 L278.69,124.27 L279.25,124.41 L279.82,124.55 L280.38,124.68 L280.95,124.82 L281.51,124.95 L282.07,125.08 L282.64,125.21 L283.20,125.33 L283.77,125.45 L284.33,125.57 L284.90,125.69 L285.46,125.80 L286.02,125.92 L286.59,126.03 L287.15,126.13 L287.72,126.24 L288.28,126.34 L288.84,126.44 L289.41,126.54 L289.97,126.64 L290.54,126.73 L291.10,126.82 L291.67,126.91 L292.23,126.99 L292.79,127.07 L293.36,127.15 L293.92,127.23 L294.49,127.31 L295.05,127.38 L295.61,127.45 L296.18,127.52 L296.74,127.59 L297.31,127.65 L297.87,127.71 L298.43,127.77 L299.00,127.82 L299.56,127.88 L300.13,127.93 L300.69,127.98 L301.26,128.02 L301.82,128.07 L302.38,128.11 L302.95,128.15 L303.51,128.18 L304.08,128.22 L304.64,128.25 L305.20,128.28 L305.77,128.30 L306.33,128.33 L306.90,128.35 L307.46,128.37 L308.03,128.39 L308.59,128.40 L309.15,128.41 L309.72,128.42 L310.28,128.43 L310.85,128.43 L311.41,128.43 L311.97,128.43 L312.54,128.43 L313.10,128.43 L313.67,128.42 L314.23,128.41 L314.80,128.39 L315.36,128.38 L315.92,128.36 L316.49,128.34 L317.05,128.32 L317.62,128.29 L318.18,128.27 L318.74,128.24 L319.31,128.20 L319.87,128.17 L320.44,128.13 L321.00,128.09 L321.57,128.05 L322.13,128.00 L322.69,127.96 L323.26,127.91 L323.82,127.86 L324.39,127.80 L324.95,127.74 L325.51,127.69 L326.08,127.62 L326.64,127.56 L327.21,127.49 L327.77,127.42 L328.33,127.35 L328.90,127.28 L329.46,127.20 L330.03,127.12 L330.59,127.04 L331.16,126.96 L331.72,126.87 L332.28,126.78 L332.85,126.69 L333.41,126.60 L333.98,126.50 L334.54,126.40 L335.10,126.30 L335.67,126.20 L336.23,126.09 L336.80,125.98 L337.36,125.87 L337.93,125.76 L338.49,125.64 L339.05,125.52 L339.62,125.40 L340.18,125.28 L340.75,125.15 L341.31,125.03 L341.87,124.90 L342.44,124.76 L343.00,124.63 L343.57,124.49 L344.13,124.35 L344.70,124.21 L345.26,124.06 L345.82,123.91 L346.39,123.76 L346.95,123.61 L347.52,123.46 L348.08,123.30 L348.64,123.14 L349.21,122.98 L349.77,122.81 L350.34,122.64 L350.90,122.47 L351.46,122.30 L352.03,122.13 L352.59,121.95 L353.16,121.77 L353.72,121.59 L354.29,121.40 L354.85,121.22 L355.41,121.03 L355.98,120.83 L356.54,120.64 L357.11,120.44 L357.67,120.24 L358.23,120.04 L358.80,119.84 L359.36,119.63 L359.93,119.42 L360.49,119.21 L361.06,119.00 L361.62,118.78 L362.18,118.56 L362.75,118.34 L363.31,118.12 L363.88,117.89 L364.44,117.66 L365.00,117.43 L365.57,117.20 L366.13,116.96 L366.70,116.72 L367.26,116.48 L367.83,116.24 L368.39,115.99 L368.95,115.74 L369.52,115.49 L370.08,115.24 L370.65,114.98 L371.21,114.73 L371.77,114.47 L372.34,114.20 L372.90,113.94 L373.47,113.67 L374.03,113.40 L374.60,113.13 L375.16,112.85 L375.72,112.57 L376.29,112.29 L376.85,112.01 L377.42,111.73 L377.98,111.44 L378.54,111.15 L379.11,110.86 L379.67,110.56 L380.24,110.26 L380.80,109.96 L381.36,109.66 L381.93,109.36 L382.49,109.05 L383.06,108.74 L383.62,108.43 L384.19,108.11 L384.75,107.80 L385.31,107.48 L385.88,107.15 L386.44,106.83 L387.01,106.50 L387.57,106.17 L388.13,105.84 L388.70,105.51 L389.26,105.17 L389.83,104.83 L390.39,104.49 L390.96,104.15 L391.52,103.80 L392.08,103.45 L392.65,103.10 L393.21,102.75 L393.78,102.39 L394.34,102.03 L394.90,101.67 L395.47,101.31 L396.03,100.94 L396.60,100.57 L397.16,100.20 L397.73,99.83 L398.29,99.45 L398.85,99.07 L399.42,98.69 L399.98,98.31 L400.55,97.92 L401.11,97.53 L401.67,97.14 L402.24,96.75 L402.80,96.36 L403.37,95.96 L403.93,95.56 L404.49,95.15 L405.06,94.75 L405.62,94.34 L406.19,93.93 L406.75,93.52 L407.32,93.10 L407.88,92.69 L408.44,92.27 L409.01,91.84 L409.57,91.42 L410.14,90.99 L410.70,90.56 L411.26,90.13 L411.83,89.69 L412.39,89.26 L412.96,88.82 L413.52,88.37 L414.09,87.93 L414.65,87.48 L415.21,87.03 L415.78,86.58 L416.34,86.13 L416.91,85.67 L417.47,85.21 L418.03,84.75 L418.60,84.28 L419.16,83.82 L419.73,83.35 L420.29,82.88 L420.86,82.40 L421.42,81.93 L421.98,81.45 L422.55,80.97 L423.11,80.48 L423.68,80.00 L424.24,79.51 L424.80,79.02 L425.37,78.52 L425.93,78.03 L426.50,77.53 L427.06,77.03 L427.63,76.52 L428.19,76.02 L428.75,75.51 L429.32,75.00 L429.88,74.48 L430.45,73.97 L431.01,73.45 L431.57,72.93 L432.14,72.41 L432.70,71.88 L433.27,71.35 L433.83,70.82 L434.39,70.29 L434.96,69.75 L435.52,69.22 L436.09,68.68 L436.65,68.13 L437.22,67.59 L437.78,67.04 L438.34,66.49 L438.91,65.94 L439.47,65.38 L440.04,64.83 L440.60,64.27 L441.16,63.70 L441.73,63.14 L442.29,62.57 L442.86,62.00 L443.42,61.43 L443.99,60.85 L444.55,60.28 L445.11,59.70 L445.68,59.12 L446.24,58.53 L446.81,57.94 L447.37,57.36 L447.93,56.76 L448.50,56.17 L449.06,55.57 L449.63,54.97 L450.19,54.37 L450.76,53.77 L451.32,53.16 L451.88,52.55 L452.45,51.94 L453.01,51.33 L453.58,50.71 L454.14,50.09 L454.70,49.47 L455.27,48.85 L455.83,48.22 L456.40,47.59 L456.96,46.96 L457.53,46.33 L458.09,45.69 L458.65,45.05 L459.22,44.41 L459.78,43.77 L460.35,43.12 L460.91,42.47 L461.47,41.82 L462.04,41.17 L462.60,40.52 L463.17,39.86 L463.73,39.20 L464.29,38.53 L464.86,37.87 L465.42,37.20 L465.99,36.53 L466.55,35.86 L467.12,35.18 L467.68,34.50 L468.24,33.82 L468.81,33.14 L469.37,32.46 L469.94,31.77 L470.50,31.08 L471.06,30.39 L471.63,29.69 L472.19,28.99 L472.76,28.29 L473.32,27.59 L473.89,26.89 L474.45,26.18 L475.01,25.47 L475.58,24.76 L476.14,24.04 L476.71,23.33 L477.27,22.61 L477.83,21.89 L478.40,21.16 L478.96,20.44 L479.53,19.71 L480.09,18.97 L480.66,18.24 L481.22,17.50 L481.78,16.76 L482.35,16.02 L482.91,15.28 L483.48,14.53 L484.04,13.78 L484.60,13.03 L485.17,12.28 L485.73,11.52 L486.30,10.76 L486.86,10.00 L487.42,9.24 L487.99,8.47 L488.55,7.71 L489.12,6.93 L489.68,6.16 L490.25,5.38 L490.81,4.61 L491.37,3.83 L491.94,3.04 L492.50,2.26 L493.07,1.47 L493.63,0.68 L494.19,-0.11 L494.76,-0.91 L495.32,-1.71 L495.89,-2.51 L496.45,-3.31 L497.02,-4.12 L497.58,-4.92 L498.14,-5.73 L498.71,-6.55 L499.27,-7.36 L499.84,-8.18 L500.40,-9.00 L500.96,-9.82 L501.53,-10.65 L502.09,-11.47 L502.66,-12.30 L503.22,-13.14 L503.79,-13.97 L504.35,-14.81 L504.91,-15.65 L505.48,-16.49 L506.04,-17.33 L506.61,-18.18 L507.17,-19.03 L507.73,-19.88 L508.30,-20.74 L508.86,-21.59 L509.43,-22.45 L509.99,-23.31 L510.56,-24.18 L511.12,-25.05 L511.68,-25.91 L512.25,-26.79 L512.81,-27.66 L513.38,-28.54 L513.94,-29.42 L514.50,-30.30 L515.07,-31.18 L515.63,-32.07 L516.20,-32.96 L516.76,-33.85 L517.32,-34.74 L517.89,-35.64 L518.45,-36.53 L519.02,-37.44 L519.58,-38.34 L520.15,-39.25 L520.71,-40.15 L521.27,-41.06 L521.84,-41.98 L522.40,-42.89 L522.97,-43.81 L523.53,-44.73 L524.09,-45.65 L524.66,-46.58 L525.22,-47.51 L525.79,-48.44 L526.35,-49.37 L526.92,-50.31 L527.48,-51.24 L528.04,-52.19 L528.61,-53.13 L529.17,-54.07 L529.74,-55.02 L530.30,-55.97 L530.86,-56.92 L531.43,-57.88 L531.99,-58.84 L532.56,-59.80 L533.12,-60.76 L533.69,-61.72 L534.25,-62.69 L534.81,-63.66 L535.38,-64.63 L535.94,-65.61 L536.51,-66.58 L537.07,-67.56 L537.63,-68.54 L538.20,-69.53 L538.76,-70.52 L539.33,-71.50 L539.89,-72.50 L540.45,-73.49 L541.02,-74.49 L541.58,-75.49 L542.15,-76.49 L542.71,-77.49 L543.28,-78.50 L543.84,-79.51 L544.40,-80.52 L544.97,-81.53 L545.53,-82.55 L546.10,-83.57 L546.66,-84.59 L547.22,-85.61 L547.79,-86.64 L548.35,-87.67 L548.92,-88.70 L549.48,-89.73 L550.05,-90.77 L550.61,-91.81 L551.17,-92.85 L551.74,-93.89 L552.30,-94.94 L552.87,-95.98 L553.43,-97.03 L553.99,-98.09 L554.56,-99.14 L555.12,-100.20 L555.69,-101.26 L556.25,-102.32 L556.82,-103.39 L557.38,-104.46 L557.94,-105.53 L558.51,-106.60 L559.07,-107.68 L559.64,-108.75 L560.20,-109.83 L560.76,-110.92 L561.33,-112.00 L561.89,-113.09 L562.46,-114.18 L563.02,-115.27 L563.59,-116.37 L564.15,-117.46 L564.71,-118.56 L565.28,-119.66 L565.84,-120.77 L566.41,-121.88 L566.97,-122.99 L567.53,-124.10 L568.10,-125.21 L568.66,-126.33 L569.23,-127.45 L569.79,-128.57 L570.35,-129.69 L570.92,-130.82 L571.48,-131.95 L572.05,-133.08 L572.61,-134.22 L573.18,-135.35 L573.74,-136.49 L574.30,-137.63 L574.87,-138.78 L575.43,-139.92 L576.00,-141.07 L576.56,-142.22 L577.12,-143.38 L577.69,-144.53 L578.25,-145.69 L578.82,-146.85 L579.38,-148.02 L579.95,-149.18 L580.51,-150.35 L581.07,-151.52 L581.64,-152.69 L582.20,-153.87 L582.77,-155.05 L583.33,-156.23 L583.89,-157.41 L584.46,-158.60 L585.02,-159.79 L585.59,-160.98 L586.15,-162.17 L586.72,-163.36 L587.28,-164.56 L587.84,-165.76 L588.41,-166.97 L588.97,-168.17 L589.54,-169.38 L590.10,-170.59 L590.66,-171.80 L591.23,-173.02 L591.79,-174.23 L592.36,-175.45 L592.92,-176.68 L593.48,-177.90 L594.05,-179.13 L594.61,-180.36 L595.18,-181.59 L595.74,-182.82 L596.31,-184.06 L596.87,-185.30 L597.43,-186.54 L598.00,-187.79 L598.56,-189.03 L599.13,-190.28 L599.69,-191.54 L600.25,-192.79 L600.82,-194.05 L601.38,-195.31 L601.95,-196.57 L602.51,-197.83 L603.08,-199.10 L603.64,-200.37 L604.20,-201.64 L604.77,-202.91 L605.33,-204.19 L605.90,-205.47 L606.46,-206.75 L607.02,-208.03 L607.59,-209.32 L608.15,-210.61 L608.72,-211.90 L609.28,-213.19 L609.85,-214.49 L610.41,-215.79 L610.97,-217.09 L611.54,-218.39 L612.10,-219.70 L612.67,-221.00 L613.23,-222.32 L613.79,-223.63 L614.36,-224.94 L614.92,-226.26 L615.49,-227.58 L616.05,-228.91 L616.62,-230.23 L617.18,-231.56 L617.74,-232.89 L618.31,-234.22 L618.87,-235.56 L619.44,-236.90 L620.00,-238.24" style="stroke-width: 2; stroke: rgb(208, 2, 27); stroke-opacity: 1;"/><path d=" M428.32, 270.00 L428.32, 269.50 L428.32, 269.00 L428.32, 268.50 L428.32, 268.00 L428.32, 267.50 L428.32, 266.99 L428.32, 266.49 L428.32, 265.99 L428.32, 265.49 L428.32, 264.99 L428.32, 264.49 L428.32, 263.99 L428.32, 263.49 L428.32, 262.99 L428.32, 262.49 L428.32, 261.99 L428.32, 261.48 L428.32, 260.98 L428.32, 260.48 L428.32, 259.98 L428.32, 259.48 L428.32, 258.98 L428.32, 258.48 L428.32, 257.98 L428.32, 257.48 L428.32, 256.98 L428.32, 256.47 L428.32, 255.97 L428.32, 255.47 L428.32, 254.97 L428.32, 254.47 L428.32, 253.97 L428.32, 253.47 L428.32, 252.97 L428.32, 252.47 L428.32, 251.97 L428.32, 251.47 L428.32, 250.96 L428.32, 250.46 L428.32, 249.96 L428.32, 249.46 L428.32, 248.96 L428.32, 248.46 L428.32, 247.96 L428.32, 247.46 L428.32, 246.96 L428.32, 246.46 L428.32, 245.96 L428.32, 245.45 L428.32, 244.95 L428.32, 244.45 L428.32, 243.95 L428.32, 243.45 L428.32, 242.95 L428.32, 242.45 L428.32, 241.95 L428.32, 241.45 L428.32, 240.95 L428.32, 240.45 L428.32, 239.94 L428.32, 239.44 L428.32, 238.94 L428.32, 238.44 L428.32, 237.94 L428.32, 237.44 L428.32, 236.94 L428.32, 236.44 L428.32, 235.94 L428.32, 235.44 L428.32, 234.94 L428.32, 234.43 L428.32, 233.93 L428.32, 233.43 L428.32, 232.93 L428.32, 232.43 L428.32, 231.93 L428.32, 231.43 L428.32, 230.93 L428.32, 230.43 L428.32, 229.93 L428.32, 229.42 L428.32, 228.92 L428.32, 228.42 L428.32, 227.92 L428.32, 227.42 L428.32, 226.92 L428.32, 226.42 L428.32, 225.92 L428.32, 225.42 L428.32, 224.92 L428.32, 224.42 L428.32, 223.91 L428.32, 223.41 L428.32, 222.91 L428.32, 222.41 L428.32, 221.91 L428.32, 221.41 L428.32, 220.91 L428.32, 220.41 L428.32, 219.91 L428.32, 219.41 L428.32, 218.91 L428.32, 218.40 L428.32, 217.90 L428.32, 217.40 L428.32, 216.90 L428.32, 216.40 L428.32, 215.90 L428.32, 215.40 L428.32, 214.90 L428.32, 214.40 L428.32, 213.90 L428.32, 213.40 L428.32, 212.89 L428.32, 212.39 L428.32, 211.89 L428.32, 211.39 L428.32, 210.89 L428.32, 210.39 L428.32, 209.89 L428.32, 209.39 L428.32, 208.89 L428.32, 208.39 L428.32, 207.88 L428.32, 207.38 L428.32, 206.88 L428.32, 206.38 L428.32, 205.88 L428.32, 205.38 L428.32, 204.88 L428.32, 204.38 L428.32, 203.88 L428.32, 203.38 L428.32, 202.88 L428.32, 202.37 L428.32, 201.87 L428.32, 201.37 L428.32, 200.87 L428.32, 200.37 L428.32, 199.87 L428.32, 199.37 L428.32, 198.87 L428.32, 198.37 L428.32, 197.87 L428.32, 197.37 L428.32, 196.86 L428.32, 196.36 L428.32, 195.86 L428.32, 195.36 L428.32, 194.86 L428.32, 194.36 L428.32, 193.86 L428.32, 193.36 L428.32, 192.86 L428.32, 192.36 L428.32, 191.86 L428.32, 191.35 L428.32, 190.85 L428.32, 190.35 L428.32, 189.85 L428.32, 189.35 L428.32, 188.85 L428.32, 188.35 L428.32, 187.85 L428.32, 187.35 L428.32, 186.85 L428.32, 186.35 L428.32, 185.84 L428.32, 185.34 L428.32, 184.84 L428.32, 184.34 L428.32, 183.84 L428.32, 183.34 L428.32, 182.84 L428.32, 182.34 L428.32, 181.84 L428.32, 181.34 L428.32, 180.83 L428.32, 180.33 L428.32, 179.83 L428.32, 179.33 L428.32, 178.83 L428.32, 178.33 L428.32, 177.83 L428.32, 177.33 L428.32, 176.83 L428.32, 176.33 L428.32, 175.83 L428.32, 175.32 L428.32, 174.82 L428.32, 174.32 L428.32, 173.82 L428.32, 173.32 L428.32, 172.82 L428.32, 172.32 L428.32, 171.82 L428.32, 171.32 L428.32, 170.82 L428.32, 170.32 L428.32, 169.81 L428.32, 169.31 L428.32, 168.81 L428.32, 168.31 L428.32, 167.81 L428.32, 167.31 L428.32, 166.81 L428.32, 166.31 L428.32, 165.81 L428.32, 165.31 L428.32, 164.81 L428.32, 164.30 L428.32, 163.80 L428.32, 163.30 L428.32, 162.80 L428.32, 162.30 L428.32, 161.80 L428.32, 161.30 L428.32, 160.80 L428.32, 160.30 L428.32, 159.80 L428.32, 159.29 L428.32, 158.79 L428.32, 158.29 L428.32, 157.79 L428.32, 157.29 L428.32, 156.79 L428.32, 156.29 L428.32, 155.79 L428.32, 155.29 L428.32, 154.79 L428.32, 154.29 L428.32, 153.78 L428.32, 153.28 L428.32, 152.78 L428.32, 152.28 L428.32, 151.78 L428.32, 151.28 L428.32, 150.78 L428.32, 150.28 L428.32, 149.78 L428.32, 149.28 L428.32, 148.78 L428.32, 148.27 L428.32, 147.77 L428.32, 147.27 L428.32, 146.77 L428.32, 146.27 L428.32, 145.77 L428.32, 145.27 L428.32, 144.77 L428.32, 144.27 L428.32, 143.77 L428.32, 143.27 L428.32, 142.76 L428.32, 142.26 L428.32, 141.76 L428.32, 141.26 L428.32, 140.76 L428.32, 140.26 L428.32, 139.76 L428.32, 139.26 L428.32, 138.76 L428.32, 138.26 L428.32, 137.76 L428.32, 137.25 L428.32, 136.75 L428.32, 136.25 L428.32, 135.75 L428.32, 135.25 L428.32, 134.75 L428.32, 134.25 L428.32, 133.75 L428.32, 133.25 L428.32, 132.75 L428.32, 132.24 L428.32, 131.74 L428.32, 131.24 L428.32, 130.74 L428.32, 130.24 L428.32, 129.74 L428.32, 129.24 L428.32, 128.74 L428.32, 128.24 L428.32, 127.74 L428.32, 127.24 L428.32, 126.73 L428.32, 126.23 L428.32, 125.73 L428.32, 125.23 L428.32, 124.73 L428.32, 124.23 L428.32, 123.73 L428.32, 123.23 L428.32, 122.73 L428.32, 122.23 L428.32, 121.73 L428.32, 121.22 L428.32, 120.72 L428.32, 120.22 L428.32, 119.72 L428.32, 119.22 L428.32, 118.72 L428.32, 118.22 L428.32, 117.72 L428.32, 117.22 L428.32, 116.72 L428.32, 116.22 L428.32, 115.71 L428.32, 115.21 L428.32, 114.71 L428.32, 114.21 L428.32, 113.71 L428.32, 113.21 L428.32, 112.71 L428.32, 112.21 L428.32, 111.71 L428.32, 111.21 L428.32, 110.71 L428.32, 110.20 L428.32, 109.70 L428.32, 109.20 L428.32, 108.70 L428.32, 108.20 L428.32, 107.70 L428.32, 107.20 L428.32, 106.70 L428.32, 106.20 L428.32, 105.70 L428.32, 105.19 L428.32, 104.69 L428.32, 104.19 L428.32, 103.69 L428.32, 103.19 L428.32, 102.69 L428.32, 102.19 L428.32, 101.69 L428.32, 101.19 L428.32, 100.69 L428.32, 100.19 L428.32, 99.68 L428.32, 99.18 L428.32, 98.68 L428.32, 98.18 L428.32, 97.68 L428.32, 97.18 L428.32, 96.68 L428.32, 96.18 L428.32, 95.68 L428.32, 95.18 L428.32, 94.68 L428.32, 94.17 L428.32, 93.67 L428.32, 93.17 L428.32, 92.67 L428.32, 92.17 L428.32, 91.67 L428.32, 91.17 L428.32, 90.67 L428.32, 90.17 L428.32, 89.67 L428.32, 89.17 L428.32, 88.66 L428.32, 88.16 L428.32, 87.66 L428.32, 87.16 L428.32, 86.66 L428.32, 86.16 L428.32, 85.66 L428.32, 85.16 L428.32, 84.66 L428.32, 84.16 L428.32, 83.65 L428.32, 83.15 L428.32, 82.65 L428.32, 82.15 L428.32, 81.65 L428.32, 81.15 L428.32, 80.65 L428.32, 80.15 L428.32, 79.65 L428.32, 79.15 L428.32, 78.65 L428.32, 78.14 L428.32, 77.64 L428.32, 77.14 L428.32, 76.64 L428.32, 76.14 L428.32, 75.64 L428.32, 75.14 L428.32, 74.64 L428.32, 74.14 L428.32, 73.64 L428.32, 73.14 L428.32, 72.63 L428.32, 72.13 L428.32, 71.63 L428.32, 71.13 L428.32, 70.63 L428.32, 70.13 L428.32, 69.63 L428.32, 69.13 L428.32, 68.63 L428.32, 68.13 L428.32, 67.63 L428.32, 67.12 L428.32, 66.62 L428.32, 66.12 L428.32, 65.62 L428.32, 65.12 L428.32, 64.62 L428.32, 64.12 L428.32, 63.62 L428.32, 63.12 L428.32, 62.62 L428.32, 62.12 L428.32, 61.61 L428.32, 61.11 L428.32, 60.61 L428.32, 60.11 L428.32, 59.61 L428.32, 59.11 L428.32, 58.61 L428.32, 58.11 L428.32, 57.61 L428.32, 57.11 L428.32, 56.60 L428.32, 56.10 L428.32, 55.60 L428.32, 55.10 L428.32, 54.60 L428.32, 54.10 L428.32, 53.60 L428.32, 53.10 L428.32, 52.60 L428.32, 52.10 L428.32, 51.60 L428.32, 51.09 L428.32, 50.59 L428.32, 50.09 L428.32, 49.59 L428.32, 49.09 L428.32, 48.59 L428.32, 48.09 L428.32, 47.59 L428.32, 47.09 L428.32, 46.59 L428.32, 46.09 L428.32, 45.58 L428.32, 45.08 L428.32, 44.58 L428.32, 44.08 L428.32, 43.58 L428.32, 43.08 L428.32, 42.58 L428.32, 42.08 L428.32, 41.58 L428.32, 41.08 L428.32, 40.58 L428.32, 40.07 L428.32, 39.57 L428.32, 39.07 L428.32, 38.57 L428.32, 38.07 L428.32, 37.57 L428.32, 37.07 L428.32, 36.57 L428.32, 36.07 L428.32, 35.57 L428.32, 35.06 L428.32, 34.56 L428.32, 34.06 L428.32, 33.56 L428.32, 33.06 L428.32, 32.56 L428.32, 32.06 L428.32, 31.56 L428.32, 31.06 L428.32, 30.56 L428.32, 30.06 L428.32, 29.55 L428.32, 29.05 L428.32, 28.55 L428.32, 28.05 L428.32, 27.55 L428.32, 27.05 L428.32, 26.55 L428.32, 26.05 L428.32, 25.55 L428.32, 25.05 L428.32, 24.55 L428.32, 24.04 L428.32, 23.54 L428.32, 23.04 L428.32, 22.54 L428.32, 22.04 L428.32, 21.54 L428.32, 21.04 L428.32, 20.54 L428.32, 20.04 L428.32, 19.54 L428.32, 19.04 L428.32, 18.53 L428.32, 18.03 L428.32, 17.53 L428.32, 17.03 L428.32, 16.53 L428.32, 16.03 L428.32, 15.53 L428.32, 15.03 L428.32, 14.53 L428.32, 14.03 L428.32, 13.53 L428.32, 13.02 L428.32, 12.52 L428.32, 12.02 L428.32, 11.52 L428.32, 11.02 L428.32, 10.52 L428.32, 10.02 L428.32, 9.52 L428.32, 9.02 L428.32, 8.52 L428.32, 8.01 L428.32, 7.51 L428.32, 7.01 L428.32, 6.51 L428.32, 6.01 L428.32, 5.51 L428.32, 5.01 L428.32, 4.51 L428.32, 4.01 L428.32, 3.51 L428.32, 3.01 L428.32, 2.50 L428.32, 2.00 L428.32, 1.50 L428.32, 1.00 L428.32, 0.50 L428.32, 0.00" style="stroke-width: 2; stroke: rgb(126, 211, 33); stroke-opacity: 1; stroke-dasharray: 7.5, 6;"/><g><circle cx="376.4341091811657" cy="115.46272999048233" r="4" style="stroke-width: 3; stroke: rgb(126, 211, 33); stroke-opacity: 1; fill: rgb(126, 211, 33); fill-opacity: 1;"/><circle cx="389.4055753350258" cy="102.49126383662224" r="4" style="stroke-width: 3; stroke: rgb(126, 211, 33); stroke-opacity: 1; fill: rgb(126, 211, 33); fill-opacity: 1;"/><circle cx="324.5482445657253" cy="121.94846306741238" r="4" style="stroke-width: 3; stroke: rgb(126, 211, 33); stroke-opacity: 1; fill: rgb(126, 211, 33); fill-opacity: 1;"/><circle cx="415.34850764274603" cy="89.51979768276215" r="4" style="stroke-width: 3; stroke: rgb(126, 211, 33); stroke-opacity: 1; fill: rgb(126, 211, 33); fill-opacity: 1;"/><circle cx="421.8342407196761" cy="93.41123752892017" r="4" style="stroke-width: 3; stroke: rgb(126, 211, 33); stroke-opacity: 1; fill: rgb(126, 211, 33); fill-opacity: 1;"/><circle cx="311.57677841186523" cy="141.40566229820251" r="4" style="stroke-width: 3; stroke: rgb(126, 211, 33); stroke-opacity: 1; fill: rgb(126, 211, 33); fill-opacity: 1;"/><circle cx="298.60531225800514" cy="115.46272999048233" r="4" style="stroke-width: 3; stroke: rgb(126, 211, 33); stroke-opacity: 1; fill: rgb(126, 211, 33); fill-opacity: 1;"/><circle cx="246.71944764256477" cy="115.46272999048233" r="4" style="stroke-width: 3; stroke: rgb(126, 211, 33); stroke-opacity: 1; fill: rgb(126, 211, 33); fill-opacity: 1;"/><circle cx="220.7765153348446" cy="89.51979768276215" r="4" style="stroke-width: 3; stroke: rgb(126, 211, 33); stroke-opacity: 1; fill: rgb(126, 211, 33); fill-opacity: 1;"/><circle cx="207.8050491809845" cy="89.51979768276215" r="4" style="stroke-width: 3; stroke: rgb(126, 211, 33); stroke-opacity: 1; fill: rgb(126, 211, 33); fill-opacity: 1;"/></g><path d=" M428.32,75.90 L428.49,75.74 L428.67,75.59 L428.84,75.43 L429.02,75.27 L429.19,75.11 L429.37,74.96 L429.54,74.80 L429.72,74.64 L429.89,74.49 L430.06,74.33 L430.24,74.17 L430.41,74.02 L430.59,73.86 L430.76,73.70 L430.94,73.55 L431.11,73.39 L431.28,73.23 L431.46,73.07 L431.63,72.92 L431.81,72.76 L431.98,72.60 L432.16,72.45 L432.33,72.29 L432.51,72.13 L432.68,71.98 L432.85,71.82 L433.03,71.66 L433.20,71.50 L433.38,71.35 L433.55,71.19 L433.73,71.03 L433.90,70.88 L434.08,70.72 L434.25,70.56 L434.42,70.41 L434.60,70.25 L434.77,70.09 L434.95,69.93 L435.12,69.78 L435.30,69.62 L435.47,69.46 L435.65,69.31 L435.82,69.15 L435.99,68.99 L436.17,68.84 L436.34,68.68 L436.52,68.52 L436.69,68.37 L436.87,68.21 L437.04,68.05 L437.22,67.89 L437.39,67.74 L437.56,67.58 L437.74,67.42 L437.91,67.27 L438.09,67.11 L438.26,66.95 L438.44,66.80 L438.61,66.64 L438.78,66.48 L438.96,66.32 L439.13,66.17 L439.31,66.01 L439.48,65.85 L439.66,65.70 L439.83,65.54 L440.01,65.38 L440.18,65.23 L440.35,65.07 L440.53,64.91 L440.70,64.75 L440.88,64.60 L441.05,64.44 L441.23,64.28 L441.40,64.13 L441.58,63.97 L441.75,63.81 L441.92,63.66 L442.10,63.50 L442.27,63.34 L442.45,63.19 L442.62,63.03 L442.80,62.87 L442.97,62.71 L443.15,62.56 L443.32,62.40 L443.49,62.24 L443.67,62.09 L443.84,61.93 L444.02,61.77 L444.19,61.62 L444.37,61.46 L444.54,61.30 L444.71,61.14 L444.89,60.99 L445.06,60.83 L445.24,60.67 L445.41,60.52 L445.59,60.36 L445.76,60.20 L445.94,60.05 L446.11,59.89 L446.28,59.73 L446.46,59.57 L446.63,59.42 L446.81,59.26 L446.98,59.10 L447.16,58.95 L447.33,58.79 L447.51,58.63 L447.68,58.48 L447.85,58.32 L448.03,58.16 L448.20,58.00 L448.38,57.85 L448.55,57.69 L448.73,57.53 L448.90,57.38 L449.08,57.22 L449.25,57.06 L449.42,56.91 L449.60,56.75 L449.77,56.59 L449.95,56.44 L450.12,56.28 L450.30,56.12 L450.47,55.96 L450.64,55.81 L450.82,55.65 L450.99,55.49 L451.17,55.34 L451.34,55.18 L451.52,55.02 L451.69,54.87 L451.87,54.71 L452.04,54.55 L452.21,54.39 L452.39,54.24 L452.56,54.08 L452.74,53.92 L452.91,53.77 L453.09,53.61 L453.26,53.45 L453.44,53.30 L453.61,53.14 L453.78,52.98 L453.96,52.82 L454.13,52.67 L454.31,52.51 L454.48,52.35 L454.66,52.20 L454.83,52.04 L455.01,51.88 L455.18,51.73 L455.35,51.57 L455.53,51.41 L455.70,51.26 L455.88,51.10 L456.05,50.94 L456.23,50.78 L456.40,50.63 L456.57,50.47 L456.75,50.31 L456.92,50.16 L457.10,50.00 L457.27,49.84 L457.45,49.69 L457.62,49.53 L457.80,49.37 L457.97,49.21 L458.14,49.06 L458.32,48.90 L458.49,48.74 L458.67,48.59 L458.84,48.43 L459.02,48.27 L459.19,48.12 L459.37,47.96 L459.54,47.80 L459.71,47.64 L459.89,47.49 L460.06,47.33 L460.24,47.17 L460.41,47.02 L460.59,46.86 L460.76,46.70 L460.94,46.55 L461.11,46.39 L461.28,46.23 L461.46,46.08 L461.63,45.92 L461.81,45.76 L461.98,45.60 L462.16,45.45 L462.33,45.29 L462.50,45.13 L462.68,44.98 L462.85,44.82 L463.03,44.66 L463.20,44.51 L463.38,44.35 L463.55,44.19 L463.73,44.03 L463.90,43.88 L464.07,43.72 L464.25,43.56 L464.42,43.41 L464.60,43.25 L464.77,43.09 L464.95,42.94 L465.12,42.78 L465.30,42.62 L465.47,42.46 L465.64,42.31 L465.82,42.15 L465.99,41.99 L466.17,41.84 L466.34,41.68 L466.52,41.52 L466.69,41.37 L466.87,41.21 L467.04,41.05 L467.21,40.90 L467.39,40.74 L467.56,40.58 L467.74,40.42 L467.91,40.27 L468.09,40.11 L468.26,39.95 L468.43,39.80 L468.61,39.64 L468.78,39.48 L468.96,39.33 L469.13,39.17 L469.31,39.01 L469.48,38.85 L469.66,38.70 L469.83,38.54 L470.00,38.38 L470.18,38.23 L470.35,38.07 L470.53,37.91 L470.70,37.76 L470.88,37.60 L471.05,37.44 L471.23,37.28 L471.40,37.13 L471.57,36.97 L471.75,36.81 L471.92,36.66 L472.10,36.50 L472.27,36.34 L472.45,36.19 L472.62,36.03 L472.80,35.87 L472.97,35.71 L473.14,35.56 L473.32,35.40 L473.49,35.24 L473.67,35.09 L473.84,34.93 L474.02,34.77 L474.19,34.62 L474.37,34.46 L474.54,34.30 L474.71,34.15 L474.89,33.99 L475.06,33.83 L475.24,33.67 L475.41,33.52 L475.59,33.36 L475.76,33.20 L475.93,33.05 L476.11,32.89 L476.28,32.73 L476.46,32.58 L476.63,32.42 L476.81,32.26 L476.98,32.10 L477.16,31.95 L477.33,31.79 L477.50,31.63 L477.68,31.48 L477.85,31.32 L478.03,31.16 L478.20,31.01 L478.38,30.85 L478.55,30.69 L478.73,30.53 L478.90,30.38 L479.07,30.22 L479.25,30.06 L479.42,29.91 L479.60,29.75 L479.77,29.59 L479.95,29.44 L480.12,29.28 L480.30,29.12 L480.47,28.97 L480.64,28.81 L480.82,28.65 L480.99,28.49 L481.17,28.34 L481.34,28.18 L481.52,28.02 L481.69,27.87 L481.86,27.71 L482.04,27.55 L482.21,27.40 L482.39,27.24 L482.56,27.08 L482.74,26.92 L482.91,26.77 L483.09,26.61 L483.26,26.45 L483.43,26.30 L483.61,26.14 L483.78,25.98 L483.96,25.83 L484.13,25.67 L484.31,25.51 L484.48,25.35 L484.66,25.20 L484.83,25.04 L485.00,24.88 L485.18,24.73 L485.35,24.57 L485.53,24.41 L485.70,24.26 L485.88,24.10 L486.05,23.94 L486.23,23.79 L486.40,23.63 L486.57,23.47 L486.75,23.31 L486.92,23.16 L487.10,23.00 L487.27,22.84 L487.45,22.69 L487.62,22.53 L487.79,22.37 L487.97,22.22 L488.14,22.06 L488.32,21.90 L488.49,21.74 L488.67,21.59 L488.84,21.43 L489.02,21.27 L489.19,21.12 L489.36,20.96 L489.54,20.80 L489.71,20.65 L489.89,20.49 L490.06,20.33 L490.24,20.17 L490.41,20.02 L490.59,19.86 L490.76,19.70 L490.93,19.55 L491.11,19.39 L491.28,19.23 L491.46,19.08 L491.63,18.92 L491.81,18.76 L491.98,18.61 L492.16,18.45 L492.33,18.29 L492.50,18.13 L492.68,17.98 L492.85,17.82 L493.03,17.66 L493.20,17.51 L493.38,17.35 L493.55,17.19 L493.72,17.04 L493.90,16.88 L494.07,16.72 L494.25,16.56 L494.42,16.41 L494.60,16.25 L494.77,16.09 L494.95,15.94 L495.12,15.78 L495.29,15.62 L495.47,15.47 L495.64,15.31 L495.82,15.15 L495.99,14.99 L496.17,14.84 L496.34,14.68 L496.52,14.52 L496.69,14.37 L496.86,14.21 L497.04,14.05 L497.21,13.90 L497.39,13.74 L497.56,13.58 L497.74,13.42 L497.91,13.27 L498.09,13.11 L498.26,12.95 L498.43,12.80 L498.61,12.64 L498.78,12.48 L498.96,12.33 L499.13,12.17 L499.31,12.01 L499.48,11.86 L499.65,11.70 L499.83,11.54 L500.00,11.38 L500.18,11.23 L500.35,11.07 L500.53,10.91 L500.70,10.76 L500.88,10.60 L501.05,10.44 L501.22,10.29 L501.40,10.13 L501.57,9.97 L501.75,9.81 L501.92,9.66 L502.10,9.50 L502.27,9.34 L502.45,9.19 L502.62,9.03 L502.79,8.87 L502.97,8.72 L503.14,8.56 L503.32,8.40 L503.49,8.24 L503.67,8.09 L503.84,7.93 L504.02,7.77 L504.19,7.62 L504.36,7.46 L504.54,7.30 L504.71,7.15 L504.89,6.99 L505.06,6.83 L505.24,6.68 L505.41,6.52 L505.58,6.36 L505.76,6.20 L505.93,6.05 L506.11,5.89 L506.28,5.73 L506.46,5.58 L506.63,5.42 L506.81,5.26 L506.98,5.11 L507.15,4.95 L507.33,4.79 L507.50,4.63 L507.68,4.48 L507.85,4.32 L508.03,4.16 L508.20,4.01 L508.38,3.85 L508.55,3.69 L508.72,3.54 L508.90,3.38 L509.07,3.22 L509.25,3.06 L509.42,2.91 L509.60,2.75 L509.77,2.59 L509.95,2.44 L510.12,2.28 L510.29,2.12 L510.47,1.97 L510.64,1.81 L510.82,1.65 L510.99,1.50 L511.17,1.34 L511.34,1.18 L511.52,1.02 L511.69,0.87 L511.86,0.71 L512.04,0.55 L512.21,0.40 L512.39,0.24 L512.56,0.08 L512.74,-0.07 L512.91,-0.23 L513.08,-0.39 L513.26,-0.55 L513.43,-0.70 L513.61,-0.86 L513.78,-1.02 L513.96,-1.17 L514.13,-1.33 L514.31,-1.49 L514.48,-1.64 L514.65,-1.80 L514.83,-1.96 L515.00,-2.12 L515.18,-2.27 L515.35,-2.43 L515.53,-2.59 L515.70,-2.74 L515.88,-2.90 L516.05,-3.06 L516.22,-3.21 L516.40,-3.37 L516.57,-3.53 L516.75,-3.68 L516.92,-3.84 L517.10,-4.00 L517.27,-4.16 L517.45,-4.31 L517.62,-4.47 L517.79,-4.63 L517.97,-4.78 L518.14,-4.94 L518.32,-5.10 L518.49,-5.25 L518.67,-5.41 L518.84,-5.57 L519.01,-5.73 L519.19,-5.88 L519.36,-6.04 L519.54,-6.20 L519.71,-6.35 L519.89,-6.51 L520.06,-6.67 L520.24,-6.82 L520.41,-6.98 L520.58,-7.14 L520.76,-7.30 L520.93,-7.45 L521.11,-7.61 L521.28,-7.77 L521.46,-7.92 L521.63,-8.08 L521.81,-8.24 L521.98,-8.39 L522.15,-8.55 L522.33,-8.71 L522.50,-8.87 L522.68,-9.02 L522.85,-9.18 L523.03,-9.34 L523.20,-9.49 L523.38,-9.65 L523.55,-9.81 L523.72,-9.96 L523.90,-10.12 L524.07,-10.28 L524.25,-10.43 L524.42,-10.59 L524.60,-10.75 L524.77,-10.91 L524.94,-11.06 L525.12,-11.22 L525.29,-11.38 L525.47,-11.53 L525.64,-11.69 L525.82,-11.85 L525.99,-12.00 L526.17,-12.16 L526.34,-12.32 L526.51,-12.48 L526.69,-12.63 L526.86,-12.79 L527.04,-12.95 L527.21,-13.10 L527.39,-13.26 L527.56,-13.42 L527.74,-13.57 L527.91,-13.73 L528.08,-13.89 L528.26,-14.05 L528.43,-14.20 L528.61,-14.36 L528.78,-14.52 L528.96,-14.67 L529.13,-14.83 L529.31,-14.99 L529.48,-15.14 L529.65,-15.30 L529.83,-15.46 L530.00,-15.61 L530.18,-15.77 L530.35,-15.93 L530.53,-16.09 L530.70,-16.24 L530.87,-16.40 L531.05,-16.56 L531.22,-16.71 L531.40,-16.87 L531.57,-17.03 L531.75,-17.18 L531.92,-17.34 L532.10,-17.50 L532.27,-17.66 L532.44,-17.81 L532.62,-17.97 L532.79,-18.13 L532.97,-18.28 L533.14,-18.44 L533.32,-18.60 L533.49,-18.75 L533.67,-18.91 L533.84,-19.07 L534.01,-19.23 L534.19,-19.38 L534.36,-19.54 L534.54,-19.70 L534.71,-19.85 L534.89,-20.01 L535.06,-20.17 L535.24,-20.32 L535.41,-20.48 L535.58,-20.64 L535.76,-20.79 L535.93,-20.95 L536.11,-21.11 L536.28,-21.27 L536.46,-21.42 L536.63,-21.58 L536.80,-21.74 L536.98,-21.89 L537.15,-22.05 L537.33,-22.21 L537.50,-22.36 L537.68,-22.52 L537.85,-22.68 L538.03,-22.84 L538.20,-22.99 L538.37,-23.15 L538.55,-23.31 L538.72,-23.46 L538.90,-23.62 L539.07,-23.78 L539.25,-23.93 L539.42,-24.09 L539.60,-24.25 L539.77,-24.41 L539.94,-24.56 L540.12,-24.72 L540.29,-24.88 L540.47,-25.03 L540.64,-25.19 L540.82,-25.35 L540.99,-25.50 L541.17,-25.66 L541.34,-25.82 L541.51,-25.97 L541.69,-26.13 L541.86,-26.29 L542.04,-26.45 L542.21,-26.60 L542.39,-26.76 L542.56,-26.92 L542.73,-27.07 L542.91,-27.23 L543.08,-27.39 L543.26,-27.54 L543.43,-27.70 L543.61,-27.86 L543.78,-28.02 L543.96,-28.17 L544.13,-28.33 L544.30,-28.49 L544.48,-28.64 L544.65,-28.80 L544.83,-28.96 L545.00,-29.11 L545.18,-29.27 L545.35,-29.43 L545.53,-29.59 L545.70,-29.74 L545.87,-29.90 L546.05,-30.06 L546.22,-30.21 L546.40,-30.37 L546.57,-30.53 L546.75,-30.68 L546.92,-30.84 L547.10,-31.00 L547.27,-31.16 L547.44,-31.31 L547.62,-31.47 L547.79,-31.63 L547.97,-31.78 L548.14,-31.94 L548.32,-32.10 L548.49,-32.25 L548.67,-32.41 L548.84,-32.57 L549.01,-32.72 L549.19,-32.88 L549.36,-33.04 L549.54,-33.20 L549.71,-33.35 L549.89,-33.51 L550.06,-33.67 L550.23,-33.82 L550.41,-33.98 L550.58,-34.14 L550.76,-34.29 L550.93,-34.45 L551.11,-34.61 L551.28,-34.77 L551.46,-34.92 L551.63,-35.08 L551.80,-35.24 L551.98,-35.39 L552.15,-35.55 L552.33,-35.71 L552.50,-35.86 L552.68,-36.02 L552.85,-36.18 L553.03,-36.34 L553.20,-36.49 L553.37,-36.65 L553.55,-36.81 L553.72,-36.96 L553.90,-37.12 L554.07,-37.28 L554.25,-37.43 L554.42,-37.59 L554.60,-37.75 L554.77,-37.90 L554.94,-38.06 L555.12,-38.22 L555.29,-38.38 L555.47,-38.53 L555.64,-38.69 L555.82,-38.85 L555.99,-39.00 L556.16,-39.16 L556.34,-39.32 L556.51,-39.47 L556.69,-39.63 L556.86,-39.79 L557.04,-39.95 L557.21,-40.10 L557.39,-40.26 L557.56,-40.42 L557.73,-40.57 L557.91,-40.73 L558.08,-40.89 L558.26,-41.04 L558.43,-41.20 L558.61,-41.36 L558.78,-41.52 L558.96,-41.67 L559.13,-41.83 L559.30,-41.99 L559.48,-42.14 L559.65,-42.30 L559.83,-42.46 L560.00,-42.61 L560.18,-42.77 L560.35,-42.93 L560.53,-43.08 L560.70,-43.24 L560.87,-43.40 L561.05,-43.56 L561.22,-43.71 L561.40,-43.87 L561.57,-44.03 L561.75,-44.18 L561.92,-44.34 L562.09,-44.50 L562.27,-44.65 L562.44,-44.81 L562.62,-44.97 L562.79,-45.13 L562.97,-45.28 L563.14,-45.44 L563.32,-45.60 L563.49,-45.75 L563.66,-45.91 L563.84,-46.07 L564.01,-46.22 L564.19,-46.38 L564.36,-46.54 L564.54,-46.70 L564.71,-46.85 L564.89,-47.01 L565.06,-47.17 L565.23,-47.32 L565.41,-47.48 L565.58,-47.64 L565.76,-47.79 L565.93,-47.95 L566.11,-48.11 L566.28,-48.26 L566.46,-48.42 L566.63,-48.58 L566.80,-48.74 L566.98,-48.89 L567.15,-49.05 L567.33,-49.21 L567.50,-49.36 L567.68,-49.52 L567.85,-49.68 L568.02,-49.83 L568.20,-49.99 L568.37,-50.15 L568.55,-50.31 L568.72,-50.46 L568.90,-50.62 L569.07,-50.78 L569.25,-50.93 L569.42,-51.09 L569.59,-51.25 L569.77,-51.40 L569.94,-51.56 L570.12,-51.72 L570.29,-51.88 L570.47,-52.03 L570.64,-52.19 L570.82,-52.35 L570.99,-52.50 L571.16,-52.66 L571.34,-52.82 L571.51,-52.97 L571.69,-53.13 L571.86,-53.29 L572.04,-53.45 L572.21,-53.60 L572.39,-53.76 L572.56,-53.92 L572.73,-54.07 L572.91,-54.23 L573.08,-54.39 L573.26,-54.54 L573.43,-54.70 L573.61,-54.86 L573.78,-55.01 L573.95,-55.17 L574.13,-55.33 L574.30,-55.49 L574.48,-55.64 L574.65,-55.80 L574.83,-55.96 L575.00,-56.11 L575.18,-56.27 L575.35,-56.43 L575.52,-56.58 L575.70,-56.74 L575.87,-56.90 L576.05,-57.06 L576.22,-57.21 L576.40,-57.37 L576.57,-57.53 L576.75,-57.68 L576.92,-57.84 L577.09,-58.00 L577.27,-58.15 L577.44,-58.31 L577.62,-58.47 L577.79,-58.63 L577.97,-58.78 L578.14,-58.94 L578.32,-59.10 L578.49,-59.25 L578.66,-59.41 L578.84,-59.57 L579.01,-59.72 L579.19,-59.88 L579.36,-60.04 L579.54,-60.19 L579.71,-60.35 L579.88,-60.51 L580.06,-60.67 L580.23,-60.82 L580.41,-60.98 L580.58,-61.14 L580.76,-61.29 L580.93,-61.45 L581.11,-61.61 L581.28,-61.76 L581.45,-61.92 L581.63,-62.08 L581.80,-62.24 L581.98,-62.39 L582.15,-62.55 L582.33,-62.71 L582.50,-62.86 L582.68,-63.02 L582.85,-63.18 L583.02,-63.33 L583.20,-63.49 L583.37,-63.65 L583.55,-63.81 L583.72,-63.96 L583.90,-64.12 L584.07,-64.28 L584.25,-64.43 L584.42,-64.59 L584.59,-64.75 L584.77,-64.90 L584.94,-65.06 L585.12,-65.22 L585.29,-65.37 L585.47,-65.53 L585.64,-65.69 L585.82,-65.85 L585.99,-66.00 L586.16,-66.16 L586.34,-66.32 L586.51,-66.47 L586.69,-66.63 L586.86,-66.79 L587.04,-66.94 L587.21,-67.10 L587.38,-67.26 L587.56,-67.42 L587.73,-67.57 L587.91,-67.73 L588.08,-67.89 L588.26,-68.04 L588.43,-68.20 L588.61,-68.36 L588.78,-68.51 L588.95,-68.67 L589.13,-68.83 L589.30,-68.99 L589.48,-69.14 L589.65,-69.30 L589.83,-69.46 L590.00,-69.61 L590.18,-69.77 L590.35,-69.93 L590.52,-70.08 L590.70,-70.24 L590.87,-70.40 L591.05,-70.55 L591.22,-70.71 L591.40,-70.87 L591.57,-71.03 L591.75,-71.18 L591.92,-71.34 L592.09,-71.50 L592.27,-71.65 L592.44,-71.81 L592.62,-71.97 L592.79,-72.12 L592.97,-72.28 L593.14,-72.44 L593.31,-72.60 L593.49,-72.75 L593.66,-72.91 L593.84,-73.07 L594.01,-73.22 L594.19,-73.38 L594.36,-73.54 L594.54,-73.69 L594.71,-73.85 L594.88,-74.01 L595.06,-74.17 L595.23,-74.32 L595.41,-74.48 L595.58,-74.64 L595.76,-74.79 L595.93,-74.95 L596.11,-75.11 L596.28,-75.26 L596.45,-75.42 L596.63,-75.58 L596.80,-75.74 L596.98,-75.89 L597.15,-76.05 L597.33,-76.21 L597.50,-76.36 L597.68,-76.52 L597.85,-76.68 L598.02,-76.83 L598.20,-76.99 L598.37,-77.15 L598.55,-77.30 L598.72,-77.46 L598.90,-77.62 L599.07,-77.78 L599.24,-77.93 L599.42,-78.09 L599.59,-78.25 L599.77,-78.40 L599.94,-78.56 L600.12,-78.72 L600.29,-78.87 L600.47,-79.03 L600.64,-79.19 L600.81,-79.35 L600.99,-79.50 L601.16,-79.66 L601.34,-79.82 L601.51,-79.97 L601.69,-80.13 L601.86,-80.29 L602.04,-80.44 L602.21,-80.60 L602.38,-80.76 L602.56,-80.92 L602.73,-81.07 L602.91,-81.23 L603.08,-81.39 L603.26,-81.54 L603.43,-81.70 L603.61,-81.86 L603.78,-82.01 L603.95,-82.17 L604.13,-82.33 L604.30,-82.48 L604.48,-82.64 L604.65,-82.80 L604.83,-82.96 L605.00,-83.11 L605.17,-83.27 L605.35,-83.43 L605.52,-83.58 L605.70,-83.74 L605.87,-83.90 L606.05,-84.05 L606.22,-84.21 L606.40,-84.37 L606.57,-84.53 L606.74,-84.68 L606.92,-84.84 L607.09,-85.00 L607.27,-85.15 L607.44,-85.31 L607.62,-85.47 L607.79,-85.62 L607.97,-85.78 L608.14,-85.94 L608.31,-86.10 L608.49,-86.25 L608.66,-86.41 L608.84,-86.57 L609.01,-86.72 L609.19,-86.88 L609.36,-87.04 L609.54,-87.19 L609.71,-87.35 L609.88,-87.51 L610.06,-87.66 L610.23,-87.82 L610.41,-87.98 L610.58,-88.14 L610.76,-88.29 L610.93,-88.45 L611.10,-88.61 L611.28,-88.76 L611.45,-88.92 L611.63,-89.08 L611.80,-89.23 L611.98,-89.39 L612.15,-89.55 L612.33,-89.71 L612.50,-89.86 L612.67,-90.02 L612.85,-90.18 L613.02,-90.33 L613.20,-90.49 L613.37,-90.65 L613.55,-90.80 L613.72,-90.96 L613.90,-91.12 L614.07,-91.28 L614.24,-91.43 L614.42,-91.59 L614.59,-91.75 L614.77,-91.90 L614.94,-92.06 L615.12,-92.22 L615.29,-92.37 L615.47,-92.53 L615.64,-92.69 L615.81,-92.84 L615.99,-93.00 L616.16,-93.16 L616.34,-93.32 L616.51,-93.47 L616.69,-93.63 L616.86,-93.79 L617.03,-93.94 L617.21,-94.10 L617.38,-94.26 L617.56,-94.41 L617.73,-94.57 L617.91,-94.73 L618.08,-94.89 L618.26,-95.04 L618.43,-95.20 L618.60,-95.36 L618.78,-95.51 L618.95,-95.67 L619.13,-95.83 L619.30,-95.98 L619.48,-96.14 L619.65,-96.30 L619.83,-96.46 L620.00,-96.61" style="stroke-width: 3; stroke: rgb(74, 144, 226); stroke-opacity: 1;"/><g><g class="arrow-line"><path class="vector-plot real" stroke-dasharray="" d="  M558.03,219.23 L583.98,219.23" style="stroke: rgb(74, 144, 226); stroke-opacity: 1; stroke-width: 2;"/></g></g></g></g><g class="test-xtl" style="font-family: &quot;Open Sans&quot;, verdana, arial, sans-serif;"><text text-anchor="middle" font-size="11" dominant-baseline="hanging" stroke="none" fill="rgb(50,50,50)" fill-opacity="1" x="49.012455334663386" y="135.43419614434242">-20</text><text text-anchor="middle" font-size="11" dominant-baseline="hanging" stroke="none" fill="rgb(50,50,50)" fill-opacity="1" x="113.86978610396385" y="135.43419614434242">-15</text><text text-anchor="middle" font-size="11" dominant-baseline="hanging" stroke="none" fill="rgb(50,50,50)" fill-opacity="1" x="178.7271168732643" y="135.43419614434242">-10</text><text text-anchor="middle" font-size="11" dominant-baseline="hanging" stroke="none" fill="rgb(50,50,50)" fill-opacity="1" x="243.58444764256478" y="135.43419614434242">-5</text><text text-anchor="middle" font-size="11" dominant-baseline="hanging" stroke="none" fill="rgb(50,50,50)" fill-opacity="1" x="376.4341091811657" y="135.43419614434242">5</text><text text-anchor="middle" font-size="11" dominant-baseline="hanging" stroke="none" fill="rgb(50,50,50)" fill-opacity="1" x="441.29143995046616" y="135.43419614434242">10</text><text text-anchor="middle" font-size="11" dominant-baseline="hanging" stroke="none" fill="rgb(50,50,50)" fill-opacity="1" x="506.1487707197667" y="135.43419614434242">15</text><text text-anchor="middle" font-size="11" dominant-baseline="hanging" stroke="none" fill="rgb(50,50,50)" fill-opacity="1" x="571.0061014890672" y="135.43419614434242">20</text><text text-anchor="middle" font-size="11" dominant-baseline="hanging" stroke="none" fill="rgb(50,50,50)" fill-opacity="1" x="303.57677841186523" y="133.43419614434242">0</text></g><g class="test-ytl" style="font-family: &quot;Open Sans&quot;, verdana, arial, sans-serif;"><text text-anchor="end" dominant-baseline="middle" font-size="11" stroke="none" fill="rgb(50,50,50)" fill-opacity="1" x="303.57677841186523" y="258.14885768294334">-10</text><text text-anchor="end" dominant-baseline="middle" font-size="11" stroke="none" fill="rgb(50,50,50)" fill-opacity="1" x="303.57677841186523" y="193.29152691364288">-5</text><text text-anchor="end" dominant-baseline="middle" font-size="11" stroke="none" fill="rgb(50,50,50)" fill-opacity="1" x="303.57677841186523" y="63.57686537504196">5</text></g><rect class="real" x="1" y="1" width="618" height="268" style="fill: transparent; stroke: none;"/></g></g></g><g/></g><g/><g/><g/></svg>
        <svg xmlns="http://www.w3.org/2000/svg" xmlns:xlink="http://www.w3.org/1999/xlink" width="660" height="310" style="width:660px;height:310px;font-family:Asana-Math, Asana;background:transparent;"><g><g><g><text x="453.66668701171875" y="221.66668701171875" style="white-space:pre;stroke:none;fill:rgb(0,0,0);fill-opacity:1;font-size:15px;font-family:Arial, Helvetica, sans-serif;font-weight:400;font-style:normal;dominant-baseline:text-before-edge;text-decoration:none solid rgb(0, 0, 0);">Kernel Smoothing</text></g></g></g><g><g><g><text x="416.66668701171875" y="169.66668701171875" style="white-space:pre;stroke:none;fill:rgb(0,0,0);fill-opacity:1;font-size:15px;font-family:Arial, Helvetica, sans-serif;font-weight:400;font-style:normal;dominant-baseline:text-before-edge;text-decoration:none solid rgb(0, 0, 0);">Boundary</text></g></g></g></svg>
</svg>
