<svg xmlns="http://www.w3.org/2000/svg" xmlns:xlink="http://www.w3.org/1999/xlink" x="0" y="0" width="661.3333740234375" height="311.3333435058594" style="
        width:661.3333740234375px;
        height:311.3333435058594px;
        background: transparent;
        fill: none;
">
        
        
        <svg xmlns="http://www.w3.org/2000/svg" class="role-diagram-draw-area"><g class="shapes-region" style="stroke: black; fill: none;"><g class="composite-shape" data-amt="diagram/shapes/plot" transform="matrix(1,0,0,1,115,63)"><g><g><g class="test-xgi"><line x1="51.875" y1="0" x2="51.875" y2="200" fill="none" stroke="#c3c3c3" stroke-width="0.5"/><line x1="124.99999999999999" y1="0" x2="124.99999999999999" y2="200" fill="none" stroke="#c3c3c3" stroke-width="0.5"/><line x1="198.125" y1="0" x2="198.125" y2="200" fill="none" stroke="#c3c3c3" stroke-width="0.5"/><line x1="271.24999999999994" y1="0" x2="271.24999999999994" y2="200" fill="none" stroke="#c3c3c3" stroke-width="0.5"/><line x1="344.37499999999994" y1="0" x2="344.37499999999994" y2="200" fill="none" stroke="#c3c3c3" stroke-width="0.5"/><line x1="417.49999999999994" y1="0" x2="417.49999999999994" y2="200" fill="none" stroke="#c3c3c3" stroke-width="0.5"/></g><g class="test-ygi"><line x1="0" y1="173.125" x2="430" y2="173.125" fill="none" stroke="#c3c3c3" stroke-width="0.5"/><line x1="0" y1="100" x2="430" y2="100" fill="none" stroke="#c3c3c3" stroke-width="0.5"/><line x1="0" y1="26.87499999999997" x2="430" y2="26.87499999999997" fill="none" stroke="#c3c3c3" stroke-width="0.5"/></g></g><g><g class="test-xti" style="font-family: Asana-Math, Asana;"><line x1="0" y1="100" x2="426" y2="100" fill="none" stroke="rgb(50,50,50)" stroke-opacity="1" stroke-width="1"/><line x1="51.875" y1="96" x2="51.875" y2="104" fill="none" stroke="rgb(50,50,50)" stroke-opacity="1" stroke-width="1"/><line x1="124.99999999999999" y1="96" x2="124.99999999999999" y2="104" fill="none" stroke="rgb(50,50,50)" stroke-opacity="1" stroke-width="1"/><line x1="271.24999999999994" y1="96" x2="271.24999999999994" y2="104" fill="none" stroke="rgb(50,50,50)" stroke-opacity="1" stroke-width="1"/><line x1="344.37499999999994" y1="96" x2="344.37499999999994" y2="104" fill="none" stroke="rgb(50,50,50)" stroke-opacity="1" stroke-width="1"/><line x1="417.49999999999994" y1="96" x2="417.49999999999994" y2="104" fill="none" stroke="rgb(50,50,50)" stroke-opacity="1" stroke-width="1"/><path d="M421,96.4 L429,100 L421,103.6 Z" stroke="none" stroke-width="1" fill="rgb(50,50,50)" fill-opacity="1"/></g><g class="test-yti" style="font-family: Asana-Math, Asana;"><line x1="198.125" y1="4" x2="198.125" y2="200" fill="none" stroke="rgb(50,50,50)" stroke-opacity="1" stroke-width="1"/><line x1="194.125" y1="173.125" x2="202.125" y2="173.125" fill="none" stroke="rgb(50,50,50)" stroke-opacity="1" stroke-width="1"/><line x1="194.125" y1="26.87499999999997" x2="202.125" y2="26.87499999999997" fill="none" stroke="rgb(50,50,50)" stroke-opacity="1" stroke-width="1"/><path d="M194.525,9 L198.125,1 L201.725,9 Z" stroke="none" stroke-width="1" fill="rgb(50,50,50)" fill-opacity="1"/></g><g class="test-plot-expression"><defs><clipPath id="cpezzcyfx9s"><rect x="1" y="1" width="428" height="198"/></clipPath></defs><g clip-path="url(#cpezzcyfx9s)"><path d=" M1.43,166.77 L0.00,166.80 M2.87,166.74 L1.43,166.77 M4.30,166.71 L2.87,166.74 M5.73,166.69 L4.30,166.71 M7.17,166.66 L5.73,166.69 M8.60,166.63 L7.17,166.66 M10.03,166.60 L8.60,166.63 M11.47,166.57 L10.03,166.60 M12.90,166.54 L11.47,166.57 M14.33,166.51 L12.90,166.54 M15.77,166.48 L14.33,166.51 M17.20,166.45 L15.77,166.48 M18.63,166.42 L17.20,166.45 M20.07,166.39 L18.63,166.42 M21.50,166.36 L20.07,166.39 M22.93,166.33 L21.50,166.36 M24.37,166.29 L22.93,166.33 M25.80,166.26 L24.37,166.29 M27.23,166.23 L25.80,166.26 M28.67,166.20 L27.23,166.23 M30.10,166.16 L28.67,166.20 M31.53,166.13 L30.10,166.16 M32.97,166.10 L31.53,166.13 M34.40,166.06 L32.97,166.10 M35.83,166.03 L34.40,166.06 M37.05,166.00 L35.83,166.03 M37.27,165.99 L37.05,166.00 M38.70,165.96 L37.27,165.99 M40.13,165.92 L38.70,165.96 M41.57,165.89 L40.13,165.92 M43.00,165.85 L41.57,165.89 M44.43,165.82 L43.00,165.85 M45.87,165.78 L44.43,165.82 M47.30,165.74 L45.87,165.78 M48.73,165.70 L47.30,165.74 M50.17,165.67 L48.73,165.70 M51.60,165.63 L50.17,165.67 M53.03,165.59 L51.60,165.63 M54.47,165.55 L53.03,165.59 M55.90,165.51 L54.47,165.55 M57.33,165.47 L55.90,165.51 M58.77,165.43 L57.33,165.47 M60.20,165.39 L58.77,165.43 M61.63,165.35 L60.20,165.39 M63.07,165.30 L61.63,165.35 M64.50,165.26 L63.07,165.30 M65.93,165.22 L64.50,165.26 M67.37,165.17 L65.93,165.22 M68.80,165.13 L67.37,165.17 M70.23,165.09 L68.80,165.13 M71.67,165.04 L70.23,165.09 M73.00,165.00 L71.67,165.04 M73.10,165.00 L73.00,165.00 M74.53,164.95 L73.10,165.00 M75.97,164.90 L74.53,164.95 M77.40,164.86 L75.97,164.90 M78.83,164.81 L77.40,164.86 M80.27,164.76 L78.83,164.81 M81.70,164.71 L80.27,164.76 M83.13,164.66 L81.70,164.71 M84.57,164.61 L83.13,164.66 M86.00,164.56 L84.57,164.61 M87.43,164.51 L86.00,164.56 M88.87,164.46 L87.43,164.51 M90.30,164.41 L88.87,164.46 M91.73,164.35 L90.30,164.41 M93.17,164.30 L91.73,164.35 M94.60,164.25 L93.17,164.30 M96.03,164.19 L94.60,164.25 M97.47,164.13 L96.03,164.19 M98.90,164.08 L97.47,164.13 M100.33,164.02 L98.90,164.08 M100.85,164.00 L100.33,164.02 M101.77,163.96 L100.85,164.00 M103.20,163.90 L101.77,163.96 M104.63,163.84 L103.20,163.90 M106.07,163.78 L104.63,163.84 M107.50,163.72 L106.07,163.78 M108.93,163.66 L107.50,163.72 M110.37,163.60 L108.93,163.66 M111.80,163.53 L110.37,163.60 M113.23,163.47 L111.80,163.53 M114.67,163.40 L113.23,163.47 M116.10,163.33 L114.67,163.40 M117.53,163.27 L116.10,163.33 M118.97,163.20 L117.53,163.27 M120.40,163.13 L118.97,163.20 M121.83,163.06 L120.40,163.13 M123.00,163.00 L121.83,163.06 M123.27,162.99 L123.00,163.00 M124.70,162.91 L123.27,162.99 M126.13,162.84 L124.70,162.91 M127.57,162.76 L126.13,162.84 M129.00,162.69 L127.57,162.76 M130.43,162.61 L129.00,162.69 M131.87,162.53 L130.43,162.61 M133.30,162.45 L131.87,162.53 M134.73,162.37 L133.30,162.45 M136.17,162.29 L134.73,162.37 M137.60,162.20 L136.17,162.29 M139.03,162.12 L137.60,162.20 M140.47,162.03 L139.03,162.12 M140.99,162.00 L140.47,162.03 M141.90,161.94 L140.99,162.00 M143.33,161.85 L141.90,161.94 M144.77,161.76 L143.33,161.85 M146.20,161.67 L144.77,161.76 M147.63,161.57 L146.20,161.67 M149.07,161.48 L147.63,161.57 M150.50,161.38 L149.07,161.48 M151.93,161.28 L150.50,161.38 M153.37,161.18 L151.93,161.28 M154.80,161.08 L153.37,161.18 M155.85,161.00 L154.80,161.08 M156.23,160.97 L155.85,161.00 M157.67,160.86 L156.23,160.97 M159.10,160.75 L157.67,160.86 M160.53,160.64 L159.10,160.75 M159.82,1.00 L160.53,1.77 L160.75,2.00 L161.68,3.00 L161.97,3.31 L162.60,4.00 L163.40,4.86 L163.53,5.00 L164.45,6.00 L164.83,6.41 L165.37,7.00 L166.27,7.97 L166.30,8.00 L167.22,9.00 L167.70,9.53 L168.14,10.00 L169.06,11.00 L169.13,11.08 L169.98,12.00 L170.57,12.65 L170.89,13.00 L171.81,14.00 L172.00,14.21 L172.72,15.00 L173.43,15.78 L173.64,16.00 L174.55,17.00 L174.87,17.35 L175.46,18.00 L176.30,18.92 L176.37,19.00 L177.28,20.00 L177.73,20.50 L178.19,21.00 L179.10,22.00 L179.17,22.08 L180.00,23.00 L180.60,23.66 L180.91,24.00 L181.81,25.00 L182.03,25.25 L182.71,26.00 L183.47,26.84 L183.61,27.00 L184.51,28.00 L184.90,28.43 L185.41,29.00 L186.31,30.00 L186.33,30.03 L187.20,31.00 L187.77,31.64 L188.09,32.00 L188.99,33.00 L189.20,33.24 L189.88,34.00 L190.63,34.85 L190.76,35.00 L191.65,36.00 L192.07,36.47 L192.54,37.00 L193.42,38.00 L193.50,38.09 L194.30,39.00 L194.93,39.72 L195.18,40.00 L196.06,41.00 L196.37,41.35 L196.94,42.00 L197.80,42.99 L197.81,43.00 L198.69,44.00 L199.23,44.63 L199.56,45.00 L200.42,46.00 L200.67,46.28 L201.29,47.00 L202.10,47.94 L202.16,48.00 L203.02,49.00 L203.53,49.60 L203.88,50.00 L204.74,51.00 L204.97,51.27 L205.59,52.00 L206.40,52.95 L206.44,53.00 L207.29,54.00 L207.83,54.64 L208.14,55.00 L208.99,56.00 L209.27,56.33 L209.83,57.00 L210.67,58.00 L210.70,58.03 L211.51,59.00 L212.13,59.75 L212.34,60.00 L213.17,61.00 L213.57,61.48 L214.00,62.00 L214.83,63.00 L215.00,63.21 L215.65,64.00 L216.43,64.96 L216.47,65.00 L217.28,66.00 L217.87,66.72 L218.10,67.00 L218.90,68.00 L219.30,68.49 L219.71,69.00 L220.51,70.00 L220.73,70.28 L221.31,71.00 L222.10,72.00 L222.17,72.09 L222.89,73.00 L223.60,73.91 L223.67,74.00 L224.45,75.00 L225.03,75.75 L225.23,76.00 L226.00,77.00 L226.47,77.61 L226.76,78.00 L227.53,79.00 L227.90,79.50 L228.28,80.00 L229.03,81.00 L229.33,81.41 L229.78,82.00 L230.52,83.00 L230.77,83.34 L231.25,84.00 L231.98,85.00 L232.20,85.31 L232.70,86.00 L233.42,87.00 L233.63,87.31 L234.12,88.00 L234.82,89.00 L235.07,89.35 L235.52,90.00 L236.21,91.00 L236.50,91.44 L236.88,92.00 L237.56,93.00 L237.93,93.57 L238.22,94.00 L238.87,95.00 L239.37,95.77 L239.52,96.00 L240.15,97.00 L240.78,98.00 L240.80,98.04 L241.39,99.00 L242.00,100.00 L242.23,100.40 L242.59,101.00 L243.18,102.00 L243.67,102.86 L243.75,103.00 L244.31,104.00 L244.85,105.00 L245.10,105.47 L245.39,106.00 L245.90,107.00 L246.41,108.00 L246.53,108.26 L246.89,109.00 L247.37,110.00 L247.82,111.00 L247.97,111.34 L248.26,112.00 L248.68,113.00 L249.07,114.00 L249.40,114.87 L249.45,115.00 L249.81,116.00 L250.14,117.00 L250.45,118.00 L250.73,119.00 L250.83,119.40 L250.99,120.00 L251.22,121.00 L251.41,122.00 L251.58,123.00 L251.71,124.00 L251.81,125.00 L251.86,126.00 L251.88,127.00 L251.85,128.00 L251.78,129.00 L251.65,130.00 L251.47,131.00 L251.24,132.00 L250.94,133.00 L250.83,133.31 L250.58,134.00 L250.15,135.00 L249.64,136.00 L249.40,136.40 L249.04,137.00 L248.36,138.00 L247.97,138.50 L247.57,139.00 L246.68,140.00 L246.53,140.15 L245.67,141.00 L245.10,141.51 L244.53,142.00 L243.67,142.68 L243.25,143.00 L242.23,143.71 L241.81,144.00 L240.80,144.64 L240.20,145.00 L239.37,145.47 L238.40,146.00 L237.93,146.24 L236.50,146.94 L236.38,147.00 L235.07,147.59 L234.12,148.00 L233.63,148.20 L232.20,148.77 L231.59,149.00 L230.77,149.30 L229.33,149.80 L228.76,150.00 L227.90,150.28 L226.47,150.73 L225.58,151.00 L225.03,151.16 L223.60,151.56 L222.17,151.96 L222.00,152.00 L220.73,152.32 L219.30,152.68 L217.97,153.00 L217.87,153.02 L216.43,153.35 L215.00,153.66 L213.57,153.97 L213.41,154.00 L212.13,154.26 L210.70,154.54 L209.27,154.81 L208.24,155.00 L207.83,155.07 L206.40,155.32 L204.97,155.57 L203.53,155.81 L202.35,156.00 L202.10,156.04 L200.67,156.26 L199.23,156.48 L197.80,156.69 L196.37,156.89 L195.60,157.00 L194.93,157.09 L193.50,157.28 L192.07,157.47 L190.63,157.65 L189.20,157.83 L187.83,158.00 L187.77,158.01 L186.33,158.18 L184.90,158.34 L183.47,158.50 L182.03,158.66 L180.60,158.81 L179.17,158.96 L178.82,159.00 L177.73,159.11 L176.30,159.25 L174.87,159.39 L173.43,159.53 L172.00,159.66 L170.57,159.80 L169.13,159.92 L168.29,160.00 L167.70,160.05 L166.27,160.17 L164.83,160.29 L163.40,160.41 L161.97,160.53 L160.53,160.64" style="stroke-width: 2; stroke: rgb(208, 2, 27); stroke-opacity: 1;"/><path d=" M97.37, 200.00 L98.89, 199.50 L100.40, 199.00 L101.90, 198.50 L103.40, 197.99 L104.89, 197.49 L106.37, 196.99 L107.84, 196.49 L109.31, 195.99 L110.77, 195.49 L112.22, 194.99 L113.66, 194.49 L115.10, 193.98 L116.52, 193.48 L117.94, 192.98 L119.36, 192.48 L120.76, 191.98 L122.16, 191.48 L123.55, 190.98 L124.93, 190.48 L126.30, 189.97 L127.67, 189.47 L129.03, 188.97 L130.38, 188.47 L131.73, 187.97 L133.06, 187.47 L134.39, 186.97 L135.71, 186.47 L137.02, 185.96 L138.33, 185.46 L139.63, 184.96 L140.92, 184.46 L142.20, 183.96 L143.48, 183.46 L144.74, 182.96 L146.00, 182.46 L147.26, 181.95 L148.50, 181.45 L149.74, 180.95 L150.97, 180.45 L152.19, 179.95 L153.40, 179.45 L154.61, 178.95 L155.81, 178.45 L157.00, 177.94 L158.18, 177.44 L159.36, 176.94 L160.53, 176.44 L161.69, 175.94 L162.84, 175.44 L163.99, 174.94 L165.12, 174.44 L166.25, 173.93 L167.38, 173.43 L168.49, 172.93 L169.60, 172.43 L170.70, 171.93 L171.79, 171.43 L172.87, 170.93 L173.95, 170.43 L175.02, 169.92 L176.08, 169.42 L177.13, 168.92 L178.18, 168.42 L179.22, 167.92 L180.25, 167.42 L181.27, 166.92 L182.29, 166.42 L183.30, 165.91 L184.30, 165.41 L185.29, 164.91 L186.27, 164.41 L187.25, 163.91 L188.22, 163.41 L189.18, 162.91 L190.14, 162.41 L191.08, 161.90 L192.02, 161.40 L192.95, 160.90 L193.88, 160.40 L194.79, 159.90 L195.70, 159.40 L196.60, 158.90 L197.50, 158.40 L198.38, 157.89 L199.26, 157.39 L200.13, 156.89 L200.99, 156.39 L201.85, 155.89 L202.70, 155.39 L203.54, 154.89 L204.37, 154.39 L205.19, 153.88 L206.01, 153.38 L206.82, 152.88 L207.62, 152.38 L208.42, 151.88 L209.20, 151.38 L209.98, 150.88 L210.75, 150.38 L211.52, 149.87 L212.27, 149.37 L213.02, 148.87 L213.76, 148.37 L214.49, 147.87 L215.22, 147.37 L215.94, 146.87 L216.65, 146.37 L217.35, 145.86 L218.04, 145.36 L218.73, 144.86 L219.41, 144.36 L220.08, 143.86 L220.75, 143.36 L221.40, 142.86 L222.05, 142.36 L222.69, 141.85 L223.33, 141.35 L223.95, 140.85 L224.57, 140.35 L225.18, 139.85 L225.79, 139.35 L226.38, 138.85 L226.97, 138.35 L227.55, 137.84 L228.12, 137.34 L228.69, 136.84 L229.25, 136.34 L229.80, 135.84 L230.34, 135.34 L230.87, 134.84 L231.40, 134.34 L231.92, 133.83 L232.43, 133.33 L232.93, 132.83 L233.43, 132.33 L233.92, 131.83 L234.40, 131.33 L234.87, 130.83 L235.34, 130.33 L235.80, 129.82 L236.25, 129.32 L236.69, 128.82 L237.13, 128.32 L237.55, 127.82 L237.97, 127.32 L238.39, 126.82 L238.79, 126.32 L239.19, 125.81 L239.58, 125.31 L239.96, 124.81 L240.33, 124.31 L240.70, 123.81 L241.06, 123.31 L241.41, 122.81 L241.75, 122.31 L242.09, 121.80 L242.42, 121.30 L242.74, 120.80 L243.05, 120.30 L243.36, 119.80 L243.65, 119.30 L243.94, 118.80 L244.23, 118.30 L244.50, 117.79 L244.77, 117.29 L245.03, 116.79 L245.28, 116.29 L245.52, 115.79 L245.76, 115.29 L245.99, 114.79 L246.21, 114.29 L246.43, 113.78 L246.63, 113.28 L246.83, 112.78 L247.02, 112.28 L247.20, 111.78 L247.38, 111.28 L247.55, 110.78 L247.71, 110.28 L247.86, 109.77 L248.01, 109.27 L248.14, 108.77 L248.27, 108.27 L248.40, 107.77 L248.51, 107.27 L248.62, 106.77 L248.72, 106.27 L248.81, 105.76 L248.89, 105.26 L248.97, 104.76 L249.04, 104.26 L249.10, 103.76 L249.15, 103.26 L249.20, 102.76 L249.24, 102.26 L249.27, 101.75 L249.29, 101.25 L249.30, 100.75 L249.31, 100.25 L249.31, 99.75 L249.30, 99.25 L249.29, 98.75 L249.27, 98.25 L249.24, 97.74 L249.20, 97.24 L249.15, 96.74 L249.10, 96.24 L249.04, 95.74 L248.97, 95.24 L248.89, 94.74 L248.81, 94.24 L248.72, 93.73 L248.62, 93.23 L248.51, 92.73 L248.40, 92.23 L248.27, 91.73 L248.14, 91.23 L248.01, 90.73 L247.86, 90.23 L247.71, 89.72 L247.55, 89.22 L247.38, 88.72 L247.20, 88.22 L247.02, 87.72 L246.83, 87.22 L246.63, 86.72 L246.43, 86.22 L246.21, 85.71 L245.99, 85.21 L245.76, 84.71 L245.52, 84.21 L245.28, 83.71 L245.03, 83.21 L244.77, 82.71 L244.50, 82.21 L244.23, 81.70 L243.94, 81.20 L243.65, 80.70 L243.36, 80.20 L243.05, 79.70 L242.74, 79.20 L242.42, 78.70 L242.09, 78.20 L241.75, 77.69 L241.41, 77.19 L241.06, 76.69 L240.70, 76.19 L240.33, 75.69 L239.96, 75.19 L239.58, 74.69 L239.19, 74.19 L238.79, 73.68 L238.39, 73.18 L237.97, 72.68 L237.55, 72.18 L237.13, 71.68 L236.69, 71.18 L236.25, 70.68 L235.80, 70.18 L235.34, 69.67 L234.87, 69.17 L234.40, 68.67 L233.92, 68.17 L233.43, 67.67 L232.93, 67.17 L232.43, 66.67 L231.92, 66.17 L231.40, 65.66 L230.87, 65.16 L230.34, 64.66 L229.80, 64.16 L229.25, 63.66 L228.69, 63.16 L228.12, 62.66 L227.55, 62.16 L226.97, 61.65 L226.38, 61.15 L225.79, 60.65 L225.18, 60.15 L224.57, 59.65 L223.95, 59.15 L223.33, 58.65 L222.69, 58.15 L222.05, 57.64 L221.40, 57.14 L220.75, 56.64 L220.08, 56.14 L219.41, 55.64 L218.73, 55.14 L218.04, 54.64 L217.35, 54.14 L216.65, 53.63 L215.94, 53.13 L215.22, 52.63 L214.49, 52.13 L213.76, 51.63 L213.02, 51.13 L212.27, 50.63 L211.52, 50.13 L210.75, 49.62 L209.98, 49.12 L209.20, 48.62 L208.42, 48.12 L207.62, 47.62 L206.82, 47.12 L206.01, 46.62 L205.19, 46.12 L204.37, 45.61 L203.54, 45.11 L202.70, 44.61 L201.85, 44.11 L200.99, 43.61 L200.13, 43.11 L199.26, 42.61 L198.38, 42.11 L197.50, 41.60 L196.60, 41.10 L195.70, 40.60 L194.79, 40.10 L193.88, 39.60 L192.95, 39.10 L192.02, 38.60 L191.08, 38.10 L190.14, 37.59 L189.18, 37.09 L188.22, 36.59 L187.25, 36.09 L186.27, 35.59 L185.29, 35.09 L184.30, 34.59 L183.30, 34.09 L182.29, 33.58 L181.27, 33.08 L180.25, 32.58 L179.22, 32.08 L178.18, 31.58 L177.13, 31.08 L176.08, 30.58 L175.02, 30.08 L173.95, 29.57 L172.87, 29.07 L171.79, 28.57 L170.70, 28.07 L169.60, 27.57 L168.49, 27.07 L167.38, 26.57 L166.25, 26.07 L165.12, 25.56 L163.99, 25.06 L162.84, 24.56 L161.69, 24.06 L160.53, 23.56 L159.36, 23.06 L158.18, 22.56 L157.00, 22.06 L155.81, 21.55 L154.61, 21.05 L153.40, 20.55 L152.19, 20.05 L150.97, 19.55 L149.74, 19.05 L148.50, 18.55 L147.26, 18.05 L146.00, 17.54 L144.74, 17.04 L143.48, 16.54 L142.20, 16.04 L140.92, 15.54 L139.63, 15.04 L138.33, 14.54 L137.02, 14.04 L135.71, 13.53 L134.39, 13.03 L133.06, 12.53 L131.73, 12.03 L130.38, 11.53 L129.03, 11.03 L127.67, 10.53 L126.30, 10.03 L124.93, 9.52 L123.55, 9.02 L122.16, 8.52 L120.76, 8.02 L119.36, 7.52 L117.94, 7.02 L116.52, 6.52 L115.10, 6.02 L113.66, 5.51 L112.22, 5.01 L110.77, 4.51 L109.31, 4.01 L107.84, 3.51 L106.37, 3.01 L104.89, 2.51 L103.40, 2.01 L101.90, 1.50 L100.40, 1.00 L98.89, 0.50 L97.37, 0.00" style="stroke-width: 2; stroke: rgb(126, 211, 33); stroke-opacity: 1;"/><path d=" M0.00,-200.00 L0.50,-200.00 L1.00,-200.00 L1.50,-200.00 L2.00,-200.00 L2.50,-200.00 L3.00,-200.00 L3.50,-200.00 L4.00,-200.00 L4.51,-200.00 L5.01,-200.00 L5.51,-200.00 L6.01,-200.00 L6.51,-200.00 L7.01,-200.00 L7.51,-200.00 L8.01,-200.00 L8.51,-200.00 L9.01,-200.00 L9.51,-200.00 L10.01,-200.00 L10.51,-200.00 L11.01,-200.00 L11.51,-200.00 L12.01,-200.00 L12.51,-200.00 L13.02,-200.00 L13.52,-200.00 L14.02,-200.00 L14.52,-200.00 L15.02,-200.00 L15.52,-200.00 L16.02,-200.00 L16.52,-200.00 L17.02,-200.00 L17.52,-200.00 L18.02,-200.00 L18.52,-200.00 L19.02,-200.00 L19.52,-200.00 L20.02,-200.00 L20.52,-200.00 L21.02,-200.00 L21.53,-200.00 L22.03,-200.00 L22.53,-200.00 L23.03,-200.00 L23.53,-200.00 L24.03,-200.00 L24.53,-200.00 L25.03,-200.00 L25.53,-200.00 L26.03,-200.00 L26.53,-200.00 L27.03,-200.00 L27.53,-200.00 L28.03,-200.00 L28.53,-200.00 L29.03,-200.00 L29.53,-200.00 L30.03,-200.00 L30.54,-200.00 L31.04,-200.00 L31.54,-200.00 L32.04,-200.00 L32.54,-200.00 L33.04,-200.00 L33.54,-200.00 L34.04,-200.00 L34.54,-200.00 L35.04,-200.00 L35.54,-200.00 L36.04,-200.00 L36.54,-200.00 L37.04,-200.00 L37.54,-200.00 L38.04,-200.00 L38.54,-200.00 L39.05,-200.00 L39.55,-200.00 L40.05,-200.00 L40.55,-200.00 L41.05,-200.00 L41.55,-200.00 L42.05,-200.00 L42.55,-200.00 L43.05,-200.00 L43.55,-200.00 L44.05,-200.00 L44.55,-200.00 L45.05,-200.00 L45.55,-200.00 L46.05,-200.00 L46.55,-200.00 L47.05,-200.00 L47.56,-200.00 L48.06,-200.00 L48.56,-200.00 L49.06,-200.00 L49.56,-200.00 L50.06,-200.00 L50.56,-200.00 L51.06,-200.00 L51.56,-200.00 L52.06,-200.00 L52.56,-200.00 L53.06,-200.00 L53.56,-200.00 L54.06,-200.00 L54.56,-200.00 L55.06,-200.00 L55.56,-200.00 L56.07,-200.00 L56.57,-200.00 L57.07,-200.00 L57.57,-200.00 L58.07,-200.00 L58.57,-200.00 L59.07,-200.00 L59.57,-200.00 L60.07,-200.00 L60.57,-200.00 L61.07,-200.00 L61.57,-200.00 L62.07,-200.00 L62.57,-200.00 L63.07,-200.00 L63.57,-200.00 L64.07,-200.00 L64.58,-200.00 L65.08,-200.00 L65.58,-200.00 L66.08,-200.00 L66.58,-200.00 L67.08,-200.00 L67.58,-200.00 L68.08,-200.00 L68.58,-200.00 L69.08,-200.00 L69.58,-200.00 L70.08,-200.00 L70.58,-200.00 L71.08,-200.00 L71.58,-200.00 L72.08,-200.00 L72.58,-200.00 L73.08,-200.00 L73.59,-200.00 L74.09,-200.00 L74.59,-200.00 L75.09,-200.00 L75.59,-200.00 L76.09,-200.00 L76.59,-200.00 L77.09,-200.00 L77.59,-200.00 L78.09,-200.00 L78.59,-200.00 L79.09,-200.00 L79.59,-200.00 L80.09,-200.00 L80.59,-200.00 L81.09,-200.00 L81.59,-200.00 L82.10,-200.00 L82.60,-200.00 L83.10,-200.00 L83.60,-200.00 L84.10,-200.00 L84.60,-200.00 L85.10,-200.00 L85.60,-200.00 L86.10,-200.00 L86.60,-200.00 L87.10,-200.00 L87.60,-200.00 L88.10,-200.00 L88.60,-200.00 L89.10,-200.00 L89.60,-200.00 L90.10,-200.00 L90.61,-200.00 L91.11,-200.00 L91.61,-200.00 L92.11,-200.00 L92.61,-200.00 L93.11,-200.00 L93.61,-200.00 L94.11,-200.00 L94.61,-200.00 L95.11,-200.00 L95.61,-200.00 L96.11,-200.00 L96.61,-200.00 L97.11,-200.00 L97.61,-200.00 L98.11,-200.00 L98.61,-200.00 L99.12,-200.00 L99.62,-200.00 L100.12,-200.00 L100.62,-200.00 L101.12,-200.00 L101.62,-200.00 L102.12,-200.00 L102.62,-200.00 L103.12,-200.00 L103.62,-200.00 L104.12,-200.00 L104.62,-200.00 L105.12,-200.00 L105.62,-200.00 L106.12,-200.00 L106.62,-200.00 L107.12,-200.00 L107.63,-200.00 L108.13,-200.00 L108.63,-200.00 L109.13,-200.00 L109.63,-200.00 L110.13,-200.00 L110.63,-200.00 L111.13,-200.00 L111.63,-200.00 L112.13,-200.00 L112.63,-200.00 L113.13,-200.00 L113.63,-200.00 L114.13,-200.00 L114.63,-200.00 L115.13,-200.00 L115.63,-200.00 L116.14,-200.00 L116.64,-200.00 L117.14,-200.00 L117.64,-200.00 L118.14,-200.00 L118.64,-200.00 L119.14,-200.00 L119.64,-200.00 L120.14,-200.00 L120.64,-200.00 L121.14,-200.00 L121.64,-200.00 L122.14,-200.00 L122.64,-199.57 L123.14,-198.07 L123.64,-196.57 L124.14,-195.07 L124.64,-193.57 L125.15,-192.06 L125.65,-190.56 L126.15,-189.06 L126.65,-187.56 L127.15,-186.06 L127.65,-184.55 L128.15,-183.05 L128.65,-181.55 L129.15,-180.05 L129.65,-178.55 L130.15,-177.05 L130.65,-175.54 L131.15,-174.04 L131.65,-172.54 L132.15,-171.04 L132.65,-169.54 L133.15,-168.04 L133.66,-166.53 L134.16,-165.03 L134.66,-163.53 L135.16,-162.03 L135.66,-160.53 L136.16,-159.03 L136.66,-157.52 L137.16,-156.02 L137.66,-154.52 L138.16,-153.02 L138.66,-151.52 L139.16,-150.01 L139.66,-148.51 L140.16,-147.01 L140.66,-145.51 L141.16,-144.01 L141.66,-142.51 L142.17,-141.00 L142.67,-139.50 L143.17,-138.00 L143.67,-136.50 L144.17,-135.00 L144.67,-133.50 L145.17,-131.99 L145.67,-130.49 L146.17,-128.99 L146.67,-127.49 L147.17,-125.99 L147.67,-124.48 L148.17,-122.98 L148.67,-121.48 L149.17,-119.98 L149.67,-118.48 L150.17,-116.98 L150.68,-115.47 L151.18,-113.97 L151.68,-112.47 L152.18,-110.97 L152.68,-109.47 L153.18,-107.97 L153.68,-106.46 L154.18,-104.96 L154.68,-103.46 L155.18,-101.96 L155.68,-100.46 L156.18,-98.96 L156.68,-97.45 L157.18,-95.95 L157.68,-94.45 L158.18,-92.95 L158.68,-91.45 L159.19,-89.94 L159.69,-88.44 L160.19,-86.94 L160.69,-85.44 L161.19,-83.94 L161.69,-82.44 L162.19,-80.93 L162.69,-79.43 L163.19,-77.93 L163.69,-76.43 L164.19,-74.93 L164.69,-73.43 L165.19,-71.92 L165.69,-70.42 L166.19,-68.92 L166.69,-67.42 L167.19,-65.92 L167.69,-64.42 L168.20,-62.91 L168.70,-61.41 L169.20,-59.91 L169.70,-58.41 L170.20,-56.91 L170.70,-55.40 L171.20,-53.90 L171.70,-52.40 L172.20,-50.90 L172.70,-49.40 L173.20,-47.90 L173.70,-46.39 L174.20,-44.89 L174.70,-43.39 L175.20,-41.89 L175.70,-40.39 L176.20,-38.89 L176.71,-37.38 L177.21,-35.88 L177.71,-34.38 L178.21,-32.88 L178.71,-31.38 L179.21,-29.87 L179.71,-28.37 L180.21,-26.87 L180.71,-25.37 L181.21,-23.87 L181.71,-22.37 L182.21,-20.86 L182.71,-19.36 L183.21,-17.86 L183.71,-16.36 L184.21,-14.86 L184.71,-13.36 L185.22,-11.85 L185.72,-10.35 L186.22,-8.85 L186.72,-7.35 L187.22,-5.85 L187.72,-4.35 L188.22,-2.84 L188.72,-1.34 L189.22,0.16 L189.72,1.66 L190.22,3.16 L190.72,4.67 L191.22,6.17 L191.72,7.67 L192.22,9.17 L192.72,10.67 L193.22,12.17 L193.73,13.68 L194.23,15.18 L194.73,16.68 L195.23,18.18 L195.73,19.68 L196.23,21.18 L196.73,22.69 L197.23,24.19 L197.73,25.69 L198.23,27.19 L198.73,28.69 L199.23,30.19 L199.73,31.70 L200.23,33.20 L200.73,34.70 L201.23,36.20 L201.73,37.70 L202.24,39.21 L202.74,40.71 L203.24,42.21 L203.74,43.71 L204.24,45.21 L204.74,46.71 L205.24,48.22 L205.74,49.72 L206.24,51.22 L206.74,52.72 L207.24,54.22 L207.74,55.72 L208.24,57.23 L208.74,58.73 L209.24,60.23 L209.74,61.73 L210.24,63.23 L210.75,64.74 L211.25,66.24 L211.75,67.74 L212.25,69.24 L212.75,70.74 L213.25,72.24 L213.75,73.75 L214.25,75.25 L214.75,76.75 L215.25,78.25 L215.75,79.75 L216.25,81.25 L216.75,82.76 L217.25,84.26 L217.75,85.76 L218.25,87.26 L218.75,88.76 L219.25,90.26 L219.76,91.77 L220.26,93.27 L220.76,94.77 L221.26,96.27 L221.76,97.77 L222.26,99.28 L222.76,100.78 L223.26,102.28 L223.76,103.78 L224.26,105.28 L224.76,106.78 L225.26,108.29 L225.76,109.79 L226.26,111.29 L226.76,112.79 L227.26,114.29 L227.76,115.79 L228.27,117.30 L228.77,118.80 L229.27,120.30 L229.77,121.80 L230.27,123.30 L230.77,124.81 L231.27,126.31 L231.77,127.81 L232.27,129.31 L232.77,130.81 L233.27,132.31 L233.77,133.82 L234.27,135.32 L234.77,136.82 L235.27,138.32 L235.77,139.82 L236.27,141.32 L236.78,142.83 L237.28,144.33 L237.78,145.83 L238.28,147.33 L238.78,148.83 L239.28,150.33 L239.78,151.84 L240.28,153.34 L240.78,154.84 L241.28,156.34 L241.78,157.84 L242.28,159.35 L242.78,160.85 L243.28,162.35 L243.78,163.85 L244.28,165.35 L244.78,166.85 L245.29,168.36 L245.79,169.86 L246.29,171.36 L246.79,172.86 L247.29,174.36 L247.79,175.86 L248.29,177.37 L248.79,178.87 L249.29,180.37 L249.79,181.87 L250.29,183.37 L250.79,184.87 L251.29,186.38 L251.79,187.88 L252.29,189.38 L252.79,190.88 L253.29,192.38 L253.80,193.89 L254.30,195.39 L254.80,196.89 L255.30,198.39 L255.80,199.89 L256.30,201.39 L256.80,202.90 L257.30,204.40 L257.80,205.90 L258.30,207.40 L258.80,208.90 L259.30,210.40 L259.80,211.91 L260.30,213.41 L260.80,214.91 L261.30,216.41 L261.80,217.91 L262.31,219.42 L262.81,220.92 L263.31,222.42 L263.81,223.92 L264.31,225.42 L264.81,226.92 L265.31,228.43 L265.81,229.93 L266.31,231.43 L266.81,232.93 L267.31,234.43 L267.81,235.93 L268.31,237.44 L268.81,238.94 L269.31,240.44 L269.81,241.94 L270.31,243.44 L270.81,244.94 L271.32,246.45 L271.82,247.95 L272.32,249.45 L272.82,250.95 L273.32,252.45 L273.82,253.96 L274.32,255.46 L274.82,256.96 L275.32,258.46 L275.82,259.96 L276.32,261.46 L276.82,262.97 L277.32,264.47 L277.82,265.97 L278.32,267.47 L278.82,268.97 L279.32,270.47 L279.83,271.98 L280.33,273.48 L280.83,274.98 L281.33,276.48 L281.83,277.98 L282.33,279.48 L282.83,280.99 L283.33,282.49 L283.83,283.99 L284.33,285.49 L284.83,286.99 L285.33,288.50 L285.83,290.00 L286.33,291.50 L286.83,293.00 L287.33,294.50 L287.83,296.00 L288.34,297.51 L288.84,299.01 L289.34,300.51 L289.84,302.01 L290.34,303.51 L290.84,305.01 L291.34,306.52 L291.84,308.02 L292.34,309.52 L292.84,311.02 L293.34,312.52 L293.84,314.03 L294.34,315.53 L294.84,317.03 L295.34,318.53 L295.84,320.03 L296.34,321.53 L296.85,323.04 L297.35,324.54 L297.85,326.04 L298.35,327.54 L298.85,329.04 L299.35,330.54 L299.85,332.05 L300.35,333.55 L300.85,335.05 L301.35,336.55 L301.85,338.05 L302.35,339.55 L302.85,341.06 L303.35,342.56 L303.85,344.06 L304.35,345.56 L304.85,347.06 L305.36,348.57 L305.86,350.07 L306.36,351.57 L306.86,353.07 L307.36,354.57 L307.86,356.07 L308.36,357.58 L308.86,359.08 L309.36,360.58 L309.86,362.08 L310.36,363.58 L310.86,365.08 L311.36,366.59 L311.86,368.09 L312.36,369.59 L312.86,371.09 L313.36,372.59 L313.86,374.09 L314.37,375.60 L314.87,377.10 L315.37,378.60 L315.87,380.10 L316.37,381.60 L316.87,383.11 L317.37,384.61 L317.87,386.11 L318.37,387.61 L318.87,389.11 L319.37,390.61 L319.87,392.12 L320.37,393.62 L320.87,395.12 L321.37,396.62 L321.87,398.12 L322.37,399.62 L322.88,400.00 L323.38,400.00 L323.88,400.00 L324.38,400.00 L324.88,400.00 L325.38,400.00 L325.88,400.00 L326.38,400.00 L326.88,400.00 L327.38,400.00 L327.88,400.00 L328.38,400.00 L328.88,400.00 L329.38,400.00 L329.88,400.00 L330.38,400.00 L330.88,400.00 L331.39,400.00 L331.89,400.00 L332.39,400.00 L332.89,400.00 L333.39,400.00 L333.89,400.00 L334.39,400.00 L334.89,400.00 L335.39,400.00 L335.89,400.00 L336.39,400.00 L336.89,400.00 L337.39,400.00 L337.89,400.00 L338.39,400.00 L338.89,400.00 L339.39,400.00 L339.90,400.00 L340.40,400.00 L340.90,400.00 L341.40,400.00 L341.90,400.00 L342.40,400.00 L342.90,400.00 L343.40,400.00 L343.90,400.00 L344.40,400.00 L344.90,400.00 L345.40,400.00 L345.90,400.00 L346.40,400.00 L346.90,400.00 L347.40,400.00 L347.90,400.00 L348.41,400.00 L348.91,400.00 L349.41,400.00 L349.91,400.00 L350.41,400.00 L350.91,400.00 L351.41,400.00 L351.91,400.00 L352.41,400.00 L352.91,400.00 L353.41,400.00 L353.91,400.00 L354.41,400.00 L354.91,400.00 L355.41,400.00 L355.91,400.00 L356.41,400.00 L356.92,400.00 L357.42,400.00 L357.92,400.00 L358.42,400.00 L358.92,400.00 L359.42,400.00 L359.92,400.00 L360.42,400.00 L360.92,400.00 L361.42,400.00 L361.92,400.00 L362.42,400.00 L362.92,400.00 L363.42,400.00 L363.92,400.00 L364.42,400.00 L364.92,400.00 L365.42,400.00 L365.93,400.00 L366.43,400.00 L366.93,400.00 L367.43,400.00 L367.93,400.00 L368.43,400.00 L368.93,400.00 L369.43,400.00 L369.93,400.00 L370.43,400.00 L370.93,400.00 L371.43,400.00 L371.93,400.00 L372.43,400.00 L372.93,400.00 L373.43,400.00 L373.93,400.00 L374.44,400.00 L374.94,400.00 L375.44,400.00 L375.94,400.00 L376.44,400.00 L376.94,400.00 L377.44,400.00 L377.94,400.00 L378.44,400.00 L378.94,400.00 L379.44,400.00 L379.94,400.00 L380.44,400.00 L380.94,400.00 L381.44,400.00 L381.94,400.00 L382.44,400.00 L382.95,400.00 L383.45,400.00 L383.95,400.00 L384.45,400.00 L384.95,400.00 L385.45,400.00 L385.95,400.00 L386.45,400.00 L386.95,400.00 L387.45,400.00 L387.95,400.00 L388.45,400.00 L388.95,400.00 L389.45,400.00 L389.95,400.00 L390.45,400.00 L390.95,400.00 L391.46,400.00 L391.96,400.00 L392.46,400.00 L392.96,400.00 L393.46,400.00 L393.96,400.00 L394.46,400.00 L394.96,400.00 L395.46,400.00 L395.96,400.00 L396.46,400.00 L396.96,400.00 L397.46,400.00 L397.96,400.00 L398.46,400.00 L398.96,400.00 L399.46,400.00 L399.97,400.00 L400.47,400.00 L400.97,400.00 L401.47,400.00 L401.97,400.00 L402.47,400.00 L402.97,400.00 L403.47,400.00 L403.97,400.00 L404.47,400.00 L404.97,400.00 L405.47,400.00 L405.97,400.00 L406.47,400.00 L406.97,400.00 L407.47,400.00 L407.97,400.00 L408.47,400.00 L408.98,400.00 L409.48,400.00 L409.98,400.00 L410.48,400.00 L410.98,400.00 L411.48,400.00 L411.98,400.00 L412.48,400.00 L412.98,400.00 L413.48,400.00 L413.98,400.00 L414.48,400.00 L414.98,400.00 L415.48,400.00 L415.98,400.00 L416.48,400.00 L416.98,400.00 L417.49,400.00 L417.99,400.00 L418.49,400.00 L418.99,400.00 L419.49,400.00 L419.99,400.00 L420.49,400.00 L420.99,400.00 L421.49,400.00 L421.99,400.00 L422.49,400.00 L422.99,400.00 L423.49,400.00 L423.99,400.00 L424.49,400.00 L424.99,400.00 L425.49,400.00 L426.00,400.00 L426.50,400.00 L427.00,400.00 L427.50,400.00 L428.00,400.00 L428.50,400.00 L429.00,400.00 L429.50,400.00 L430.00,400.00" style="stroke-width: 2; stroke: rgb(74, 144, 226); stroke-opacity: 1;"/><g><rect x="253.625" y="126.25" width="6" height="6" style="stroke-width: 1; stroke: rgb(155, 155, 155); stroke-opacity: 1; fill: rgb(155, 155, 155); fill-opacity: 1;"/><rect x="224.375" y="67.75" width="6" height="6" style="stroke-width: 1; stroke: rgb(155, 155, 155); stroke-opacity: 1; fill: rgb(155, 155, 155); fill-opacity: 1;"/><rect x="195.125" y="155.5" width="6" height="6" style="stroke-width: 1; stroke: rgb(155, 155, 155); stroke-opacity: 1; fill: rgb(155, 155, 155); fill-opacity: 1;"/><rect x="177.57500000000002" y="9.25" width="6" height="6" style="stroke-width: 1; stroke: rgb(155, 155, 155); stroke-opacity: 1; fill: rgb(155, 155, 155); fill-opacity: 1;"/><rect x="260.9375" y="111.625" width="6" height="6" style="stroke-width: 1; stroke: rgb(155, 155, 155); stroke-opacity: 1; fill: rgb(155, 155, 155); fill-opacity: 1;"/><rect x="231.68749999999997" y="75.06249999999999" width="6" height="6" style="stroke-width: 1; stroke: rgb(155, 155, 155); stroke-opacity: 1; fill: rgb(155, 155, 155); fill-opacity: 1;"/><rect x="282.875" y="53.125" width="6" height="6" style="stroke-width: 1; stroke: rgb(155, 155, 155); stroke-opacity: 1; fill: rgb(155, 155, 155); fill-opacity: 1;"/><rect x="312.125" y="82.375" width="6" height="6" style="stroke-width: 1; stroke: rgb(155, 155, 155); stroke-opacity: 1; fill: rgb(155, 155, 155); fill-opacity: 1;"/><rect x="253.625" y="9.25" width="6" height="6" style="stroke-width: 1; stroke: rgb(155, 155, 155); stroke-opacity: 1; fill: rgb(155, 155, 155); fill-opacity: 1;"/><rect x="392.5625" y="53.125" width="6" height="6" style="stroke-width: 1; stroke: rgb(155, 155, 155); stroke-opacity: 1; fill: rgb(155, 155, 155); fill-opacity: 1;"/></g><g><g class="arrow-line"><path class="vector-plot real" stroke-dasharray="" d="  M388.25,26.88 L402.88,26.88" style="stroke: rgb(208, 2, 27); stroke-opacity: 1; stroke-width: 2;"/></g></g><g><circle cx="212.75" cy="70.75" r="2.5" style="stroke-width: 3; stroke: rgb(0, 0, 0); stroke-opacity: 1; fill: rgb(0, 0, 0); fill-opacity: 1;"/><circle cx="212.75" cy="129.25" r="2.5" style="stroke-width: 3; stroke: rgb(0, 0, 0); stroke-opacity: 1; fill: rgb(0, 0, 0); fill-opacity: 1;"/><circle cx="183.5" cy="56.125" r="2.5" style="stroke-width: 3; stroke: rgb(0, 0, 0); stroke-opacity: 1; fill: rgb(0, 0, 0); fill-opacity: 1;"/><circle cx="154.25" cy="12.25" r="2.5" style="stroke-width: 3; stroke: rgb(0, 0, 0); stroke-opacity: 1; fill: rgb(0, 0, 0); fill-opacity: 1;"/><circle cx="227.375" cy="82.45" r="2.5" style="stroke-width: 3; stroke: rgb(0, 0, 0); stroke-opacity: 1; fill: rgb(0, 0, 0); fill-opacity: 1;"/><circle cx="139.625" cy="56.125" r="2.5" style="stroke-width: 3; stroke: rgb(0, 0, 0); stroke-opacity: 1; fill: rgb(0, 0, 0); fill-opacity: 1;"/><circle cx="66.5" cy="85.375" r="2.5" style="stroke-width: 3; stroke: rgb(0, 0, 0); stroke-opacity: 1; fill: rgb(0, 0, 0); fill-opacity: 1;"/><circle cx="154.25" cy="129.25" r="2.5" style="stroke-width: 3; stroke: rgb(0, 0, 0); stroke-opacity: 1; fill: rgb(0, 0, 0); fill-opacity: 1;"/><circle cx="395.5625" cy="70.75" r="2.5" style="stroke-width: 3; stroke: rgb(0, 0, 0); stroke-opacity: 1; fill: rgb(0, 0, 0); fill-opacity: 1;"/></g><g><g class="arrow-line"><path class="vector-plot real" stroke-dasharray="" d="  M388.25,12.25 L402.88,12.25" style="stroke: rgb(126, 211, 33); stroke-opacity: 1; stroke-width: 2;"/></g></g><g><g class="arrow-line"><path class="vector-plot real" stroke-dasharray="" d="  M388.25,41.5 L402.88,41.5" style="stroke: rgb(74, 144, 226); stroke-opacity: 1; stroke-width: 2;"/></g></g></g></g><g class="test-xtl" style="font-family: &quot;Open Sans&quot;, verdana, arial, sans-serif;"><text text-anchor="middle" font-size="11" dominant-baseline="hanging" stroke="none" fill="rgb(50,50,50)" fill-opacity="1" x="48.74" y="107">-10</text><text text-anchor="middle" font-size="11" dominant-baseline="hanging" stroke="none" fill="rgb(50,50,50)" fill-opacity="1" x="121.86499999999998" y="107">-5</text><text text-anchor="middle" font-size="11" dominant-baseline="hanging" stroke="none" fill="rgb(50,50,50)" fill-opacity="1" x="271.24999999999994" y="107">5</text><text text-anchor="middle" font-size="11" dominant-baseline="hanging" stroke="none" fill="rgb(50,50,50)" fill-opacity="1" x="344.37499999999994" y="107">10</text><text text-anchor="middle" font-size="11" dominant-baseline="hanging" stroke="none" fill="rgb(50,50,50)" fill-opacity="1" x="417.49999999999994" y="107">15</text><text text-anchor="middle" font-size="11" dominant-baseline="hanging" stroke="none" fill="rgb(50,50,50)" fill-opacity="1" x="190.125" y="105">0</text></g><g class="test-ytl" style="font-family: &quot;Open Sans&quot;, verdana, arial, sans-serif;"><text text-anchor="end" dominant-baseline="middle" font-size="11" stroke="none" fill="rgb(50,50,50)" fill-opacity="1" x="190.125" y="173.125">-5</text><text text-anchor="end" dominant-baseline="middle" font-size="11" stroke="none" fill="rgb(50,50,50)" fill-opacity="1" x="190.125" y="26.87499999999997">5</text></g><rect class="real" x="1" y="1" width="428" height="198" style="fill: transparent; stroke: none;"/></g></g></g><g/></g><g/><g/><g/></svg>
        <svg xmlns="http://www.w3.org/2000/svg" xmlns:xlink="http://www.w3.org/1999/xlink" width="660" height="310" style="width:660px;height:310px;font-family:Asana-Math, Asana;background:transparent;"><g><g><g><text x="465.66668701171875" y="97.66668701171875" style="white-space:pre;stroke:none;fill:rgb(0,0,0);fill-opacity:1;font-size:15px;font-family:Arial, Helvetica, sans-serif;font-weight:400;font-style:normal;dominant-baseline:text-before-edge;text-decoration:none solid rgb(0, 0, 0);">LDA</text></g></g></g><g><g><g><text x="468.66668701171875" y="82.66668701171875" style="white-space:pre;stroke:none;fill:rgb(0,0,0);fill-opacity:1;font-size:15px;font-family:Arial, Helvetica, sans-serif;font-weight:400;font-style:normal;dominant-baseline:text-before-edge;text-decoration:none solid rgb(0, 0, 0);">NB</text></g></g></g><g><g><g><text x="461.66668701171875" y="67.66667175292969" style="white-space:pre;stroke:none;fill:rgb(0,0,0);fill-opacity:1;font-size:15px;font-family:Arial, Helvetica, sans-serif;font-weight:400;font-style:normal;dominant-baseline:text-before-edge;text-decoration:none solid rgb(0, 0, 0);">QDA</text></g></g></g><g><g><g><text x="451.66668701171875" y="111.66668701171875" style="white-space:pre;stroke:none;fill:rgb(0,0,0);fill-opacity:1;font-size:15px;font-family:Arial, Helvetica, sans-serif;font-weight:400;font-style:normal;dominant-baseline:text-before-edge;text-decoration:none solid rgb(0, 0, 0);">Class 1</text></g></g></g><g><g><g><text x="451.66668701171875" y="125.66668701171875" style="white-space:pre;stroke:none;fill:rgb(0,0,0);fill-opacity:1;font-size:15px;font-family:Arial, Helvetica, sans-serif;font-weight:400;font-style:normal;dominant-baseline:text-before-edge;text-decoration:none solid rgb(0, 0, 0);">Class 0</text></g></g></g></svg>
</svg>
