<svg xmlns="http://www.w3.org/2000/svg" xmlns:xlink="http://www.w3.org/1999/xlink" x="0" y="0" width="661.3333740234375" height="311.3333435058594" style="
        width:661.3333740234375px;
        height:311.3333435058594px;
        background: transparent;
        fill: none;
">
        
        
        <svg xmlns="http://www.w3.org/2000/svg" class="role-diagram-draw-area"><g class="shapes-region" style="stroke: black; fill: none;"><g class="composite-shape" data-amt="diagram/shapes/plot" transform="matrix(1,0,0,1,20,10)"><g><g><g class="test-xgi"><line x1="34.00000000000002" y1="0" x2="34.00000000000002" y2="270" fill="none" stroke="#c3c3c3" stroke-width="0.5"/><line x1="99.00000000000001" y1="0" x2="99.00000000000001" y2="270" fill="none" stroke="#c3c3c3" stroke-width="0.5"/><line x1="164" y1="0" x2="164" y2="270" fill="none" stroke="#c3c3c3" stroke-width="0.5"/><line x1="229.00000000000003" y1="0" x2="229.00000000000003" y2="270" fill="none" stroke="#c3c3c3" stroke-width="0.5"/><line x1="294" y1="0" x2="294" y2="270" fill="none" stroke="#c3c3c3" stroke-width="0.5"/><line x1="359.00000000000006" y1="0" x2="359.00000000000006" y2="270" fill="none" stroke="#c3c3c3" stroke-width="0.5"/><line x1="424" y1="0" x2="424" y2="270" fill="none" stroke="#c3c3c3" stroke-width="0.5"/><line x1="489" y1="0" x2="489" y2="270" fill="none" stroke="#c3c3c3" stroke-width="0.5"/><line x1="553.9999999999999" y1="0" x2="553.9999999999999" y2="270" fill="none" stroke="#c3c3c3" stroke-width="0.5"/><line x1="619" y1="0" x2="619" y2="270" fill="none" stroke="#c3c3c3" stroke-width="0.5"/></g><g class="test-ygi"><line x1="0" y1="265" x2="620" y2="265" fill="none" stroke="#c3c3c3" stroke-width="0.5"/><line x1="0" y1="200" x2="620" y2="200" fill="none" stroke="#c3c3c3" stroke-width="0.5"/><line x1="0" y1="135" x2="620" y2="135" fill="none" stroke="#c3c3c3" stroke-width="0.5"/><line x1="0" y1="70" x2="620" y2="70" fill="none" stroke="#c3c3c3" stroke-width="0.5"/><line x1="0" y1="5" x2="620" y2="5" fill="none" stroke="#c3c3c3" stroke-width="0.5"/></g></g><g><g class="test-xti" style="font-family: Asana-Math, Asana;"><line x1="0" y1="135" x2="616" y2="135" fill="none" stroke="rgb(50,50,50)" stroke-opacity="1" stroke-width="1"/><line x1="34.00000000000002" y1="131" x2="34.00000000000002" y2="139" fill="none" stroke="rgb(50,50,50)" stroke-opacity="1" stroke-width="1"/><line x1="99.00000000000001" y1="131" x2="99.00000000000001" y2="139" fill="none" stroke="rgb(50,50,50)" stroke-opacity="1" stroke-width="1"/><line x1="164" y1="131" x2="164" y2="139" fill="none" stroke="rgb(50,50,50)" stroke-opacity="1" stroke-width="1"/><line x1="229.00000000000003" y1="131" x2="229.00000000000003" y2="139" fill="none" stroke="rgb(50,50,50)" stroke-opacity="1" stroke-width="1"/><line x1="359.00000000000006" y1="131" x2="359.00000000000006" y2="139" fill="none" stroke="rgb(50,50,50)" stroke-opacity="1" stroke-width="1"/><line x1="424" y1="131" x2="424" y2="139" fill="none" stroke="rgb(50,50,50)" stroke-opacity="1" stroke-width="1"/><line x1="489" y1="131" x2="489" y2="139" fill="none" stroke="rgb(50,50,50)" stroke-opacity="1" stroke-width="1"/><line x1="553.9999999999999" y1="131" x2="553.9999999999999" y2="139" fill="none" stroke="rgb(50,50,50)" stroke-opacity="1" stroke-width="1"/><line x1="619" y1="131" x2="619" y2="139" fill="none" stroke="rgb(50,50,50)" stroke-opacity="1" stroke-width="1"/><path d="M611,131.4 L619,135 L611,138.6 Z" stroke="none" stroke-width="1" fill="rgb(50,50,50)" fill-opacity="1"/></g><g class="test-yti" style="font-family: Asana-Math, Asana;"><line x1="294" y1="4" x2="294" y2="270" fill="none" stroke="rgb(50,50,50)" stroke-opacity="1" stroke-width="1"/><line x1="290" y1="265" x2="298" y2="265" fill="none" stroke="rgb(50,50,50)" stroke-opacity="1" stroke-width="1"/><line x1="290" y1="200" x2="298" y2="200" fill="none" stroke="rgb(50,50,50)" stroke-opacity="1" stroke-width="1"/><line x1="290" y1="70" x2="298" y2="70" fill="none" stroke="rgb(50,50,50)" stroke-opacity="1" stroke-width="1"/><line x1="290" y1="5" x2="298" y2="5" fill="none" stroke="rgb(50,50,50)" stroke-opacity="1" stroke-width="1"/><path d="M290.4,9 L294,1 L297.6,9 Z" stroke="none" stroke-width="1" fill="rgb(50,50,50)" fill-opacity="1"/></g><g class="test-plot-expression"><defs><clipPath id="cp51vczi0m6"><rect x="1" y="1" width="618" height="268"/></clipPath></defs><g clip-path="url(#cp51vczi0m6)"><path d=" M0.00,540.00 L0.56,540.00 L1.13,540.00 L1.69,540.00 L2.26,540.00 L2.82,540.00 L3.38,540.00 L3.95,540.00 L4.51,540.00 L5.08,540.00 L5.64,540.00 L6.21,540.00 L6.77,540.00 L7.33,540.00 L7.90,540.00 L8.46,540.00 L9.03,540.00 L9.59,540.00 L10.15,540.00 L10.72,540.00 L11.28,540.00 L11.85,540.00 L12.41,540.00 L12.98,540.00 L13.54,540.00 L14.10,540.00 L14.67,540.00 L15.23,540.00 L15.80,540.00 L16.36,540.00 L16.92,540.00 L17.49,540.00 L18.05,540.00 L18.62,540.00 L19.18,540.00 L19.75,540.00 L20.31,540.00 L20.87,540.00 L21.44,540.00 L22.00,540.00 L22.57,540.00 L23.13,540.00 L23.69,540.00 L24.26,540.00 L24.82,540.00 L25.39,540.00 L25.95,540.00 L26.52,540.00 L27.08,540.00 L27.64,540.00 L28.21,540.00 L28.77,540.00 L29.34,540.00 L29.90,540.00 L30.46,540.00 L31.03,540.00 L31.59,540.00 L32.16,540.00 L32.72,540.00 L33.28,540.00 L33.85,540.00 L34.41,540.00 L34.98,540.00 L35.54,540.00 L36.11,540.00 L36.67,540.00 L37.23,540.00 L37.80,540.00 L38.36,540.00 L38.93,540.00 L39.49,540.00 L40.05,540.00 L40.62,540.00 L41.18,540.00 L41.75,540.00 L42.31,540.00 L42.88,540.00 L43.44,540.00 L44.00,540.00 L44.57,540.00 L45.13,540.00 L45.70,540.00 L46.26,540.00 L46.82,540.00 L47.39,540.00 L47.95,540.00 L48.52,540.00 L49.08,540.00 L49.65,540.00 L50.21,540.00 L50.77,540.00 L51.34,540.00 L51.90,540.00 L52.47,540.00 L53.03,540.00 L53.59,540.00 L54.16,540.00 L54.72,540.00 L55.29,540.00 L55.85,540.00 L56.41,540.00 L56.98,540.00 L57.54,540.00 L58.11,540.00 L58.67,540.00 L59.24,540.00 L59.80,540.00 L60.36,540.00 L60.93,540.00 L61.49,540.00 L62.06,540.00 L62.62,540.00 L63.18,540.00 L63.75,540.00 L64.31,540.00 L64.88,540.00 L65.44,540.00 L66.01,540.00 L66.57,540.00 L67.13,540.00 L67.70,540.00 L68.26,540.00 L68.83,540.00 L69.39,540.00 L69.95,540.00 L70.52,540.00 L71.08,540.00 L71.65,540.00 L72.21,540.00 L72.78,540.00 L73.34,540.00 L73.90,540.00 L74.47,540.00 L75.03,540.00 L75.60,540.00 L76.16,540.00 L76.72,540.00 L77.29,540.00 L77.85,539.33 L78.42,535.04 L78.98,530.77 L79.55,526.53 L80.11,522.32 L80.67,518.13 L81.24,513.96 L81.80,509.82 L82.37,505.70 L82.93,501.61 L83.49,497.54 L84.06,493.49 L84.62,489.48 L85.19,485.48 L85.75,481.51 L86.31,477.56 L86.88,473.64 L87.44,469.74 L88.01,465.86 L88.57,462.01 L89.14,458.18 L89.70,454.37 L90.26,450.59 L90.83,446.84 L91.39,443.10 L91.96,439.39 L92.52,435.70 L93.08,432.04 L93.65,428.40 L94.21,424.78 L94.78,421.18 L95.34,417.61 L95.91,414.06 L96.47,410.54 L97.03,407.03 L97.60,403.55 L98.16,400.09 L98.73,396.66 L99.29,393.25 L99.85,389.86 L100.42,386.49 L100.98,383.14 L101.55,379.82 L102.11,376.52 L102.68,373.24 L103.24,369.98 L103.80,366.75 L104.37,363.54 L104.93,360.35 L105.50,357.18 L106.06,354.03 L106.62,350.90 L107.19,347.80 L107.75,344.72 L108.32,341.66 L108.88,338.62 L109.44,335.60 L110.01,332.60 L110.57,329.63 L111.14,326.68 L111.70,323.74 L112.27,320.83 L112.83,317.94 L113.39,315.07 L113.96,312.22 L114.52,309.39 L115.09,306.59 L115.65,303.80 L116.21,301.04 L116.78,298.29 L117.34,295.57 L117.91,292.86 L118.47,290.18 L119.04,287.51 L119.60,284.87 L120.16,282.25 L120.73,279.64 L121.29,277.06 L121.86,274.50 L122.42,271.96 L122.98,269.43 L123.55,266.93 L124.11,264.45 L124.68,261.98 L125.24,259.54 L125.81,257.11 L126.37,254.71 L126.93,252.32 L127.50,249.96 L128.06,247.61 L128.63,245.28 L129.19,242.97 L129.75,240.68 L130.32,238.41 L130.88,236.16 L131.45,233.93 L132.01,231.71 L132.58,229.52 L133.14,227.34 L133.70,225.19 L134.27,223.05 L134.83,220.93 L135.40,218.82 L135.96,216.74 L136.52,214.68 L137.09,212.63 L137.65,210.60 L138.22,208.59 L138.78,206.60 L139.34,204.62 L139.91,202.67 L140.47,200.73 L141.04,198.81 L141.60,196.91 L142.17,195.02 L142.73,193.15 L143.29,191.30 L143.86,189.47 L144.42,187.66 L144.99,185.86 L145.55,184.08 L146.11,182.31 L146.68,180.57 L147.24,178.84 L147.81,177.13 L148.37,175.43 L148.94,173.76 L149.50,172.10 L150.06,170.45 L150.63,168.82 L151.19,167.21 L151.76,165.62 L152.32,164.04 L152.88,162.48 L153.45,160.94 L154.01,159.41 L154.58,157.90 L155.14,156.40 L155.71,154.92 L156.27,153.46 L156.83,152.01 L157.40,150.58 L157.96,149.17 L158.53,147.77 L159.09,146.38 L159.65,145.02 L160.22,143.66 L160.78,142.33 L161.35,141.01 L161.91,139.70 L162.47,138.41 L163.04,137.14 L163.60,135.88 L164.17,134.63 L164.73,133.40 L165.30,132.19 L165.86,130.99 L166.42,129.81 L166.99,128.64 L167.55,127.48 L168.12,126.34 L168.68,125.22 L169.24,124.11 L169.81,123.01 L170.37,121.93 L170.94,120.87 L171.50,119.81 L172.07,118.78 L172.63,117.75 L173.19,116.74 L173.76,115.75 L174.32,114.77 L174.89,113.80 L175.45,112.85 L176.01,111.91 L176.58,110.98 L177.14,110.07 L177.71,109.17 L178.27,108.29 L178.84,107.42 L179.40,106.56 L179.96,105.72 L180.53,104.89 L181.09,104.07 L181.66,103.26 L182.22,102.47 L182.78,101.70 L183.35,100.93 L183.91,100.18 L184.48,99.44 L185.04,98.72 L185.61,98.00 L186.17,97.30 L186.73,96.62 L187.30,95.94 L187.86,95.28 L188.43,94.63 L188.99,93.99 L189.55,93.37 L190.12,92.75 L190.68,92.15 L191.25,91.56 L191.81,90.99 L192.37,90.42 L192.94,89.87 L193.50,89.33 L194.07,88.80 L194.63,88.28 L195.20,87.78 L195.76,87.29 L196.32,86.80 L196.89,86.33 L197.45,85.88 L198.02,85.43 L198.58,84.99 L199.14,84.57 L199.71,84.15 L200.27,83.75 L200.84,83.36 L201.40,82.98 L201.97,82.61 L202.53,82.25 L203.09,81.90 L203.66,81.57 L204.22,81.24 L204.79,80.92 L205.35,80.62 L205.91,80.32 L206.48,80.04 L207.04,79.77 L207.61,79.50 L208.17,79.25 L208.74,79.01 L209.30,78.77 L209.86,78.55 L210.43,78.34 L210.99,78.14 L211.56,77.94 L212.12,77.76 L212.68,77.59 L213.25,77.42 L213.81,77.27 L214.38,77.12 L214.94,76.99 L215.51,76.86 L216.07,76.75 L216.63,76.64 L217.20,76.54 L217.76,76.45 L218.33,76.37 L218.89,76.30 L219.45,76.24 L220.02,76.19 L220.58,76.14 L221.15,76.11 L221.71,76.08 L222.27,76.07 L222.84,76.06 L223.40,76.06 L223.97,76.06 L224.53,76.08 L225.10,76.11 L225.66,76.14 L226.22,76.18 L226.79,76.23 L227.35,76.29 L227.92,76.35 L228.48,76.43 L229.04,76.51 L229.61,76.60 L230.17,76.69 L230.74,76.80 L231.30,76.91 L231.87,77.03 L232.43,77.16 L232.99,77.29 L233.56,77.43 L234.12,77.58 L234.69,77.74 L235.25,77.90 L235.81,78.07 L236.38,78.25 L236.94,78.44 L237.51,78.63 L238.07,78.83 L238.64,79.03 L239.20,79.25 L239.76,79.47 L240.33,79.69 L240.89,79.92 L241.46,80.16 L242.02,80.41 L242.58,80.66 L243.15,80.92 L243.71,81.18 L244.28,81.45 L244.84,81.73 L245.40,82.01 L245.97,82.30 L246.53,82.59 L247.10,82.89 L247.66,83.20 L248.23,83.51 L248.79,83.83 L249.35,84.15 L249.92,84.48 L250.48,84.82 L251.05,85.15 L251.61,85.50 L252.17,85.85 L252.74,86.21 L253.30,86.57 L253.87,86.93 L254.43,87.30 L255.00,87.68 L255.56,88.06 L256.12,88.44 L256.69,88.83 L257.25,89.23 L257.82,89.63 L258.38,90.03 L258.94,90.44 L259.51,90.85 L260.07,91.27 L260.64,91.69 L261.20,92.12 L261.77,92.55 L262.33,92.98 L262.89,93.42 L263.46,93.86 L264.02,94.31 L264.59,94.76 L265.15,95.21 L265.71,95.67 L266.28,96.13 L266.84,96.60 L267.41,97.06 L267.97,97.54 L268.54,98.01 L269.10,98.49 L269.66,98.97 L270.23,99.46 L270.79,99.95 L271.36,100.44 L271.92,100.93 L272.48,101.43 L273.05,101.93 L273.61,102.43 L274.18,102.94 L274.74,103.45 L275.30,103.96 L275.87,104.47 L276.43,104.99 L277.00,105.51 L277.56,106.03 L278.13,106.56 L278.69,107.08 L279.25,107.61 L279.82,108.14 L280.38,108.67 L280.95,109.21 L281.51,109.75 L282.07,110.28 L282.64,110.82 L283.20,111.37 L283.77,111.91 L284.33,112.46 L284.90,113.00 L285.46,113.55 L286.02,114.10 L286.59,114.65 L287.15,115.21 L287.72,115.76 L288.28,116.32 L288.84,116.87 L289.41,117.43 L289.97,117.99 L290.54,118.55 L291.10,119.11 L291.67,119.67 L292.23,120.23 L292.79,120.79 L293.36,121.36 L293.92,121.92 L294.49,122.49 L295.05,123.05 L295.61,123.62 L296.18,124.18 L296.74,124.75 L297.31,125.31 L297.87,125.88 L298.43,126.44 L299.00,127.01 L299.56,127.58 L300.13,128.14 L300.69,128.71 L301.26,129.27 L301.82,129.84 L302.38,130.40 L302.95,130.97 L303.51,131.53 L304.08,132.09 L304.64,132.66 L305.20,133.22 L305.77,133.78 L306.33,134.34 L306.90,134.90 L307.46,135.46 L308.03,136.01 L308.59,136.57 L309.15,137.12 L309.72,137.68 L310.28,138.23 L310.85,138.78 L311.41,139.33 L311.97,139.88 L312.54,140.43 L313.10,140.97 L313.67,141.51 L314.23,142.06 L314.80,142.60 L315.36,143.13 L315.92,143.67 L316.49,144.20 L317.05,144.74 L317.62,145.27 L318.18,145.79 L318.74,146.32 L319.31,146.84 L319.87,147.36 L320.44,147.88 L321.00,148.40 L321.57,148.91 L322.13,149.42 L322.69,149.93 L323.26,150.43 L323.82,150.94 L324.39,151.44 L324.95,151.93 L325.51,152.43 L326.08,152.92 L326.64,153.40 L327.21,153.89 L327.77,154.37 L328.33,154.85 L328.90,155.32 L329.46,155.79 L330.03,156.26 L330.59,156.72 L331.16,157.18 L331.72,157.64 L332.28,158.09 L332.85,158.54 L333.41,158.98 L333.98,159.43 L334.54,159.86 L335.10,160.29 L335.67,160.72 L336.23,161.15 L336.80,161.57 L337.36,161.98 L337.93,162.39 L338.49,162.80 L339.05,163.20 L339.62,163.60 L340.18,163.99 L340.75,164.38 L341.31,164.77 L341.87,165.14 L342.44,165.52 L343.00,165.89 L343.57,166.25 L344.13,166.61 L344.70,166.96 L345.26,167.31 L345.82,167.65 L346.39,167.99 L346.95,168.32 L347.52,168.65 L348.08,168.97 L348.64,169.29 L349.21,169.60 L349.77,169.90 L350.34,170.20 L350.90,170.49 L351.46,170.78 L352.03,171.06 L352.59,171.33 L353.16,171.60 L353.72,171.86 L354.29,172.12 L354.85,172.37 L355.41,172.61 L355.98,172.85 L356.54,173.08 L357.11,173.30 L357.67,173.52 L358.23,173.73 L358.80,173.93 L359.36,174.13 L359.93,174.32 L360.49,174.50 L361.06,174.67 L361.62,174.84 L362.18,175.00 L362.75,175.16 L363.31,175.30 L363.88,175.44 L364.44,175.58 L365.00,175.70 L365.57,175.82 L366.13,175.93 L366.70,176.03 L367.26,176.12 L367.83,176.21 L368.39,176.29 L368.95,176.36 L369.52,176.42 L370.08,176.48 L370.65,176.52 L371.21,176.56 L371.77,176.59 L372.34,176.61 L372.90,176.63 L373.47,176.63 L374.03,176.63 L374.60,176.61 L375.16,176.59 L375.72,176.56 L376.29,176.53 L376.85,176.48 L377.42,176.42 L377.98,176.36 L378.54,176.29 L379.11,176.20 L379.67,176.11 L380.24,176.01 L380.80,175.90 L381.36,175.78 L381.93,175.65 L382.49,175.51 L383.06,175.36 L383.62,175.21 L384.19,175.04 L384.75,174.86 L385.31,174.67 L385.88,174.48 L386.44,174.27 L387.01,174.06 L387.57,173.83 L388.13,173.59 L388.70,173.35 L389.26,173.09 L389.83,172.82 L390.39,172.54 L390.96,172.26 L391.52,171.96 L392.08,171.65 L392.65,171.33 L393.21,171.00 L393.78,170.66 L394.34,170.31 L394.90,169.94 L395.47,169.57 L396.03,169.19 L396.60,168.79 L397.16,168.39 L397.73,167.97 L398.29,167.54 L398.85,167.10 L399.42,166.65 L399.98,166.18 L400.55,165.71 L401.11,165.22 L401.67,164.73 L402.24,164.22 L402.80,163.70 L403.37,163.16 L403.93,162.62 L404.49,162.06 L405.06,161.49 L405.62,160.91 L406.19,160.32 L406.75,159.71 L407.32,159.10 L407.88,158.47 L408.44,157.83 L409.01,157.17 L409.57,156.50 L410.14,155.82 L410.70,155.13 L411.26,154.43 L411.83,153.71 L412.39,152.98 L412.96,152.24 L413.52,151.48 L414.09,150.71 L414.65,149.93 L415.21,149.13 L415.78,148.32 L416.34,147.50 L416.91,146.67 L417.47,145.82 L418.03,144.96 L418.60,144.08 L419.16,143.19 L419.73,142.29 L420.29,141.37 L420.86,140.44 L421.42,139.50 L421.98,138.54 L422.55,137.57 L423.11,136.58 L423.68,135.58 L424.24,134.57 L424.80,133.54 L425.37,132.49 L425.93,131.44 L426.50,130.37 L427.06,129.28 L427.63,128.18 L428.19,127.06 L428.75,125.93 L429.32,124.79 L429.88,123.63 L430.45,122.45 L431.01,121.27 L431.57,120.06 L432.14,118.84 L432.70,117.61 L433.27,116.36 L433.83,115.09 L434.39,113.81 L434.96,112.52 L435.52,111.21 L436.09,109.88 L436.65,108.54 L437.22,107.18 L437.78,105.81 L438.34,104.42 L438.91,103.01 L439.47,101.59 L440.04,100.15 L440.60,98.70 L441.16,97.23 L441.73,95.75 L442.29,94.25 L442.86,92.73 L443.42,91.19 L443.99,89.64 L444.55,88.08 L445.11,86.49 L445.68,84.89 L446.24,83.28 L446.81,81.64 L447.37,79.99 L447.93,78.33 L448.50,76.64 L449.06,74.94 L449.63,73.23 L450.19,71.49 L450.76,69.74 L451.32,67.97 L451.88,66.18 L452.45,64.38 L453.01,62.56 L453.58,60.72 L454.14,58.86 L454.70,56.99 L455.27,55.10 L455.83,53.19 L456.40,51.26 L456.96,49.32 L457.53,47.35 L458.09,45.37 L458.65,43.37 L459.22,41.36 L459.78,39.32 L460.35,37.27 L460.91,35.20 L461.47,33.11 L462.04,31.00 L462.60,28.87 L463.17,26.72 L463.73,24.56 L464.29,22.38 L464.86,20.18 L465.42,17.96 L465.99,15.72 L466.55,13.46 L467.12,11.18 L467.68,8.88 L468.24,6.57 L468.81,4.23 L469.37,1.88 L469.94,-0.49 L470.50,-2.89 L471.06,-5.30 L471.63,-7.73 L472.19,-10.18 L472.76,-12.65 L473.32,-15.14 L473.89,-17.65 L474.45,-20.18 L475.01,-22.73 L475.58,-25.30 L476.14,-27.89 L476.71,-30.50 L477.27,-33.13 L477.83,-35.78 L478.40,-38.46 L478.96,-41.15 L479.53,-43.86 L480.09,-46.59 L480.66,-49.34 L481.22,-52.12 L481.78,-54.91 L482.35,-57.72 L482.91,-60.56 L483.48,-63.42 L484.04,-66.29 L484.60,-69.19 L485.17,-72.11 L485.73,-75.05 L486.30,-78.01 L486.86,-81.00 L487.42,-84.00 L487.99,-87.03 L488.55,-90.07 L489.12,-93.14 L489.68,-96.23 L490.25,-99.34 L490.81,-102.47 L491.37,-105.63 L491.94,-108.81 L492.50,-112.01 L493.07,-115.23 L493.63,-118.47 L494.19,-121.73 L494.76,-125.02 L495.32,-128.33 L495.89,-131.66 L496.45,-135.01 L497.02,-138.39 L497.58,-141.79 L498.14,-145.21 L498.71,-148.65 L499.27,-152.12 L499.84,-155.61 L500.40,-159.12 L500.96,-162.65 L501.53,-166.21 L502.09,-169.79 L502.66,-173.39 L503.22,-177.02 L503.79,-180.67 L504.35,-184.34 L504.91,-188.04 L505.48,-191.76 L506.04,-195.50 L506.61,-199.27 L507.17,-203.06 L507.73,-206.87 L508.30,-210.71 L508.86,-214.57 L509.43,-218.45 L509.99,-222.36 L510.56,-226.29 L511.12,-230.25 L511.68,-234.23 L512.25,-238.23 L512.81,-242.26 L513.38,-246.32 L513.94,-250.39 L514.50,-254.49 L515.07,-258.62 L515.63,-262.77 L516.20,-266.95 L516.76,-270.00 L517.32,-270.00 L517.89,-270.00 L518.45,-270.00 L519.02,-270.00 L519.58,-270.00 L520.15,-270.00 L520.71,-270.00 L521.27,-270.00 L521.84,-270.00 L522.40,-270.00 L522.97,-270.00 L523.53,-270.00 L524.09,-270.00 L524.66,-270.00 L525.22,-270.00 L525.79,-270.00 L526.35,-270.00 L526.92,-270.00 L527.48,-270.00 L528.04,-270.00 L528.61,-270.00 L529.17,-270.00 L529.74,-270.00 L530.30,-270.00 L530.86,-270.00 L531.43,-270.00 L531.99,-270.00 L532.56,-270.00 L533.12,-270.00 L533.69,-270.00 L534.25,-270.00 L534.81,-270.00 L535.38,-270.00 L535.94,-270.00 L536.51,-270.00 L537.07,-270.00 L537.63,-270.00 L538.20,-270.00 L538.76,-270.00 L539.33,-270.00 L539.89,-270.00 L540.45,-270.00 L541.02,-270.00 L541.58,-270.00 L542.15,-270.00 L542.71,-270.00 L543.28,-270.00 L543.84,-270.00 L544.40,-270.00 L544.97,-270.00 L545.53,-270.00 L546.10,-270.00 L546.66,-270.00 L547.22,-270.00 L547.79,-270.00 L548.35,-270.00 L548.92,-270.00 L549.48,-270.00 L550.05,-270.00 L550.61,-270.00 L551.17,-270.00 L551.74,-270.00 L552.30,-270.00 L552.87,-270.00 L553.43,-270.00 L553.99,-270.00 L554.56,-270.00 L555.12,-270.00 L555.69,-270.00 L556.25,-270.00 L556.82,-270.00 L557.38,-270.00 L557.94,-270.00 L558.51,-270.00 L559.07,-270.00 L559.64,-270.00 L560.20,-270.00 L560.76,-270.00 L561.33,-270.00 L561.89,-270.00 L562.46,-270.00 L563.02,-270.00 L563.59,-270.00 L564.15,-270.00 L564.71,-270.00 L565.28,-270.00 L565.84,-270.00 L566.41,-270.00 L566.97,-270.00 L567.53,-270.00 L568.10,-270.00 L568.66,-270.00 L569.23,-270.00 L569.79,-270.00 L570.35,-270.00 L570.92,-270.00 L571.48,-270.00 L572.05,-270.00 L572.61,-270.00 L573.18,-270.00 L573.74,-270.00 L574.30,-270.00 L574.87,-270.00 L575.43,-270.00 L576.00,-270.00 L576.56,-270.00 L577.12,-270.00 L577.69,-270.00 L578.25,-270.00 L578.82,-270.00 L579.38,-270.00 L579.95,-270.00 L580.51,-270.00 L581.07,-270.00 L581.64,-270.00 L582.20,-270.00 L582.77,-270.00 L583.33,-270.00 L583.89,-270.00 L584.46,-270.00 L585.02,-270.00 L585.59,-270.00 L586.15,-270.00 L586.72,-270.00 L587.28,-270.00 L587.84,-270.00 L588.41,-270.00 L588.97,-270.00 L589.54,-270.00 L590.10,-270.00 L590.66,-270.00 L591.23,-270.00 L591.79,-270.00 L592.36,-270.00 L592.92,-270.00 L593.48,-270.00 L594.05,-270.00 L594.61,-270.00 L595.18,-270.00 L595.74,-270.00 L596.31,-270.00 L596.87,-270.00 L597.43,-270.00 L598.00,-270.00 L598.56,-270.00 L599.13,-270.00 L599.69,-270.00 L600.25,-270.00 L600.82,-270.00 L601.38,-270.00 L601.95,-270.00 L602.51,-270.00 L603.08,-270.00 L603.64,-270.00 L604.20,-270.00 L604.77,-270.00 L605.33,-270.00 L605.90,-270.00 L606.46,-270.00 L607.02,-270.00 L607.59,-270.00 L608.15,-270.00 L608.72,-270.00 L609.28,-270.00 L609.85,-270.00 L610.41,-270.00 L610.97,-270.00 L611.54,-270.00 L612.10,-270.00 L612.67,-270.00 L613.23,-270.00 L613.79,-270.00 L614.36,-270.00 L614.92,-270.00 L615.49,-270.00 L616.05,-270.00 L616.62,-270.00 L617.18,-270.00 L617.74,-270.00 L618.31,-270.00 L618.87,-270.00 L619.44,-270.00 L620.00,-270.00" style="stroke-width: 8; stroke: rgb(155, 155, 155); stroke-opacity: 1;"/><path d=" M0.00,540.00 L0.56,540.00 L1.13,540.00 L1.69,540.00 L2.26,540.00 L2.82,540.00 L3.38,540.00 L3.95,540.00 L4.51,540.00 L5.08,540.00 L5.64,540.00 L6.21,540.00 L6.77,540.00 L7.33,540.00 L7.90,540.00 L8.46,540.00 L9.03,540.00 L9.59,540.00 L10.15,540.00 L10.72,540.00 L11.28,540.00 L11.85,540.00 L12.41,540.00 L12.98,540.00 L13.54,540.00 L14.10,540.00 L14.67,540.00 L15.23,540.00 L15.80,540.00 L16.36,540.00 L16.92,540.00 L17.49,540.00 L18.05,540.00 L18.62,540.00 L19.18,540.00 L19.75,540.00 L20.31,540.00 L20.87,540.00 L21.44,540.00 L22.00,540.00 L22.57,540.00 L23.13,540.00 L23.69,540.00 L24.26,540.00 L24.82,540.00 L25.39,540.00 L25.95,540.00 L26.52,540.00 L27.08,540.00 L27.64,540.00 L28.21,540.00 L28.77,540.00 L29.34,540.00 L29.90,540.00 L30.46,540.00 L31.03,540.00 L31.59,540.00 L32.16,540.00 L32.72,540.00 L33.28,540.00 L33.85,540.00 L34.41,540.00 L34.98,540.00 L35.54,540.00 L36.11,540.00 L36.67,540.00 L37.23,540.00 L37.80,540.00 L38.36,540.00 L38.93,540.00 L39.49,540.00 L40.05,540.00 L40.62,540.00 L41.18,540.00 L41.75,540.00 L42.31,540.00 L42.88,540.00 L43.44,540.00 L44.00,540.00 L44.57,540.00 L45.13,540.00 L45.70,540.00 L46.26,540.00 L46.82,540.00 L47.39,540.00 L47.95,540.00 L48.52,540.00 L49.08,540.00 L49.65,540.00 L50.21,540.00 L50.77,540.00 L51.34,540.00 L51.90,540.00 L52.47,540.00 L53.03,540.00 L53.59,540.00 L54.16,540.00 L54.72,540.00 L55.29,540.00 L55.85,540.00 L56.41,540.00 L56.98,540.00 L57.54,540.00 L58.11,540.00 L58.67,540.00 L59.24,540.00 L59.80,540.00 L60.36,540.00 L60.93,540.00 L61.49,540.00 L62.06,540.00 L62.62,540.00 L63.18,540.00 L63.75,540.00 L64.31,540.00 L64.88,540.00 L65.44,540.00 L66.01,540.00 L66.57,540.00 L67.13,540.00 L67.70,540.00 L68.26,540.00 L68.83,540.00 L69.39,540.00 L69.95,540.00 L70.52,540.00 L71.08,540.00 L71.65,540.00 L72.21,540.00 L72.78,540.00 L73.34,540.00 L73.90,540.00 L74.47,540.00 L75.03,540.00 L75.60,540.00 L76.16,540.00 L76.72,540.00 L77.29,540.00 L77.85,540.00 L78.42,540.00 L78.98,540.00 L79.55,540.00 L80.11,540.00 L80.67,540.00 L81.24,540.00 L81.80,540.00 L82.37,540.00 L82.93,540.00 L83.49,540.00 L84.06,540.00 L84.62,540.00 L85.19,540.00 L85.75,540.00 L86.31,540.00 L86.88,540.00 L87.44,540.00 L88.01,540.00 L88.57,540.00 L89.14,540.00 L89.70,540.00 L90.26,540.00 L90.83,540.00 L91.39,540.00 L91.96,540.00 L92.52,540.00 L93.08,540.00 L93.65,540.00 L94.21,540.00 L94.78,540.00 L95.34,540.00 L95.91,540.00 L96.47,540.00 L97.03,540.00 L97.60,540.00 L98.16,540.00 L98.73,540.00 L99.29,540.00 L99.85,540.00 L100.42,540.00 L100.98,540.00 L101.55,540.00 L102.11,537.76 L102.68,533.96 L103.24,530.18 L103.80,526.42 L104.37,522.69 L104.93,518.97 L105.50,515.28 L106.06,511.61 L106.62,507.96 L107.19,504.33 L107.75,500.72 L108.32,497.14 L108.88,493.57 L109.44,490.03 L110.01,486.51 L110.57,483.01 L111.14,479.53 L111.70,476.07 L112.27,472.63 L112.83,469.22 L113.39,465.82 L113.96,462.44 L114.52,459.09 L115.09,455.76 L115.65,452.44 L116.21,449.15 L116.78,445.88 L117.34,442.63 L117.91,439.40 L118.47,436.19 L119.04,433.00 L119.60,429.83 L120.16,426.68 L120.73,423.55 L121.29,420.44 L121.86,417.35 L122.42,414.28 L122.98,411.23 L123.55,408.20 L124.11,405.19 L124.68,402.20 L125.24,399.23 L125.81,396.28 L126.37,393.35 L126.93,390.44 L127.50,387.55 L128.06,384.67 L128.63,381.82 L129.19,378.98 L129.75,376.17 L130.32,373.37 L130.88,370.60 L131.45,367.84 L132.01,365.10 L132.58,362.38 L133.14,359.68 L133.70,356.99 L134.27,354.33 L134.83,351.69 L135.40,349.06 L135.96,346.45 L136.52,343.86 L137.09,341.29 L137.65,338.74 L138.22,336.21 L138.78,333.69 L139.34,331.19 L139.91,328.71 L140.47,326.25 L141.04,323.81 L141.60,321.38 L142.17,318.98 L142.73,316.59 L143.29,314.22 L143.86,311.86 L144.42,309.53 L144.99,307.21 L145.55,304.91 L146.11,302.62 L146.68,300.36 L147.24,298.11 L147.81,295.88 L148.37,293.66 L148.94,291.47 L149.50,289.29 L150.06,287.13 L150.63,284.98 L151.19,282.85 L151.76,280.74 L152.32,278.65 L152.88,276.57 L153.45,274.51 L154.01,272.47 L154.58,270.44 L155.14,268.43 L155.71,266.44 L156.27,264.46 L156.83,262.50 L157.40,260.56 L157.96,258.63 L158.53,256.72 L159.09,254.82 L159.65,252.94 L160.22,251.08 L160.78,249.23 L161.35,247.40 L161.91,245.58 L162.47,243.79 L163.04,242.00 L163.60,240.23 L164.17,238.48 L164.73,236.75 L165.30,235.02 L165.86,233.32 L166.42,231.63 L166.99,229.96 L167.55,228.30 L168.12,226.65 L168.68,225.02 L169.24,223.41 L169.81,221.81 L170.37,220.23 L170.94,218.66 L171.50,217.11 L172.07,215.57 L172.63,214.05 L173.19,212.54 L173.76,211.04 L174.32,209.57 L174.89,208.10 L175.45,206.65 L176.01,205.22 L176.58,203.79 L177.14,202.39 L177.71,201.00 L178.27,199.62 L178.84,198.25 L179.40,196.90 L179.96,195.57 L180.53,194.25 L181.09,192.94 L181.66,191.65 L182.22,190.37 L182.78,189.10 L183.35,187.85 L183.91,186.61 L184.48,185.39 L185.04,184.17 L185.61,182.98 L186.17,181.79 L186.73,180.62 L187.30,179.46 L187.86,178.32 L188.43,177.19 L188.99,176.07 L189.55,174.97 L190.12,173.88 L190.68,172.80 L191.25,171.73 L191.81,170.68 L192.37,169.64 L192.94,168.61 L193.50,167.60 L194.07,166.60 L194.63,165.61 L195.20,164.63 L195.76,163.67 L196.32,162.72 L196.89,161.78 L197.45,160.85 L198.02,159.94 L198.58,159.03 L199.14,158.14 L199.71,157.27 L200.27,156.40 L200.84,155.55 L201.40,154.70 L201.97,153.87 L202.53,153.05 L203.09,152.25 L203.66,151.45 L204.22,150.67 L204.79,149.90 L205.35,149.14 L205.91,148.39 L206.48,147.65 L207.04,146.93 L207.61,146.21 L208.17,145.51 L208.74,144.81 L209.30,144.13 L209.86,143.46 L210.43,142.80 L210.99,142.16 L211.56,141.52 L212.12,140.89 L212.68,140.28 L213.25,139.67 L213.81,139.08 L214.38,138.49 L214.94,137.92 L215.51,137.36 L216.07,136.80 L216.63,136.26 L217.20,135.73 L217.76,135.21 L218.33,134.70 L218.89,134.20 L219.45,133.71 L220.02,133.23 L220.58,132.76 L221.15,132.29 L221.71,131.84 L222.27,131.40 L222.84,130.97 L223.40,130.55 L223.97,130.14 L224.53,129.73 L225.10,129.34 L225.66,128.96 L226.22,128.58 L226.79,128.22 L227.35,127.86 L227.92,127.51 L228.48,127.18 L229.04,126.85 L229.61,126.53 L230.17,126.22 L230.74,125.92 L231.30,125.63 L231.87,125.34 L232.43,125.07 L232.99,124.80 L233.56,124.54 L234.12,124.30 L234.69,124.06 L235.25,123.82 L235.81,123.60 L236.38,123.39 L236.94,123.18 L237.51,122.98 L238.07,122.79 L238.64,122.61 L239.20,122.43 L239.76,122.27 L240.33,122.11 L240.89,121.96 L241.46,121.82 L242.02,121.68 L242.58,121.56 L243.15,121.44 L243.71,121.33 L244.28,121.22 L244.84,121.13 L245.40,121.04 L245.97,120.96 L246.53,120.88 L247.10,120.81 L247.66,120.75 L248.23,120.70 L248.79,120.66 L249.35,120.62 L249.92,120.59 L250.48,120.56 L251.05,120.54 L251.61,120.53 L252.17,120.53 L252.74,120.53 L253.30,120.54 L253.87,120.56 L254.43,120.58 L255.00,120.61 L255.56,120.64 L256.12,120.69 L256.69,120.73 L257.25,120.79 L257.82,120.85 L258.38,120.91 L258.94,120.99 L259.51,121.07 L260.07,121.15 L260.64,121.24 L261.20,121.34 L261.77,121.44 L262.33,121.55 L262.89,121.66 L263.46,121.78 L264.02,121.90 L264.59,122.03 L265.15,122.17 L265.71,122.31 L266.28,122.46 L266.84,122.61 L267.41,122.77 L267.97,122.93 L268.54,123.09 L269.10,123.27 L269.66,123.44 L270.23,123.63 L270.79,123.81 L271.36,124.00 L271.92,124.20 L272.48,124.40 L273.05,124.61 L273.61,124.82 L274.18,125.03 L274.74,125.25 L275.30,125.48 L275.87,125.70 L276.43,125.94 L277.00,126.17 L277.56,126.41 L278.13,126.66 L278.69,126.91 L279.25,127.16 L279.82,127.42 L280.38,127.68 L280.95,127.94 L281.51,128.21 L282.07,128.48 L282.64,128.76 L283.20,129.04 L283.77,129.32 L284.33,129.61 L284.90,129.90 L285.46,130.19 L286.02,130.49 L286.59,130.79 L287.15,131.09 L287.72,131.39 L288.28,131.70 L288.84,132.02 L289.41,132.33 L289.97,132.65 L290.54,132.97 L291.10,133.29 L291.67,133.62 L292.23,133.95 L292.79,134.28 L293.36,134.62 L293.92,134.95 L294.49,135.29 L295.05,135.63 L295.61,135.98 L296.18,136.32 L296.74,136.67 L297.31,137.02 L297.87,137.38 L298.43,137.73 L299.00,138.09 L299.56,138.45 L300.13,138.81 L300.69,139.17 L301.26,139.54 L301.82,139.90 L302.38,140.27 L302.95,140.64 L303.51,141.01 L304.08,141.38 L304.64,141.76 L305.20,142.13 L305.77,142.51 L306.33,142.88 L306.90,143.26 L307.46,143.64 L308.03,144.02 L308.59,144.41 L309.15,144.79 L309.72,145.17 L310.28,145.56 L310.85,145.94 L311.41,146.33 L311.97,146.72 L312.54,147.11 L313.10,147.49 L313.67,147.88 L314.23,148.27 L314.80,148.66 L315.36,149.05 L315.92,149.44 L316.49,149.83 L317.05,150.22 L317.62,150.61 L318.18,151.00 L318.74,151.39 L319.31,151.79 L319.87,152.18 L320.44,152.57 L321.00,152.96 L321.57,153.35 L322.13,153.74 L322.69,154.12 L323.26,154.51 L323.82,154.90 L324.39,155.29 L324.95,155.68 L325.51,156.06 L326.08,156.45 L326.64,156.83 L327.21,157.22 L327.77,157.60 L328.33,157.98 L328.90,158.36 L329.46,158.74 L330.03,159.12 L330.59,159.50 L331.16,159.87 L331.72,160.25 L332.28,160.62 L332.85,160.99 L333.41,161.36 L333.98,161.73 L334.54,162.10 L335.10,162.46 L335.67,162.83 L336.23,163.19 L336.80,163.55 L337.36,163.91 L337.93,164.26 L338.49,164.62 L339.05,164.97 L339.62,165.32 L340.18,165.67 L340.75,166.01 L341.31,166.36 L341.87,166.70 L342.44,167.03 L343.00,167.37 L343.57,167.70 L344.13,168.04 L344.70,168.36 L345.26,168.69 L345.82,169.01 L346.39,169.33 L346.95,169.65 L347.52,169.96 L348.08,170.27 L348.64,170.58 L349.21,170.89 L349.77,171.19 L350.34,171.49 L350.90,171.78 L351.46,172.07 L352.03,172.36 L352.59,172.65 L353.16,172.93 L353.72,173.21 L354.29,173.48 L354.85,173.75 L355.41,174.02 L355.98,174.28 L356.54,174.54 L357.11,174.80 L357.67,175.05 L358.23,175.30 L358.80,175.54 L359.36,175.78 L359.93,176.01 L360.49,176.24 L361.06,176.47 L361.62,176.69 L362.18,176.91 L362.75,177.12 L363.31,177.33 L363.88,177.54 L364.44,177.74 L365.00,177.93 L365.57,178.12 L366.13,178.30 L366.70,178.48 L367.26,178.66 L367.83,178.83 L368.39,178.99 L368.95,179.15 L369.52,179.31 L370.08,179.46 L370.65,179.60 L371.21,179.74 L371.77,179.88 L372.34,180.00 L372.90,180.13 L373.47,180.24 L374.03,180.36 L374.60,180.46 L375.16,180.56 L375.72,180.65 L376.29,180.74 L376.85,180.83 L377.42,180.90 L377.98,180.97 L378.54,181.04 L379.11,181.09 L379.67,181.15 L380.24,181.19 L380.80,181.23 L381.36,181.26 L381.93,181.29 L382.49,181.31 L383.06,181.32 L383.62,181.33 L384.19,181.33 L384.75,181.32 L385.31,181.31 L385.88,181.29 L386.44,181.26 L387.01,181.23 L387.57,181.19 L388.13,181.14 L388.70,181.08 L389.26,181.02 L389.83,180.95 L390.39,180.88 L390.96,180.79 L391.52,180.70 L392.08,180.60 L392.65,180.49 L393.21,180.38 L393.78,180.26 L394.34,180.13 L394.90,179.99 L395.47,179.85 L396.03,179.69 L396.60,179.53 L397.16,179.36 L397.73,179.19 L398.29,179.00 L398.85,178.81 L399.42,178.61 L399.98,178.40 L400.55,178.18 L401.11,177.95 L401.67,177.72 L402.24,177.47 L402.80,177.22 L403.37,176.96 L403.93,176.69 L404.49,176.41 L405.06,176.13 L405.62,175.83 L406.19,175.53 L406.75,175.21 L407.32,174.89 L407.88,174.56 L408.44,174.22 L409.01,173.87 L409.57,173.51 L410.14,173.14 L410.70,172.76 L411.26,172.37 L411.83,171.98 L412.39,171.57 L412.96,171.16 L413.52,170.73 L414.09,170.29 L414.65,169.85 L415.21,169.39 L415.78,168.93 L416.34,168.46 L416.91,167.97 L417.47,167.48 L418.03,166.97 L418.60,166.46 L419.16,165.93 L419.73,165.40 L420.29,164.85 L420.86,164.29 L421.42,163.73 L421.98,163.15 L422.55,162.56 L423.11,161.96 L423.68,161.35 L424.24,160.73 L424.80,160.10 L425.37,159.46 L425.93,158.81 L426.50,158.15 L427.06,157.47 L427.63,156.79 L428.19,156.09 L428.75,155.38 L429.32,154.66 L429.88,153.93 L430.45,153.19 L431.01,152.44 L431.57,151.67 L432.14,150.90 L432.70,150.11 L433.27,149.31 L433.83,148.50 L434.39,147.68 L434.96,146.84 L435.52,146.00 L436.09,145.14 L436.65,144.27 L437.22,143.38 L437.78,142.49 L438.34,141.58 L438.91,140.66 L439.47,139.73 L440.04,138.79 L440.60,137.83 L441.16,136.86 L441.73,135.88 L442.29,134.89 L442.86,133.88 L443.42,132.86 L443.99,131.83 L444.55,130.79 L445.11,129.73 L445.68,128.66 L446.24,127.58 L446.81,126.48 L447.37,125.37 L447.93,124.25 L448.50,123.11 L449.06,121.96 L449.63,120.80 L450.19,119.62 L450.76,118.44 L451.32,117.23 L451.88,116.02 L452.45,114.79 L453.01,113.54 L453.58,112.29 L454.14,111.01 L454.70,109.73 L455.27,108.43 L455.83,107.12 L456.40,105.79 L456.96,104.45 L457.53,103.10 L458.09,101.73 L458.65,100.34 L459.22,98.95 L459.78,97.53 L460.35,96.11 L460.91,94.67 L461.47,93.21 L462.04,91.74 L462.60,90.26 L463.17,88.76 L463.73,87.24 L464.29,85.71 L464.86,84.17 L465.42,82.61 L465.99,81.04 L466.55,79.45 L467.12,77.85 L467.68,76.23 L468.24,74.59 L468.81,72.94 L469.37,71.28 L469.94,69.60 L470.50,67.90 L471.06,66.19 L471.63,64.46 L472.19,62.72 L472.76,60.96 L473.32,59.19 L473.89,57.40 L474.45,55.60 L475.01,53.77 L475.58,51.94 L476.14,50.08 L476.71,48.21 L477.27,46.33 L477.83,44.43 L478.40,42.51 L478.96,40.58 L479.53,38.63 L480.09,36.66 L480.66,34.68 L481.22,32.68 L481.78,30.66 L482.35,28.63 L482.91,26.58 L483.48,24.51 L484.04,22.43 L484.60,20.33 L485.17,18.21 L485.73,16.07 L486.30,13.92 L486.86,11.75 L487.42,9.57 L487.99,7.37 L488.55,5.15 L489.12,2.91 L489.68,0.65 L490.25,-1.62 L490.81,-3.91 L491.37,-6.22 L491.94,-8.54 L492.50,-10.88 L493.07,-13.24 L493.63,-15.62 L494.19,-18.02 L494.76,-20.43 L495.32,-22.86 L495.89,-25.31 L496.45,-27.78 L497.02,-30.27 L497.58,-32.77 L498.14,-35.30 L498.71,-37.84 L499.27,-40.40 L499.84,-42.97 L500.40,-45.57 L500.96,-48.18 L501.53,-50.82 L502.09,-53.47 L502.66,-56.14 L503.22,-58.83 L503.79,-61.54 L504.35,-64.27 L504.91,-67.01 L505.48,-69.78 L506.04,-72.56 L506.61,-75.36 L507.17,-78.19 L507.73,-81.03 L508.30,-83.89 L508.86,-86.77 L509.43,-89.67 L509.99,-92.59 L510.56,-95.53 L511.12,-98.49 L511.68,-101.46 L512.25,-104.46 L512.81,-107.48 L513.38,-110.52 L513.94,-113.57 L514.50,-116.65 L515.07,-119.75 L515.63,-122.86 L516.20,-126.00 L516.76,-129.16 L517.32,-132.34 L517.89,-135.53 L518.45,-138.75 L519.02,-141.99 L519.58,-145.25 L520.15,-148.53 L520.71,-151.83 L521.27,-155.15 L521.84,-158.49 L522.40,-161.85 L522.97,-165.23 L523.53,-168.64 L524.09,-172.06 L524.66,-175.51 L525.22,-178.97 L525.79,-182.46 L526.35,-185.97 L526.92,-189.50 L527.48,-193.05 L528.04,-196.62 L528.61,-200.21 L529.17,-203.83 L529.74,-207.47 L530.30,-211.12 L530.86,-214.80 L531.43,-218.50 L531.99,-222.23 L532.56,-225.97 L533.12,-229.74 L533.69,-233.53 L534.25,-237.34 L534.81,-241.17 L535.38,-245.02 L535.94,-248.90 L536.51,-252.80 L537.07,-256.72 L537.63,-260.66 L538.20,-264.63 L538.76,-268.62 L539.33,-270.00 L539.89,-270.00 L540.45,-270.00 L541.02,-270.00 L541.58,-270.00 L542.15,-270.00 L542.71,-270.00 L543.28,-270.00 L543.84,-270.00 L544.40,-270.00 L544.97,-270.00 L545.53,-270.00 L546.10,-270.00 L546.66,-270.00 L547.22,-270.00 L547.79,-270.00 L548.35,-270.00 L548.92,-270.00 L549.48,-270.00 L550.05,-270.00 L550.61,-270.00 L551.17,-270.00 L551.74,-270.00 L552.30,-270.00 L552.87,-270.00 L553.43,-270.00 L553.99,-270.00 L554.56,-270.00 L555.12,-270.00 L555.69,-270.00 L556.25,-270.00 L556.82,-270.00 L557.38,-270.00 L557.94,-270.00 L558.51,-270.00 L559.07,-270.00 L559.64,-270.00 L560.20,-270.00 L560.76,-270.00 L561.33,-270.00 L561.89,-270.00 L562.46,-270.00 L563.02,-270.00 L563.59,-270.00 L564.15,-270.00 L564.71,-270.00 L565.28,-270.00 L565.84,-270.00 L566.41,-270.00 L566.97,-270.00 L567.53,-270.00 L568.10,-270.00 L568.66,-270.00 L569.23,-270.00 L569.79,-270.00 L570.35,-270.00 L570.92,-270.00 L571.48,-270.00 L572.05,-270.00 L572.61,-270.00 L573.18,-270.00 L573.74,-270.00 L574.30,-270.00 L574.87,-270.00 L575.43,-270.00 L576.00,-270.00 L576.56,-270.00 L577.12,-270.00 L577.69,-270.00 L578.25,-270.00 L578.82,-270.00 L579.38,-270.00 L579.95,-270.00 L580.51,-270.00 L581.07,-270.00 L581.64,-270.00 L582.20,-270.00 L582.77,-270.00 L583.33,-270.00 L583.89,-270.00 L584.46,-270.00 L585.02,-270.00 L585.59,-270.00 L586.15,-270.00 L586.72,-270.00 L587.28,-270.00 L587.84,-270.00 L588.41,-270.00 L588.97,-270.00 L589.54,-270.00 L590.10,-270.00 L590.66,-270.00 L591.23,-270.00 L591.79,-270.00 L592.36,-270.00 L592.92,-270.00 L593.48,-270.00 L594.05,-270.00 L594.61,-270.00 L595.18,-270.00 L595.74,-270.00 L596.31,-270.00 L596.87,-270.00 L597.43,-270.00 L598.00,-270.00 L598.56,-270.00 L599.13,-270.00 L599.69,-270.00 L600.25,-270.00 L600.82,-270.00 L601.38,-270.00 L601.95,-270.00 L602.51,-270.00 L603.08,-270.00 L603.64,-270.00 L604.20,-270.00 L604.77,-270.00 L605.33,-270.00 L605.90,-270.00 L606.46,-270.00 L607.02,-270.00 L607.59,-270.00 L608.15,-270.00 L608.72,-270.00 L609.28,-270.00 L609.85,-270.00 L610.41,-270.00 L610.97,-270.00 L611.54,-270.00 L612.10,-270.00 L612.67,-270.00 L613.23,-270.00 L613.79,-270.00 L614.36,-270.00 L614.92,-270.00 L615.49,-270.00 L616.05,-270.00 L616.62,-270.00 L617.18,-270.00 L617.74,-270.00 L618.31,-270.00 L618.87,-270.00 L619.44,-270.00 L620.00,-270.00" style="stroke-width: 2; stroke: rgb(65, 117, 5); stroke-opacity: 1;"/><path d=" M0.00,540.00 L0.56,540.00 L1.13,540.00 L1.69,540.00 L2.26,540.00 L2.82,540.00 L3.38,540.00 L3.95,540.00 L4.51,540.00 L5.08,540.00 L5.64,540.00 L6.21,540.00 L6.77,540.00 L7.33,540.00 L7.90,540.00 L8.46,540.00 L9.03,540.00 L9.59,540.00 L10.15,540.00 L10.72,540.00 L11.28,540.00 L11.85,540.00 L12.41,540.00 L12.98,540.00 L13.54,540.00 L14.10,540.00 L14.67,540.00 L15.23,540.00 L15.80,540.00 L16.36,540.00 L16.92,540.00 L17.49,540.00 L18.05,540.00 L18.62,540.00 L19.18,540.00 L19.75,540.00 L20.31,540.00 L20.87,540.00 L21.44,540.00 L22.00,540.00 L22.57,540.00 L23.13,540.00 L23.69,540.00 L24.26,540.00 L24.82,540.00 L25.39,540.00 L25.95,540.00 L26.52,540.00 L27.08,540.00 L27.64,540.00 L28.21,540.00 L28.77,540.00 L29.34,540.00 L29.90,540.00 L30.46,540.00 L31.03,540.00 L31.59,540.00 L32.16,540.00 L32.72,540.00 L33.28,540.00 L33.85,540.00 L34.41,540.00 L34.98,540.00 L35.54,540.00 L36.11,540.00 L36.67,540.00 L37.23,540.00 L37.80,540.00 L38.36,540.00 L38.93,540.00 L39.49,540.00 L40.05,540.00 L40.62,540.00 L41.18,540.00 L41.75,540.00 L42.31,540.00 L42.88,540.00 L43.44,540.00 L44.00,540.00 L44.57,540.00 L45.13,540.00 L45.70,540.00 L46.26,540.00 L46.82,540.00 L47.39,540.00 L47.95,540.00 L48.52,540.00 L49.08,540.00 L49.65,540.00 L50.21,540.00 L50.77,540.00 L51.34,540.00 L51.90,540.00 L52.47,540.00 L53.03,540.00 L53.59,540.00 L54.16,540.00 L54.72,540.00 L55.29,540.00 L55.85,540.00 L56.41,540.00 L56.98,540.00 L57.54,540.00 L58.11,540.00 L58.67,540.00 L59.24,540.00 L59.80,540.00 L60.36,540.00 L60.93,540.00 L61.49,540.00 L62.06,540.00 L62.62,540.00 L63.18,540.00 L63.75,540.00 L64.31,540.00 L64.88,540.00 L65.44,540.00 L66.01,540.00 L66.57,540.00 L67.13,540.00 L67.70,540.00 L68.26,540.00 L68.83,540.00 L69.39,540.00 L69.95,540.00 L70.52,540.00 L71.08,540.00 L71.65,540.00 L72.21,540.00 L72.78,540.00 L73.34,540.00 L73.90,540.00 L74.47,540.00 L75.03,540.00 L75.60,540.00 L76.16,540.00 L76.72,540.00 L77.29,540.00 L77.85,540.00 L78.42,540.00 L78.98,540.00 L79.55,540.00 L80.11,540.00 L80.67,540.00 L81.24,540.00 L81.80,540.00 L82.37,540.00 L82.93,540.00 L83.49,540.00 L84.06,540.00 L84.62,540.00 L85.19,540.00 L85.75,540.00 L86.31,540.00 L86.88,540.00 L87.44,540.00 L88.01,540.00 L88.57,540.00 L89.14,540.00 L89.70,540.00 L90.26,540.00 L90.83,540.00 L91.39,540.00 L91.96,540.00 L92.52,540.00 L93.08,540.00 L93.65,540.00 L94.21,540.00 L94.78,540.00 L95.34,540.00 L95.91,540.00 L96.47,540.00 L97.03,540.00 L97.60,540.00 L98.16,540.00 L98.73,540.00 L99.29,540.00 L99.85,540.00 L100.42,540.00 L100.98,540.00 L101.55,540.00 L102.11,540.00 L102.68,540.00 L103.24,540.00 L103.80,540.00 L104.37,540.00 L104.93,540.00 L105.50,540.00 L106.06,540.00 L106.62,540.00 L107.19,540.00 L107.75,540.00 L108.32,540.00 L108.88,540.00 L109.44,540.00 L110.01,540.00 L110.57,540.00 L111.14,540.00 L111.70,540.00 L112.27,540.00 L112.83,540.00 L113.39,540.00 L113.96,540.00 L114.52,540.00 L115.09,540.00 L115.65,540.00 L116.21,540.00 L116.78,540.00 L117.34,540.00 L117.91,540.00 L118.47,540.00 L119.04,540.00 L119.60,540.00 L120.16,540.00 L120.73,540.00 L121.29,540.00 L121.86,540.00 L122.42,540.00 L122.98,540.00 L123.55,540.00 L124.11,540.00 L124.68,540.00 L125.24,540.00 L125.81,540.00 L126.37,540.00 L126.93,540.00 L127.50,540.00 L128.06,540.00 L128.63,540.00 L129.19,540.00 L129.75,540.00 L130.32,540.00 L130.88,540.00 L131.45,540.00 L132.01,540.00 L132.58,540.00 L133.14,540.00 L133.70,540.00 L134.27,540.00 L134.83,540.00 L135.40,540.00 L135.96,540.00 L136.52,540.00 L137.09,540.00 L137.65,540.00 L138.22,540.00 L138.78,540.00 L139.34,540.00 L139.91,540.00 L140.47,540.00 L141.04,540.00 L141.60,540.00 L142.17,540.00 L142.73,540.00 L143.29,540.00 L143.86,540.00 L144.42,540.00 L144.99,540.00 L145.55,540.00 L146.11,540.00 L146.68,540.00 L147.24,540.00 L147.81,540.00 L148.37,540.00 L148.94,540.00 L149.50,540.00 L150.06,540.00 L150.63,540.00 L151.19,540.00 L151.76,540.00 L152.32,540.00 L152.88,540.00 L153.45,540.00 L154.01,540.00 L154.58,540.00 L155.14,540.00 L155.71,540.00 L156.27,540.00 L156.83,540.00 L157.40,540.00 L157.96,540.00 L158.53,540.00 L159.09,540.00 L159.65,540.00 L160.22,540.00 L160.78,540.00 L161.35,540.00 L161.91,540.00 L162.47,540.00 L163.04,540.00 L163.60,540.00 L164.17,540.00 L164.73,540.00 L165.30,540.00 L165.86,540.00 L166.42,540.00 L166.99,540.00 L167.55,540.00 L168.12,540.00 L168.68,540.00 L169.24,540.00 L169.81,540.00 L170.37,540.00 L170.94,540.00 L171.50,540.00 L172.07,540.00 L172.63,540.00 L173.19,540.00 L173.76,540.00 L174.32,540.00 L174.89,540.00 L175.45,540.00 L176.01,540.00 L176.58,540.00 L177.14,540.00 L177.71,540.00 L178.27,540.00 L178.84,540.00 L179.40,540.00 L179.96,540.00 L180.53,540.00 L181.09,540.00 L181.66,540.00 L182.22,530.91 L182.78,521.68 L183.35,512.55 L183.91,503.52 L184.48,494.60 L185.04,485.79 L185.61,477.07 L186.17,468.46 L186.73,459.96 L187.30,451.55 L187.86,443.25 L188.43,435.04 L188.99,426.94 L189.55,418.94 L190.12,411.03 L190.68,403.23 L191.25,395.52 L191.81,387.91 L192.37,380.40 L192.94,372.98 L193.50,365.66 L194.07,358.44 L194.63,351.31 L195.20,344.28 L195.76,337.34 L196.32,330.49 L196.89,323.74 L197.45,317.08 L198.02,310.51 L198.58,304.04 L199.14,297.65 L199.71,291.36 L200.27,285.15 L200.84,279.04 L201.40,273.01 L201.97,267.08 L202.53,261.23 L203.09,255.47 L203.66,249.80 L204.22,244.21 L204.79,238.71 L205.35,233.29 L205.91,227.96 L206.48,222.71 L207.04,217.55 L207.61,212.47 L208.17,207.48 L208.74,202.56 L209.30,197.73 L209.86,192.98 L210.43,188.32 L210.99,183.73 L211.56,179.22 L212.12,174.79 L212.68,170.44 L213.25,166.17 L213.81,161.97 L214.38,157.86 L214.94,153.82 L215.51,149.85 L216.07,145.97 L216.63,142.16 L217.20,138.42 L217.76,134.76 L218.33,131.17 L218.89,127.65 L219.45,124.21 L220.02,120.84 L220.58,117.54 L221.15,114.31 L221.71,111.15 L222.27,108.07 L222.84,105.05 L223.40,102.10 L223.97,99.22 L224.53,96.41 L225.10,93.67 L225.66,90.99 L226.22,88.39 L226.79,85.84 L227.35,83.37 L227.92,80.95 L228.48,78.61 L229.04,76.32 L229.61,74.10 L230.17,71.95 L230.74,69.85 L231.30,67.82 L231.87,65.85 L232.43,63.94 L232.99,62.09 L233.56,60.30 L234.12,58.57 L234.69,56.90 L235.25,55.29 L235.81,53.74 L236.38,52.24 L236.94,50.80 L237.51,49.42 L238.07,48.09 L238.64,46.82 L239.20,45.60 L239.76,44.44 L240.33,43.33 L240.89,42.28 L241.46,41.28 L242.02,40.33 L242.58,39.43 L243.15,38.58 L243.71,37.79 L244.28,37.04 L244.84,36.35 L245.40,35.70 L245.97,35.11 L246.53,34.56 L247.10,34.06 L247.66,33.60 L248.23,33.20 L248.79,32.84 L249.35,32.52 L249.92,32.25 L250.48,32.03 L251.05,31.85 L251.61,31.71 L252.17,31.62 L252.74,31.57 L253.30,31.56 L253.87,31.59 L254.43,31.66 L255.00,31.78 L255.56,31.93 L256.12,32.13 L256.69,32.36 L257.25,32.63 L257.82,32.95 L258.38,33.29 L258.94,33.68 L259.51,34.10 L260.07,34.56 L260.64,35.05 L261.20,35.58 L261.77,36.14 L262.33,36.74 L262.89,37.37 L263.46,38.04 L264.02,38.73 L264.59,39.46 L265.15,40.22 L265.71,41.01 L266.28,41.83 L266.84,42.68 L267.41,43.56 L267.97,44.47 L268.54,45.41 L269.10,46.38 L269.66,47.37 L270.23,48.39 L270.79,49.44 L271.36,50.51 L271.92,51.61 L272.48,52.73 L273.05,53.88 L273.61,55.05 L274.18,56.24 L274.74,57.46 L275.30,58.70 L275.87,59.96 L276.43,61.24 L277.00,62.54 L277.56,63.87 L278.13,65.21 L278.69,66.57 L279.25,67.95 L279.82,69.35 L280.38,70.77 L280.95,72.20 L281.51,73.65 L282.07,75.12 L282.64,76.60 L283.20,78.10 L283.77,79.61 L284.33,81.14 L284.90,82.68 L285.46,84.23 L286.02,85.80 L286.59,87.38 L287.15,88.97 L287.72,90.57 L288.28,92.18 L288.84,93.80 L289.41,95.43 L289.97,97.07 L290.54,98.72 L291.10,100.38 L291.67,102.04 L292.23,103.71 L292.79,105.39 L293.36,107.08 L293.92,108.77 L294.49,110.46 L295.05,112.16 L295.61,113.86 L296.18,115.57 L296.74,117.28 L297.31,118.99 L297.87,120.70 L298.43,122.41 L299.00,124.13 L299.56,125.85 L300.13,127.56 L300.69,129.28 L301.26,130.99 L301.82,132.70 L302.38,134.41 L302.95,136.12 L303.51,137.83 L304.08,139.53 L304.64,141.22 L305.20,142.91 L305.77,144.60 L306.33,146.28 L306.90,147.96 L307.46,149.62 L308.03,151.28 L308.59,152.94 L309.15,154.58 L309.72,156.22 L310.28,157.84 L310.85,159.46 L311.41,161.06 L311.97,162.66 L312.54,164.24 L313.10,165.82 L313.67,167.38 L314.23,168.92 L314.80,170.46 L315.36,171.97 L315.92,173.48 L316.49,174.97 L317.05,176.44 L317.62,177.90 L318.18,179.35 L318.74,180.77 L319.31,182.18 L319.87,183.57 L320.44,184.94 L321.00,186.29 L321.57,187.63 L322.13,188.94 L322.69,190.23 L323.26,191.50 L323.82,192.75 L324.39,193.98 L324.95,195.18 L325.51,196.37 L326.08,197.52 L326.64,198.66 L327.21,199.77 L327.77,200.85 L328.33,201.91 L328.90,202.95 L329.46,203.95 L330.03,204.93 L330.59,205.88 L331.16,206.80 L331.72,207.70 L332.28,208.56 L332.85,209.40 L333.41,210.21 L333.98,210.98 L334.54,211.72 L335.10,212.44 L335.67,213.11 L336.23,213.76 L336.80,214.37 L337.36,214.95 L337.93,215.50 L338.49,216.01 L339.05,216.48 L339.62,216.92 L340.18,217.33 L340.75,217.69 L341.31,218.02 L341.87,218.31 L342.44,218.56 L343.00,218.78 L343.57,218.95 L344.13,219.09 L344.70,219.18 L345.26,219.23 L345.82,219.25 L346.39,219.21 L346.95,219.14 L347.52,219.03 L348.08,218.87 L348.64,218.66 L349.21,218.42 L349.77,218.12 L350.34,217.78 L350.90,217.40 L351.46,216.97 L352.03,216.49 L352.59,215.96 L353.16,215.39 L353.72,214.77 L354.29,214.10 L354.85,213.38 L355.41,212.61 L355.98,211.78 L356.54,210.91 L357.11,209.99 L357.67,209.01 L358.23,207.98 L358.80,206.90 L359.36,205.76 L359.93,204.57 L360.49,203.33 L361.06,202.03 L361.62,200.67 L362.18,199.26 L362.75,197.79 L363.31,196.26 L363.88,194.68 L364.44,193.04 L365.00,191.34 L365.57,189.58 L366.13,187.76 L366.70,185.88 L367.26,183.94 L367.83,181.93 L368.39,179.87 L368.95,177.74 L369.52,175.55 L370.08,173.30 L370.65,170.98 L371.21,168.60 L371.77,166.16 L372.34,163.65 L372.90,161.07 L373.47,158.42 L374.03,155.71 L374.60,152.94 L375.16,150.09 L375.72,147.17 L376.29,144.19 L376.85,141.14 L377.42,138.02 L377.98,134.82 L378.54,131.56 L379.11,128.22 L379.67,124.81 L380.24,121.33 L380.80,117.78 L381.36,114.15 L381.93,110.45 L382.49,106.67 L383.06,102.82 L383.62,98.90 L384.19,94.89 L384.75,90.81 L385.31,86.66 L385.88,82.42 L386.44,78.11 L387.01,73.72 L387.57,69.25 L388.13,64.70 L388.70,60.07 L389.26,55.36 L389.83,50.57 L390.39,45.69 L390.96,40.74 L391.52,35.70 L392.08,30.58 L392.65,25.37 L393.21,20.08 L393.78,14.71 L394.34,9.25 L394.90,3.70 L395.47,-1.93 L396.03,-7.65 L396.60,-13.46 L397.16,-19.35 L397.73,-25.33 L398.29,-31.41 L398.85,-37.57 L399.42,-43.82 L399.98,-50.16 L400.55,-56.59 L401.11,-63.11 L401.67,-69.73 L402.24,-76.44 L402.80,-83.24 L403.37,-90.13 L403.93,-97.12 L404.49,-104.20 L405.06,-111.38 L405.62,-118.65 L406.19,-126.02 L406.75,-133.49 L407.32,-141.05 L407.88,-148.71 L408.44,-156.47 L409.01,-164.32 L409.57,-172.28 L410.14,-180.34 L410.70,-188.49 L411.26,-196.75 L411.83,-205.10 L412.39,-213.56 L412.96,-222.12 L413.52,-230.79 L414.09,-239.55 L414.65,-248.43 L415.21,-257.40 L415.78,-266.48 L416.34,-270.00 L416.91,-270.00 L417.47,-270.00 L418.03,-270.00 L418.60,-270.00 L419.16,-270.00 L419.73,-270.00 L420.29,-270.00 L420.86,-270.00 L421.42,-270.00 L421.98,-270.00 L422.55,-270.00 L423.11,-270.00 L423.68,-270.00 L424.24,-270.00 L424.80,-270.00 L425.37,-270.00 L425.93,-270.00 L426.50,-270.00 L427.06,-270.00 L427.63,-270.00 L428.19,-270.00 L428.75,-270.00 L429.32,-270.00 L429.88,-270.00 L430.45,-270.00 L431.01,-270.00 L431.57,-270.00 L432.14,-270.00 L432.70,-270.00 L433.27,-270.00 L433.83,-270.00 L434.39,-270.00 L434.96,-270.00 L435.52,-270.00 L436.09,-270.00 L436.65,-270.00 L437.22,-270.00 L437.78,-270.00 L438.34,-270.00 L438.91,-270.00 L439.47,-270.00 L440.04,-270.00 L440.60,-270.00 L441.16,-270.00 L441.73,-270.00 L442.29,-270.00 L442.86,-270.00 L443.42,-270.00 L443.99,-270.00 L444.55,-270.00 L445.11,-270.00 L445.68,-270.00 L446.24,-270.00 L446.81,-270.00 L447.37,-270.00 L447.93,-270.00 L448.50,-270.00 L449.06,-270.00 L449.63,-270.00 L450.19,-270.00 L450.76,-270.00 L451.32,-270.00 L451.88,-270.00 L452.45,-270.00 L453.01,-270.00 L453.58,-270.00 L454.14,-270.00 L454.70,-270.00 L455.27,-270.00 L455.83,-270.00 L456.40,-270.00 L456.96,-270.00 L457.53,-270.00 L458.09,-270.00 L458.65,-270.00 L459.22,-270.00 L459.78,-270.00 L460.35,-270.00 L460.91,-270.00 L461.47,-270.00 L462.04,-270.00 L462.60,-270.00 L463.17,-270.00 L463.73,-270.00 L464.29,-270.00 L464.86,-270.00 L465.42,-270.00 L465.99,-270.00 L466.55,-270.00 L467.12,-270.00 L467.68,-270.00 L468.24,-270.00 L468.81,-270.00 L469.37,-270.00 L469.94,-270.00 L470.50,-270.00 L471.06,-270.00 L471.63,-270.00 L472.19,-270.00 L472.76,-270.00 L473.32,-270.00 L473.89,-270.00 L474.45,-270.00 L475.01,-270.00 L475.58,-270.00 L476.14,-270.00 L476.71,-270.00 L477.27,-270.00 L477.83,-270.00 L478.40,-270.00 L478.96,-270.00 L479.53,-270.00 L480.09,-270.00 L480.66,-270.00 L481.22,-270.00 L481.78,-270.00 L482.35,-270.00 L482.91,-270.00 L483.48,-270.00 L484.04,-270.00 L484.60,-270.00 L485.17,-270.00 L485.73,-270.00 L486.30,-270.00 L486.86,-270.00 L487.42,-270.00 L487.99,-270.00 L488.55,-270.00 L489.12,-270.00 L489.68,-270.00 L490.25,-270.00 L490.81,-270.00 L491.37,-270.00 L491.94,-270.00 L492.50,-270.00 L493.07,-270.00 L493.63,-270.00 L494.19,-270.00 L494.76,-270.00 L495.32,-270.00 L495.89,-270.00 L496.45,-270.00 L497.02,-270.00 L497.58,-270.00 L498.14,-270.00 L498.71,-270.00 L499.27,-270.00 L499.84,-270.00 L500.40,-270.00 L500.96,-270.00 L501.53,-270.00 L502.09,-270.00 L502.66,-270.00 L503.22,-270.00 L503.79,-270.00 L504.35,-270.00 L504.91,-270.00 L505.48,-270.00 L506.04,-270.00 L506.61,-270.00 L507.17,-270.00 L507.73,-270.00 L508.30,-270.00 L508.86,-270.00 L509.43,-270.00 L509.99,-270.00 L510.56,-270.00 L511.12,-270.00 L511.68,-270.00 L512.25,-270.00 L512.81,-270.00 L513.38,-270.00 L513.94,-270.00 L514.50,-270.00 L515.07,-270.00 L515.63,-270.00 L516.20,-270.00 L516.76,-270.00 L517.32,-270.00 L517.89,-270.00 L518.45,-270.00 L519.02,-270.00 L519.58,-270.00 L520.15,-270.00 L520.71,-270.00 L521.27,-270.00 L521.84,-270.00 L522.40,-270.00 L522.97,-270.00 L523.53,-270.00 L524.09,-270.00 L524.66,-270.00 L525.22,-270.00 L525.79,-270.00 L526.35,-270.00 L526.92,-270.00 L527.48,-270.00 L528.04,-270.00 L528.61,-270.00 L529.17,-270.00 L529.74,-270.00 L530.30,-270.00 L530.86,-270.00 L531.43,-270.00 L531.99,-270.00 L532.56,-270.00 L533.12,-270.00 L533.69,-270.00 L534.25,-270.00 L534.81,-270.00 L535.38,-270.00 L535.94,-270.00 L536.51,-270.00 L537.07,-270.00 L537.63,-270.00 L538.20,-270.00 L538.76,-270.00 L539.33,-270.00 L539.89,-270.00 L540.45,-270.00 L541.02,-270.00 L541.58,-270.00 L542.15,-270.00 L542.71,-270.00 L543.28,-270.00 L543.84,-270.00 L544.40,-270.00 L544.97,-270.00 L545.53,-270.00 L546.10,-270.00 L546.66,-270.00 L547.22,-270.00 L547.79,-270.00 L548.35,-270.00 L548.92,-270.00 L549.48,-270.00 L550.05,-270.00 L550.61,-270.00 L551.17,-270.00 L551.74,-270.00 L552.30,-270.00 L552.87,-270.00 L553.43,-270.00 L553.99,-270.00 L554.56,-270.00 L555.12,-270.00 L555.69,-270.00 L556.25,-270.00 L556.82,-270.00 L557.38,-270.00 L557.94,-270.00 L558.51,-270.00 L559.07,-270.00 L559.64,-270.00 L560.20,-270.00 L560.76,-270.00 L561.33,-270.00 L561.89,-270.00 L562.46,-270.00 L563.02,-270.00 L563.59,-270.00 L564.15,-270.00 L564.71,-270.00 L565.28,-270.00 L565.84,-270.00 L566.41,-270.00 L566.97,-270.00 L567.53,-270.00 L568.10,-270.00 L568.66,-270.00 L569.23,-270.00 L569.79,-270.00 L570.35,-270.00 L570.92,-270.00 L571.48,-270.00 L572.05,-270.00 L572.61,-270.00 L573.18,-270.00 L573.74,-270.00 L574.30,-270.00 L574.87,-270.00 L575.43,-270.00 L576.00,-270.00 L576.56,-270.00 L577.12,-270.00 L577.69,-270.00 L578.25,-270.00 L578.82,-270.00 L579.38,-270.00 L579.95,-270.00 L580.51,-270.00 L581.07,-270.00 L581.64,-270.00 L582.20,-270.00 L582.77,-270.00 L583.33,-270.00 L583.89,-270.00 L584.46,-270.00 L585.02,-270.00 L585.59,-270.00 L586.15,-270.00 L586.72,-270.00 L587.28,-270.00 L587.84,-270.00 L588.41,-270.00 L588.97,-270.00 L589.54,-270.00 L590.10,-270.00 L590.66,-270.00 L591.23,-270.00 L591.79,-270.00 L592.36,-270.00 L592.92,-270.00 L593.48,-270.00 L594.05,-270.00 L594.61,-270.00 L595.18,-270.00 L595.74,-270.00 L596.31,-270.00 L596.87,-270.00 L597.43,-270.00 L598.00,-270.00 L598.56,-270.00 L599.13,-270.00 L599.69,-270.00 L600.25,-270.00 L600.82,-270.00 L601.38,-270.00 L601.95,-270.00 L602.51,-270.00 L603.08,-270.00 L603.64,-270.00 L604.20,-270.00 L604.77,-270.00 L605.33,-270.00 L605.90,-270.00 L606.46,-270.00 L607.02,-270.00 L607.59,-270.00 L608.15,-270.00 L608.72,-270.00 L609.28,-270.00 L609.85,-270.00 L610.41,-270.00 L610.97,-270.00 L611.54,-270.00 L612.10,-270.00 L612.67,-270.00 L613.23,-270.00 L613.79,-270.00 L614.36,-270.00 L614.92,-270.00 L615.49,-270.00 L616.05,-270.00 L616.62,-270.00 L617.18,-270.00 L617.74,-270.00 L618.31,-270.00 L618.87,-270.00 L619.44,-270.00 L620.00,-270.00" style="stroke-width: 2; stroke: rgb(74, 144, 226); stroke-opacity: 1;"/><path d=" M0.00,199.18 L0.56,198.41 L1.13,197.65 L1.69,196.90 L2.26,196.15 L2.82,195.40 L3.38,194.66 L3.95,193.92 L4.51,193.19 L5.08,192.46 L5.64,191.74 L6.21,191.02 L6.77,190.31 L7.33,189.60 L7.90,188.89 L8.46,188.19 L9.03,187.50 L9.59,186.81 L10.15,186.12 L10.72,185.44 L11.28,184.76 L11.85,184.09 L12.41,183.42 L12.98,182.75 L13.54,182.09 L14.10,181.44 L14.67,180.78 L15.23,180.14 L15.80,179.49 L16.36,178.86 L16.92,178.22 L17.49,177.59 L18.05,176.97 L18.62,176.34 L19.18,175.73 L19.75,175.11 L20.31,174.51 L20.87,173.90 L21.44,173.30 L22.00,172.70 L22.57,172.11 L23.13,171.53 L23.69,170.94 L24.26,170.36 L24.82,169.79 L25.39,169.22 L25.95,168.65 L26.52,168.09 L27.08,167.53 L27.64,166.97 L28.21,166.42 L28.77,165.88 L29.34,165.33 L29.90,164.79 L30.46,164.26 L31.03,163.73 L31.59,163.20 L32.16,162.68 L32.72,162.16 L33.28,161.65 L33.85,161.14 L34.41,160.63 L34.98,160.13 L35.54,159.63 L36.11,159.13 L36.67,158.64 L37.23,158.15 L37.80,157.67 L38.36,157.19 L38.93,156.71 L39.49,156.24 L40.05,155.77 L40.62,155.31 L41.18,154.85 L41.75,154.39 L42.31,153.94 L42.88,153.49 L43.44,153.04 L44.00,152.60 L44.57,152.16 L45.13,151.73 L45.70,151.30 L46.26,150.87 L46.82,150.45 L47.39,150.03 L47.95,149.61 L48.52,149.20 L49.08,148.79 L49.65,148.38 L50.21,147.98 L50.77,147.58 L51.34,147.18 L51.90,146.79 L52.47,146.40 L53.03,146.02 L53.59,145.64 L54.16,145.26 L54.72,144.89 L55.29,144.52 L55.85,144.15 L56.41,143.79 L56.98,143.42 L57.54,143.07 L58.11,142.71 L58.67,142.36 L59.24,142.02 L59.80,141.67 L60.36,141.33 L60.93,141.00 L61.49,140.66 L62.06,140.33 L62.62,140.00 L63.18,139.68 L63.75,139.36 L64.31,139.04 L64.88,138.73 L65.44,138.42 L66.01,138.11 L66.57,137.81 L67.13,137.51 L67.70,137.21 L68.26,136.91 L68.83,136.62 L69.39,136.33 L69.95,136.05 L70.52,135.76 L71.08,135.48 L71.65,135.21 L72.21,134.93 L72.78,134.66 L73.34,134.40 L73.90,134.13 L74.47,133.87 L75.03,133.61 L75.60,133.36 L76.16,133.11 L76.72,132.86 L77.29,132.61 L77.85,132.37 L78.42,132.13 L78.98,131.89 L79.55,131.66 L80.11,131.43 L80.67,131.20 L81.24,130.97 L81.80,130.75 L82.37,130.53 L82.93,130.31 L83.49,130.10 L84.06,129.88 L84.62,129.67 L85.19,129.47 L85.75,129.27 L86.31,129.06 L86.88,128.87 L87.44,128.67 L88.01,128.48 L88.57,128.29 L89.14,128.10 L89.70,127.92 L90.26,127.74 L90.83,127.56 L91.39,127.38 L91.96,127.21 L92.52,127.03 L93.08,126.87 L93.65,126.70 L94.21,126.54 L94.78,126.38 L95.34,126.22 L95.91,126.06 L96.47,125.91 L97.03,125.76 L97.60,125.61 L98.16,125.46 L98.73,125.32 L99.29,125.18 L99.85,125.04 L100.42,124.90 L100.98,124.77 L101.55,124.64 L102.11,124.51 L102.68,124.38 L103.24,124.26 L103.80,124.14 L104.37,124.02 L104.93,123.90 L105.50,123.79 L106.06,123.67 L106.62,123.56 L107.19,123.45 L107.75,123.35 L108.32,123.25 L108.88,123.14 L109.44,123.04 L110.01,122.95 L110.57,122.85 L111.14,122.76 L111.70,122.67 L112.27,122.58 L112.83,122.50 L113.39,122.41 L113.96,122.33 L114.52,122.25 L115.09,122.17 L115.65,122.10 L116.21,122.03 L116.78,121.95 L117.34,121.89 L117.91,121.82 L118.47,121.75 L119.04,121.69 L119.60,121.63 L120.16,121.57 L120.73,121.51 L121.29,121.46 L121.86,121.40 L122.42,121.35 L122.98,121.30 L123.55,121.26 L124.11,121.21 L124.68,121.17 L125.24,121.12 L125.81,121.08 L126.37,121.05 L126.93,121.01 L127.50,120.98 L128.06,120.94 L128.63,120.91 L129.19,120.88 L129.75,120.85 L130.32,120.83 L130.88,120.81 L131.45,120.78 L132.01,120.76 L132.58,120.74 L133.14,120.73 L133.70,120.71 L134.27,120.70 L134.83,120.69 L135.40,120.68 L135.96,120.67 L136.52,120.66 L137.09,120.65 L137.65,120.65 L138.22,120.65 L138.78,120.65 L139.34,120.65 L139.91,120.65 L140.47,120.65 L141.04,120.66 L141.60,120.66 L142.17,120.67 L142.73,120.68 L143.29,120.69 L143.86,120.71 L144.42,120.72 L144.99,120.74 L145.55,120.75 L146.11,120.77 L146.68,120.79 L147.24,120.81 L147.81,120.83 L148.37,120.86 L148.94,120.88 L149.50,120.91 L150.06,120.94 L150.63,120.97 L151.19,121.00 L151.76,121.03 L152.32,121.06 L152.88,121.09 L153.45,121.13 L154.01,121.17 L154.58,121.20 L155.14,121.24 L155.71,121.28 L156.27,121.32 L156.83,121.37 L157.40,121.41 L157.96,121.45 L158.53,121.50 L159.09,121.55 L159.65,121.60 L160.22,121.64 L160.78,121.69 L161.35,121.75 L161.91,121.80 L162.47,121.85 L163.04,121.91 L163.60,121.96 L164.17,122.02 L164.73,122.07 L165.30,122.13 L165.86,122.19 L166.42,122.25 L166.99,122.31 L167.55,122.37 L168.12,122.44 L168.68,122.50 L169.24,122.57 L169.81,122.63 L170.37,122.70 L170.94,122.76 L171.50,122.83 L172.07,122.90 L172.63,122.97 L173.19,123.04 L173.76,123.11 L174.32,123.18 L174.89,123.26 L175.45,123.33 L176.01,123.40 L176.58,123.48 L177.14,123.55 L177.71,123.63 L178.27,123.71 L178.84,123.78 L179.40,123.86 L179.96,123.94 L180.53,124.02 L181.09,124.10 L181.66,124.18 L182.22,124.26 L182.78,124.34 L183.35,124.43 L183.91,124.51 L184.48,124.59 L185.04,124.67 L185.61,124.76 L186.17,124.84 L186.73,124.93 L187.30,125.02 L187.86,125.10 L188.43,125.19 L188.99,125.28 L189.55,125.36 L190.12,125.45 L190.68,125.54 L191.25,125.63 L191.81,125.72 L192.37,125.81 L192.94,125.90 L193.50,125.99 L194.07,126.08 L194.63,126.17 L195.20,126.26 L195.76,126.35 L196.32,126.44 L196.89,126.53 L197.45,126.62 L198.02,126.72 L198.58,126.81 L199.14,126.90 L199.71,126.99 L200.27,127.09 L200.84,127.18 L201.40,127.27 L201.97,127.37 L202.53,127.46 L203.09,127.55 L203.66,127.65 L204.22,127.74 L204.79,127.83 L205.35,127.93 L205.91,128.02 L206.48,128.12 L207.04,128.21 L207.61,128.30 L208.17,128.40 L208.74,128.49 L209.30,128.59 L209.86,128.68 L210.43,128.77 L210.99,128.87 L211.56,128.96 L212.12,129.06 L212.68,129.15 L213.25,129.24 L213.81,129.34 L214.38,129.43 L214.94,129.52 L215.51,129.61 L216.07,129.71 L216.63,129.80 L217.20,129.89 L217.76,129.98 L218.33,130.08 L218.89,130.17 L219.45,130.26 L220.02,130.35 L220.58,130.44 L221.15,130.53 L221.71,130.62 L222.27,130.71 L222.84,130.80 L223.40,130.89 L223.97,130.98 L224.53,131.07 L225.10,131.15 L225.66,131.24 L226.22,131.33 L226.79,131.41 L227.35,131.50 L227.92,131.59 L228.48,131.67 L229.04,131.76 L229.61,131.84 L230.17,131.92 L230.74,132.01 L231.30,132.09 L231.87,132.17 L232.43,132.25 L232.99,132.34 L233.56,132.42 L234.12,132.50 L234.69,132.58 L235.25,132.65 L235.81,132.73 L236.38,132.81 L236.94,132.89 L237.51,132.96 L238.07,133.04 L238.64,133.11 L239.20,133.19 L239.76,133.26 L240.33,133.33 L240.89,133.41 L241.46,133.48 L242.02,133.55 L242.58,133.62 L243.15,133.68 L243.71,133.75 L244.28,133.82 L244.84,133.89 L245.40,133.95 L245.97,134.02 L246.53,134.08 L247.10,134.14 L247.66,134.20 L248.23,134.27 L248.79,134.33 L249.35,134.38 L249.92,134.44 L250.48,134.50 L251.05,134.56 L251.61,134.61 L252.17,134.67 L252.74,134.72 L253.30,134.77 L253.87,134.82 L254.43,134.87 L255.00,134.92 L255.56,134.97 L256.12,135.02 L256.69,135.06 L257.25,135.11 L257.82,135.15 L258.38,135.19 L258.94,135.23 L259.51,135.27 L260.07,135.31 L260.64,135.35 L261.20,135.39 L261.77,135.42 L262.33,135.46 L262.89,135.49 L263.46,135.52 L264.02,135.55 L264.59,135.58 L265.15,135.61 L265.71,135.63 L266.28,135.66 L266.84,135.68 L267.41,135.71 L267.97,135.73 L268.54,135.75 L269.10,135.76 L269.66,135.78 L270.23,135.80 L270.79,135.81 L271.36,135.82 L271.92,135.84 L272.48,135.85 L273.05,135.85 L273.61,135.86 L274.18,135.87 L274.74,135.87 L275.30,135.87 L275.87,135.87 L276.43,135.87 L277.00,135.87 L277.56,135.86 L278.13,135.86 L278.69,135.85 L279.25,135.84 L279.82,135.83 L280.38,135.82 L280.95,135.81 L281.51,135.79 L282.07,135.78 L282.64,135.76 L283.20,135.74 L283.77,135.71 L284.33,135.69 L284.90,135.66 L285.46,135.64 L286.02,135.61 L286.59,135.58 L287.15,135.54 L287.72,135.51 L288.28,135.47 L288.84,135.44 L289.41,135.40 L289.97,135.35 L290.54,135.31 L291.10,135.26 L291.67,135.22 L292.23,135.17 L292.79,135.12 L293.36,135.06 L293.92,135.01 L294.49,134.95 L295.05,134.89 L295.61,134.83 L296.18,134.77 L296.74,134.70 L297.31,134.64 L297.87,134.57 L298.43,134.49 L299.00,134.42 L299.56,134.35 L300.13,134.27 L300.69,134.19 L301.26,134.11 L301.82,134.02 L302.38,133.94 L302.95,133.85 L303.51,133.76 L304.08,133.67 L304.64,133.57 L305.20,133.48 L305.77,133.38 L306.33,133.28 L306.90,133.17 L307.46,133.07 L308.03,132.96 L308.59,132.85 L309.15,132.74 L309.72,132.62 L310.28,132.50 L310.85,132.39 L311.41,132.26 L311.97,132.14 L312.54,132.01 L313.10,131.88 L313.67,131.75 L314.23,131.62 L314.80,131.48 L315.36,131.34 L315.92,131.20 L316.49,131.06 L317.05,130.91 L317.62,130.77 L318.18,130.62 L318.74,130.46 L319.31,130.31 L319.87,130.15 L320.44,129.99 L321.00,129.82 L321.57,129.66 L322.13,129.49 L322.69,129.32 L323.26,129.14 L323.82,128.97 L324.39,128.79 L324.95,128.61 L325.51,128.42 L326.08,128.24 L326.64,128.05 L327.21,127.85 L327.77,127.66 L328.33,127.46 L328.90,127.26 L329.46,127.06 L330.03,126.85 L330.59,126.64 L331.16,126.43 L331.72,126.22 L332.28,126.00 L332.85,125.78 L333.41,125.55 L333.98,125.33 L334.54,125.10 L335.10,124.87 L335.67,124.63 L336.23,124.40 L336.80,124.16 L337.36,123.91 L337.93,123.67 L338.49,123.42 L339.05,123.17 L339.62,122.91 L340.18,122.65 L340.75,122.39 L341.31,122.13 L341.87,121.86 L342.44,121.59 L343.00,121.32 L343.57,121.04 L344.13,120.76 L344.70,120.48 L345.26,120.20 L345.82,119.91 L346.39,119.62 L346.95,119.32 L347.52,119.02 L348.08,118.72 L348.64,118.42 L349.21,118.11 L349.77,117.80 L350.34,117.48 L350.90,117.17 L351.46,116.85 L352.03,116.52 L352.59,116.20 L353.16,115.87 L353.72,115.53 L354.29,115.20 L354.85,114.86 L355.41,114.51 L355.98,114.17 L356.54,113.82 L357.11,113.46 L357.67,113.10 L358.23,112.74 L358.80,112.38 L359.36,112.01 L359.93,111.64 L360.49,111.27 L361.06,110.89 L361.62,110.51 L362.18,110.13 L362.75,109.74 L363.31,109.35 L363.88,108.95 L364.44,108.55 L365.00,108.15 L365.57,107.74 L366.13,107.34 L366.70,106.92 L367.26,106.51 L367.83,106.09 L368.39,105.66 L368.95,105.24 L369.52,104.80 L370.08,104.37 L370.65,103.93 L371.21,103.49 L371.77,103.04 L372.34,102.59 L372.90,102.14 L373.47,101.68 L374.03,101.22 L374.60,100.76 L375.16,100.29 L375.72,99.82 L376.29,99.34 L376.85,98.86 L377.42,98.38 L377.98,97.89 L378.54,97.40 L379.11,96.91 L379.67,96.41 L380.24,95.90 L380.80,95.40 L381.36,94.89 L381.93,94.37 L382.49,93.85 L383.06,93.33 L383.62,92.81 L384.19,92.27 L384.75,91.74 L385.31,91.20 L385.88,90.66 L386.44,90.11 L387.01,89.56 L387.57,89.01 L388.13,88.45 L388.70,87.89 L389.26,87.32 L389.83,86.75 L390.39,86.17 L390.96,85.59 L391.52,85.01 L392.08,84.42 L392.65,83.83 L393.21,83.24 L393.78,82.64 L394.34,82.03 L394.90,81.42 L395.47,80.81 L396.03,80.19 L396.60,79.57 L397.16,78.95 L397.73,78.32 L398.29,77.68 L398.85,77.04 L399.42,76.40 L399.98,75.75 L400.55,75.10 L401.11,74.45 L401.67,73.79 L402.24,73.12 L402.80,72.45 L403.37,71.78 L403.93,71.10 L404.49,70.42 L405.06,69.73 L405.62,69.04 L406.19,68.35 L406.75,67.64 L407.32,66.94 L407.88,66.23 L408.44,65.52 L409.01,64.80 L409.57,64.08 L410.14,63.35 L410.70,62.62 L411.26,61.88 L411.83,61.14 L412.39,60.39 L412.96,59.64 L413.52,58.89 L414.09,58.13 L414.65,57.36 L415.21,56.59 L415.78,55.82 L416.34,55.04 L416.91,54.26 L417.47,53.47 L418.03,52.68 L418.60,51.88 L419.16,51.08 L419.73,50.27 L420.29,49.46 L420.86,48.64 L421.42,47.82 L421.98,46.99 L422.55,46.16 L423.11,45.33 L423.68,44.49 L424.24,43.64 L424.80,42.79 L425.37,41.93 L425.93,41.07 L426.50,40.21 L427.06,39.34 L427.63,38.46 L428.19,37.58 L428.75,36.69 L429.32,35.80 L429.88,34.91 L430.45,34.01 L431.01,33.10 L431.57,32.19 L432.14,31.28 L432.70,30.36 L433.27,29.43 L433.83,28.50 L434.39,27.56 L434.96,26.62 L435.52,25.68 L436.09,24.72 L436.65,23.77 L437.22,22.81 L437.78,21.84 L438.34,20.87 L438.91,19.89 L439.47,18.91 L440.04,17.92 L440.60,16.93 L441.16,15.93 L441.73,14.92 L442.29,13.91 L442.86,12.90 L443.42,11.88 L443.99,10.85 L444.55,9.82 L445.11,8.79 L445.68,7.75 L446.24,6.70 L446.81,5.65 L447.37,4.59 L447.93,3.53 L448.50,2.46 L449.06,1.39 L449.63,0.31 L450.19,-0.78 L450.76,-1.87 L451.32,-2.96 L451.88,-4.06 L452.45,-5.17 L453.01,-6.28 L453.58,-7.40 L454.14,-8.52 L454.70,-9.65 L455.27,-10.79 L455.83,-11.93 L456.40,-13.07 L456.96,-14.22 L457.53,-15.38 L458.09,-16.54 L458.65,-17.71 L459.22,-18.88 L459.78,-20.06 L460.35,-21.25 L460.91,-22.44 L461.47,-23.64 L462.04,-24.84 L462.60,-26.05 L463.17,-27.26 L463.73,-28.48 L464.29,-29.71 L464.86,-30.94 L465.42,-32.17 L465.99,-33.42 L466.55,-34.67 L467.12,-35.92 L467.68,-37.18 L468.24,-38.45 L468.81,-39.72 L469.37,-41.00 L469.94,-42.28 L470.50,-43.57 L471.06,-44.87 L471.63,-46.17 L472.19,-47.48 L472.76,-48.79 L473.32,-50.11 L473.89,-51.44 L474.45,-52.77 L475.01,-54.11 L475.58,-55.45 L476.14,-56.80 L476.71,-58.16 L477.27,-59.52 L477.83,-60.89 L478.40,-62.27 L478.96,-63.65 L479.53,-65.03 L480.09,-66.43 L480.66,-67.83 L481.22,-69.23 L481.78,-70.64 L482.35,-72.06 L482.91,-73.48 L483.48,-74.91 L484.04,-76.35 L484.60,-77.79 L485.17,-79.24 L485.73,-80.70 L486.30,-82.16 L486.86,-83.63 L487.42,-85.10 L487.99,-86.58 L488.55,-88.07 L489.12,-89.56 L489.68,-91.06 L490.25,-92.57 L490.81,-94.08 L491.37,-95.60 L491.94,-97.12 L492.50,-98.65 L493.07,-100.19 L493.63,-101.74 L494.19,-103.29 L494.76,-104.84 L495.32,-106.41 L495.89,-107.98 L496.45,-109.56 L497.02,-111.14 L497.58,-112.73 L498.14,-114.33 L498.71,-115.93 L499.27,-117.54 L499.84,-119.16 L500.40,-120.78 L500.96,-122.41 L501.53,-124.04 L502.09,-125.69 L502.66,-127.34 L503.22,-128.99 L503.79,-130.66 L504.35,-132.32 L504.91,-134.00 L505.48,-135.68 L506.04,-137.37 L506.61,-139.07 L507.17,-140.77 L507.73,-142.48 L508.30,-144.20 L508.86,-145.92 L509.43,-147.65 L509.99,-149.39 L510.56,-151.14 L511.12,-152.89 L511.68,-154.64 L512.25,-156.41 L512.81,-158.18 L513.38,-159.96 L513.94,-161.74 L514.50,-163.54 L515.07,-165.34 L515.63,-167.14 L516.20,-168.96 L516.76,-170.78 L517.32,-172.60 L517.89,-174.44 L518.45,-176.28 L519.02,-178.13 L519.58,-179.98 L520.15,-181.84 L520.71,-183.71 L521.27,-185.59 L521.84,-187.47 L522.40,-189.36 L522.97,-191.26 L523.53,-193.17 L524.09,-195.08 L524.66,-197.00 L525.22,-198.92 L525.79,-200.86 L526.35,-202.80 L526.92,-204.75 L527.48,-206.70 L528.04,-208.66 L528.61,-210.63 L529.17,-212.61 L529.74,-214.60 L530.30,-216.59 L530.86,-218.59 L531.43,-220.59 L531.99,-222.60 L532.56,-224.63 L533.12,-226.65 L533.69,-228.69 L534.25,-230.73 L534.81,-232.78 L535.38,-234.84 L535.94,-236.91 L536.51,-238.98 L537.07,-241.06 L537.63,-243.14 L538.20,-245.24 L538.76,-247.34 L539.33,-249.45 L539.89,-251.57 L540.45,-253.69 L541.02,-255.83 L541.58,-257.97 L542.15,-260.11 L542.71,-262.27 L543.28,-264.43 L543.84,-266.60 L544.40,-268.78 L544.97,-270.00 L545.53,-270.00 L546.10,-270.00 L546.66,-270.00 L547.22,-270.00 L547.79,-270.00 L548.35,-270.00 L548.92,-270.00 L549.48,-270.00 L550.05,-270.00 L550.61,-270.00 L551.17,-270.00 L551.74,-270.00 L552.30,-270.00 L552.87,-270.00 L553.43,-270.00 L553.99,-270.00 L554.56,-270.00 L555.12,-270.00 L555.69,-270.00 L556.25,-270.00 L556.82,-270.00 L557.38,-270.00 L557.94,-270.00 L558.51,-270.00 L559.07,-270.00 L559.64,-270.00 L560.20,-270.00 L560.76,-270.00 L561.33,-270.00 L561.89,-270.00 L562.46,-270.00 L563.02,-270.00 L563.59,-270.00 L564.15,-270.00 L564.71,-270.00 L565.28,-270.00 L565.84,-270.00 L566.41,-270.00 L566.97,-270.00 L567.53,-270.00 L568.10,-270.00 L568.66,-270.00 L569.23,-270.00 L569.79,-270.00 L570.35,-270.00 L570.92,-270.00 L571.48,-270.00 L572.05,-270.00 L572.61,-270.00 L573.18,-270.00 L573.74,-270.00 L574.30,-270.00 L574.87,-270.00 L575.43,-270.00 L576.00,-270.00 L576.56,-270.00 L577.12,-270.00 L577.69,-270.00 L578.25,-270.00 L578.82,-270.00 L579.38,-270.00 L579.95,-270.00 L580.51,-270.00 L581.07,-270.00 L581.64,-270.00 L582.20,-270.00 L582.77,-270.00 L583.33,-270.00 L583.89,-270.00 L584.46,-270.00 L585.02,-270.00 L585.59,-270.00 L586.15,-270.00 L586.72,-270.00 L587.28,-270.00 L587.84,-270.00 L588.41,-270.00 L588.97,-270.00 L589.54,-270.00 L590.10,-270.00 L590.66,-270.00 L591.23,-270.00 L591.79,-270.00 L592.36,-270.00 L592.92,-270.00 L593.48,-270.00 L594.05,-270.00 L594.61,-270.00 L595.18,-270.00 L595.74,-270.00 L596.31,-270.00 L596.87,-270.00 L597.43,-270.00 L598.00,-270.00 L598.56,-270.00 L599.13,-270.00 L599.69,-270.00 L600.25,-270.00 L600.82,-270.00 L601.38,-270.00 L601.95,-270.00 L602.51,-270.00 L603.08,-270.00 L603.64,-270.00 L604.20,-270.00 L604.77,-270.00 L605.33,-270.00 L605.90,-270.00 L606.46,-270.00 L607.02,-270.00 L607.59,-270.00 L608.15,-270.00 L608.72,-270.00 L609.28,-270.00 L609.85,-270.00 L610.41,-270.00 L610.97,-270.00 L611.54,-270.00 L612.10,-270.00 L612.67,-270.00 L613.23,-270.00 L613.79,-270.00 L614.36,-270.00 L614.92,-270.00 L615.49,-270.00 L616.05,-270.00 L616.62,-270.00 L617.18,-270.00 L617.74,-270.00 L618.31,-270.00 L618.87,-270.00 L619.44,-270.00 L620.00,-270.00" style="stroke-width: 2; stroke: rgb(0, 0, 0); stroke-opacity: 1; stroke-dasharray: 2.25, 3.685;"/><path d=" M0.00,-270.00 L0.56,-270.00 L1.13,-270.00 L1.69,-270.00 L2.26,-270.00 L2.82,-270.00 L3.38,-270.00 L3.95,-270.00 L4.51,-270.00 L5.08,-270.00 L5.64,-270.00 L6.21,-270.00 L6.77,-270.00 L7.33,-270.00 L7.90,-270.00 L8.46,-270.00 L9.03,-270.00 L9.59,-270.00 L10.15,-270.00 L10.72,-270.00 L11.28,-270.00 L11.85,-270.00 L12.41,-270.00 L12.98,-270.00 L13.54,-270.00 L14.10,-270.00 L14.67,-270.00 L15.23,-270.00 L15.80,-270.00 L16.36,-270.00 L16.92,-270.00 L17.49,-270.00 L18.05,-270.00 L18.62,-270.00 L19.18,-270.00 L19.75,-270.00 L20.31,-270.00 L20.87,-270.00 L21.44,-270.00 L22.00,-270.00 L22.57,-270.00 L23.13,-270.00 L23.69,-270.00 L24.26,-270.00 L24.82,-270.00 L25.39,-270.00 L25.95,-270.00 L26.52,-270.00 L27.08,-270.00 L27.64,-270.00 L28.21,-270.00 L28.77,-270.00 L29.34,-270.00 L29.90,-270.00 L30.46,-270.00 L31.03,-270.00 L31.59,-270.00 L32.16,-270.00 L32.72,-270.00 L33.28,-270.00 L33.85,-270.00 L34.41,-270.00 L34.98,-270.00 L35.54,-270.00 L36.11,-270.00 L36.67,-270.00 L37.23,-270.00 L37.80,-270.00 L38.36,-270.00 L38.93,-270.00 L39.49,-270.00 L40.05,-270.00 L40.62,-270.00 L41.18,-270.00 L41.75,-270.00 L42.31,-270.00 L42.88,-270.00 L43.44,-270.00 L44.00,-270.00 L44.57,-270.00 L45.13,-270.00 L45.70,-270.00 L46.26,-270.00 L46.82,-270.00 L47.39,-270.00 L47.95,-270.00 L48.52,-270.00 L49.08,-270.00 L49.65,-270.00 L50.21,-270.00 L50.77,-270.00 L51.34,-270.00 L51.90,-270.00 L52.47,-270.00 L53.03,-270.00 L53.59,-270.00 L54.16,-270.00 L54.72,-270.00 L55.29,-270.00 L55.85,-270.00 L56.41,-270.00 L56.98,-270.00 L57.54,-270.00 L58.11,-270.00 L58.67,-270.00 L59.24,-270.00 L59.80,-270.00 L60.36,-270.00 L60.93,-270.00 L61.49,-270.00 L62.06,-270.00 L62.62,-270.00 L63.18,-270.00 L63.75,-270.00 L64.31,-270.00 L64.88,-270.00 L65.44,-270.00 L66.01,-270.00 L66.57,-270.00 L67.13,-270.00 L67.70,-270.00 L68.26,-270.00 L68.83,-270.00 L69.39,-270.00 L69.95,-270.00 L70.52,-270.00 L71.08,-270.00 L71.65,-270.00 L72.21,-270.00 L72.78,-270.00 L73.34,-270.00 L73.90,-270.00 L74.47,-270.00 L75.03,-270.00 L75.60,-270.00 L76.16,-270.00 L76.72,-270.00 L77.29,-270.00 L77.85,-270.00 L78.42,-270.00 L78.98,-270.00 L79.55,-270.00 L80.11,-270.00 L80.67,-270.00 L81.24,-270.00 L81.80,-270.00 L82.37,-270.00 L82.93,-270.00 L83.49,-270.00 L84.06,-270.00 L84.62,-270.00 L85.19,-270.00 L85.75,-270.00 L86.31,-270.00 L86.88,-270.00 L87.44,-270.00 L88.01,-270.00 L88.57,-270.00 L89.14,-270.00 L89.70,-270.00 L90.26,-270.00 L90.83,-270.00 L91.39,-270.00 L91.96,-270.00 L92.52,-270.00 L93.08,-270.00 L93.65,-270.00 L94.21,-270.00 L94.78,-270.00 L95.34,-270.00 L95.91,-270.00 L96.47,-270.00 L97.03,-270.00 L97.60,-270.00 L98.16,-270.00 L98.73,-270.00 L99.29,-270.00 L99.85,-270.00 L100.42,-270.00 L100.98,-270.00 L101.55,-270.00 L102.11,-270.00 L102.68,-270.00 L103.24,-270.00 L103.80,-270.00 L104.37,-270.00 L104.93,-270.00 L105.50,-270.00 L106.06,-270.00 L106.62,-270.00 L107.19,-270.00 L107.75,-270.00 L108.32,-270.00 L108.88,-270.00 L109.44,-270.00 L110.01,-270.00 L110.57,-270.00 L111.14,-270.00 L111.70,-270.00 L112.27,-270.00 L112.83,-270.00 L113.39,-270.00 L113.96,-270.00 L114.52,-270.00 L115.09,-270.00 L115.65,-270.00 L116.21,-270.00 L116.78,-270.00 L117.34,-270.00 L117.91,-270.00 L118.47,-270.00 L119.04,-270.00 L119.60,-270.00 L120.16,-270.00 L120.73,-270.00 L121.29,-270.00 L121.86,-270.00 L122.42,-270.00 L122.98,-270.00 L123.55,-270.00 L124.11,-269.90 L124.68,-267.86 L125.24,-265.83 L125.81,-263.81 L126.37,-261.78 L126.93,-259.77 L127.50,-257.76 L128.06,-255.75 L128.63,-253.75 L129.19,-251.75 L129.75,-249.76 L130.32,-247.77 L130.88,-245.79 L131.45,-243.81 L132.01,-241.84 L132.58,-239.87 L133.14,-237.91 L133.70,-235.95 L134.27,-234.00 L134.83,-232.05 L135.40,-230.11 L135.96,-228.17 L136.52,-226.23 L137.09,-224.31 L137.65,-222.38 L138.22,-220.46 L138.78,-218.55 L139.34,-216.64 L139.91,-214.74 L140.47,-212.84 L141.04,-210.94 L141.60,-209.05 L142.17,-207.17 L142.73,-205.29 L143.29,-203.42 L143.86,-201.55 L144.42,-199.68 L144.99,-197.82 L145.55,-195.97 L146.11,-194.12 L146.68,-192.27 L147.24,-190.43 L147.81,-188.60 L148.37,-186.77 L148.94,-184.94 L149.50,-183.12 L150.06,-181.30 L150.63,-179.49 L151.19,-177.69 L151.76,-175.88 L152.32,-174.09 L152.88,-172.30 L153.45,-170.51 L154.01,-168.73 L154.58,-166.95 L155.14,-165.18 L155.71,-163.41 L156.27,-161.65 L156.83,-159.89 L157.40,-158.14 L157.96,-156.40 L158.53,-154.65 L159.09,-152.92 L159.65,-151.18 L160.22,-149.45 L160.78,-147.73 L161.35,-146.01 L161.91,-144.30 L162.47,-142.59 L163.04,-140.89 L163.60,-139.19 L164.17,-137.50 L164.73,-135.81 L165.30,-134.13 L165.86,-132.45 L166.42,-130.77 L166.99,-129.10 L167.55,-127.44 L168.12,-125.78 L168.68,-124.13 L169.24,-122.48 L169.81,-120.83 L170.37,-119.19 L170.94,-117.56 L171.50,-115.93 L172.07,-114.30 L172.63,-112.68 L173.19,-111.07 L173.76,-109.46 L174.32,-107.85 L174.89,-106.25 L175.45,-104.66 L176.01,-103.07 L176.58,-101.48 L177.14,-99.90 L177.71,-98.32 L178.27,-96.75 L178.84,-95.19 L179.40,-93.63 L179.96,-92.07 L180.53,-90.52 L181.09,-88.97 L181.66,-87.43 L182.22,-85.89 L182.78,-84.36 L183.35,-82.83 L183.91,-81.31 L184.48,-79.79 L185.04,-78.28 L185.61,-76.78 L186.17,-75.27 L186.73,-73.78 L187.30,-72.28 L187.86,-70.79 L188.43,-69.31 L188.99,-67.83 L189.55,-66.36 L190.12,-64.89 L190.68,-63.43 L191.25,-61.97 L191.81,-60.52 L192.37,-59.07 L192.94,-57.62 L193.50,-56.19 L194.07,-54.75 L194.63,-53.32 L195.20,-51.90 L195.76,-50.48 L196.32,-49.07 L196.89,-47.66 L197.45,-46.25 L198.02,-44.85 L198.58,-43.46 L199.14,-42.07 L199.71,-40.68 L200.27,-39.30 L200.84,-37.93 L201.40,-36.56 L201.97,-35.19 L202.53,-33.83 L203.09,-32.48 L203.66,-31.12 L204.22,-29.78 L204.79,-28.44 L205.35,-27.10 L205.91,-25.77 L206.48,-24.44 L207.04,-23.12 L207.61,-21.81 L208.17,-20.50 L208.74,-19.19 L209.30,-17.89 L209.86,-16.59 L210.43,-15.30 L210.99,-14.01 L211.56,-12.73 L212.12,-11.45 L212.68,-10.18 L213.25,-8.91 L213.81,-7.65 L214.38,-6.39 L214.94,-5.14 L215.51,-3.89 L216.07,-2.65 L216.63,-1.41 L217.20,-0.18 L217.76,1.05 L218.33,2.28 L218.89,3.49 L219.45,4.71 L220.02,5.92 L220.58,7.12 L221.15,8.32 L221.71,9.51 L222.27,10.70 L222.84,11.89 L223.40,13.07 L223.97,14.24 L224.53,15.41 L225.10,16.57 L225.66,17.73 L226.22,18.89 L226.79,20.04 L227.35,21.18 L227.92,22.32 L228.48,23.46 L229.04,24.59 L229.61,25.71 L230.17,26.84 L230.74,27.95 L231.30,29.06 L231.87,30.17 L232.43,31.27 L232.99,32.36 L233.56,33.46 L234.12,34.54 L234.69,35.62 L235.25,36.70 L235.81,37.77 L236.38,38.84 L236.94,39.90 L237.51,40.96 L238.07,42.01 L238.64,43.06 L239.20,44.10 L239.76,45.14 L240.33,46.17 L240.89,47.20 L241.46,48.22 L242.02,49.24 L242.58,50.25 L243.15,51.26 L243.71,52.26 L244.28,53.26 L244.84,54.25 L245.40,55.24 L245.97,56.22 L246.53,57.20 L247.10,58.18 L247.66,59.14 L248.23,60.11 L248.79,61.07 L249.35,62.02 L249.92,62.97 L250.48,63.91 L251.05,64.85 L251.61,65.79 L252.17,66.72 L252.74,67.64 L253.30,68.56 L253.87,69.48 L254.43,70.39 L255.00,71.29 L255.56,72.19 L256.12,73.09 L256.69,73.98 L257.25,74.86 L257.82,75.74 L258.38,76.62 L258.94,77.49 L259.51,78.36 L260.07,79.22 L260.64,80.07 L261.20,80.93 L261.77,81.77 L262.33,82.61 L262.89,83.45 L263.46,84.28 L264.02,85.11 L264.59,85.93 L265.15,86.75 L265.71,87.56 L266.28,88.37 L266.84,89.17 L267.41,89.97 L267.97,90.76 L268.54,91.55 L269.10,92.33 L269.66,93.11 L270.23,93.88 L270.79,94.65 L271.36,95.41 L271.92,96.17 L272.48,96.92 L273.05,97.67 L273.61,98.42 L274.18,99.15 L274.74,99.89 L275.30,100.62 L275.87,101.34 L276.43,102.06 L277.00,102.77 L277.56,103.48 L278.13,104.19 L278.69,104.89 L279.25,105.58 L279.82,106.27 L280.38,106.96 L280.95,107.64 L281.51,108.31 L282.07,108.98 L282.64,109.65 L283.20,110.31 L283.77,110.96 L284.33,111.61 L284.90,112.26 L285.46,112.90 L286.02,113.53 L286.59,114.17 L287.15,114.79 L287.72,115.41 L288.28,116.03 L288.84,116.64 L289.41,117.25 L289.97,117.85 L290.54,118.44 L291.10,119.04 L291.67,119.62 L292.23,120.21 L292.79,120.78 L293.36,121.35 L293.92,121.92 L294.49,122.48 L295.05,123.04 L295.61,123.59 L296.18,124.14 L296.74,124.68 L297.31,125.22 L297.87,125.76 L298.43,126.28 L299.00,126.81 L299.56,127.33 L300.13,127.84 L300.69,128.35 L301.26,128.85 L301.82,129.35 L302.38,129.84 L302.95,130.33 L303.51,130.82 L304.08,131.30 L304.64,131.77 L305.20,132.24 L305.77,132.70 L306.33,133.16 L306.90,133.62 L307.46,134.07 L308.03,134.51 L308.59,134.95 L309.15,135.39 L309.72,135.82 L310.28,136.24 L310.85,136.66 L311.41,137.08 L311.97,137.49 L312.54,137.89 L313.10,138.30 L313.67,138.69 L314.23,139.08 L314.80,139.47 L315.36,139.85 L315.92,140.23 L316.49,140.60 L317.05,140.96 L317.62,141.33 L318.18,141.68 L318.74,142.03 L319.31,142.38 L319.87,142.72 L320.44,143.06 L321.00,143.39 L321.57,143.72 L322.13,144.04 L322.69,144.36 L323.26,144.67 L323.82,144.98 L324.39,145.28 L324.95,145.58 L325.51,145.87 L326.08,146.16 L326.64,146.45 L327.21,146.72 L327.77,147.00 L328.33,147.27 L328.90,147.53 L329.46,147.79 L330.03,148.04 L330.59,148.29 L331.16,148.54 L331.72,148.78 L332.28,149.01 L332.85,149.24 L333.41,149.46 L333.98,149.68 L334.54,149.90 L335.10,150.11 L335.67,150.31 L336.23,150.51 L336.80,150.71 L337.36,150.90 L337.93,151.08 L338.49,151.26 L339.05,151.44 L339.62,151.61 L340.18,151.78 L340.75,151.94 L341.31,152.09 L341.87,152.24 L342.44,152.39 L343.00,152.53 L343.57,152.67 L344.13,152.80 L344.70,152.93 L345.26,153.05 L345.82,153.16 L346.39,153.28 L346.95,153.38 L347.52,153.49 L348.08,153.58 L348.64,153.68 L349.21,153.76 L349.77,153.85 L350.34,153.92 L350.90,154.00 L351.46,154.06 L352.03,154.13 L352.59,154.18 L353.16,154.24 L353.72,154.29 L354.29,154.33 L354.85,154.37 L355.41,154.40 L355.98,154.43 L356.54,154.45 L357.11,154.47 L357.67,154.49 L358.23,154.50 L358.80,154.50 L359.36,154.50 L359.93,154.49 L360.49,154.48 L361.06,154.47 L361.62,154.45 L362.18,154.42 L362.75,154.39 L363.31,154.36 L363.88,154.32 L364.44,154.27 L365.00,154.22 L365.57,154.17 L366.13,154.11 L366.70,154.04 L367.26,153.98 L367.83,153.90 L368.39,153.82 L368.95,153.74 L369.52,153.65 L370.08,153.56 L370.65,153.46 L371.21,153.35 L371.77,153.24 L372.34,153.13 L372.90,153.01 L373.47,152.89 L374.03,152.76 L374.60,152.63 L375.16,152.49 L375.72,152.35 L376.29,152.20 L376.85,152.05 L377.42,151.89 L377.98,151.73 L378.54,151.56 L379.11,151.39 L379.67,151.21 L380.24,151.03 L380.80,150.84 L381.36,150.65 L381.93,150.46 L382.49,150.25 L383.06,150.05 L383.62,149.84 L384.19,149.62 L384.75,149.40 L385.31,149.17 L385.88,148.94 L386.44,148.71 L387.01,148.47 L387.57,148.22 L388.13,147.97 L388.70,147.72 L389.26,147.46 L389.83,147.19 L390.39,146.92 L390.96,146.65 L391.52,146.37 L392.08,146.08 L392.65,145.79 L393.21,145.50 L393.78,145.20 L394.34,144.89 L394.90,144.58 L395.47,144.27 L396.03,143.95 L396.60,143.63 L397.16,143.30 L397.73,142.96 L398.29,142.63 L398.85,142.28 L399.42,141.93 L399.98,141.58 L400.55,141.22 L401.11,140.86 L401.67,140.49 L402.24,140.12 L402.80,139.74 L403.37,139.36 L403.93,138.97 L404.49,138.58 L405.06,138.18 L405.62,137.78 L406.19,137.37 L406.75,136.96 L407.32,136.54 L407.88,136.12 L408.44,135.69 L409.01,135.26 L409.57,134.83 L410.14,134.39 L410.70,133.94 L411.26,133.49 L411.83,133.03 L412.39,132.57 L412.96,132.10 L413.52,131.63 L414.09,131.16 L414.65,130.68 L415.21,130.19 L415.78,129.70 L416.34,129.21 L416.91,128.71 L417.47,128.20 L418.03,127.69 L418.60,127.18 L419.16,126.66 L419.73,126.13 L420.29,125.60 L420.86,125.07 L421.42,124.53 L421.98,123.99 L422.55,123.44 L423.11,122.88 L423.68,122.32 L424.24,121.76 L424.80,121.19 L425.37,120.62 L425.93,120.04 L426.50,119.46 L427.06,118.87 L427.63,118.27 L428.19,117.68 L428.75,117.07 L429.32,116.46 L429.88,115.85 L430.45,115.23 L431.01,114.61 L431.57,113.98 L432.14,113.35 L432.70,112.71 L433.27,112.07 L433.83,111.43 L434.39,110.77 L434.96,110.12 L435.52,109.46 L436.09,108.79 L436.65,108.12 L437.22,107.44 L437.78,106.76 L438.34,106.07 L438.91,105.38 L439.47,104.69 L440.04,103.99 L440.60,103.28 L441.16,102.57 L441.73,101.85 L442.29,101.13 L442.86,100.41 L443.42,99.68 L443.99,98.94 L444.55,98.20 L445.11,97.46 L445.68,96.71 L446.24,95.95 L446.81,95.19 L447.37,94.43 L447.93,93.66 L448.50,92.88 L449.06,92.11 L449.63,91.32 L450.19,90.53 L450.76,89.74 L451.32,88.94 L451.88,88.14 L452.45,87.33 L453.01,86.51 L453.58,85.70 L454.14,84.87 L454.70,84.04 L455.27,83.21 L455.83,82.37 L456.40,81.53 L456.96,80.68 L457.53,79.83 L458.09,78.97 L458.65,78.11 L459.22,77.24 L459.78,76.37 L460.35,75.49 L460.91,74.61 L461.47,73.72 L462.04,72.83 L462.60,71.93 L463.17,71.03 L463.73,70.13 L464.29,69.22 L464.86,68.30 L465.42,67.38 L465.99,66.45 L466.55,65.52 L467.12,64.58 L467.68,63.64 L468.24,62.70 L468.81,61.75 L469.37,60.79 L469.94,59.83 L470.50,58.87 L471.06,57.90 L471.63,56.92 L472.19,55.94 L472.76,54.96 L473.32,53.97 L473.89,52.97 L474.45,51.97 L475.01,50.97 L475.58,49.96 L476.14,48.94 L476.71,47.93 L477.27,46.90 L477.83,45.87 L478.40,44.84 L478.96,43.80 L479.53,42.76 L480.09,41.71 L480.66,40.65 L481.22,39.60 L481.78,38.53 L482.35,37.46 L482.91,36.39 L483.48,35.31 L484.04,34.23 L484.60,33.14 L485.17,32.05 L485.73,30.95 L486.30,29.85 L486.86,28.74 L487.42,27.63 L487.99,26.51 L488.55,25.39 L489.12,24.27 L489.68,23.13 L490.25,22.00 L490.81,20.86 L491.37,19.71 L491.94,18.56 L492.50,17.40 L493.07,16.24 L493.63,15.07 L494.19,13.90 L494.76,12.73 L495.32,11.55 L495.89,10.36 L496.45,9.17 L497.02,7.97 L497.58,6.77 L498.14,5.57 L498.71,4.36 L499.27,3.14 L499.84,1.92 L500.40,0.70 L500.96,-0.53 L501.53,-1.76 L502.09,-3.00 L502.66,-4.25 L503.22,-5.50 L503.79,-6.75 L504.35,-8.01 L504.91,-9.28 L505.48,-10.54 L506.04,-11.82 L506.61,-13.10 L507.17,-14.38 L507.73,-15.67 L508.30,-16.96 L508.86,-18.26 L509.43,-19.56 L509.99,-20.87 L510.56,-22.18 L511.12,-23.50 L511.68,-24.82 L512.25,-26.15 L512.81,-27.48 L513.38,-28.82 L513.94,-30.16 L514.50,-31.51 L515.07,-32.86 L515.63,-34.22 L516.20,-35.58 L516.76,-36.95 L517.32,-38.32 L517.89,-39.70 L518.45,-41.08 L519.02,-42.47 L519.58,-43.86 L520.15,-45.25 L520.71,-46.65 L521.27,-48.06 L521.84,-49.47 L522.40,-50.89 L522.97,-52.31 L523.53,-53.73 L524.09,-55.16 L524.66,-56.60 L525.22,-58.04 L525.79,-59.48 L526.35,-60.93 L526.92,-62.39 L527.48,-63.85 L528.04,-65.31 L528.61,-66.78 L529.17,-68.26 L529.74,-69.74 L530.30,-71.22 L530.86,-72.71 L531.43,-74.20 L531.99,-75.70 L532.56,-77.21 L533.12,-78.72 L533.69,-80.23 L534.25,-81.75 L534.81,-83.27 L535.38,-84.80 L535.94,-86.33 L536.51,-87.87 L537.07,-89.41 L537.63,-90.96 L538.20,-92.52 L538.76,-94.07 L539.33,-95.64 L539.89,-97.20 L540.45,-98.78 L541.02,-100.35 L541.58,-101.94 L542.15,-103.52 L542.71,-105.11 L543.28,-106.71 L543.84,-108.31 L544.40,-109.92 L544.97,-111.53 L545.53,-113.15 L546.10,-114.77 L546.66,-116.40 L547.22,-118.03 L547.79,-119.66 L548.35,-121.30 L548.92,-122.95 L549.48,-124.60 L550.05,-126.26 L550.61,-127.92 L551.17,-129.58 L551.74,-131.25 L552.30,-132.93 L552.87,-134.61 L553.43,-136.29 L553.99,-137.98 L554.56,-139.68 L555.12,-141.38 L555.69,-143.08 L556.25,-144.79 L556.82,-146.51 L557.38,-148.23 L557.94,-149.95 L558.51,-151.68 L559.07,-153.41 L559.64,-155.15 L560.20,-156.90 L560.76,-158.64 L561.33,-160.40 L561.89,-162.16 L562.46,-163.92 L563.02,-165.69 L563.59,-167.46 L564.15,-169.24 L564.71,-171.02 L565.28,-172.81 L565.84,-174.60 L566.41,-176.40 L566.97,-178.20 L567.53,-180.01 L568.10,-181.82 L568.66,-183.64 L569.23,-185.46 L569.79,-187.29 L570.35,-189.12 L570.92,-190.96 L571.48,-192.80 L572.05,-194.65 L572.61,-196.50 L573.18,-198.36 L573.74,-200.22 L574.30,-202.08 L574.87,-203.95 L575.43,-205.83 L576.00,-207.71 L576.56,-209.60 L577.12,-211.49 L577.69,-213.38 L578.25,-215.28 L578.82,-217.19 L579.38,-219.10 L579.95,-221.01 L580.51,-222.93 L581.07,-224.86 L581.64,-226.79 L582.20,-228.72 L582.77,-230.66 L583.33,-232.61 L583.89,-234.56 L584.46,-236.51 L585.02,-238.47 L585.59,-240.44 L586.15,-242.40 L586.72,-244.38 L587.28,-246.36 L587.84,-248.34 L588.41,-250.33 L588.97,-252.32 L589.54,-254.32 L590.10,-256.33 L590.66,-258.33 L591.23,-260.35 L591.79,-262.36 L592.36,-264.39 L592.92,-266.42 L593.48,-268.45 L594.05,-270.00 L594.61,-270.00 L595.18,-270.00 L595.74,-270.00 L596.31,-270.00 L596.87,-270.00 L597.43,-270.00 L598.00,-270.00 L598.56,-270.00 L599.13,-270.00 L599.69,-270.00 L600.25,-270.00 L600.82,-270.00 L601.38,-270.00 L601.95,-270.00 L602.51,-270.00 L603.08,-270.00 L603.64,-270.00 L604.20,-270.00 L604.77,-270.00 L605.33,-270.00 L605.90,-270.00 L606.46,-270.00 L607.02,-270.00 L607.59,-270.00 L608.15,-270.00 L608.72,-270.00 L609.28,-270.00 L609.85,-270.00 L610.41,-270.00 L610.97,-270.00 L611.54,-270.00 L612.10,-270.00 L612.67,-270.00 L613.23,-270.00 L613.79,-270.00 L614.36,-270.00 L614.92,-270.00 L615.49,-270.00 L616.05,-270.00 L616.62,-270.00 L617.18,-270.00 L617.74,-270.00 L618.31,-270.00 L618.87,-270.00 L619.44,-270.00 L620.00,-270.00" style="stroke-width: 2; stroke: rgb(208, 2, 27); stroke-opacity: 1;"/></g></g><g class="test-xtl" style="font-family: &quot;Open Sans&quot;, verdana, arial, sans-serif;"><text text-anchor="middle" font-size="11" dominant-baseline="hanging" stroke="none" fill="rgb(50,50,50)" fill-opacity="1" x="30.865000000000023" y="142">-20</text><text text-anchor="middle" font-size="11" dominant-baseline="hanging" stroke="none" fill="rgb(50,50,50)" fill-opacity="1" x="95.86500000000001" y="142">-15</text><text text-anchor="middle" font-size="11" dominant-baseline="hanging" stroke="none" fill="rgb(50,50,50)" fill-opacity="1" x="160.865" y="142">-10</text><text text-anchor="middle" font-size="11" dominant-baseline="hanging" stroke="none" fill="rgb(50,50,50)" fill-opacity="1" x="225.86500000000004" y="142">-5</text><text text-anchor="middle" font-size="11" dominant-baseline="hanging" stroke="none" fill="rgb(50,50,50)" fill-opacity="1" x="359.00000000000006" y="142">5</text><text text-anchor="middle" font-size="11" dominant-baseline="hanging" stroke="none" fill="rgb(50,50,50)" fill-opacity="1" x="424" y="142">10</text><text text-anchor="middle" font-size="11" dominant-baseline="hanging" stroke="none" fill="rgb(50,50,50)" fill-opacity="1" x="489" y="142">15</text><text text-anchor="middle" font-size="11" dominant-baseline="hanging" stroke="none" fill="rgb(50,50,50)" fill-opacity="1" x="553.9999999999999" y="142">20</text><text text-anchor="middle" font-size="11" dominant-baseline="hanging" stroke="none" fill="rgb(50,50,50)" fill-opacity="1" x="619" y="142">25</text><text text-anchor="middle" font-size="11" dominant-baseline="hanging" stroke="none" fill="rgb(50,50,50)" fill-opacity="1" x="286" y="140">0</text></g><g class="test-ytl" style="font-family: &quot;Open Sans&quot;, verdana, arial, sans-serif;"><text text-anchor="end" dominant-baseline="middle" font-size="11" stroke="none" fill="rgb(50,50,50)" fill-opacity="1" x="286" y="265">-10</text><text text-anchor="end" dominant-baseline="middle" font-size="11" stroke="none" fill="rgb(50,50,50)" fill-opacity="1" x="286" y="200">-5</text><text text-anchor="end" dominant-baseline="middle" font-size="11" stroke="none" fill="rgb(50,50,50)" fill-opacity="1" x="286" y="70">5</text><text text-anchor="end" dominant-baseline="middle" font-size="11" stroke="none" fill="rgb(50,50,50)" fill-opacity="1" x="286" y="5">10</text></g><rect class="real" x="1" y="1" width="618" height="268" style="fill: transparent; stroke: none;"/></g></g></g><g/></g><g/><g/><g/></svg>
        <svg xmlns="http://www.w3.org/2000/svg" xmlns:xlink="http://www.w3.org/1999/xlink" width="660" height="310" style="width:660px;height:310px;font-family:Asana-Math, Asana;background:transparent;"></svg>
</svg>
